<?xml version="1.0" encoding="UTF-8"?><svg id="Calque_2" xmlns="http://www.w3.org/2000/svg" viewBox="0 0 102 102"><defs><style>.cls-1{fill:#fff;}</style></defs><g id="logo1"><g id="contenu2"><rect class="cls-1" width="102" height="102" rx="14.12" ry="14.12"/></g><g id="contenu1"><g id="logo"><path d="m79.75,66.78c1.49-1.56,1.36-4.06-.23-5.53-.5-.46-1.01-.86-1.52-1.2-9-6-4.25-11.71-3.81-12.52,1.47-2.62,2.31-5.65,2.31-8.87,0-.02,0-.05,0-.07-.02-4.27-2.88-8-6.91-9.4-2.39-.83-4.89-1.28-7.34-1.2-7.73.25-9.68,5.6-17.32,10.5-1.67,1.07-3.32,1.94-4.94,2.67v26.28c0,3.03-2,5.82-4.96,6.48-.35.08-.69.12-1.04.12-.52,0-1.04-.04-1.53-.12-3.19-.5-5.47-3.38-5.47-6.61v-7.08c0-2.4-1.61-4.61-3.97-5.08-3.21-.64-6.03,1.8-6.03,4.9h0c0,1.69.59,3.34,1.71,4.61,8.12,9.24,19.26,12.66,25.44,13.89,2.97.59,5.83-1.33,6.46-4.29.25-1.18.39-2.41.39-3.66v-32.19c0-3.51,2.82-6.36,6.32-6.41h.09c6.59-.05,8.96,4.15,9.59,6.05,1,3,1,6-2.75,9.92-3.25,4.08-4.25,5.08-4.25,7.08,0,7,11,5,11,14,0,6.19-6.58,6.39-9.56,8.7.03,0,.06-.01.08-.02,0,0,11.28-3.66,18.22-10.95Z"/><path d="m40.89,36.61c.11-.06.21-.15.33-.19,4.81-1.61,5.93-3.86,8.16-5.99-.02-.24-.04-.49-.08-.74-.41-2.29-2.16-4.2-4.41-4.79-4.46-1.18-8.55,2.59-7.73,7.15.37,2.05,1.82,3.79,3.73,4.56Z"/></g></g></g></svg>