<?xml version="1.0" encoding="UTF-8"?><svg id="Calque_2" xmlns="http://www.w3.org/2000/svg" viewBox="0 0 30.4 30.46"><defs><style>.cls-1{fill:#f1e2c3;}.cls-1,.cls-2{stroke-width:0px;}.cls-2{fill:#220d09;}</style></defs><g id="after_effects"><path class="cls-1" d="M.72,15.05V3.05C.72,1.7,1.82.6,3.17.6h24c1.35,0,2.45,1.1,2.45,2.45v24c0,1.35-1.1,2.45-2.45,2.45H3.17c-1.35,0-2.45-1.1-2.45-2.45v-1.89"/><path class="cls-1" d="M.11,25.28c0-.15-.1-.1-.11-.12.02.25.14.11.11.12Z"/><path class="cls-1" d="M.47,27.84l-.05-.04c.07.13.15.25.24.36-.07-.1-.13-.21-.18-.32Z"/><path class="cls-1" d="M2.22,29.7c-.17-.22-.88-.39-1.15-.82l-.02-.08-.24-.08c.35.5,1.05.83,1.41.99Z"/><path class="cls-1" d="M3.56,30.25c-.08-.07.27-.06-.29-.02.02,0,.04.01.05.02.05,0,.12,0,.23,0Z"/><path class="cls-1" d="M3.33,30.25c-.24,0,.16.06,0,0h0Z"/><path class="cls-1" d="M4.45,30.21l-.32.06c.07.04.35.05.25.08.33-.03.26-.07.07-.14Z"/><path class="cls-1" d="M4.75,30.08l-.17.03s.07.02.17-.03Z"/><path class="cls-1" d="M4.23,30.16l.35-.06s-.05-.09-.16.02c.03-.05-.04,0-.19.04Z"/><path class="cls-1" d="M4.03,30.13c-.18-.04-.41-.06-.09-.12-.61.02-.52.15.09.12Z"/><path class="cls-1" d="M2.4,29.57l-.22-.14-.23-.04c.11.03.44.24.45.18Z"/><path class="cls-1" d="M6.44,30.3s-.11-.1-.13-.15l-.24.04c.12.03.35.05.37.11Z"/><path class="cls-1" d="M6.31,30.15l.35-.07c-.32,0-.37.02-.35.07Z"/><polygon class="cls-1" points="4.81 29.88 4.23 30.02 4.92 29.88 4.81 29.88"/><polygon class="cls-1" points="7.79 30.31 7.59 30.39 7.95 30.26 7.79 30.31"/><path class="cls-1" d="M8.69,30.29c-.15.07.2.12.05.17.24-.01.45-.08.64-.13-.2.03-.41.02-.69-.04Z"/><path class="cls-1" d="M9.69,30.25c-.1.02-.2.05-.31.08.11-.02.21-.04.31-.08Z"/><path class="cls-1" d="M7.27,30.11s.08.08.28.11l-.14-.11s-.09,0-.14,0Z"/><path class="cls-1" d="M7.4,30.1h0c.15,0,.26,0,.3,0-.04,0-.13,0-.31,0Z"/><path class="cls-1" d="M7.23,30.1h.04s-.02-.01-.04,0Z"/><path class="cls-1" d="M5.74,29.98c.21-.06.64-.12.22-.21-.15.07.09.12-.22.21Z"/><path class="cls-1" d="M7.06,29.97l-.38-.02s.08.07-.03.1l.4-.07Z"/><polygon class="cls-1" points="7.24 29.94 7.06 29.97 7.2 29.98 7.24 29.94"/><path class="cls-1" d="M9.05,30.15c.16-.05.34-.05.54-.06-.21-.02-.44-.03-.65-.03-.03.03-.12.09.11.09Z"/><path class="cls-1" d="M8.25,30.12h.04s-.04-.02-.04,0Z"/><polygon class="cls-1" points="11.56 30.09 11.53 30.07 11.52 30.09 11.56 30.09"/><path class="cls-1" d="M8.9,30.04c-.16-.02-.26,0-.35.04.12-.01.25-.02.39-.02.01-.02.02-.03-.04-.02Z"/><path class="cls-1" d="M10.24,30.2c-.08-.02-.18-.04-.28-.06.08.03.25.09.28.06Z"/><path class="cls-1" d="M8.34,30.14h-.02c.05.03.05.02.02,0Z"/><path class="cls-1" d="M8.34,30.14c.08-.02.15-.04.21-.07-.1,0-.19.02-.27.04.02,0,.04.02.05.03Z"/><path class="cls-1" d="M12.16,29.4c-.03.1-.45.19-.82.08-.36.07-.12.4.19.58.01-.04.01-.08.38-.14-.13-.05-.82-.13-.51-.22.49-.05.4.04.64.09-.2-.12.63-.18.52-.36l-.43.06s.15-.07.03-.1Z"/><path class="cls-1" d="M10.82,30.06h-.15c.17.03.3.07.53.15.25-.05.31-.09.32-.12h-.75s.05-.03.05-.03Z"/><path class="cls-1" d="M9.98,30.07c.12-.11.49-.15.26-.27-.45,0-.31.09-.58.14.72-.03-.21.06.32.12-.14.02-.27.02-.39.03.13.01.26.03.37.05h-.02s0,0,0,0h0s-.04-.02,0-.02h.02s.02-.03.03-.04c.21.02.03.03-.03.04,0,0,0,.01,0,.02h0s.72-.06.72-.06c-.15-.01-.35-.01-.69,0Z"/><path class="cls-1" d="M6.34,29.53s.02.02.02.03c.05-.01.06-.02-.02-.03Z"/><path class="cls-1" d="M6.64,29.6c-.05.02-.1.06-.27.05-.15-.03,0-.05,0-.09-.1.03-.36.08-.04.13h.05c.29.02.67.16.62.17-.09-.1-.16-.17-.35-.26Z"/><path class="cls-1" d="M8.33,29.81l.6-.05-.31-.09.02.06c-.34-.02-.27.05-.31.09Z"/><polygon class="cls-1" points="11.63 30.14 11.55 30.26 11.9 30.09 11.63 30.14"/><polygon class="cls-1" points="12.41 30.13 12.38 30.23 12.59 30.17 12.41 30.13"/><path class="cls-1" d="M28.61,1.88l-.11-.08s.08.06.11.08Z"/><path class="cls-1" d="M28.99,2.76l.05.02s-.06-.06-.05-.02Z"/><path class="cls-1" d="M30.24,26.38c.09-.26.24-.55.12-.52l-.11.08c.02.18,0,.32-.02.44Z"/><path class="cls-1" d="M29.59,13.19l-.03.08c.04.06.07.12.1.17-.02-.08-.05-.16-.07-.25Z"/><path class="cls-1" d="M29.14,13l.07-.34c-.02.08-.05.19-.07.34Z"/><path class="cls-1" d="M22.33,1.31l-.21.11c.32,0,.18-.06.21-.11Z"/><path class="cls-1" d="M20.45,30.09c.22.04.4.06.56.07-.27-.06-.49-.16-.56-.07Z"/><path class="cls-1" d="M29.84,1.67c-.08-.11-.13-.14-.15-.13.09.1.14.17.15.13Z"/><path class="cls-1" d="M21.65,30.15s-.08-.02-.12-.03c-.16.02-.33.03-.53.03.2.05.43.07.64,0Z"/><path class="cls-1" d="M1.34,5.48s0,.04-.01.06c.01,0,.02-.02.01-.06Z"/><path class="cls-1" d="M.25,12.89c0-.08,0-.19,0-.3,0,.05,0,.15,0,.3Z"/><path class="cls-1" d="M15.57,30.18c-.17,0-.03.01,0,0h0Z"/><path class="cls-1" d="M14.76,29.75s.06-.03.07-.05c-.01.03-.04.04-.07.05Z"/><path class="cls-1" d="M23.3,29.48s0,0,.01,0c-.05-.02-.04-.02-.01,0Z"/><path class="cls-1" d="M15.32,30.13c.06.01.13.02.21.03-.03,0-.1-.02-.21-.03Z"/><path class="cls-1" d="M15.35,30.18c-.06,0-.1,0-.15-.01-.02.02,0,.03.15.01Z"/><path class="cls-1" d="M15.8,30.17c-.1,0-.18,0-.27-.01.03,0,.05.01.04.02.05,0,.12,0,.23,0Z"/><path class="cls-1" d="M10.52.93s-.02,0-.04-.01c-.17.05-.09.04.04.01Z"/><polygon class="cls-1" points="29.11 22.05 29.12 22.07 29.12 22.04 29.11 22.05"/><path class="cls-1" d="M29.03,21.45c.13.25.12.4.09.59l.31-.2-.4-.39Z"/><path class="cls-1" d="M26.27,1.23l.42.1c-.51.16-.87.11-.48.24.03-.17.44-.18.85-.19.36-.02.57.05.66-.11l.17.14c-.05-.03-.07,0-.12-.03.27.3.39-.13.8.28.12.16.15.3.04.22.1.09.21.19.29.31.05.11-.02.11-.07,0,.11.18.18.38.22.59h-.01c.07.08.16.28.19.43-.05.21-.04-.1-.08-.05l.08.45c-.09.19-.17-.19-.16-.51-.34.42.09.38-.11,1.29l-.04-.43c-.19.28-.12.61-.24,1.1.06-.12.3-.97.39-.48-.03.14-.04.32.03.59-.12,0-.09.26-.08.59l-.16-.02c.05.35.13.32.2.53-.02.39-.14.47-.24.57-.03.63.2-.43.23.31-.06.52,0,.89.1,1.51-.06.37-.1-.06-.14.07l.13.32c0,.08-.04.05-.06.04.05.27.16.02.2.45.18.12-.26.88-.06,1.41-.05.13-.1-.06-.16-.02.13.73.1.62.27,1.22l-.1.51c.12-.37.26.1.38.52.06-.13.11-.25.13-.32l.09.67c-.03.08-.08.01-.15-.1.01.04.03.09.04.12-.06.24-.15.12-.24-.06.03-.08.07-.16.1-.24-.1-.17-.2-.32-.3-.29.02.04.03.13.04.22-.03-.04-.05-.07-.07-.05-.02.02.02.09.06.2l-.18.15.07.04-.11.87c.18.63.44,1.17.52,2.16-.13-.25-.21-.05-.37-.07.16-.27-.07-.77-.04-1.28-.02.27-.09.21-.12.14l.15.92c-.13-.02-.1.19-.15.43.25-.18.17.68.24,1.06-.08.02-.17-.07-.15-.52-.19.5.29.65.13,1.14,0-.11.01-.17-.03-.22.07.26.02.9-.06.75v-.11c-.03.74,0,2.25.21,2.36-.03,0-.26-.1-.3-.14l.72,1.32c-.18-.12-.62.33-.72-.28-.03.18-.06.39,0,.76.03-.12.26-.3.28-.14-.2.45-.11.31-.28.87.04-.18.33.02.32.3-.04-.04-.28.02-.31-.08l.28.71c-.05-.18-.24-.03-.32.13.06-.07,0,.61.02.8l.07-.3c-.04.8.4.79.38,1.58-.06-.1-.36-.24-.39.17.07.1.26.27.38.56.13.28.18.7,0,1.08-.05.03-.1.06-.15.08-.09.18-.2.36-.33.52.07-.21.18-.58.19-.95.01-.37-.08-.72-.14-.93-.1.23-.09.06-.17.39-.11.09-.05-.2-.06-.3-.05.24-.16.47-.31.66.19.07-.25.55-.16.63.21-.24.34-.52.41-.8.08.02.15.18.1.43-.05.24-.23.55-.53.73-.18.03-.06-.32-.11-.35-.01.11-.44.37-.52.34.07-.06.14-.11.2-.18-.3.06-.44.4-.9.24-.17-.01-.51-.22-.54-.12.28.19.33.79.15.93-.06-.01-.9-.18-1.09-.28-.28-.15.42-.36.18-.49-.01.05-.17.1-.23.12-.18-.04.07-.14-.32-.12-.06.17-.79-.01-.18.14-.38.05-.4-.04-.85-.03.14.11-.4.37-.78.42.02-.04-.06-.1-.1-.13-.78-.02-1.2-.09-1.93-.09-.07-.04-.42-.09-.27-.16-.1.03-.2.09-.43.09-.43-.15.5-.02.17-.2-.03.1-.58.14-.9.2.1.15.74.03,1.06-.03,0,.21-.56.43-1.32.53-.6.05-.26-.14-.37-.11-1.14-.04-.97.37-1.91.22-.37-.13-.02-.27-.1-.36.49-.05.76.09,1.09.08l-.41-.06c.16-.04.49-.08.66-.04-.31-.12-1.92-.02-2.79-.13-.16.05-.42.09-.3.15l.28-.02c.25.11-.52.15-.17.2-.37.08-.79.2-1.31.13l-.1-.15s.34.09.49.04c-.22.07-.8-.21-1.04,0l.37.11c-.37.08-.83.24-1.3.19.21.15.11-.02.44.16-.29-.22,1.19,0,.73-.22.34.21.59.09,1.03.26-.01-.05-.16-.1.23-.07.02-.01.06-.03.09-.04.01,0,.02,0,.03,0h-.02s.02-.02,0,0c-.09-.02-.17-.05-.2-.08.19-.12.81-.11,1.02-.17.23.02-.1.06.03.11l.31-.09c.03.11.61.19.07.25h.49c.29.07.69.09.93.05.23.02.58-.12.38-.04l.77-.07v.03c.77.01,1.57-.19,2.43.02.26-.03.52-.06.95-.03l.08.1c.33-.03.98.1,1.12,0,.35.26,1.59.06,2.17.1l.02-.13c.4,0,.78-.03,1.27-.08l-.03-.11c.46-.07,1.34-.06,1.98-.63-.02.07-.19.19-.33.25.49-.15.86-.61,1.06-1.08.2-.48.25-.96.35-1.4-.04-.2-.03-.32,0-.45,0,.02,0,.03,0,.04,0-.02,0-.05,0-.07.02-.08.04-.17.06-.25-.03.08-.05.15-.06.21,0-.14-.02-.35-.04-.56l.12-.09s0-.03,0-.05c.04-.2-.06-.16-.15-.06-.02-.1-.04-.2-.07-.27.19-.17-.07-.55.14-.77-.1-.14-.08-1.05-.29-1.16.03,0,.04-.07.04.04.02-.23.05-.46-.01-.67l.15-.1-.21-.51c.09-.31.15-.43.27-.13-.18-.74-.07-.6-.25-1.22l.1.03c0-.22-.14-.58-.05-.72.19-.5.03-2.48.2-3.77-.29.25.13-.6-.1-.65.07-.07.11-.25.17-.05-.07-.66.11-.99-.08-1.44.07-.08.1.14.14.07-.01-.05-.06-.21-.02-.28.04-.07.06.1.09.2-.01-.67-.22-.74-.42-.79.09-.34.08-.51-.05-.75.07-.12.13-.32.16.1,0-.23.1-1.43-.06-1.46.04-.07.01-.33,0-.39,0-.53.02-.57,0-1.09l-.03.14c-.19-.2-.04-.43-.07-.85h.02c.14-.94-.07-.4.09-1.34l-.12.05c-.26-.09.15-.83.05-1.38l-.07.2c-.09-.3.35-.83.38-1.13.02-.07.04.1.05.19.15-.79-.16-.1-.19-.69.08-.11.22.14.23-.25.07-.2-.28-1.14-.11-1.68-.07.12-.13.24-.18-.04-.01-.19.06-.52.03-.86-.03-.33-.15-.66-.35-.8-.02-.06-.01-.09,0-.1-.21-.33-.88-.87-1.13-.85-.03-.27-.62-.5-1.15-.47-.52.03-.89.11-.9-.09l-.98.02.03-.04c-.63-.03-.85.07-1.07.16-.14-.03-.04-.06-.03-.08-.91-.08-1.01-.06-1.77.13l-.08-.12c-.21.07-1.32-.19-2.22-.05,0-.01.03-.04.1-.06-1.01.15-2.42-.34-2.79.11l-.67.11c.86.04-.13.2.23.27-.34.03-.88-.14-.46-.16l.07.02c.15-.24-1.07-.08-1.05-.24-1.7.01-3.35-.12-4.94-.13l.18.18h-.55c-.15-.05-.2-.15.2-.15-.21-.1-.66.09-.67.13-.77-.07.3-.21.06-.22h-.32s.07.04.07.04c-.26.07-.28.15-.76.14-.3-.04-.15-.11-.27-.12,0-.01-.04-.02-.18,0l-.7-.02.28.14c-.31.07-.66,0-.33.16-.47-.25-2.6-.09-2.89-.17-.43.11-.86.1-1.39.09.13.03.21.19-.25.17.08-.16-.1-.21-.44-.22-.32,0-.71.11-.96.09.22,0-.15.15-.43.37-.28.22-.47.48-.19.35-.32.28-.11-.08-.4.12-.3.45-.57.98-.66,1.61-.06.61-.08,1.1-.07,1.68.04.02.11-.17.18.07l-.22.59c.02.22.25.2.1.61.04-.06.09-.14.11,0-.21,2.2.18,4.49-.23,6.72.09-.3.09-.1.1.13.02-.15.11,0,.17-.03l-.17.93c.17.17.01,1,.17,1.1l-.03-.3c.19.39.41-.55.65-.49-.21-.44.31-1.16.01-1.88.05-.16.08.14.13.05-.1-.18-.12-.4-.08-.81l.03.05c-.03-1.15.08-1.65.14-2.94l-.12.1c.02-.28.05-.34.08-.47-.18-.32-.01.78-.21.49.24-.37,0-1.96.28-2.21,0-.43-.14.13-.14-.3l.07-.11-.1-.11c.02-.28.11-.42.17-.43,0,.07.02.19.02.27.09-.36-.03-1.03,0-1.15l-.05.41c-.03-.57-.04-1.27-.02-1.84.03-.5.26-.97.55-1.33h-.09c.23-.28.39-.34.53-.38.15-.05.3-.09.69-.17l-.03.02c.14-.07.38-.1.65-.09-.24.07.45.13.14.2.93-.11.46-.09,1.08-.29l.14.09c.21-.08.23-.13.7-.15-.39.08.3.14-.13.25.99.2,1.47-.2,1.93.09.46-.26-.86-.14-.6-.2-.21-.08.38-.19.69-.17.32,0,.54.33,1.34.32-.08,0-.08.02-.16.02.3.07.58-.09.95.02.2-.16.47,0,.53-.19l-.73.05c.41-.05.8-.28,1.49-.17-.05.04-.26.09-.4.12.2.06.38-.04.59.02-.06.2-.89.04-1.33.19.21.08.84-.14.62.07.32-.27.78.03,1.32-.17l-.04.12c.09-.02.26-.07.42-.07l-.28.15c.44-.13.84.11,1.26.04-.88,0-.2-.14-.57-.23,1.08-.16.62.31,1.83.25-.16.02-.62-.07-.36-.13.23.02.54.07.68.13.8-.02-.12-.12.22-.19.27.14.39-.06.75-.11v.12c.92.08.24-.25,1.07-.16l-.35.17.43-.04-.09.14c.47-.1.61-.08,1.07-.04-.11-.08.06-.22.46-.22.28.07-.15.11.42.1-.13.08-.27.17-.52.06-.03.04-.13.08-.15.11.3.08.75.02.96.02-.08,0-.18-.01-.22-.03l.83-.17c.13.05.03.08-.08.12.17-.01.29-.07.53-.08-.06.1-.05.2-.4.25l.79-.11c.05.04.41.12.3.15.44.06,1.08-.19,1.66-.11.03-.02.09-.04.21-.05.55.02,1.03.14,1.68,0l.37.18c.51-.04-.5-.22.35-.29.6-.06.22.15.43.2.3-.09.82-.27,1.37-.13-.18.03-.33,0-.5.02ZM29.07,4.58c-.03-.12-.1-.36-.03-.45.14.14.07.25.03.45ZM29.36,14.11c-.04-.09-.02-.23.03-.39,0,.11,0,.24-.03.39ZM17.39,30.08s0,0,.01,0c.27.05.17.03-.01,0ZM16.83,30.03c-.06.02-.05.03-.03.05.04-.03.17-.03.31-.02-.04-.03-.11-.05-.28-.03ZM8.74.12l.11.03c-.25.03-.18,0-.11-.03Z"/><path class="cls-1" d="M29.19,13.03s.04-.04.07-.05c-.02-.05-.04-.05-.07.05Z"/><path class="cls-1" d="M22.37,1.29h-.02s-.02.01-.02.02l.04-.02Z"/><path class="cls-1" d="M25.55,29c.12.02.18.04.22.06,0-.03-.05-.05-.22-.06Z"/><path class="cls-1" d="M13.85,30.23l.36-.03c-.17,0-.24-.02-.32-.04,0,.03.08.07-.04.07Z"/><path class="cls-1" d="M10.72,29.48c-.05.01-.11,0-.16.02v.06c.24,0,.4-.05.16-.07Z"/><path class="cls-1" d="M13.51,29.83c-.03-.1-.25-.07-.51-.05h.04c-.07.14.19.09.46.05Z"/><path class="cls-1" d="M12.95,29.78c-.08,0-.16,0-.23,0-.03.06.09.01.23,0Z"/><path class="cls-1" d="M16.12,30.09c-.12-.03-.08.13-.14.09-.13.13.8-.16.14-.09Z"/><polygon class="cls-1" points="13.31 29.49 13.4 29.62 13.54 29.52 13.31 29.49"/><path class="cls-1" d="M15.3,29.59l-.4-.03s-.05.03-.11.04c.25,0,.52.03.51,0Z"/><path class="cls-1" d="M14.79,29.59c-.13,0-.25,0-.32.02.07,0,.22,0,.32-.02Z"/><polygon class="cls-1" points="13.86 29.46 13.98 29.48 14.27 29.49 13.86 29.46"/><path class="cls-1" d="M19.64,29.61l.44-.04s-.08-.07-.24-.05c-.11.03-.27.05-.2.09Z"/><path class="cls-1" d="M18.31,29.27c.12.03.13.05.19.1v-.16s-.19.06-.19.06Z"/><path class="cls-1" d="M19.59,29.23s.64-.12.08-.11c-.04.04-.49.08-.08.11Z"/><polygon class="cls-1" points="26.23 29.43 26.12 29.43 26.13 29.68 26.23 29.43"/><path class="cls-1" d="M28.94,25.98c-.06.52.16.12.08.6.06.12.06-.39.11-.26-.06-.32-.03-.48-.2-.34Z"/><path class="cls-1" d="M29.13,26.31s.02.1.04.16c-.02-.09-.03-.13-.04-.16Z"/><polygon class="cls-1" points=".11 14.12 .06 14.46 .14 14.24 .11 14.12"/><path class="cls-1" d="M.3,14.77l-.16.08.15.2c0-.08-.02-.22.02-.28Z"/><path class="cls-1" d="M28.74,5.51l.04.03c.04-.05.05-.13.05-.29l-.09.26Z"/><polygon class="cls-1" points="28.28 1.77 28.32 1.81 28.33 1.63 28.28 1.77"/><path class="cls-1" d="M25.1,1.54c.16,0,.34-.03.5-.02-.34.03-.54-.16-.5.02Z"/><path class="cls-2" d="M16.03,20.47l-4.27-12.05c-.04-.11-.15-.19-.27-.19h-2.84c-.12,0-.23.08-.27.19l-3.98,12.05c-.06.18.08.37.27.37h2c.12,0,.23-.08.27-.19l.86-2.59c.04-.12.15-.19.27-.19h4.11c.12,0,.23.07.27.19l.94,2.61c.04.11.15.19.27.19h2.11c.2,0,.33-.19.27-.38ZM8.55,15.46l1.51-5.1,1.51,5.1h-3.02Z"/><path class="cls-2" d="M16.39,20.37c-.82-2.3-1.63-4.6-2.45-6.91l-1.46-4.11c-.11-.31-.2-.65-.34-.95-.18-.39-.53-.35-.91-.35-.76,0-1.52-.01-2.28,0-.41,0-.79.1-.97.51-.41.92-.65,1.95-.96,2.91l-2.82,8.54c-.09.27-.31.66-.06.9.18.18.55.12.78.12.46,0,.91,0,1.37,0,.71,0,.95-.28,1.16-.9l.45-1.34c.1-.29.16-.63.34-.87l-.29.16c.21-.07.71-.03,1-.03h2.64c.09,0,.34-.05.42,0,.23.13.37.93.45,1.17.17.48.31,1.02.53,1.48.17.36.49.33.83.33.54,0,2.65.32,2.56-.66-.02-.2-.75-.05-.72.19.03.27.38.03.11.1-.09.02-.21,0-.29,0h-.87c-.2,0-.52.06-.71,0-.15-.05-.15-.11-.21-.26-.21-.53-.38-1.07-.58-1.61-.1-.28-.19-.84-.45-1.03-.22-.15-.66-.09-.9-.09h-1.73c-.61,0-2.16-.27-2.55.38-.48.81-.41,1.98-.97,2.73l.29-.16c-.38.12-1.11.03-1.57.03-.24,0-.47.1-.47-.24,0-.05.04-.1.05-.15.16-.78.52-1.57.77-2.32l2.52-7.62.46-1.4c.07-.22.12-.46.26-.64l-.29.16c.36-.12,1.08-.03,1.52-.03.34,0,1.15-.15,1.35.12.12.15.16.45.22.63l.48,1.35,2.81,7.92c.25.71.5,1.42.76,2.13.08.22.8.01.72-.19Z"/><path class="cls-2" d="M8.92,15.4c.44-1.48.88-2.97,1.32-4.45l.19-.65-.72.15c.44,1.48.88,2.97,1.32,4.45l.19.65.51-.28h-3.02c-.15,0-.4.05-.48.19s.07.18.19.18h3.02c.11,0,.57-.09.51-.28-.44-1.48-.88-2.97-1.32-4.45l-.19-.65c-.07-.23-.67-.02-.72.15-.44,1.48-.88,2.97-1.32,4.45l-.19.65c-.06.22.65.12.72-.1Z"/><path class="cls-2" d="M23.98,11.93c-1.3-1.04-3.02-1.1-4.3-.59-1.28.51-1.92,1.51-2.15,1.88-1.29,2.07-1.02,5.07.62,6.66.12.12.49.46,1.12.77,2.16,1.07,4.44.27,5.23-.07.08-.03.12-.1.12-.18l.02-1.75c0-.15-.15-.24-.28-.19-.71.26-1.31.33-1.7.34-.73.02-1.66.05-2.41-.58-.59-.5-.78-1.17-.85-1.49,1.93-.01,3.86-.03,5.79-.04.09,0,.18-.06.2-.15.48-1.71-.07-3.54-1.41-4.6ZM19.45,14.93c.07-1.08,1.02-1.85,1.96-1.73.82.1,1.5.83,1.53,1.75-1.17,0-2.33,0-3.5-.01Z"/><path class="cls-2" d="M24.31,11.79c-1.85-1.43-4.59-1.25-6.28.36-1.51,1.44-2.03,3.73-1.47,5.71.66,2.37,2.84,3.65,5.24,3.55.92-.04,2.06-.21,2.87-.67.29-.17.29-.37.3-.66v-1.13c.02-.29.07-.61-.31-.7-.28-.06-.58.1-.85.18-.32.09-.65.14-.99.16-.67.04-1.42.04-2.01-.33s-.93-.96-1.07-1.62l-.5.32c1.21,0,2.41-.02,3.62-.03.6,0,1.21,0,1.81-.01.36,0,.8.03,1.02-.32.21-.33.21-.91.22-1.28,0-.43-.04-.86-.16-1.28-.24-.88-.75-1.66-1.45-2.24-.21-.17-.89.11-.67.29.6.5,1.06,1.14,1.32,1.88.12.35.19.71.22,1.07.04.44-.09.84-.09,1.27,0,0-.03.26.05.17-.03.03-.31,0-.36,0-.24,0-.48,0-.72,0-.48,0-.96,0-1.45.01-1.03,0-2.05.01-3.08.02-.15,0-.55.08-.5.32.2.91.78,1.68,1.67,2,.81.29,1.79.26,2.63.11.25-.04.5-.1.75-.17l.16-.05c.12-.04.13-.04.03-.02,0,.01,0,.03,0,.05.03.28,0,.59-.01.87,0,.23.05.55-.01.78-.03.1.06,0-.03.08-.11.11-.45.16-.6.21-2.03.6-4.45.23-5.7-1.62-1.14-1.69-1.11-4.11-.05-5.83.49-.79,1.19-1.46,2.08-1.77,1.25-.44,2.66-.19,3.7.61.21.16.89-.13.67-.29Z"/><path class="cls-2" d="M19.81,14.89c.03-.41.18-.81.48-1.11.24-.25.53-.38.85-.38.84.02,1.41.86,1.45,1.64l.5-.32c-1.17,0-2.33,0-3.5-.01-.16,0-.39.05-.48.2-.08.15.07.23.2.23,1.17,0,2.33,0,3.5.01.18,0,.51-.08.5-.32-.06-1.09-.99-1.93-2.08-1.88s-2.06.9-2.14,2c-.02.31.71.18.73-.08Z"/></g></svg>