<?xml version="1.0" encoding="UTF-8"?><svg id="Calque_2" xmlns="http://www.w3.org/2000/svg" viewBox="0 0 27.9 19.1"><defs><style>.cls-1{fill:#f1e2c3;stroke-width:0px;}</style></defs><g id="fb"><path class="cls-1" d="M23.73,18.94c-.33,0-.67.01-1,.02-.35-.37-.44-.88-.69-1.31-.16-.29-.26-.81-.6-.73-.34.08-.14.57-.14.89,0,.14,0,.28,0,.42-.06.33.03.73-.55.72-.56-.02-.36-.45-.47-.72,0-.19,0-.38,0-.57,0-.1,0-.19,0-.29,0-.09,0-.19,0-.28.06-.48.07-.96,0-1.44,0-.28,0-.57,0-.85.05-.36.27-.45.6-.44.35,0,.63.04.82.42.37.72.6,1.52,1.16,2.31,0-.87.01-1.58,0-2.29,0-.36.17-.43.49-.44.32,0,.41.15.41.44-.02,1.38-.03,2.76-.04,4.13Z"/><path class="cls-1" d="M8.58,14.37c.1-.01.19-.02.29-.03.81.06,1.65-.02,2.43.32,0,0,0,0,0,0,.05.03.09.06.14.09,0,0,.05.04.05.04.34.49.55,1.01.56,1.63.02.86-.19,1.61-.8,2.23-.04,0-.07,0-.1.03-.13-.03-.23.01-.29.12-.09.02-.18.03-.28.05-.67.03-1.34.07-2.01.1,0,0,0,0,0,0-.12-.24-.09-.5-.1-.76-.01-1.13-.03-2.26-.04-3.38,0-.09.02-.18.02-.27.04-.05.08-.11.11-.16ZM9.46,16.6s0,0,0,0c0,.26-.01.52,0,.78.02.24-.12.57.2.68.27.1.56,0,.82-.14.69-.41.73-2.05.08-2.52-.29-.21-.63-.27-.94-.14-.31.13-.14.46-.16.7-.02.21,0,.42,0,.64Z"/><path class="cls-1" d="M4.72,18.95c0-1.28.02-2.55-.02-3.83-.02-.59.16-.82.75-.76.33.04.66-.01.99-.02.09.01.19.02.28.04.24.09.48.19.72.28.09.1.18.2.27.3.16.64.25,1.27-.43,1.7-.25.16-.08.31,0,.48.29.59.69,1.12.81,1.79-.12.02-.24.04-.36.05-.23-.02-.47-.04-.7-.06-.03-.04-.06-.08-.09-.12-.02-.04-.05-.08-.07-.12,0,0,0-.01,0-.01-.02-.23-.1-.43-.27-.58-.03-.22-.11-.41-.26-.57-.06-.27-.27-.46-.5-.34-.23.12-.1.42-.07.64,0,.14,0,.28,0,.42,0,.19,0,.39-.01.58-.3.36-.64.35-1.02.14ZM5.73,15.85c.02.12-.15.51.33.47.33-.03.66-.12.68-.56.02-.4-.24-.51-.58-.55-.4-.04-.49.18-.44.64Z"/><path class="cls-1" d="M.89,16.82c.33-.64.45-1.34.67-2.02.09-.29.23-.46.55-.42.33.04.81-.17.94.28.43,1.42.99,2.81,1.23,4.29,0,0,0,0,0,0-.28,0-.57.02-.85.03-.04-.02-.08-.03-.13-.03-.15-.48-.19-1.1-.97-.82-.15,0-.31,0-.46,0-.47-.08-.41.27-.44.55-.05.09-.1.18-.14.27-.24.02-.48.03-.72.05-.16-.04-.24-.15-.26-.31.21-.41.38-.83.4-1.3.06-.19.12-.37.18-.56ZM2.31,17.26c.15-.07.52.12.4-.27-.1-.34-.04-.94-.41-.95-.39,0-.32.6-.42.93-.1.34.23.25.42.29Z"/><path class="cls-1" d="M13.15,18.85c-.07-.03-.13-.06-.2-.08-.4-.48-.54-1.03-.51-1.65.03-.61.06-1.24-.01-1.85-.08-.71.17-1.01.87-.93.03.03.06.05.1.04.02.47.04.95.06,1.42,0,.33,0,.66,0,.99.02.4-.23.86.24,1.17,0,0,0,0,0,0,.63.41,1.1.23,1.17-.47.02-.23-.01-.47-.02-.7.01-.8.02-1.59.03-2.39.33-.01.66-.02.98-.03,0,0,0,0,0,0-.02,1.29.17,2.58-.14,3.86,0,0,0,0,0,0-.7.89-1.62.83-2.58.61Z"/><path class="cls-1" d="M16.59,14.39c.81,0,1.62-.01,2.43-.01.25,0,.55-.09.59.32.04.38-.16.53-.5.51-.42-.03-.52.18-.51.56.02.62,0,1.24,0,1.86,0,.28,0,.56.42.45.18.01.37.02.55.03.18.64-.02.9-.72.85-.7-.05-1.41,0-2.12,0-.22-.29-.21-.59,0-.88.28-.09.73.32.84-.28,0-.28,0-.57,0-.85.01-.23.03-.47.04-.7q0-1.01-.99-1.08c0-.26-.01-.52-.02-.78Z"/><path class="cls-1" d="M27.09,18.73c-.57.24-1.17.31-1.78.22-1.33-.83-1.64-2.84-.67-4.02.58-.71,1.33-.61,2.04-.51.72.1,1.05.73,1.15,1.39.16,1.06.12,2.1-.74,2.91ZM25.13,16.61c.02.24.02.48.06.71.08.41.24.77.75.8.5.03.72-.27.84-.7.15-.54.11-1.08-.03-1.61-.1-.4-.35-.6-.77-.59-.41.01-.66.24-.76.62-.07.25-.06.52-.09.78Z"/><path class="cls-1" d="M27.27,3.73s-.01.05.02.06c.63,1.86.64,3.71.02,5.58,0,0,0,0,0,0-.18.14-.24.35-.3.56-.13.05-.14.17-.17.28-.3.23-.49.55-.68.87-.09.09-.19.19-.28.28-.26.13-.49.29-.65.55-.03,0-.06,0-.07.03-.98.6-2.04.99-3.16,1.26-.19.02-.37.03-.56.05-1.57.06-3.06-.23-4.43-1.03,0,0,0,0,0,0-.5-.46-1-.91-1.5-1.37-.39-.36-.59-.91-1.08-1.17-.05-.1-.11-.21-.16-.31,0-.23-.11-.47-.31-.49-.28-.03-.31.28-.39.49-.04.06-.09.12-.13.17-1.42,1.82-3.04,3.33-5.45,3.68-.14,0-.28.02-.42.03-1.02-.04-2.02-.09-3.01-.4-1.21-.38-2.13-1.19-3.08-1.96,0,0,0-.01,0-.01-.69-1.09-1.29-2.21-1.49-3.51,0-.28,0-.57,0-.85.16-.74.12-1.5.41-2.22C1.74,1.01,5.37-.71,8.89.28c1.17.33,2.14,1,3.12,1.66,0,0,0,0,0,0,.57.69,1.14,1.37,1.69,2.07.18.23.32.26.48,0,.75-1.17,1.76-2.08,2.84-2.93,0,0,0,0,0,0,.19-.02.34-.1.43-.27.1-.04.19-.08.29-.13.4-.1.79-.23,1.14-.45,0,0,0,0,0,0,1.15-.16,2.29-.3,3.45-.12,1.27.2,2.33.86,3.37,1.56,0,0,0,0,0,0,.25.37.53.71.88.98.06.09.13.19.19.28.03.04.07.08.1.12,0,0,0,0,0,0,.04.27.16.49.38.66ZM7.33,10.82c.37-.12.87.02,1.39-.22,1.26-.58,2.12-1.54,2.87-2.66q1-1.49-.09-2.96c-1.24-1.65-2.79-2.69-4.95-2.61-3.07.12-5.06,3.19-3.77,5.95.86,1.83,2.44,2.57,4.55,2.49ZM20.79,10.82c2.5.14,4.32-1.55,4.64-3.48.45-2.65-1.59-4.95-4.31-4.96-2.11-.01-3.59,1.06-4.78,2.67q-1.07,1.45-.08,2.9c.09.14.18.28.28.41,1.06,1.43,2.3,2.55,4.24,2.46Z"/><path class="cls-1" d="M6.96,6.96c-.62,0-1.24-.01-1.86,0-.44.01-.5-.23-.51-.59-.01-.4.19-.48.53-.47,1.24,0,2.48.01,3.71,0,.38,0,.49.14.49.51,0,.38-.08.58-.51.56-.62-.03-1.24,0-1.86,0,0,0,0,0,0,0Z"/><path class="cls-1" d="M20.67,8.36c-.52.12-.71-.14-.64-.66.06-.44-.08-.68-.58-.62-.35.04-.68.02-.63-.49.03-.36-.14-.82.49-.8.63.02.81-.31.73-.89-.07-.51.31-.44.61-.42.31.02.81-.2.77.41-.03.61.08.93.81.82.54-.08.45.41.47.75.02.38-.05.68-.53.61-.59-.09-.83.14-.74.74.09.61-.34.56-.75.54Z"/></g></svg>