<?xml version="1.0" encoding="UTF-8"?><svg id="Calque_2" xmlns="http://www.w3.org/2000/svg" viewBox="0 0 66.81 53.33"><defs><style>.cls-1{fill:#f1e2c3;stroke-width:0px;}</style></defs><g id="b2"><path class="cls-1" d="M37.61,28.61c-1.24-.55-2.58-.66-3.91-.69-1.82-.04-3.64,0-5.46-.02-.4,0-.47.13-.47.49.02,1.38,0,2.76,0,4.14,0,1.41.01,2.83,0,4.24,0,.33.08.43.42.43,1.19-.02,2.38,0,3.57-.01,1.45-.02,2.91.12,4.36-.19.99-.21,1.94-.51,2.68-1.21,1.07-1.01,1.37-2.29,1.25-3.74-.14-1.65-.97-2.77-2.45-3.43Z"/><path class="cls-1" d="M27.78,24.52c1.51,0,3.03-.01,4.54,0,.87,0,1.72-.06,2.57-.21,1.96-.33,3.71-1.5,3.87-3.82.07-1.02-.14-1.98-.8-2.8-.88-1.1-2.14-1.47-3.45-1.53-2.12-.09-4.25-.02-6.38-.03-.29,0-.38.08-.37.37.02.85,0,1.7,0,2.55,0,1.8,0,3.6,0,5.46Z"/><path class="cls-1" d="M66.81,25.13c-.02-.31-.3-.23-.46-.27-.3-.07-.62-.09-.91-.23-1.08-.3-1.95-.94-2.66-1.77-.59-.69-1.09-1.45-1.42-2.32-.44-.92-.79-1.88-.99-2.89-.19-.56-.31-1.14-.41-1.73-.07-.51-.14-1.02-.21-1.54-.08-.5-.16-1.01-.14-1.52-.15-.5-.04-1.02-.1-1.53-.13-.14-.07-.32-.07-.49,0-1.37,0-2.75.01-4.12,0-1.08-.3-2.09-.71-3.07-.72-1.31-1.7-2.37-3.06-3.04-.27-.13-.56-.23-.84-.34-.51-.1-1.02-.2-1.53-.3H13.5c-.55.1-1.09.2-1.64.31-1.14.49-2.18,1.13-2.95,2.12-.29.37-.53.77-.79,1.15-.44,1.01-.77,2.04-.76,3.16,0,.48,0,.96,0,1.44v1.73c0,.52.1,1.05-.07,1.56-.04.5.07,1.02-.12,1.51.09.49-.07.95-.1,1.43-.07.51-.15,1.02-.22,1.53-.08.52-.18,1.04-.36,1.54-.2,1.07-.57,2.09-1.03,3.07-.74,1.75-1.84,3.16-3.62,3.95-.15.07-.32.1-.48.15-.36.17-.76.21-1.15.28-.15.02-.21.07-.21.21v1.54c0,.51,0,1.02,0,1.53,0,.14.07.19.22.21.35.06.69.14,1.03.22,2.12.67,3.36,2.22,4.22,4.16.46.98.84,1.98,1.01,3.06.18.5.28,1.02.37,1.54.07.51.14,1.02.21,1.54.08.54.17,1.08.15,1.63.18.47-.02.97.15,1.44,0,.54,0,1.08,0,1.63v2.97c.02,1.07.29,2.09.71,3.07.66,1.18,1.53,2.16,2.7,2.85.38.22.79.36,1.19.53.51.1,1.02.2,1.53.3.51,0,1.02,0,1.53,0h3.06c.51,0,1.02,0,1.53,0,.51,0,1.02,0,1.53,0s1.02,0,1.53,0c.51,0,1.02,0,1.53,0s1.02,0,1.53,0c.51,0,1.02,0,1.53,0s1.02,0,1.53,0c.51,0,1.02,0,1.53,0s1.02,0,1.53,0h3.06c.51,0,1.02,0,1.53,0s1.02,0,1.53,0c.51,0,1.02,0,1.53,0s1.02,0,1.53,0c.51,0,1.02,0,1.53,0s1.02,0,1.53,0c.51,0,1.02,0,1.53,0s1.02,0,1.53,0c.51,0,1.02,0,1.53,0h4.59c.58-.11,1.15-.23,1.73-.34,1.61-.64,2.8-1.76,3.67-3.24.41-1.02.77-2.04.74-3.16,0-.38,0-.75,0-1.13,0-.64,0-1.29,0-1.93,0-.52-.09-1.03.05-1.54l.15-2.23.1-.83c.07-.51.14-1.02.21-1.53.12-.51.24-1.03.36-1.54.21-1.07.56-2.09,1.03-3.07.87-1.93,2.09-3.5,4.22-4.16.34-.07.68-.16,1.03-.22.15-.02.21-.07.21-.21,0-.51,0-1.02,0-1.54s0-1.02,0-1.53ZM42.73,38.19c-1.15,1.19-2.62,1.88-4.23,2.25-1.22.28-2.45.43-3.71.42-3.69-.01-7.38-.01-11.08,0-.42,0-.53-.1-.53-.53.01-9.12.01-18.25,0-27.37,0-.36.04-.52.48-.52,3.96.02,7.93-.03,11.89.03,1.7.03,3.34.47,4.78,1.43,2.2,1.46,3.15,3.54,2.99,6.16-.15,2.56-2.15,4.95-4.66,5.57-.16.04-.32.09-.6.16,2.4.36,4.36,1.24,5.65,3.26.78,1.22,1.07,2.56,1.05,4-.03,1.98-.68,3.71-2.04,5.12Z"/></g></svg>