<?xml version="1.0" encoding="UTF-8"?><svg id="Calque_2" xmlns="http://www.w3.org/2000/svg" viewBox="0 0 29.8 29.83"><defs><style>.cls-1{fill:#f1e2c3;}.cls-1,.cls-2{stroke-width:0px;}.cls-2{fill:#220d09;}</style></defs><g id="canva"><path class="cls-1" d="M.43,14.81V2.81C.43,1.46,1.53.36,2.88.36h24c1.35,0,2.45,1.1,2.45,2.45v24c0,1.35-1.1,2.45-2.45,2.45H2.88c-1.35,0-2.45-1.1-2.45-2.45v-1.89"/><path class="cls-1" d="M.07,25.03c0-.15-.06-.1-.07-.12.01.25.08.11.07.12Z"/><path class="cls-1" d="M.32,27.55l-.04-.04c.05.12.12.24.19.35-.06-.1-.11-.2-.15-.31Z"/><path class="cls-1" d="M1.98,29.32c-.19-.16-.83-.38-1.1-.77l-.03-.07-.19-.11c.32.47.96.81,1.32.95Z"/><path class="cls-1" d="M3.27,29.71c-.08-.04.27-.04-.29-.01.02,0,.04,0,.05.01.05,0,.12,0,.23,0Z"/><path class="cls-1" d="M3.04,29.71c-.24,0,.16.04,0,0h0Z"/><path class="cls-1" d="M4.16,29.68l-.32.04c.07.02.35.03.25.05.33-.02.26-.04.07-.09Z"/><path class="cls-1" d="M4.46,29.6l-.17.02s.07.01.17-.02Z"/><path class="cls-1" d="M3.94,29.65l.35-.03s-.05-.05-.16.01c.03-.03-.04,0-.19.02Z"/><path class="cls-1" d="M3.75,29.64c-.18-.02-.41-.04-.09-.07-.61.01-.52.09.09.07Z"/><path class="cls-1" d="M2.14,29.26l-.22-.11-.21-.06c.1.04.44.22.43.17Z"/><path class="cls-1" d="M6.15,29.74s-.11-.06-.13-.09l-.24.03c.12.02.35.03.37.06Z"/><path class="cls-1" d="M6.02,29.65l.35-.04c-.32,0-.37.01-.35.04Z"/><polygon class="cls-1" points="4.52 29.49 3.94 29.57 4.63 29.48 4.52 29.49"/><polygon class="cls-1" points="7.5 29.74 7.3 29.79 7.66 29.71 7.5 29.74"/><path class="cls-1" d="M8.4,29.73c-.15.04.2.07.05.1.24,0,.45-.05.64-.08-.2.02-.41.01-.69-.02Z"/><path class="cls-1" d="M9.4,29.7c-.1.01-.2.03-.31.05.11-.01.21-.02.31-.05Z"/><path class="cls-1" d="M6.98,29.62s.08.05.28.07l-.14-.06s-.09,0-.14,0Z"/><path class="cls-1" d="M7.11,29.62h0c.15,0,.26,0,.3,0-.04,0-.13,0-.31,0Z"/><path class="cls-1" d="M6.94,29.62h.04s-.02,0-.04,0Z"/><path class="cls-1" d="M5.45,29.54c.21-.04.64-.07.22-.13-.15.04.09.08-.22.13Z"/><path class="cls-1" d="M6.77,29.54h-.38s.08.03-.03.04l.4-.04Z"/><polygon class="cls-1" points="6.95 29.52 6.77 29.54 6.91 29.54 6.95 29.52"/><path class="cls-1" d="M8.76,29.64c.16-.03.34-.03.54-.03-.21-.01-.44-.02-.65-.02-.03.02-.12.06.11.05Z"/><path class="cls-1" d="M7.96,29.63h.04s-.04-.01-.04,0Z"/><polygon class="cls-1" points="11.27 29.61 11.24 29.6 11.23 29.61 11.27 29.61"/><path class="cls-1" d="M8.61,29.58c-.16-.01-.26,0-.35.02.13,0,.25,0,.39-.01.01,0,.02-.02-.04-.01Z"/><path class="cls-1" d="M9.95,29.67l-.28-.04c.08.02.25.05.28.04Z"/><path class="cls-1" d="M8.05,29.64h-.02c.05.02.05,0,.02,0Z"/><path class="cls-1" d="M8.05,29.64c.08,0,.15-.03.21-.04-.09,0-.18.01-.27.02.02,0,.04.01.05.02Z"/><path class="cls-1" d="M11.87,29.2c-.03.06-.45.11-.82.05-.36.04-.12.24.19.35.01-.03.01-.05.38-.08-.13-.03-.82-.08-.51-.13.49-.03.4.02.64.05-.2-.07.63-.11.52-.22l-.43.04s.15-.04.03-.06Z"/><path class="cls-1" d="M10.53,29.59h-.15c.17.02.3.04.53.09.25-.03.31-.05.32-.07h-.75s.05-.02.05-.02Z"/><path class="cls-1" d="M9.69,29.6c.12-.06.49-.09.26-.16-.45,0-.31.05-.58.08.72-.02-.21.04.32.07-.15,0-.27.01-.39.02l.37.03h-.02s0,0,0,0h0s-.04-.01,0,0c0,0,.02,0,.02,0,0,0,.02-.02.03-.02.21.01.03.02-.03.02h0s0,.01,0,.01l.72-.04c-.15,0-.35,0-.69,0Z"/><path class="cls-1" d="M6.06,29.28s.02.02.02.02c.05,0,.06-.01-.02-.02Z"/><path class="cls-1" d="M6.35,29.31c-.05,0-.1.03-.27.03-.15-.02,0-.03,0-.05-.1.02-.36.05-.04.08h.05c.29.01.67.09.62.1-.09-.06-.16-.1-.35-.16Z"/><path class="cls-1" d="M8.04,29.44l.6-.03-.31-.06.02.03c-.34-.01-.27.03-.31.05Z"/><polygon class="cls-1" points="11.34 29.64 11.26 29.71 11.61 29.61 11.34 29.64"/><polygon class="cls-1" points="12.12 29.63 12.1 29.69 12.3 29.66 12.12 29.63"/><path class="cls-1" d="M28.5,1.49l-.11-.1s.08.07.11.1Z"/><path class="cls-1" d="M28.94,2.48l.03.02s-.04-.07-.03-.02Z"/><path class="cls-1" d="M29.7,26.14c.06-.26.14-.55.07-.52l-.07.08c.01.18,0,.32,0,.44Z"/><path class="cls-1" d="M29.31,12.94l-.02.08c.02.06.04.12.06.17-.01-.08-.03-.16-.04-.25Z"/><path class="cls-1" d="M29.04,12.76l.04-.34c-.01.08-.03.19-.04.34Z"/><path class="cls-1" d="M22.04.79l-.21.07c.32,0,.18-.03.21-.07Z"/><path class="cls-1" d="M20.16,29.61c.22.03.4.04.56.04-.27-.04-.49-.09-.56-.04Z"/><path class="cls-1" d="M29.35,1.53c-.07-.11-.11-.14-.12-.13.08.1.12.16.12.13Z"/><path class="cls-1" d="M21.36,29.65s-.08,0-.12-.02c-.16.01-.33.02-.53.02.2.03.43.04.64,0Z"/><path class="cls-1" d="M.81,5.24s0,.04,0,.06c0,0,0-.02,0-.06Z"/><path class="cls-1" d="M.15,12.65c0-.08,0-.19,0-.3,0,.05,0,.15,0,.3Z"/><path class="cls-1" d="M15.28,29.66c-.17,0-.03,0,0,0h0Z"/><path class="cls-1" d="M14.47,29.4s.06-.02.07-.03c-.01.02-.04.03-.07.03Z"/><path class="cls-1" d="M23.02,29.24s0,0,.01,0c-.05-.01-.04-.01-.01,0Z"/><path class="cls-1" d="M15.03,29.63l.21.02s-.11,0-.21-.02Z"/><path class="cls-1" d="M15.06,29.66c-.06,0-.1,0-.15,0-.02.01,0,.02.15,0Z"/><path class="cls-1" d="M15.51,29.66c-.09,0-.18,0-.27,0,.03,0,.05,0,.04.01.05,0,.12,0,.23,0Z"/><path class="cls-1" d="M10.23.56s-.02,0-.04,0c-.17.03-.09.02.04,0Z"/><polygon class="cls-1" points="29.02 21.81 29.03 21.83 29.03 21.8 29.02 21.81"/><path class="cls-1" d="M28.97,21.21c.08.25.07.4.05.59l.19-.2-.24-.39Z"/><path class="cls-1" d="M25.98.74l.42.06c-.51.1-.87.06-.48.15.03-.1.44-.11.85-.11.38-.02.66.07.73-.02l.2.12c-.06-.03-.08-.02-.14-.04.36.27.39-.02.85.4.14.17.19.3.09.21.11.11.21.23.29.36.06.13,0,.11-.05-.01.12.21.19.43.23.67h0c.05.09.11.32.13.46-.03.21-.02-.1-.05-.05l.05.45c-.05.19-.1-.19-.1-.51-.2.42.05.38-.07,1.29l-.03-.43c-.12.28-.07.61-.15,1.1.04-.12.18-.97.23-.48-.02.14-.02.32.02.59-.07,0-.05.26-.05.59l-.1-.02c.03.35.08.32.12.53,0,.39-.08.47-.15.57-.02.63.12-.43.14.31-.04.52,0,.89.06,1.51-.03.37-.06-.06-.09.07l.08.32c0,.08-.03.05-.04.04.03.27.1.02.12.45.11.12-.15.88-.03,1.41-.03.13-.06-.06-.1-.02.08.73.06.62.16,1.22l-.06.51c.07-.37.16.1.23.52.03-.14.06-.26.08-.32l.05.67c-.02.08-.05.01-.09-.1,0,.04.02.09.02.12-.04.24-.09.12-.14-.06.02-.08.04-.16.06-.24-.06-.17-.12-.32-.18-.29.01.04.02.13.03.22-.02-.04-.03-.07-.04-.05-.01.02.01.09.04.2l-.11.15.04.04-.07.87c.11.63.27,1.17.31,2.16-.08-.25-.13-.05-.22-.07.1-.27-.04-.77-.02-1.28-.01.27-.05.21-.07.14l.09.92c-.08-.02-.06.19-.09.43.15-.18.1.68.15,1.06-.05.02-.1-.07-.09-.52-.11.5.18.65.08,1.14,0-.11,0-.17-.02-.22.04.26,0,.9-.03.75v-.11c-.02.74,0,2.25.13,2.36-.02,0-.15-.1-.18-.14l.43,1.32c-.11-.12-.37.33-.43-.28-.02.18-.03.39,0,.76.02-.12.16-.3.17-.14-.12.45-.07.31-.17.87.02-.18.2.02.19.3-.03-.04-.17.02-.19-.08l.17.71c-.03-.18-.14-.03-.19.13.03-.07,0,.61.01.8l.04-.3c-.03.8.24.79.23,1.58-.03-.1-.21-.24-.24.17.04.1.16.28.22.56.06.28.05.66-.13,1-.04.03-.08.07-.12.1-.1.17-.21.33-.34.47.09-.17.25-.49.31-.83.07-.34.05-.69.02-.92-.08.25-.05.07-.14.44-.09.11,0-.22,0-.33-.05.28-.17.55-.33.78.13.04-.35.58-.3.6.24-.24.42-.53.52-.84.12-.02.03.72-.62,1.11-.17.06.01-.22-.03-.24-.03.09-.51.36-.58.34.08-.05.16-.09.24-.15-.33.1-.52.33-.99.24-.17,0-.51-.13-.54-.07.28.12.33.47.15.56-.06,0-.9-.11-1.09-.17-.28-.09.42-.22.18-.29-.01.03-.17.06-.23.07-.18-.02.07-.09-.32-.07-.06.1-.79,0-.18.09-.38.03-.4-.02-.85-.02.14.07-.4.22-.78.25.02-.03-.06-.06-.1-.08-.78,0-1.2-.06-1.93-.06-.07-.02-.42-.05-.27-.1-.1.02-.2.05-.43.06-.43-.09.5-.01.17-.12-.03.06-.58.08-.9.12.1.09.74.02,1.06-.02,0,.13-.56.26-1.32.32-.6.03-.26-.08-.37-.06-1.14-.02-.97.22-1.91.13-.37-.08-.02-.16-.1-.22.49-.03.76.05,1.09.05l-.41-.04c.16-.03.49-.05.66-.02-.31-.07-1.92-.01-2.79-.08-.16.03-.42.05-.3.09h.28c.25.05-.52.08-.17.11-.37.05-.79.12-1.31.08l-.1-.09s.34.05.49.03c-.22.04-.8-.12-1.04,0l.37.06c-.37.05-.83.14-1.3.11.21.09.11-.01.44.1-.29-.13,1.19,0,.73-.13.34.12.59.05,1.03.16-.01-.03-.16-.06.23-.04.02,0,.06-.02.09-.03.01,0,.02,0,.03,0h-.02s.02,0,0,0c-.09-.01-.17-.03-.2-.05.19-.07.81-.07,1.02-.1.23.01-.1.03.03.07l.31-.05c.03.07.61.11.07.15h.49c.29.04.69.06.93.03.23.01.58-.07.38-.02l.77-.04v.02c.77,0,1.57-.11,2.43.01.26-.02.52-.04.95-.02l.08.06c.33-.02.98.06,1.12,0,.35.16,1.59.03,2.17.06l.02-.08c.4,0,.78-.02,1.27-.05l-.03-.07c.44-.03,1.25-.09,1.84-.61-.02.05-.18.17-.31.23.43-.17.77-.58.97-1,.2-.43.27-.88.33-1.29-.02-.2-.01-.32,0-.45,0,.01,0,.03,0,.04,0-.02,0-.05,0-.07.01-.08.02-.17.04-.25-.02.08-.03.15-.04.21,0-.14,0-.35-.03-.56l.07-.09s0-.03,0-.05c.03-.2-.03-.16-.09-.06-.01-.1-.03-.2-.04-.27.12-.17-.04-.55.09-.77-.06-.14-.05-1.05-.17-1.16.02,0,.02-.07.03.04.01-.23.03-.46,0-.67l.09-.1-.12-.51c.06-.31.09-.43.16-.13-.11-.74-.04-.6-.15-1.22l.06.03c0-.22-.08-.58-.03-.72.11-.5.02-2.48.12-3.77-.17.25.08-.6-.06-.65.04-.07.06-.25.1-.05-.04-.66.07-.99-.05-1.44.04-.08.06.14.09.07,0-.05-.04-.21-.01-.28.02-.07.03.1.05.2,0-.67-.13-.74-.25-.79.06-.34.05-.51-.03-.75.04-.12.08-.32.09.1,0-.23.06-1.43-.04-1.46.02-.07,0-.33,0-.39,0-.53.01-.57,0-1.09l-.02.14c-.12-.2-.03-.43-.04-.85h.01c.08-.94-.04-.4.06-1.34l-.07.05c-.15-.09.09-.83.03-1.38l-.04.2c-.05-.3.21-.83.23-1.13.01-.07.02.1.03.19.09-.79-.09-.1-.12-.69.05-.11.13.14.14-.25.04-.2-.17-1.14-.07-1.68-.04.12-.08.24-.11-.04,0-.2.04-.51,0-.82-.04-.31-.16-.6-.31-.76-.02-.06-.02-.08-.02-.09-.18-.32-.8-.84-1.02-.85-.06-.19-.6-.42-1.11-.41-.49.01-.89.06-.89-.06h-.98s.03-.01.03-.01c-.63-.02-.85.04-1.07.09-.14-.02-.04-.04-.03-.05-.91-.05-1.01-.04-1.77.08l-.08-.07c-.21.04-1.32-.12-2.22-.03,0,0,.03-.02.1-.03-1.01.09-2.42-.21-2.79.06l-.67.07c.86.02-.13.12.23.16-.34.02-.88-.08-.46-.1h.07c.15-.13-1.07-.04-1.05-.13-1.7,0-3.35-.07-4.94-.08l.18.11h-.55c-.15-.03-.2-.09.2-.09-.21-.06-.66.05-.67.08-.77-.04.3-.13.06-.13h-.32s.07.02.07.02c-.26.04-.28.09-.76.09-.3-.02-.15-.07-.27-.07,0,0-.04-.01-.18,0h-.7s.28.08.28.08c-.31.04-.66,0-.33.09-.47-.15-2.6-.05-2.89-.1-.43.06-.86.06-1.39.05.13.02.21.12-.25.1.08-.1-.11-.13-.42-.12-.3,0-.67.12-.89.14.19-.03-.15.11-.42.31-.27.2-.46.44-.21.29-.3.28-.07-.04-.33.16-.3.41-.55.92-.62,1.5-.04.58-.05,1.09-.04,1.67.03.02.07-.17.11.07l-.13.59c.01.22.15.2.06.61.02-.06.06-.14.06,0-.13,2.2.11,4.49-.14,6.72.05-.3.06-.1.06.13.01-.15.07,0,.1-.03l-.1.93c.1.17,0,1,.1,1.1l-.02-.3c.11.39.25-.55.39-.49-.13-.44.19-1.16,0-1.88.03-.16.05.14.08.05-.06-.18-.07-.4-.05-.81l.02.05c-.02-1.15.05-1.65.09-2.94l-.07.1c0-.28.03-.34.05-.47-.11-.32,0,.78-.12.49.14-.37,0-1.96.17-2.21,0-.43-.08.13-.08-.3l.04-.11-.06-.11c0-.28.07-.42.1-.43,0,.07.01.19.01.27.05-.36-.02-1.03,0-1.15l-.03.41c-.02-.57-.02-1.26-.01-1.85.04-.56.3-1.08.64-1.45l-.08.03c.27-.29.42-.35.57-.42.15-.06.32-.12.74-.2h-.03c.16-.04.41-.06.67-.05-.24.04.45.08.14.12.93-.07.46-.05,1.08-.18l.14.06c.21-.05.23-.08.7-.09-.39.05.3.08-.13.15.99.12,1.47-.12,1.93.06.46-.15-.86-.09-.6-.12-.21-.05.38-.12.69-.1.32,0,.54.2,1.34.19-.07,0-.09,0-.16.01.3.04.58-.05.95.01.2-.09.47,0,.53-.11l-.73.03c.41-.03.8-.17,1.49-.1-.05.02-.26.06-.4.07.2.04.38-.02.59.01-.06.12-.89.03-1.33.12.21.05.84-.09.62.04.32-.16.78.02,1.32-.1l-.04.07c.09-.01.26-.04.42-.04l-.28.09c.44-.08.84.07,1.26.03-.88,0-.2-.09-.57-.14,1.08-.1.62.19,1.83.15-.16.01-.62-.04-.36-.08.23.01.54.04.68.08.8-.01-.12-.07.22-.12.27.09.39-.04.75-.06v.07c.92.05.24-.15,1.07-.09l-.35.1.43-.03-.09.08c.47-.06.61-.05,1.07-.02-.11-.05.06-.13.46-.13.28.04-.15.07.42.06-.13.05-.27.1-.52.04-.03.02-.13.05-.15.07.3.05.75.01.96.01-.08,0-.18,0-.22-.02l.83-.1c.13.03.03.05-.08.07.17,0,.29-.04.53-.05-.06.06-.05.12-.4.15l.79-.07c.05.03.41.07.3.09.44.03,1.08-.11,1.66-.07.03-.01.09-.02.21-.03.55.01,1.03.09,1.68,0l.37.11c.51-.02-.5-.13.35-.17.6-.03.22.09.43.12.3-.05.82-.16,1.37-.08-.18.02-.33,0-.5.01ZM29,4.33c-.02-.12-.06-.36-.02-.45.08.14.04.25.02.45ZM29.17,13.87c-.02-.09-.01-.23.02-.39,0,.11,0,.24-.02.39ZM17.1,29.6s0,0,.01,0c.27.03.17.02-.01,0ZM16.54,29.57c-.06.01-.05.02-.03.03.04-.02.17-.02.31-.01-.04-.02-.11-.03-.28-.02ZM8.45.07l.11.02c-.25.02-.18,0-.11-.02Z"/><path class="cls-1" d="M29.07,12.79s.03-.04.04-.05c-.01-.05-.03-.05-.04.05Z"/><path class="cls-1" d="M22.08.77h-.02s-.02,0-.02.01h.04Z"/><path class="cls-1" d="M25.26,28.96c.12.01.18.02.22.04,0-.02-.05-.03-.22-.04Z"/><path class="cls-1" d="M13.56,29.69l.36-.02c-.17,0-.24-.01-.32-.02,0,.02.08.04-.04.04Z"/><path class="cls-1" d="M10.43,29.25c-.07,0-.09,0-.16,0v.03c.24,0,.4-.03.16-.04Z"/><path class="cls-1" d="M13.22,29.45c-.03-.06-.25-.04-.51-.03h.04c-.07.09.19.06.46.03Z"/><path class="cls-1" d="M12.66,29.43h-.23s.09,0,.23,0Z"/><path class="cls-1" d="M15.83,29.61c-.12-.02-.08.08-.14.05-.13.08.8-.09.14-.05Z"/><polygon class="cls-1" points="13.02 29.25 13.11 29.33 13.25 29.27 13.02 29.25"/><path class="cls-1" d="M15.01,29.31l-.4-.02s-.05.02-.11.03c.25,0,.52.02.51,0Z"/><path class="cls-1" d="M14.5,29.31c-.13,0-.25,0-.32.01.07,0,.21,0,.32-.01Z"/><polygon class="cls-1" points="13.57 29.23 13.69 29.25 13.98 29.25 13.57 29.23"/><path class="cls-1" d="M19.35,29.32l.44-.02s-.08-.04-.24-.03c-.11.02-.27.03-.2.05Z"/><path class="cls-1" d="M18.02,29.12c.12.02.13.03.19.06v-.09s-.19.04-.19.04Z"/><path class="cls-1" d="M19.3,29.1s.64-.07.08-.07c-.04.03-.49.05-.08.07Z"/><polygon class="cls-1" points="25.94 29.21 25.83 29.21 25.85 29.37 25.94 29.21"/><path class="cls-1" d="M28.92,25.74c-.04.52.09.12.05.6.04.12.04-.39.07-.26-.04-.32-.02-.48-.12-.34Z"/><path class="cls-1" d="M29.04,26.07s.01.1.02.16c0-.09-.02-.13-.02-.16Z"/><polygon class="cls-1" points=".07 13.88 .03 14.22 .09 14 .07 13.88"/><path class="cls-1" d="M.18,14.53l-.1.08.09.2c0-.08-.01-.22,0-.28Z"/><path class="cls-1" d="M28.8,5.27l.02.03c.03-.05.03-.13.03-.29l-.05.26Z"/><polygon class="cls-1" points="28.19 1.3 28.23 1.35 28.2 1.2 28.19 1.3"/><path class="cls-1" d="M24.81.93c.15,0,.34,0,.5-.01-.34.02-.54-.1-.5.01Z"/><path class="cls-2" d="M26.86,16.38c-.02-.07-.06-.14-.15-.14-.09,0-.1.07-.12.14-.08.23-.18.45-.31.65-.1.15-.21.3-.37.39-.17.1-.3.04-.35-.15-.01-.05-.02-.1-.02-.16-.01-.22.01-.43.05-.65.12-.72.31-1.42.51-2.11.04-.12.09-.25.1-.38.02-.19-.07-.32-.26-.34-.32-.04-.57.07-.78.31-.08.09-.15.2-.23.31-.11-.41-.36-.63-.77-.65-.19-.02-.37.01-.55.08-.36.14-.65.39-.88.7-.2.26-.43.49-.74.64-.02,0-.04,0-.06.02-.14.04-.28.07-.42.05-.05,0-.07-.02-.04-.08.12-.28.21-.58.27-.88.05-.28.09-.56.02-.84-.08-.31-.31-.53-.6-.54-.4-.02-.7.15-.91.49-.2.32-.25.68-.2,1.04.06.45.28.81.69,1.04.04.02.04.04.02.07-.18.39-.38.76-.61,1.12-.14.2-.28.4-.46.57-.05.05-.11.1-.18.12h-.06s-.08-.07-.1-.12c-.07-.16-.11-.33-.13-.5-.11-.79-.13-1.59-.09-2.39,0-.14.05-.28.04-.42,0-.08-.03-.12-.11-.15-.05-.02-.11-.03-.16-.03-.36-.02-.64.1-.81.43-.09.17-.13.36-.15.55-.02.18-.02.35-.05.53-.04.28-.13.54-.22.8-.02.04-.04.08-.05.13,0,0,0,0,0,0-.05.1-.1.2-.15.3-.14.26-.3.5-.52.7-.08.07-.16.12-.26.15-.13.04-.23-.01-.26-.14-.02-.06-.03-.13-.03-.19,0-.22.03-.44.07-.65.09-.45.23-.89.29-1.35.03-.25.05-.5-.02-.75-.08-.29-.29-.49-.59-.51-.25-.01-.46.08-.66.22-.09.05-.16.11-.24.18-.36.32-.64.7-.89,1.11-.05.08-.11.16-.14.25-.01,0-.02.01-.02,0h0s.01-.02.02-.04c.06-.25.11-.51.13-.77.02-.2.02-.4-.05-.59-.05-.14-.13-.25-.27-.3-.23-.07-.44-.02-.64.11-.05.04-.08.1-.08.17,0,.06,0,.12,0,.18-.02.53-.15,1.03-.32,1.53-.14.42-.32.82-.55,1.2h0s.03,0,.05,0c0,0,0,0,0,0-.02,0-.03-.01-.06,0-.01,0-.02.01-.02.03-.02.06-.06.11-.11.15-.05.05-.09.1-.13.15-.01.03-.03.05-.07.07-.1.07-.19.15-.31.17-.12.03-.2-.01-.25-.12-.02-.05-.03-.11-.04-.17-.02-.28.02-.55.07-.82.13-.68.31-1.35.51-2.02.04-.13.09-.25.08-.39,0-.11-.06-.19-.17-.23-.11-.04-.23-.04-.35-.02-.36.06-.57.3-.74.6,0,.01-.02.02-.02.04-.01-.04-.03-.08-.03-.12-.04-.11-.1-.22-.18-.31-.09-.11-.21-.17-.34-.21-.34-.09-.65-.02-.95.14-.28.15-.51.37-.7.61-.12.15-.23.31-.32.49-.08.13-.14.27-.2.41-.11.29-.23.58-.37.86-.18.34-.39.66-.65.95-.27.29-.57.54-.94.7-.19.07-.39.12-.59.15-.02,0-.04,0-.06,0-.61.03-1.1-.18-1.45-.7-.23-.34-.33-.71-.39-1.11-.06-.44-.06-.88,0-1.32.07-.51.22-.99.45-1.45.25-.51.58-.96,1.01-1.34.23-.2.48-.36.76-.48.24-.1.49-.14.75-.1.02,0,.04,0,.06,0,.02,0,0,.01,0,.02.03.02.05.03.08.03.24.1.39.28.45.52.1.39.03.76-.14,1.11-.06.13-.14.26-.18.4-.04.16.03.25.19.25.16,0,.31-.05.45-.13.36-.22.57-.55.66-.96.12-.54.01-1.02-.43-1.4-.2-.17-.43-.28-.69-.34-.03-.02-.07-.02-.11-.03,0,.02-.02.04-.05.03.02-.01.04-.01.04-.03-.08-.03-.17-.04-.25-.04-.02.01,0,.03-.01.05-.01-.02-.01-.04-.03-.05-.01-.01-.03,0-.05-.01-.2-.02-.41-.02-.61,0-.28.03-.56.1-.82.2-.37.14-.71.34-1.02.58-.29.23-.55.49-.78.78-.24.31-.45.64-.61,1-.23.51-.38,1.04-.41,1.6-.02.39-.03.78.03,1.16.07.45.19.88.41,1.28.33.58.82.96,1.47,1.14.26.07.53.1.8.11.18,0,.36-.02.54-.06.1,0,.2-.05.3-.08.15-.05.3-.11.44-.21.06-.03.12-.06.18-.11.02,0,.04-.01.05-.03h0s0,0,0,0c.03-.02.06-.04.09-.06.39-.28.7-.63.97-1.02.09-.13.16-.26.24-.4.02.15.03.28.07.41,0,0,0,0,0,0,.02.13.07.25.13.37.19.35.47.54.87.55.24,0,.46-.05.66-.17.09-.05.18-.1.24-.19,0,0,0,0,.01-.01.02-.06.08-.08.13-.12.11-.12.21-.25.31-.39.04.17.09.32.18.45.17.27.42.42.74.42.39,0,.7-.17.97-.44,0-.04.03-.06.06-.08h0c.05-.01.08-.06.11-.1.08-.09.15-.19.23-.29,0,.04,0,.06,0,.08,0,.16.02.31.07.47.12.37.43.44.78.3.03,0,.05-.04.08-.06.07-.04.07-.1.08-.17,0-.02,0-.04,0-.05.06-.23.13-.45.21-.68.01-.01.01-.03.01-.04.06-.2.15-.38.23-.57.1-.24.24-.47.36-.7.19-.33.4-.65.66-.93.07-.08.16-.14.23-.21.01-.02.03-.03.05-.02.04,0,.07,0,.11,0,.05.05.06.11.07.17,0,.11-.01.21-.03.32-.07.44-.19.88-.27,1.32-.05.3-.07.6-.02.9.05.23.13.44.32.59.27.22.68.24,1,.06.25-.14.45-.33.63-.55.1-.12.19-.24.26-.38.19-.3.32-.62.48-.96.05.38.12.74.22,1.09.08.25.17.5.34.71.08.1.18.18.31.2.19.03.35-.06.5-.16.22-.14.41-.32.58-.51.5-.54.89-1.15,1.22-1.8.05-.1.05-.1.17-.09,0,0,.01,0,.02,0,.19,0,.37-.01.54-.09.1-.03.19-.09.28-.13,0,.02,0,.03,0,.05-.2.55-.27,1.11-.17,1.68.05.31.15.59.39.81.28.25.6.29.96.22.02,0,.03,0,.05,0,.31-.08.55-.27.75-.51.09-.1.16-.21.23-.32.03.02.03.05.03.07.03.12.07.23.13.33.17.3.42.46.76.47.23,0,.45-.06.66-.17.44-.25.74-.61.87-1.1.04-.14.06-.28,0-.43ZM9.81,17.74s0,0,0,0c0,0,0,0,.02,0,0,0,0,0-.01,0ZM10.65,15.25c-.06.5-.2.97-.41,1.42-.07.16-.18.3-.27.45,0,0,0,0,0,.01-.02,0-.04.02-.05.03-.06.07-.14.13-.23.17-.12.06-.27.04-.37-.05-.1-.09-.14-.2-.17-.33-.05-.25-.05-.5-.01-.75.06-.44.2-.85.41-1.25.12-.22.26-.43.47-.59.13-.1.28-.16.45-.07,0,0,.02,0,.03,0,0,0,0,0,0,.01.1.11.14.25.16.4.02.17.02.35,0,.52ZM12.62,17.18s0,0,0,0c0,0,0,0,0,0,0,0,0,0,0,0ZM13.56,17.76s0,0,.01,0c0,0,0,0,0,0,0,0,0,0-.01,0ZM21.02,14.67c-.38-.2-.34-1.48,0-1.29.34.19,0,1.29,0,1.29ZM24.18,13.76s0,.02,0,.03c0,0,0-.02-.02-.02,0,0,.02,0,.02,0ZM23.42,17.98s0,0,0,0c0,0,0,0,0,0,0,0,0,0,0,0ZM24.68,15.24c-.04.38-.13.74-.27,1.1-.11.29-.24.57-.44.81-.11.13-.25.23-.43.24,0,0,0,0,0,0-.01-.01-.03-.02-.04-.03-.09-.02-.16-.08-.21-.15-.11-.17-.14-.36-.15-.56-.01-.24.02-.48.08-.72.1-.43.25-.84.5-1.2.12-.17.25-.33.44-.43.02,0,.03-.02.04-.04.03.01.07,0,.1,0,.08-.01.15,0,.22.06.09.07.12.16.14.26.06.22.05.44.03.65Z"/></g></svg>