<?xml version="1.0" encoding="UTF-8"?><svg id="Calque_2" xmlns="http://www.w3.org/2000/svg" viewBox="0 0 196.65 24.58"><defs><style>.cls-1{fill:#f2e2c4;stroke-width:0px;}</style></defs><g id="Calque_9"><path class="cls-1" d="M25.5,21.58c-.15.15-.12.12-.24.18-.06.03-.24.15-.45.12-.15-.06-.12-.3-.27-.39-.18-.03-.36.06-.48.09-.15.03-.27.06-.39.09-.09.03-.12.06-.21.09-.03.03-.09-.03-.15,0-.09.12-.18.12-.27.15-.18.03-.33.09-.54.03-.12.09-.39.12-.63.18-.45.09-1.65.33-1.83-.15-.06-.12,0-.15,0-.18-.03-.15-.12-.3-.06-.45,0-.24.27-.18.3-.36-.03-.3-.18-.81,0-1.02-.06-.12-.12-.24-.15-.39.09-.06.06-.18.09-.24.15-.39.18-.69.15-1.26-.03-.18-.09-.36-.09-.54-.03-.24,0-.45,0-.69,0-.54-.09-1.17-.09-1.77,0-.24-.03-.51,0-.75.03-.3.15-.75.18-1.2,0-.09-.03-.21-.03-.33s.06-.24.03-.33c0-.33-.06-.66-.06-.99s.03-.66.03-1.05c0-.12-.06-.3-.06-.39.03-.12.12-.24.12-.39s.03-.24-.03-.39c-.12-.03-.21.12-.3.24s-.12.33-.21.42c-.09.15-.27.27-.39.39-.06.06-.09.18-.15.24-.06.06-.18.06-.24.15-.06.3-.3.51-.45.75-.09.12-.15.27-.21.39-.15.12-.18.21-.27.33-.03.06-.06.12-.09.18-.09.15-.27.3-.39.48-.03.06-.06.12-.12.21-.09.06-.06.15-.09.18-.09.12-.21.21-.21.39-.15.03-.21.18-.24.36-.15.03-.09.27-.3.24-.12.12,0,.24-.15.3.06.18-.21.03-.24.12v.36c-.12.06-.18.15-.3.18,0,.27-.15.39-.3.54-.06.03-.06.09-.15.09.03.12-.12.15-.15.24-.03.12-.12.15-.15.18s-.03.09-.06.15c-.06.06-.12.09-.18.12-.06.06-.06.15-.12.21-.09.09-.21.18-.3.27-.12.15-.18.3-.33.45-.15.12-.3.42-.45.6-.06.06-.12.09-.15.15-.12.15-.24.36-.39.51-.18.21-.36.36-.51.63-.03.06-.06.12-.09.18-.09.12-.15.39-.27.54-.06.09-.18.15-.24.24-.3.39-.48.87-.9,1.17,0,.42-.42.75-.75.48-.09-.09-.39-.39-.45-.54-.09-.18-.09-.36-.18-.54-.06-.09-.12-.09-.21-.18,0-.03-.09-.12-.09-.12-.03-.09-.03-.12-.09-.24,0-.03-.03-.12-.03-.15-.06-.06-.15-.06-.21-.15-.03-.06-.06-.15-.09-.24-.06-.18-.15-.36-.27-.57-.06-.12-.12-.27-.18-.42-.12-.06-.09-.15-.09-.18-.03-.06-.12-.09-.15-.15-.03-.12-.03-.24-.03-.33-.06-.15-.18-.27-.24-.39-.06-.15-.03-.3-.09-.45-.03-.09-.15-.18-.18-.3-.03-.06-.03-.18-.06-.27,0-.09-.06-.18-.09-.21,0-.09.03-.21,0-.3-.03-.18-.12-.42-.3-.54-.03-.24-.12-.36-.18-.63-.12-.3-.21-.66-.33-1.02-.27-.24-.33-.69-.57-.99,0-.09-.06-.21-.03-.39-.03-.18-.18-.27-.27-.42-.06-.09-.06-.24-.09-.36-.03-.06-.12-.15-.15-.24-.09-.18-.06-.42-.27-.54.12-.18,0-.45-.15-.54-.21.18.03.48.03.75,0,.15-.06.24-.09.42-.03.18-.03.45-.06.69-.03.21-.06.42-.06.63,0,.06.03.15.03.24s-.03.48-.06.66c-.03.15-.15.3-.15.45-.03.15,0,.36.03.51.03.12.09.24.09.36,0,.21-.09.42-.06.72,0,.21.09.42-.12.63.03.12.18.15.15.33,0,.18-.09.27-.15.33.06.15.06.36-.06.45.09.18.09.39.06.72,0,.06-.03.09-.03.15,0,.12.06.48-.12.63.09.45.06,1.11,0,1.77,0,.09-.06.24-.03.27.03.21.21.33.21.51-.09.27-.21.54-.45.69-.42,0-.81-.18-1.35-.18-.72-.03-1.47,0-2.22-.09-.3-.06-.39-.06-.57-.21-.03-.03-.03-.09-.06-.12-.09-.03-.09,0-.18-.09-.06-.06-.18-.09-.24-.21.03-.33.12-.63.27-.84,0-.36.03-.72.12-1.11.03-.12.09-.21.09-.3.03-.12,0-.3.03-.45,0-.09.06-.21.09-.33,0-.06.06-.18.06-.18,0-.06-.06-.09-.06-.15.03-.12.09-.21.12-.33.06-.6.03-1.17.18-1.74.03-.12.06-.3.15-.39-.06-.39.03-.9.18-1.26.12-.27,0-.87.06-1.29.03-.15.12-.27.15-.39.06-.21,0-.48.18-.63-.15-.21.06-.33.06-.57,0-.06-.06-.09-.06-.15.03-.06.09-.09.12-.15,0-.06-.03-.18,0-.24.03-.12.21-.3.21-.48,0-.03-.06-.06-.06-.15.03-.18.09-.39.12-.63.03-.36.12-.87.18-1.38,0-.09.03-.09.03-.15.03-.09-.03-.09-.03-.15,0-.12.12-.24.15-.42,0-.09-.06-.09-.06-.12s.09-.21.12-.33c.15-.84.27-1.56.45-2.37,0-.09-.03-.18,0-.27,0-.06.09-.09.09-.15.03-.12,0-.27,0-.39.03-.12.12-.24.12-.33.03-.3-.03-.54.03-.87,0-.12.03-.27.03-.36,0,0,.06-.12.06-.18.15-.51.15-.81.18-1.29,0-.24-.03-.42,0-.69-.06-.12.09-.09.06-.24.18-.15.54-.03.78.03.06.21.24.3.24.57.09.09.15.18.24.3,0,.21.06.36.12.54.09.24.27.6.36.87.06.15.06.27.09.39.06.18.21.33.27.48.06.12.03.3.06.39,0,.06.09.09.09.15s-.03.15,0,.21c.06.21.15.39.21.57.09.21.15.45.24.63.06.18.18.36.27.54.18.39.36.78.51,1.17.12.3.18.6.33.93.03.12.15.18.09.3.42.6.51,1.47.93,2.07.09.6.27,1.17.48,1.68.09.12,0,.12,0,.24.06.27.33.33.27.69.09.15.27.21.33.36.06.69.48,1.02.54,1.71.09.09.18.24.3.33,0,.24.09.45.18.63.06.18.15.39.36.45.15-.15.18-.39.27-.57.03-.12.09-.18.15-.3.09-.21.15-.36.24-.57.06-.09.06-.21.12-.27.03-.09.12-.15.18-.24.06-.12.06-.21.12-.3.03-.06.15-.12.18-.18.03-.06.03-.12.06-.15.06-.09.15-.21.24-.33.03-.12.09-.09.12-.09.03-.06.09-.15.15-.24.06-.09.15-.21.24-.33.06-.09.06-.24.09-.3.03-.06.12,0,.15-.06.03,0,.03-.09.06-.12.15-.24.27-.48.45-.72.15-.21.36-.42.54-.63.12-.12.24-.3.36-.42.24-.15.36-.42.54-.63.15-.15.27-.24.39-.45.21-.33.54-.63.75-1.02.12-.15.24-.33.36-.51.27-.21.36-.66.75-.78-.09-.09.03-.18.09-.27.15-.24.33-.6.51-.87,0-.12.06-.15.18-.15.03-.06.03-.15.03-.24.33-.15.42-.63.78-.78.21-.42.6-.63.84-1.05.03-.03.09-.09.12-.09.03-.12,0-.15.09-.24.03-.06.12-.21.21-.3.18-.27.3-.54.54-.75.03-.18-.06-.21-.03-.36.09-.09.21-.24.33-.36.06-.06.12-.06.15-.09.27-.27.36-.42.69-.54.12-.03.39-.03.54.12s.06.3.12.63c.03.18.12.36.18.63.09.39.18.81.27,1.23.03.21.03.45.09.66.03.3.18.6.21.87.03.33-.03.63.12.84.03.15-.06.15-.09.24-.03.09.06.09.09.15.03.06.03.09.03.18.09.3.09.78.12,1.23.03.09.09.24.09.33.03.09.06.12.06.21,0,0-.06.06-.06.12.03.15.15.27.18.39s0,.24.06.36c0,.09.06.18.09.24.03.18.03.39.06.57.03.12.09.21.09.3.03.12,0,.24,0,.33.06.33.24.69.09,1.14,0,.15.15.18.18.33-.06.06.03.36.03.33-.15.12.09.57.09.78,0,.06-.06.12-.06.21.06.66.33,1.29.21,1.89.18.21.12.48.21.81.03.09.09.18.09.24.09.48,0,.99.12,1.47.03.09.12.18.15.3.09.3,0,.72.15,1.05.03.18-.06.21-.09.3.18.18.21.51.27.84.03.12.12.18.18.27.15.3.15.63-.12.99Z"/><path class="cls-1" d="M46.11,14.32c-.03.18.12.48-.03.63.24.21.09.48.03.81-.03.18.03.39,0,.51-.03.09-.12.18-.15.27-.06.09-.06.24-.15.24.03.24-.03.48-.12.69-.03.06-.03.15-.06.24,0,.06-.09.12-.09.18-.03.09.03.21,0,.3-.03.09-.12.18-.15.27-.12.3-.24.6-.36.93-.18.39-.33.78-.57,1.05,0,.21.03.18,0,.39-.18.18-.36.3-.51.57-.06.15-.15.3-.3.48-.15.18-.36.27-.54.45-.21,0-.18.06-.33,0-.3.3-.54.42-1.02.57-.03,0-.15.09-.15.09-.09,0-.18-.03-.24,0-.24.06-.48.21-.78.21-.09,0-.21-.06-.3-.06-.15.03-.27.12-.45.15-.3.06-.66.03-1.02.06-.06,0-.09.06-.12.06-.06,0-.06-.06-.12-.06s-.12.09-.18.09c.06,0-.21,0-.21,0-.09,0-.21-.03-.27,0-.24.03-.45.18-.84.12-.09-.03-.06.09-.15.09-.48.03-1.23.12-1.62-.18-.12.06-.27.06-.39.03-.09,0-.12-.06-.21-.09h-.18c-.39-.09-.87-.21-1.17-.45-.09-.03-.18-.03-.27-.03-.27-.15-.42-.36-.81-.39,0-.15-.12-.15-.09-.3-.15.09-.21-.09-.3-.15-.09-.06-.21-.09-.3-.15-.06-.06-.12-.15-.21-.21-.09-.06-.24-.09-.3-.15-.09-.06-.15-.18-.24-.3-.06-.06-.24-.12-.18-.27-.15-.12-.27-.24-.42-.36-.03-.15-.12-.21-.09-.39-.09-.09-.15-.09-.24-.21-.03-.03-.03-.09-.06-.12-.12-.03-.06-.09-.09-.12-.06-.09-.15-.21-.24-.33-.06-.12-.09-.27-.18-.54-.03-.09,0-.12-.03-.21-.06-.12-.15-.3-.09-.51-.06-.12-.21-.18-.24-.3-.06-.3-.03-.57-.09-.84-.03-.18-.21-.33-.12-.54-.12-.12-.15-.33-.27-.42.06-.24-.09-.48-.09-.78,0-.15.03-.27.06-.45v-.51c.03-.24.12-.45.18-.63.03-.21,0-.42.15-.48-.15-.51.18-.9.18-1.41.09-.06.09-.27.18-.33,0-.42.21-.63.27-.96.21-.09.27-.3.39-.48.06-.06.12-.06.15-.09.09-.06.09-.33.3-.3.06-.15,0-.09,0-.27.24-.09.33-.33.57-.48.06-.03.18-.06.24-.09.06-.06.12-.09.18-.15.12-.09.18-.18.27-.27.15-.12.33-.24.51-.33.12-.15.33-.27.51-.39.06-.03.15-.15.24-.18.06-.03.18-.03.24-.03.12-.06.36-.27.54-.15.27-.27.72-.36,1.26-.36.15.03.15-.12.24-.12.39-.03.6-.12,1.08-.09.15,0,.3.06.42.06.18,0,.39-.06.54-.09.12,0,.21-.03.3-.03.21-.03.45-.06.72,0,.09.03.21.12.3.12s.24-.06.33-.06c.12.03.24.09.33.12s.21.09.3.09c.12.03.27,0,.39.03.15,0,.33.09.48.15.15.03.33.12.48.15.54.09.99-.03,1.5.18.09.03.21.15.33.21.03,0,.12-.03.15,0,.06.03.12.15.18.18.09.09.24.06.18.21.48.15.81.48,1.17.75,0,.18.09.33.18.48.15.15.27.3.42.45.06.06.03.18.09.33.06.18.24.45.36.66,0,.3.03.24.15.48.09.21.18.57.45.69-.03.21.15.42.18.63.03.27.03.57.03.81,0,.09-.06.18-.03.24,0,.15.06.3.06.45.03.09-.03.15-.03.24ZM42.63,13.63c0-.15.03-.18,0-.36-.06-.39-.27-.72-.36-1.17-.03-.24.03-.51-.06-.78-.15-.06-.12-.24-.21-.33-.09-.15-.3-.21-.33-.39-.21-.09-.39-.18-.57-.3-.24,0-.42-.03-.57-.06-.18-.06-.27-.18-.42-.21-.3-.03-.33.15-.66.09-.21-.09-.27-.33-.45-.45-.21-.06-.18-.03-.39-.03-.12-.03-.12-.18-.3-.15-.33.09-.75.3-1.2.12-.15.03-.24.12-.36.21,0-.12-.24-.03-.33-.06-.33.21-.81.39-1.11.54-.09.03-.15,0-.21.06-.12.06-.21.24-.3.33-.12.12-.21.24-.33.33-.09.06-.15.06-.21.09-.36.18-.54.54-.87.69-.03.3-.3.45-.42.72-.09.21-.12.54-.21.72-.03.09-.06.18-.09.24-.15.45,0,.93-.24,1.32.12.06.06.24.09.39.06.21.18.39.09.63-.03.06-.12.03-.09.15.09.03.09.15.12.24.06.06.12.15.15.24.03.03-.03.09,0,.15.03.12.21.24.12.42.18.06.15.3.3.36-.09.21.21.42.12.78.06.03.12.06.15.09.03.06,0,.12.03.21.09.09.21.18.21.33.21.06.33.3.51.45.09.09.18.12.27.21.18.12.27.24.39.33.03.03.06.09.09.09.12.06.27.06.39.12.12.06.21.18.3.21.3.12.69.06.96.36.33,0,.51.15.9.12.15,0,.21.15.39.15.18-.03.24-.09.39-.09.18-.03.39.06.54.06.21-.03.51-.21.63-.27.15-.12.3-.24.54-.24.03-.18.21-.27.33-.39.21-.18.36-.3.45-.48.09-.15.21-.24.3-.36.27-.36.45-.72.66-1.11.12-.21.24-.42.3-.63.03-.06,0-.15,0-.24.03-.15.15-.21.06-.27.09-.33.15-.51.12-.72.21-.21.15-.48.21-.84.03-.18.15-.33.15-.48.06-.33.06-.81.06-1.02.03-.06-.03-.06-.03-.12Z"/><path class="cls-1" d="M65.04,23.68c-.09.06-.06.27-.21.27-.06.06-.12,0-.18,0-.09,0-.15.06-.21.03-.12,0-.21-.12-.42-.15-.36-.03-.75.09-1.11.09-.12,0-.24-.06-.36-.06-.39,0-.75.03-1.11-.03-.15-.03-.3-.15-.48-.12-.03-.15-.24-.18-.27-.39-.09-.36.21-.78.12-1.11.09-.18.18-.42.21-.66-.03-.18,0-.39,0-.45.06-.21,0-.66.03-1.02.03-.36.03-.78.03-1.29,0-.03-.06-.09-.06-.15.03-.27-.03-.39-.06-.54-.03-.15.06-.18.09-.27-.03-.12-.09-.09-.09-.21,0-.09.06-.15.06-.24-.03-.12-.12-.24-.15-.39,0-.12.06-.21.06-.33,0,0-.06-.09-.03-.15,0-.06.03-.09.03-.15,0-.15-.06-.3-.09-.48,0-.15.09-.36-.09-.45.06-.09.06-.21.06-.33,0-.09-.06-.15-.09-.3,0-.09.03-.27.03-.39-.03-.09-.09-.15-.09-.27,0-.21-.06-.48-.15-.63.06-.24,0-.45-.09-.69,0-.03-.06-.09-.09-.09,0-.06.03-.15,0-.21,0-.03-.06-.03-.09-.09,0-.06-.03-.12-.03-.15-.18-.42-.39-.87-.45-1.47-.18-.24-.45-.42-.57-.72-.42-.21-.57-.45-1.26-.36-.12,0-.27.09-.42.12-.33.09-.57.12-.84.27-.03.03-.09.12-.15.15-.06.03-.15,0-.18.03-.12.09-.18.24-.27.33-.03.06-.09.12-.15.21-.03.03-.09.09-.15.18-.06.12-.27.3-.42.39,0,.15-.15.21-.21.33-.03.03-.03.12-.06.18-.03.06-.12.06-.15.09-.12.21-.15.51-.39.63-.03.36-.18.54-.36.72.03.51-.27.66-.42,1.02-.03.12.06.18.06.27-.15.15-.18.36-.27.57-.06.21-.09.45-.21.6.06.51-.24,1.02-.3,1.59-.03.12,0,.3-.03.42-.03.36-.09.87-.12,1.32,0,.09.03.21.03.33,0,.27-.09.51-.09.78-.03.18.09.45.06.63,0,.03-.06.09-.03.18,0,.15.03.33.06.48.03.15.03.33.15.39-.06.21-.06.3,0,.48.09.33.36.54.12.9-.03.03-.06.03-.09.09-.21.3-.84.09-1.53.12-.27,0-.51.06-.75.06h-.15c-.12.03-.42.06-.63.03-.12,0-.24-.09-.33-.15-.15-.06-.27-.12-.3-.15-.12-.18-.06-.42-.09-.63,0-.12-.09-.27-.09-.39,0-.3.06-.63.09-.96,0-.27.06-.54.06-.78,0-.18-.06-.48.12-.66.09-.15-.09-.09-.12-.21,0-.06.12-.15.12-.18,0-.15-.03-.27-.06-.39v-.99c-.03-.39-.09-.75-.12-1.26-.06-.12,0-.12,0-.12,0-.09-.06-.18-.06-.27s.06-.12.06-.18c0-.12-.09-.21-.09-.33,0-.18.03-.39.06-.54.03-.12.09-.21.12-.33,0-.09-.06-.18-.06-.24s.06-.12.06-.21c-.03-.33-.15-.72.03-1.14-.09-.21-.21-.48-.03-.63-.06-.21-.18-.36-.18-.6-.03-.09.03-.15.03-.24.03-.3-.12-.93.09-1.2-.18-.33-.03-.81-.06-1.26-.03-.12-.09-.24-.09-.36-.06-.3,0-.63-.03-.9-.03-.12-.06-.21-.09-.3-.09-.24-.09-.75-.18-1.08.09-.06.12-.21.21-.33.27-.06.75-.06.87.18.18-.15.39-.06.63-.03.15,0,.48-.03.75-.03.36-.03.69-.03.99-.03.12.12.21.18.27.33.18.36.18,1.08.27,1.62.18.03.15-.18.24-.24.18-.12.42-.24.6-.42.15-.03.21-.12.39-.09.12-.09.18-.24.27-.33.15-.03.24-.12.36-.21.09-.03.3-.06.3-.21.21,0,.39-.18.57-.3.09-.03.21-.06.3-.12.09-.06.15-.18.24-.21.09-.03.24,0,.39-.03.12-.03.24-.06.36-.09.09-.03.18-.03.27-.03.12-.03.24-.09.36-.09.18-.03.39-.06.51-.06.33.12.66.09.87.12.09.03.12.09.21.12.18.03.45.06.63.09.09.06.21.12.33.15.33.12.39.12.63.36.06.09.18.18.18.3.24.15.45.3.66.54.06.09.12.21.18.3.12.12.27.18.39.3.12.09.18.27.33.3,0,.27.27.42.36.63.09.18.03.45.24.6.03.36.27.66.42,1.02.06.18.12.36.18.54.06.18.12.33.18.48.03.06-.03.15,0,.21,0,.03.09.06.09.09.03.09,0,.18.03.3.12.3.24.63.33,1.05.03.09,0,.21.03.3.03.09.09.15.09.24.03.18.03.36.06.54,0,.12.06.3.06.45.03.15-.03.3,0,.48.03.3.15.63.21.96.06.21-.09.24-.09.39.06.15.15.33.18.54,0,.09-.06.21-.06.33,0,.24.12.54-.12.72.18.36.24.9.09,1.26-.06.21.12.15.09.33-.15.3-.03.57-.09.87,0,.15-.09.24-.09.39-.09.15.15.33,0,.54.03.21.18.27.12.6.06.12.21.15.33.24-.06.27.15.24.15.48.03.21-.15.18-.21.3Z"/><path class="cls-1" d="M94.77,21.52c-.21.21-.42.48-.75.66-.21.12-.39.3-.69.45-.15.09-.36.18-.57.3-.09.03-.09.09-.15.12-.09.03-.15,0-.24.06-.12.03-.27.12-.39.18-.21.06-.42.15-.63.24-.48.15-1.17.18-1.86.18-.27,0-.51.06-.78.03-.24,0-.51-.12-.75-.15h-.21c-.12-.03-.45-.03-.63-.06-.06-.03-.15-.09-.24-.12-.21-.03-.42,0-.63-.06-.06,0-.09-.06-.18-.09-.09-.03-.18,0-.24,0-.06-.03-.09-.09-.15-.12-.06-.03-.12,0-.18-.03-.24-.12-.45-.27-.69-.36-.12-.06-.27-.12-.36-.15-.12-.06-.21-.06-.3-.12-.24-.09-.48-.24-.72-.24-.33-.39-.78-.66-.99-1.14-.18-.18-.45-.33-.63-.54-.03-.06,0-.12-.03-.15-.06-.06-.15-.09-.21-.15-.03-.06,0-.12-.03-.15-.06-.06-.21-.12-.3-.21-.03-.03,0-.12-.03-.15-.12,0-.09-.06-.09-.09-.12-.12-.24-.18-.33-.36-.03-.03-.03-.09-.06-.12-.06-.09-.15-.18-.24-.3,0-.03-.09-.09-.09-.12s.03-.09,0-.12c-.06-.15-.15-.3-.21-.45-.09-.18-.15-.33-.18-.54-.03-.09-.03-.18-.06-.3-.06-.21-.24-.75-.03-1.05-.09-.24-.12-.51-.12-.75,0-.06.09-.15.09-.24.03-.03-.03-.15-.03-.24,0-.18.06-.18,0-.39-.03-.12-.06-.78-.03-1.11.03-.09.09-.18.12-.33.03-.09-.03-.21,0-.3l.09-.12c.09-.36.15-.78.27-1.17.06-.18.09-.42.3-.48-.18-.21.09-.66.27-.81,0-.21.09-.45.15-.63.06-.09.09-.21.12-.27,0-.06.09-.03.09-.12.06-.24.21-.3.36-.51.18-.24.33-.6.54-.87.12,0,.15-.06.3-.03.09-.09.06-.3.15-.39h.3c.3-.39.69-.72,1.23-.87.18-.24.51-.36.72-.57.42-.03.51-.36.9-.39.12-.06.27-.15.39-.27.15-.03.33-.03.48-.09.24-.06.45-.21.69-.27.12-.03.3-.03.48-.03.51-.06,1.08-.03,1.65-.03.33.27.84.12,1.2.42.36,0,.66.06,1.02.18.18.06.42.15.51.21.15.06.3.18.33.33.45.06.69.45.96.75.15.15.3.24.42.45.03.06.06.09.09.15.09.09.21.18.3.3.21.24.45.57.81.78,0,.18.09.24.06.45.12.06.24.12.24.3v.51c-.06.15-.15.21-.24.3,0,.36-.27.45-.33.75-.33.21-.51.54-.87.72-.24-.03-.39-.12-.6-.06,0-.12-.06-.18-.12-.3-.12-.24-.18-.57-.33-.84-.18-.12-.33-.27-.51-.39-.09-.06-.24-.09-.33-.15-.12-.06-.15-.24-.3-.15-.09-.09-.15-.24-.24-.33-.6-.09-1.29-.09-1.62-.39-.24.03-.84,0-1.02-.18-.36.03-.66.12-1.08.09-.21-.03-.3-.03-.57.03-.36.09-.78.21-1.08.36-.12.09-.24.21-.39.3-.15.06-.27.09-.39.18-.15.09-.24.15-.36.33-.09.15-.15.24-.3.42-.06.09-.15.12-.24.24-.15.18-.3.51-.54.66,0,.21-.09.33-.21.39.06.45-.27.54-.21,1.02-.15.12-.18.33-.24.51-.03.06-.03.12-.06.21-.09.24-.18.54-.21.81-.03.09.03.18.03.18,0,.24-.15.75-.12,1.17.03.27.12.6.18.93.06.27.09.54.18.78.03.06.09.09.12.18.06.06.06.18.12.24,0,.06.06.06.09.12.03.06.06.09.12.18.09.12.24.33.33.51.09.12.18.3.24.39.09.09.27.06.24.24.27,0,.45.18.66.3.15.09.33.18.48.27.12.06.69.24.84.24.06,0,.12-.06.24-.03.15,0,.3.09.42.09.27.03.54.06.78.09.27,0,.54-.09.78.06.18-.06.36-.15.51-.18.18-.06.39-.09.54-.15.09-.03.09-.09.15-.15.09-.03.15,0,.21-.03.03-.03.09-.12.15-.15.21-.15.57-.21.78-.3.18-.09.33-.27.54-.3.09-.21.36-.21.57-.42.06-.03.27-.18.39-.18.15-.15.21-.39.42-.48.12.06.24.15.48.12.21.33.42.63.66.96.03.09.03.15.09.21,0,.03.12.03.12.06.06.06.03.21.09.33.24.06.33.24.6.27.06.21.36.33.42.63.06.45-.24.87-.66.96Z"/><path class="cls-1" d="M114.78,7.36c0,.06.06.09.06.15-.03.09-.06.12-.06.21,0,.06.03.09.03.15,0,.03-.06.09-.03.18,0,.06.03.09.03.15,0,.09-.09.18-.09.27-.03.12.03.24.03.36,0,.09-.09.18-.09.27,0,.03,0,.21-.03.3,0,.21-.03.45,0,.69,0,.09.09.21.09.33.03.42-.06.9-.03,1.35,0,.21.06.36.03.54,0,.24-.12.45-.15.78,0,0,.03.09.03.12,0,.12-.09.45.03.63-.03.12-.09.27-.15.36.06.54-.09,1.05-.09,1.59.03.18.09.36.09.54,0,.09-.06.21-.06.33,0,.09.06.21.06.3,0,.06-.09.18-.12.27-.03.39,0,.6-.15.93-.12.21.09.69-.12.96.09.24.03.42.03.72,0,.09.06.21.03.3,0,.21-.09.39-.09.57-.03.45.09.87.12,1.26.03.09.03.18.18.15-.33.24.03.48.03.78,0,.06-.03.12-.06.18,0,.03-.03.18-.03.21-.03,0-.15.03-.15.03-.06.06-.21.18-.36.21-.12,0-.24-.06-.39-.06-.15-.03-.36.06-.57.06-.21.03-.48,0-.69.06-.24.03-.42.18-.63.18-.18-.06-.09.18-.24.18-.03.09-.24,0-.33.03-.24-.21-.45-.72-.24-.96-.18-.51.06-1.17-.06-1.8-.3.12-.54.33-.78.57-.12.09-.18.24-.33.33-.06.03-.06,0-.12.03-.03.06-.24.12-.33.24-.21.06-.42.03-.63.09-.27.06-.51.15-.87.21-.24.06-.66.24-1.08.18-.09,0-.15-.06-.18-.06-.12,0-.18.09-.3.09-.15.03-.3.03-.48-.06-.09.15-.48.03-.63-.06-.3.12-.57-.03-.87-.06-.18,0-.15-.18-.3-.21-.48.03-.9-.03-1.38-.12-.06-.15-.27-.18-.3-.39-.21.03-.21-.15-.36-.15-.09-.18-.24-.27-.33-.39-.21,0-.24-.12-.45-.12-.06-.06-.09-.18-.18-.24-.15-.09-.18-.18-.24-.21-.03,0-.12.03-.15,0-.18-.21-.3-.3-.42-.45-.06-.03-.18-.06-.24-.15,0-.18-.18-.18-.15-.42-.09-.03-.15-.09-.24-.15-.09-.09-.12-.15-.21-.27-.06-.03-.06-.09-.12-.12-.03-.06-.03-.3-.18-.39,0-.12-.12-.12-.24-.12-.03-.3-.15-.54-.42-.63.06-.18-.06-.18-.03-.33-.6-.54-.57-1.65-.87-2.46.03-.54,0-1.2.18-1.68q.03-.09.06-.15c.06-.09.03-.27.06-.48.03-.18.06-.39.09-.57.03-.09.06-.21.06-.3.06-.3.15-.57.33-.81-.15-.54.36-.75.39-1.26.18-.15.27-.36.42-.57.09-.15.21-.36.33-.57.09-.12.24-.21.21-.39.12-.06.18-.18.36-.24v-.27c.33-.21.48-.57.75-.87.12-.15.27-.24.42-.36.09-.18.39-.21.42-.39.39-.09.81-.15,1.11-.36.24-.03.54-.03.69-.18.39.06.6-.12.81-.27.6,0,1.14-.03,1.8,0,.3,0,.63-.06.87-.03.18,0,.33-.03.45.09.15-.06.36-.06.51.03.09.03.21,0,.39.06.09,0,.18.09.24.09.12.03.21,0,.3,0,.03.03.09.09.15.12q.18.03.36.15s.12,0,.15.03.03.09.06.12c.27.15.54.24.81.45.06.03.06.12.15.18.06.06.12.06.18.12.09.06.15.18.24.3.06.12.27.24.42.39.09.06.12.21.24.3.09.06.33.24.33.42.15-.54.03-1.23-.12-1.65-.12-.24-.3-.3-.18-.66.03-.12.21-.39.3-.45,0,.03.33.06.54.06.18.03.33.06.48.06.42,0,1.17.03,1.59.18.27-.09.45.06.69.12.03.15,0,.24.03.39-.03.12.06.18.03.3,0,.12-.15.36-.15.51ZM110.58,13.33c-.03-.12-.18-.15-.24-.24,0-.3-.15-.51-.18-.69.06-.27-.09-.39-.12-.54-.06-.21-.06-.42-.09-.66-.18-.09-.18-.21-.27-.3-.15-.09-.12-.12-.15-.15-.15-.18-.27-.3-.42-.45-.21-.21-.33-.3-.57-.39-.33-.15-.57-.3-.81-.42-.24-.12-.48-.09-.78-.15-.15-.06-.27-.15-.39-.18-.09,0-.27.03-.42,0-.12,0-.27-.09-.36-.09-.06,0-.15.18-.24.09-.12-.03-.3-.21-.39-.12-.39.03-.45.18-.72.33-.06.03-.18.06-.24.09-.09.06-.15.12-.21.15-.03,0-.09-.03-.15,0l-.09.09c-.15.09-.27.21-.39.27-.06.03-.21.06-.24.09-.15.21-.24.27-.3.39-.12-.03-.12.09-.24.03,0,.18-.15.3-.24.39-.12.12-.27.21-.42.27-.03.42-.36.54-.36.96-.15.18-.21.33-.3.54-.09.24-.09.51-.15.81-.06.21-.18.36-.21.54,0-.03.03.15.06.18,0,.36-.15.57-.18.84,0,.15.09.33.09.51,0,.03-.06.06-.06.12.06.21,0,.3,0,.39.03.24.27.48.18.78.27.18.48.42.81.57.24.45.69.75,1.05,1.05.18.18.36.3.57.39.03.03.09.09.12.12.24.09.42.12.63.15.12.03.3.12.39.15.06.03.09.12.18.12.51-.06,1.05.15,1.47.15.12.03.3,0,.42-.03.15,0,.33,0,.45-.03.06-.03.15-.12.24-.15.06,0,.12.03.18,0,.12-.03.3-.18.45-.03.21-.51.9-.51.99-1.14.12.03.09-.09.21-.09,0-.21.15-.33.24-.48.06-.12.15-.3.21-.39.03-.03.12.03.09-.09.09-.24.18-.45.36-.63-.06-.21.09-.36.15-.51.18-.54.27-1.02.27-1.65.09-.12.15-.27.21-.42-.09-.12-.09-.33-.09-.54Z"/><path class="cls-1" d="M128.64,10.21c-.09.09-.09.03-.18.09-.12.06-.09.12-.21.15-.03,0-.09.06-.15.03-.33-.03-.33-.42-.66-.57-.18.06-.39,0-.57.03-.18.03-.36.15-.54.21-.09.06-.21.06-.3.09-.24.12-.33.18-.54.3-.15.15-.21.3-.39.48-.24.18-.57.33-.75.54-.09.12-.09.33-.21.48-.03.09-.18.12-.24.21-.03.03-.03.09-.06.12,0,.06-.06.09-.09.12-.03.06.03.15,0,.24-.03.09-.21.27-.15.51-.06.09-.18.15-.21.24-.03.09.03.18,0,.24-.03.06-.09.06-.09.09-.06.12-.06.24-.12.36-.03.09-.12.18-.15.27-.03.09.03.24,0,.39-.03.09-.09.18-.12.24,0,.18.03.36,0,.54-.03.27-.15.51-.21.81-.03.21.03.42-.03.69,0,.12-.09.24-.09.39-.03.3.15.6-.12.84.12.24.15.78-.03.99.3.84-.15,2.1.09,3.03.09.24.45.18.63.33,0,.12.15.21.18.39.03.27-.21.57-.39.66-.15.06-.3-.03-.6.03-.15.03-.33.15-.54.24-.33.12-.78.24-1.2.3-.21.03-.42.06-.6.09-.24.06-.48.21-.66.18-.39-.06-.54-.48-.54-.93,0-.18.09-.36.06-.54,0-.21-.09-.39-.12-.57-.06-.48,0-1.05,0-1.56,0-.15.06-.3.06-.42-.03-.15-.09-.3-.09-.45-.06-.27-.12-.48-.15-.84,0-.12-.03-.3-.03-.42,0-.24.09-.45.12-.69,0-.09-.06-.12-.06-.24,0-.18.09-.54.09-.81-.03-.24-.12-.48-.15-.72,0-.12.03-.33.03-.36-.03-.12-.09-.18-.09-.27-.03-.24-.03-.57-.06-.75,0-.06-.03-.18-.03-.24,0-.15.09-.3.12-.48.06-.39-.03-.81,0-1.2.03-.3.18-.6.18-.87,0-.12-.03-.27-.03-.39s.06-.27.06-.39c-.03-.09-.09-.24-.09-.33-.06-.27.06-.54.06-.84,0-.18-.06-.39-.09-.57,0-.09.03-.24,0-.33,0-.09-.09-.15-.09-.21,0-.18.12-.42.12-.63,0-.3-.09-.6.06-.9,0-.21-.15-.3-.24-.45.15-.33-.06-.66.03-.96.15-.12.3-.21.48-.18.3,0,.39.21.54.33.39.12.75,0,1.17,0,.21,0,.45.06.63.06.3-.03.51-.27.96-.12.15.09.12.24.24.42,0,.03.09.09.09.12,0,.09-.06.09-.06.12,0,.09.06.09.06.15-.06.33-.21.63-.09,1.02.24,0,.36-.18.51-.33.06-.06.21-.18.27-.27.03-.03.03-.12.06-.15s.12-.03.15-.06c.09-.03.18-.18.3-.27.12-.12.3-.18.39-.33.36-.06.69-.42,1.11-.27.18-.18.69-.39.93-.18.15.03.15-.15.24-.18.51.18,1.02-.18,1.5-.06.18.03.27.15.39.21.12.03.27.06.39.15.27.42.06.96.03,1.44-.03.12.03.21.03.3,0,.18-.06.36-.06.54,0,.45.06.9.06,1.35-.09.06-.09.12-.15.18Z"/><path class="cls-1" d="M147.24,23.68c-.09.06-.06.27-.21.27-.06.06-.12,0-.18,0-.09,0-.15.06-.21.03-.12,0-.21-.12-.42-.15-.36-.03-.75.09-1.11.09-.12,0-.24-.06-.36-.06-.39,0-.75.03-1.11-.03-.15-.03-.3-.15-.48-.12-.03-.15-.24-.18-.27-.39-.09-.36.21-.78.12-1.11.09-.18.18-.42.21-.66-.03-.18,0-.39,0-.45.06-.21,0-.66.03-1.02.03-.36.03-.78.03-1.29,0-.03-.06-.09-.06-.15.03-.27-.03-.39-.06-.54-.03-.15.06-.18.09-.27-.03-.12-.09-.09-.09-.21,0-.09.06-.15.06-.24-.03-.12-.12-.24-.15-.39,0-.12.06-.21.06-.33,0,0-.06-.09-.03-.15,0-.06.03-.09.03-.15,0-.15-.06-.3-.09-.48,0-.15.09-.36-.09-.45.06-.09.06-.21.06-.33,0-.09-.06-.15-.09-.3,0-.09.03-.27.03-.39-.03-.09-.09-.15-.09-.27,0-.21-.06-.48-.15-.63.06-.24,0-.45-.09-.69,0-.03-.06-.09-.09-.09,0-.06.03-.15,0-.21,0-.03-.06-.03-.09-.09,0-.06-.03-.12-.03-.15-.18-.42-.39-.87-.45-1.47-.18-.24-.45-.42-.57-.72-.42-.21-.57-.45-1.26-.36-.12,0-.27.09-.42.12-.33.09-.57.12-.84.27-.03.03-.09.12-.15.15-.06.03-.15,0-.18.03-.12.09-.18.24-.27.33-.03.06-.09.12-.15.21-.03.03-.09.09-.15.18-.06.12-.27.3-.42.39,0,.15-.15.21-.21.33-.03.03-.03.12-.06.18-.03.06-.12.06-.15.09-.12.21-.15.51-.39.63-.03.36-.18.54-.36.72.03.51-.27.66-.42,1.02-.03.12.06.18.06.27-.15.15-.18.36-.27.57-.06.21-.09.45-.21.6.06.51-.24,1.02-.3,1.59-.03.12,0,.3-.03.42-.03.36-.09.87-.12,1.32,0,.09.03.21.03.33,0,.27-.09.51-.09.78-.03.18.09.45.06.63,0,.03-.06.09-.03.18,0,.15.03.33.06.48.03.15.03.33.15.39-.06.21-.06.3,0,.48.09.33.36.54.12.9-.03.03-.06.03-.09.09-.21.3-.84.09-1.53.12-.27,0-.51.06-.75.06h-.15c-.12.03-.42.06-.63.03-.12,0-.24-.09-.33-.15-.15-.06-.27-.12-.3-.15-.12-.18-.06-.42-.09-.63,0-.12-.09-.27-.09-.39,0-.3.06-.63.09-.96,0-.27.06-.54.06-.78,0-.18-.06-.48.12-.66.09-.15-.09-.09-.12-.21,0-.06.12-.15.12-.18,0-.15-.03-.27-.06-.39v-.99c-.03-.39-.09-.75-.12-1.26-.06-.12,0-.12,0-.12,0-.09-.06-.18-.06-.27s.06-.12.06-.18c0-.12-.09-.21-.09-.33,0-.18.03-.39.06-.54.03-.12.09-.21.12-.33,0-.09-.06-.18-.06-.24s.06-.12.06-.21c-.03-.33-.15-.72.03-1.14-.09-.21-.21-.48-.03-.63-.06-.21-.18-.36-.18-.6-.03-.09.03-.15.03-.24.03-.3-.12-.93.09-1.2-.18-.33-.03-.81-.06-1.26-.03-.12-.09-.24-.09-.36-.06-.3,0-.63-.03-.9-.03-.12-.06-.21-.09-.3-.09-.24-.09-.75-.18-1.08.09-.06.12-.21.21-.33.27-.06.75-.06.87.18.18-.15.39-.06.63-.03.15,0,.48-.03.75-.03.36-.03.69-.03.99-.03.12.12.21.18.27.33.18.36.18,1.08.27,1.62.18.03.15-.18.24-.24.18-.12.42-.24.6-.42.15-.03.21-.12.39-.09.12-.09.18-.24.27-.33.15-.03.24-.12.36-.21.09-.03.3-.06.3-.21.21,0,.39-.18.57-.3.09-.03.21-.06.3-.12.09-.06.15-.18.24-.21.09-.03.24,0,.39-.03.12-.03.24-.06.36-.09.09-.03.18-.03.27-.03.12-.03.24-.09.36-.09.18-.03.39-.06.51-.06.33.12.66.09.87.12.09.03.12.09.21.12.18.03.45.06.63.09.09.06.21.12.33.15.33.12.39.12.63.36.06.09.18.18.18.3.24.15.45.3.66.54.06.09.12.21.18.3.12.12.27.18.39.3.12.09.18.27.33.3,0,.27.27.42.36.63.09.18.03.45.24.6.03.36.27.66.42,1.02.06.18.12.36.18.54.06.18.12.33.18.48.03.06-.03.15,0,.21,0,.03.09.06.09.09.03.09,0,.18.03.3.12.3.24.63.33,1.05.03.09,0,.21.03.3.03.09.09.15.09.24.03.18.03.36.06.54,0,.12.06.3.06.45.03.15-.03.3,0,.48.03.3.15.63.21.96.06.21-.09.24-.09.39.06.15.15.33.18.54,0,.09-.06.21-.06.33,0,.24.12.54-.12.72.18.36.24.9.09,1.26-.06.21.12.15.09.33-.15.3-.03.57-.09.87,0,.15-.09.24-.09.39-.09.15.15.33,0,.54.03.21.18.27.12.6.06.12.21.15.33.24-.06.27.15.24.15.48.03.21-.15.18-.21.3Z"/><path class="cls-1" d="M166.35,15.28c.03.27.12.39,0,.63-.09.15-.39.21-.45.33-.24-.09-.54-.03-.72.03-.27-.21-.9-.06-1.17-.27-.12.06-.24.09-.33.09-.54.06-1.17-.09-1.8-.18-.42-.03-.93-.03-1.29-.03-.15.03-.3.06-.45.06-.3-.03-.57-.21-.87-.21-.21-.03-.48.06-.72.06-.15,0-.33-.03-.48-.06-.06,0-.15.06-.21.06-.09-.03-.15-.06-.24-.06-.27,0-.54.12-.75-.12-.15.12-.24.15-.51.15-.18-.03-.3-.06-.36-.06s-.15.09-.15.09c-.12,0-.3-.12-.45.03-.06-.09-.3,0-.39-.09-.12-.06-.09.09-.18.09-.33-.15-.6-.03-.93-.03-.3,0-.6-.12-1.02-.06-.15.36-.09.96.12,1.29.03.21-.06.3-.06.45.03.06.12.06.15.09s0,.12.03.15c.15.18.36.33.48.54.18.3.51.54.72.9.09.18.24.3.36.48.3.06.51.24.78.42.03.03.12.06.18.09.24.15.36.33.63.45.18.06.3.03.39.06.18.06.45.36.72.39.03,0,.15-.03.27-.03.18,0,.3.03.45.06.3.03.54-.06.72-.18.18,0,.27,0,.45-.03,0-.03.03-.09.03-.12.03,0,.09.03.12,0,.03,0,.06-.09.09-.09.12-.03.27.06.39-.03.12-.12.24-.12.3-.15.21-.09.36-.21.57-.36.15-.09.24-.15.39-.24.39-.24.63-.75.99-1.08.03-.45.18-.75.36-1.02,0-.39.12-.63.27-.87.15-.03.3-.12.54-.03.12.06.21.12.39.21.12.06.24.06.48.15.06.03.12.09.18.09.09.03.18,0,.3.03.06,0,.12.09.18.09.15.03.42-.06.57,0,.03.03.06.09.12.12.09.03.21.12.27.24,0,.27-.09.48-.21.66-.03.09-.06.27-.18.24-.03.15.06.18.03.36-.03.12-.12.18-.15.33-.09.24-.09.45-.21.66-.06.09-.15.18-.21.24-.12.15-.27.33-.45.39.09.18-.18.27-.24.36-.09.24-.33.39-.6.57-.3.27-.69.45-.96.66-.09.06-.18.12-.27.18-.15.15-.24.24-.48.33-.09.06-.12.03-.21.06,0,0-.06.09-.09.09-.21.09-.45.06-.69.12,0,.03-.12.09-.12.09-.3.06-.6.12-.9.18-.18.06-.3.12-.63.09-.09,0-.21-.06-.27-.06-.09,0-.27.21-.45.06-.15-.06-.06.18-.24.12-.21-.06-.45.06-.69.03-.12,0-.24-.06-.36-.09s-.15.06-.21.03c-.03,0-.09-.09-.09-.09-.42-.06-.84-.06-1.2-.18-.12-.03-.27,0-.33-.15-.36.06-.72-.15-.93-.36-.12,0-.21-.06-.33-.09-.24-.12-.57-.21-.72-.51-.3,0-.42-.21-.57-.36-.33,0-.6-.21-.75-.45-.18-.21-.3-.33-.45-.45-.06-.06,0-.21-.09-.27-.33-.15-.48-.48-.84-.6-.06-.21-.27-.36-.39-.54-.06-.09-.09-.21-.12-.3-.06-.09-.15-.15-.21-.24-.09-.27-.12-.6-.21-.9-.03-.06-.09-.15-.09-.24-.03-.18,0-.36-.03-.51-.03-.12-.12-.24-.15-.36-.03-.18,0-.39-.03-.63-.03-.18-.09-.36-.09-.54,0-.27.06-.57.06-.87,0-.09-.03-.24-.03-.33.03-.21.18-.42.21-.63,0-.09-.03-.18-.06-.24,0-.09.09-.21.03-.3.09-.06.12-.24.15-.33.03-.12.03-.3.09-.48.03-.03.09-.06.12-.09.03-.06.03-.09.03-.15.03-.03.09-.06.12-.09,0-.06-.03-.15,0-.18.03-.09.09-.15.15-.24.03-.09.06-.21.09-.3.06-.09.12-.12.15-.18.03-.09-.03-.18,0-.24.03-.06.09-.03.12-.09.06-.24.09-.39.15-.6.06-.18.18-.45.39-.57-.09-.09,0-.18,0-.27.21-.21.36-.51.48-.84.36-.24.57-.66.93-.93.06-.06.18-.09.3-.15.03-.03.03-.06.09-.09.03-.03.12-.03.15-.03.21-.15.33-.33.6-.45.24-.09.84-.03,1.05-.3.24,0,.48-.12.69-.24.15-.06.33-.21.69-.18.27.03.51.03.81-.06.15-.03.36-.09.6-.09.06,0,.15.06.24.06.33,0,.6,0,1.02.03.21,0,.39-.09.63-.09.03,0,.06.06.12.06.09-.03.27-.03.45,0,.09,0,.18.06.3.09.21,0,.33.12.51.21.09.06.24.06.33.12.12.03.24.09.36.15.24.09.51.12.6.39.09.03.15,0,.24.06.18.06.36.27.54.39.15.12.3.39.51.51.03.12.12.18.15.33.33.18.51.54.9.69.12.27.33.42.36.75.09.12.18.27.3.45.03.09.18.21.21.33.06.21.15.39.3.6.09.12.27.3.33.48.03.15.03.33.06.48.06.15.12.3.15.39.06.3,0,.6.03.93.03.21.06.48.09.72,0,.12,0,.24.03.39,0,.12.09.21.09.3s-.06.18-.06.27ZM162.06,12.28c-.09-.06,0-.15-.03-.24-.03-.03-.27-.03-.15-.18-.12-.12-.36-.15-.33-.39-.18.03-.24-.18-.3-.21-.03-.03-.09-.03-.12-.06-.15-.12-.18-.33-.33-.45-.12-.06-.3.09-.3-.15-.6.03-.9-.27-1.2-.6-.33.09-.81,0-1.2.03-.27-.18-.51-.09-.87-.18-.15-.03-.09-.24-.3-.24-.27.12-.51-.09-.81-.12-.33.21-.69.21-1.02.33-.18.06-.48.45-.6.57-.27.33-.54.66-.78.93.03.24-.09.33-.06.54-.27.21-.33.66-.42,1.05.27.03.66-.03,1.02-.06.12-.03.27-.03.39-.03.09-.03.15-.09.24-.09.36-.03.75.03,1.11,0,.39,0,.75-.12,1.08.03.42-.18,1.08-.09,1.44-.06.06,0,.06-.06.15-.06.06.03.06.06.15.06.09-.03.12.09.24.06.9-.15,2.04.09,3.15-.09.06-.06,0-.33-.15-.39Z"/><path class="cls-1" d="M177.63,8.59c0,.18.06.3.03.39-.09.27-.33.33-.48.48-.39-.18-.66.03-.99.09-.09,0-.3.03-.39.03-.33,0-.57.18-.81.21-.18.03-.36-.06-.54.06-.15.33-.03.75-.09,1.2,0,.09-.03.18-.03.3-.03.3.06.63.06.96s-.06.66.09.93c-.12.24-.12.57-.12.9-.09.57.06,1.32.06,1.89-.03.24-.06.45-.09.69,0,.06.09.09.06.18,0,.03-.09.09-.09.09-.03.03.03.09.03.15-.03.36,0,.9-.03,1.47,0,.06,0,.21,0,.18,0,.15-.06.27-.06.39.03.33.18.69-.06,1.02,0,.12.06.21.09.33,0,.09-.06.18-.06.24,0,.09.09.21.09.3s-.06.12-.06.24c0,.18.06.45.09.72-.06.06-.06.15-.15.18.15.39.03.81-.21,1.02-.51-.06-1.02-.21-1.5-.12-.24.03-.48.15-.78.03-.15.03-.21.12-.36.12-.15.03-.27-.15-.42-.18-.06-.48.03-1.23,0-1.98,0-.18-.06-.33-.09-.51-.03-.27,0-.6-.03-.87,0-.12.06-.27.06-.39,0-.15-.09-.09-.09-.33,0-.48.12-.93.21-1.35-.06-.09-.06-.18-.09-.3,0-.15.03-.33.03-.48-.03-.15-.15-.39-.15-.57,0-.15.06-.18-.03-.36-.03-.06-.03-.12-.09-.18.06-.48.15-.99.12-1.5,0-.12-.06-.18-.09-.3-.03-.15,0-.33-.03-.54-.03-.27-.06-.6-.03-.96,0-.12.06-.24.06-.39,0-.18-.09-.36-.09-.54,0-.33.09-.66.09-.99-.03-.12-.09-.27-.09-.39-.03-.36.15-.72.06-1.08-.06-.06-.12.03-.18.06-.24.03-.48.09-.75.18-.15.03-.3.06-.48.12-.3.09-.45.21-.69.03-.06-.12-.12-.09-.12-.09-.09-.09-.18-.21-.21-.3-.03-.33.12-.48.33-.66-.09-.15.06-.21.09-.39.03-.18,0-.42.06-.63.06-.24.24-.42.27-.63.03-.27-.09-.57-.03-.81.06-.36.27-.48.72-.39.24.06.48.06.54.27.33-.03.45.15.75.15.27-.36.15-1.02.18-1.65.03-.03.06-.18.06-.24,0-.12-.06-.24-.09-.39-.03-.24-.03-.51.03-.81.03-.12.09-.27.09-.39s-.03-.27-.09-.39c-.03-.09-.15-.18-.03-.27.03-.21-.27-.12-.18-.42.06-.03.09-.09.09-.18.18-.09.24,0,.45,0,.3-.09.45-.12.81-.06.03-.06.09-.09.15-.09.21.03.36.12.57.15.15-.03.27-.12.39-.15.09,0,.09.06.12.06,0,0,.24-.12.33,0,.18-.03.09.15.15.21.03.06.12.06.12.15.09.3-.03.99-.06,1.41,0,.03.06.06.03.12v.45c0,.12-.06.33-.06.42s.06.15.09.27c.03.09-.03.24,0,.33.03.27.18.45-.06.72.09.24,0,.45-.03.72,0,.12.03.27.03.39,0,.18-.15.36-.06.54.3.03.51-.21.75-.27.24-.09.51.03.72-.18.21.15.48-.18.63.06.18-.24.75-.36,1.08-.27.15-.03.09.15.12.24.03.06.12.12.15.21.03.06-.03.24,0,.39,0,.09.09.15.09.24s-.06.12-.06.18c.03.27.15.51.18.72,0,.09.03.21.03.21.03.09-.03.12-.03.18Z"/><path class="cls-1" d="M196.17,22.81c-.09.24-.21.48-.36.63-.33.06-.66,0-1.08.03-.18,0-.42,0-.63.03-.18,0-.42.06-.57.03-.15-.03-.24-.15-.39-.15-.09-.06-.18-.12-.27-.21,0-.3-.15-.45-.15-.78-.12-.15-.3-.24-.42-.42-.06-.18-.12-.51-.06-.93,0-.09.06-.15.09-.24.03-.15,0-.27,0-.33.03-.09.21-.12.12-.21.18-.06.27-.24.39-.36.33-.03.51-.21.78-.39.03,0,.09-.09.09-.09.06,0,.12.03.15,0,.06-.03.09-.12.15-.15.12-.03.42-.06.63-.06.15,0,.42,0,.54.06.15.06.24.24.36.33.06.03.12.03.15.06.09.06.21.12.3.24.03.21.06.45-.03.63.12.21.18.36.24.69.03.21.18.57.18.78,0,.27-.12.57-.21.81ZM196.56,2.98c-.03.33,0,.69-.03.93-.03.15-.03.78-.03,1.14,0,.09.06.18.06.24-.03.42-.18.72-.12,1.11,0,.12.03.27.03.51,0,.06-.06.15-.06.24,0,.12.09.24.09.39,0,.12-.09.27-.12.42,0,.18.06.36.06.48-.03.27-.18.42-.18.78.06.09.03.36,0,.54-.03.12-.09.27-.12.42-.03.36.06.84.09,1.32,0,.3.03.6,0,.96,0,.09-.03.18-.03.3,0,.48.03.99,0,1.5,0,.27-.12.54-.12.81,0,.15.09.27.09.45.03.3-.03.72-.06,1.11-.03.27.03.54-.03.72-.03.15-.24.36-.39.51-.18.06-.33-.06-.54-.06-.15.03-.12.12-.39.09-.12,0-.24-.09-.39-.09-.15-.03-.3,0-.42-.03-.12,0-.24-.12-.33-.15-.18-.03-.3,0-.39-.06-.09-.12-.15-.15-.24-.18-.03-.33-.03-.45-.12-.75.09-.36.15-.66,0-1.05.03-.12.09-.21.12-.33,0-.09-.03-.15-.03-.24-.03-.09.03-.18.03-.24,0-.09-.03-.15-.03-.24s.06-.18.06-.27c-.03-.18-.12-.33-.15-.51,0-.12.06-.12.06-.21,0-.06-.03-.18-.03-.18,0-.09.06-.12.09-.15.03-.09-.06-.15-.06-.15.03-.27.12-.54.12-.81s-.18-.54-.03-.78c-.09-.12-.15-.27-.18-.45,0-.12.09-.27.12-.48,0-.18-.12-.51-.09-.72.03-.18.06-.33.15-.42-.03-.12-.06-.18-.09-.3,0-.06-.03-.15-.03-.15,0-.03.03-.09.03-.15-.03-.66.06-1.68-.09-2.46,0-.06.03-.09,0-.21-.06-.27-.15-.81-.21-1.2.06-.21.18-.42.18-.63-.03-.12-.12-.24-.15-.33-.12-.45.03-.99-.12-1.38.03-.09.09-.18.12-.33,0-.15-.06-.3-.06-.48.03-.18.09-.24.15-.39.33-.09.72-.06,1.02-.21.09-.06.57-.03.63-.03h.21c.72.03,1.44.06,1.89.27.09.33.18.66.15.99,0,.18-.09.36-.09.57Z"/></g></svg>