<?xml version="1.0" encoding="UTF-8"?><svg id="Calque_2" xmlns="http://www.w3.org/2000/svg" viewBox="0 0 60.44 60.25"><defs><style>.cls-1{fill:#260801;stroke-width:0px;}</style></defs><g id="patience"><path class="cls-1" d="M.01,9.05c13.14,11.82,26.28,23.64,39.42,35.46,3.76,3.38,7.53,6.77,11.29,10.15.31.28,1.24.09,1.52.06,1.16-.14,2.34-.4,3.47-.68s2.29-.6,3.39-1.03c.13-.05,1.47-.63,1.32-.77-13.14-11.82-26.28-23.64-39.42-35.46-3.76-3.38-7.53-6.77-11.29-10.15-.31-.28-1.24-.09-1.52-.06-1.16.14-2.34.4-3.47.68s-2.29.6-3.39,1.03c-.13.05-1.47.63-1.32.77H.01Z"/><path class="cls-1" d="M14.44,59.19c10.34-14.67,21.38-28.82,33.1-42.41,3.34-3.87,6.73-7.68,10.17-11.46,1.4-1.54-.83-3.35-2.13-4.05-1.12-.61-2.38-1.12-3.66-1.22-.78-.06-2.08-.18-2.67.47-12.33,13.52-23.98,27.65-34.94,42.31-3.11,4.16-6.15,8.36-9.14,12.61-.43.61.39,1.75.72,2.12.75.86,1.96,1.58,3.01,1.98,1.65.63,4.32,1.38,5.54-.35h0Z"/></g></svg>