<?xml version="1.0" encoding="UTF-8"?><svg id="Calque_2" xmlns="http://www.w3.org/2000/svg" viewBox="0 0 442.56 384.2"><defs><style>.cls-1{fill:#260801;stroke-width:0px;}</style></defs><g id="contact"><path class="cls-1" d="M42.89,137.91c18.01,2.14,36.17-1.71,52.25-9.94,2.19-1.12,4.33-2.33,6.45-3.58.43-.25.86-.51,1.29-.76.31-.18,1.41-.78.51-.3.25-.13.5-.26.75-.39.04-.02.67-.32.22-.11-.56.26.53-.23.14-.06-.22.09.7-.26.7-.26,4.31-1.41,9.04.15,13.11,1.63,8.71,3.16,17.3,6.63,26.18,9.29,15.99,4.79,33.13,6.59,49,.32,8.4-3.32,16.71-8.25,22.66-15.15,4.59-5.32,7.57-11.78,8.82-18.68,2.53-13.94-1.31-28.91-9.69-40.26-9.29-12.58-23.29-20.84-37.78-26.11-7.62-2.77-15.51-4.77-23.48-6.21-9.31-1.68-18.79-2.46-28.21-1.26s-17.86,4.65-25.73,9.57c-6.74,4.22-12.92,9.8-16.57,16.96-7.23,14.21-2.58,30.76-2.87,45.89-.14,7.43-1.63,15.06-6.18,21.14-.97,1.3-2.33,2.78-3.33,3.7-.62.57-1.27,1.12-1.94,1.64.57-.44-.34.24-.5.36-.2.14-.4.28-.59.42-.56.4.93-.6-.07.04-.36.23-.72.46-1.08.69-.49.31.33-.21.35-.21-.13,0-.5.29-.64.37-.21.12-1.32.73-.71.41.65-.34-.08.04-.24.12-.28.14-.55.29-.83.43-.17.08-.33.17-.5.25-.13.06-.85.41-.3.15.51-.24-.06.03-.14.06-.23.1-.46.21-.68.32-.92.42-1.84.81-2.77,1.2-.02,0-.6.25-.23.1.41-.17-.32.13-.4.16-.41.16-.82.32-1.23.48-.82.32-1.65.63-2.48.93-1.76.64-3.53,1.25-5.3,1.86-2.18.74-4.38,2.04-6.12,3.54-.24.21-1.17.9-.95,1.29s1.42-.12,1.59-.18c7.7-2.63,15.33-5.53,22.38-9.64s13.76-9.24,17.6-16.55c7.16-13.59,2.74-29.87,2.84-44.42.05-7.47,1.31-14.93,5.29-21.36,1.81-2.93,4.17-5.58,6.65-7.68.14-.12.28-.24.43-.35.08-.06.67-.55.32-.26-.32.26.16-.12.18-.14.2-.15.4-.3.59-.44.16-.11,1.19-.83.72-.52s.05-.03.12-.08c.26-.17.52-.33.78-.5.6-.39-.81.47-.18.11.16-.09.32-.19.48-.28s.55-.25.65-.37c-.02.02-.86.45-.35.19.39-.2.78-.4,1.16-.6-.88.45.31-.14.61-.28.23-.1.46-.2.68-.3.02-.01.59-.25.22-.1-.41.17.3-.12.39-.15.17-.07.35-.13.52-.2.76-.28,1.83-.66,2.41-.83,2.01-.62,4.08-1.07,6.15-1.43,4.44-.77,8.97-.99,13.47-.86,8.76.26,17.5,1.78,26,3.86,14.9,3.64,29.62,9.61,41.37,19.68,10.98,9.41,18.41,22.23,19.93,36.72.72,6.84.08,13.83-2.31,20.29-1.15,3.12-2.7,6.1-4.65,8.8-.97,1.34-2.07,2.6-3.23,3.78-.57.58-.97.96-1.61,1.51-.33.29-.67.56-1,.84-.61.49-.21.16-.08.06-.25.19-.5.37-.75.56-.15.11-.3.22-.46.33.13-.1.79-.52.06-.05-.17.11-1.33.84-.69.45s-.58.33-.72.41c-.11.06-.68.35-.07.04.7-.35-.27.13-.41.2-.17.08-.34.17-.5.25-.61.31.69-.3.07-.03-.4.17-.8.36-1.2.53-.1.05-.7.29-.1.05-.17.07-.35.14-.53.21-.47.18-.94.36-1.42.52-3.31,1.17-6.92,1.95-10.52,2.41-7.91,1.01-15.97.29-23.75-1.33-8.9-1.85-17.5-4.86-26.01-8.02-4.25-1.58-8.47-3.3-12.78-4.7-4.61-1.5-9.05-1.82-13.67-.18-2.64.94-5.15,2.24-7.59,3.61-.87.49-1.72,1-2.58,1.5-.43.25-.86.51-1.29.75-.25.14-.5.29-.76.43-.09.05-.9.5-.37.21.57-.31-.24.13-.37.2-.19.1-.38.2-.58.3-.45.23-.9.46-1.36.69-.1.05-.92.44-.44.22.43-.21-.21.1-.25.11-.53.24-1.05.48-1.58.72-1.9.84-3.36,1.41-5.52,2.16-7.85,2.72-16.15,4.19-24.45,4.42-4.13.11-8.26-.08-12.36-.57-.66-.08-1.72.44-2.26.68-1.16.51-2.32,1.15-3.38,1.85-.35.23-3.49,2.59-2.46,2.71h0Z"/><path class="cls-1" d="M436.28,27.78c-6.6.58-13.07,2.05-19.23,4.5-5.56,2.21-10.85,5.09-15.92,8.27-10.42,6.52-19.95,14.36-30.47,20.73-5.47,3.31-11.18,6.25-17.24,8.34-1.32.45-2.64.88-3.99,1.23-.69.18-1.39.35-2.09.5-.42.09-.84.18-1.26.26-.7.14.09,0-.68.12-.42.06-.84.12-1.27.18-.15.02-.88.09-.08.01-.42.04-.85.08-1.27.12-1.36.12.68,0-.16,0-.35,0-.71.03-1.06.04,1.23-.03-.2-.01-.38-.01-.15,0-.88-.03-.08,0-.57-.03-1.14-.07-1.71-.12.18.02.55.07-.27-.03-.43-.05-.86-.11-1.29-.18-.59-.09-1.18-.2-1.77-.32-1.54-.33-3.05-.77-4.54-1.26-2.96-.97-5.82-2.22-8.65-3.52-5.65-2.59-11.24-5.42-17.21-7.22-6.86-2.06-14.09-2.63-21.22-2.45s-14.31,1.27-21.21,3.15c-11.69,3.19-23.06,8.27-33.18,14.95-8.92,5.89-17.09,13.41-22.15,22.95-5.67,10.69-6.01,22.82-2.61,34.29s10.28,23,17.47,33.11c6.34,8.91,14.01,17.66,24.44,21.73,2.57,1,5.23,1.67,7.97,2.06,2.29.33,4.81.26,7.07-.26.31-.07,1.46-.25,1.44-.7s-1.31-.57-1.49-.6c-10.35-1.48-18.93-9.32-25.39-17.26-3.66-4.5-6.9-9.35-9.97-14.27-3.34-5.34-6.41-10.87-8.84-16.68-4.67-11.14-6.79-23.55-2.9-35.26,3.35-10.06,10.5-18.28,18.74-24.75,8.9-6.98,19.19-12.28,29.81-16.11,5.72-2.06,11.53-3.61,17.25-4.28-.94.11.51-.05.56-.05.29-.03.58-.05.88-.08.16-.01,1.62-.09.43-.04.29-.01.58-.03.88-.04.44-.02.88-.03,1.32-.04-1.05.02-.06,0,.2,0,.36,0,.73.01,1.09.02,1.07.01-.43-.04.55.02,2.76.18,5.58.56,8.58,1.35,11.92,3.12,22.13,10.69,34.37,12.93,13.58,2.48,27.9-.31,40.26-6.15,11.27-5.33,21.15-12.83,31.31-19.96,9.42-6.6,19.38-13.15,30.59-16.23,1.31-.36,2.65-.66,3.98-.91-.69.13.64-.1.61-.1.27-.04.54-.08.81-.12.11-.02,1.47-.18.45-.07.41-.05.83-.08,1.24-.12s4.25-.35,3.45-1.26c-.39-.45-1.86-.43-2.32-.46-1.28-.08-2.57-.06-3.85.05h0Z"/><path class="cls-1" d="M380.47,126.65c4.41-14.05,10.19-27.68,17.31-40.57,7.21-13.06,15.71-25.4,25.34-36.79,5.42-6.41,11.21-12.5,17.32-18.26.61-.57.39-1.62.02-2.22-.53-.88-1.68-1.61-2.6-1.96-2-.78-4.73-1.16-6.44.44-10.91,10.28-20.77,21.65-29.41,33.89s-16.18,25.55-22.3,39.35c-3.43,7.74-6.42,15.67-8.96,23.74-.65,2.06,2.7,3.59,4.19,3.92,1.68.37,4.85.6,5.52-1.54h0Z"/><path class="cls-1" d="M134.69,229.74c-11.51,26.3-26.24,51.01-41.61,75.21-4.35,6.85-8.76,13.66-13.16,20.48-1.43,2.21,3.57,10.42,5.34,8.09,10.33-13.62,23.8-24.75,39.05-32.46,4.33-2.19,8.8-4.09,13.38-5.71l-5.14-7.83c-1.08,5.81,2.13,12.34,6.03,16.48s8.61,6.05,13.94,7.11,10.95,1.66,16.42,2.33c5.82.72,11.65,1.33,17.5,1.73,20.93,1.43,42.54.02,61.88-8.73,16.2-7.32,30.91-20.02,37.08-37.09s4.13-37.02-6.38-51.99c-5.54-7.88-13.16-13.94-22.11-17.53s-18.14-4.98-27.55-5.18c-2.28-.05-4.56-.02-6.83.07-1.89.07-.87,3.18-.46,4.17.48,1.18,1.09,2.37,1.94,3.33.47.53,1.28,1.55,2.06,1.52,16.99-.63,35.57,2.1,48,14.19.11.11.55.56,0,0,.16.17.32.34.48.51.31.34.62.69.92,1.05s.6.71.88,1.08c.14.18.28.37.43.55.54.7-.32-.48,0,0,.55.81,1.1,1.62,1.62,2.45.22.36.51.43-.14-.26.13.13.26.45.34.6.25.45.49.91.73,1.37.21.41.4.83.61,1.24.3.63-.39-.91-.12-.27.09.21.18.42.27.63.38.9.72,1.82,1.05,2.75s-.05-.16-.05-.16c.02,0,.18.58.21.66.15.5.29,1,.43,1.5.26.95.48,1.92.68,2.88-.17-.82.07.43.12.68.08.46.15.92.21,1.38.14,1.04.26,2.09.34,3.14.16,2.08.18,3.3.09,5.48-.16,3.85-.7,7.72-1.67,11.45-4.28,16.39-16.42,29.25-30.92,37.41-16.78,9.45-35.98,12.67-55.04,12.55-10.9-.07-21.77-1.14-32.57-2.52-5.15-.66-10.4-1.16-15.46-2.34-2.2-.51-4.33-1.22-6.3-2.35-.97-.55-1.29-.77-2.1-1.51-.08-.07-.64-.62-.31-.28s-.21-.24-.27-.32c-.1-.11-.6-.75-.23-.26.53.7-.69-1.1-.13-.19.38.62-.02-.09-.11-.24-.35-.63.37.86.11.2-.25-.62.16.76.03.1-.02-.11-.18-.86-.1-.37s-.02-.27-.03-.38c-.06-.58-.02.37-.02-.22,0-.55.08-1.1.18-1.64.31-1.68-.92-4.09-1.83-5.41-.63-.92-1.96-2.9-3.31-2.42-16.34,5.78-31.29,15.32-43.43,27.7-3.48,3.55-6.73,7.3-9.73,11.25l5.34,8.09c15.57-24.09,31.18-48.23,44.32-73.76,3.71-7.2,7.21-14.51,10.46-21.93.8-1.83-.64-4.59-1.66-6.07-.41-.59-2.9-3.81-3.68-2.03h0Z"/><path class="cls-1" d="M105.92,359.28c6.22-8.62,14.51-15.5,24.08-20.12,1.77-.85.31-4.38-.32-5.51-.69-1.22-2.61-4.17-4.43-3.29-9.92,4.79-18.56,12.09-25,21.02-1.84,2.55,3.61,10.75,5.68,7.89h0Z"/><path class="cls-1" d="M138.37,377.89c2.36-18.6,7.92-36.7,16.49-53.38.99-1.93-1.54-2.02-2.81-1.73-1.98.45-4.86,1.64-5.87,3.59-8.77,17.08-14.56,35.64-16.98,54.69-.25,1.97,3.34,1.07,4.22.75,1.2-.44,2.42-1.01,3.39-1.84.62-.53,1.45-1.21,1.56-2.08h0Z"/><path class="cls-1" d="M296.29,235.89c1.28-9.49,2.51-19.35-.59-28.63-2.87-8.61-9.69-15.95-18.12-19.37-4.56-1.85-9.33-1.76-14.09-2.57-.54-.09-1.09-.21-1.62-.35-.18-.05-.37-.1-.55-.15.64.18.02.01-.1-.04-.18-.07-.36-.16-.54-.22-.65-.22.62.37.03.02-.05-.03-.51-.23-.51-.28l.47.29c-.39-.28-.42-.29-.1-.04.54.37.03.02-.07-.07.72.69.17.21.06.05-.02-.03-.42-.51-.15-.16.29.38-.15-.24-.21-.33-.21-.34-.05-.1-.01-.04-.1-.21-.21-.44-.29-.66-.13-.37-.2-.73-.24-1.13-.31-3.62,2.73-6.4,5.87-7.58,4.15-1.57,8.66-.36,12.86.37,8.76,1.51,17.44.51,25.59-3.08s14.82-8.9,20.48-15.33,10.49-14.38,14.47-22.32c2-3.99,3.85-8.06,5.65-12.15,1.58-3.6,3.34-7.92,7.01-9.84.81-.42,1.7-.78,2.61-.92.35-.05.71-.06,1.07-.04.27.02.81.24.39.06-.67-.29-1.31-.66-1.85-1.16s-.5-.6-.11,0c-.29-.44.18.38.24.54.17.41.33.83.44,1.26.9,3.44.28,7.23-.33,10.66-1.56,8.84-4.77,17.37-9.33,25.1-1.14,1.94-2.37,3.82-3.68,5.65l8.38,5.14c.51-5.76,1.59-11.46,3.31-16.99.86-2.77,1.87-5.49,3.02-8.15,1.05-2.43,2.11-5.02,3.69-7.16.6-.81,1.3-1.65,2.21-2.11.41-.21.79-.32,1.23-.4s.29.2.15-.02l-.42-.14c-1.04-.43-1.94-1.04-2.71-1.82-.71-.68.19.45-.04,0,.2.4.37.82.51,1.24.32.93.44,1.92.51,2.9.4,5.47-.29,11.16-1.6,16.47-1.51,6.1-4.12,11.92-7.53,17.19l8.25,5.65c1.86-5.57,3.73-11.14,5.59-16.71.9-2.7,1.81-5.4,2.71-8.1.72-2.15,1.35-4.37,2.47-6.35.89-1.57,2.08-3.06,3.96-3.36.69-.11.3.18-.02-.12-.46-.44-1.2-.6-1.7-1.07-.12-.12-.37-.48-.5-.54.25.13.31.43.44.72.24.54.39,1.08.46,1.67.33,2.54-.2,5.12-.78,7.58s-1.33,4.82-2.22,7.15c-2.03,5.29-4.82,10.25-8.24,14.76-1.03,1.35,2.23,3.79,3.08,4.35,1.31.86,3.65,2.4,5.17,1.3,2.98-2.16,3.5-5.99,4.4-9.31.48-1.79,1.19-3.41,2.47-4.79.55-.59,1.14-1.11,1.87-1.47.3-.15.61-.29.94-.37,1.89-.49.25-.07.28-.09.42-.18.19.18.08-.07l-.39-.15-3.17-2.31s-.11-.44.04.09c.1.35.27.67.36,1.04.22.99.25,2.05.22,3.05-.05,1.88-.44,3.7-1.14,5.45-1.48,3.75-4.03,7.02-6.91,9.81-6,5.81-13.75,9.39-19.98,14.93s-9.48,12.36-10.77,20.23-.44,15.93,1.1,23.68c1.8,9.1,4.51,18.06,7.25,26.92,5.93,19.17,12.83,38.04,19.47,56.97,6.77,19.28,13.54,38.57,20.31,57.85.83,2.36,1.66,4.72,2.48,7.07l.39-1.46c-18.25,4.76-37.59,5.54-56.15,2.13-9.3-1.71-18.05-4.28-26.62-7.95-.94-.4-1.87-.83-2.8-1.26-.49-.23.02,0,.1.05-.26-.13-.53-.26-.79-.39-.52-.26-1.04-.53-1.56-.81s-1.03-.56-1.54-.85c-.19-.11-.38-.22-.57-.33-.13-.08-.92-.56-.37-.22.51.31-.11-.07-.17-.11-.24-.16-.49-.31-.73-.48-.48-.32-.96-.65-1.43-.99-.24-.17-.47-.34-.7-.51.06.04.65.52.2.14-.39-.33-.79-.63-1.17-.96-.14-.12-1.35-1.22-.73-.62-.42-.4-.82-.81-1.22-1.23-.35-.37-.69-.74-1.02-1.13-.3-.35-.09-.1-.03-.03-.18-.22-.35-.45-.53-.67-.68-.9-1.32-1.83-1.91-2.8-4.19-6.94-5.46-15.55-5.8-23.59-.41-9.78.34-19.65,1.39-29.36,1.11-10.33,2.75-20.6,4.62-30.82.94-5.16,1.95-10.31,2.97-15.46.95-4.74,1.65-9.63,3.02-14.27,1.13-3.82,3.13-7.43,6.48-9.72,3.11-2.13,6.93-3.22,10.64-3.67,8.95-1.07,17.84,1.68,26.8,1.17,2.52-.14,5.02-.52,7.45-1.22,1.85-.54-1.06-3.41-1.6-3.85-1.37-1.12-3.86-2.97-5.8-2.41-9.64,2.78-19.53-.52-29.3-.34-7.76.14-16.59,2.27-20.84,9.42-2.46,4.14-3.14,9.17-4.08,13.82-1.07,5.31-2.14,10.63-3.15,15.95-2.02,10.55-3.84,21.15-5.16,31.81s-2.18,20.82-2.04,31.26c.12,8.79,1.21,17.94,5.13,25.91,4.54,9.23,12.58,15.94,21.55,20.69,8.81,4.67,18.46,7.99,28.13,10.36,19.43,4.75,39.85,5.23,59.46,1.27,2.44-.49,4.85-1.06,7.26-1.68.7-.18.56-.98.39-1.46-6.98-19.87-13.95-39.75-20.93-59.62s-14.05-39.18-20.32-59.02c-2.9-9.16-5.77-18.42-7.72-27.83-1.66-8.01-2.63-16.38-1.34-24.52s5.36-15.13,11.69-20.4,14.5-9.15,20.34-15.49c5.46-5.92,10.46-16.83,3.37-23.51-2.13-2.01-5.23-4.02-8.29-3.93-1.95.06-3.65,1.07-5,2.43-2.78,2.78-2.86,6.69-4.16,10.19-.62,1.66-1.52,3.13-2.97,4.18l8.25,5.65c3.47-4.57,6.29-9.6,8.32-14.97,1.01-2.66,1.82-5.4,2.46-8.18.68-2.95,1.19-5.94.4-8.91-.97-3.65-3.98-6.49-7.17-8.32-2.41-1.39-5.65-2.58-8.35-1.29-2.08,1-3.38,2.99-4.29,5.03-1.2,2.71-1.99,5.63-2.93,8.43-2.37,7.09-4.74,14.18-7.11,21.27-.57,1.72,1.86,3.54,3.08,4.35.83.55,4.23,2.75,5.17,1.3,3.49-5.4,6.03-11.3,7.62-17.53.81-3.17,1.37-6.39,1.65-9.65.24-2.85.42-5.85,0-8.68s-1.52-5.4-3.51-7.49c-2.53-2.64-6.85-5.39-10.69-4.32-2.52.7-4.19,3.23-5.32,5.41-1.56,3-2.89,6.12-4.04,9.29-2.54,6.97-4.15,14.28-4.81,21.66-.06.72.86,1.78,1.27,2.21.75.77,1.59,1.42,2.51,1.98s3.7,2.22,4.6.95c5.45-7.65,9.48-16.25,11.85-25.35,1.97-7.52,4.41-17.46-1.81-23.71-3.74-3.76-9.59-6.64-14.79-4.18-4.12,1.95-6.2,6.04-7.95,10.02-3.75,8.51-7.67,16.97-12.71,24.81-9.41,14.64-24.27,28.11-42.59,28.68-4.81.15-9.37-1.05-14.1-1.65s-8.95-.13-12.63,2.72c-3.17,2.45-4.35,6.57-2.57,10.25,2.3,4.73,7.43,8.19,12.29,9.86s9.86,1.25,14.7,2.52c.92.24.43.12.21.05.24.08.49.18.73.28.18.07.35.16.53.23.64.25-.64-.37-.05-.02.22.13.45.25.67.37.54.28-.33-.18-.31-.2.03-.02.55.37.64.43.81.53-.45-.41.02,0,.34.3.69.58,1.02.88-.68-.63.13.16.36.4.12.13.88,1.02.48.52.37.46.72.93,1.06,1.42,5.14,7.4,5.26,17.32,4.37,26.18-.26,2.56-.6,5.11-.94,7.65-.09.7.89,1.8,1.27,2.21.84.91,1.98,1.76,3.07,2.33.9.47,3.91,1.97,4.17.1h0Z"/><path class="cls-1" d="M35.78,155.73c20.21-4.39,40.11-6.37,60.81-6.06,10.39.15,20.77.9,31.07,2.24,2.62.34,4.1.56,6.85,1,2.58.41,5.16.87,7.73,1.36,4.86.93,9.7,1.98,14.5,3.18,4.45,1.12,8.87,2.38,13.21,3.85,1.07.36,2.13.74,3.19,1.12.26.1.53.19.79.29-.18-.07-.85-.33.01,0,.53.2,1.05.41,1.57.62,2.15.86,4.28,1.78,6.37,2.77s4.14,2.04,6.15,3.17c.91.51,1.82,1.04,2.71,1.58.24.14.47.29.71.44.66.39-.71-.46-.07-.04.52.34,1.05.68,1.57,1.03,1.85,1.25,3.65,2.57,5.39,3.97.87.7,1.73,1.43,2.57,2.17.39.34.77.7,1.15,1.05.7.64,0-.01-.12-.12.24.21.47.46.7.69,1.53,1.53,2.98,3.13,4.34,4.8.62.76,1.23,1.54,1.81,2.33.31.42.61.85.92,1.28.42.58-.43-.66-.04-.06.18.27.36.55.54.82,1.18,1.81,2.26,3.68,3.24,5.61.44.87.86,1.75,1.26,2.65.21.48.42.95.62,1.43-.33-.8-.07-.16,0,0,.11.3.23.61.34.91.74,2,1.35,4.04,1.84,6.11.24,1,.44,2,.61,3.02.04.25.08.51.12.76-.01-.07-.08-.6-.02-.12.07.57.14,1.14.19,1.71.2,2.1.25,4.21.15,6.31-.05.96-.13,1.92-.24,2.87-.03.25-.06.51-.1.76.08-.61,0,.04-.02.13-.11.64-.23,1.27-.36,1.9-.45,2.11-1.08,4.17-2,6.13-.03.06-.35.64-.09.18-.13.23-.27.46-.41.69-.28.45-.59.89-.93,1.31s-.69.81-1.07,1.19c.05-.05.38-.31.04-.03-.23.2-.48.38-.73.56-.41.28-.84.52-1.27.75-.64.35-.25.13-.07.06-.23.09-.46.17-.7.24-.47.14-.94.24-1.42.32.83-.14-.65-.04-.9-.04-.62.01.68.22.1,0-.17-.06-.92-.16-.27-.03s-.06-.03-.24-.13c-.17-.09-.86-.46-.15-.06.63.36.18.1.04,0-.69-.57.25.22.26.3-.02-.08-.34-.36-.42-.46-.1-.12-.2-.24-.29-.36-.22-.29-.13-.16.27.39.04-.03-.62-.97-.59-1.11,0-.03.28.86.14.34-.06-.21-.14-.41-.21-.61-.13-.42-.24-.85-.33-1.28-.05-.22-.08-.44-.13-.66-.1-.49.06.69,0-.11-.15-1.89-.14-3.77.06-5.66.45-4.25,1.06-8.5-.03-12.72-.61-2.37-1.82-4.63-3.47-6.45-1.26-1.38-3.52-2.74-5.5-2.13-1.76.54-2.69,2.23-2.16,4.03.41,1.4.77,2.81,1.07,4.24.12.57.22,1.15.32,1.72,0-.03.21,1.38.11.66.06.43.11.87.15,1.3.29,2.76.35,5.54.19,8.31-.17,2.99-.49,5.13-1.21,8.07-.65,2.69-1.52,5.34-2.63,7.88-.12.27-.24.53-.36.79-.08.16-.46.83-.11.22-.27.47-.55.93-.86,1.37s-.63.86-.99,1.25c.02-.02-.77.79-.36.4.32-.3-.44.33-.54.4-.23.15-.46.29-.7.42-.64.36-.1.02.05-.02-.03,0-1.04.31-.41.15s-.37.1-.46-.01c.06.07.85.22.22.03-1-.3.81.35.17.09-.81-.34.1-.28.22.18-.12-.09-.24-.18-.36-.28-.3-.25-.16-.12.4.4,0-.07-.35-.38-.42-.47l-.2-.25c-.31-.42-.26-.34.16.23-.18-.01-.55-.97-.65-1.16s-.53-1.24-.11-.16c-.08-.21-.16-.43-.24-.64-.21-.59-.39-1.19-.54-1.79-.69-2.65-1.17-5.76-1.47-8.1-.9-6.99-1.08-14.05-.57-21.08l-9.11-2.37c.31,6.38.61,12.76.92,19.14.16,3.23.31,6.46.47,9.69.07,1.35.16,2.71.17,4.07,0,.6,0,1.19-.06,1.79-.06.7.24-.81-.05.34-.1.38-.2.74-.33,1.1-.23.68-.14.32-.04.14-.14.24-.33.44-.48.67s-.67.55.05.02c-.15.11-.29.22-.44.32-.18.12-.42.2-.59.33-.35.28.85-.18.06-.06-.17.03-.37.08-.53.12-.83.22.84.04-.03,0-.2-.01-.51-.06-.71-.02-.54.1,1.05.26.15.03-.22-.06-.97-.39-1.14-.31.37-.18.96.46.2.05-.22-.12-.45-.23-.67-.34-.77-.38.32.14.36.24-.07-.16-.55-.42-.72-.55-.82-.6.55.74.2.2-.13-.19-.33-.39-.49-.57-.45-.51.3.04.2.3.02-.06-.33-.62-.38-.71-.38-.62.24.9-.12-.28-.08-.27-.17-.53-.24-.8s-.13-.54-.19-.81c-.09-.49-.1-.55-.05-.17-.03-.21-.05-.42-.06-.63-.22-2.79.15-5.08.64-7.56,1.3-6.64,2.67-13.39-.69-19.69-.92-1.72-3.09-3.33-5.13-3.28-1.61.04-3.64,1.13-3.39,3.06.91,6.91,1.82,13.82,2.73,20.74.45,3.46.91,6.91,1.36,10.37.34,2.58.75,5.15.61,7.77-.01.27-.04.54-.06.81-.01.22-.13.94,0,.1-.09.51-.19,1.01-.34,1.51s-.33.92-.51,1.39c.31-.79.16-.24,0-.01-.19.26-.36.53-.58.78-.13.15-.68.46-.22.24.54-.26-.22.11-.29.16-.06.04-.87.41-.3.19.63-.24-.42.09-.42.09-1,.34.55-.06-.06.02h-.16c-.5-.03-.42-.01.21.06,0,0-1.21-.24-.33-.05.96.21-.7-.23-.58-.34.22-.19.88.68.3.14l-.27-.21c-.42-.37-.35-.3.19.22-.28-.48-.84-.91-1.19-1.36-.14-.18-.32-.39-.44-.59.63,1.07.02-.03-.09-.21-.37-.63-.71-1.27-1.01-1.93-.1-.21-.19-.43-.28-.64-.59-1.36.28.78-.25-.61-.27-.71-.54-1.42-.79-2.14-.55-1.58-1.05-3.18-1.49-4.79s-.81-3.25-1.13-4.89c-.38-1.97-.53-3.01-.72-4.79-.38-3.63-.46-7.29-.27-10.93.18-3.44-4.7-6.72-7.75-4.93-4.93,2.9-9.86,5.81-14.79,8.71l7.75,4.93c-.36-2.61-.48-5.24-.36-7.87.13-2.79.37-4.47,1.04-7.2.61-2.49,1.43-4.92,2.46-7.27s2.08-4.16,3.72-6.5c2.91-4.14-4.4-9.6-7.88-6.16-5.47,5.41-10.93,10.81-16.4,16.22-2.54,2.51-4.83,5-7.47,6.98s-5.87,3.29-8.95,4.68c-5.61,2.53-10.29,6.34-13.46,11.66s-4.85,11.16-5.61,17.27c-.88,7.08-.21,14.26.47,21.33.36,3.71.73,7.42.92,11.14.08,1.48.13,2.96.09,4.43-.02.72-.07,1.45-.14,2.16-.02.24-.05.48-.08.72.11-.82-.13.61-.16.75-.15.68-.34,1.36-.58,2.02-.08.22-.16.43-.25.64-.04.11-.55,1.09-.13.33-.33.58-.71,1.14-1.15,1.65-.15.17-.3.33-.46.49-.32.31-.32.31-.01.01-.18.14-.37.28-.56.41-.34.23-.7.43-1.07.62-.97.5.48-.06-.58.22-.67.17-1.33.36-2.01.48-.41.07-.83.13-1.24.19-1.35.19.76-.05-.59.06-.94.07-1.88.15-2.82.23-7.63.61-15.26,1.21-22.88,1.82-17.25,1.37-34.49,2.75-51.74,4.12l5.72,5.43c-1.29-22-.67-44.11,1.83-66.01,2.47-21.59,6.91-43.29,13.14-64.38,3.52-11.9,7.61-23.62,12.27-35.12.9-2.23-1.34-4.97-3.25-5.83-2.03-.92-4.61-.9-5.57,1.45-8.33,20.57-14.86,41.86-19.5,63.57-4.68,21.88-7.52,44.17-8.4,66.53-.49,12.47-.37,24.97.36,37.43.15,2.63,2.89,5.66,5.72,5.43,15.59-1.24,31.18-2.48,46.76-3.72,7.71-.61,15.42-1.23,23.13-1.84,3.82-.3,7.76-.39,11.54-1.07,3.29-.59,6.46-2.14,8.49-4.87,3.87-5.19,3.49-12.3,3.07-18.41-.53-7.58-1.65-15.14-1.66-22.75,0-6.27.59-11.12,2.99-17.07.28-.68.57-1.36.89-2.02.16-.33.32-.66.49-.98-.31.58,0,.02.05-.07.81-1.35,1.63-2.67,2.62-3.9.82-1.03,1.72-2,2.69-2.89-.61.55.29-.23.34-.27.19-.15.38-.3.57-.45.7-.53,1.42-1.02,2.18-1.47,3.28-1.96,6.97-3.1,10.29-4.98,3.52-1.99,6.41-4.9,9.26-7.73,6.23-6.16,12.46-12.33,18.69-18.49l-7.88-6.16c-6.61,9.4-9.65,21.22-8.09,32.63.26,1.93,1.14,3.4,2.83,4.47,1.42.9,3.37,1.38,4.91.46,4.93-2.9,9.86-5.81,14.79-8.71l-7.75-4.93c-.38,7.34.38,14.76,2.2,21.88,1.73,6.74,4.12,14.09,9.54,18.78,2.8,2.42,6.85,4.01,10.55,2.93,2.93-.85,4.95-2.98,6.03-5.78,2.17-5.62.46-12.28-.29-17.99-1.15-8.72-2.3-17.45-3.44-26.17l-8.52-.21c.05.09.62,1.32.25.41.1.25.19.51.26.77.12.39.2.79.3,1.18.32,1.21-.02-.39.07.33.18,1.52.13,3.06-.02,4.57-.14,1.38-.29,2.18-.61,3.8-.29,1.48-.61,2.95-.85,4.44-1.12,6.87-.7,14.04,4.89,18.92,3.84,3.35,10.8,5.48,15.25,2.02,2.64-2.05,3.55-5.17,3.63-8.41s-.25-6.58-.41-9.84c-.38-7.95-.77-15.91-1.15-23.86-.12-2.43-2.19-4.75-4.57-5.26s-4.36.41-4.54,2.9c-.51,7.03-.34,14.09.57,21.08.8,6.2,1.49,13.6,5.86,18.48,2.36,2.64,5.76,4.55,9.39,4.27,3.29-.25,5.96-2.1,7.85-4.74,3.73-5.19,5.28-12.13,6.12-18.35,1.01-7.43.35-15.11-1.77-22.3l-7.66,1.89c.16.18.32.37.48.55.67.75-.15-.11-.09-.16.06-.06.82,1.76.56,1.03-.2-.57.03.15.08.29.07.23.13.45.19.69s.09.47.15.7c.13.45-.04-.59.03.18.2,2.21.07,4.4-.16,6.6-.45,4.18-.9,8.32.28,12.45,1.45,5.09,5.53,9.64,10.92,10.54s10.38-1.22,13.58-5.48c2.99-3.98,4.16-8.99,4.81-13.82s.4-9.26-.32-13.87c-1.47-9.36-5.66-18.11-11.14-25.76-11.58-16.19-30.04-25.79-48.6-31.69-9.72-3.09-19.73-5.3-29.78-7.03-10.85-1.87-21.82-3.13-32.82-3.72-21.89-1.17-43.95.3-65.5,4.33-2.65.49-5.29,1.03-7.93,1.6-2.34.51-2.79,3.27-1.72,5.11,1.22,2.09,3.72,3.71,6.21,3.16h0Z"/><path class="cls-1" d="M179.88,270.89c-.02.68.04,1.41.29,2.05.08.2.17.38.28.57.23.39.45.8.75,1.15.94,1.13,2.31,1.79,3.69,2.18.75.21,1.57.3,2.34.25,1.15-.07,1.87-.17,3-.48.6-.17,1.19-.44,1.75-.7.11-.05.21-.11.31-.17.4-.24.82-.48,1.2-.76.08-.06.16-.13.23-.2.33-.3.69-.59.98-.93.43-.49.85-1.09,1.09-1.71.22-.59.43-1.23.47-1.87s-.03-1.27-.17-1.88c-.08-.37-.22-.72-.4-1.05-.3-.53-.6-1.09-1.07-1.49-.82-.7-1.45-1-2.47-1.32-.18-.06-.36-.09-.54-.12-1.05-.13-1.72-.17-2.79-.03-.59.07-1.2.23-1.76.41s-1.16.42-1.69.72c-.99.56-1.87,1.19-2.63,2.04-.48.54-.92,1.17-1.2,1.84-.27.63-.5,1.33-.54,2.02-.02.45.04.92.1,1.37.03.2.08.4.16.59.17.4.42.8.67,1.15.13.18.3.34.48.47.33.34.71.57,1.16.68.5.21,1.02.31,1.57.29.64.02,1.27-.06,1.88-.25.66-.12,1.28-.35,1.88-.67.92-.51,1.99-1.21,2.41-2.23l.26-.83c.06-.57-.1-1.07-.49-1.49-.23-.17-.42-.38-.57-.62l.42.69c-.19-.32-.3-.68-.33-1.05l.08.8c-.03-.43.02-.85.15-1.26l-.26.83c.12-.36.28-.7.49-1.01l-.56.81c.15-.22.33-.42.52-.61l-.82.76c.14-.12.28-.23.43-.33l-1.04.66c.12-.07.24-.14.37-.19l-1.23.52c.11-.04.22-.08.34-.11l-1.3.32c.14-.03.27-.05.41-.07l-1.23.09c.12,0,.25,0,.37,0l-1.11-.12c.19.02.37.06.54.12l-.93-.32c.24.09.47.2.68.36l-.7-.51c.32.24.58.54.78.88l-.42-.69c.29.5.46,1.05.51,1.63l-.08-.8c.04.49,0,.98-.15,1.46l.26-.83c-.09.29-.22.56-.39.81l.56-.81c-.11.15-.22.28-.35.41l.82-.76c-.12.11-.25.21-.39.3l1.04-.66c-.14.09-.29.16-.44.23l1.23-.52c-.13.05-.26.09-.4.13l1.3-.32c-.16.04-.31.06-.47.08l1.23-.09c-.21.01-.41.01-.62,0l1.11.12c-.28-.03-.55-.09-.82-.18l.93.32c-.41-.14-.78-.34-1.13-.6l.7.51c-.42-.32-.78-.7-1.06-1.14l.42.69c-.26-.43-.42-.89-.48-1.38l.08.8c-.01-.14-.02-.29-.01-.43.08-.44-.02-.82-.28-1.15-.18-.4-.48-.69-.91-.86-.47-.24-.96-.37-1.48-.39-.59-.1-1.19-.09-1.78.03-1.25.23-2.57.67-3.57,1.49-.71.58-1.6,1.41-1.63,2.4h0Z"/><path class="cls-1" d="M206.65,251.98c-.91.53-1.69,1.47-2.07,2.45-.53,1.34-.72,2.69-.56,4.14.22,2.01,1.06,3.83,2.18,5.48s2.75,3.06,4.56,3.74c.57.27,1.17.36,1.8.26.56-.12.97-.42,1.24-.92.42-1.1.53-1.92.5-3.09-.02-.86-.23-1.73-.54-2.53-1.09-2.8-3-5.11-5.71-6.46-.72-.36-1.84-.45-2.52.05s-.89,1.6-.77,2.4c.34,2.44,2.05,4.59,4.22,5.67.06.03.12.06.18.09l-.97-.54c.18.1.34.22.5.35l-.95-.78c.13.11.25.23.37.35l-.88-1c.13.15.26.32.37.49l-.71-1.13c.11.18.2.35.29.54l-.48-1.13c.09.22.17.45.23.68l-.24-1.08c.07.3.1.6.1.91v-.98c0,.34-.06.67-.16,1l.26-.82c-.02.07-.04.13-.07.19l3.04-.66c-.18-.07-.36-.15-.53-.25l.97.54c-.17-.1-.32-.21-.47-.33l.95.78c-.17-.14-.32-.29-.46-.45l.88,1c-.12-.15-.24-.3-.34-.46l.71,1.13c-.13-.21-.25-.43-.34-.66l.48,1.13c-.12-.28-.21-.57-.28-.88l.24,1.08c-.08-.39-.12-.78-.12-1.17v.98c0-.48.07-.94.21-1.4l-.26.82c.17-.52.42-1,.78-1.42l-.51.6c.26-.29.55-.54.89-.73.74-.44.85-1.68.77-2.4-.11-1.14-.73-2.45-1.43-3.34s-1.66-1.91-2.79-2.33c-.87-.32-1.68-.44-2.52.05h0Z"/><path class="cls-1" d="M232.96,246.46c-2.08.63-4.18,1.85-5.7,3.43-.75.78-1.52,1.67-1.69,2.78-.13.82.14,1.78.8,2.3.62.48,1.26.6,2.06.53,1.79-.16,3.51-1.12,4.98-2.07s2.87-2.24,3.82-3.77c.37-.6.65-1.33.67-2.05.03-1.3-.56-2.54-1.4-3.5-.11-.13-.22-.26-.35-.37-.45-.4-.9-.35-1.45-.25-.7.13-1.3.33-1.97.58-1.19.45-2.35,1.09-3.41,1.8-2.68,1.79-5.95,4.79-5.84,8.36.08,2.7,1.94,5.13,4.57,5.83.47.13,1.02.02,1.48-.1.94-.24,1.82-.71,2.64-1.21.75-.45,1.44-.95,2.09-1.53.55-.49,1.36-1.18,1.61-1.89.31-.87.62-1.75.93-2.62.19-.53.37-1.08-.29-1.35s-1.91.2-2.47.44c-1.18.51-2.32,1.17-3.3,1.99l-.9.8c-.47.44-.85.93-1.16,1.49-.31.87-.62,1.75-.93,2.62l7.83-4.73c-.59-.16-1.12-.41-1.63-.74l.39.27c-1.21-.85-2.05-2.09-2.36-3.54l.1.47c-.15-.84-.1-1.67.14-2.49l-.2.61c.13-.38.29-.72.47-1.07.25-.48-.55.75-.06.1.06-.08.12-.16.18-.23-.54.59-.67.74-.4.45.7-.67-.9.75-.35.31-.88.63-1.12.81-.72.53.41-.27.16-.11-.76.46.62-.34-1.3.62-.42.21-1.18.56-.7.23-.28.13l-1.87-.17c.72.73,1.31,1.57,1.56,2.58l-.1-.47c.11.54.12,1.06-.04,1.58l.2-.61c-.05.14-.12.28-.18.42-.17.29-.1.18.22-.33.25-.31.53-.6.84-.85.99-.87,2.13-1.6,3.37-2.04.29-.13.6-.2.91-.23-.1,0-.19,0-.29,0l.64.05c-.25-.03-.46-.09-.67-.22l.39.27c-.38-.27-.6-.66-.7-1.11l.1.47c-.05-.31-.05-.61.04-.91l-.2.61c.03-.07.08-.15.09-.22.07-.14.02-.06-.16.24-1.18,1.92-3.01,3.2-5.5,3.84,1.14-.35,2.22-.89,3.21-1.55.92-.61,2.02-1.45,2.67-2.36.28-.39,1-1.3.57-1.79s-1.33-.34-1.87-.17h0Z"/><path class="cls-1" d="M271.49,119.82c-1.41.16-2.82.41-4.09,1.07-1.16.61-2.22,1.27-3.12,2.24-.59.64-1.15,1.39-1.52,2.19s-.67,1.61-.77,2.46c-.21,1.66.13,3.43,1.15,4.79,1.28,1.69,3.19,2.52,5.21,2.95,2.29.48,4.74.05,6.89-.77.59-.23,1.16-.56,1.7-.88.26-.15.5-.32.74-.51.96-.79,1.79-1.56,2.39-2.67.41-.77.72-1.68.77-2.56.04-.83.02-1.73-.25-2.53-.66-1.99-2.06-3.53-4.05-4.26-1.67-.62-3.61-.66-5.32-.2s-3.37,1.31-4.67,2.61c-.9.89-1.53,2.03-1.83,3.26s.04,2.36.63,3.41c.47.83,1.83,1.27,2.68,1.4,1.2.18,2.73-.03,3.83-.55.98-.46,2.09-1.12,2.57-2.15l.31-.88c.1-.62-.03-1.19-.4-1.71-.03-.06-.06-.11-.09-.17l.37.81c-.13-.29-.2-.58-.22-.9l.02.89c0-.31.05-.61.15-.9l-.31.88c.11-.3.26-.58.44-.84l-.61.83c.18-.24.38-.45.6-.64l-.87.73c.18-.15.36-.27.56-.39l-1.09.59c.17-.09.35-.17.53-.24l-1.27.41c.18-.06.37-.1.56-.13l-1.32.19c.16-.02.32-.02.48-.02l-1.24-.05c.16.01.32.04.48.08l-1.1-.27c.22.06.42.14.62.24l-.91-.47c.28.15.53.33.76.55l-.67-.65c.34.34.61.73.81,1.17l-.37-.81c.25.57.39,1.17.41,1.8l-.02-.89c0,.49-.07.97-.22,1.44l.31-.88c-.13.36-.31.68-.53.99l.61-.83c-.18.24-.39.46-.61.66l.87-.73c-.23.19-.48.36-.74.51l1.09-.59c-.27.14-.54.26-.83.36l1.27-.41c-.32.1-.65.18-.98.22l1.32-.19c-.34.04-.67.06-1.01.04l1.24.05c-.34-.02-.67-.07-.99-.15l1.1.27c-.35-.09-.69-.21-1.01-.38l.91.47c-.37-.2-.71-.44-1.02-.73l.67.65c-.33-.33-.59-.71-.79-1.13l.37.81c-.23-.51-.34-1.05-.36-1.61l.02.89c-.01-.63.09-1.24.3-1.84l-.31.88c.18-.51.43-.98.75-1.41l-.61.83c.24-.33.52-.62.83-.88l-.87.73c.22-.18.44-.33.69-.47l-1.09.59c.22-.12.44-.22.68-.3l-1.27.41c.21-.07.42-.12.64-.15l-1.32.19c.06,0,.13-.02.19-.02,1.3-.15,2.58-.43,3.68-1.19.73-.51,1.7-1.47,1.79-2.44s-.25-1.82-1.06-2.36c-.92-.61-2.15-.93-3.25-.8h0Z"/><path class="cls-1" d="M292.79,114.89l-3.14,4.87c-.45.64-.7,1.36-.75,2.14-.06.63.02,1.24.24,1.82.14.65.42,1.24.84,1.77.52.72,1.17,1.28,1.95,1.7,1.01.44,2.09.81,3.21.69.43-.05.89-.13,1.32-.22.09-.02.17-.05.26-.08.08-.03.15-.06.22-.09.41-.2.84-.39,1.23-.64.15-.09.28-.2.41-.32.34-.31.84-.76,1.14-1.2.66-.97.95-1.86,1.1-3.02.01-.08.01-.16.02-.23,0-.46-.01-.96-.07-1.42-.01-.09-.03-.18-.06-.27-.12-.47-.23-.97-.43-1.41-.23-.51-.51-1.02-.84-1.47-.17-.23-.4-.46-.58-.65-.19-.21-.39-.46-.62-.65-.06-.05-.12-.09-.18-.14-.38-.27-.77-.56-1.18-.79-.07-.04-.14-.07-.21-.1-.43-.19-.88-.36-1.32-.5-.64-.21-1.35-.28-2.02-.26-.09,0-.17,0-.26.02-.44.05-.89.13-1.32.22-.17.04-.32.1-.48.17-1.01.48-1.88.97-2.51,1.95-.36.47-.57,1-.64,1.57-.17.58-.19,1.17-.06,1.78.09.66.32,1.26.69,1.8.29.61.7,1.13,1.23,1.57.93.74,2.11,1.36,3.33,1.27,1.12-.09,2.3-.52,2.94-1.51.07-.1.14-.2.22-.29l-.81.81c.13-.13.28-.24.44-.33l-1.02.52c.2-.1.41-.17.63-.21l-1.11.19c.22-.03.45-.04.67-.02l-1.15-.13c.21.03.41.07.61.14l-1.13-.43c.16.06.31.14.46.23l-1.05-.71c.13.09.24.18.35.29l-.9-.99c.09.1.17.21.24.33l-.66-1.16c.06.11.1.22.14.33l-.36-1.22c.04.14.06.27.07.42l-.06-1.21c0,.14,0,.27-.03.41l.23-1.14c-.04.2-.11.38-.2.55l.52-1c-.12.21-.26.4-.44.58l.81-.81c-.18.17-.37.31-.59.43l1.02-.52c-.22.11-.44.19-.68.23l1.11-.19c-.16.02-.31.03-.47.01l1.15.13c-.14-.02-.27-.05-.41-.1l1.13.43s-.08-.03-.11-.05l2.28,7.43,3.14-4.87c.36-.47.57-1,.64-1.57.17-.58.19-1.17.06-1.78-.09-.66-.32-1.26-.69-1.8-.29-.61-.7-1.13-1.23-1.57-.93-.74-2.11-1.36-3.33-1.27-1.12.09-2.3.52-2.94,1.51h0Z"/><path class="cls-1" d="M312.43,106.69c-1.34-.03-2.63.55-3.57,1.49-1.13,1.13-1.72,2.55-1.68,4.15.04,1.71.65,3.39,1.33,4.94.74,1.69,1.65,3.4,2.89,4.78,1.01,1.13,2.32,2.19,3.88,2.35,1.2.12,2.43-.1,3.24-1.06s1.17-2.18,1.14-3.5-.38-2.47-.79-3.65c-.72-2.05-1.73-4.02-3.08-5.73-.97-1.22-2.26-2.2-3.89-2.02-1.31.15-2.39,1.2-2.96,2.33-.33.65-.44,1.43-.4,2.15.05.84.24,1.69.5,2.48.59,1.8,1.41,3.48,2.44,5.06.34.52.73,1,1.19,1.42.24.28.53.39.88.34,1.65-1.03,2.89-2.8,3.27-4.71.15-.79-.07-1.66-.3-2.4-.36-1.2-.91-2.45-1.54-3.53-.49-.84-1.03-1.86-1.82-2.44-.27-.2-.98-.7-1.11-.03-.19.99-.6,1.91-1.2,2.72l.23-.31c-.51.67-1.12,1.23-1.83,1.68l2.07,1.76c.78,1.21,1.49,2.58,1.88,3.96-.14-.5.25,1.16.17.64.01.06.08.97.07.46,0-.09,0-.18.01-.27l-.06.59c.07-.63.32-1.21.69-1.72l-.23.31c.66-.86,1.64-1.48,2.74-1.47h-.39c.47,0,.91.15,1.31.39l-.49-.32c.11.07.21.15.31.23.05.05.1.1.16.14s-.64-.69-.4-.41c.33.38-.63-.88-.43-.59.23.33-.75-1.26-.47-.77-.5-.89-.8-1.59-1.09-2.41-.31-.89-.19-.55-.13-.36.1.34-.27-1.2-.18-.7.01.06.02.12.03.17.08.41-.08-.85-.06-.51.02.29.02.56,0,.85l.06-.59c-.08.68-.31,1.33-.71,1.88l.23-.31c-.65.83-1.62,1.24-2.66,1.23h.39c-.83-.02-1.6-.29-2.29-.74l.49.32c-.24-.17-.46-.36-.68-.55-.24-.2.55.62.36.37-.04-.05-.09-.11-.13-.16-.27-.29.66.9.43.58s-.41-.79.44.72c-.28-.5.56,1.09.47.91s.61,1.47.41.94c-.06-.15.45,1.35.3.84-.03-.1.27,1.16.18.7-.07-.39.06.55.06.51,0-.1-.02-.19-.02-.29,0-.17,0-.35.02-.52l-.06.59c.1-.81.42-1.55.91-2.21l-.23.31c.96-1.24,2.44-2.05,4.03-2.02.5,0,.19-1.71.19-1.71-.21-1.13-.68-2.33-1.18-3.35s-1.08-2.15-1.86-3.03l-.57-.59c-.24-.28-.53-.39-.88-.34h0Z"/><path class="cls-1" d="M119.87,65.06c-.55-.02-1.12-.05-1.67.02s-1.09.22-1.61.38c-.17.05-.34.12-.5.2-.47.23-.94.51-1.37.81-.58.41-1.03.99-1.46,1.53-.25.32-.46.66-.62,1.04-.26.63-.54,1.33-.61,2.02-.05.5-.04,1.01-.01,1.51.01.22.05.43.1.64.3,1.17.62,1.89,1.28,2.91.1.16.22.3.34.44.38.43.76.89,1.21,1.25.84.67,1.58,1.13,2.54,1.56s1.74.65,2.78.84c.71.13,1.48.11,2.19.06.18-.01.35-.04.52-.07.51-.1,1.03-.22,1.52-.39.18-.06.34-.14.51-.23.43-.23.89-.48,1.29-.78.53-.41.98-.96,1.33-1.52s.57-1.24.74-1.87.14-1.36.12-2.03c-.02-.76-.26-1.47-.48-2.19s-.66-1.42-1.08-2.07c-.11-.17-.23-.32-.36-.47-.39-.44-.79-.93-1.26-1.3-1.01-.81-2.05-1.44-3.29-1.86-.59-.22-1.19-.31-1.8-.27-.56-.05-1.1.04-1.63.26-.92.43-1.7,1.15-1.86,2.22-.13.92-.27,1.84-.4,2.76-.16,1.08.26,2.2.89,3.06.38.53.84.97,1.39,1.31.52.43,1.11.74,1.76.94,1.08.32,2.38.51,3.44.02.92-.43,1.7-1.15,1.86-2.22.13-.92.27-1.84.4-2.76l-5.29,2.2c.11.04.22.08.33.13l-1.22-.55c.19.09.37.2.54.32l-1.09-.78c.17.13.32.26.47.42l-.85-.92c.19.21.36.43.5.68l-.59-1.01c.17.29.3.59.39.91l-.31-1.04c.11.39.17.79.18,1.19v-1.02c0,.42-.06.84-.2,1.24l.33-.94c-.13.35-.31.68-.55.97l.64-.76c-.23.27-.5.49-.81.68l.88-.51c-.29.16-.59.28-.9.36l1.05-.26c-.32.08-.65.11-.98.11h1.17c-.29,0-.57-.03-.85-.09l1.22.27c-.28-.06-.55-.15-.81-.26l1.22.55c-.24-.11-.46-.23-.67-.38l1.09.78c-.19-.14-.36-.29-.53-.46l.85.92c-.16-.17-.3-.36-.42-.56l.59,1.01c-.12-.22-.22-.44-.29-.68l.31,1.04c-.08-.3-.12-.6-.12-.91v1.02c0-.41.08-.81.22-1.21l-.33.94c.17-.47.42-.89.74-1.28l-.64.76c.3-.36.66-.66,1.06-.9l-.88.51c.29-.16.6-.29.92-.37l-1.05.26c.23-.05.46-.08.69-.08h-1.17c.05,0,.1,0,.16,0,.58.1,1.14.05,1.69-.13.52-.08.99-.29,1.4-.64.75-.63,1.17-1.75.98-2.72-.21-1.14-.85-2.22-1.74-2.96l-1.09-.78c-.76-.44-1.57-.71-2.44-.82h0Z"/><path class="cls-1" d="M146.43,77.07c-.9-.93-2-1.72-3.17-2.28-.74-.35-1.57-.64-2.4-.74s-1.6-.19-2.41-.05-1.56.28-2.26.64c-.65.34-1.33.76-1.84,1.29-.17.17-.31.36-.44.55-.29.42-.6.84-.79,1.32-.78,1.92-.44,4.11.37,5.96,1.81,4.18,6.79,7.99,11.51,6.55.72-.22,1.4-.68,1.98-1.14.61-.49,1.02-1.14,1.43-1.79.28-.45.5-.93.64-1.45.2-.75.37-1.54.33-2.32-.06-1.23-.28-2.41-.82-3.53-.67-1.39-1.55-2.55-2.8-3.49-1.07-.8-2.41-1.24-3.74-1.27-.56-.01-1.17.1-1.68.33-.37.17-.72.41-1.04.65-.12.09-.24.19-.34.3-1,1.11-1.3,2.57-.96,4.03.28,1.19.97,2.31,1.83,3.17.79.79,2.01,1.66,3.15,1.86.87.15,1.98.2,2.63-.54s.79-1.69.56-2.62c-.02-.09-.04-.18-.04-.27l.09,1.01c0-.12,0-.23.03-.35l-.18.89c.05-.21.13-.39.24-.57l-.47.72c.16-.23.36-.41.59-.57l-.73.47c.21-.13.43-.22.67-.27l-.89.18c.15-.02.29-.03.44-.01l-1.01-.1c.09.01.17.03.26.06l-1.06-.37c.09.03.17.07.25.11l-2.94-2.51c.07.1.13.19.19.3l-.61-1.07c.11.2.21.41.29.63l-.36-1.07c.1.3.16.61.19.93l-.09-1.01c.03.44,0,.87-.08,1.3l.18-.89c-.13.61-.37,1.18-.7,1.7l.47-.72c-.34.51-.76.95-1.27,1.29l.73-.47c-.39.25-.82.43-1.28.53l.89-.18c-.35.06-.7.08-1.05.05l1.01.1c-.29-.03-.57-.1-.84-.19l1.06.37c-.27-.1-.53-.22-.79-.37l1.07.62c-.22-.14-.43-.29-.63-.45l1.02.86c-.22-.19-.43-.4-.62-.63l.85,1.02c-.19-.23-.35-.47-.5-.73l.61,1.07c-.14-.26-.26-.52-.36-.8l.36,1.07c-.1-.31-.17-.62-.2-.94l.09,1.01c-.03-.36-.01-.7.05-1.05l-.18.89c.09-.44.26-.85.5-1.23l-.47.72c.31-.47.72-.85,1.19-1.16l-.73.47c.51-.32,1.07-.54,1.65-.66l-.89.18c.48-.09.96-.12,1.44-.07l-1.01-.1c.34.04.66.11.99.21l-1.06-.37c.24.09.46.19.68.31l-1.07-.62c.17.1.33.21.48.34l-1.02-.86c.11.09.21.19.31.29.8.83,2,1.61,3.15,1.86.8.17,2.02.15,2.63-.54,1.56-1.77.07-4.4-1.26-5.79h0Z"/><path class="cls-1" d="M165.7,81.44c-1.27-.19-2.2-.14-3.43.17-.79.2-1.53.65-2.18,1.12-1.28.92-2.29,2.54-2.52,4.1-.18,1.2-.18,2.37.16,3.55.38,1.32.95,2.33,1.76,3.44.53.72,1.22,1.39,1.97,1.88,1.06.7,2.11,1.28,3.38,1.5l1.11.09c.56,0,1.07-.16,1.51-.48.34-.13.61-.35.81-.67.4-.37.65-.84.75-1.39.39-1.77.78-3.54,1.17-5.31.36-1.63-.2-3.31-1.25-4.57-.56-.68-1.23-1.21-2.02-1.6-.71-.35-1.45-.51-2.23-.48-.54.09-1.11.17-1.63.36s-1.01.5-1.46.79c-.64.41-1.13,1.01-1.59,1.6-.93,1.2-1.36,2.96-1.22,4.45.11,1.19.39,2.31.96,3.38.64,1.19,1.44,2.1,2.44,2.99,1.49,1.32,3.53,2.01,5.5,1.98.9-.01,2.29-.66,2.66-1.55.59-1.41,1.09-2.77,1.26-4.3.1-.9.21-1.81.18-2.72s-.18-1.91-.34-2.84c-.15-.64-.43-1.22-.82-1.73-.33-.59-.78-1.08-1.33-1.49-.85-.66-2.19-1.27-3.3-1.15-1.05.11-2.13.56-2.66,1.55l-.4.99c-.17.76-.15,1.53.05,2.28.02.09.03.18.04.28l-.17-1.17c.14.97.16,1.95.07,2.93l.12-1.11c-.12,1.12-.39,2.21-.81,3.25l.4-.99-.05.13,2.66-1.55c-.11,0-.22,0-.33,0l1.11.09c-.26-.03-.5-.08-.74-.16l1.12.39c-.24-.09-.47-.2-.69-.33l1.07.67c-.22-.14-.41-.3-.6-.48l.96.93c-.15-.16-.29-.33-.42-.51l.74,1.11c-.12-.18-.22-.37-.31-.58l.46,1.17c-.09-.24-.16-.48-.2-.74l.17,1.17c-.02-.22-.03-.44,0-.66l-.12,1.11c.04-.29.11-.57.21-.84l-.4.99c.14-.34.33-.65.57-.93l-.69.81c.27-.31.57-.56.92-.77l-.92.53c.26-.14.53-.24.81-.31l-1.05.21c.07-.02.14-.03.22-.04l-5.51-6.65c-.39,1.77-.78,3.54-1.17,5.31l4.18-2.44c-.18-.03-.35-.07-.52-.13l1.12.39c-.24-.09-.46-.19-.67-.32l1.07.67c-.21-.14-.41-.29-.59-.46l.96.93c-.21-.2-.39-.42-.55-.66l.74,1.11c-.13-.21-.25-.43-.34-.67l.46,1.17c-.09-.24-.15-.47-.2-.72l.17,1.17c-.04-.29-.05-.57-.02-.85l-.12,1.11c.04-.29.11-.56.22-.83l-.4.99c.15-.33.34-.63.57-.9l-.69.81c.29-.32.62-.59,1-.81l-.92.53c.32-.17.65-.3,1-.38l-1.05.21c.32-.06.63-.08.96-.06l-1.11-.09c.07,0,.14.02.21.03,1.08.16,2.19.08,3.08-.65.81-.67,1.27-1.87,1.21-2.91-.07-1.25-.53-2.52-1.36-3.46s-1.9-1.8-3.14-1.99h0Z"/><path class="cls-1" d="M317.45,44.56c11.89-13.96,24.49-27.31,37.75-39.99,1.39-1.33-1.55-2.97-2.5-3.4-1.16-.53-2.42-.99-3.7-1.1-.73-.06-1.97-.23-2.55.32-13.25,12.68-25.86,26.02-37.75,39.99-1.23,1.44,1.41,2.9,2.5,3.4,1.16.53,2.42.99,3.7,1.1.67.06,2.06.26,2.55-.32h0Z"/><path class="cls-1" d="M347.19,52.86c8.72-3.19,17.44-6.39,26.16-9.58,1.22-.45-2.65-2.23-2.88-2.33-1.19-.48-2.41-.93-3.66-1.19-.7-.15-1.67-.46-2.37-.21-8.72,3.19-17.44,6.39-26.16,9.58-1.22.45,2.65,2.23,2.88,2.33,1.19.48,2.41.93,3.66,1.19.7.15,1.67.46,2.37.21h0Z"/><path class="cls-1" d="M342.87,226.37c-9.69-1.35-37.89-4.19-50.52,12.18-4.01,5.19-3.92,9.03-6.06,29.43-5.19,49.31-9.16,59.83-2.02,77.12,1.21,2.92,4.62,11.02,11.11,18.27,29.41,32.83,92.75,15.7,98.01,14.21-7.88-20.96-15.65-42.61-23.24-64.94-10.03-29.52-19.09-58.31-27.28-86.25Z"/><path class="cls-1" d="M123.4,150.36c-.33,23.33-.67,46.67-1,70-7.2,3.13-18.32,9.26-25,21-12.72,22.35,2.84,43.68-6,59-6.06,10.51-24.73,20.13-84,11-1.98-21.25-2.53-49.88,3-83,5.32-31.87,14.59-57.91,23-77,12.14-3.15,28.53-6.1,48-6,16.67.09,30.93,2.39,42,5Z"/></g></svg>