<?xml version="1.0" encoding="UTF-8"?><svg id="Calque_2" xmlns="http://www.w3.org/2000/svg" viewBox="0 0 160 160"><defs><style>.cls-1{fill:none;}.cls-1,.cls-2{stroke-width:0px;}.cls-2{fill:#f2e2c4;}</style></defs><g id="team"><rect class="cls-1" width="160" height="160"/></g><g id="creativite"><path class="cls-2" d="M75.45,122.6c-.22,2.42-1.27,5.11-3.72,5.99s-5.6-.29-7.57-1.86c-.25-.2-.48-.42-.7-.64-.31-.31.16.18-.13-.14-.04-.04-.37-.46-.21-.24-.04-.06-.24-.43-.19-.32-.12-.27,0-.03,0,.01-.17-.74.02.37-.12-.37-.24-1.29.35-2.84,1.36-3.67,2.17-1.8,5.5.16,7.73.89,4.11,1.35,8.35,2,12.68,1.92,1.31-.02-.81-4.31-2.27-4.28-4.6.08-8.97-.69-13.3-2.21-2.94-1.03-6.62-2.6-8.66.77-2.19,3.61.45,7.98,3.04,10.56,2.4,2.39,6.09,4.48,9.6,4.07,3.82-.45,5.4-4.04,5.71-7.48.1-1.06-.9-2.36-1.63-3.03-.5-.46-1.51-1.08-1.61,0h0Z"/><path class="cls-2" d="M62.09,113.39c8.06,4.89,17.91,5.97,26.9,3.28,1.17-.35,1.42-1.81.79-2.72-.77-1.11-2.18-1.35-3.4-.98-.52.15-1.04.29-1.8.45-.92.2-1.85.35-2.78.47-2.39.29-4.8.23-7.18-.11-3.62-.51-7.07-1.84-10.18-3.73-.99-.6-2.64-.52-3.34.49-.75,1.08.04,2.28.99,2.85h0Z"/><path class="cls-2" d="M66.08,108.73c8.48,2.07,17.22,2.73,25.92,2.05.28-.07.5-.23.64-.48,1.02-2.51,2.43-4.88,4.48-6.69,2.4-2.13,5.04-2.87,8.11-3.46,5.11-.98,8.86-4.46,11.31-8.94,2.81-5.13,3.94-11.31,3.13-17.1-.77-5.47-3.27-10.43-6.98-14.49-4.75-5.2-11.42-8.84-18.36-10.03-5.57-.96-11.55-.46-16.77,1.77s-9.73,6.33-12.66,11.41c-3.4,5.89-4.58,13.1-.66,19.04.75,1.13,1.69,2.11,2.47,3.22s1.2,2.64,1.27,4.13c.15,3.43-1.47,6.71-3.29,9.51-1.05,1.61,2.3,5.27,3.54,3.37,3.28-5.04,5.04-11.42,2.02-17.03-1.14-2.12-3.18-3.76-4.07-5.97s-.7-4.94-.1-7.3c1.34-5.27,4.9-10.24,9.26-13.44s9.74-4.78,15.08-4.79c3.59-.01,7.24.57,10.58,1.92,2.69,1.09,5.15,2.49,7.34,4.29,3.34,2.74,5.77,6,6.98,10.3,1.47,5.2.8,11.03-1.37,15.93-1.07,2.43-2.51,4.75-4.45,6.58s-4.18,2.86-6.85,3.36c-3.32.61-6.3,1.65-8.82,4-2.1,1.96-3.64,4.4-4.72,7.05l.64-.48c-8.4.65-16.86-.08-25.04-2.08-1.16-.28-1.34,1.19-1.11,1.96.36,1.16,1.31,2.12,2.49,2.41h0Z"/><path class="cls-2" d="M80.04,100.36c1.61-4.89,2.44-9.99,2.26-15.15-.12-3.31-.32-7.24-1.88-10.23-1.05-2.02-3.08-3.28-5.41-2.85s-3.75,2.53-2.88,4.8c1.14,2.99,4.44,5.55,7.12,7.12,3.77,2.21,7.91,3.01,12.2,3.34,3.45.26,8.45.63,11.06-2.13,1.51-1.6,1.42-4.04.39-5.89-1.38-2.48-4-3.76-6.81-3.38-3.85.51-7.02,3.35-8.95,6.56-3.69,6.16-4.94,13.84-5.62,20.9-.12,1.25.88,2.15,2.04,2.39.94.2,2.72-.1,2.84-1.35.47-4.91,1.3-9.86,2.84-14.55.86-2.61,2-5.32,3.81-7.42.78-.91,1.67-1.55,2.65-2.06,1.22-.63,2.16-1.14,2.78.32.22.53.37,1.2.12,1.75-.1.23-.41.43-.87.62-1,.42-2.52.48-3.78.48-1.36,0-2.72-.1-4.07-.22-.12-.01-.75-.07-.55-.05.15.02-.54-.07-.7-.09-.88-.13-1.75-.3-2.61-.52-1.8-.47-3.54-1.25-5.06-2.32-.82-.58-1.7-1.33-2.18-1.8s-.92-.95-1.33-1.47c-.29-.37-.6-.92-.66-1.1-.05-.16-.04-.32,0-.31.46.09-.32.14-.06.17-.3-.03-.59,0-.89-.11-.41-.15-.36-.41-.1.05-.11-.19.22.46.27.57,1.2,2.74,1.31,6.26,1.37,9.22.11,4.65-.79,9.27-2.23,13.67-.78,2.38,4.09,3.47,4.89,1.04h0Z"/><path class="cls-2" d="M45.03,75c4.25-1.77,8.74-2.76,13.33-2.98,1.18-.06,1.43-1.42,1.01-2.31-.51-1.09-1.62-2.01-2.88-1.95-4.89.24-9.75,1.33-14.27,3.22-1.1.46-.8,1.98-.23,2.74.65.87,1.9,1.77,3.04,1.29h0Z"/><path class="cls-2" d="M41.82,54.42c.25.03.5.06.75.1.12.02.24.04.36.06.34.05-.41-.08-.06,0,.58.12,1.17.24,1.75.39.65.17,1.3.37,1.94.59.36.13.73.26,1.09.41-.26-.1.03.02.13.06.2.09.4.18.6.27.62.29,1.23.61,1.83.95.26.15.52.3.78.46.12.08.25.15.37.23,0,0,.55.38.25.16-.27-.19.09.07.14.1.11.08.21.15.32.23.22.17.45.33.66.51.38.3.76.62,1.13.95.86.76,2.44,1.09,3.35.25s.41-2.22-.4-2.94c-4.35-3.86-9.84-6.22-15.59-6.93-1.09-.13-2.28.76-2.05,1.93.25,1.3,1.44,2.08,2.68,2.23h0Z"/><path class="cls-2" d="M48.83,42.58c2.76,3.41,6.37,6.12,10.4,7.86.59.26,1.26.38,1.9.33.49-.04,1.19-.2,1.55-.56.81-.8.21-1.77-.7-2.17-.8-.34-1.58-.73-2.33-1.15-.11-.06-.24-.12-.35-.2.22.16.21.13-.01,0s-.43-.27-.65-.41c-.48-.31-.95-.65-1.41-.99-.43-.33-.86-.67-1.27-1.03-.19-.17-.38-.34-.57-.51,0,0-.37-.35-.18-.17s-.13-.13-.16-.16c-.63-.63-1.22-1.29-1.78-1.98-.73-.9-2.28-1.18-3.36-.86-.86.26-1.85,1.06-1.09,2h0Z"/><path class="cls-2" d="M57.23,25.82c.85,6.5,4.23,12.53,9.02,16.96.86.79,2.16,1.49,3.34.96,1.03-.46,1.02-1.8.24-2.51-4.33-4-7.19-9.16-7.96-15.06-.28-2.14-5-3.13-4.64-.36h0Z"/><path class="cls-2" d="M77.28,25.99c-.58,4.59.17,9.24,2.12,13.43.08.17.56.29.68.33.56.18,1.14.33,1.71.45s1.16.24,1.74.3c.07,0,.78.04.75-.02-1.96-4.19-2.7-8.84-2.12-13.43.06-.5-4.86-1.3-4.89-1.06h0Z"/></g></svg>