<?xml version="1.0" encoding="UTF-8"?><svg id="Calque_2" xmlns="http://www.w3.org/2000/svg" viewBox="0 0 22.19 30.68"><defs><style>.cls-1{fill:#f1e2c3;stroke-width:0px;}</style></defs><g id="pinterest"><polygon class="cls-1" points="3.97 .15 3.97 4.42 7.98 4.42 7.98 3.17 5.42 3.17 5.42 1.37 7.98 1.37 7.98 .15 3.97 .15"/><path class="cls-1" d="M3.6.25v4.26s.11.06.13.06h4.01c.14,0,.6-.05.6-.25v-1.25s-.11-.06-.13-.06h-2.56l.13.06v-1.8l-.6.25h2.56c.14,0,.6-.05.6-.25V.06s-.11-.06-.13-.06h-4.01c-.17,0-.37.03-.51.14-.1.07-.11.17.05.17h4.01l-.13-.06v1.22l.6-.25h-2.56c-.14,0-.6.05-.6.25v1.8s.11.06.13.06h2.56l-.13-.06v1.25l.6-.25h-4.01l.13.06V.06c0-.13-.72-.02-.72.19Z"/><polygon class="cls-1" points="8.71 .15 8.71 2.79 11.31 2.79 11.31 3.28 8.71 3.28 8.71 4.42 12.8 4.42 12.8 1.64 10.24 1.6 10.17 1.26 12.8 1.26 12.8 .15 8.71 .15"/><path class="cls-1" d="M8.64.17v2.63s.03.02.04.02h2.5s.06,0,.08,0c.04,0-.03-.04-.03-.02,0,.02,0,.04,0,.06-.04.12,0,.3,0,.43l.1-.06h-2.6s-.1.02-.1.06v1.13s.03.02.04.02h4.09s.1-.02.1-.06V1.62s-.03-.02-.04-.02l-1.53-.02h-.87s-.13,0-.16-.02c.07.05.02-.09,0-.13l-.04-.19-.1.06h2.64s.1-.02.1-.06V.13s-.03-.02-.04-.02h-4.09c-.05,0-.15.08-.06.08h3.87s.17-.02.21,0c-.07-.04-.04.07-.04.13v.96l.1-.06h-2.64s-.11.02-.1.06l.08.34s.03.02.04.02l2.31.03c.06,0,.12,0,.18,0,.1,0,.03.01.03-.02,0,.1,0,.2,0,.3v2.48l.1-.06h-3.89s-.15.02-.19,0c.07.04.04-.08.04-.14v-.97l-.1.06h2.6s.1-.02.1-.06v-.5s-.03-.02-.04-.02h-2.28c-.07,0-.24.03-.31,0,.07.04.02.02.04-.02.02-.04,0-.13,0-.18V.13s-.14-.02-.14.04Z"/><polygon class="cls-1" points="13.51 .15 13.51 2.79 16.07 2.79 16.07 3.13 13.51 3.13 13.51 4.42 17.68 4.42 17.68 1.6 14.89 1.6 14.85 1.22 17.45 1.22 17.52 .15 13.51 .15"/><path class="cls-1" d="M13.44.16v2.63s.03.05.07.05h2.56l-.07-.05v.34l.08-.06h-2.56s-.08.03-.08.06v1.29s.03.05.07.05h4.17s.08-.03.08-.06V1.6s-.03-.05-.07-.05h-2.79l.07.04-.04-.38-.08.07h2.6s.08-.03.08-.06l.08-1.07s-.04-.05-.07-.05h-4.01c-.08,0-.11.11-.01.11h4.01l-.07-.05-.08,1.07.08-.06h-2.6s-.08.03-.08.07l.04.38s.04.04.07.04h2.79l-.07-.05v2.81l.08-.06h-4.17l.07.05v-1.29l-.08.06h2.56s.08-.03.08-.06v-.34s-.03-.05-.07-.05h-2.56l.07.05V.15c0-.08-.15-.06-.15,0Z"/><path class="cls-1" d="M21.12,6.3H1.48c-.55,0-.99.48-.94,1.03l.23,2.57c.04.43.4.76.83.76h16.22c.18,0,.31.15.3.33l-.23,2.18c-.01.11-.08.2-.18.24l-5.1,2.24c-.2.09-.14.39.08.39h4.68c.17,0,.31.15.3.32l-.7,8.07c-.01.12-.1.23-.22.26l-5.39,1.47h-.16s-5.51-1.64-5.51-1.64c-.12-.04-.2-.14-.21-.27l-.25-3.83c-.01-.17.12-.32.3-.32h2.27c.16,0,.29.12.3.28l.1,1.9,3.13.86,2.87-.97c.12-.04.2-.14.2-.27l.14-2.69c0-.17-.13-.31-.3-.31l-8.82.05c-.15,0-.28-.11-.3-.27l-.24-2.38c-.01-.13.06-.25.18-.3l5.57-2.34c.15-.06.1-.28-.05-.28l-3.9-.03h0s-4.75.01-4.75.01c-.45,0-.8.39-.76.83l1.17,13.27c.03.39.31.72.69.83l8.04,2.22c.17.05.34.05.51,0l7.97-2.27c.37-.11.65-.43.68-.82l1.85-20.09c.05-.55-.38-1.03-.94-1.03Z"/><path class="cls-1" d="M21.2,6.92c-.09-.02-.06.09-.07.11.11-.01.08-.13.07-.11Z"/><polygon class="cls-1" points="21.42 10.25 21.39 10.17 21.43 10.81 21.42 10.25"/><path class="cls-1" d="M21.05,14.27c.21-.36.11-1.46.24-2.17l.05-.11-.11-.34c-.06.87-.07,2.02-.17,2.63Z"/><path class="cls-1" d="M20.47,16.39c.08-.13.02.47.07-.5-.01.04-.02.06-.03.09,0,.09-.02.21-.04.41Z"/><path class="cls-1" d="M20.51,15.98c.03-.42-.08.27,0,0h0Z"/><path class="cls-1" d="M20.37,17.94v-.56c-.06.11-.12.61-.13.42-.02.58.03.46.13.14Z"/><path class="cls-1" d="M20.45,18.48v-.29s-.03.13,0,.29Z"/><path class="cls-1" d="M20.45,17.57v.62c.03-.08.09-.08,0-.28.05.06,0-.07,0-.34Z"/><path class="cls-1" d="M20.51,17.23c.07-.31.13-.71.14-.15.07-1.07-.07-.93-.14.15Z"/><path class="cls-1" d="M21.22,14.5l.09-.41-.03-.37c.01.18-.12.8-.06.78Z"/><path class="cls-1" d="M19.96,21.41s.12-.18.17-.22v-.42c-.05.21-.11.61-.17.63Z"/><path class="cls-1" d="M20.13,21.2v.62c.07-.55.04-.65,0-.62Z"/><polygon class="cls-1" points="20.64 18.6 20.6 17.57 20.62 18.8 20.64 18.6"/><polygon class="cls-1" points="19.73 23.77 19.68 23.41 19.75 24.05 19.73 23.77"/><path class="cls-1" d="M19.61,25.34c-.05-.27-.16.34-.17.07-.03.43,0,.79.03,1.13,0-.35.04-.72.15-1.19Z"/><path class="cls-1" d="M19.49,27.08c0-.17-.02-.36-.03-.56,0,.19,0,.37.03.56Z"/><path class="cls-1" d="M20.02,22.87s-.1.13-.15.48l.13-.23c0-.07.02-.16.02-.24Z"/><path class="cls-1" d="M20,23.1h0c-.03.27-.05.45-.05.53,0-.07.02-.23.06-.53Z"/><path class="cls-1" d="M20.02,22.81s0,.04,0,.06c.01-.02.02-.04,0-.06Z"/><path class="cls-1" d="M20.39,20.21c.03.37.02,1.13.18.41-.05-.27-.14.15-.18-.41Z"/><path class="cls-1" d="M20.19,22.52l.08-.65s-.08.12-.09-.06v.71Z"/><polygon class="cls-1" points="20.19 22.84 20.19 22.52 20.15 22.76 20.19 22.84"/><path class="cls-1" d="M19.69,25.97c.02.29,0,.6-.03.95.06-.37.1-.76.14-1.13-.03-.06-.07-.22-.11.18Z"/><path class="cls-1" d="M19.85,24.58v.06s.02-.07,0-.06Z"/><polygon class="cls-1" points="17.56 28.19 17.62 28.19 17.63 28.17 17.56 28.19"/><path class="cls-1" d="M19.83,25.73c.05-.28.04-.45.02-.61-.01.21-.03.44-.04.68.01.02.02.03.03-.06Z"/><path class="cls-1" d="M19.43,27.51s.09-.04.13-.09c-.05.04-.14.07-.13.09Z"/><path class="cls-1" d="M19.81,24.73v-.04c-.03.09-.02.08,0,.04Z"/><path class="cls-1" d="M19.81,24.73c0,.15.02.26.03.38,0-.17.01-.33,0-.47-.01.03-.03.07-.04.09Z"/><path class="cls-1" d="M16.74,29.13c.02-.11.71-.4,1.36-.48.59-.24.1-.44-.48-.47,0,.05,0,.09-.61.32.23-.01,1.42-.27.92-.04-.82.29-.69.16-1.11.22.38.02-1.01.47-.78.6l.71-.27s-.23.14-.02.11Z"/><path class="cls-1" d="M18.82,27.86l.25-.09c-.3.07-.52.09-.93.12-.42.17-.49.23-.51.27l1.27-.35-.08.04Z"/><path class="cls-1" d="M19.62,27.46c.11.13-.18.42.08.35.19-.2.16-.32.15-.38-.02-.05-.05-.13-.05-.36-.02.35-.03.38-.05.4-.01.02-.01-.01-.02-.05,0-.03-.02-.09-.03-.1-.02,0-.03.07-.07.14.01-.2.02-.37.03-.54-.03.21-.07.5-.1.5h0s0,0,0,0h0s.03-.02.01,0h0s.02.03.03.04c-.08.12-.03,0-.03-.03h-.01s0,0,0,0c-.01.11-.09.22-.21.27l-.29.1c.08-.02.17-.04.29-.07.08-.02.2-.09.25-.24Z"/><path class="cls-1" d="M20.74,21.31s-.02.04-.03.04c0,.08.01.11.03-.04Z"/><path class="cls-1" d="M20.63,21.83c0-.09-.04-.17,0-.47.06-.26.05,0,.09,0-.01-.18-.02-.64-.12-.08v.09c-.08.51-.27,1.15-.28,1.06.11-.14.19-.26.32-.59Z"/><path class="cls-1" d="M20.15,24.76l-.04,1.06.14-.53-.06.02c.08-.6,0-.47-.04-.55Z"/><polygon class="cls-1" points="17.43 28.17 17.54 28.02 16.99 28.34 17.43 28.17"/><polygon class="cls-1" points="16.11 28.56 16.14 28.45 15.8 28.61 16.11 28.56"/><path class="cls-1" d="M7.61,24.47l.31.06c-.14-.03-.24-.05-.31-.06Z"/><path class="cls-1" d="M6.04,23.9h-.05s.05.03.05,0Z"/><path class="cls-1" d="M6.17,13.99c.16.04.34.07.49.11l.55.12.18-.85h0s-.74.72-.74.72c.25.06.44.09.4.02l-.14-.11c-.1,0-.18,0-.26,0l.65-.65h0s0,.66,0,.66h-.65c-.19,0-.35,0-.49-.02Z"/><path class="cls-1" d="M14.47,18.99s-.05-.08-.08-.11c-.13-.03-.26.03-.37.06.13-.02.33-.08.45.05Z"/><path class="cls-1" d="M14.96,19.06c0,.11,0,.24,0,.36l-.07.5c.02-.12.05-.28.07-.5.01-.1.02-.23,0-.36Z"/><path class="cls-1" d="M16.45,22.1l-.08-.37c-.05.57.03.32.08.37Z"/><path class="cls-1" d="M3.07,27.68c-.08-.1-.09-.2-.1-.28,0-.05,0-.09,0-.13v.13c-.06.14.02.32.1.27Z"/><path class="cls-1" d="M6.44,25.32c.19.04.27.04.27.01-.19-.04-.31-.05-.27-.01Z"/><path class="cls-1" d="M2.87,26.15c0,.07,0,.14,0,.21.04.28.08.57.11.92.02-.35,0-.75-.1-1.12Z"/><path class="cls-1" d="M4.36,5.68h.1s-.04,0-.1,0Z"/><path class="cls-1" d="M17.35,6.77c-.13,0-.34,0-.53,0,.1,0,.26,0,.53,0Z"/><path class="cls-1" d="M11.14,29.84s.07.02.09.02c.02,0,.01,0,0,0-.03,0-.08-.02-.09-.02Z"/><path class="cls-1" d="M12.26,30.05c-.06.03-.1.06-.1.08.02-.03.05-.06.1-.08Z"/><path class="cls-1" d="M1.94,23.31v-.03c-.02.09-.01.07,0,.03Z"/><path class="cls-1" d="M11.33,29.92s-.07-.02-.11-.04c0,0-.02,0-.03,0,0,0,0,0,.03,0,.01.01.04.03.11.04Z"/><path class="cls-1" d="M11.31,29.87s.05,0,.08,0c.02-.01.01-.02-.02-.01-.01,0-.03,0-.07.02Z"/><path class="cls-1" d="M10.74,29.73c.16.04.31.09.45.14-.05-.02-.07-.03-.06-.03-.08-.02-.2-.05-.39-.1Z"/><path class="cls-1" d="M17.18,10.98s-.03,0-.04-.01c-.09.02-.17.03-.13.03.03,0,.1,0,.17-.02Z"/><path class="cls-1" d="M8.24,15.21l.03-.02s-.03,0-.04.01h.01Z"/><path class="cls-1" d="M7.31,15.69c.36-.3.6-.38.92-.48l-.44-.15-.48.64Z"/><path class="cls-1" d="M12.46,25.2l-.74.1c.81-.39,1.45-.5.75-.45,0,.09-.17.18-.41.27-.12.05-.27.09-.42.14-.12.04-.25.08-.38.11h.05c-.13-.03-.25-.07-.37-.1-.15-.04-.29-.07-.42-.1-.25-.05-.43-.05-.47.02l-.44-.21c.13.04.16.03.29.07-.86-.42-.74.04-1.89-.36-.4-.15-.67-.28-.38-.23l-.93-.19c-.26-.08-.18-.12.08-.04l-.58-.16c-.1,0-.22-.06-.2-.18h.01s-.06-.06-.11-.23c-.04-.17-.08-.34-.11-.45.02-.37.05.18.08.08l-.13-.79c.07-.33.2.32.22.87.29-.76-.13-.65-.04-2.27l.09.75c.05-.16.08-.34.09-.53,0-.09,0-.18,0-.28l.02-.04s.03-.04.08,0c-.03-.04-.12-.08-.18-.03-.08.04-.16.17-.22-.04v-.03s.01-.1,0-.16c0-.07.06-.14.14-.16.04.06.1.08.17.09.05,0,.05,0,.15,0,.12,0,.26,0,.4,0l-.04.16c.3-.02.48-.05.53-.09.04-.04.07-.07.16-.11.15-.02.19.11.13.19-.04.08-.1.12-.15.16,0,.02,0,.04,0,.05,0,0,.01.06.02.05,0,0,.02-.03.03-.05.01,0,.03-.02.04-.03.03-.03.06-.06.08-.06.01,0,.02.01.03.04,0,.02,0,.02.02.06,0,.06.01.13.02.21-.01.28.02.97.06,1.47.36.08.73.17,1.14.27.26.05.54.1.86.16.6.22-.13.06.08.17l.58.03c.13.04.08.07.05.08.24.04.26,0,.31-.02.03-.01.06-.02.14-.02.07,0,.18.02.44.08.03-.01.06-.01.12,0,.1-.05.32-.12.48-.15.17-.03.38-.08.6-.12.44-.09.93-.22,1.3-.44.23-.03-.07.13.01.16.18-.09.54-.23.53-.24.28-.11.44-.25.51-.43.07-.17.07-.32.07-.48,0-.37-.04-.52-.08-.96l.15-.89c-.11.47-.2.18-.26-.4-.05-.18,0-.39-.15-.54.06.11.01.25-.01.35-.03.1-.05.19-.07.25-.02-.16.04-.34-.1-.46-.14-.12-.33-.03-.49-.03-.1-.03,0-.08.22-.15-.08.01-.15.03-.22.04-.37-.06-.2-.15.19-.24.15.05.28.05.39.14.17.03.27.17.32.24.05.08.11.12.15.06-.03-.08-.03-.25-.19-.4.08.05.12.1.12.05,0-.05-.14-.19-.39-.2-.06-.07-.14-.15-.25-.22l-.12.07-.93-.05-.77-.05c-1.1.19-2.05.46-3.79.54.43-.13.09-.21.11-.37.48.16,1.35-.08,2.25-.05-.47-.01-.37-.09-.25-.12l-1.61.16c.04-.13-.34-.09-.76-.14.32.25-1.2.17-1.85.25-.04-.08.12-.17.91-.16-.37-.08-.64-.04-.88.03-.24.06-.49.15-.68.15-.08,0-.16,0-.23-.03.12,0,.19,0,.25-.02h.02s0,0-.01,0c-.08,0-.19.05-.3.01-.12-.04-.12-.18-.12-.28,0-.21.01-.33.06-.26v.11c0-.21-.09-1.18-.14-1.57,0-.08-.04-.17,0-.24.03-.08.12-.1.18-.14.19-.1.38-.19.54-.27.38-.2.65-.36.68-.45.02.02-.06.3-.11.37l1.85-1.55c-.12.25.77.35-.18.86.29-.1.66-.21,1.23-.53-.2.06-.59-.04-.33-.17.81-.12.55-.11,1.51-.33-.15.04-.18-.04-.1-.15.02-.03.04-.06.07-.09l.05-.05s.09-.06.12-.11c.17-.2.03-.57-.26-.57.08-.02.08-.08.09-.15,0-.04.14-.19.43.11-.11-.19-.45-.27-.53-.24l-.16.03-.31.07-.62.14c.31-.05.06-.24-.22-.32.13.06-1.07-.01-1.4.01l.53.07c-.9-.04-1.22.13-1.7.25l-.2.05.03.12h0s.17-.16.17-.16c-.26.07-.58.12-1.06.11.17-.06.42-.36-.29-.39-.32.14-1.43.69-2.66.8l-.24-.08c-.36.04-.51.03-.68.17.04-.1.15-.22.35-.28.23-.08.54-.16.83-.24.6-.16,1.23-.32,1.68-.41-.52-.07-.15-.1-.93-.09-.28-.08.43-.12.66-.12l-1.83-.05s-.06.07-.18.1c-.07.01-.12.02-.24.04-.13.01-.27.02-.4.05-.56.13-.84.64-.74.62.24-.42.76-.61,1.23-.59l.99-.09c.04.08-.25.2-.71.3-.12.02-.23.05-.39.07-.17.02-.34.04-.5.11-.32.14-.57.48-.59.86-.03.18-.11.12-.18-.03-.07-.15-.07-.37-.1-.36,0,.06-.04.21-.03.39,0,.19.05.42.07.54.04.3.07.59.06.65l-.14-.54c0,.72.33,1.15.24,2.03.02.3-.14.91-.03.95.15-.5.73-.65.9-.34,0,.11-.04,1.58-.11,1.93-.11.5-.42-.7-.51-.28.05.01.13.28.16.39-.01.32-.15-.12-.07.56.18.1.11,1.38.17.31.11.66.03.71.1,1.49.09-.26.44.67.54,1.33-.05-.04-.09.12-.11.19.11,1.36.09,2.1.2,3.37-.03.12-.03.74-.12.48.03.09.05.2.09.32.03.13.07.29.18.47.22.41.03.23-.12-.05-.14-.27-.16-.65-.2-.24.05.02.16.37.49.62.16.12.39.21.57.24.17.03.33.06.47.09-.06-.1-.31-.16-.66-.27-.36-.13-.66-.52-.71-.87-.01-.06-.02-.1-.03-.15.05,0,.1.04.15.14.09.15.24.41.54.55.26.11.78.12,1.28.24,1.04.23.41.25.59.27,1.91.57,1.73.1,3.28.68.6.3-.04.27.07.4-.85-.18-1.25-.44-1.82-.59l.68.25c-.28-.03-.84-.15-1.13-.27.5.26,3.23.92,4.68,1.43.27.03.74.11.54,0l-.47-.11c-.4-.22.92.1.34-.11.09.01.19.03.28.04.11.01.21,0,.31-.04.14-.05.28-.11.43-.16.31-.11.66-.22,1.04-.3l.21.1s-.6.08-.84.19c.35-.17,1.41-.19,1.76-.49l-.65.07c.61-.25,1.34-.63,2.14-.81-.4-.04-.18.07-.78.06.54.07-2,.56-1.17.56-.63-.04-1.01.2-1.8.24.04.04.29.02-.37.18-.02.02-.03.04-.05.06,0,0,0,0-.02,0h.01s-.01.02,0,0c.02.02.24-.02.27,0-.18.1-.29.19-.46.16-.39-.08-.82-.19-1.03-.21-.38-.13.18-.01-.02-.12l-.55-.06c-.02-.12-.99-.47-.05-.28l-.83-.23c-.47-.2-1.13-.4-1.56-.47-.38-.13-1.02-.15-.66-.14l-1.32-.29v-.03c-.49-.14-1-.25-1.52-.37l-.39-.09c-.13-.03-.14-.03-.2-.07-.1-.06-.17-.18-.17-.3-.02-.34-.03-.7,0-1.06-.07-.44-.14-.9-.18-1.65l.08-.15c-.08-.57-.06-1.73-.18-1.96.21-.64-.19-2.78-.23-3.79l-.13-.03c-.05-.69-.15-1.35-.28-2.21l-.11.06c-.08-.37-.1-.84-.12-1.38,0-.27-.02-.55-.03-.83,0-.18,0-.28.09-.38,0,.05-.06.15-.07.24.06-.14.17-.23.29-.26.02-.02.49-.03.84-.06.73-.05,1.43-.12,2.07-.03.32-.04.55-.03.77,0-.03,0-.06,0-.08,0,.03,0,.08,0,.13,0,.14.02.29.04.44.06-.13-.03-.26-.05-.37-.06.22,0,.54-.01.86-.04l.56-.04-.03-.49h0s-.53.51-.53.51h.11s.15.11.15.11c.03,0,.05,0,.08,0,.36.05.29-.05.1-.15.18-.02.35-.04.48-.07.29.2.96-.06,1.35.15.12-.05.58-.06,1.03-.09.11,0,.22-.02.33-.03l.16-.02h.07s.02-.01.02-.01h0s0,0,0,0h0c0-.1,0,.22,0-.22h0s0,0,0,0v-.02s-.03.01,0,0c0,0,0,0,0,0h0s0-.02,0-.02l-.04-.1h0s-.04,0-.05,0c0,0,0,0,.02-.02,0,0,0,0,.01,0h0s.04.08.06.13c0,.01.02.02.02.02h0s0-.02,0-.02h0s-.06-.14-.06-.14h0s-.07.03-.07.03l-.14.05c-.1.04-.19.07-.28.11-.18.08-.36.16-.51.26l-.22-.07-.74.53c-.53.12-.76.16-.31-.16-1.12.67-.94.47-1.88,1.06v-.11c-.17.08-.39.21-.6.32-.2.11-.4.21-.59.24-.13.03-.3.08-.46.21-.17.14-.21.38-.19.66.03.41.07.89.12,1.41.03.18.03.67.13.97.04.16.15.32.31.4.16.07.33.09.52.1.53,0,1.06,0,1.58.01.47.01.93.03,1.35.06-.44-.29,1.05.12,1.14-.1.13.07.45.11.08.17,1.15-.07,1.73.1,2.52-.1.13.07-.25.1-.13.14.09-.02.37-.06.49-.02.12.04-.17.06-.35.09,1.18-.02,1.3-.23,1.34-.43.2.05.32.05.45.08.14.05.15.17.21.29l-.04.09c-.05.12-.09.19-.11.03,0-.03,0-.09,0-.16,0,.04,0,.09-.02.17-.02.11-.07.79-.09,1.23,0,.22-.02.5,0,.57,0,.09.03.17.06.19-.02.03-.02.12-.09.17-.07.05-.15.07-.18.1,0,0-.01,0-.02,0-.41.13-.63.2-.85.27-.24.08-.47.16-.9.31l.25-.06c-.11.12-.25.19-.42.25-.17.06-.38.11-.54.15-.09-.03-.15-.05-.29-.08h.03c-.79-.3-.97-.33-1.14-.37-.09-.02-.17-.03-.34-.08-.08-.03-.18-.06-.31-.1-.11-.04-.33-.11-.42-.16,0,.04,0,.08.01.13-.07.08-.29.02-.51-.07.01-.25.05-.44.06-.76,0-.17.01-.29,0-.5,0-.21-.01-.42-.06-.58,0,.15,0,.31-.02.45-.03-.15-.03-.35-.05-.55-.02-.22-.21-.4-.41-.46-.2-.09-.47-.13-.72-.17-.17-.04-.33-.08-.46-.09-.11-.02.18-.04.34-.05-.69-.08-.73-.04-.73.03,0,.06.1.15-.66.17-.15-.03-.09-.09-.11-.14,0-.02-.18-.13-.6.11-.07.04-.19.15-.26.31-.06.15-.11.36-.08.65.08.67.14.95.2,1.37.05.4.08.79.05,1.11.05-.21.1-.42.18.05.02.26.02.47.01.89,0,.23,0,.47.1.66.11.21.31.31.53.38.12.04.23.07.35.11l.22.06c.14.03.28.05.4.05.08.04.11.07.11.09.55.11,1.76.43,2.12.42.25.33,1.33.53,2.3.76.09,0,.18,0,.26,0,.6-.19.91-.27.97-.14l1.65-.47-.03.05c1.07-.26,1.42-.45,1.76-.64.25-.04.08.04.07.07.2-.04.38-.08.54-.12.17-.04.43-.09.59-.16.17-.06.31-.17.38-.31.07-.14.09-.28.1-.44.02-.33.02-.5,0-.73-.01-.22-.02-.48-.04-.82l.14-.13c-.04-.37.39-2.29.39-3.87.01.02.03.05.04.18,0-.44.05-.93.11-1.41l.11-.9c.04-.39.04-.7-.2-.96-.24-.22-.53-.27-.88-.27-.16,0-.31,0-.46,0h-.12c-.16.03-.32.08-.54.2l-.95.11c.5.02.41.07.18.12-.22.05-.61.11-.38.15-.32.01-.63-.02-.72-.06-.1-.04,0-.09.34-.1l.04.02c.38-.12.09-.14-.22-.15-.15-.02-.33.02-.4-.05-.05-.11.11-.22.26-.23.31-.18.69-.31,1.04-.46.83-.34,1.65-.67,2.45-1,.19-.08.4-.16.54-.29.16-.14.21-.34.24-.55l.12-.93.12-1.03c.02-.21,0-.39-.06-.56-.06-.17-.21-.33-.38-.39.09.1.17.24.18.4-.1-.2-.3-.27-.49-.29-.19-.04-.43-.03-.65-.03-.19-.02-.25-.06-.22-.09,0-.03.26-.06.77-.04-.68-.12-1.39.08-1.42.12-1.36-.07.53-.21.11-.22h-.56s.13.04.13.04c-.46.07-.5.15-1.33.14-.53-.04-.27-.11-.48-.12,0-.01-.07-.02-.32,0l-1.22-.02.49.14c-.54.07-1.15,0-.59.16-.83-.25-4.56-.09-5.07-.17-.76.11-1.51.1-2.44.09.23.03.37.19-.43.17.29-.33-1.47-.15-2.11-.39.29.08-.28.09-.81.11-.3.06-.56-.22-.39.08-.19-.15-.14-.2-.11-.21.04-.02.07-.04.05-.17-.03-.04-.04-.09-.05-.15-.1-.7-.15-1.57-.2-2.43-.02-.26.14-.45.34-.51.06-.01.09-.02.17-.01h.34s.69,0,.69,0c.03-.04-.3-.11.12-.18l1.04.22c.39-.02.36-.25,1.07-.1-.1-.04-.25-.09.01-.11,3.85.21,7.87-.18,11.79.23-.53-.09-.18-.09.23-.1-.26-.02,0-.11-.05-.17l1.64.17c.3-.17,1.76-.01,1.93-.17l-.52.03c.69-.19-.97-.41-.86-.65-.77.21-2.04-.31-3.3-.01-.28-.05.24-.08.09-.13-.32.1-.71.12-1.43.08l.08-.03c-2.02.03-2.89-.08-5.15-.14l.17.12c-.49-.02-.59-.05-.82-.08-.56.18,1.37.01.86.21-.65-.24-3.44,0-3.88-.28-.75,0,.22.14-.53.14l-.2-.07-.19.1c-.49-.02-.74-.11-.76-.17.12,0,.34-.02.47-.02-.64-.09-1.8.03-2.02,0l.72.05c-.44,0-.9.02-1.37.03h-.18c-.09,0-.18,0-.27.02-.18.03-.36.1-.52.19-.32.19-.57.51-.66.88-.05.18-.06.38-.04.56l.03.36.07.72c.05.48.11.96.16,1.42.04.45.32.83.68,1.01-.05-.05-.1-.11-.14-.17.41.33.89.25,1.06.26.21,0,.37,0,.53.02.32.02.66.05,1.49.03h-.06c.33-.04.78-.07,1.23-.06-.42.07.79.13.24.2,1.64-.11.81-.09,1.89-.29l.25.09c.37-.08.4-.13,1.23-.15-.68.08.53.14-.23.25,1.74.2,2.58-.2,3.38.09.8-.26-1.5-.14-1.06-.2-.37-.08.66-.19,1.2-.17.56,0,.94.33,2.34.32-.14,0-.15.02-.29.02.52.07,1.02-.09,1.66.02.36-.16.83,0,.94-.19l-1.28.05c.36-.03.71-.1,1.13-.15.2-.03.43-.05.66-.05.2,0,.43-.02.63.04-.11,0-.4.08-.56.11.11.03.21.02.33.01.12-.03.26.05.23.19-.05.02-.09-.03-.18-.07-.1-.03-.21,0-.34,0-.19,0-.4,0-.61.01-.25,0-.48.03-.68.07.38.08,1.47-.14,1.08.07.17-.12.35-.16.51-.07.07.08.01.19.01.29,0,.05,0,.1,0,.15,0,.09.01.2.02.32l-.11-.07c0,.15.03.47,0,.74l-.1-.51c.01.19,0,.38-.02.57-.02.12-.03.15-.07.21-.05.04-.13.03-.18.05-.13.05-.33.13-.48.22.18-.08.31-.13.42-.18.11-.04.08-.02.12-.03.04,0,.06.01.07.03.03.04,0,.12.18.08-.14.12-.5.27-.7.34-.21.07-.36.09-.52.11-.17.03-.28.02-.6.13-.4.14-.99.38-1.81.76.46-.22,1.76-.69,1.12-.35-.61.24-1.48.58-2.01.74-.04.02-.08.04-.11.05-1.13.86.45-.16.08.23-.67.29-.28.38-.59.62l-.16.02s-.09.06-.12.12c-.03.06-.02.15,0,.22.04.14.1.19.17.19.18,0,.26,0,.34,0,.16-.01.29-.03,1.04.03-.27.01-.55.02-.83.02l.9.05-.29.05c1.04.04,1.29.06,2.22.18-.19-.09.18-.17.96-.13.27.05.15.07.17.09,0,.02.03.02.28.02-.08.04-.15.08-.21.1-.04,0-.04.02-.12,0-.1-.01-.22-.04-.34-.08-.05.03-.27.05-.33.08.26.06.83.13.79.11.08,0,.2-.04.22.03,0-.05-.06-.07-.08-.09.12-.04.2.05.2.14l.03.15v.09s.02.18.02.18c-.06.22-.09.04-.11-.14-.01.3.03.5,0,.94-.09-.12-.19-.1-.18-.72v1.39c-.06.09-.19.7-.21.52-.12.76.03,1.9-.14,2.91.01.05.02.16.02.38-.07.49-.13.96-.19,1.45,0,.05,0,.12-.07.14-.05.02-.06.04-.35.15h-.67c-.85.27.9-.02-.51.44-1,.33-.42-.04-.79,0-.48.22-1.31.64-2.28.75.3-.12.55-.16.83-.25ZM5.8,20.97s.14.48.07.64c-.08-.12-.1-.22-.11-.35,0-.06,0-.14,0-.19,0-.03.02-.07.02-.11ZM12.87,18.65c.16-.04.39-.02.69.02-.22.01-.43,0-.69-.02ZM8.03,29.08h-.02c-.45-.17-.29-.11.02,0ZM8.97,29.39c.1.01.1,0,.06-.04-.07.01-.29-.05-.53-.12.06.05.18.1.47.16ZM14.12,10.17l.19.03c-.43.03-.31,0-.19-.03Z"/><path class="cls-1" d="M14.9,19.04c0,.09-.03.12-.05.15.03.1.06.09.05-.15Z"/><path class="cls-1" d="M16.47,22.16v-.03s0-.03-.01-.04v.07Z"/><path class="cls-1" d="M1.12,19.44c0-.2.01-.32.03-.4-.03,0-.05.09-.03.4Z"/><path class="cls-1" d="M13.67,29.15l-.6.2c.29-.09.4-.09.56-.12-.02-.02-.15-.03.04-.09Z"/><path class="cls-1" d="M19.15,28.36c.08-.04.19-.06.27-.09l-.04-.05c-.38.11-.63.23-.23.14Z"/><path class="cls-1" d="M14.34,29.38c.08.08.45-.06.87-.2l-.08.02c.09-.17-.35,0-.79.18Z"/><path class="cls-1" d="M15.31,29.15c.13-.04.26-.08.39-.11.03-.07-.16.03-.39.11Z"/><path class="cls-1" d="M10.19,29.66c.2.08.16-.09.26-.02.26-.06-1.39-.22-.26.02Z"/><polygon class="cls-1" points="14.78 29.6 14.59 29.52 14.38 29.69 14.78 29.6"/><path class="cls-1" d="M11.4,30.45c.21-.02.45-.1.68-.15-.02-.02.07-.05.17-.09-.43.12-.88.22-.85.24Z"/><path class="cls-1" d="M12.25,30.22c.22-.06.43-.12.54-.18-.12.03-.37.11-.54.18Z"/><polygon class="cls-1" points="13.86 29.9 13.65 29.93 13.17 30.06 13.86 29.9"/><path class="cls-1" d="M4.11,28.48l-.75-.17c-.09.02.11.1.39.16.19.02.47.08.36,0Z"/><path class="cls-1" d="M6.26,29.43c-.19-.08-.2-.11-.3-.18l-.06.14.37.04Z"/><path class="cls-1" d="M4.08,28.87c-.09.02-1.11-.18-.17.07.09-.02.84.15.17-.07Z"/><polygon class="cls-1" points="1.44 18.21 1.46 18.4 1.71 18.35 1.44 18.21"/><path class="cls-1" d="M6.87,12.68c-.08,0-.15,0-.2-.01l-.67-.04-.02.72h0s.69-.67.69-.67c-.59-.01-.08.16-.83.09-.21.06.68.06.46.11.15-.01.28-.03.38-.04l-.52.52h0s-.04-.49-.04-.49l.56-.04c.28-.02.38-.03.2-.16Z"/><path class="cls-1" d="M6.29,12.88c-.09.01-.18.02-.28.04.16-.02.24-.03.28-.04Z"/><polygon class="cls-1" points="19.5 6.91 20.09 6.96 19.71 6.88 19.5 6.91"/><path class="cls-1" d="M20.63,6.72l.14.16.35-.15c-.13,0-.39.02-.49-.02Z"/><path class="cls-1" d="M6.22,20.97s.03-.03.04-.04c-.08-.04-.06-.05-.12-.05.04.03.07.06.09.09Z"/><polygon class="cls-1" points="8.37 24.53 8.24 24.49 8.44 24.7 8.37 24.53"/><path class="cls-1" d="M14.35,24.36c-.26.08-.57.17-.83.25.57-.18.95-.09.83-.25Z"/></g></svg>