<?xml version="1.0" encoding="UTF-8"?><svg id="Calque_2" xmlns="http://www.w3.org/2000/svg" viewBox="0 0 160 160"><defs><style>.cls-1{fill:none;}.cls-1,.cls-2{stroke-width:0px;}.cls-2{fill:#f2e2c4;}</style></defs><g id="team"><rect class="cls-1" width="160" height="160"/></g><g id="energie"><path class="cls-2" d="M16.52,76.06c6.7-5.62,14.33-9.95,22.62-12.73,3.33-1.12,6.72-2.04,10.01-3.24,3.46-1.27,6.83-2.78,10.09-4.5,4.79-2.51,9.31-5.49,13.59-8.78,1.54-1.18-1.23-3.67-2.59-2.62-6.82,5.24-14.27,9.67-22.33,12.71-3.24,1.22-6.57,2.14-9.85,3.22-4.27,1.39-8.42,3.12-12.37,5.28-4.18,2.28-8.12,4.99-11.77,8.05-1.49,1.25,1.28,3.72,2.59,2.62h0Z"/><path class="cls-2" d="M71.57,53.18c7.39-5.83,15.94-10.11,25.14-12.19,4.37-.99,8.85-1.77,13.32-2.12,2.76-.22,5.62-.3,8.33.38-.39-.1.26.08.38.12.18.06.36.12.53.18.3.11.6.25.89.39.25.11-.16-.08-.17-.09.18.1.36.19.54.29.62.35,1.22.74,1.8,1.17.89.66,1.69,1.41,2.44,2.22,1.21,1.31,4.62-.04,3.14-1.64-2.01-2.18-4.52-4.15-7.38-5.09-2.67-.87-5.53-1-8.32-.92-4.86.14-9.71,1.01-14.47,1.95-5.11,1.01-10.07,2.58-14.81,4.76-5.04,2.32-9.78,5.29-14.14,8.73-.71.56-.56,1.52.12,2.02.77.56,1.93.4,2.65-.16h0Z"/><path class="cls-2" d="M129.33,45.28c2.04,4.25,2.93,8.99,1.81,13.64-.98,4.08-3.37,7.54-6.23,10.54-5.11,5.36-10.15,10.67-14.76,16.49-3.76,4.75-7.31,9.67-10.72,14.68-.68,1.01,1.29,4.11,2.02,3.04,5.67-8.36,11.77-16.46,18.55-23.96,5.18-5.72,11.74-10.73,13.46-18.67,1.22-5.64-.08-11.42-2.54-16.54-.22-.47-.95-1.62-1.63-1.29s-.18,1.64.02,2.08h0Z"/><path class="cls-2" d="M108.68,84.69c4.66-5.3,8.85-11.06,12.22-17.27,2.3-4.23,4.3-8.81,4.82-13.65.25-2.37.57-5.16-.45-7.38-1.15-2.48-3.68-3.92-6.27-4.4-5.51-1.03-11.49,1.16-16.66,2.82-7.09,2.28-13.73,5.56-19.86,9.8-1.36.94,1.42,3.4,2.58,2.6,5.27-3.65,10.96-6.67,17-8.84,4.76-1.71,9.86-3.42,14.93-3.75,1.56-.1,4.26-.21,5.17,1.31,1.01,1.68.5,4.39.3,6.26-.48,4.41-2.21,8.58-4.28,12.47-3.41,6.41-7.73,12.36-12.52,17.81-.95,1.09,2.02,3.36,3.03,2.22h0Z"/><path class="cls-2" d="M69.45,56.49c-11.46,5.26-22.57,11.25-33.27,17.92-.78.48,1.37,1.22,1.57,1.27.94.24,2.25.45,3.13-.09,10.52-6.56,21.44-12.44,32.71-17.61.97-.44-.21-1.07-.71-1.25-.92-.34-2.47-.68-3.43-.24h0Z"/><path class="cls-2" d="M60.36,78.53c-6.75,3.08-13.51,6.19-20.07,9.67-1.7.9-3.4,1.83-5.02,2.88-.85.55-1.85,1.17-2.42,2.04-1.06,1.62.56,3.86,2.08,4.49s3.62.1,5.21-.19c2.45-.44,4.88-.99,7.33-1.39,1.12-.18,2.25-.35,3.38-.41.23-.01.58-.02.96.02.19.02.38.05.56.08.25.04-.26-.18.09.04-.91-.56-1.54-1.62-1.57-2.34.01.25-.11.17.03-.04-.07.11-.1.25-.17.36-.42.7-.56.85-1.19,1.48-1.51,1.52-3.25,2.83-4.97,4.1-3.77,2.78-7.73,5.29-11.56,7.98-.84.59-2.17,1.3-2.66,2.27-.97,1.93,1.67,4.36,3.56,3.9,1.19-.29,2.34-.88,3.45-1.38,1.92-.86,3.81-1.76,5.71-2.67,4.45-2.14,8.86-4.35,13.3-6.51,3.08-1.5,6.01-3.19,9.25-4.18.14-.04.33-.06.46-.12.03-.02.16,0,.19-.03,0,0-.39,0-.34.01-1.04-.26-1.88-.75-2.38-2.32l-.14-1.03.1-.34s-.03.06-.05.09c-.11-.12.33-.27.06-.09-.18.12-.33.31-.49.44-.51.43-1.05.82-1.58,1.22-1.36,1-2.73,1.97-4.07,2.99-1.16.88-2.36,1.77-3.33,2.86-1.33,1.49-1.2,3.2.31,4.65,1.25,1.2,2.73,1.08,4.29.73,1.67-.37,3.29-.92,4.97-1.27.64-.14,1.44-.15,1.78-.22.37-.08-.33.15-.12-.04-1.28,1.15-1.72-2.02-1.79-2.7.04.38.14-.17-.03.11-.57.92-.83,1.24-1.62,2.04-4.56,4.6-10.02,8.25-14.97,12.39-1.78,1.49-4.04,3.07-2.14,5.55,2.15,2.8,5.9.39,8.29-.82,11.22-5.67,20.54-14.88,26.65-25.83.91-1.63-2.5-5.24-3.55-3.35-6.19,11.1-16.02,20.76-27.72,25.97-.77.34-1.56.67-2.38.9-.24.07-.48.11-.73.17-.37.1.09-.05.09.02,0,0-.09,0-.09,0,.03.02,2.61,3.29,2.4,3.38-.38.17.1.18,0,.05,0,0,.1-.15.11-.16.05-.02-.24.27-.04.05.08-.09.16-.17.24-.26.42-.42.86-.82,1.32-1.21,2.86-2.47,5.9-4.72,8.84-7.09,2.79-2.24,5.8-4.49,8.05-7.3.8-.99,1.32-2.03.89-3.33-.76-2.33-2.86-3.12-5.08-2.77-2.01.32-3.94,1.04-5.93,1.46-.37.08-.74.16-1.12.19-.22.02-.01-.09-.15,0-.1.07-.2-.17.02.03.42.38,1.93,2.08,2.01,2.68.07.5-.13.39.18,0,.02-.03-.06.06.11-.13.15-.17.31-.33.47-.48,2.64-2.55,5.95-4.27,8.67-6.7.41-.37.83-.76.91-1.34.18-1.34-1.04-2.91-2.24-3.38-.84-.33-1.65,0-2.43.3-2.86,1.1-5.61,2.49-8.36,3.82-6.73,3.25-13.52,6.87-20.27,9.76-.81.35-1.64.61-2.46.91-.25.09-.26-.07-.09.04,1,.67-.27-1.37,1.57,1.89l1,1.78s.01-.03.02-.05c-.02-.09.27-.04-.06.06-.18.06.03-.03.19-.16s.33-.28.51-.42c2.63-2.07,5.53-3.83,8.29-5.72,3.2-2.18,6.49-4.38,9.31-7.05.87-.82,1.88-1.78,2.31-2.93.72-1.94-.71-4.13-2.47-4.93-1.39-.63-3.03-.5-4.51-.35-2.04.21-4.05.61-6.06,1.01-1.84.36-3.69.77-5.55,1.01-.36.05-.71.09-1.07.11-.33.02.18.02-.12,0-.13,0-.26-.03-.39-.02-.2,0-.25-.15-.07,0,.12.1.39.15.53.25,0,0,1.52,2.34,1.51,2.3.05.21-.05.62-.05.62.02-.07.1-.19.15-.24-.35.3-.09.1.07-.05.3-.27.6-.52.92-.75,1.01-.74,2.1-1.38,3.18-2,4.17-2.39,8.51-4.48,12.85-6.54,3.31-1.58,6.64-3.12,9.98-4.65,1-.45,0-2.35-.39-2.86-.63-.82-1.63-1.57-2.67-1.1h0Z"/><path class="cls-2" d="M70.28,124.94c5.04-6.21,10.08-12.41,15.13-18.62.57-.71.19-1.71-.59-2.04-.91-.38-1.95,0-2.55.74-5.04,6.21-10.08,12.41-15.13,18.62-.57.71-.19,1.71.59,2.04.91.38,1.95,0,2.55-.74h0Z"/><path class="cls-2" d="M91.08,124.39c8.81-8.81,17.63-17.63,26.44-26.44,1.14-1.14-1.68-3.6-2.87-2.42-8.81,8.81-17.63,17.63-26.44,26.44-1.14,1.14,1.68,3.6,2.87,2.42h0Z"/><path class="cls-2" d="M49.72,32.19c1.43,2.92,3.42,5.45,5.88,7.57.39.34,1.05.7,1.57.68s0-.53-.15-.67c-2.06-1.78-3.85-4.13-5.08-6.63-.23-.46-.77-.77-1.23-.95-.23-.09-.49-.2-.74-.2-.09,0-.33.04-.25.2h0Z"/><path class="cls-2" d="M51.72,41.51c1.01-3.33,2.83-6.33,5.34-8.75.43-.41-.02-.94-.44-1.11-.55-.22-1.28-.15-1.71.27-2.6,2.51-4.55,5.68-5.59,9.13-.17.56.38.91.86,1,.44.08,1.38,0,1.54-.55h0Z"/><path class="cls-2" d="M47.85,38.14c3.83-.48,7.65-1.12,11.43-1.91,1.21-.25.03-2.44-1.06-2.21-3.78.79-7.59,1.43-11.43,1.91-.61.08-.52.95-.34,1.34.26.54.79.95,1.4.88h0Z"/><path class="cls-2" d="M108.68,124.67c-.49,2.55-1.29,5.02-2.41,7.36-.23.47.01.89.55.88.56,0,1.25-.42,1.5-.94,1.19-2.48,2.07-5.11,2.58-7.82.11-.56-.47-.73-.91-.61-.52.13-1.2.55-1.31,1.13h0Z"/><path class="cls-2" d="M105.55,127.73c2.99-.23,5.97-.46,8.96-.69.32-.02.93-.15.57-.57-.33-.39-1.17-.54-1.64-.51-2.99.23-5.97.46-8.96.69-.32.02-.93.15-.57.57.33.39,1.17.54,1.64.51h0Z"/><path class="cls-2" d="M104.43,124.92c1.82,1.58,3.64,3.17,5.46,4.75.42.37,1.19.4,1.71.25.35-.1.9-.43.47-.81-1.82-1.58-3.64-3.17-5.46-4.75-.42-.37-1.19-.4-1.71-.25-.35.1-.9.43-.47.81h0Z"/><path class="cls-2" d="M105.35,130.71l9.75-5.71c.47-.27.63-.93.19-1.3-.5-.41-1.23-.26-1.74.03l-9.75,5.71c-.47.27-.63.93-.19,1.3.5.41,1.23.26,1.74-.03h0Z"/><path class="cls-2" d="M31.47,125.67l.51,1.78c.08.28.31.56.53.75s.53.37.82.4c.21.02.49.02.63-.18s.14-.42.08-.65l-.51-1.78c-.08-.28-.31-.56-.53-.75s-.53-.37-.82-.4c-.21-.02-.49-.02-.63.18s-.14.42-.08.65h0Z"/><path class="cls-2" d="M23.24,54.37c.09.52.31.99.57,1.44.23.4.5.79.79,1.15.25.32.53.61.83.88.04.05.09.08.15.08.04.01.06,0,.05-.06-.01-.08-.04-.15-.08-.22-.05-.11-.1-.21-.17-.31-.29-.49-.64-.96-1.06-1.34-.06-.05-.03-.02.09.08-.01-.01-.02-.02-.04-.04-.02-.02-.04-.04-.05-.05-.1-.1.19.21.1.11-.01-.01-.02-.03-.03-.04-.07-.08-.02-.03.14.17-.02-.02-.03-.04-.05-.06.17.23.23.3.16.2v-.02c.15.24.2.31.13.21,0-.01-.02-.03-.03-.04,0,0,.2.32.11.17,0-.01-.01-.02-.02-.03-.04-.07,0-.01.09.17-.01-.03-.03-.05-.04-.08s-.03-.05-.04-.08c.06.14.08.18.06.12,0-.01-.01-.02-.02-.04-.05-.11-.09-.22-.12-.34l.04.13c-.02-.09-.05-.18-.06-.27-.03-.18-.15-.38-.24-.53-.16-.27-.35-.54-.55-.79-.15-.19-.31-.41-.51-.55-.04-.03-.22-.17-.2-.01h0Z"/><path class="cls-2" d="M49.17,58.05l1.07,1.25c.19.22.39.45.62.64.07.06.14.11.23.15.05.03.09.04.15.02l.03-.08c-.02-.12-.05-.22-.11-.32-.14-.26-.31-.51-.5-.73l-1.07-1.25c-.19-.22-.39-.45-.62-.64-.07-.06-.14-.11-.23-.15-.05-.03-.09-.04-.15-.02l-.03.08c.02.12.05.22.11.32.14.26.31.51.5.73h0Z"/><path class="cls-2" d="M88.2,34.08l1.61-.3c.11-.02-.09-.42-.08-.4-.13-.26-.31-.51-.5-.73s-.38-.46-.62-.64l-.17-.12c-.07-.06-.14-.07-.21-.05l-1.61.3c-.11.02.09.42.08.4.13.26.31.51.5.73s.38.46.62.64l.17.12c.07.06.14.07.21.05h0Z"/><path class="cls-2" d="M142.29,62.35l.36,1.42c.07.27.25.48.47.63.14.09.28.15.44.18.16.05.32.08.49.07.28-.02.6-.08.81-.28.17-.17.31-.41.24-.66l-.36-1.42c-.07-.27-.25-.48-.47-.63-.14-.09-.28-.15-.44-.18-.16-.05-.32-.08-.49-.07-.28.02-.6.08-.81.28-.17.17-.31.41-.24.66h0Z"/><path class="cls-2" d="M135.37,104.17l.71,1.6c.03.1.09.18.17.25.09.1.19.17.3.23.14.08.28.14.44.18.16.06.32.09.49.11h.3c.17,0,.33-.02.49-.09.14-.08.31-.23.23-.42l-.71-1.6c-.03-.1-.09-.18-.17-.25-.09-.1-.19-.17-.3-.23-.14-.08-.28-.14-.44-.18-.16-.06-.32-.09-.49-.11h-.3c-.17,0-.33.02-.49.09-.14.08-.31.23-.23.42h0Z"/><path class="cls-2" d="M72.16,81.34c2.26,2.15,4.03,4.81,5.14,7.73.74-.77,1.66-1.36,2.66-1.72-1.64-2.68-3.29-5.36-4.93-8.05-.13-.21-.3-.44-.54-.45-.19,0-.35.14-.49.28-.71.7-1.43,1.4-2.14,2.1"/><path class="cls-2" d="M71.74,81.33c2.03,1.95,3.57,4.42,4.58,7.04.16.41.61.75.95,1.01.14.11.82.67,1.01.47.76-.77,1.65-1.34,2.66-1.72.02-.08,0-.15-.05-.21-1.42-2.31-2.83-4.62-4.25-6.93-.33-.54-.63-1.14-1.06-1.62s-1.21-1.25-1.91-1.31c-.52-.04-.95.59-1.28.92-.5.49-1,.98-1.5,1.47-.22.21,1.61,1.9,1.95,1.57.45-.44.9-.89,1.35-1.33.31-.31.85-1.09,1.33-.99l-.55-.24c-.83-.85-1.08-1.04-.76-.56l.1.17.31.51.63,1.03c.42.68.84,1.37,1.26,2.05.84,1.37,1.68,2.74,2.52,4.11l-.05-.21c-1.01.37-1.9.95-2.66,1.72l1.96,1.48c-1.25-3.22-3.22-6.03-5.71-8.42-.22-.22-.5-.42-.77-.58-.07-.05-.42-.27-.55-.24-.32.1.41.74.47.8h0Z"/><path class="cls-2" d="M84.17,62.13c-4.38,0-8.84,0-12.94,1.59s-7.88,5.03-9.09,9.93c3.84-3.67,9.08-5.24,14.09-4.23"/><path class="cls-2" d="M84.6,61.36c-5.24,0-10.78.04-15.54,2.54-3.96,2.07-7,5.54-8.14,9.9-.28,1.08,1.89.38,2.2.08,3.35-3.13,7.85-4.6,12.39-3.73.56.11,1.31-.04,1.7-.49.32-.37.27-.86-.28-.97-5.74-1.1-11.54.75-15.78,4.72l2.2.08c.97-3.74,3.56-6.87,7.01-8.6,4.11-2.06,8.9-2,13.38-2,.51,0,1.34-.19,1.57-.72s-.21-.81-.7-.81h0Z"/><path class="cls-2" d="M100.24,80.3c.88,3.61,0,7.53-2.02,10.65-2.01,3.12-5.08,5.48-8.47,7,1.98-5.1,2.98-10.58,2.93-16.05"/><path class="cls-2" d="M98.99,80.4c1.74,7.58-3.55,14.29-10.15,17.31l2.12.26c1.98-5.17,2.99-10.64,2.97-16.17,0-.59-2.49-.48-2.49.2.02,5.45-.95,10.84-2.9,15.93-.28.73,1.85.39,2.12.26,6.85-3.14,12.65-10.03,10.83-18-.16-.69-2.62-.35-2.49.2h0Z"/><path class="cls-2" d="M112.93,53.92c-1.14-1.38-3.72-1.2-7.64-.28-10.85,2.56-18.27,7.63-18.88,8.05-4.87,3.4-11.07,7.73-11.39,12.7-.05.8-.2,5.48-.2,5.46l4.17,5.62c1.07.54,2.67,1.2,4.68,1.48,8.8,1.25,16.08-5.99,19.33-9.22,5.09-5.05,6.68-9.61,9.73-18.36.6-1.71,1.34-4.08.2-5.46ZM103.89,67.72c-.86,1.6-2.83,3.1-5.17,3.26-2.78.19-4.96-1.6-5.34-3.53s.56-3.94,1.5-5.86c.22-.46.48-.94,1.01-1.25.54-.31,1.45-.32,1.71.1l2.31-.65c3.83,1.34,5.62,4.9,3.99,7.93Z"/><path class="cls-2" d="M113.6,53.64c-1.28-1.4-3.03-1.77-4.86-1.65-2.61.17-5.25.93-7.74,1.68-4.32,1.3-8.51,3.07-12.44,5.3-2.53,1.43-4.91,3.12-7.21,4.89-3.26,2.5-7.13,5.77-7.38,10.19-.08,1.49-.11,2.99-.16,4.48-.03.88.13,1.32.65,2.03l2.72,3.67c.74,1,1.27,1.81,2.45,2.35,8.7,3.98,17.1-1.01,23.31-7.03,3.19-3.1,5.68-6.48,7.47-10.56,1.11-2.51,2.01-5.11,2.92-7.71.81-2.31,2.06-5.14.46-7.39-.29-.41-.9-1.01-1.47-.91-.53.09-.52.6-.24.99,1.09,1.53-.13,4.07-.68,5.63-.63,1.81-1.27,3.63-1.96,5.42-1.15,2.98-2.48,5.88-4.38,8.46-1.63,2.21-3.63,4.17-5.67,6-2.43,2.18-5.12,4.13-8.16,5.38-4.05,1.67-8.39,1.71-12.35-.23l.97.81c-1.39-1.87-2.78-3.74-4.17-5.62l.18.68c.07-2.12-.12-4.46.36-6.53.9-3.86,4.68-6.73,7.68-8.98,4.61-3.44,9.53-6.2,14.94-8.22,2.44-.91,4.95-1.68,7.49-2.26,1.24-.29,2.51-.55,3.79-.61.55-.03,1.71-.15,2.14.32.28.3,1.03.91,1.48.63s.14-.88-.14-1.19Z"/><path class="cls-2" d="M102.94,66.92c-.81,1.44-2.18,2.49-3.77,2.94-1.36.38-3.1.18-4.03-.71-.3-.29-.59-.74-.71-1.26-.22-.97,0-2,.31-2.93.32-.97.75-1.94,1.24-2.84.18-.33.4-.67.72-.87.14-.09.31-.14.47-.17.56-.09.24.26-.25-.36.32.41.96.78,1.48.63l2.31-.65-.7-.06c1.35.49,2.4,1.18,3.01,2.4s.54,2.68-.09,3.88c-.25.48.16,1.01.53,1.32.22.18,1.14.76,1.39.29,1.44-2.75.36-5.72-1.85-7.7-.64-.57-1.37-1.04-2.14-1.43-.57-.28-1.22-.66-1.86-.49-.74.19-1.48.42-2.21.63l1.48.63c-.59-.76-1.62-1.12-2.56-.93-.85.17-1.38.76-1.75,1.5-.91,1.81-1.91,3.82-1.68,5.91.4,3.63,4.62,5.86,7.96,5.17,1.89-.39,3.66-1.58,4.61-3.28.27-.48-.17-1.02-.53-1.32-.23-.19-1.13-.75-1.39-.29Z"/><path class="cls-2" d="M70.63,84.36l3.03-1.81c.15-.09.31-.19.49-.19.35-.01.61.3.81.58.47.66.93,1.31,1.4,1.97.23.32.47.66.51,1.05.1.8-.68,1.52-1.49,1.57s-1.57-.38-2.16-.94-1.06-1.23-1.63-1.79"/><path class="cls-2" d="M71.55,85.21l2.71-1.63c.2-.12.42-.31.66-.35.02,0,.13,0,.15,0l-.04-.02c-.18-.09-.33-.21-.45-.37-.02-.02-.36-.25-.46-.41.03.06.08.11.12.17.3.43.61.85.91,1.28.46.64,1.12,1.33.56,2.12-.49.69-1.4.86-2.15.5-.03-.02-.2-.1-.09-.04-.01,0-.15-.1-.05-.03.14.1-.16-.13,0,0,.12.1,0-.01-.03-.03.09.07.09.09,0,0-.05-.05-.1-.11-.15-.16.08.09.03.03-.02-.02-.4-.47-.79-.94-1.23-1.38-.23-.23-.47-.45-.73-.63-.09-.06-.4-.29-.54-.26-.34.06.36.79.41.84.03.03.32.34.18.18.1.11.19.22.29.33.26.3.51.6.78.89.56.6,1.18,1.15,1.87,1.59.93.6,2.23.99,3.12.1.94-.94.07-2.06-.53-2.91-.38-.54-.76-1.08-1.15-1.61-.26-.36-.56-.69-.89-1s-.76-.67-1.21-.82c-.35-.11-.63.01-.93.19-.33.2-.66.4-.99.59l-1.98,1.19c-.22.13.64.97.73,1.05.22.2.45.39.71.54.11.06.28.17.4.1h0Z"/><path class="cls-2" d="M23.58,87.46l1.34,1.29c.12.11.26.2.41.26.13.07.26.12.41.14.12.03.24.02.36-.02.11-.02.2-.07.28-.16.14-.19.15-.43.08-.65l-.11-.26c-.11-.19-.25-.35-.41-.49l-1.34-1.29c-.12-.11-.26-.2-.41-.26-.13-.07-.26-.12-.41-.14-.12-.03-.24-.02-.36.02-.11.02-.2.07-.28.16-.14.19-.15.43-.08.65l.11.26c.11.19.25.35.41.49h0Z"/></g></svg>