<?xml version="1.0" encoding="UTF-8"?><svg id="Calque_2" xmlns="http://www.w3.org/2000/svg" viewBox="0 0 28.57 28.73"><defs><style>.cls-1{fill:#f1e2c3;stroke-width:0px;}</style></defs><g id="fb"><path class="cls-1" d="M15.07,28.39v-10.81h-3.73v-4.28h3.73v-3.89c.09-.68.47-2.82,2.21-3.98,1.1-.74,2.34-.82,3.73-.92,1.16-.08,2.12.02,2.78.11v3.75c-1.41.02-2.51.09-3.07.17-.16.02-.45.07-.69.29-.21.2-.28.43-.32.54-.16.53-.21,1.99-.11,3.92h4.18l-.57,4.16h-3.55l-.06,10.92,7.37-.03c.22-.11.58-.32.9-.73.2-.26.32-.52.38-.7V1.55c-.07-.17-.21-.48-.51-.76-.32-.31-.66-.44-.84-.49H1.71c-.15,0-.62.04-1.03.41C.09,1.24.14,2,.15,2.09v24.8c.02.17.1.65.49,1.07.31.34.67.48.84.54l13.59-.11Z"/><path class="cls-1" d="M14.86,28.15c.26,0,.17-.04.21-.05-.44.01-.2.06-.21.05Z"/><polygon class="cls-1" points="10.52 28.28 10.6 28.26 9.96 28.31 10.52 28.28"/><path class="cls-1" d="M6.47,28.31c.38.07,1.47-.02,2.19,0l.12.02.33-.06c-.88.02-2.02.06-2.64.05Z"/><path class="cls-1" d="M4.31,28.17c.13.03-.47.03.5,0-.05,0-.06,0-.09,0-.09,0-.21,0-.41,0Z"/><path class="cls-1" d="M4.72,28.17c.43,0-.28-.02,0,0h0Z"/><path class="cls-1" d="M2.75,28.2l.56-.03c-.12-.02-.62-.02-.43-.03-.58.02-.46.03-.13.06Z"/><path class="cls-1" d="M2.21,28.26h.29c-.05-.02-.13-.02-.29,0Z"/><path class="cls-1" d="M3.12,28.22l-.62.03c.08.01.09.03.28-.01-.05.02.07,0,.33-.02Z"/><path class="cls-1" d="M3.47,28.23c.32.01.72.02.16.05,1.08-.02.92-.07-.16-.05Z"/><path class="cls-1" d="M6.26,28.38l.42.02.36-.03c-.18.01-.81-.01-.79,0Z"/><path class="cls-1" d="M.47,26.86s-.02,0-.02.04c0,.05,0,.11,0,.13.03.12.08.23.13.33-.08-.15-.14-.54-.1-.5Z"/><path class="cls-1" d="M.44,27.03l-.03-.13s0-.06,0-.12v-.31c-.01.14-.01.25-.01.34,0,.05,0,.07,0,.08,0,.03.01.05.01.07.02.08.03.09.04.07Z"/><polygon class="cls-1" points="2.11 28.34 3.13 28.27 1.92 28.34 2.11 28.34"/><polygon class="cls-1" points=".48 24.49 .51 24.84 .46 24.21 .48 24.49"/><path class="cls-1" d="M.47,22.91c.03.26.05-.36.07-.08,0-.43-.03-.79-.05-1.12.01.35,0,.72-.01,1.2Z"/><path class="cls-1" d="M.45,21.16c0,.16.02.35.03.55-.01-.17-.02-.34-.03-.55Z"/><path class="cls-1" d="M.4,25.41s.03-.14.04-.49l-.04.24c0,.07,0,.16,0,.24Z"/><path class="cls-1" d="M.39,25.18h0c0-.27,0-.46,0-.54,0,.07,0,.23,0,.54Z"/><path class="cls-1" d="M.4,25.47s0-.04,0-.06c0,.02,0,.04,0,.06Z"/><path class="cls-1" d="M.79,27.84c-.26-.21-.54-.88-.28-.23.16.18-.05-.13.28.23Z"/><path class="cls-1" d="M.34,25.78v.66s.02-.13.03.05l-.03-.71Z"/><polygon class="cls-1" points=".33 25.45 .34 25.78 .35 25.53 .33 25.45"/><path class="cls-1" d="M.41,22.29c-.02-.29-.02-.6-.02-.95,0,.38,0,.77-.01,1.14.01.05.04.22.04-.19Z"/><path class="cls-1" d="M.4,23.69v-.06s0,.07,0,.06Z"/><polygon class="cls-1" points=".39 17.87 .38 17.93 .39 17.94 .39 17.87"/><path class="cls-1" d="M.37,22.54c0,.28,0,.45.02.62,0-.22,0-.44,0-.68,0-.02-.01-.03,0,.06Z"/><path class="cls-1" d="M.43,20.19c0,.16-.02.32-.02.49.01-.14.03-.44.02-.49Z"/><path class="cls-1" d="M.41,23.53v.04c.01-.09,0-.08,0-.04Z"/><path class="cls-1" d="M.41,23.53c0-.13-.02-.25-.03-.38,0,.17,0,.33.01.47,0-.03,0-.06.01-.1Z"/><path class="cls-1" d="M.11,16.82c.04.05.08.8.03,1.44.03.63.16.22.23-.33-.02-.02-.03-.02-.06-.67-.02.23-.05,1.45-.09.9-.02-.86.01-.71.03-1.13-.05.36-.07-1.1-.14-.91l.03.76s-.03-.26-.04-.05Z"/><path class="cls-1" d="M.38,19.17v.27c.01-.31.03-.53.06-.93-.02-.45-.03-.54-.05-.57v1.32s-.01-.09-.01-.09Z"/><path class="cls-1" d="M.38,20.64c-.04-.21-.06-.85-.11-.46,0,.79.04.55.05,1.02-.01-1.27.02.37.05-.55,0,.26,0,.48.01.69,0-.22.01-.44.02-.66v.03s0,0,0,0h0c0,.05,0,.07,0,0,0,0,0-.02,0-.03,0,0-.01-.03-.02-.06,0-.37.01-.06.02.06v.02s0,0,0,0l-.02-1.27c0,.28,0,.61,0,1.21Z"/><path class="cls-1" d="M.19,27.03s0-.04,0-.04c-.02-.08-.03-.11,0,.04Z"/><path class="cls-1" d="M.19,26.51c0,.1.01.2.03.46.04.25-.02,0-.03.02.04.18.2.59.06.05l-.02-.08c0-.49.06-1.16.06-1.07-.04.15-.07.28-.1.62Z"/><path class="cls-1" d="M.28,23.54l-.02-1.06-.04.54.02-.03c0,.6.02.47.04.55Z"/><polygon class="cls-1" points=".41 17.75 .46 17.89 .39 17.28 .41 17.75"/><polygon class="cls-1" points=".4 16.37 .44 16.42 .42 16.06 .4 16.37"/><path class="cls-1" d="M20.59,28.62h-.31c.14,0,.24,0,.31,0Z"/><path class="cls-1" d="M22.84,28.62l.06-.02c-.1.01-.15.02-.06.02Z"/><path class="cls-1" d="M18.61.55c.45.04.96.09.91.05l-.14-.04c-.32,0-.56,0-.77,0Z"/><path class="cls-1" d="M28.25,14.54v-.13c0-.11-.02-.21-.03-.31,0,.13.02.28.03.44Z"/><path class="cls-1" d="M28.43,14.86l-.03.6c0-.15.02-.34.03-.6Z"/><path class="cls-1" d="M20.06,17.19l.36-.04c-.57,0-.32.02-.36.04Z"/><path class="cls-1" d="M.39,2.26c0-.41.04-.63.13-.86-.18.36-.16.73-.13.86Z"/><path class="cls-1" d="M21.47,28.16c-.19,0-.27.02-.27.03.2,0,.31-.02.27-.03Z"/><path class="cls-1" d="M1.14.71c-.05.02-.1.05-.15.08-.19.14-.35.33-.46.6.12-.27.34-.51.62-.68Z"/><path class="cls-1" d="M11.59,15.32v.1s0-.04,0-.1Z"/><path class="cls-1" d="M14.87,24.61c0-.13,0-.34,0-.53,0,.1,0,.25,0,.53Z"/><path class="cls-1" d="M.42,10.83c0,.29,0,.05,0,0H.42Z"/><path class="cls-1" d="M.25,12.25c0-.06-.01-.11-.02-.12.01.02.02.06.02.12Z"/><path class="cls-1" d="M3.9.29h.03c-.09,0-.07,0-.03,0Z"/><path class="cls-1" d="M.4,11.27c0-.12,0-.24.01-.37,0,.07,0,.18-.01.37Z"/><path class="cls-1" d="M.42,11.21c0,.1,0,.18,0,.26,0,.04.01,0,0-.26Z"/><path class="cls-1" d="M.42,10.42c0,.17,0,.32,0,.47,0-.06,0-.08,0-.07,0-.09,0-.21,0-.41Z"/><path class="cls-1" d="M23.65,7.58s0-.04,0-.06c-.02-.29-.02-.17,0,.06Z"/><path class="cls-1" d="M26.22.1h-.03s.03,0,.04,0h0Z"/><path class="cls-1" d="M27.34.23c-.12-.04-.22-.08-.32-.1-.06-.02-.13-.03-.2-.02-.04,0-.09,0-.12,0-.16,0-.31,0-.48,0l.35.13c.13-.02.2-.06.38-.07.15.02.26.04.39.07Z"/><path class="cls-1" d="M19.37,23.98l-.04.74c-.06-.89-.03-1.53-.09-.84.14.1,0,2.87.13,2.97l-.03.49c0-.14,0-.16,0-.3-.03.38-.02.57,0,.74.01.08.02.18.03.28,0,.18.02.35.03.54.21,0,.44,0,.76,0,.42,0,.72.03.43.04l.95-.04c.28,0,.21.03-.07.02l1.44-.02h-.01c.24-.01.69-.05.9-.07.37.02-.18.02-.09.03l.8-.04c.33.03-.34.07-.89.07.75.13.66-.04,2.27.04l-.75.02c.24.04.51.05.83.06.16,0,.32,0,.51.01.09,0,.18,0,.28,0,.06,0,.29.05.47-.08-.05,0-.12.08-.23.08-.08,0-.17-.01-.27-.02-.15-.01-.32-.03-.48-.04-.29-.03-.45-.06-.02-.08.13,0,.27,0,.43,0,.09,0,.2,0,.31,0,.17-.04.26-.13.36-.19.02.04.47-.23.82-.75l.03.07c.19-.29.23-.45.27-.56,0-.05.06-.14.04-.23,0-.07-.01-.15-.02-.23,0-.69.06-.83.1-.99.01-1.1-.08.76-.09-.54.02-.92,0-1.56-.04-2.66.02-.64.04.11.06-.12l-.05-.57c0-.14.02-.09.02-.07-.02-.48-.06-.04-.08-.79-.07-.2.1-1.55.02-2.48.02-.23.04.11.06.04-.05-1.28-.04-1.1-.11-2.15l.04-.89c-.05.66-.1-.18-.15-.92-.02.24-.04.45-.05.57l-.03-1.17c.01-.14.03-.02.06.17,0-.08-.01-.15-.02-.22.02-.42.06-.2.1.1l-.04.42c.04.29.08.56.12.5,0-.1-.01-.24-.02-.38.01.08.02.12.03.09,0-.04,0-.16-.02-.35l.07-.27-.03-.06.04-1.54c-.07-1.1-.18-2.06-.21-3.8.05.43.09.09.15.12-.07.48.03,1.35.01,2.26,0-.47.04-.37.05-.25l-.06-1.61c.05.04.04-.34.06-.76-.1.32-.07-1.2-.1-1.86.03-.04.07.12.06.92.08-.88-.12-1.14-.05-2.01,0,.2,0,.3.01.38-.03-.46,0-1.57.02-1.31v.2c0-.65,0-1.63,0-2.49,0-.22,0-.43-.01-.63-.09-.24-.18-.36-.27-.49-.19-.25-.37-.37-.42-.39,0-.02.2.04.27.1-.33-.27-.7-.46-1.12-.5l-1.16.14c.2-.07-.58-.25.5-.29-.31-.01-.69-.02-1.34,0,.21.01.53.11.24.11-.79-.08-.55-.04-1.52-.11.32.02-.03.13-.53.13.08-.02-.04-.11.14-.12l-1.24.11c.31-.02.05-.1-.22-.13.13.02-1.07,0-1.41,0l.53.03c-1.4-.02-1.39.16-2.78.15.17-.02.42-.14-.29-.16-.32.06-1.43.28-2.67.32l-.24-.03-.94.04c.59-.09,2.24-.27,3.14-.34-.53-.03-.15-.04-.93-.04-.28-.03.43-.05.66-.05l-1.83-.02c.08.07-1.4.07-1.33.12l1.99-.07c.08.07-1.15.19-2.45.18-.33-.03.25-.12.22-.14-.17.02-1.23.04-1.35.03l.55-.04c-.72-.03-1.18.09-2.05.02-.3,0-.9-.09-.95-.05.49.08.59.31.26.37-.11,0-1.57-.07-1.92-.11-.49-.06.74-.14.32-.19-.02.02-.29.04-.4.05-.31-.02.13-.06-.55-.05-.11.07-1.39,0-.32.06-.67.02-.71-.01-1.5-.01.25.04-.7.15-1.37.17.04-.02-.11-.04-.18-.05-.68,0-1.21-.01-1.73-.02-.49-.03-1.09-.03-1.57.45-.13.05-.46.61-.35.35-.07.18-.14.35-.18.76-.03.4-.05.17-.03-.09.02-.25.12-.53,0-.24-.03.08.01,1.06.03,1.61.03-.09.03-.41.03-.78-.02-.36-.02-.82.1-1.09.04.01-.04.26-.02.67.04.41.07.99.09,1.66.02,1.06-.05.46-.04.64-.01,1.99.15,1.7.09,3.35-.05.66-.11.03-.15.18-.02-.86.03-1.33.03-1.91l-.03.72c-.02-.28-.03-.85-.02-1.17-.05.55,0,3.37-.05,4.91.02.27.04.75.06.52v-.49c.04-.45.05.92.07.3.03.65.08,1.39.05,2.3l-.06.17s.04-.6.02-.86c.03.38-.08,1.41,0,1.83l.04-.64c.03.66.1,1.47.08,2.28.06-.37,0-.19.06-.77-.09.5,0-2.08-.09-1.28.08-.59.03-1.03.1-1.8-.02.02-.04.28-.03-.41,0-.04-.01-.11-.02-.15,0-.02,0-.03,0-.05v.04s0-.03,0,.01c0,.16-.02.29-.03.35-.05-.34-.04-1.43-.07-1.8,0-.41.02.17.04-.05l-.04-.55c.04-.05.07-1.08.1-.12v-.86c.03-.51.04-1.2.02-1.63,0-.41-.05-1.03-.01-.67l-.03-1.35h.01c0-.67-.02-1.36-.02-2.07v-.54c-.01-.16,0-.32.05-.48.09-.31.29-.58.56-.75.15-.11.33-.2.56-.24.19-.04.55-.01.91-.02l.15.04c.58-.01,1.73.04,1.98,0,.62.1,2.79.02,3.81.04l.04-.05c.7,0,1.36-.01,2.23-.03l-.05-.04c.75-.04,1.92.03,3.1.03-.08.02-.38.01-.59,0,1.41.1,2.97-.07,4.25,0,.32-.02.55-.01.77,0-.03,0-.05,0-.08,0,.03,0,.08,0,.13,0,.14,0,.29.02.44.02-.14,0-.27-.02-.37-.02.24,0,.61-.01.98-.02l.16.05s.05,0,.08,0c.36.02.29-.02.1-.06.17-.01.33-.02.48-.03.29.08.96-.03,1.36.06.25-.04,1.84-.03,2.03-.12.01.01.12.02-.08.02.41,0,.81.02,1.18,0l.17.06.89-.08c.54.04.76.06.23.11.62-.03.96-.06,1.09-.04.2.08.41.12.81.46h-.06c.13.12.29.3.4.5.06.12.08.15.08.26,0,.1,0,.18-.01.24-.08.88-.01,4.36-.08,6.62.12-.44-.05,1.05.04,1.14-.03.13-.04.45-.07.08.03,1.15-.04,1.73.03,2.53-.03.13-.04-.25-.06-.13,0,.09.02.37,0,.49-.02.12-.02-.17-.04-.35,0,1.18.09,1.3.17,1.38-.04.6-.03.89.02,1.33-.03.21-.05.55-.06-.18,0,.41-.04,2.52.03,2.56-.02.13,0,.58,0,.68,0,.92,0,1,0,1.91v-.25c.09.36.03.75.04,1.49v-.02c-.06,1.68.02.72-.04,2.38l.05-.09c.1.15-.06,1.47-.02,2.43l.03-.35c.02.26-.02.63-.06,1l-.03.27c0,.07-.03.08-.07.17-.08.14-.16.25-.23.35-.07.08.08-.14.14-.28-.33.52-.4.52-.36.55.01.01.09.03-.28.34-.15.05.1-.15-.36.12-.19,0-.62.02-1.16.04-.58.03-1.23.05-1.7.02.21.03.41.05-.06.07-.73.01-1.98-.09-2.64,0-.09,0-.13-.01-.13-.02-.2,0-.47.01-.76.02-.14,0-.29,0-.44.01-.09,0-.18,0-.26.01-.01-.16-.02-.28-.03-.39.17-.52-.06-3.48.09-3.46v-1.72s.02.05.02.05c.02-1.1-.02-1.49-.05-1.88.01-.25.02-.07.03-.05.04-1.58.03-1.82-.04-3.06.02-.03.03-.04.05-.06,0-.01,0-.02,0-.04.03,0,.08,0,.13,0,.07,0,.16,0,.25,0,.24,0,.54.01.86.02.33,0,.69.01,1.05.02.42,0,.84,0,1.27,0l.05-.42s0,.07-.01.27c.05-.38.1-.76.15-1.16.05-.36.11-.72.17-1.09.06-.36.11-.71.16-1.03.06-.43.11-.81.16-1.16-.29,0-.57.01-.75.02-.14.01-.25.03-.33.05l-1.17.04c1.51.01-.23.08.4.11-.6.01-1.54-.05-.81-.06h.11c.13-.04-.34-.05-.83-.05-.25,0-.5,0-.7,0-.14,0-.2-.01-.19-.03-.08.03-.03-.08-.05-.12v-.21s-.03-.55-.03-.55c0-.37,0-.73,0-1.1,0-.36.02-.73.06-1.08.04-.35.08-.71.25-.96.32-.53,1.19-.35,1.86-.43.35-.02.7-.03,1.05-.05l.54-.03.41-.02h.1s0-.11,0-.11v-.2s-.04.22-.04.22c0,.05-.03.05-.08.04h-.13s.17-.02.17-.02c0-.05,0-.11,0-.16v-.33s0-.49,0-.49c.02-.26.06-.34.05.35.04-.37-.03-1.16-.05-1.18.03-1.36.09.53.09.11v-.57s-.01.13-.01.13c-.03-.46-.06-.5-.06-1.33,0-.31.02-.47.03-.5,0-.02,0-.04.01-.06.02-.03,0-.05-.09-.06.02,0-.12-.03-.47-.07-.41-.05-.83-.08-1.24-.1l.49.08c-.55,0-1.17-.03-.6.04-.42-.06-1.57-.03-2.68.12-1.13.13-2.12.69-2.32.86-.62.49-1.13,1.1-1.54,1.96.12-.2.21-.31-.11.43-.04-.33-.59,1.38-.58,2.08.06-.58.02,2.28.11,1.37-.01.67-.05.04-.08.55,0,.25,0,.5.02.75,0,.2,0,.41,0,.62-.52,0-1.07-.01-1.64-.02-.7,0-1.4,0-2.12-.01v.32s.05-.39.07.2l-.09,1.06c0,.39.1.36.04,1.07.01-.1.04-.25.04.01,0,.67-.02,1.33-.02,1.99,1.24,0,2.48,0,3.73,0,0,.99,0,1.98,0,2.98,0,1.04-.03,2.09-.07,3.12.03-.53.04-.18.04.23,0-.26.04,0,.07-.05l-.07,1.64c.07.3,0,1.76.07,1.93v-.52c.06.69.15-.97.25-.87-.08-.77.13-2.04,0-3.31.02-.28.03.24.05.09-.04-.32-.05-.71-.03-1.43v.08c.01-.82.02-1.45.02-2.07.01-.68.02-1.35.03-2.19-.37,0-.81,0-1.31-.02l.17.05c-.49,0-.59-.02-.82-.03-.56.07,1.37,0,.86.08-.22-.03-.67-.04-1.2-.05-.47,0-1,0-1.45,0,0-.18.01-.34.02-.49,0-.18.02-.32.04-.39,0-.75-.05.22-.05-.53l.03-.2-.04-.19c0-.49.04-.74.07-.76,0,.12,0,.34,0,.47.02-.32.01-.76,0-1.15,0-.18,0-.35,0-.49,0-.05,0-.1,0-.12h0s0,0,0,0v.13s-.02.34-.02.34c0-.16,0-.32,0-.49,1.19,0,2.48,0,3.72,0,0-.44,0-.87-.01-1.29,0-.35-.02-.69-.02-1.02l-.02.15c-.02-.76-.01-1.06,0-1.38,0-.16,0-.32.01-.54.03-.2.08-.5.18-.89v.06c.05-.32.17-.74.36-1.14-.16.38.39-.66.17-.17.35-.71.52-.83.58-.95.08-.1.09-.18.46-.56.07-.05.14-.08.21-.12.27-.23.27-.3,1.02-.62-.61.27.5-.14-.17.18.79-.28,1.42-.36,1.94-.44.52-.06.93-.1,1.33-.07.79-.15-1.5.04-1.05,0-.38,0,.65-.14,1.19-.14.28,0,.51.02.85.07.37.05.75.1,1.29.17-.07,0-.08,0-.14-.01.04.03.16-.01.13.07,0,.09,0,.18,0,.27,0,.27.01.56,0,.88.06.36,0,.83.08.94l-.02-1.28c.02.7.11,1.46.07,2.55,0-.05-.02-.12-.03-.24,0-.14-.02-.29-.02-.4-.01.16,0,.37,0,.49v.17s-.1.02-.15.02c0-.04.1,0,.11-.08,0-.05,0-.1,0-.15,0-.1,0-.21,0-.33,0-.47,0-1.03-.03-1.42-.03.38.06,1.47-.03,1.08.05.25.05.73.04.83-.07,0-.67.02-1.11.09l.06-.05c-.15.02-.46.06-.74.07l.5-.09c-.38.05-.76.06-1.13.06-.19,0-.37,0-.56.02-.2.03-.43.1-.62.24.42-.26.69-.23.79-.24.12,0,.13,0,.12.02-.02.02-.16.05.17.05-.46.02-.82.11-1.04.26-.22.15-.33.29-.43.44-.18.31-.3.68-.33,1.75,0-.29.1-1.1.08-.64-.03.38-.07.88-.1,1.2.02,1.42.05-.22.08.39-.05.51.03.64.08,1.37l-.05.03c0,.08,0,.15,0,.22,0,.06-.02.17.07.14.13,0,.24,0,.33,0,.15,0,.26,0,.35,0,.14,0,.19-.02.23-.03.09-.02.15-.05.88-.03l-.61.07.75-.02-.16.05c.82-.04,1.08-.03,1.88-.01-.09-.02-.07-.04.04-.05.15-.02.28-.03.46-.04,0,.02,0,.05-.01.08-.04.15-.04.11-.05.11,0,0,0-.04-.07.5,0-.11,0-.23.01-.37.01-.14.01-.13.05-.26h-.01s-.12.03-.14.04h.09s-.02.12-.02.12c-.01.11-.03.22-.04.33-.03.24-.06.46-.08.61.02-.13.05-.29.07-.39l-.13,1.46c-.05.23-.04.04-.03-.14-.03.28-.05.52-.1.93-.02-.12-.07-.1,0-.71l-.14,1.34s-.02.04-.03.06c-.06-.01-.1-.03-.08-.04.03,0-.16,0-.24,0-.11,0-.22,0-.33,0-.22,0-.47.02-.73.02-.51.02-1.03.04-1.56.02-.13,0-.3.01-.62.03-.01.56-.02,1.1-.03,1.66,0,.48-.01.97.01,1.54l-.07.65c.01.89.09-.88.11.61.02,1.05-.06.39-.08.76.03.52.1,1.43.04,2.4,0-.34,0-.57,0-.87ZM26.2,28.58c-.21.01-.64.04-.8.02.24-.06.43-.03.8-.02ZM28.35,12.92c.02.16,0,.4-.01.68,0-.2,0-.43.01-.68ZM.38,7.62v-.02c.02-.48,0-.31,0,.02ZM.36,8.61c0,.1.01.09.02.05-.01-.07-.01-.29,0-.54-.01.07-.02.2-.01.49ZM23.71,4.43c.08.03.21.01.25.08-.58-.12-.44-.08-.25-.08Z"/><path class="cls-1" d="M28.41,14.82c0,.06-.02.08-.03.09,0,.08.02.09.03-.09Z"/><path class="cls-1" d="M19.96,17.2h.06s.03,0,.04,0h-.1Z"/><path class="cls-1" d="M7.84.1c.2,0,.32.02.39.02.01-.01-.08-.02-.39-.02Z"/><path class="cls-1" d="M.45,13.85v-.63c-.01.31-.02.42-.03.57.01-.01.03-.14.03.06Z"/><path class="cls-1" d="M.15,19.35c0,.11,0,.18,0,.29l.02-.03c0-.39-.02-.67-.03-.26Z"/><path class="cls-1" d="M.28,14.44c-.04.05-.03.45-.02.89v-.08c.06.13.04-.34.02-.81Z"/><path class="cls-1" d="M.27,15.43v.41c.02.05,0-.17,0-.41Z"/><path class="cls-1" d="M.39,9.87c-.01.21.05.13.04.25.05.23-.06-1.4-.04-.25Z"/><polygon class="cls-1" points=".15 14.8 .2 14.64 .16 14.39 .15 14.8"/><path class="cls-1" d="M.19,11.29v.71s0,.08,0,.19c0-.44.01-.92,0-.9Z"/><path class="cls-1" d="M.19,12.19c0,.23,0,.44,0,.57,0-.12,0-.38,0-.57Z"/><polygon class="cls-1" points=".14 13.83 .15 13.62 .15 13.12 .14 13.83"/><path class="cls-1" d="M.2,3.67v-.77c-.03-.08-.04.13-.04.42.01.19.02.47.04.35Z"/><path class="cls-1" d="M.06,6.01c.01-.21.02-.22.04-.34l-.06-.02.02.36Z"/><path class="cls-1" d="M.05,3.76C.03,3.68,0,2.63,0,3.62c.02.08.03.85.05.14Z"/><polygon class="cls-1" points="9.04 .27 8.84 .27 8.87 .37 9.04 .27"/><path class="cls-1" d="M19.31.03c-.92-.02-.22.06-1.05.03-.22.02.68.02.46.05.55-.03.84-.01.59-.08Z"/><path class="cls-1" d="M18.72.11c-.09,0-.18,0-.28.02.15,0,.23-.01.28-.02Z"/><polygon class="cls-1" points="14.82 26.77 14.8 27.36 14.83 26.98 14.82 26.77"/><path class="cls-1" d="M14.9,27.9l-.06.14.06.35c0-.13,0-.39,0-.49Z"/><path class="cls-1" d="M27.92,28.1l.02-.05c-.08.06-.19.18-.44.36.15-.09.29-.19.42-.31Z"/><polygon class="cls-1" points="19.73 28.69 19.98 28.69 19.56 28.63 19.73 28.69"/><path class="cls-1" d="M19.25,21.93c0,.27,0,.6,0,.87,0-.6.07-.94,0-.87Z"/></g></svg>