<?xml version="1.0" encoding="UTF-8"?><svg id="Calque_2" xmlns="http://www.w3.org/2000/svg" viewBox="0 0 18.31 25.79"><defs><style>.cls-1{fill:#f1e2c3;stroke-width:0px;}</style></defs><g id="figma"><path class="cls-1" d="M16.12,13.05c-.01.74-.19,1.45-.61,2.07-.18.27-.38.49-.63.69-.08.06-.16.11-.32.22-.27.18.09-.04-.08.05-.11.05-.23.1-.34.15.26-.09-.43.09-.15.04-.2.03-.29.04-.39.04-.36,0-.59-.03-.95-.15-.65-.22-1.2-.65-1.62-1.18-.9-1.14-1.04-2.83-.29-4.09.17-.28.35-.52.59-.73.2-.19.46-.36.6-.42.1-.04.19-.09.29-.12-.19.07-.01,0,.02,0,.02,0,.36-.08.13-.04.07-.01.15-.02.22-.03.21-.03.6,0,.91.08,1.61.4,2.59,1.99,2.62,3.59,0,.18.31.29.43.32.26.06.56.03.81-.04.42-.11.94-.37.93-.86-.03-1.96-1.38-3.57-3.21-4.15-2.07-.66-4.55.1-5.94,1.75-1.25,1.48-1.42,3.59-.4,5.23,1.12,1.81,3.37,2.4,5.36,1.98,2.22-.46,4.16-2.3,4.19-4.65,0-.49-.56-.54-.95-.5-.33.04-1.22.29-1.23.76Z"/><path class="cls-1" d="M3.76,1.14h0c.51-.27,1.02-.55,1.53-.83C2.77.52.16,2.11.01,4.86c-.13,2.42,1.79,4.35,4.15,4.54l-.4-.24v.02c0,.24.51.25.64.25h4.29c.45,0,1.53-.23,1.53-.83V.56c0-.24-.51-.25-.64-.25h-4.29c-.45,0-1.16.17-1.44.56s.25.52.56.52h4.29l-.64-.25c0,2.35,0,4.7,0,7.05v1l1.53-.83h-4.29l.64.25v-.02c0-.15-.32-.23-.4-.24-1.83-.15-3.22-1.69-3.34-3.49-.06-.88.21-1.79.75-2.49.23-.29.56-.59.81-.74,0,0,.29-.15.13-.08.1-.05.2-.09.3-.12-.21.07.09-.02.13-.03-.28.06.29-.03.09-.01.45-.04,1.53-.21,1.53-.83h0c0-.53-2.17-.17-2.17.58Z"/><path class="cls-1" d="M3.76,9.03h0c.41-.25.82-.51,1.23-.76C2.51,8.47.04,10.35,0,12.99s1.96,4.39,4.43,4.59l-.67-.52v.02c0,.37.33.52.67.52h4.29c.34,0,.67-.07.97-.23.18-.1.53-.3.53-.54v-8.05c0-.37-.33-.52-.67-.52h-4.29c-.49,0-1.15.15-1.43.61s.22.69.6.69h4.29l-.67-.52v8.05l1.5-.77h-4.29l.67.52v-.02c0-.39-.33-.49-.67-.52-1.67-.13-3.03-1.75-3.08-3.46-.03-.85.26-1.73.81-2.38.28-.33.51-.51.88-.7-.16.08.14-.06.14-.06.23-.11-.1.01.12-.05.04-.01.33-.08.13-.04.15-.03.29-.04.44-.05.34-.03,1.23-.3,1.23-.76h0c0-.49-.56-.55-.95-.51-.33.04-1.23.29-1.23.76Z"/><path class="cls-1" d="M12.34.92h0c0,.42.33.74.74.77.79.06,1.47.34,2.04.91.59.6.97,1.42.98,2.27.01.9-.28,1.62-.8,2.27-.17.21-.56.5-.78.61-.1.05-.19.09-.29.14.21-.09-.08.02-.13.04-.11.03-.21.06-.32.08.21-.05-.21.02-.25.03-.46.04-1.19.36-1.19.92v.02l1.19-.92c-1.43,0-2.86,0-4.29,0l1.02.78c0-2.35,0-4.7,0-7.05v-1c-.4.31-.79.61-1.19.92,1.43,0,2.86,0,4.29,0,.49,0,1.14-.38,1.19-.92C14.6.2,13.99,0,13.53,0c-1.43,0-2.86,0-4.29,0-.46,0-1.19.39-1.19.92,0,2.35,0,4.7,0,7.05v1c0,.57.52.78,1.02.78,1.43,0,2.86,0,4.29,0,.46,0,1.19-.39,1.19-.92v-.02l-1.19.92c2.55-.2,4.91-2.2,4.94-4.87S16.33.22,13.81.02l.74.77h0C14.55.23,14.03-.03,13.53,0c-.45.03-1.19.37-1.19.92Z"/><path class="cls-1" d="M5.02,25.78c2.29-.03,4.43-1.54,5.06-3.76.16-.55.16-1.1.16-1.67v-3.5c0-.56-.53-.7-1-.7-1.04,0-2.07.02-3.11.03-.47,0-.94-.01-1.4.01-.95.05-1.92.47-2.69,1.02-1.03.74-1.73,1.84-1.99,3.09-.11.53.61.73,1,.7.5-.04,1.09-.34,1.2-.87s.33-1.02.65-1.4c.21-.25.29-.33.53-.51.03-.03.36-.23.23-.15.1-.05.2-.1.3-.15.13-.05.14-.06.03-.02.07-.02.14-.05.22-.07.05-.01.45-.07.26-.07.04,0,.07,0,.11,0,.24.01.49,0,.73,0,1.24-.01,2.49-.02,3.73-.03l-1-.7v3.79c0,.77-.15,1.57-.55,2.16-.08.12-.17.22-.26.33-.03.03-.27.28-.18.2-.1.09-.22.18-.33.26-.06.04-.12.08-.17.12.09-.05.08-.05-.03.02-.13.06-.25.13-.39.18.22-.09-.18.05-.23.06-.07.02-.14.03-.21.05.12-.02.11-.02-.03,0-.15,0-.3.02-.45.02-.47,0-1.14.36-1.2.87-.06.56.58.71,1,.7h0Z"/></g></svg>