<?xml version="1.0" encoding="UTF-8"?><svg id="Calque_2" xmlns="http://www.w3.org/2000/svg" viewBox="0 0 125.8 50.48"><defs><style>.cls-1{fill:#f2e2c4;stroke-width:0px;}</style></defs><g id="patience"><path class="cls-1" d="M119.78,17.58c-27.82,5.9-56.45,7.71-84.78,5.19-7.92-.7-15.8-1.78-23.63-3.15-2.12-.37-1.88,1.9-1.27,3.26.81,1.78,2.68,4.54,4.83,4.91,28.3,4.97,57.29,5.78,85.81,2.19,8.07-1.02,16.1-2.38,24.06-4.07,3.21-.68-2.03-8.95-5.01-8.32h0Z"/><path class="cls-1" d="M52.99,1.24c-.95.67-1.9,1.32-2.87,1.96.92-.6-.6.38-.76.48-.49.31-.98.61-1.48.91-1.86,1.13-3.75,2.19-5.67,3.2-3.97,2.09-8.08,3.92-12.28,5.5-.54.2-1.09.4-1.63.6,1.17-.42-.59.19-.79.26-.96.32-1.93.63-2.9.92-2.22.67-4.46,1.27-6.71,1.8-4.37,1.02-8.81,1.75-13.27,2.22-1.9.2-3.94,2.29-3.99,4.23-.06,2.09,1.32,3.84,3.34,4.37,4.24,1.12,8.43,2.43,12.55,3.93,1.1.4,2.19.82,3.28,1.24,1.35.53-.85-.35.49.2.54.22,1.08.44,1.62.67,2.02.85,4.02,1.75,6,2.69,7.92,3.77,15.48,8.26,22.59,13.39,2.02,1.46,5.61.43,6.9-1.55,1.52-2.33.74-4.58-1.37-6.11-14.67-10.59-31.32-18.39-48.81-23.02l-.65,8.6c19.08-1.98,37.37-9.11,53.03-20.12,1.97-1.39,2.24-4.69.42-6.3-2.1-1.85-4.86-1.57-7.02-.05h0Z"/></g></svg>