<?xml version="1.0" encoding="UTF-8"?><svg id="Calque_2" xmlns="http://www.w3.org/2000/svg" viewBox="0 0 121.83 122.51"><defs><style>.cls-1{fill:#260801;stroke-width:0px;}</style></defs><g id="fleur"><path class="cls-1" d="M102.96,3.76c-5.95.99-11.94,1.68-17.95,2.06-4.54.29-9.11.12-13.65.46-3.21.24-6.18,1.55-8.19,4.16-2.9,3.77-2.53,8.66-2.16,13.13s1.01,9.42-1.41,13.42-7.14,4.49-11.63,4.77c-6.22.38-12.44.54-18.38,2.65-6.23,2.22-11.82,6.12-16.47,10.79-4.96,4.99-8.3,10.91-10.23,17.67-1.4,4.9-1.92,9.98-2.27,15.04-.33,4.68-.41,9.41.09,14.08.86,8.04,4.02,18.03,13.2,19.59,3.55.6,7.2-.38,10.52-1.54,3.91-1.37,7.7-3.04,11.69-4.16,4.76-1.34,9.67-1.81,14.58-1.11s9.85,2.93,14.9,4.01c11.85,2.53,24.56.82,34.75-5.91,2.17-1.43,4.16-3.1,6.03-4.91.59-.57.8-1.63.15-2.23-.71-.66-1.95-.39-2.71-.02-5.63,2.75-12.16,4.23-18.39,3.06-2.46-.46-4.81-1.35-7.16-2.2-3.14-1.13-6.3-2.16-9.54-2.95-6.13-1.48-12.55-2.46-18.86-2.52-6.89-.07-14,1.28-19.54,5.62-2.92,2.29-5.66,4.58-8.98,6.29s-6.52,2.81-9.93,3.78c-1.01.28-2.33,1.26-2.2,2.45s1.59,1.33,2.5,1.07c6.62-1.87,13-4.66,18.43-8.94,2.41-1.91,4.58-3.88,7.53-4.94,3.1-1.11,6.37-1.51,9.65-1.57,6.23-.12,12.66.96,18.72,2.36s11.12,4.03,16.91,5.21c7.54,1.54,15.6-.37,22.41-3.7l-2.56-2.25c-3.98,3.85-9.26,6.86-14.79,8.35-4.76,1.28-9.67,1.43-14.56,1.01-2.68-.23-5.35-.62-7.94-1.36-2.18-.62-4.31-1.42-6.48-2.07-5.16-1.53-10.53-2.15-15.9-1.54-4.58.52-8.99,1.86-13.29,3.48-1.79.67-3.57,1.39-5.37,2.03-.75.27-1.51.53-2.28.76-.44.13-.88.26-1.33.37-.15.04-.29.07-.44.11-.09.02-.97.19-.47.11-1.73.31-2.6.34-4.2.07-.47-.08-.23-.02-.7-.17-.41-.13-.8-.28-1.19-.46-.75-.34-1.43-.78-2.07-1.3-3.06-2.47-4.67-6.36-5.54-10.1-1.97-8.51-1.45-17.83-.21-26.42.68-4.75,1.94-9.48,4.09-13.78.48-.95,1-1.89,1.57-2.79.23-.37.47-.73.72-1.09.33-.49-.1.12.29-.41.26-.35.52-.69.79-1.03,3.11-3.93,6.96-7.32,11.28-9.87,5.52-3.26,11.54-4.28,17.85-4.63,5.06-.28,10.43-.22,15.07-2.54s7.52-6.7,8.14-11.71c.58-4.69-.4-9.32-.39-14,0-1.85.2-3.81,1.18-5.4.34-.56.77-.94,1.31-1.38.11-.09.23-.15.34-.24-.6.46-.31.17-.11.08.25-.12,1.02-.34.2-.13.21-.05.42-.13.62-.2.67-.2-.06-.02.2-.05.65-.08,1.29-.15,1.95-.18,1.76-.08,3.53-.07,5.29-.1,6.14-.12,12.28-.57,18.38-1.33,2.42-.3,4.83-.65,7.23-1.05,1.13-.19,2.5-.86,2.77-2.09.24-1.11-.82-1.84-1.85-1.66h0Z"/><path class="cls-1" d="M118.88,121.33c2.15-5.63,2.33-11.58,1.24-17.48-.43-2.31-1.21-4.4-3.02-5.98-1.24-1.09-2.8-1.82-4.4-2.19-4-.92-8.26-.27-12.29.09-6.09.54-12.1.67-18.2.34-2.97-.16-5.96-.27-8.91-.67-1.95-.26-3.86-.71-5.42-1.57-.7-.39-1.25-.77-1.99-1.49-.89-.86-1.64-1.93-2.19-3.04-1.16-2.32-1.69-4.84-1.88-7.41-.32-4.31,0-9,.93-13.22s3.47-9.04,8.19-9.59c2.52-.29,5.3.12,7.97.19,3.14.09,6.27-.08,9.38-.53,7.07-1.02,13.88-3.33,20.23-6.59,2.77-1.42-.48-4.64-2.63-3.54-5.67,2.91-11.7,5.12-18,6.15-2.52.41-5.09.69-7.64.71-2.75.01-5.48-.31-8.22-.31-2.43,0-4.78.3-6.95,1.45-2.45,1.29-4.26,3.44-5.48,5.9-2.13,4.27-2.44,9.25-2.7,13.94-.29,5.21.28,10.61,3.08,15.13s7.32,6.6,12.33,7.46c2.65.46,5.36.6,8.05.75,3.55.19,7.09.38,10.64.34,5.37-.06,10.69-.69,16.04-1.02.57-.04,1.15-.06,1.72-.08.49-.01.17,0,.07,0,.29,0,.59,0,.88.01.48.02.96.05,1.44.11.19.02.38.05.58.08.58.09-.43-.12.08.02.24.06,1.4.5.73.19.21.1,1.21.7.68.32.75.53,1.11.91,1.43,1.66.51,1.18.67,2.45.84,3.72.25,1.9.48,3.8.44,5.72-.06,3.09-.74,6.12-1.84,9-.88,2.29,3.9,3.77,4.79,1.44h0Z"/><path class="cls-1" d="M7,74.67c2.57-7.69,8.27-13.71,15.93-16.45,2.99-1.07,6.31-1.82,9.65-2,3.58-.19,7.12-.66,10.58-1.63,4.95-1.39,9.63-3.53,14-6.24l-3.34-1.06c-1.84,3.75-4.12,7.36-7.2,10.22-2.28,2.11-4.7,3.61-7.48,4.47-3.35,1.03-6.95.82-10.43,1.19-4.73.5-9.38,1.71-13.73,3.65s-8.24,4.45-11.87,7.43c-.75.61-.45,1.47.38,1.77,1,.36,2.28-.02,3.07-.67,6.61-5.42,14.45-8.98,23.02-9.65,3.86-.3,7.67-.38,11.39-1.61,3.12-1.03,6.01-2.77,8.49-4.92,3.6-3.13,6.29-7.17,8.39-11.43.94-1.92-2.46-1.61-3.34-1.06-3.75,2.32-7.76,4.28-12.03,5.46-3.38.94-6.74,1.25-10.23,1.48-8.19.55-16.89,3.84-22.66,9.79-3.17,3.27-5.47,7.21-6.91,11.51-.57,1.71,3.8,1.35,4.33-.25Z"/><path class="cls-1" d="M6.59,5.93C2.25,11.97-1,19.24.28,26.82c.62,3.65,2.38,6.82,4.15,10.02,2.04,3.69,3.64,7.49,4.22,11.69.72,5.17-.03,10.39-1.73,15.29-.26.76,3.39,3.19,3.98,2.66,6.1-5.52,12.67-13.38,10.77-22.24-.81-3.78-3.4-6.94-5.17-10.3-1.67-3.15-2.99-6.48-3.94-9.92-1.4-5.08-1.99-10.34-1.99-15.6,0-.7-1.75-1.62-2.26-1.92-.25-.15-1.73-1.03-1.73-.42,0,8.16,1.48,16.3,5.01,23.7,1.7,3.57,4.34,6.8,5.65,10.54,1.4,4.01.68,8.34-1.13,12.09-2.14,4.43-5.57,8.14-9.19,11.41l3.98,2.66c2.94-8.49,2.63-17.51-1.53-25.54-1.65-3.18-3.64-6.21-4.63-9.7-.86-3.06-.96-6.26-.37-9.38.92-4.86,3.34-9.3,6.2-13.28.39-.55-3.53-3.3-3.98-2.66Z"/><path class="cls-1" d="M74.89,73.91c2.05,5.76,5.33,11.37,10.72,14.57,3.07,1.82,6.48,2.43,9.95,3.02,4.02.68,7.79,1.91,11.23,4.15s6.07,4.99,8.35,8.2c.53.75,4.61-.6,4.49-1.51-.9-6.63-3.02-14.13-9.03-17.9-2.82-1.77-6.04-1.98-9.25-2.45s-6.57-1.37-9.7-2.61c-4.45-1.76-8.57-4.22-12.39-7.1-.61-.46-2.3.3-2.89.54-.28.11-1.89.79-1.34,1.2,5.95,4.48,12.66,7.86,19.98,9.35,3.24.66,6.78.61,9.83,1.98,3.26,1.48,5.62,4.27,7.2,7.42,1.72,3.45,2.59,7.27,3.11,11.07l4.49-1.51c-4.3-6.07-10.38-10.62-17.73-12.2-3.45-.74-7.01-.99-10.27-2.48-2.38-1.09-4.51-2.68-6.26-4.62-2.76-3.06-4.61-6.8-5.99-10.65-.29-.81-4.77.72-4.49,1.51Z"/><path class="cls-1" d="M102.05,57.15c4.62-2.72,9.16-5.74,12.98-9.54,2.33-2.32,4.51-5,5.72-8.09.94-2.4,1.32-4.95.94-7.51-.56-3.82-2.31-7.36-3.27-11.09-1.47-5.7-1.5-11.73-.48-17.51.25-1.45-2.14-4.48-3.65-3.02-6.12,5.95-9.88,13.9-7.92,22.52.84,3.7,2.53,7.17,2.78,10.99.18,2.78-.42,5.59-1.54,8.13-1.95,4.43-5.2,8.09-8.76,11.3-1.69,1.53,1.54,5.34,3.22,3.82,5.39-4.86,10.38-11.11,11.12-18.59.39-4-.57-7.75-1.8-11.52-1.3-3.98-1.96-7.73-.85-11.87s3.86-7.94,6.98-10.96l-3.65-3.02c-.92,5.22-1,10.64-.1,15.87.71,4.15,2.28,7.95,3.44,11.97.24.82.32,1.13.44,2.03.05.36.08.72.09,1.08,0,.17,0,.34.01.51,0,.49.03-.44,0,.06-.07,1.06-.23,2.11-.55,3.13.08-.26-.17.45-.21.57-.1.27-.22.53-.34.79-.3.66-.65,1.3-1.03,1.92-.85,1.38-1.85,2.64-2.96,3.82-3.95,4.21-8.85,7.47-13.8,10.38-1.02.6-.2,2.37.32,3,.72.86,1.86,1.44,2.9.83Z"/><path class="cls-1" d="M69.77,59.33c4.47.36,8.96.44,13.44.21,3.8-.19,7.56-.74,11.35-1.08.68-.06,1.36-.11,2.04-.12.42,0-.11-.03.43.01.11,0,1.05.12.62.04.95.17,1.56.41,2.39,1.21s1.23,2.03,1.6,3.14c.59,1.8,1.27,3.55,2.18,5.22,2.08,3.84,5.03,7.18,8.42,9.91l2.01-2.21c-3.29.14-6.94.07-9.98-1.01-1.8-.64-3.34-1.63-4.31-3.04-1.04-1.5-1.1-3.37-2.1-4.87-.91-1.36-2.23-2.44-3.72-3.1-2.95-1.33-6.3-1.29-9.43-1.85-4.36-.78-8.48-2.37-12.25-4.69-1.02-.63-2.33-.71-3.45-.25-.65.27-1.8,1.3-.76,1.94,3.5,2.16,7.21,3.87,11.19,4.91,2.12.55,4.28.89,6.45,1.17,1.5.19,3,.28,4.39.77s2.53,1.49,3.18,2.8c.76,1.52.9,3.16,1.97,4.55,1.39,1.81,3.33,3.06,5.45,3.85,4.32,1.6,9.02,1.75,13.57,1.56.87-.04,3.45-1.05,2.01-2.21-3.08-2.48-5.71-5.43-7.65-8.9-1.01-1.79-1.76-3.67-2.39-5.62-.43-1.31-.9-2.48-1.87-3.49-2.05-2.13-5.03-2.62-7.86-2.59-3.67.03-7.33.75-10.99,1.03-4.92.39-9.84.35-14.76-.04-.92-.07-2.63.14-3,1.17s1.11,1.5,1.86,1.56Z"/><path class="cls-1" d="M39.21,13.6c1.44-1.61,2.9-3.27,4.76-4.4.82-.5,1.74-.94,2.69-1.12.68-.13,2.02-.33,2.65.08,1.01.65.69,3.22.37,4.26-.66,2.21-2.35,3.99-3.93,5.59-.98,1,2.85,3.65,3.9,3,.79-.38.35-.77-1.33-1.15.09.23.18.47.25.71.18.57.33,1.16.49,1.74.34,1.23.69,2.46,1.03,3.68.53,1.9,1.24,4.17-.11,5.91-1.14,1.46-3.28,1.92-5.04,1.77s-2.96-.83-3.99-2.15c-.44-.57-2.94-2.45-3.63-1.35-1.42,2.25-3.48,3.99-6.04,4.79-1.83.57-4.33.64-5.81-.78-3.47-3.33-.77-9.4,3.5-10.35,1.28-.28-1.05-2.36-1.23-2.48-3.17-2.14-3.02-6.94-.86-9.7,1.74-2.22,6.13-4.1,7.83-.93.51.96,1.86,1.82,2.92,1.99s1.32-.39.86-1.26c-2.77-5.18-10.5-7.81-15.03-3.41-4.86,4.72-1.79,11.81,3.07,15.09l-1.23-2.48c-2.93.65-4.98,3.2-5.55,6.07-.66,3.35,1.21,6.57,3.71,8.66,2.7,2.26,6.32,3.74,9.87,3.14s6.29-2.64,8.11-5.53l-3.63-1.35c2.11,2.7,5.42,4.72,8.82,5.23,2.76.42,6.65-.07,7.95-2.96.69-1.53.48-3.17.11-4.75-.41-1.79-.97-3.56-1.46-5.33s-.89-3.37-2.28-4.62c-1.18-1.06-3.4-2.36-4.97-1.38l3.9,3c2.06-2.1,4.13-4.5,4.36-7.57.25-3.25-1.86-5.96-4.63-7.43-2.38-1.26-5.21-1.56-7.75-.58-2.77,1.07-4.87,3.4-6.8,5.56-.92,1.03,3.05,4.03,4.14,2.81h0Z"/><path class="cls-1" d="M34.89,18.63c-1.22,1.16-2.35,2.6-2.34,4.37,0,.79.25,1.64.78,2.24,1.01,1.14,2.69,1.69,4.1,2.08,1.02.28,2.4.64,3.4.09.61-.34,1.02-.89,1.2-1.56s.14-1.38-.04-2.04c-.1-.35-.22-.7-.42-1-.48-.7-1.39-1.07-2.14-1.36-.82-.33-1.69-.6-2.57-.72-.35-.05-.69-.07-1.04-.01-.4.07-.76.3-1.04.59-.7.73-.61,1.84-.52,2.77.02.25.42.45.59.54.5.29,1.09.51,1.63.69s1.14.36,1.72.43c.1.01.82.11.8-.08-.1-1.04-.17-2.24.74-2.96l-.12.09c.13-.09.27-.18.42-.23.06-.02.12-.03.18-.05.11-.02.12-.02.05-.01-.22.03-.45,0-.67-.08l-1.22-.34-.45-.16-1.01-.46c-.11-.06-.26-.24-.13-.08.08.1.15.2.21.31.11.2.2.41.27.63l-.05-.15c.35,1.17.25,2.65-.78,3.45l.12-.09c-.25.18-.51.28-.8.36-.05.01-.25.02-.05.01-.03,0-.17-.02-.19,0l.21.02c-.23-.03-.13,0,.31.07.72.16,1.51.39,2.14.76-.19-.11.05.02.09.07-.05-.05-.14-.1-.19-.14-.13-.1.15.17-.04-.04-.04-.05-.09-.09-.13-.14-.23-.28-.38-.6-.5-.94l.05.15c-.65-2.13.7-4.05,2.17-5.45.14-.14-.65-.58-.59-.54-.5-.29-1.09-.51-1.63-.69s-1.14-.36-1.72-.43c-.25-.03-.6-.11-.8.08h0Z"/><path class="cls-1" d="M84.61,40.12c1.47,6.16,10.78,9.29,15.57,5.02,2.19-1.95,2.97-5.1,1.5-7.72-1.68-2.98-5.22-4.46-8.53-4.49l3.33,1.88c4.1-3.64,9.52-9.43,5.72-15.21-1.92-2.92-5.95-4-9.27-3.66-3.55.37-6.23,2.65-8.72,5l4.69,1.13c-.52-3.24-4.59-4.62-7.33-5.33-3.24-.85-7.32-1.54-10.35.3-2.6,1.58-3.17,4.92-2.44,7.68.91,3.45,3.89,5.96,6.52,8.15l-.08-.76c-2.37,1.67-4.65,3.87-5.46,6.75-.68,2.4,0,5.17,1.8,6.93,2.25,2.2,6,2.98,8.98,2.09,3.23-.96,5.25-3.91,8.3-5.18,1-.41-.04-1.18-.58-1.45-.89-.44-2.42-.88-3.4-.47-2.3.95-3.98,2.7-6.02,4.06-.54.36-1.1.68-1.71.91-.25.1-.5.17-.76.24-.15.04-.3.07-.45.08l.15.04c.02-.07.25.18.27.06,0-.04-.42-.35-.48-.41-.33-.33-.58-.7-.79-1.12-2.26-4.38,1.28-8.53,4.71-10.94.27-.19.12-.59-.08-.76-3.53-2.92-8.47-7.59-5.6-12.64,1.21-2.13,3.57-2.48,5.77-2.06,1.91.37,3.85.98,4.2,3.16.19,1.21,3.9,1.87,4.69,1.13,1.83-1.72,3.78-3.65,6.28-4.32.33-.09.66-.16,1-.18.1,0,.75.07.36-.04-.35-.1.09.08.17.14.17.15.35.29.51.46.69.75,1.08,1.74,1.29,2.72,1.06,5.02-3.11,8.88-6.49,11.87-1.11.98,2.89,1.88,3.33,1.88.43.01.47,0,.12-.02-.28-.1-.3-.09-.08,0,.18.29.75.57.99.84.62.69,1.06,1.56,1.25,2.47.37,1.78-.37,3.65-1.64,4.9-.67.66-1.47,1.19-2.37,1.46-.26.08-.5.11-.77.17-.73.16-.01.1-.24,0-1.66-.67-2.67-2.51-3.07-4.16-.31-1.31-5.12-1.99-4.8-.64h0Z"/><path class="cls-1" d="M80.25,30.28c.34.72.81,1.44,1.42,1.95.5.42,1,.76,1.61,1.01.83.34,1.7.51,2.59.58,1.09.08,2.35-.1,3.24-.78.58-.44.99-1.11.94-1.87-.03-.38-.09-.77-.28-1.1-.27-.48-.62-.85-1.08-1.15-.69-.46-1.54-.71-2.35-.84s-1.68-.12-2.5.07c-.54.13-1,.37-1.43.71-.32.25-.5.57-.65.94-.11.27-.15.57-.12.87.03.39.11.77.31,1.11.85,1.45,2.7,1.98,4.28,2.05,1.19.05,2.65-.19,3.44-1.19.24-.3.11-.63-.12-.88-.33-.36-.95-.61-1.4-.73-.62-.16-1.28-.27-1.92-.19-.41.05-.96.13-1.24.48-.09.11-.19.21-.3.3l.29-.22c-.15.11-.31.2-.48.27l.42-.16c-.12.04-.23.07-.35.1l.53-.09c-.08.01-.16.02-.24.03.51,0,.65-.01.42-.02-.24-.02-.08,0,.48.05-.35-.05.8.19.35.07.47.18.61.22.4.14-.04-.02-.07-.03-.11-.05l.47.25c-.09-.05-.17-.11-.25-.17l.35.28c-.13-.11-.23-.23-.33-.36l.21.3c-.16-.24-.26-.51-.3-.79l.04.3c-.05-.37,0-.73.16-1.07l-.13.28c.12-.22.27-.4.47-.56l-.29.22c.13-.1.27-.17.43-.24l-.42.16c.12-.04.23-.08.35-.1l-.53.09c.08-.01.16-.02.24-.03-.51,0-.65.01-.42.02.24.01.08,0-.48-.05.35.05-.8-.19-.35-.07-.47-.18-.61-.22-.4-.14.04.02.07.03.11.05l-.47-.25c.07.04.14.08.2.13l-.35-.28c.13.1.23.21.33.34l-.21-.3c.17.25.28.53.32.83l-.04-.3c.04.34,0,.68-.14.99l.13-.28c-.12.24-.29.44-.5.61l.29-.22c-.15.11-.31.2-.49.26l.42-.16c-.14.05-.28.09-.42.11l.53-.09c-.06,0-.13.02-.19.02-.27.03.47,0,.42,0-.06,0-.13,0-.19,0-.03,0,.8.09.44.04-.22-.03-.39-.15.43.1-.05-.02-.1-.03-.15-.04-.24-.07.64.26.37.13-.06-.03-.13-.06-.19-.09l.47.25c-.17-.09-.33-.19-.48-.31l.35.28c-.32-.26-.59-.56-.83-.9l.21.3c-.18-.26-.33-.54-.47-.82-.19-.4-.65-.66-1.03-.83-.56-.25-1.27-.4-1.89-.41-.5,0-1.12,0-1.55.27-.27.17-.55.44-.38.81h0Z"/><path class="cls-1" d="M22.96,88.02c-1.92-1.01-3.76-2.21-5.36-3.69-.08-.08-.51-.57-.43-.37-.13-.32.06-.97.21-1.26.37-.69,1.14-1.18,1.81-1.52,3.53-1.76,8.32-1.39,11.78.32.27.13.49.11.6-.17,1.59-4.29,7.28-6.28,11.41-4.87.44.15.89.33,1.3.56.13.08.92.73.67.44-.39-.46,0,.27.05.58.08.48.06.96,0,1.44-.32,2.26-1.87,4.04-3.77,5.19-.96.58,2.2,3.84,2.98,3.91.98.09,1.96.31,2.8.85.28.18.59.64.29.13.14.24.27.48.36.75.65,2-.6,3.52-2.36,4.28-4.13,1.78-8.41-.64-12.51-1.26-.96-.15.78,2.41.82,2.45l.2.25-.96-1.5c.58,1.34-3.31,3.46-4.14,3.95-1.6.96-3.4,1.67-5.3,1.4-.73-.1-1.41-.76-.51.36s.38.23.4-.5c.02-.91.22-1.85.48-2.72.63-2.15,1.8-4.05,3.26-5.73.81-.93-2.61-4.51-3.18-3.85-2.05,2.35-3.64,5.31-3.91,8.47s1.93,6.42,4.77,7.55,5.56-.06,7.86-1.56c1.17-.77,2.7-1.61,3.36-2.89.79-1.52-.29-2.99-1.2-4.18l.82,2.45c3.09.47,6.06,1.93,9.23,1.89,2.1-.03,4.86-.64,5.96-2.64,1.39-2.52-.54-5.71-2.12-7.67-1.82-2.26-4.25-4.01-7.19-4.27l2.98,3.91c2.38-1.44,4.17-3.98,4-6.85-.19-3.17-2.72-6.18-5.28-7.86-4.9-3.21-12.75-1.88-14.94,4.03l.6-.17c-2.49-1.24-5.32-1.75-8.09-1.53-2.2.17-5.58.72-6.65,2.95-1.23,2.56,1.75,5.67,3.42,7.27,2.28,2.18,4.87,3.97,7.66,5.43.99.52.38-1.03.2-1.33-.55-.97-1.38-1.94-2.38-2.47h0Z"/><path class="cls-1" d="M30.92,83.75c-.07.54-.13,1.13.05,1.66.14.43.35.78.64,1.14.62.77,1.46,1.4,2.3,1.9s1.8.94,2.8.83c.51-.06,1.03-.28,1.43-.6s.62-.77.6-1.29c-.01-.31-.14-.62-.29-.88-.36-.62-.89-1.12-1.43-1.58-.63-.54-1.35-1.01-2.09-1.38-.51-.25-1.07-.48-1.64-.53-.77-.07-1.43.08-2.09.49-.46.29-.87.73-1.03,1.26-.2.64-.08,1.27.29,1.84.49.75,1.19,1.36,1.91,1.88s1.57,1.03,2.47,1.25c.64.16,1.3.09,1.88-.23.47-.26.76-.76.6-1.31s-.58-1.04-.98-1.44c-.72-.72-1.59-1.34-2.5-1.8-.82-.41-1.78-.73-2.7-.45-.57.17-1.14.52-1.47,1.03-.4.62-.31,1.34.05,1.94.48.8,1.24,1.44,1.98,1.98.67.49,1.41.94,2.2,1.21.83.29,1.7.36,2.5-.04.59-.29,1.14-.72,1.27-1.39.06-.32-.12-.56-.32-.81-.36-.45-.86-.86-1.32-1.19s-.99-.68-1.55-.87c-.13-.05-.82-.3-.87-.05-.12.59-.58,1.03-1.09,1.3l.17-.09c-.4.2-.83.3-1.28.28l.3.02c-.14-.01-.28-.04-.42-.07-.19-.04.38.13.14.04.34.16.44.21.3.14-.17-.08-.05-.02.36.21.36.23.7.48,1.02.76.03.02.57.63.38.38-.16-.21.19.36.09.12-.03-.06-.06-.12-.09-.18l.11.27c-.08-.21-.11-.41-.08-.63l-.03.19c.1-.62.57-1.09,1.1-1.37l-.17.09c.38-.19.78-.29,1.2-.28l-.3-.02c.12,0,.23.03.34.05.18.02-.35-.12-.18-.06.19.07-.51-.25-.23-.11-.71-.37-1.39-.87-1.91-1.47.16.18-.16-.32-.11-.15.01.05.05.09.07.14l-.11-.27c.05.14.06.26.05.41l.03-.19c-.06.35-.3.59-.61.76l.17-.09c-.33.17-.7.24-1.07.22l.3.02c-.09,0-.18-.03-.27-.04-.2-.03.19.06.2.06.43.16.8.43,1.17.69.33.24.64.47.92.77.13.15.17.18.11.11-.05-.06-.03-.04.06.08.18.24-.01-.06-.05-.14l.11.27c-.1-.26-.13-.53-.1-.8l-.03.19c.12-.73.66-1.29,1.3-1.63l-.17.09c.43-.22.89-.33,1.37-.31l-.3-.02c.08,0,.16.01.23.03.04,0,.19.06.23.05-.05.01-.41-.13-.14-.04.15.06.05.01-.3-.14.13.07.09.04-.13-.08-.37-.21-.72-.45-1.05-.72-.17-.13-.33-.28-.47-.45-.14-.16-.17-.19-.08-.09.16.2-.2-.36-.09-.12.03.06.06.11.09.17l-.11-.27c.08.2.11.4.09.62l.03-.19c-.08.53-.47.89-.92,1.14l.17-.09c-.41.21-.87.31-1.33.28l.3.02c-.09,0-.18-.02-.27-.04-.25-.04.16.05.2.06-.28-.09.5.25.52.26.39.22.72.47,1.06.75.25.18.47.38.66.61l-.04-.05s.21.35.13.17c-.03-.06-.06-.12-.09-.18l.11.27c-.22-.57-.17-1.19-.1-1.78.04-.28-.57-.86-.7-.99-.44-.44-.99-.86-1.53-1.18-.42-.25-.9-.56-1.39-.63l-.3-.02c-.16.03-.23.12-.2.28h0Z"/></g></svg>