<?xml version="1.0" encoding="UTF-8"?><svg id="Calque_2" xmlns="http://www.w3.org/2000/svg" viewBox="0 0 44.33 41.78"><defs><style>.cls-1{fill:#260801;stroke-width:0px;}</style></defs><g id="Calque_9"><path class="cls-1" d="M13.47,21.14c-2.21-2.05-4.18-4.36-5.87-6.84-1.41-2.08-3.74-5.35-2.23-7.93,1.12-1.91,3.79-1.9,5.71-1.6,2.76.43,5.23,1.76,7.29,3.61.9.8,3.99.63,4.54-.61,1.14-2.56,3.42-4.84,6.25-5.38,2.56-.49,5.18,1.13,6.8,2.99,4.12,4.75,2.83,12.49-2.9,15.34-.84.42-.85,1.33.12,1.62,2.52.76,4.25,2.83,5.26,5.19s1.66,6.06-.35,8.1c-1.42,1.44-3.38,1.09-5.09.4-3.01-1.22-5.61-3.25-8.64-4.44-.82-.32-4.88-.29-4.08,1.42,1.27,2.75-3.54,4.88-5.38,5.75-.82.39-1.75.8-2.67.65-1.15-.19-2.11-1.02-2.6-2.06-1.18-2.51.01-5.88.99-8.27,1.11-2.71,2.72-5.16,4.76-7.26.77-.79-.28-1.36-1.01-1.5-.98-.19-2.62-.12-3.38.66-2.69,2.77-4.77,6.09-5.93,9.79-1.07,3.42-1.62,7.76,2.03,9.82s8.1,1.2,11.63-.57c2.82-1.41,8.14-4.04,6.31-7.99l-4.08,1.42c3.69,1.45,6.79,4.15,10.7,5.1,3.37.81,7.56.53,10.37-1.69s2.66-6.34,1.5-9.49-3.58-5.92-6.94-6.93l.12,1.62c5.51-2.75,8.36-9.49,5.65-15.18C39.44.73,31.87-1.28,25.73.78c-3.32,1.12-6.24,3.48-7.67,6.72l4.54-.61c-2.76-2.47-6.28-3.95-9.94-4.41s-7.86-.23-10.78,2.06c-3.17,2.48-1.74,6.42.03,9.28,2.02,3.27,4.53,6.18,7.34,8.79,1.07.99,5.82,0,4.22-1.48h0Z"/><path class="cls-1" d="M21.4,14.96c-.21.91-.35,1.81-.26,2.75.16,1.56,1.25,2.99,2.37,4,.84.75,1.86,1.37,3.02,1.37.68,0,1.43-.27,1.94-.73,1.62-1.44.51-3.87-.58-5.24-.9-1.14-2.16-2.39-3.64-2.73-.92-.21-1.81-.06-2.62.43-.7.43-1.2,1.11-1.48,1.88-.34.94-.16,2.01.22,2.9.71,1.64,2.16,3.2,3.83,3.88.77.31,1.71.3,2.41-.18s.89-1.41.69-2.19c-.4-1.58-1.61-2.99-2.9-3.95-.84-.63-1.91-1.13-2.99-.9-.8.17-1.57.63-2,1.34-.6.97-.56,2.01-.17,3.06.25.67.65,1.31,1.1,1.86.71.88,1.53,1.69,2.53,2.24s2.02.66,3.04.24c.86-.35,1.47-1.06,1.73-1.95.1-.34-.24-.94-.39-1.2-.31-.53-.77-1.08-1.23-1.48-.32-.28-1.71-1.45-1.97-.57-.04.15-.1.3-.17.44l.11-.22c-.32.6-.83,1.03-1.45,1.29l.23-.09c-.21.08-.42.14-.64.16-.11.01-.22.02-.33.02-.09,0-.4-.07-.1,0-.09-.02-.18-.05-.28-.07-.28-.06.37.18-.04-.02-.31-.15.42.29.13.08.34.29.43.35.25.2.18.16.34.33.49.52.17.21.2.25.09.11.24.37.3.46.18.26-.18-.32.19.48.07.13-.15-.43.03.24-.02-.04-.01-.09-.03-.19-.05-.28-.05-.26-.03.2,0-.05.01-.13.02-.25.04-.38.04-.22.12-.43.22-.64l-.11.22c.33-.61.85-1.06,1.5-1.31l-.23.09c.35-.12.68-.16,1.04-.16.27,0-.18-.07.04.01.06.02.19.08.25.08-.09,0-.37-.16-.12-.03.14.08.05.03-.25-.16.13.1.1.07-.09-.08-.08-.07-.7-.69-.45-.41-.31-.39-.41-.5-.29-.34.11.15.04.05-.22-.32.17.28-.21-.48-.09-.15-.04-.09-.09-.38-.04-.12,0,.01.05.2.04.21-.01,0,.02-.29-.01,0-.02.17-.07.33-.13.48l.11-.22c-.18.35-.46.59-.81.74l.23-.09c-.17.06-.33.11-.51.13-.09.01-.18.01-.27.01-.06,0-.12,0-.18-.01l.15.02s-.2-.05-.26-.07c-.31-.08.33.17.07.03.36.2.65.48.93.78-.17-.19-.09-.1.23.28.23.35.3.45.2.29-.11-.18.25.5.07.1-.04-.12-.03-.06.05.17-.01-.05-.03-.1-.04-.15-.02-.1-.03-.2-.05-.3,0-.09-.01-.07,0,.07,0-.05,0-.1,0-.15,0-.42.11-.83.29-1.21l-.11.22c.38-.75,1-1.33,1.78-1.64l-.23.09c.22-.08.44-.14.66-.17.13-.02.26-.02.39-.02.14,0,.27.04.06,0,.12.03.23.06.35.09.31.09-.33-.16-.06-.02.3.16-.49-.3-.06-.04-.35-.29-.43-.36-.26-.2-.35-.36-.45-.46-.31-.31.14.15.05.04-.28-.34.14.19.08.09-.18-.28.22.41-.09-.26-.04-.11.02.04.04.08.05.12.06.16.05.11-.04-.15,0,.1.05.21.07.31,0,.04.01.09.02.13.01.14.01.12,0-.06.04.04-.01.26-.02.31-.03.22-.1.43-.19.63l.11-.22c-.27.52-.71.88-1.25,1.09l.23-.09c-.2.08-.41.13-.63.16-.11.01-.22.02-.32.02-.05,0-.11,0-.16,0-.14-.01-.11,0,.09.02-.01-.03-.27-.06-.31-.07-.4-.13.28.15.03.01.33.22.41.27.24.15.25.19.49.4.7.64-.16-.17-.08-.08.24.29.12.15.22.3.3.48.09.18.1.19.03.05-.06-.16-.05-.12.03.13.02-.09-.07-.29-.09-.39,0-.06-.03-.49-.03-.19,0-.14,0-.28,0-.42.03-.57.15-1.14.28-1.69.09-.36-.23-.92-.39-1.2-.31-.53-.77-1.08-1.23-1.48-.29-.25-1.76-1.46-1.97-.57h0Z"/></g></svg>