<?xml version="1.0" encoding="UTF-8"?><svg id="Calque_2" xmlns="http://www.w3.org/2000/svg" viewBox="0 0 127.83 124.18"><defs><style>.cls-1{fill:#260801;stroke-width:0px;}</style></defs><g id="fleur"><path class="cls-1" d="M66.08,8.01c1.55,8.32.33,16.56-3,24.3-3.11,7.22-8.6,14.36-16.77,15.92-3.21.61-6.96.44-10.35.89-4.77.62-9.22,2.17-13.53,4.26s-8.37,4.76-11.53,8.51c-3.42,4.05-5.33,8.9-6.31,14.06-1.45,7.66-2.05,15.83-1.69,23.62s1.63,15.95,7.47,21.22c2.44,2.2,5.57,3.36,8.83,3.4,2.91.04,5.81-.9,8.51-1.9,6.9-2.56,13.51-5.52,21.02-5.5,4.23.01,8.29,1.06,12.24,2.4,4.2,1.42,8.34,2.41,12.77,2.75,10.06.77,20.01-1.27,28.25-7.35,1.65-1.22,3.18-2.58,4.64-4.03.84-.83.36-2.36-.36-3.05-.91-.88-2.03-1-3.14-.44-5.31,2.67-11.89,4.25-17.88,3.15-2.53-.47-4.47-1.22-6.91-2.11-3.1-1.14-6.22-2.21-9.43-3-5.95-1.46-12.22-2.43-18.36-2.53-6.48-.11-13.37,1.12-18.56,5.25-2.8,2.23-5.42,4.49-8.55,6.26-3.34,1.89-6.94,3.27-10.64,4.26-1.25.33-1.65,1.87-1.17,2.95.55,1.22,1.92,1.82,3.18,1.48,6.81-1.81,13.19-5.06,18.56-9.62,2.17-1.84,4.34-3.43,7.05-4.4,3.02-1.08,6.2-1.47,9.38-1.52,6.04-.11,12.25.92,18.12,2.3s10.87,4.04,16.54,5.18c7.4,1.49,15.11-.41,21.74-3.75l-3.5-3.49c-6.75,6.68-16.01,10.11-25.53,10.02-3.78-.04-7.8-.48-11.65-1.56s-7.6-2.65-11.61-3.31c-8.13-1.33-15.92.44-23.48,3.39-2.85,1.11-5.68,2.36-8.65,3.1-.86.21-.63.17-1.44.29-.66.09-1.31.12-1.97.13-.14,0-.27,0-.41-.01.48.03.02,0-.1-.02-.3-.04-.61-.08-.91-.14-.27-.06-.54-.12-.8-.2.49.14.03,0-.09-.04-.2-.08-.4-.16-.59-.25-1.09-.49-2.19-1.33-2.96-2.21-1.11-1.27-1.66-2.23-2.33-3.76-1.44-3.26-2.04-6.9-2.35-10.5-.65-7.31.05-14.76,1-22.02.62-4.77,1.75-9.48,4.54-13.49s6.34-6.67,10.48-8.78c3.92-2,8.1-3.64,12.48-4.26,3.52-.5,7.11-.34,10.62-.92,8.73-1.44,15.24-7.83,19.2-15.46,4.12-7.92,6.03-16.73,5.24-25.63-.12-1.38-.32-2.76-.57-4.12-.53-2.82-5.31-2.84-4.72.29h0Z"/><path class="cls-1" d="M120.42,120.5c1.69-5.08,2.04-10.16,1.55-15.48-.32-3.51-1.01-7.08-4.54-8.67-2.87-1.29-6.43-.67-9.44-.29-4.93.61-9.83,1.1-14.81.89-4.14-.18-9.2.07-12.93-2.05-4.22-2.4-4.92-7.65-4.78-12.05.09-2.78.41-5.55.67-8.32.22-2.38.39-4.78.86-7.13.15-.74.36-1.46.64-2.16.16-.41.26-.63.39-.85.1-.18.22-.35.34-.52.05-.08.54-.65.29-.39,1.06-1.13,1.75-1.39,3.22-1.55,2.24-.25,4.6-.02,6.9-.07,2.51-.06,5.01-.32,7.47-.84,5.9-1.24,11.44-3.65,16.54-6.84.92-.57,1.8-1.86,1.14-2.93s-2.22-.89-3.13-.33c-4.3,2.69-8.98,4.88-13.96,5.94-4.4.94-8.73.71-13.18.85-4.02.13-7.77,2-9.74,5.61-2.22,4.05-2.2,9.06-2.63,13.54-.51,5.34-1.26,11.08.92,16.16,1.86,4.33,5.79,6.48,10.24,7.3,2.44.45,4.93.56,7.41.68,2.97.14,5.93.2,8.9.05,4.22-.21,8.39-1.03,12.61-1.26.56-.03.52-.03.87-.02.37.01.75.03,1.12.08.16.02.32.04.47.07.52.09-.1-.06.27.07.28.09.55.2.82.32.5.24-.3-.23.15.09.14.1.29.2.42.32.34.29.34.28.55.57.55.77.74,1.44.92,2.36,1.05,5.41.8,11.15-.95,16.38-.99,2.97,3.64,2.8,4.42.46h0Z"/><path class="cls-1" d="M9.84,83.91c2.86-8.53,9.24-15.33,17.76-18.38,3.61-1.29,7.35-2.19,11.18-2.4,4.03-.22,8-.71,11.9-1.78,5.46-1.49,10.66-3.91,15.46-6.88l-3.58-2.49c-3.48,7.09-8.64,14-16.4,16.49-3.87,1.24-7.96,1.07-11.99,1.47-5.33.53-10.49,1.9-15.4,4.04s-9.2,4.96-13.23,8.27c-.93.76-.77,2.13.17,2.79,1.05.74,2.56.57,3.53-.22,7.49-6.14,16.39-10.21,26.1-11.02,4.21-.35,8.48-.32,12.54-1.67,3.54-1.17,6.81-3.07,9.62-5.52,4.07-3.54,7.12-8.11,9.48-12.91,1.06-2.16-1.86-3.55-3.58-2.49-4.33,2.68-8.92,4.89-13.82,6.28-3.98,1.13-7.31,1.46-11.52,1.72-9.14.56-18.81,4.21-25.23,10.84-3.6,3.72-6.23,8.21-7.87,13.1-.87,2.6,4.08,3.14,4.88.75Z"/><path class="cls-1" d="M6.81,11.55C2.48,17.99-.77,25.54.16,33.46c.45,3.81,2,7.26,3.73,10.64,1.92,3.77,3.49,7.51,4.03,11.74.63,4.96.02,10.04-1.53,14.78-.75,2.28,2.08,3.46,3.68,1.9,6.33-6.18,12.79-14.59,11.27-24.02-.63-3.93-2.94-7.19-4.69-10.67-1.62-3.22-2.9-6.61-3.78-10.11-1.3-5.17-1.81-10.49-1.76-15.81.01-1.28-1.71-1.66-2.67-1.42-1.28.32-2.11,1.34-2.12,2.63-.06,8.12,1.24,16.23,4.39,23.74,1.5,3.57,3.76,6.77,5.18,10.36s.94,7.77-.58,11.31c-1.82,4.25-4.87,7.92-8.16,11.12l3.68,1.9c2.84-8.69,2.98-17.93-.83-26.36-1.43-3.17-3.36-6.16-4.36-9.52-.91-3.05-1.04-6.15-.55-9.23.75-4.69,2.9-9.04,5.52-12.95,1.81-2.7-2.28-4.25-3.81-1.96Z"/><path class="cls-1" d="M79.06,74.02c2.04,5.73,5.34,11.13,10.62,14.37,2.84,1.74,6.04,2.48,9.29,3.02,3.71.62,7.15,1.53,10.4,3.51s5.84,4.59,7.96,7.57c1.33,1.87,4.96.7,4.63-1.73-.91-6.67-3.08-13.88-8.91-17.87-2.66-1.82-5.66-2.24-8.77-2.67s-6.26-1.13-9.23-2.26c-4.24-1.62-8.22-3.9-11.84-6.63-1.02-.77-2.38-.69-3.38.13-.76.62-1.48,2.21-.45,2.99,5.69,4.28,12.04,7.63,19.02,9.19,3.05.68,6.48.59,9.4,1.74s5.04,3.59,6.44,6.32c1.65,3.2,2.44,6.72,2.92,10.26l4.63-1.73c-4.29-6.05-10.22-10.64-17.55-12.32-3.11-.71-6.42-.85-9.38-2.13-2.36-1.02-4.04-2.26-5.79-4.15-2.59-2.8-4.27-6.31-5.55-9.88-.43-1.2-2.23-1.12-3.13-.67-1.12.56-1.76,1.71-1.33,2.91Z"/><path class="cls-1" d="M108.38,57.42c4.51-2.89,8.94-6.09,12.6-10.03,2.16-2.32,4.12-4.99,5.21-8,.85-2.34,1.06-4.88.56-7.32-.75-3.66-2.54-7.02-3.61-10.59-1.72-5.73-2.03-11.87-1.22-17.78.13-.93-.66-1.92-1.26-2.54-.33-.34-1.6-1.58-2.15-1.01-2.68,2.81-4.98,6.05-6.33,9.71-1.53,4.15-1.58,8.54-.38,12.77,1.03,3.64,2.82,7.03,3.12,10.86.23,2.87-.31,5.73-1.37,8.4-1.8,4.54-4.99,8.38-8.45,11.75-1.03,1.01,2.3,4.72,3.27,3.78,5.09-4.96,9.77-11.26,10.15-18.62.2-3.9-.91-7.48-2.24-11.09-1.46-3.97-2.27-7.81-1.3-12.02,1.04-4.53,3.63-8.43,6.8-11.76l-3.41-3.54c-.71,5.21-.61,10.54.48,15.69.87,4.12,2.6,7.85,3.89,11.82,1.79,5.51-.54,10.58-4.25,14.84s-8.56,7.81-13.39,10.91c-1.04.67,1.98,4.61,3.27,3.78Z"/><path class="cls-1" d="M78.01,63.92c4.37-.43,8.71-1.08,12.99-2.07,3.81-.87,7.5-2.11,11.27-3.13,2.31-.63,4.34-1.18,6.38.22.97.66,1.5,1.68,2.04,2.69.9,1.67,1.88,3.27,3.06,4.76,2.73,3.43,6.17,6.22,10.01,8.32l2.14-3.47c-4.83,1.08-12.11,2.42-15.89-1.69-1.22-1.32-1.62-3.11-2.91-4.39-1.13-1.11-2.57-1.89-4.12-2.23-3.17-.69-6.51-.04-9.72-.07-4.48-.04-8.81-1.02-12.97-2.66-1.82-.72-5.27,2.68-2.78,3.66,3.73,1.47,7.62,2.39,11.62,2.68,2.02.15,4.04.1,6.06,0,1.48-.08,3.02-.24,4.5-.03s2.79.83,3.73,1.91c1.2,1.37,1.63,3.14,2.98,4.45,1.55,1.5,3.61,2.38,5.71,2.79,4.34.85,8.87.18,13.13-.77.9-.2,1.81-.8,2.27-1.6.31-.53.58-1.49-.13-1.88-3.39-1.85-6.5-4.22-8.98-7.19-1.3-1.56-2.4-3.25-3.36-5.03-.65-1.21-1.29-2.37-2.38-3.25-2.14-1.74-4.97-1.84-7.56-1.37-3.69.67-7.25,2.08-10.88,3.01-4.74,1.23-9.57,2.09-14.43,2.56-1.2.12-2.46.76-2.98,1.9-.42.91.07,1.99,1.2,1.88Z"/><path class="cls-1" d="M36.77,17.58c-1.34-3.98-4.87-6.56-8.99-4.72-3,1.34-5.47,3.97-6.83,6.94-2.99,6.54.57,15.73,7.08,18.68s14.76.09,20.5-3.45,11.75-9.1,11.8-16.34c.03-4.3-1.96-8.49-6.8-8.53-5.13-.04-10.2,4.77-10.29,9.88-.02.91,1.71.02,2.02-.15.68-.38,2.17-1.28,2.21-2.22.16-3.86-2-8.99-6.66-7.64s-7.88,5.55-8.19,10.15c-.06.91,1.74,0,2.02-.15.7-.39,2.14-1.27,2.21-2.22.11-1.57.48-3.2,1.47-4.46.17-.22.69-.62.18-.31.45-.27-.19-.04.3-.11.13-.02.3-.04.44-.04,3.15.08,4.12,4.78,4.03,7.13l4.22-2.37c.02-1.15.24-3.44,1.36-4.16,1.03-.66,3.07-.1,4.06.4,2.69,1.38,3.31,4.82,3.22,7.56-.17,5.08-3.62,9.13-7.67,11.67-4.29,2.69-10.19,4.35-15.27,2.78-5.84-1.81-9.39-8.47-9-14.37.15-2.27.98-4.36,2.49-6.07.36-.41.2-.22.14-.15-.2.25.07-.16.12-.09.11.16-.83.16.01.1s1.57.09,2.31.48c1.75.92,2.82,2.78,3.43,4.59.27.79,4.59-1.45,4.12-2.83Z"/><path class="cls-1" d="M101.88,10.22c-4.64-3.37-11.37-4.25-16.86-2.8-2.35.62-4.71,1.72-6.18,3.73-1.86,2.56-1.44,6.49.19,9.05,1.39,2.18,3.7,3.79,6.14,4.59l-.08-3.25c-3.71.8-7.54,3.08-8.7,6.88-.78,2.56.18,5.11,2.22,6.76,2.46,1.99,5.63,2.66,8.73,2.69l-1.39-3.47c-4.65.77-8.94,3.66-10.26,8.32-1.9,6.71,6.01,8.29,10.92,7.99,6.23-.38,12.63-2.85,16.71-7.69,3.72-4.41,5.55-10.36,5.62-16.08.07-6.35-1.86-12.75-7.06-16.72-1.97-1.5-5.57.6-2.98,2.58,3.28,2.5,4.69,7.27,5.03,11.35.39,4.78-.64,9.86-3.01,14.03-2.5,4.4-6.62,7.22-11.51,8.42-2.1.52-4.6.75-6.38.51-.25-.03-.49-.08-.74-.12-.06-.01-.81-.22-.26-.05-.34-.1-.68-.22-1.01-.37.38.18-.42-.31-.24-.18-.11-.08-.35-.47-.11-.08-.2-.32-.31-.61-.33-.99-.15-2.39,1.52-4.76,3.45-5.97,1.47-.92,2.51-1.28,4.16-1.56.94-.16,1.74-1.04,1.36-1.99-.43-1.06-1.7-1.46-2.75-1.47-1.6-.02-3.45-.32-4.63-1.51s-1.05-2.91-.31-4.29c.69-1.28,1.86-2.16,3.15-2.79.32-.15.64-.28.96-.42.45-.19-.04-.02.46-.16.3-.09.6-.17.9-.24,2.03-.44,1.68-2.68-.08-3.25-.28-.09-.55-.2-.83-.31-.58-.24.44.26-.19-.09-.22-.12-.43-.24-.64-.37-.99-.63-1.83-1.55-2.29-2.66-1.03-2.49-.43-5.29,1.8-6.56,4.16-2.37,10.23-1.62,14.03,1.13.91.66,2.62.71,3.48-.07.94-.86.34-1.9-.5-2.51Z"/><path class="cls-1" d="M55.44,83.49c-3.81-4.94-10.21-7.44-16.31-7.39-3.28.03-6.61.55-9.76,1.5-4.3,1.3-8.62,3.44-11.7,6.79-1.98,2.16-3.25,4.79-3.58,7.7s-.05,6.25,1.74,8.61c1.24,1.64,3.21,2.96,5.06,3.81,1.57.72,3.18.64,4.77,0,3.8-1.54,6.4-5.24,6.64-9.3l-4.11-2.69c.47,2.63,1.86,4.64,3.93,6.29,1.75,1.39,4,2.98,6.32,3.08,1.6.06,3.36-.45,4.47-1.63,1.45-1.55,1.58-3.93.76-5.82-.35-.81-1.69-1.49-2.4-1.93-.2-.13-1.82-.99-1.69-.63,1.19,3.25,4.13,5.52,7.13,7.07,2.75,1.42,5.92,1.51,8.49-.37,4.62-3.38,3.34-10.82.4-14.86-.59-.81-1.56-1.41-2.4-1.93-.36-.22-.91-.68-1.33-.71-.05,0-.55-.18-.36.08,2.43,3.35,3.58,8.43,1.58,12.26-1.08,2.06-3.2,3.45-5.5,3.73-.68.08-1.38.05-2.06-.08-.31-.06-.6-.18-.9-.25-.94-.21,1.02.5.94.73.01-.03-1.03-1.25-1.13-1.42-.32-.53-.56-1.09-.78-1.68l-4.09-2.56c1.3,3.02-.31,6.4-3.57,7.03-1.03.2-1.85.08-2.85-.15-.67-.27-.25.03,1.27.9-.15-.14-.28-.29-.41-.45-.31-.38-.58-.81-.81-1.25-.47-.9-.76-1.87-.93-2.87-.11-.62-1.68-1.46-2.13-1.75-.15-.1-1.97-1.1-1.98-.94-.19,3.16-1.7,5.93-4.19,7.86-1.13.88-2.47,1.63-3.9,1.86-.63.1-1.2.04-1.82-.04l-.31-.1c2.01,1.6,2.65,2,1.91,1.19-.21-.32-.43-.62-.6-.96-2.38-4.66-1.05-10.85,2.28-14.67,4.27-4.9,11.08-7.42,17.4-8.25,2.46-.33,4.97-.42,7.43-.11,1.32.17,2.63.44,3.87.93.22.09.45.21.67.29.78.3-.29-.07-.38-.3.16.4.88.92,1.15,1.28.66.86,1.83,1.51,2.76,2.03.26.15,1.6.87,1.01.11Z"/></g></svg>