<?xml version="1.0" encoding="UTF-8"?><svg id="Calque_2" xmlns="http://www.w3.org/2000/svg" viewBox="0 0 41.22 38.76"><defs><style>.cls-1{fill:#260801;stroke-width:0px;}</style></defs><g id="Calque_9"><path class="cls-1" d="M29.67,18.77c3.67,3.29,8,7.57,6.46,13-.67,2.35-2.58,4.09-5.07,4.23-1.04.06-1.51-.29-2.56-1.08-1.11-.83-2.11-1.79-3.1-2.75-.67-.66-2.03-.96-2.92-1.13-.19-.04-1.92-.31-1.58.23,1.78,2.76-4.43,3.71-5.89,4.11s-2.99.88-4.51,1.24c-.74.17-1.48.21-2.22.33-.61-.06-.55,0,.17.16.66.28.76.26.3-.05-.14-.25-.46-.47-.64-.71-3.11-4.25-.87-10.74,2.95-13.7.37-.28-.24-.59-.45-.72-5.28-3.31-7.62-10.47-4.14-15.89,1.49-2.32,4.17-4.35,7.05-4.25.15,0,.77.12.47.03-.29-.09-.06-.01-.01.02.52.32,1.01.62,1.46,1.05,1.03.97,1.77,2.26,2.07,3.64.2.92,4.21,2.31,4.78,1.46,1.41-2.1,3.52-3.68,5.99-4.32.61-.16,1.25-.25,1.89-.26.26,0,.54,0,.79.05.33.07-.22-.08-.05,0,.94.39,1.8,1.24,2.42,2.02,3.08,3.85,1.96,9.86-2.45,12.19-.64.34,1.31,1.13,1.46,1.19.71.27,2.29.92,3.06.51,2.72-1.44,4.47-4.34,4.5-7.42s-1.7-5.77-4.16-7.48C30.06.49,21.66.32,17.52,6.51l4.78,1.46c-.84-3.86-4.21-6.07-7.79-7.2C10.76-.42,6.76-.45,3.67,2.28.81,4.8-.54,8.65.2,12.4c.79,3.98,3.42,7.15,6.8,9.27l-.45-.72c-2.62,2.03-4.33,5.03-4.58,8.36s1.04,6.6,4.17,8.11c1.87.9,4.03,1.43,6.11,1.35s3.97-.76,5.88-1.29,3.93-.93,5.78-1.65c1.39-.55,2.66-1.94,1.7-3.44l-4.5-.91c2.79,2.74,5.82,4.91,9.67,5.87,3.08.77,6.78.88,8.97-1.81,1.77-2.18,1.81-5.38.86-7.91-1.24-3.33-4.05-5.82-6.63-8.13-.8-.72-2.18-1.03-3.21-1.19-.38-.06-1.86-.2-1.09.49h0Z"/><path class="cls-1" d="M16.72,13.96c-1.6,1.53-3.17,3.46-3.21,5.79-.02,1.16.26,2.32.97,3.26.77,1.01,1.96,1.73,3.18,2.04,1.43.37,3.08.38,4.4-.37,1.06-.6,1.7-1.47,2.03-2.64.25-.89.19-1.9-.04-2.79-.37-1.44-1.37-2.6-2.82-3.03-1.81-.53-3.91-.17-5.08,1.4-.85,1.14-.69,2.61-.57,3.93.04.44.7.89,1.03,1.06.54.28,1.29.44,1.89.39.53-.04,1.17-.14,1.57-.52.36-.34.44-.65.4-1.15v-.14c0,.14.01.28.02.42-.07-.78-.11-1.55.13-2.3l-.14.4c.08-.21.18-.38.28-.57.14-.26-.17.14-.03.02.07-.06.15-.13.22-.19.25-.22-.28.14-.08.05s-.55.1-.16.05c-.64.09-1.38.03-1.9-.4.21.18-.06-.04-.08-.11,0,.01.24.3.22.31,0,0-.14-.32-.03-.05.04.1.08.2.12.3.13.37.21.76.25,1.15l-.04-.42c.05.63,0,1.25-.21,1.85l.14-.4c-.1.27-.24.5-.39.74-.16.27.3-.24-.02.02-.08.06-.24.15-.29.23.28-.16.32-.19.14-.1-.07.03-.14.06-.21.09.36-.11.43-.14.21-.08-.24.05-.14.03.28-.03h-.11c-.26.01-.15.02.33.03-.62-.14.51.18.1.04-.58-.19.4.22.04.03-.22-.12-.27-.25.08.08-.11-.1-.25-.19-.36-.28-.15-.14-.11-.1.11.12-.05-.06-.1-.12-.14-.18-.05-.06-.21-.23-.21-.31.1.21.11.22.03.05-.04-.08-.07-.16-.1-.24-.12-.33-.19-.67-.22-1.02l.04.42c-.05-.71.04-1.41.27-2.08l-.14.4c.24-.66.57-1.27.99-1.83.11-.15.23-.29.35-.44.23-.29-.2.2.07-.09.26-.27.52-.54.79-.8.33-.31.53-.69.4-1.15s-.62-.86-1.03-1.06c-.58-.28-1.25-.44-1.89-.39-.53.04-1.17.14-1.57.52h0Z"/></g></svg>