<?xml version="1.0" encoding="UTF-8"?><svg id="Calque_2" xmlns="http://www.w3.org/2000/svg" viewBox="0 0 46.91 42.87"><defs><style>.cls-1{fill:#260801;stroke-width:0px;}</style></defs><g id="Calque_9"><path class="cls-1" d="M9.65,22.51c-3.62.83-6.72,3.52-7.75,7.15s.49,7.33,3.37,9.53c5.75,4.41,17.98,2.89,17.95-6.04l-4.9-.35c2.28,2.57,4.62,5.19,7.52,7.08s6.28,2.79,9.79,2.95c2.86.13,6.03-.23,8.37-2.05,2.53-1.97,3.34-5.17,2.74-8.23-.79-4.11-3.76-7.3-6.54-10.24l-.28.33c3.17-.47,4.82-3.34,5.72-6.15,1.02-3.17,1.81-6.98.87-10.25s-3.72-5.09-6.96-5.77c-3.49-.73-7.38-.75-10.66.78-3.77,1.77-6.52,5.07-9.12,8.21l4.9.35c-2.28-3.25-5.16-6.14-9-7.44-3.63-1.23-8.25-1.54-11.74.29S-.82,7.95.49,11.54c1.52,4.15,5.34,6.87,7,10.94.25.61,1.9.65,2.44.7.17.02,2.65.07,2.53-.22C10.33,17.71,1.16,11.23,6.42,5.14c.87-1.01,2.05-1.76,3.29-2.22.55-.2,1.44-.18,1.92-.44.27-.14-.93-.35-.28-.01.32.16.72.24,1.05.38,3.12,1.34,5.52,4.03,7.43,6.76.38.54,2.16.56,2.7.59s1.79.25,2.2-.24c2.5-3.02,5.14-6.15,8.74-7.89.76-.37,1.53-.65,2.35-.82.4-.09.92-.05,1.29-.18.43-.15-.33-.05-.33-.05.38-.19,1.57.61,1.91.83.69.46,1.3,1.05,1.78,1.72,2.21,3.1,1.47,7.4.63,10.84-.7,2.88-2.05,6.88-5.45,7.39-.17.02-.47.13-.28.33,2.67,2.83,5.51,5.85,6.35,9.78.71,3.35-.25,6.9-3.29,8.74-1.19.72-2.45,1.02-3.81,1.2-.74.1-.15.02-.15.02-.27-.05-.53-.12-.79-.21-.88-.29-1.73-.73-2.52-1.2-3.14-1.89-5.62-4.69-8.03-7.41-.42-.47-4.9-1-4.9-.35,0,3-1.76,5.69-4.4,7.08-.65.34-1.31.51-2,.72-.77.23.43-.29.51.13,0,0-.87-.34-.9-.35-1.31-.62-2.44-1.66-3.28-2.83-3.77-5.23-.34-12.65,5.73-14.04,1.01-.23-.6-.67-.83-.72-1.05-.22-2.35-.41-3.42-.16h0Z"/><path class="cls-1" d="M25.05,15.01c-1.22.59-2.41,1.29-3.31,2.33-.96,1.1-1.52,2.34-1.62,3.79-.07,1.11.33,2.36,1.06,3.2,1.02,1.18,2.53,1.62,4.05,1.49,1.33-.11,2.79-.8,3.61-1.88.45-.59.84-1.23.96-1.98s.09-1.38-.11-2.14c-.33-1.29-1.4-2.28-2.61-2.74-1.52-.58-3.18-.25-4.57.49-.72.39-1.29.98-1.74,1.65s-.62,1.44-.68,2.22c-.11,1.46.64,2.8,1.76,3.68.44.35,1.21.42,1.73.34.6-.09,1.32-.42,1.72-.88.36-.42.69-.97.63-1.55s-.33-1.01-.8-1.38c-.05-.03-.09-.07-.13-.11l.41.37c-.19-.18-.35-.37-.48-.59l.28.48c-.14-.25-.24-.51-.3-.79l.11.54c-.05-.28-.07-.56-.04-.85l-.06.55c.03-.23.08-.44.16-.66l-.22.53c.08-.19.17-.35.29-.52l-.36.48c.11-.13.22-.26.35-.37l-.48.41c.16-.13.32-.23.5-.32l-.59.31c.16-.07.31-.13.48-.18l-.65.17c.22-.06.44-.09.67-.1l-.63.02c.2,0,.39.02.59.06l-.59-.12c.17.04.32.09.48.16l-.51-.25c.21.1.39.22.57.37l-.41-.37c.17.16.31.33.43.52l-.28-.48c.16.27.27.56.33.87l-.11-.54c.04.25.06.51.03.76l.06-.55c-.03.23-.08.44-.16.66l.22-.53c-.07.16-.15.3-.24.45l.36-.48c-.12.16-.25.29-.4.42l.48-.41c-.13.1-.27.19-.41.27l.59-.31c-.18.09-.35.16-.54.21l.65-.17c-.19.05-.38.08-.58.09l.63-.02c-.2,0-.39,0-.58-.04l.59.12c-.19-.04-.37-.1-.55-.18l.51.25c-.18-.09-.34-.2-.5-.32l.41.37c-.19-.17-.35-.37-.49-.59l.28.48c-.18-.3-.29-.62-.36-.96l.11.54c-.06-.35-.07-.7-.04-1.05l-.06.55c.04-.29.11-.58.21-.85l-.22.53c.14-.34.32-.65.53-.94l-.36.48c.24-.32.52-.6.83-.86l-.48.41c.42-.34.87-.63,1.35-.89l-.59.31c.09-.05.18-.09.27-.13.58-.28,1.11-.61,1.44-1.19.25-.45.39-1.12.16-1.61-.5-1.1-1.99-1.53-3.07-1.02h0Z"/></g></svg>