<?xml version="1.0" encoding="UTF-8"?><svg id="Calque_2" xmlns="http://www.w3.org/2000/svg" viewBox="0 0 71.03 33.54"><defs><style>.cls-1{fill:#f1e2c3;stroke-width:0px;}</style></defs><g id="b2"><path class="cls-1" d="M8.08,1.5c-.02.08,0,.26-.02.38,0,.12-.04.24-.02.32,0,.18.08.3.04.46,0,.1-.14.14-.26.18-.12.04-.36.12-.44.04-.04-.06-.1-.12-.2-.14-.18.06-.34.02-.58.02-.18-.02-.38.04-.58.04-.08,0-.14-.02-.22-.02-.24-.02-.46.12-.72.08-.04-.02-.06-.04-.1-.04-.12.02-.26.1-.38.12-.12.02-.18-.04-.3-.04-.26,0-.48.1-.8.08-.04,0-.12-.04-.16-.04-.06,0-.12.06-.16.06h-.14c-.12.02-.22.02-.32.06,0,.16.08.4-.02.54.22.56.16,1.2.26,1.86.08.02.24.1.34.1.14,0,.32-.1.5-.12.04,0,.12-.02.16-.04.04,0,.12.04.16.04.14,0,.26-.08.38-.08.06,0,.14.04.2.04.54,0,1.48-.06,2.04.04.12.02.24.08.34.1.18.04.34-.02.48.08.14.16.18.4.08.68-.04.12.02.36,0,.6-.02.24-.1.48-.12.68,0,.14.04.24.02.32-.02.14-.16.36-.22.38-.04.02-.22.06-.26.06-.18.02-.34-.06-.52-.06-.06-.02-.1.02-.16.02-.1,0-.2-.04-.38-.04-.12,0-.24.06-.36.06-.1,0-.2-.04-.3-.04-.2,0-.44.02-.68.02,0-.06-.1-.04-.06-.14-.16-.02-.12.14-.26.12-.08.04-.14-.04-.22-.02-.08,0-.14.06-.22.06-.12,0-.24-.06-.36-.04-.18,0-.4,0-.68-.02-.08.28-.1.66.02.94.02.12-.04.16-.08.22.04.08.06.12.06.22,0,.06-.02.08-.04.16,0,.06.04.12.04.16-.02.1-.08.18-.08.26,0,.12.04.24.1.32-.1.1-.02.22-.04.32-.02.22-.08.44-.08.66,0,.08.04.18.02.28,0,.12-.08.18-.1.3-.04.16-.02.36-.02.54.02.14-.02.28,0,.42.02.12-.1.14-.14.22.02.08.12.1.14.16-.06.04-.02.18-.02.2,0,.1-.04.16-.06.26-.02.08-.02.18,0,.26.02.2.2.36.2.48,0,.14-.18.36-.32.38-.1.02-.18-.02-.3-.06-.12-.06-.24-.16-.44-.22-.06,0-.1-.02-.12-.02-.08-.04-.18-.02-.34-.04-.04-.02-.1-.06-.16-.08-.08,0-.14.04-.22.04-.14,0-.28-.08-.44-.04-.08-.1-.26-.22-.3-.36.02.02.02-.14.02-.14.02-.1.12-.14.22-.22,0-.12-.12-.14-.12-.26.06-.28-.06-.54-.04-.8,0-.1.04-.18.04-.26-.02-.1-.04-.2-.04-.3.02-.1.06-.2.08-.32,0-.06-.04-.12-.04-.2.02-.14.06-.3.08-.44.02-.12,0-.26.08-.36-.14-.2.02-.4.04-.6,0-.06-.02-.12-.02-.14-.02-.06.02-.08.02-.12.08-.12-.04-.36-.04-.5-.02-.2.04-.42.08-.64-.08-.14-.06-.4-.06-.6,0-.06.04-.08.04-.14-.02-.1-.06-.18-.06-.26,0-.1.08-.22.1-.32,0-.06-.02-.28-.02-.28,0,0-.04-.12-.06-.14.06-.12,0-.2-.04-.32,0-.04,0-.12-.02-.16-.02-.1-.08-.24-.08-.32-.02-.06.02-.08.02-.14,0,0-.02-.04-.02-.1,0-.1.08-.2.1-.32.04-.2.02-.42.02-.64,0-.06.02-.1.02-.16s-.02-.06-.02-.12c0-.02.04-.08.04-.14-.02-.12,0-.32,0-.52.02-.22-.06-.42-.04-.7,0-.06-.02-.3.04-.4-.06-.04-.04-.16-.1-.22.12-.22-.06-.52.12-.64-.18-.36-.04-.9-.24-1.3-.08-.16-.24-.3-.24-.46,0-.12.12-.22.14-.32.1.04.22-.06.38-.02.06.02.1.06.16.08.18,0,.4-.12.48.04.12,0,.12-.1.24-.1.38-.04.74,0,1.12-.04.1,0,.2-.04.3-.06.46-.02.94.04,1.38,0,.1,0,.2-.04.3-.06.26-.02.54,0,.8-.02.16,0,.32,0,.48.02.04,0,.14.04.14.04.04,0,.04-.06.06-.06.16-.08.5,0,.72,0,.42,0,.86-.04,1.28.1.06.1.08.22.06.38.04.12.1.26.12.4,0,.18-.08.34-.08.58Z"/><path class="cls-1" d="M16.8,6.28c-.06.06-.06.02-.12.06-.08.04-.06.08-.14.1-.02,0-.06.04-.1.02-.22-.02-.22-.28-.44-.38-.12.04-.26,0-.38.02-.12.02-.24.1-.36.14-.06.04-.14.04-.2.06-.16.08-.22.12-.36.2-.1.1-.14.2-.26.32-.16.12-.38.22-.5.36-.06.08-.06.22-.14.32-.02.06-.12.08-.16.14-.02.02-.02.06-.04.08,0,.04-.04.06-.06.08-.02.04.02.1,0,.16-.02.06-.14.18-.1.34-.04.06-.12.1-.14.16-.02.06.02.12,0,.16s-.06.04-.06.06c-.04.08-.04.16-.08.24-.02.06-.08.12-.1.18-.02.06.02.16,0,.26-.02.06-.06.12-.08.16,0,.12.02.24,0,.36-.02.18-.1.34-.14.54-.02.14.02.28-.02.46,0,.08-.06.16-.06.26-.02.2.1.4-.08.56.08.16.1.52-.02.66.2.56-.1,1.4.06,2.02.06.16.3.12.42.22,0,.08.1.14.12.26.02.18-.14.38-.26.44-.1.04-.2-.02-.4.02-.1.02-.22.1-.36.16-.22.08-.52.16-.8.2-.14.02-.28.04-.4.06-.16.04-.32.14-.44.12-.26-.04-.36-.32-.36-.62,0-.12.06-.24.04-.36,0-.14-.06-.26-.08-.38-.04-.32,0-.7,0-1.04,0-.1.04-.2.04-.28-.02-.1-.06-.2-.06-.3-.04-.18-.08-.32-.1-.56,0-.08-.02-.2-.02-.28,0-.16.06-.3.08-.46,0-.06-.04-.08-.04-.16,0-.12.06-.36.06-.54-.02-.16-.08-.32-.1-.48,0-.08.02-.22.02-.24-.02-.08-.06-.12-.06-.18-.02-.16-.02-.38-.04-.5,0-.04-.02-.12-.02-.16,0-.1.06-.2.08-.32.04-.26-.02-.54,0-.8.02-.2.12-.4.12-.58,0-.08-.02-.18-.02-.26s.04-.18.04-.26c-.02-.06-.06-.16-.06-.22-.04-.18.04-.36.04-.56,0-.12-.04-.26-.06-.38,0-.06.02-.16,0-.22,0-.06-.06-.1-.06-.14,0-.12.08-.28.08-.42,0-.2-.06-.4.04-.6,0-.14-.1-.2-.16-.3.1-.22-.04-.44.02-.64.1-.08.2-.14.32-.12.2,0,.26.14.36.22.26.08.5,0,.78,0,.14,0,.3.04.42.04.2-.02.34-.18.64-.08.1.06.08.16.16.28,0,.02.06.06.06.08,0,.06-.04.06-.04.08,0,.06.04.06.04.1-.04.22-.14.42-.06.68.16,0,.24-.12.34-.22.04-.04.14-.12.18-.18.02-.02.02-.08.04-.1.02-.02.08-.02.1-.04.06-.02.12-.12.2-.18.08-.08.2-.12.26-.22.24-.04.46-.28.74-.18.12-.12.46-.26.62-.12.1.02.1-.1.16-.12.34.12.68-.12,1-.04.12.02.18.1.26.14.08.02.18.04.26.1.18.28.04.64.02.96-.02.08.02.14.02.2,0,.12-.04.24-.04.36,0,.3.04.6.04.9-.06.04-.06.08-.1.12Z"/><path class="cls-1" d="M29.64,4.38s.04.06.04.1c-.02.06-.04.08-.04.14,0,.04.02.06.02.1,0,.02-.04.06-.02.12,0,.04.02.06.02.1,0,.06-.06.12-.06.18-.02.08.02.16.02.24,0,.06-.06.12-.06.18,0,.02,0,.14-.02.2,0,.14-.02.3,0,.46,0,.06.06.14.06.22.02.28-.04.6-.02.9,0,.14.04.24.02.36,0,.16-.08.3-.1.52,0,0,.02.06.02.08,0,.08-.06.3.02.42-.02.08-.06.18-.1.24.04.36-.06.7-.06,1.06.02.12.06.24.06.36,0,.06-.04.14-.04.22,0,.06.04.14.04.2,0,.04-.06.12-.08.18-.02.26,0,.4-.1.62-.08.14.06.46-.08.64.06.16.02.28.02.48,0,.06.04.14.02.2,0,.14-.06.26-.06.38-.02.3.06.58.08.84.02.06.02.12.12.1-.22.16.02.32.02.52,0,.04-.02.08-.04.12,0,.02-.02.12-.02.14-.02,0-.1.02-.1.02-.04.04-.14.12-.24.14-.08,0-.16-.04-.26-.04-.1-.02-.24.04-.38.04-.14.02-.32,0-.46.04-.16.02-.28.12-.42.12-.12-.04-.06.12-.16.12-.02.06-.16,0-.22.02-.16-.14-.3-.48-.16-.64-.12-.34.04-.78-.04-1.2-.2.08-.36.22-.52.38-.08.06-.12.16-.22.22-.04.02-.04,0-.08.02-.02.04-.16.08-.22.16-.14.04-.28.02-.42.06-.18.04-.34.1-.58.14-.16.04-.44.16-.72.12-.06,0-.1-.04-.12-.04-.08,0-.12.06-.2.06-.1.02-.2.02-.32-.04-.06.1-.32.02-.42-.04-.2.08-.38-.02-.58-.04-.12,0-.1-.12-.2-.14-.32.02-.6-.02-.92-.08-.04-.1-.18-.12-.2-.26-.14.02-.14-.1-.24-.1-.06-.12-.16-.18-.22-.26-.14,0-.16-.08-.3-.08-.04-.04-.06-.12-.12-.16-.1-.06-.12-.12-.16-.14-.02,0-.08.02-.1,0-.12-.14-.2-.2-.28-.3-.04-.02-.12-.04-.16-.1,0-.12-.12-.12-.1-.28-.06-.02-.1-.06-.16-.1-.06-.06-.08-.1-.14-.18-.04-.02-.04-.06-.08-.08-.02-.04-.02-.2-.12-.26,0-.08-.08-.08-.16-.08-.02-.2-.1-.36-.28-.42.04-.12-.04-.12-.02-.22-.4-.36-.38-1.1-.58-1.64.02-.36,0-.8.12-1.12q.02-.06.04-.1c.04-.06.02-.18.04-.32.02-.12.04-.26.06-.38.02-.06.04-.14.04-.2.04-.2.1-.38.22-.54-.1-.36.24-.5.26-.84.12-.1.18-.24.28-.38.06-.1.14-.24.22-.38.06-.08.16-.14.14-.26.08-.04.12-.12.24-.16v-.18c.22-.14.32-.38.5-.58.08-.1.18-.16.28-.24.06-.12.26-.14.28-.26.26-.06.54-.1.74-.24.16-.02.36-.02.46-.12.26.04.4-.08.54-.18.4,0,.76-.02,1.2,0,.2,0,.42-.04.58-.02.12,0,.22-.02.3.06.1-.04.24-.04.34.02.06.02.14,0,.26.04.06,0,.12.06.16.06.08.02.14,0,.2,0,.02.02.06.06.1.08q.12.02.24.1s.08,0,.1.02c.02.02.02.06.04.08.18.1.36.16.54.3.04.02.04.08.1.12.04.04.08.04.12.08.06.04.1.12.16.2.04.08.18.16.28.26.06.04.08.14.16.2.06.04.22.16.22.28.1-.36.02-.82-.08-1.1-.08-.16-.2-.2-.12-.44.02-.08.14-.26.2-.3,0,.02.22.04.36.04.12.02.22.04.32.04.28,0,.78.02,1.06.12.18-.06.3.04.46.08.02.1,0,.16.02.26-.02.08.04.12.02.2,0,.08-.1.24-.1.34ZM26.84,8.36c-.02-.08-.12-.1-.16-.16,0-.2-.1-.34-.12-.46.04-.18-.06-.26-.08-.36-.04-.14-.04-.28-.06-.44-.12-.06-.12-.14-.18-.2-.1-.06-.08-.08-.1-.1-.1-.12-.18-.2-.28-.3-.14-.14-.22-.2-.38-.26-.22-.1-.38-.2-.54-.28s-.32-.06-.52-.1c-.1-.04-.18-.1-.26-.12-.06,0-.18.02-.28,0-.08,0-.18-.06-.24-.06-.04,0-.1.12-.16.06-.08-.02-.2-.14-.26-.08-.26.02-.3.12-.48.22-.04.02-.12.04-.16.06-.06.04-.1.08-.14.1-.02,0-.06-.02-.1,0,0,0-.04.04-.06.06-.1.06-.18.14-.26.18-.04.02-.14.04-.16.06-.1.14-.16.18-.2.26-.08-.02-.08.06-.16.02,0,.12-.1.2-.16.26-.08.08-.18.14-.28.18-.02.28-.24.36-.24.64-.1.12-.14.22-.2.36-.06.16-.06.34-.1.54-.04.14-.12.24-.14.36,0-.02.02.1.04.12,0,.24-.1.38-.12.56,0,.1.06.22.06.34,0,.02-.04.04-.04.08.04.14,0,.2,0,.26.02.16.18.32.12.52.18.12.32.28.54.38.16.3.46.5.7.7.12.12.24.2.38.26.02.02.06.06.08.08.16.06.28.08.42.1.08.02.2.08.26.1.04.02.06.08.12.08.34-.04.7.1.98.1.08.02.2,0,.28-.02.1,0,.22,0,.3-.02.04-.02.1-.08.16-.1.04,0,.08.02.12,0,.08-.02.2-.12.3-.02.14-.34.6-.34.66-.76.08.02.06-.06.14-.06,0-.14.1-.22.16-.32.04-.08.1-.2.14-.26.02-.02.08.02.06-.06.06-.16.12-.3.24-.42-.04-.14.06-.24.1-.34.12-.36.18-.68.18-1.1.06-.08.1-.18.14-.28-.06-.08-.06-.22-.06-.36Z"/><path class="cls-1" d="M49.1,14.5c-.04.08-.08.14-.1.16-.1.08-.16.06-.3.1-.06.02-.16,0-.26.02-.1.02-.22.08-.32.08-.12.02-.26.02-.4.04-.22.02-.44.08-.68.08-.18.1-.3.08-.58.08-.06-.1-.16-.16-.22-.26.02-.24.08-.42.18-.54-.02-.06-.02-.12-.04-.18,0-.04.02-.04.02-.08s.04-.04.02-.08c-.02-.06-.02-.26.02-.42,0-.04.06-.1.06-.16.06-.36,0-.78.02-1.16.02-.06.06-.1.08-.18,0-.08-.04-.16-.04-.24.02-.1.1-.2.12-.28,0-.12-.1-.24.04-.32-.12-.2-.06-.44-.06-.68,0-.08-.02-.16-.02-.22,0-.34.08-.7.06-1.04-.02-.14-.1-.3-.12-.46-.02-.06,0-.14,0-.22-.02-.08-.06-.14-.06-.22-.02-.14.02-.28,0-.42,0-.12-.06-.22-.06-.32,0-.12.06-.22.04-.32,0-.1-.04-.18-.06-.26,0-.12,0-.2-.02-.26-.02-.08-.1-.14-.16-.24-.04-.08-.08-.16-.12-.22-.06-.1-.14-.22-.22-.34-.04-.06-.08-.06-.16-.12,0-.02-.02-.06-.02-.08-.06-.02-.06.02-.14,0-.04,0-.04-.04-.08-.06-.12-.04-.22-.06-.26-.06-.12-.02-.18.02-.3.04-.1.02-.22.02-.28.04-.04,0-.06.04-.1.06-.04.02-.1,0-.14.02-.12.06-.24.14-.36.22-.1.08-.22.14-.32.22-.04.02-.04.08-.08.1-.02.02-.14.04-.18.1-.04.02-.06.06-.1.12-.02,0-.08.06-.1.1-.04.04-.04.12-.14.12-.02.28-.22.46-.36.66-.02.04-.08.06-.1.1-.06.1-.1.26-.14.38,0,.02-.06.06-.06.06-.02.04,0,.1-.02.14,0,.02-.06.04-.06.06s.02.08,0,.1c-.04.08-.16.16-.2.26-.02.06-.02.18-.04.24-.02.08-.08.1-.1.16-.02.08-.02.16-.04.24,0,.02-.04.02-.06.06s0,.08,0,.12c-.02.08-.08.12-.1.2-.02.06-.02.16-.04.22,0,.02-.06.06-.06.06-.04.1,0,.24-.12.3.02.3-.2.54-.24.86,0,.1.04.2.02.28,0,.1-.02.22-.02.3-.02.08-.06.14-.08.22-.02.12-.02.3-.04.46,0,.06-.04.12-.04.18,0,.04.04.06.04.1-.02.18.08.36-.02.56.04.12.18.36.02.48.06.08.12.12.16.26.02.12,0,.28.02.42.04.14.18.28.12.52-.04.18-.22.2-.36.32-.12-.08-.3-.06-.46-.14-.02-.02-.04-.06-.08-.08-.18-.02-.32.02-.5.02-.1.02-.24.06-.34.06s-.18-.06-.26-.06c-.16-.02-.28.06-.42-.02-.22-.22-.1-.78.06-1-.06-.04-.04-.14-.1-.18.12-.08.12-.4.1-.56s.1-.26.12-.42c0-.08-.04-.16-.04-.26.02-.32.06-.94.08-1.44,0-.12.02-.3.04-.48,0-.04-.04-.04-.04-.08,0,0,.06-.1.08-.14,0-.2-.1-.38.04-.56.02-.06-.06-.08-.06-.12-.02-.06.02-.12,0-.16s-.12-.26-.12-.36c0-.04.04-.06.04-.1-.02-.04-.06-.08-.08-.14,0-.04.02-.1.02-.16-.02-.08-.08-.14-.1-.22,0-.06.04-.08.04-.14,0-.12-.04-.48-.12-.6s-.04-.2-.06-.26c-.04-.12-.1-.2-.16-.34-.02-.06-.06-.08-.08-.18-.04-.12-.08-.2-.12-.3-.14-.26-.3-.5-.48-.68-.18-.04-.32-.1-.44-.18-.08-.02-.14.02-.24.02-.06.02-.16-.04-.22-.02-.02,0-.08.04-.12.06-.14.04-.26.08-.4.14-.18.08-.36.12-.52.18-.24.12-.42.32-.66.42-.12.16-.18.42-.4.5.04.1-.02.22-.06.32-.02.06-.06.1-.06.16-.02.06-.02.12-.04.2-.02,0-.06.04-.08.06,0,.02.02.06,0,.1-.04.12-.08.34-.22.4.02.18-.06.26-.12.36.02.34-.1.6-.2.86s-.06.7-.26,1c-.02.12.08.14.06.26.02.14-.1.16-.1.28.14.36.1,1.02-.1,1.36.12.14.06.24.06.46,0,.06.04.08.04.12-.02.08-.06.16-.04.22,0,.08.04.16.06.24,0,.06-.04.1-.04.18,0,.12,0,.4.02.6.02.3.22.6.1.9-.56.34-1.2,0-1.94.02.04-.12-.1-.08-.16-.14,0-.12-.06-.26-.04-.38,0-.12.08-.22.1-.32,0-.06-.04-.12-.04-.2.02-.28.06-.64.06-1,0-.18-.02-.36.04-.54-.12-.28.04-.62-.06-.9.12-.36,0-.74.12-1.2.02-.1-.1-.08-.1-.16-.02-.26-.02-.5-.02-.78,0-.08.04-.14.04-.2,0-.1-.04-.22-.06-.34,0-.14.02-.26.02-.4-.02-.1-.04-.22-.06-.32-.04-.18-.06-.34-.06-.58,0-.06.04-.12.04-.16,0-.06-.04-.1-.06-.16-.02-.08-.02-.22-.02-.26v-.64c.02-.14.02-.32-.02-.42-.02-.08.02-.12-.02-.24,0-.12-.04-.18-.02-.26,0-.08.04-.16.02-.24,0-.12-.06-.22-.08-.34.02-.1.08-.14.1-.22-.06-.24,0-.52.08-.78.06-.16.12-.32.2-.38.22-.14.5.08.72.18.42-.04.92-.02,1.38-.04.08.12.16.22.22.34,0,.22-.06.32.02.48.16.04.24-.06.36-.12.02,0,.08-.02.1-.02.1-.08.2-.24.36-.26.06-.08.16-.1.2-.18.1-.02.18-.06.26-.1.02-.02.1-.04.12-.06.06-.08.08-.06.1-.06.06-.04.1-.14.16-.16.06-.02.16-.04.24-.06.06-.02.12-.04.18-.06.16-.04.3-.12.44-.12.2-.02.4.12.64.02.06,0,.1.06.16.1.18-.06.52-.04.64.08.1-.04.2-.08.3-.06.12,0,.3.2.4.26.1.04.24.06.36.1.02.02.02.06.02.08.02,0,.06-.02.08,0,.04.06.08.04.08.06.16.08.48.3.54.44.08.12.08.3.12.44.04.08.08.12.14.2.02.06.06.14.08.2.08.14.12.26.18.38.24-.04.34-.24.44-.44.1-.04.22-.1.22-.24.28-.02.24-.32.54-.32,0-.1.12-.1.12-.22.26-.1.46-.3.7-.44.14-.08.36-.16.54-.28.26.04.56-.04.88-.08.3-.02.62-.02.9-.04.26,0,.6-.04.9.02.1.02.22.08.32.1.12.04.26.04.36.08.08.02.16.1.22.14.1.04.16.08.26.1.04.08.1.14.16.2s.1.04.12.06c.04.02.04.08.06.1.12.1.24.24.38.3.04.1.08.18.16.22.04.2.18.38.24.6l.04.08c.04.14.02.32.06.52,0,.04.04.08.06.16.02.16.04.34.08.52.04.22.08.4.02.66.08.12.08.34.18.44-.02.1-.04.26-.04.46s.1.46-.02.58c.28.36.14.9.16,1.48.02.16.06.28.06.42,0,.26-.08.58-.08.74,0,.06.04.14.02.2,0,.08-.06.18-.06.26,0,.1.04.2.06.3,0,.06-.04.1-.04.18s.04.14.02.2c0,.1-.06.2-.06.28,0,.06.02.14.02.2v.2c0,.08.06.2.06.28.02.18-.04.3.02.42.04.1.12.1.12.26,0,0-.02.08-.02.1Z"/><path class="cls-1" d="M62.1,9.66c.02.18.08.26,0,.42-.06.1-.26.14-.3.22-.16-.06-.36-.02-.48.02-.18-.14-.6-.04-.78-.18-.08.04-.16.06-.22.06-.36.04-.78-.06-1.2-.12-.28-.02-.62-.02-.86-.02-.1.02-.2.04-.3.04-.2-.02-.38-.14-.58-.14-.14-.02-.32.04-.48.04-.1,0-.22-.02-.32-.04-.04,0-.1.04-.14.04-.06-.02-.1-.04-.16-.04-.18,0-.36.08-.5-.08-.1.08-.16.1-.34.1-.12-.02-.2-.04-.24-.04s-.1.06-.1.06c-.08,0-.2-.08-.3.02-.04-.06-.2,0-.26-.06-.08-.04-.06.06-.12.06-.22-.1-.4-.02-.62-.02-.2,0-.4-.08-.68-.04-.1.24-.06.64.08.86.02.14-.04.2-.04.3.02.04.08.04.1.06.02.02,0,.08.02.1.1.12.24.22.32.36.12.2.34.36.48.6.06.12.16.2.24.32.2.04.34.16.52.28.02.02.08.04.12.06.16.1.24.22.42.3.12.04.2.02.26.04.12.04.3.24.48.26.02,0,.1-.02.18-.02.12,0,.2.02.3.04.2.02.36-.04.48-.12.12,0,.18,0,.3-.02,0-.02.02-.06.02-.08.02,0,.06.02.08,0,.02,0,.04-.06.06-.06.08-.02.18.04.26-.02.08-.08.16-.08.2-.1.14-.06.24-.14.38-.24.1-.06.16-.1.26-.16.26-.16.42-.5.66-.72.02-.3.12-.5.24-.68,0-.26.08-.42.18-.58.1-.02.2-.08.36-.02.08.04.14.08.26.14.08.04.16.04.32.1.04.02.08.06.12.06.06.02.12,0,.2.02.04,0,.08.06.12.06.1.02.28-.04.38,0,.02.02.04.06.08.08.06.02.14.08.18.16,0,.18-.06.32-.14.44-.02.06-.04.18-.12.16-.02.1.04.12.02.24-.02.08-.08.12-.1.22-.06.16-.06.3-.14.44-.04.06-.1.12-.14.16-.08.1-.18.22-.3.26.06.12-.12.18-.16.24-.06.16-.22.26-.4.38-.2.18-.46.3-.64.44-.06.04-.12.08-.18.12-.1.1-.16.16-.32.22-.06.04-.08.02-.14.04,0,0-.04.06-.06.06-.14.06-.3.04-.46.08,0,.02-.08.06-.08.06-.2.04-.4.08-.6.12-.12.04-.2.08-.42.06-.06,0-.14-.04-.18-.04-.06,0-.18.14-.3.04-.1-.04-.04.12-.16.08-.14-.04-.3.04-.46.02-.08,0-.16-.04-.24-.06-.08-.02-.1.04-.14.02-.02,0-.06-.06-.06-.06-.28-.04-.56-.04-.8-.12-.08-.02-.18,0-.22-.1-.24.04-.48-.1-.62-.24-.08,0-.14-.04-.22-.06-.16-.08-.38-.14-.48-.34-.2,0-.28-.14-.38-.24-.22,0-.4-.14-.5-.3-.12-.14-.2-.22-.3-.3-.04-.04,0-.14-.06-.18-.22-.1-.32-.32-.56-.4-.04-.14-.18-.24-.26-.36-.04-.06-.06-.14-.08-.2-.04-.06-.1-.1-.14-.16-.06-.18-.08-.4-.14-.6-.02-.04-.06-.1-.06-.16-.02-.12,0-.24-.02-.34-.02-.08-.08-.16-.1-.24-.02-.12,0-.26-.02-.42-.02-.12-.06-.24-.06-.36,0-.18.04-.38.04-.58,0-.06-.02-.16-.02-.22.02-.14.12-.28.14-.42,0-.06-.02-.12-.04-.16,0-.06.06-.14.02-.2.06-.04.08-.16.1-.22.02-.08.02-.2.06-.32.02-.02.06-.04.08-.06.02-.04.02-.06.02-.1.02-.02.06-.04.08-.06,0-.04-.02-.1,0-.12.02-.06.06-.1.1-.16.02-.06.04-.14.06-.2.04-.06.08-.08.1-.12.02-.06-.02-.12,0-.16s.06-.02.08-.06c.04-.16.06-.26.1-.4.04-.12.12-.3.26-.38-.06-.06,0-.12,0-.18.14-.14.24-.34.32-.56.24-.16.38-.44.62-.62.04-.04.12-.06.2-.1.02-.02.02-.04.06-.06.02-.02.08-.02.1-.02.14-.1.22-.22.4-.3.16-.06.56-.02.7-.2.16,0,.32-.08.46-.16.1-.04.22-.14.46-.12.18.02.34.02.54-.04.1-.02.24-.06.4-.06.04,0,.1.04.16.04.22,0,.4,0,.68.02.14,0,.26-.06.42-.06.02,0,.04.04.08.04.06-.02.18-.02.3,0,.06,0,.12.04.2.06.14,0,.22.08.34.14.06.04.16.04.22.08.08.02.16.06.24.1.16.06.34.08.4.26.06.02.1,0,.16.04.12.04.24.18.36.26.1.08.2.26.34.34.02.08.08.12.1.22.22.12.34.36.6.46.08.18.22.28.24.5.06.08.12.18.2.3.02.06.12.14.14.22.04.14.1.26.2.4.06.08.18.2.22.32.02.1.02.22.04.32.04.1.08.2.1.26.04.2,0,.4.02.62.02.14.04.32.06.48,0,.08,0,.16.02.26,0,.08.06.14.06.2s-.04.12-.04.18ZM59.24,7.66c-.06-.04,0-.1-.02-.16-.02-.02-.18-.02-.1-.12-.08-.08-.24-.1-.22-.26-.12.02-.16-.12-.2-.14-.02-.02-.06-.02-.08-.04-.1-.08-.12-.22-.22-.3-.08-.04-.2.06-.2-.1-.4.02-.6-.18-.8-.4-.22.06-.54,0-.8.02-.18-.12-.34-.06-.58-.12-.1-.02-.06-.16-.2-.16-.18.08-.34-.06-.54-.08-.22.14-.46.14-.68.22-.12.04-.32.3-.4.38-.18.22-.36.44-.52.62.02.16-.06.22-.04.36-.18.14-.22.44-.28.7.18.02.44-.02.68-.04.08-.02.18-.02.26-.02.06-.02.1-.06.16-.06.24-.02.5.02.74,0,.26,0,.5-.08.72.02.28-.12.72-.06.96-.04.04,0,.04-.04.1-.04.04.02.04.04.1.04.06-.02.08.06.16.04.6-.1,1.36.06,2.1-.06.04-.04,0-.22-.1-.26Z"/><path class="cls-1" d="M70.88,6.28c-.06.06-.06.02-.12.06-.08.04-.06.08-.14.1-.02,0-.06.04-.1.02-.22-.02-.22-.28-.44-.38-.12.04-.26,0-.38.02-.12.02-.24.1-.36.14-.06.04-.14.04-.2.06-.16.08-.22.12-.36.2-.1.1-.14.2-.26.32-.16.12-.38.22-.5.36-.06.08-.06.22-.14.32-.02.06-.12.08-.16.14-.02.02-.02.06-.04.08,0,.04-.04.06-.06.08-.02.04.02.1,0,.16-.02.06-.14.18-.1.34-.04.06-.12.1-.14.16-.02.06.02.12,0,.16s-.06.04-.06.06c-.04.08-.04.16-.08.24-.02.06-.08.12-.1.18-.02.06.02.16,0,.26-.02.06-.06.12-.08.16,0,.12.02.24,0,.36-.02.18-.1.34-.14.54-.02.14.02.28-.02.46,0,.08-.06.16-.06.26-.02.2.1.4-.08.56.08.16.1.52-.02.66.2.56-.1,1.4.06,2.02.06.16.3.12.42.22,0,.08.1.14.12.26.02.18-.14.38-.26.44-.1.04-.2-.02-.4.02-.1.02-.22.1-.36.16-.22.08-.52.16-.8.2-.14.02-.28.04-.4.06-.16.04-.32.14-.44.12-.26-.04-.36-.32-.36-.62,0-.12.06-.24.04-.36,0-.14-.06-.26-.08-.38-.04-.32,0-.7,0-1.04,0-.1.04-.2.04-.28-.02-.1-.06-.2-.06-.3-.04-.18-.08-.32-.1-.56,0-.08-.02-.2-.02-.28,0-.16.06-.3.08-.46,0-.06-.04-.08-.04-.16,0-.12.06-.36.06-.54-.02-.16-.08-.32-.1-.48,0-.08.02-.22.02-.24-.02-.08-.06-.12-.06-.18-.02-.16-.02-.38-.04-.5,0-.04-.02-.12-.02-.16,0-.1.06-.2.08-.32.04-.26-.02-.54,0-.8.02-.2.12-.4.12-.58,0-.08-.02-.18-.02-.26s.04-.18.04-.26c-.02-.06-.06-.16-.06-.22-.04-.18.04-.36.04-.56,0-.12-.04-.26-.06-.38,0-.06.02-.16,0-.22,0-.06-.06-.1-.06-.14,0-.12.08-.28.08-.42,0-.2-.06-.4.04-.6,0-.14-.1-.2-.16-.3.1-.22-.04-.44.02-.64.1-.08.2-.14.32-.12.2,0,.26.14.36.22.26.08.5,0,.78,0,.14,0,.3.04.42.04.2-.02.34-.18.64-.08.1.06.08.16.16.28,0,.02.06.06.06.08,0,.06-.04.06-.04.08,0,.06.04.06.04.1-.04.22-.14.42-.06.68.16,0,.24-.12.34-.22.04-.04.14-.12.18-.18.02-.02.02-.08.04-.1.02-.02.08-.02.1-.04.06-.02.12-.12.2-.18.08-.08.2-.12.26-.22.24-.04.46-.28.74-.18.12-.12.46-.26.62-.12.1.02.1-.1.16-.12.34.12.68-.12,1-.04.12.02.18.1.26.14.08.02.18.04.26.1.18.28.04.64.02.96-.02.08.02.14.02.2,0,.12-.04.24-.04.36,0,.3.04.6.04.9-.06.04-.06.08-.1.12Z"/><path class="cls-1" d="M17.89,32.58c-.04.08-.08.14-.1.16-.1.08-.16.06-.3.1-.06.02-.16,0-.26.02-.1.02-.22.08-.32.08-.12.02-.26.02-.4.04-.22.02-.44.08-.68.08-.18.1-.3.08-.58.08-.06-.1-.16-.16-.22-.26.02-.24.08-.42.18-.54-.02-.06-.02-.12-.04-.18,0-.04.02-.04.02-.08s.04-.04.02-.08c-.02-.06-.02-.26.02-.42,0-.04.06-.1.06-.16.06-.36,0-.78.02-1.16.02-.06.06-.1.08-.18,0-.08-.04-.16-.04-.24.02-.1.1-.2.12-.28,0-.12-.1-.24.04-.32-.12-.2-.06-.44-.06-.68,0-.08-.02-.16-.02-.22,0-.34.08-.7.06-1.04-.02-.14-.1-.3-.12-.46-.02-.06,0-.14,0-.22-.02-.08-.06-.14-.06-.22-.02-.14.02-.28,0-.42,0-.12-.06-.22-.06-.32,0-.12.06-.22.04-.32,0-.1-.04-.18-.06-.26,0-.12,0-.2-.02-.26-.02-.08-.1-.14-.16-.24-.04-.08-.08-.16-.12-.22-.06-.1-.14-.22-.22-.34-.04-.06-.08-.06-.16-.12,0-.02-.02-.06-.02-.08-.06-.02-.06.02-.14,0-.04,0-.04-.04-.08-.06-.12-.04-.22-.06-.26-.06-.12-.02-.18.02-.3.04-.1.02-.22.02-.28.04-.04,0-.06.04-.1.06-.04.02-.1,0-.14.02-.12.06-.24.14-.36.22-.1.08-.22.14-.32.22-.04.02-.04.08-.08.1-.02.02-.14.04-.18.1-.04.02-.06.06-.1.12-.02,0-.08.06-.1.1-.04.04-.04.12-.14.12-.02.28-.22.46-.36.66-.02.04-.08.06-.1.1-.06.1-.1.26-.14.38,0,.02-.06.06-.06.06-.02.04,0,.1-.02.14,0,.02-.06.04-.06.06s.02.08,0,.1c-.04.08-.16.16-.2.26-.02.06-.02.18-.04.24-.02.08-.08.1-.1.16-.02.08-.02.16-.04.24,0,.02-.04.02-.06.06s0,.08,0,.12c-.02.08-.08.12-.1.2-.02.06-.02.16-.04.22,0,.02-.06.06-.06.06-.04.1,0,.24-.12.3.02.3-.2.54-.24.86,0,.1.04.2.02.28,0,.1-.02.22-.02.3-.02.08-.06.14-.08.22-.02.12-.02.3-.04.46,0,.06-.04.12-.04.18,0,.04.04.06.04.1-.02.18.08.36-.02.56.04.12.18.36.02.48.06.08.12.12.16.26.02.12,0,.28.02.42.04.14.18.28.12.52-.04.18-.22.2-.36.32-.12-.08-.3-.06-.46-.14-.02-.02-.04-.06-.08-.08-.18-.02-.32.02-.5.02-.1.02-.24.06-.34.06s-.18-.06-.26-.06c-.16-.02-.28.06-.42-.02-.22-.22-.1-.78.06-1-.06-.04-.04-.14-.1-.18.12-.08.12-.4.1-.56s.1-.26.12-.42c0-.08-.04-.16-.04-.26.02-.32.06-.94.08-1.44,0-.12.02-.3.04-.48,0-.04-.04-.04-.04-.08,0,0,.06-.1.08-.14,0-.2-.1-.38.04-.56.02-.06-.06-.08-.06-.12-.02-.06.02-.12,0-.16s-.12-.26-.12-.36c0-.04.04-.06.04-.1-.02-.04-.06-.08-.08-.14,0-.04.02-.1.02-.16-.02-.08-.08-.14-.1-.22,0-.06.04-.08.04-.14,0-.12-.04-.48-.12-.6s-.04-.2-.06-.26c-.04-.12-.1-.2-.16-.34-.02-.06-.06-.08-.08-.18-.04-.12-.08-.2-.12-.3-.14-.26-.3-.5-.48-.68-.18-.04-.32-.1-.44-.18-.08-.02-.14.02-.24.02-.06.02-.16-.04-.22-.02-.02,0-.08.04-.12.06-.14.04-.26.08-.4.14-.18.08-.36.12-.52.18-.24.12-.42.32-.66.42-.12.16-.18.42-.4.5.04.1-.02.22-.06.32-.02.06-.06.1-.06.16-.02.06-.02.12-.04.2-.02,0-.06.04-.08.06,0,.02.02.06,0,.1-.04.12-.08.34-.22.4.02.18-.06.26-.12.36.02.34-.1.6-.2.86s-.06.7-.26,1c-.02.12.08.14.06.26.02.14-.1.16-.1.28.14.36.1,1.02-.1,1.36.12.14.06.24.06.46,0,.06.04.08.04.12-.02.08-.06.16-.04.22,0,.08.04.16.06.24,0,.06-.04.1-.04.18,0,.12,0,.4.02.6.02.3.22.6.1.9-.56.34-1.2,0-1.94.02.04-.12-.1-.08-.16-.14,0-.12-.06-.26-.04-.38,0-.12.08-.22.1-.32,0-.06-.04-.12-.04-.2.02-.28.06-.64.06-1,0-.18-.02-.36.04-.54-.12-.28.04-.62-.06-.9.12-.36,0-.74.12-1.2.02-.1-.1-.08-.1-.16-.02-.26-.02-.5-.02-.78,0-.08.04-.14.04-.2,0-.1-.04-.22-.06-.34,0-.14.02-.26.02-.4-.02-.1-.04-.22-.06-.32-.04-.18-.06-.34-.06-.58,0-.06.04-.12.04-.16,0-.06-.04-.1-.06-.16-.02-.08-.02-.22-.02-.26v-.64c.02-.14.02-.32-.02-.42-.02-.08.02-.12-.02-.24,0-.12-.04-.18-.02-.26,0-.08.04-.16.02-.24,0-.12-.06-.22-.08-.34.02-.1.08-.14.1-.22-.06-.24,0-.52.08-.78.06-.16.12-.32.2-.38.22-.14.5.08.72.18.42-.04.92-.02,1.38-.04.08.12.16.22.22.34,0,.22-.06.32.02.48.16.04.24-.06.36-.12.02,0,.08-.02.1-.02.1-.08.2-.24.36-.26.06-.08.16-.1.2-.18.1-.02.18-.06.26-.1.02-.02.1-.04.12-.06.06-.08.08-.06.1-.06.06-.04.1-.14.16-.16.06-.02.16-.04.24-.06.06-.02.12-.04.18-.06.16-.04.3-.12.44-.12.2-.02.4.12.64.02.06,0,.1.06.16.1.18-.06.52-.04.64.08.1-.04.2-.08.3-.06.12,0,.3.2.4.26.1.04.24.06.36.1.02.02.02.06.02.08.02,0,.06-.02.08,0,.04.06.08.04.08.06.16.08.48.3.54.44.08.12.08.3.12.44.04.08.08.12.14.2.02.06.06.14.08.2.08.14.12.26.18.38.24-.04.34-.24.44-.44.1-.04.22-.1.22-.24.28-.02.24-.32.54-.32,0-.1.12-.1.12-.22.26-.1.46-.3.7-.44.14-.08.36-.16.54-.28.26.04.56-.04.88-.08.3-.02.62-.02.9-.04.26,0,.6-.04.9.02.1.02.22.08.32.1.12.04.26.04.36.08.08.02.16.1.22.14.1.04.16.08.26.1.04.08.1.14.16.2s.1.04.12.06c.04.02.04.08.06.1.12.1.24.24.38.3.04.1.08.18.16.22.04.2.18.38.24.6l.04.08c.04.14.02.32.06.52,0,.04.04.08.06.16.02.16.04.34.08.52.04.22.08.4.02.66.08.12.08.34.18.44-.02.1-.04.26-.04.46s.1.46-.02.58c.28.36.14.9.16,1.48.02.16.06.28.06.42,0,.26-.08.58-.08.74,0,.06.04.14.02.2,0,.08-.06.18-.06.26,0,.1.04.2.06.3,0,.06-.04.1-.04.18s.04.14.02.2c0,.1-.06.2-.06.28,0,.06.02.14.02.2v.2c0,.08.06.2.06.28.02.18-.04.3.02.42.04.1.12.1.12.26,0,0-.02.08-.02.1Z"/><path class="cls-1" d="M31.28,27.1c-.02.12.08.32-.02.42.16.14.06.32.02.54-.02.12.02.26,0,.34-.02.06-.08.12-.1.18-.04.06-.04.16-.1.16.02.16-.02.32-.08.46-.02.04-.02.1-.04.16,0,.04-.06.08-.06.12-.02.06.02.14,0,.2-.02.06-.08.12-.1.18-.08.2-.16.4-.24.62-.12.26-.22.52-.38.7,0,.14.02.12,0,.26-.12.12-.24.2-.34.38-.04.1-.1.2-.2.32-.1.12-.24.18-.36.3-.14,0-.12.04-.22,0-.2.2-.36.28-.68.38-.02,0-.1.06-.1.06-.06,0-.12-.02-.16,0-.16.04-.32.14-.52.14-.06,0-.14-.04-.2-.04-.1.02-.18.08-.3.1-.2.04-.44.02-.68.04-.04,0-.06.04-.08.04-.04,0-.04-.04-.08-.04s-.08.06-.12.06c.04,0-.14,0-.14,0-.06,0-.14-.02-.18,0-.16.02-.3.12-.56.08-.06-.02-.04.06-.1.06-.32.02-.82.08-1.08-.12-.08.04-.18.04-.26.02-.06,0-.08-.04-.14-.06h-.12c-.26-.06-.58-.14-.78-.3-.06-.02-.12-.02-.18-.02-.18-.1-.28-.24-.54-.26,0-.1-.08-.1-.06-.2-.1.06-.14-.06-.2-.1s-.14-.06-.2-.1c-.04-.04-.08-.1-.14-.14s-.16-.06-.2-.1c-.06-.04-.1-.12-.16-.2-.04-.04-.16-.08-.12-.18-.1-.08-.18-.16-.28-.24-.02-.1-.08-.14-.06-.26-.06-.06-.1-.06-.16-.14-.02-.02-.02-.06-.04-.08-.08-.02-.04-.06-.06-.08-.04-.06-.1-.14-.16-.22-.04-.08-.06-.18-.12-.36-.02-.06,0-.08-.02-.14-.04-.08-.1-.2-.06-.34-.04-.08-.14-.12-.16-.2-.04-.2-.02-.38-.06-.56-.02-.12-.14-.22-.08-.36-.08-.08-.1-.22-.18-.28.04-.16-.06-.32-.06-.52,0-.1.02-.18.04-.3v-.34c.02-.16.08-.3.12-.42.02-.14,0-.28.1-.32-.1-.34.12-.6.12-.94.06-.04.06-.18.12-.22,0-.28.14-.42.18-.64.14-.06.18-.2.26-.32.04-.04.08-.04.1-.06.06-.04.06-.22.2-.2.04-.1,0-.06,0-.18.16-.06.22-.22.38-.32.04-.02.12-.04.16-.06.04-.04.08-.06.12-.1.08-.06.12-.12.18-.18.1-.08.22-.16.34-.22.08-.1.22-.18.34-.26.04-.02.1-.1.16-.12.04-.02.12-.02.16-.02.08-.04.24-.18.36-.1.18-.18.48-.24.84-.24.1.02.1-.08.16-.08.26-.02.4-.08.72-.06.1,0,.2.04.28.04.12,0,.26-.04.36-.06.08,0,.14-.02.2-.02.14-.02.3-.04.48,0,.06.02.14.08.2.08s.16-.04.22-.04c.08.02.16.06.22.08.06.02.14.06.2.06.08.02.18,0,.26.02.1,0,.22.06.32.1.1.02.22.08.32.1.36.06.66-.02,1,.12.06.02.14.1.22.14.02,0,.08-.02.1,0,.04.02.08.1.12.12.06.06.16.04.12.14.32.1.54.32.78.5,0,.12.06.22.12.32.1.1.18.2.28.3.04.04.02.12.06.22.04.12.16.3.24.44,0,.2.02.16.1.32.06.14.12.38.3.46-.02.14.1.28.12.42.02.18.02.38.02.54,0,.06-.04.12-.02.16,0,.1.04.2.04.3.02.06-.02.1-.02.16ZM28.96,26.64c0-.1.02-.12,0-.24-.04-.26-.18-.48-.24-.78-.02-.16.02-.34-.04-.52-.1-.04-.08-.16-.14-.22-.06-.1-.2-.14-.22-.26-.14-.06-.26-.12-.38-.2-.16,0-.28-.02-.38-.04-.12-.04-.18-.12-.28-.14-.2-.02-.22.1-.44.06-.14-.06-.18-.22-.3-.3-.14-.04-.12-.02-.26-.02-.08-.02-.08-.12-.2-.1-.22.06-.5.2-.8.08-.1.02-.16.08-.24.14,0-.08-.16-.02-.22-.04-.22.14-.54.26-.74.36-.06.02-.1,0-.14.04-.08.04-.14.16-.2.22-.08.08-.14.16-.22.22-.06.04-.1.04-.14.06-.24.12-.36.36-.58.46-.02.2-.2.3-.28.48-.06.14-.08.36-.14.48-.02.06-.04.12-.06.16-.1.3,0,.62-.16.88.08.04.04.16.06.26.04.14.12.26.06.42-.02.04-.08.02-.06.1.06.02.06.1.08.16.04.04.08.1.1.16.02.02-.02.06,0,.1.02.08.14.16.08.28.12.04.1.2.2.24-.06.14.14.28.08.52.04.02.08.04.1.06.02.04,0,.08.02.14.06.06.14.12.14.22.14.04.22.2.34.3.06.06.12.08.18.14.12.08.18.16.26.22.02.02.04.06.06.06.08.04.18.04.26.08s.14.12.2.14c.2.08.46.04.64.24.22,0,.34.1.6.08.1,0,.14.1.26.1.12-.02.16-.06.26-.06.12-.02.26.04.36.04.14-.02.34-.14.42-.18.1-.08.2-.16.36-.16.02-.12.14-.18.22-.26.14-.12.24-.2.3-.32.06-.1.14-.16.2-.24.18-.24.3-.48.44-.74.08-.14.16-.28.2-.42.02-.04,0-.1,0-.16.02-.1.1-.14.04-.18.06-.22.1-.34.08-.48.14-.14.1-.32.14-.56.02-.12.1-.22.1-.32.04-.22.04-.54.04-.68.02-.04-.02-.04-.02-.08Z"/><path class="cls-1" d="M38.82,23.28c0,.12.04.2.02.26-.06.18-.22.22-.32.32-.26-.12-.44.02-.66.06-.06,0-.2.02-.26.02-.22,0-.38.12-.54.14-.12.02-.24-.04-.36.04-.1.22-.02.5-.06.8,0,.06-.02.12-.02.2-.02.2.04.42.04.64s-.04.44.06.62c-.08.16-.08.38-.08.6-.06.38.04.88.04,1.26-.02.16-.04.3-.06.46,0,.04.06.06.04.12,0,.02-.06.06-.06.06-.02.02.02.06.02.1-.02.24,0,.6-.02.98,0,.04,0,.14,0,.12,0,.1-.04.18-.04.26.02.22.12.46-.04.68,0,.08.04.14.06.22,0,.06-.04.12-.04.16,0,.06.06.14.06.2s-.04.08-.04.16c0,.12.04.3.06.48-.04.04-.04.1-.1.12.1.26.02.54-.14.68-.34-.04-.68-.14-1-.08-.16.02-.32.1-.52.02-.1.02-.14.08-.24.08-.1.02-.18-.1-.28-.12-.04-.32.02-.82,0-1.32,0-.12-.04-.22-.06-.34-.02-.18,0-.4-.02-.58,0-.08.04-.18.04-.26,0-.1-.06-.06-.06-.22,0-.32.08-.62.14-.9-.04-.06-.04-.12-.06-.2,0-.1.02-.22.02-.32-.02-.1-.1-.26-.1-.38,0-.1.04-.12-.02-.24-.02-.04-.02-.08-.06-.12.04-.32.1-.66.08-1,0-.08-.04-.12-.06-.2-.02-.1,0-.22-.02-.36-.02-.18-.04-.4-.02-.64,0-.08.04-.16.04-.26,0-.12-.06-.24-.06-.36,0-.22.06-.44.06-.66-.02-.08-.06-.18-.06-.26-.02-.24.1-.48.04-.72-.04-.04-.08.02-.12.04-.16.02-.32.06-.5.12-.1.02-.2.04-.32.08-.2.06-.3.14-.46.02-.04-.08-.08-.06-.08-.06-.06-.06-.12-.14-.14-.2-.02-.22.08-.32.22-.44-.06-.1.04-.14.06-.26s0-.28.04-.42c.04-.16.16-.28.18-.42.02-.18-.06-.38-.02-.54.04-.24.18-.32.48-.26.16.04.32.04.36.18.22-.02.3.1.5.1.18-.24.1-.68.12-1.1.02-.02.04-.12.04-.16,0-.08-.04-.16-.06-.26-.02-.16-.02-.34.02-.54.02-.08.06-.18.06-.26s-.02-.18-.06-.26c-.02-.06-.1-.12-.02-.18.02-.14-.18-.08-.12-.28.04-.02.06-.06.06-.12.12-.06.16,0,.3,0,.2-.06.3-.08.54-.04.02-.04.06-.06.1-.06.14.02.24.08.38.1.1-.02.18-.08.26-.1.06,0,.06.04.08.04,0,0,.16-.08.22,0,.12-.02.06.1.1.14.02.04.08.04.08.1.06.2-.02.66-.04.94,0,.02.04.04.02.08v.3c0,.08-.04.22-.04.28s.04.1.06.18c.02.06-.02.16,0,.22.02.18.12.3-.04.48.06.16,0,.3-.02.48,0,.08.02.18.02.26,0,.12-.1.24-.04.36.2.02.34-.14.5-.18.16-.06.34.02.48-.12.14.1.32-.12.42.04.12-.16.5-.24.72-.18.1-.02.06.1.08.16.02.04.08.08.1.14.02.04-.02.16,0,.26,0,.06.06.1.06.16s-.04.08-.04.12c.02.18.1.34.12.48,0,.06.02.14.02.14.02.06-.02.08-.02.12Z"/><path class="cls-1" d="M43.44,19.54c-.02.08-.1.14-.14.2-.02.06-.02.14-.04.2-.02.1-.14.28-.2.4-.12.04-.24.18-.36.22-.04.02-.1,0-.16.04-.16.06-.36.18-.54.18-.1,0-.18-.06-.26-.08-.14-.02-.26-.02-.4-.04-.1-.24-.32-.4-.4-.68-.06-.08-.12-.14-.18-.2,0-.2-.12-.38-.12-.58,0-.08.04-.2.08-.3.02-.12.04-.28.06-.34.02-.04.08-.04.1-.08.02,0,.02-.06.04-.08.04-.04.12-.04.16-.1.02-.02-.02-.08,0-.1.1-.08.08-.12.1-.16.08-.1.24-.2.36-.28.14-.1.36-.06.62-.08.1.22.4.24.54.44h.2c0,.06.04.06.08.1.18.12.38.36.48.62.02.04.02.08.02.1.04.06,0,.46-.04.6ZM43.46,23.12c0,.12.06.22.06.34,0,.18-.08.4-.08.6,0,.18,0,.34.02.56,0,.1.04.12,0,.22-.16.34,0,1,0,1.46-.02.26-.1.52-.12.8-.06.58-.04,1.2-.1,1.76-.02.16,0,.32-.02.46-.02.36-.08.7-.12,1.02-.02.24.02.46.02.68,0,.14.02.24.02.36.02.1.06.2.06.3,0,.04-.02.1-.04.16,0,.04.04.12.04.12,0,.06-.04.1-.04.16s.04.1.04.14c-.02.08-.08.18-.08.28,0,.22.06.42.02.62-.16.08-.3.2-.58.14-.14-.04-.12-.26-.22-.36-.2-.02-.32-.08-.46-.16-.1.04-.3-.02-.48-.04-.2-.04-.4-.02-.5-.08-.02-.02-.02-.1-.08-.08-.08-.1-.04-.3-.14-.38.04-.1.08-.22.1-.32.04-.24-.04-.46-.02-.72,0-.06.02-.14.04-.22,0-.02.04-.04.04-.1-.02-.06-.02-.18,0-.32,0-.02.04-.04.04-.1,0-.04-.04-.06-.04-.08.02-.04.06-.04.08-.08.02-.06-.04-.12-.04-.16.06-.28.08-.84.1-1.02,0-.12.02-.16.02-.3.02-.04-.02-.08-.02-.1.02-.4.08-.76.06-1.18-.02-.26.04-.5.04-.74.02-.26-.06-.48.06-.72-.1-.24-.02-.52-.02-.76,0-.2,0-.38.02-.58,0-.14-.04-.28,0-.42v-.14c.02-.12.04-.24.04-.28,0-.1-.06-.18-.06-.26,0-.1.02-.18,0-.26,0-.04-.04-.06-.06-.1v-.1c0-.1,0-.18.02-.26-.02-.14-.22-.12-.26-.22-.06-.2-.16-.48.02-.62.12-.06.24-.02.42,0,.04.02.06.04.12.04.02,0,.06-.04.1-.02.08.02.18.08.28.1.52.06,1.46-.18,1.66-.04.08.06.04.18.12.2-.04.24-.1.48-.08.8Z"/><path class="cls-1" d="M57.24,27.1c-.02.12.08.32-.02.42.16.14.06.32.02.54-.02.12.02.26,0,.34-.02.06-.08.12-.1.18-.04.06-.04.16-.1.16.02.16-.02.32-.08.46-.02.04-.02.1-.04.16,0,.04-.06.08-.06.12-.02.06.02.14,0,.2-.02.06-.08.12-.1.18-.08.2-.16.4-.24.62-.12.26-.22.52-.38.7,0,.14.02.12,0,.26-.12.12-.24.2-.34.38-.04.1-.1.2-.2.32s-.24.18-.36.3c-.14,0-.12.04-.22,0-.2.2-.36.28-.68.38-.02,0-.1.06-.1.06-.06,0-.12-.02-.16,0-.16.04-.32.14-.52.14-.06,0-.14-.04-.2-.04-.1.02-.18.08-.3.1-.2.04-.44.02-.68.04-.04,0-.06.04-.08.04-.04,0-.04-.04-.08-.04s-.08.06-.12.06c.04,0-.14,0-.14,0-.06,0-.14-.02-.18,0-.16.02-.3.12-.56.08-.06-.02-.04.06-.1.06-.32.02-.82.08-1.08-.12-.08.04-.18.04-.26.02-.06,0-.08-.04-.14-.06h-.12c-.26-.06-.58-.14-.78-.3-.06-.02-.12-.02-.18-.02-.18-.1-.28-.24-.54-.26,0-.1-.08-.1-.06-.2-.1.06-.14-.06-.2-.1-.06-.04-.14-.06-.2-.1-.04-.04-.08-.1-.14-.14s-.16-.06-.2-.1c-.06-.04-.1-.12-.16-.2-.04-.04-.16-.08-.12-.18-.1-.08-.18-.16-.28-.24-.02-.1-.08-.14-.06-.26-.06-.06-.1-.06-.16-.14-.02-.02-.02-.06-.04-.08-.08-.02-.04-.06-.06-.08-.04-.06-.1-.14-.16-.22-.04-.08-.06-.18-.12-.36-.02-.06,0-.08-.02-.14-.04-.08-.1-.2-.06-.34-.04-.08-.14-.12-.16-.2-.04-.2-.02-.38-.06-.56-.02-.12-.14-.22-.08-.36-.08-.08-.1-.22-.18-.28.04-.16-.06-.32-.06-.52,0-.1.02-.18.04-.3v-.34c.02-.16.08-.3.12-.42.02-.14,0-.28.1-.32-.1-.34.12-.6.12-.94.06-.04.06-.18.12-.22,0-.28.14-.42.18-.64.14-.06.18-.2.26-.32.04-.04.08-.04.1-.06.06-.04.06-.22.2-.2.04-.1,0-.06,0-.18.16-.06.22-.22.38-.32.04-.02.12-.04.16-.06.04-.04.08-.06.12-.1.08-.06.12-.12.18-.18.1-.08.22-.16.34-.22.08-.1.22-.18.34-.26.04-.02.1-.1.16-.12.04-.02.12-.02.16-.02.08-.04.24-.18.36-.1.18-.18.48-.24.84-.24.1.02.1-.08.16-.08.26-.02.4-.08.72-.06.1,0,.2.04.28.04.12,0,.26-.04.36-.06.08,0,.14-.02.2-.02.14-.02.3-.04.48,0,.06.02.14.08.2.08s.16-.04.22-.04c.08.02.16.06.22.08.06.02.14.06.2.06.08.02.18,0,.26.02.1,0,.22.06.32.1.1.02.22.08.32.1.36.06.66-.02,1,.12.06.02.14.1.22.14.02,0,.08-.02.1,0,.04.02.08.1.12.12.06.06.16.04.12.14.32.1.54.32.78.5,0,.12.06.22.12.32.1.1.18.2.28.3.04.04.02.12.06.22.04.12.16.3.24.44,0,.2.02.16.1.32.06.14.12.38.3.46-.02.14.1.28.12.42.02.18.02.38.02.54,0,.06-.04.12-.02.16,0,.1.04.2.04.3.02.06-.02.1-.02.16ZM54.92,26.64c0-.1.02-.12,0-.24-.04-.26-.18-.48-.24-.78-.02-.16.02-.34-.04-.52-.1-.04-.08-.16-.14-.22-.06-.1-.2-.14-.22-.26-.14-.06-.26-.12-.38-.2-.16,0-.28-.02-.38-.04-.12-.04-.18-.12-.28-.14-.2-.02-.22.1-.44.06-.14-.06-.18-.22-.3-.3-.14-.04-.12-.02-.26-.02-.08-.02-.08-.12-.2-.1-.22.06-.5.2-.8.08-.1.02-.16.08-.24.14,0-.08-.16-.02-.22-.04-.22.14-.54.26-.74.36-.06.02-.1,0-.14.04-.08.04-.14.16-.2.22-.08.08-.14.16-.22.22-.06.04-.1.04-.14.06-.24.12-.36.36-.58.46-.02.2-.2.3-.28.48-.06.14-.08.36-.14.48-.02.06-.04.12-.06.16-.1.3,0,.62-.16.88.08.04.04.16.06.26.04.14.12.26.06.42-.02.04-.08.02-.06.1.06.02.06.1.08.16.04.04.08.1.1.16.02.02-.02.06,0,.1.02.08.14.16.08.28.12.04.1.2.2.24-.06.14.14.28.08.52.04.02.08.04.1.06.02.04,0,.08.02.14.06.06.14.12.14.22.14.04.22.2.34.3.06.06.12.08.18.14.12.08.18.16.26.22.02.02.04.06.06.06.08.04.18.04.26.08s.14.12.2.14c.2.08.46.04.64.24.22,0,.34.1.6.08.1,0,.14.1.26.1.12-.02.16-.06.26-.06.12-.02.26.04.36.04.14-.02.34-.14.42-.18.1-.08.2-.16.36-.16.02-.12.14-.18.22-.26.14-.12.24-.2.3-.32.06-.1.14-.16.2-.24.18-.24.3-.48.44-.74.08-.14.16-.28.2-.42.02-.04,0-.1,0-.16.02-.1.1-.14.04-.18.06-.22.1-.34.08-.48.14-.14.1-.32.14-.56.02-.12.1-.22.1-.32.04-.22.04-.54.04-.68.02-.04-.02-.04-.02-.08Z"/><path class="cls-1" d="M69.86,33.34c-.06.04-.04.18-.14.18-.04.04-.08,0-.12,0-.06,0-.1.04-.14.02-.08,0-.14-.08-.28-.1-.24-.02-.5.06-.74.06-.08,0-.16-.04-.24-.04-.26,0-.5.02-.74-.02-.1-.02-.2-.1-.32-.08-.02-.1-.16-.12-.18-.26-.06-.24.14-.52.08-.74.06-.12.12-.28.14-.44-.02-.12,0-.26,0-.3.04-.14,0-.44.02-.68s.02-.52.02-.86c0-.02-.04-.06-.04-.1.02-.18-.02-.26-.04-.36-.02-.1.04-.12.06-.18-.02-.08-.06-.06-.06-.14,0-.06.04-.1.04-.16-.02-.08-.08-.16-.1-.26,0-.08.04-.14.04-.22,0,0-.04-.06-.02-.1,0-.04.02-.06.02-.1,0-.1-.04-.2-.06-.32,0-.1.06-.24-.06-.3.04-.06.04-.14.04-.22,0-.06-.04-.1-.06-.2,0-.06.02-.18.02-.26-.02-.06-.06-.1-.06-.18,0-.14-.04-.32-.1-.42.04-.16,0-.3-.06-.46,0-.02-.04-.06-.06-.06,0-.04.02-.1,0-.14,0-.02-.04-.02-.06-.06,0-.04-.02-.08-.02-.1-.12-.28-.26-.58-.3-.98-.12-.16-.3-.28-.38-.48-.28-.14-.38-.3-.84-.24-.08,0-.18.06-.28.08-.22.06-.38.08-.56.18-.02.02-.06.08-.1.1-.04.02-.1,0-.12.02-.08.06-.12.16-.18.22-.02.04-.06.08-.1.14-.02.02-.06.06-.1.12-.04.08-.18.2-.28.26,0,.1-.1.14-.14.22-.02.02-.02.08-.04.12s-.08.04-.1.06c-.08.14-.1.34-.26.42-.02.24-.12.36-.24.48.02.34-.18.44-.28.68-.02.08.04.12.04.18-.1.1-.12.24-.18.38-.04.14-.06.3-.14.4.04.34-.16.68-.2,1.06-.02.08,0,.2-.02.28-.02.24-.06.58-.08.88,0,.06.02.14.02.22,0,.18-.06.34-.06.52-.02.12.06.3.04.42,0,.02-.04.06-.02.12,0,.1.02.22.04.32.02.1.02.22.1.26-.04.14-.04.2,0,.32.06.22.24.36.08.6-.02.02-.04.02-.06.06-.14.2-.56.06-1.02.08-.18,0-.34.04-.5.04h-.1c-.08.02-.28.04-.42.02-.08,0-.16-.06-.22-.1-.1-.04-.18-.08-.2-.1-.08-.12-.04-.28-.06-.42,0-.08-.06-.18-.06-.26,0-.2.04-.42.06-.64,0-.18.04-.36.04-.52,0-.12-.04-.32.08-.44.06-.1-.06-.06-.08-.14,0-.04.08-.1.08-.12,0-.1-.02-.18-.04-.26v-.66c-.02-.26-.06-.5-.08-.84-.04-.08,0-.08,0-.08,0-.06-.04-.12-.04-.18s.04-.08.04-.12c0-.08-.06-.14-.06-.22,0-.12.02-.26.04-.36.02-.08.06-.14.08-.22,0-.06-.04-.12-.04-.16s.04-.08.04-.14c-.02-.22-.1-.48.02-.76-.06-.14-.14-.32-.02-.42-.04-.14-.12-.24-.12-.4-.02-.06.02-.1.02-.16.02-.2-.08-.62.06-.8-.12-.22-.02-.54-.04-.84-.02-.08-.06-.16-.06-.24-.04-.2,0-.42-.02-.6-.02-.08-.04-.14-.06-.2-.06-.16-.06-.5-.12-.72.06-.04.08-.14.14-.22.18-.04.5-.04.58.12.12-.1.26-.04.42-.02.1,0,.32-.02.5-.02.24-.02.46-.02.66-.02.08.08.14.12.18.22.12.24.12.72.18,1.08.12.02.1-.12.16-.16.12-.08.28-.16.4-.28.1-.02.14-.08.26-.06.08-.06.12-.16.18-.22.1-.02.16-.08.24-.14.06-.02.2-.04.2-.14.14,0,.26-.12.38-.2.06-.02.14-.04.2-.08s.1-.12.16-.14c.06-.02.16,0,.26-.02.08-.02.16-.04.24-.06.06-.02.12-.02.18-.02.08-.02.16-.06.24-.06.12-.02.26-.04.34-.04.22.08.44.06.58.08.06.02.08.06.14.08.12.02.3.04.42.06.06.04.14.08.22.1.22.08.26.08.42.24.04.06.12.12.12.2.16.1.3.2.44.36.04.06.08.14.12.2.08.08.18.12.26.2.08.06.12.18.22.2,0,.18.18.28.24.42.06.12.02.3.16.4.02.24.18.44.28.68l.12.36c.04.12.08.22.12.32.02.04-.02.1,0,.14,0,.02.06.04.06.06.02.06,0,.12.02.2.08.2.16.42.22.7.02.06,0,.14.02.2.02.06.06.1.06.16.02.12.02.24.04.36,0,.08.04.2.04.3.02.1-.02.2,0,.32.02.2.1.42.14.64.04.14-.06.16-.06.26.04.1.1.22.12.36,0,.06-.04.14-.04.22,0,.16.08.36-.08.48.12.24.16.6.06.84-.04.14.08.1.06.22-.1.2-.02.38-.06.58,0,.1-.06.16-.06.26-.06.1.1.22,0,.36.02.14.12.18.08.4.04.08.14.1.22.16-.04.18.1.16.1.32.02.14-.1.12-.14.2Z"/></g></svg>