<?xml version="1.0" encoding="UTF-8"?><svg id="Calque_2" xmlns="http://www.w3.org/2000/svg" viewBox="0 0 74.52 11.54"><defs><style>.cls-1{fill:#f1e2c3;stroke-width:0px;}</style></defs><g id="freepik"><path class="cls-1" d="M19.83,7.2s0-.09.04-.09h.22c1.78-.18,3.26-1.33,3.26-3.36,0-2.34-1.89-3.43-4.06-3.43h-10.15c-.14,0-.25.11-.25.25v10.4c0,.14.11.25.25.25h3.24c.14,0,.25-.11.25-.25v-3.32c0-.14.11-.25.25-.25h2.11c.29,0,.57.13.76.34l3,3.39c.06.03.12.05.18.08h4.28c.22,0,.33-.26.18-.42l-3.55-3.59h0ZM18.48,4.96h-5.61c-.14,0-.25-.11-.25-.25v-1.58c0-.14.11-.25.25-.25h5.53c.79,0,1.31.39,1.31,1,0,.71-.49,1.07-1.23,1.07h0Z"/><path class="cls-1" d="M20.19,7.11v-.06c-.06.07-.1.15-.14.22-.13.08-.39.05-.11.07.16,0,.32-.03.47-.06.37-.07.73-.17,1.08-.31.67-.29,1.28-.75,1.68-1.36.86-1.32.7-3.3-.46-4.39C21.2-.2,18.87.1,16.96.1h-7.06c-.49,0-1.25-.1-1.37.54s0,1.41,0,2.06v7.3c0,.51-.2,1.35.48,1.46.37.06.82,0,1.2,0,.59,0,1.19,0,1.78,0,.39,0,.85-.02.99-.45.1-.32.02-.76.02-1.09v-1.85c0-.08.05-.36,0-.43,0,0-.39,0-.15,0,.13,0,.27,0,.4,0,.51,0,1.08-.08,1.59,0s.76.47,1.07.82c.78.88,1.55,1.76,2.33,2.64.49.54,1.25.36,1.93.36.95,0,1.96.09,2.91,0,.43-.04.94-.31.64-.8-.16-.25-.48-.49-.69-.7l-2.53-2.56c-.13-.13-.32-.41-.53-.41-.3,0-.76.45-.27.45-.26,0-.19-.11-.03.09.11.13.25.25.37.37l1.24,1.25c.22.22,1.98,1.7,1.74,2.01l.29-.19c-.45.14-1.54.02-2.16.02h-1.43c-.18,0-.5.05-.64-.02-.19-.1-.41-.46-.55-.62l-1.08-1.22c-.48-.54-.94-1.24-1.52-1.68-.63-.48-1.79-.28-2.53-.28-.3,0-.68-.04-.93.17s-.21.49-.21.78v1.43c0,.31-.14,1.04,0,1.33.07.13.17.11.2.1-.13.02-.27,0-.4,0h-1.59c-.21,0-.96.12-1.12,0-.12-.09-.08-.13-.09-.31-.03-.67,0-1.34,0-2.01V1.38c0-.18.07-.55,0-.73-.01-.03.02-.09,0-.11.02.03-.38-.01-.19,0,.21.02.43,0,.63,0h8.67c.73,0,1.45-.02,2.16.17,1.76.47,2.77,2.09,2.36,3.89-.21.92-.83,1.65-1.7,2.02-.33.14-.69.22-1.04.26-.21.02-.37,0-.57.13-.07.05-.15.13-.13.22v.06c.06.28.79.1.74-.19Z"/><path class="cls-1" d="M18.61,4.74h-5.35s-.22.03-.26,0c-.09-.08-.02-.55-.02-.64v-.48c0-.12.04-.31,0-.42-.05-.16,0-.04-.25-.07.03,0,.07,0,.1,0,.16,0,.33,0,.49,0h3.79c.38,0,.76,0,1.14,0,.44,0,.94.15,1.06.64.13.53-.16.97-.7.98-.13,0-.5.06-.5.26h0c0,.33.73.19.73-.08h0c-.17.09-.33.18-.5.26.49-.01,1.02-.11,1.38-.47.31-.31.44-.82.3-1.23-.23-.68-1.01-.82-1.65-.82h-4.02c-.44,0-.89-.02-1.33,0-.33.01-.72.14-.77.52-.04.27,0,.58,0,.85,0,.25-.04.53,0,.78.05.28.29.37.55.38.51.02,1.02,0,1.53,0h4c.15,0,.4-.05.48-.21.07-.15-.06-.24-.2-.24Z"/><rect class="cls-1" x="57.3" y=".32" width="3.73" height="7.4" rx=".25" ry=".25"/><path class="cls-1" d="M60.93.12h-2.4c-.55,0-1.59-.15-1.59.65,0,1.77,0,3.54,0,5.31v1.11c0,.16-.04.38.05.52.16.29.62.21.9.21h1.51c.52,0,1.96.22,2-.57.03-.62,0-1.24,0-1.86V.78c0-.32.02-.58-.39-.66-.16-.03-.4.01-.51.14-.1.11-.09.22.07.26s.11.4.11.49v6.16c0,.09-.02.19,0,.28.03.13-.07.12.13.09.28-.04,0-.03-.07-.03h-2.56c-.11,0-.31.04-.41,0-.12-.05-.09-.22-.09-.36V1.05c0-.11.06-.48,0-.57,0,.01-.45.05-.07.05h3.06c.15,0,.41-.05.48-.2s-.06-.21-.2-.21Z"/><rect class="cls-1" x="57.3" y="9.19" width="3.73" height="2.03" rx=".25" ry=".25"/><path class="cls-1" d="M60.83,8.93h-2.36c-.29,0-.59-.02-.88,0-.32.02-.64.24-.65.58,0,.19,0,.39,0,.58v.74c0,.21,0,.42.2.56.24.17.73.1,1.01.1.86,0,1.72.03,2.58,0,.31,0,.65-.2.68-.54.02-.19,0-.39,0-.58v-.81c0-.06,0-.12,0-.17-.02-.27-.23-.42-.49-.44-.17-.02-.4.05-.47.22s.07.28.22.3c-.02,0,0,.04,0,.02,0,.01,0,.03,0,.04,0,.07,0,.15,0,.22v.68c0,.18,0,.35,0,.53,0,.01,0,.04,0,.05,0,0,0,0,0,0v.03c.05-.02.1-.05.15-.07,0,0-.05,0-.05,0-.31-.04-.65,0-.97,0h-1.37c-.27,0-.57-.03-.84,0-.02,0-.06.02.04,0,.11-.01.02.02.03-.04,0,0,0,.03,0,.01,0-.05,0-.1,0-.15v-1.24s.01-.1,0-.13c0,0,0,0,0,0v-.03c-.05.02-.1.05-.15.07,0,0,.02,0,.02,0,.07.03.21,0,.29,0h2.93c.15,0,.38-.12.4-.29.02-.19-.19-.23-.33-.23Z"/><path class="cls-1" d="M74.14,10.89l-4.17-5.52c-.09-.12-.09-.3.02-.41l3.94-4.32c.11-.12.02-.32-.14-.32h-3.41c-.09,0-.18.04-.24.1l-3.8,4.18h0s-.03.02-.05.02h-.14s-.06-.03-.07-.06V.55c0-.13-.1-.23-.23-.23h-3.12c-.13,0-.23.1-.23.23v10.43c0,.12.09.21.21.21h3.15c.12,0,.21-.09.21-.21v-1.94c0-.08.03-.16.09-.22l1.38-1.48s.01-.02.04-.02h.19s.04.02.04.02l2.79,3.72c.06.08.16.13.26.13h3.13c.15,0,.24-.17.15-.3h0Z"/><path class="cls-1" d="M74.47,10.74c-1-1.32-2-2.64-2.99-3.97l-.78-1.04c-.1-.13-.34-.34-.38-.51-.06-.22.17-.37.31-.52l.88-.97,2.11-2.32c.25-.28,1.26-1.17.34-1.34-.27-.05-.58,0-.85,0h-1.67c-.63,0-1.22-.11-1.69.37-1.28,1.31-2.47,2.72-3.7,4.07l.34-.16c-.45,0,.13.13.08.17.02-.02,0-.21,0-.24V.84c0-.15.03-.36-.04-.5-.13-.28-.44-.27-.7-.27-.76,0-1.53,0-2.29,0-.46,0-1.16-.09-1.27.52-.06.31,0,.69,0,1v9.01c0,.38-.05.76.45.84.59.09,1.25,0,1.84,0,.47,0,1.41.18,1.81-.16.23-.19.2-.42.2-.69v-1.25c0-.23-.02-.34.1-.52.21-.31.54-.58.8-.86.12-.13.26-.26.38-.4,0,0,.11-.1.1-.11,0,0-.4.1-.14.11-.17,0-.2-.16-.16,0,.03.1.17.23.24.31l1.65,2.2c.3.4.69,1.22,1.23,1.34.66.15,1.47.02,2.14.02.44,0,1.95.21,1.71-.65l-.69.25h0c.22.22.91-.07.66-.31h0c-.18-.18-.79-.08-.69.25-.06-.2.4-.01.14-.06-.09-.02-.19,0-.28,0h-1.9c-.21,0-.54.07-.74,0-.14-.05-.02,0-.12-.1-.13-.14-.24-.32-.36-.47l-1.16-1.55-1.05-1.4c-.21-.28-.41-.43-.79-.33-.4.1-.75.66-1.01.94s-.74.64-.8,1.06c-.08.5,0,1.08,0,1.59,0,.04-.03.27,0,.29.05.06.15-.04.17-.03-.1-.06-.43,0-.54,0h-1.94c-.15,0-.46.06-.6,0-.11-.05.08.15.07.01,0-.03,0-.06,0-.09.06-.27,0-.61,0-.88V1.08c0-.12.06-.46,0-.56.04.06-.26-.02-.11.06.05.02.19,0,.24,0h.85c.59,0,1.18-.01,1.77,0,.25,0,.08-.05.08.07-.01.2,0,.4,0,.6v1.96c0,.42-.08.94,0,1.35.03.16.05.23.22.3.11.04.25.02.36,0s.25-.13,0-.02c.09-.04.18-.04.27-.1.22-.15.41-.44.59-.63l2.58-2.84c.2-.22.43-.6.69-.76-.15.09.07.04.21.04h2.74c.09,0,.18.01.27,0,.22-.03-.07,0-.03-.03-.07.06-.12.14-.18.2l-2.43,2.67-1.1,1.2c-.25.27-.49.52-.27.91.39.69.99,1.31,1.47,1.94l2.27,3,.43.57c.19.25.88-.03.66-.31Z"/><path class="cls-1" d="M28.38,2.81h3.17c.14,0,.25-.11.25-.25V.57c0-.14-.11-.25-.25-.25h-6.56c-.14,0-.25.11-.25.25v10.4c0,.14.11.25.25.25h6.56c.14,0,.25-.11.25-.25v-2c0-.14-.11-.25-.25-.25h-3.19c-.14,0-.25-.11-.25-.25v-1.29c0-.15.12-.27.27-.27h3.17c.14,0,.25-.11.25-.25v-1.95c0-.14-.11-.25-.25-.25h-3.17c-.15,0-.27-.12-.27-.27v-1.13c0-.15.12-.27.27-.27h0Z"/><path class="cls-1" d="M28.24,3.03h2.75c.34,0,.76.05,1.02-.23s.15-.87.15-1.22c0-.33.12-.91-.03-1.23-.13-.27-.45-.24-.7-.24h-5.95c-.51,0-1.06.06-1.09.68-.08,1.9,0,3.83,0,5.73v4.18c0,.14-.03.36.03.49.22.45,1.51.24,1.87.24h4.76c.25,0,.54.03.77-.09.43-.21.34-.64.34-1.05,0-.44.06-.92,0-1.36s-.41-.42-.75-.42h-2.42c-.08,0-.41.05-.48,0-.27-.21.13-1.05-.04-1.33-.06-.09-.36-.05-.07-.06.21,0,.43,0,.65,0h1.74c.32,0,.73.06,1.03-.09.45-.22.34-.71.34-1.12s.09-.9,0-1.3c-.09-.43-.55-.36-.89-.36h-1.65c-.21,0-1,.12-1.13-.06-.07-.1,0-1.22-.07-1.2l-.41-.15h0c0,.32.73.17.73-.08h0c0-.21-.28-.19-.41-.15-.6.16-.58.53-.58,1.07,0,.45-.09.94.49,1.01.83.09,1.71,0,2.55,0,.14,0,.37-.04.51,0s.11.03.14.19c.07.48,0,1.02,0,1.51,0,.05-.02.21,0,.26,0,.01,0,.05,0,.06h0c0,.09.08.09.25,0-.02-.03-.3,0-.34,0h-1.56c-.57,0-1.95-.24-2.03.6-.04.38-.05.85,0,1.22.06.42.41.42.75.42h2.29c.13,0,.44-.06.55,0,.2.11.1.68.1.91v.76c0,.07-.03.22,0,.29.09.21-.12-.07.13.11.06.04.18,0-.01,0-.13,0-.26,0-.39,0h-5.73c-.2,0-.25.05-.31-.12-.05-.14,0-.41,0-.55V2.8c0-.66.1-1.41,0-2.07-.04-.26.04-.18-.22-.19.24.02.49,0,.74,0h4.65c.31,0,.68-.06.98,0,.09.02.1-.02.15.04.07.09.01.42.01.52v.78c0,.17-.06.49,0,.65.08.2-.14-.1.12.08.03.02.19,0,.06,0-.18,0-.37,0-.55,0h-2.55c-.28,0-.76.43-.28.43Z"/><path class="cls-1" d="M36.9,2.81h3.17c.14,0,.25-.11.25-.25V.57c0-.14-.11-.25-.25-.25h-6.56c-.14,0-.25.11-.25.25v10.4c0,.14.11.25.25.25h6.56c.14,0,.25-.11.25-.25v-2c0-.14-.11-.25-.25-.25h-3.19c-.14,0-.25-.11-.25-.25v-1.29c0-.15.12-.27.27-.27h3.17c.14,0,.25-.11.25-.25v-1.95c0-.14-.11-.25-.25-.25h-3.17c-.15,0-.27-.12-.27-.27v-1.13c0-.15.12-.27.27-.27h0Z"/><path class="cls-1" d="M36.87,3.08h2.75c.35,0,.78.04.99-.32.19-.33.08-.92.08-1.28,0-.32.11-.91-.07-1.21-.17-.26-.51-.23-.78-.23h-5.95c-.54,0-.96.15-.98.75-.06,1.93,0,3.87,0,5.81v3.15c0,.38-.15,1.15.07,1.5.28.44,1.54.23,1.95.23h4.76c.26,0,.53.03.76-.13.35-.25.25-.77.25-1.15,0-.42.06-.89,0-1.3-.07-.46-.49-.46-.86-.46h-2.42c-.08,0-.42.05-.48,0,.09.09.07-.37.07-.43,0-.25.05-.57,0-.81,0-.05-.21-.03.03-.02.21.01.43,0,.65,0h1.74c.32,0,.74.06,1.02-.13.37-.26.25-.84.25-1.22s.12-.98-.04-1.33-.63-.3-.96-.3h-1.65c-.19,0-1.02.06-1.07-.02-.04-.06.09-1.14,0-1.12l-.44-.23h0c0,.39.74.29.74-.05h0c0-.23-.26-.28-.44-.24-.6.16-.57.6-.57,1.12,0,.45-.08,1,.51,1.08.82.11,1.72,0,2.55,0,.18,0,.37,0,.55,0,.22,0,.08-.04.07.09-.02.48,0,.97,0,1.44,0,.1-.04.32,0,.41-.02-.04.23-.02.09-.05-.07-.01-.15,0-.22,0h-1.52c-.62,0-1.95-.26-2.04.64-.04.38-.06.88,0,1.26.07.45.47.46.83.46h1.46c.44,0,.94-.07,1.37,0,.15.03.05-.04.02.11-.03.21,0,.46,0,.68v.77c0,.1-.05.34,0,.44-.04-.08.28-.01.02-.05-.12-.02-.26,0-.38,0h-5.74c-.06,0-.22.03-.26,0-.08-.05.05.06.04-.04-.04-.54,0-1.09,0-1.63V2.86c0-.69.07-1.43,0-2.12-.03-.26.04-.13-.12-.15.23.04.51,0,.75,0,1.88,0,3.76-.04,5.64,0,.02,0,.08-.01.1,0,.08.05-.03-.06,0,0,0-.02-.04.42-.04.48v.78c0,.16-.07.5,0,.65-.02-.05.04.27.07.06.02-.1.12.02,0-.03-.14-.05-.41,0-.55,0h-2.55c-.42,0-.55.55-.06.55Z"/><path class="cls-1" d="M4,2.81h3.17c.14,0,.25-.11.25-.25V.57c0-.14-.11-.25-.25-.25H.61c-.14,0-.25.11-.25.25v10.4c0,.14.11.25.25.25h2.87c.14,0,.25-.11.25-.25v-3.78c0-.15.12-.27.27-.27h3.17c.14,0,.25-.11.25-.25v-1.95c0-.14-.11-.25-.25-.25h-3.17c-.15,0-.27-.12-.27-.27v-1.13c0-.15.12-.27.27-.27h0Z"/><path class="cls-1" d="M3.97,3.08h2.32c.62,0,1.46.13,1.5-.71.02-.46,0-.93,0-1.39,0-.32.07-.71-.28-.88-.42-.2-1.17-.06-1.6-.06C4.2.05,2.46-.05.76.05c-.51.03-.76.3-.76.78v9.85c0,.5.13.79.71.81.85.02,1.72.03,2.57,0,.32,0,.66-.07.79-.42.08-.23.03-.54.03-.78v-2.78c0-.09.03-.22,0-.31-.03-.09-.19-.01-.05-.02.38-.03.76,0,1.14,0h1.46c.28,0,.6.04.85-.11.35-.21.29-.59.29-.94,0-.45.03-.9,0-1.35-.04-.78-1.02-.58-1.59-.58h-1.5c-.16,0-.34.02-.51,0-.21-.02-.08.05-.09-.1-.02-.13,0-1.05-.03-1.04l-.41-.3h0c-.13.4.59.4.69.09h0c.09-.26-.21-.36-.41-.3-.47.13-.57.42-.57.86,0,.29-.1.82.07,1.09.29.46,1.58.24,2.01.24h1.31c.07,0,.28-.04.34,0-.04-.03-.03.07-.05.18-.07.41,0,.9,0,1.31,0,.09-.05.35,0,.43,0,0,.24.02.04-.02-.34-.06-.75,0-1.1,0h-1.38c-.56,0-1.21-.02-1.25.7-.04.81,0,1.63,0,2.44,0,.32-.07.74,0,1.05.01.05-.02.11,0,.16-.08-.21.25,0,.09-.05-.05-.01-.12,0-.17,0-.82,0-1.64.01-2.46,0-.2,0-.11.04-.08-.12.03-.18,0-.39,0-.57V.8c0-.06.03-.2,0-.26.04.1-.27,0-.05.05.09.02.21,0,.29,0h5.08c.29,0,.58,0,.87,0,.25,0,.18-.05.13.14-.1.36,0,.9,0,1.28,0,.13-.05.38,0,.49.01.02-.01.06,0,.08-.06-.14.24-.01.09-.05-.3-.07-.69,0-1,0h-2.12c-.42,0-.55.54-.06.54Z"/><path class="cls-1" d="M51.85.32h-9.81c-.14,0-.25.11-.25.25v10.4c0,.14.11.25.25.25h3.24c.14,0,.25-.11.25-.25v-3.44c0-.07.06-.13.13-.13h6.22c2.49,0,4.38-1.3,4.38-3.59s-1.89-3.49-4.39-3.49h0ZM51.38,4.96h-5.61c-.14,0-.25-.11-.25-.25v-1.58c0-.14.11-.25.25-.25h5.53c.79,0,1.31.39,1.31,1,0,.71-.49,1.07-1.23,1.07Z"/><path class="cls-1" d="M51.99.09h-9.41c-.44,0-1.03-.03-1.15.51-.08.34,0,.78,0,1.12v8.43c0,.28-.1.83.06,1.09.29.44,1.64.2,2.03.2.52,0,1.73.22,2.18-.18s.19-1.54.19-2.05v-1.38c0-.06.04-.27,0-.31.07.08-.57.05-.27.11.7.14,1.58,0,2.29,0h2.98c2.1,0,4.64-.31,5.49-2.58.46-1.23.25-2.73-.69-3.68s-2.39-1.28-3.7-1.28c-.3,0-.76.46-.27.46,1.25,0,2.62.31,3.47,1.3s.93,2.51.31,3.62c-.99,1.79-3.13,1.71-4.9,1.71-1.57,0-3.14-.05-4.71,0-.51.02-.73.2-.73.69v2.61c0,.11-.06.44,0,.54,0,0,.41,0,.06-.02-.2,0-.41,0-.61,0h-1.32c-.18,0-.9.11-1.06,0-.18-.12-.09-.59-.09-.83V2.38c0-.48.13-1.18,0-1.64-.03-.1.09-.46-.25-.19.05-.04.26,0,.31,0h9.49c.3,0,.76-.46.27-.46Z"/><path class="cls-1" d="M51.51,4.73h-5.35s-.23.03-.26,0c-.09-.08-.02-.54-.02-.64v-.48c0-.12.04-.31,0-.42-.06-.16,0-.03-.25-.07.03,0,.07,0,.1,0,.16,0,.33,0,.49,0h3.79c.38,0,.76,0,1.14,0,.44,0,.94.15,1.06.63.13.53-.16.97-.7.98-.16,0-.4.04-.48.21-.07.15.06.25.21.25.49-.01,1.02-.11,1.38-.47.31-.31.44-.82.3-1.24-.23-.68-1.01-.82-1.65-.82h-4.02c-.44,0-.89-.02-1.33,0-.33.01-.72.14-.76.52-.04.27,0,.58,0,.85,0,.25-.04.53,0,.78.05.28.29.37.55.38.51.02,1.02,0,1.53,0h4c.15,0,.4-.05.48-.21.07-.15-.06-.25-.21-.25Z"/></g></svg>