<?xml version="1.0" encoding="UTF-8"?><svg id="Calque_2" xmlns="http://www.w3.org/2000/svg" viewBox="0 0 32.78 33.45"><defs><style>.cls-1{fill:#f2ece1;}.cls-1,.cls-2{stroke-width:0px;}.cls-2{fill:#f1e2c3;}</style></defs><g id="figma"><path class="cls-2" d="M1.8,9.24c.62-1.27,1.41-2.43,2.34-3.49,1.59-1.82,3.48-3.24,5.69-4.25,1.42-.65,2.9-1.08,4.45-1.31,1.26-.19,2.52-.23,3.78-.13,3.55.27,6.69,1.56,9.39,3.89.13.11.26.23.39.34.06.05.08.1,0,.15-.03.03-.06.06-.09.09-1.48,1.48-2.96,2.96-4.45,4.45q-.17.17-.35.01c-1.31-1.17-2.83-1.93-4.57-2.19-3.4-.52-6.3.48-8.71,2.92-1.05,1.06-1.79,2.32-2.28,3.73,0,.03-.03.05-.04.08-.14-.1-.28-.2-.41-.31-1.71-1.33-3.43-2.65-5.14-3.98Z"/><path class="cls-2" d="M7.34,19.92c.12.28.22.57.35.85,1.07,2.37,2.77,4.11,5.13,5.2,1.03.47,2.12.74,3.26.81,1.99.12,3.88-.23,5.64-1.19.22-.12.44-.26.66-.39,1.23.96,2.46,1.91,3.69,2.87.57.44,1.14.89,1.71,1.34-1.04.98-2.22,1.76-3.5,2.39-1.56.76-3.21,1.24-4.93,1.47-1.3.18-2.6.23-3.91.13-2.2-.17-4.3-.74-6.27-1.76-3.2-1.65-5.64-4.08-7.31-7.27-.03-.05-.05-.11-.07-.16,1.19-.93,2.39-1.86,3.58-2.78.65-.51,1.3-1.02,1.96-1.5Z"/><path class="cls-1" d="M27.78,29.41c-.57-.45-1.14-.89-1.71-1.34-1.23-.96-2.46-1.91-3.69-2.87.32-.26.66-.5.97-.78,1.22-1.12,2-2.5,2.35-4.12.03-.13-.02-.15-.14-.15-.83,0-1.65,0-2.48,0-2.04,0-4.09,0-6.13,0q-.23,0-.23-.24c0-2.01,0-4.01,0-6.02,0-.17.03-.22.21-.22,5.1,0,10.19,0,15.29,0,.25,0,.26,0,.3.25.21,1.18.28,2.36.26,3.56-.04,1.83-.3,3.62-.87,5.37-.6,1.87-1.51,3.57-2.75,5.09-.42.52-.88,1.01-1.39,1.45Z"/><path class="cls-1" d="M7.34,19.92c-.67.48-1.31,1-1.96,1.5-1.19.93-2.39,1.86-3.58,2.78-.56-1.09-.98-2.23-1.29-3.41C.06,19.03-.09,17.23.05,15.41c.17-2.15.74-4.19,1.71-6.12.01-.02.03-.04.04-.06,1.71,1.33,3.42,2.65,5.14,3.98.14.11.28.21.41.31-.14.49-.29.99-.37,1.49-.15.89-.2,1.79-.1,2.69.08.71.23,1.41.45,2.09.01.04.04.08.02.12Z"/></g></svg>