<?xml version="1.0" encoding="UTF-8"?><svg id="Calque_2" xmlns="http://www.w3.org/2000/svg" viewBox="0 0 22.09 30.41"><defs><style>.cls-1{fill:#f1e2c3;stroke-width:0px;}</style></defs><g id="html"><polygon class="cls-1" points="1.59 .27 2.97 .27 2.97 1.56 4.23 1.56 4.23 .27 5.55 .27 5.55 4.34 4.2 4.34 4.2 2.96 2.94 2.96 2.94 4.34 1.59 4.34 1.59 .27"/><path class="cls-1" d="M1.56.54h1.38l-.34-.24v1.29c0,.19.18.24.34.24h1.26c.14,0,.4-.12.4-.29V.24l-.4.29h1.32l-.34-.24v4.07l.4-.29h-1.35l.34.24v-1.38c0-.19-.18-.24-.34-.24h-1.26c-.14,0-.4.12-.4.29v1.38l.4-.29h-1.35l.34.24V.24c0-.38-.73-.27-.73.05v4.07c0,.19.18.24.34.24h1.35c.14,0,.4-.12.4-.29v-1.38l-.4.29h1.26l-.34-.24v1.38c0,.19.18.24.34.24h1.35c.14,0,.4-.12.4-.29V.24C5.91.05,5.74,0,5.58,0h-1.32c-.14,0-.4.12-.4.29v1.29l.4-.29h-1.26l.34.24V.24C3.33.05,3.16,0,3,0h-1.38C1.47,0,1.24.12,1.22.3c-.02.19.19.24.34.24Z"/><polygon class="cls-1" points="6.52 .27 10.28 .27 10.28 1.64 9.04 1.64 9.1 4.34 7.7 4.34 7.7 1.62 6.52 1.62 6.52 .27"/><path class="cls-1" d="M6.37.45h3.75l-.21-.08v1.38l.51-.28h-1.23c-.15,0-.51.08-.51.28.02.9.04,1.8.06,2.69l.51-.28h-1.4l.21.08V1.52c0-.08-.17-.08-.21-.08h-1.18l.21.08V.17c0-.18-.72-.06-.72.19v1.35c0,.08.17.08.21.08h1.18l-.21-.08v2.72c0,.08.17.08.21.08h1.4c.15,0,.51-.08.51-.28-.02-.9-.04-1.8-.06-2.69l-.51.28h1.23c.15,0,.51-.08.51-.28V.17c0-.08-.17-.08-.21-.08h-3.75c-.15,0-.39.05-.48.19s.08.17.19.17Z"/><polygon class="cls-1" points="11.25 .27 11.25 4.34 12.66 4.34 12.66 2.3 13.52 3.71 14.46 2.3 14.46 4.34 15.87 4.34 15.87 .27 14.4 .27 13.56 1.62 12.71 .27 11.25 .27"/><path class="cls-1" d="M10.89.37v4.07c0,.08.17.07.21.07h1.4c.14,0,.51-.08.51-.27v-2.04l-.72.19c.29.47.57.94.86,1.4.11.18.6.03.69-.11l.95-1.4-.69.11v2.04c0,.08.17.07.21.07h1.4c.14,0,.51-.08.51-.27V.17c0-.08-.17-.07-.21-.07h-.87c-.31,0-.81-.07-1.05.16-.19.18-.31.48-.45.7l-.45.71.72-.15-.42-.67c-.13-.21-.25-.49-.42-.67-.09-.09-.22-.07-.35-.07h-1.33c-.14,0-.4.05-.48.18-.09.14.08.16.18.16h1.46l-.21-.07.85,1.35c.13.21.62,0,.72-.15l.85-1.35-.51.23h1.46l-.21-.07v4.07l.51-.27h-1.4l.21.07v-2.04c0-.2-.63.02-.69.11l-.95,1.4.69-.11c-.29-.47-.57-.94-.86-1.4-.11-.18-.72-.03-.72.19v2.04l.51-.27h-1.4l.21.07V.17c0-.16-.72-.04-.72.19Z"/><polygon class="cls-1" points="16.98 .27 18.3 .27 18.3 2.96 20.28 2.96 20.28 4.34 16.98 4.34 16.98 .27"/><path class="cls-1" d="M16.83.43h1.32l-.21-.07v2.69c0,.07.17.07.21.07h1.98l-.21-.07v1.38l.51-.26h-3.3l.21.07V.17c0-.15-.72-.04-.72.19v4.07c0,.07.17.07.21.07h3.3c.13,0,.51-.08.51-.26v-1.38c0-.07-.17-.07-.21-.07h-1.98l.21.07V.17c0-.07-.17-.07-.21-.07h-1.32c-.14,0-.39.06-.48.18-.1.13.08.15.18.15Z"/><path class="cls-1" d="M16.12,13.29h0s-8.17.05-8.17.05c-.41,0-.72.37-.65.78l.24,1.45c.05.32.33.56.66.56h8.27c.39,0,.69.33.66.72l-.52,6.87c-.02.28-.21.51-.48.59l-4.87,1.38c-.12.03-.24.03-.36,0l-4.88-1.38c-.27-.08-.46-.31-.48-.59l-.22-2.84c-.03-.39.28-.72.66-.72h1.24c.32,0,.6.23.66.55l.21,1.23c.05.26.24.47.5.54l2.3.54c.12.03.24.02.35-.01l2.56-.79c.28-.09.47-.34.47-.64v-2.28c0-.37-.3-.67-.67-.67h-7.91c-.34,0-.63-.26-.66-.6l-.7-6.62c-.04-.39.27-.74.66-.74h15.58c.43,0,.78-.33.82-.75l.2-2.44c.05-.63-.44-1.16-1.07-1.16H1.7c-.63,0-1.13.54-1.07,1.17l1.77,19.77c.04.45.36.83.79.94l7.66,2.05c.17.05.35.05.53,0l7.81-1.87c.45-.11.78-.5.82-.96l1.06-13.22c.04-.49-.35-.91-.84-.91h-4.1Z"/><path class="cls-1" d="M16.33,13.9c-.26,0-.16.1-.2.11.43-.02.19-.14.2-.11Z"/><path class="cls-1" d="M20.37,13.71l-.06.02c.13,0,.26.06.36.16-.08-.1-.19-.16-.3-.19Z"/><path class="cls-1" d="M20.45,17.08c.21-.36.09-1.43.21-2.13l.05-.11-.12-.33c-.05.86-.04,1.98-.14,2.57Z"/><path class="cls-1" d="M19.9,19.16c.08-.12.02.46.06-.49-.01.04-.02.06-.02.09,0,.09-.02.2-.04.4Z"/><path class="cls-1" d="M19.94,18.75c.03-.42-.08.27,0,0h0Z"/><path class="cls-1" d="M19.82,20.68l-.02-.55c-.05.11-.1.6-.11.41-.01.56.04.45.13.14Z"/><path class="cls-1" d="M19.91,21.21v-.29s-.04.12,0,.29Z"/><path class="cls-1" d="M19.9,20.32v.61c.04-.08.1-.08,0-.28.05.05,0-.07,0-.33Z"/><path class="cls-1" d="M19.95,19.98c.06-.3.12-.7.14-.14.06-1.05-.08-.91-.14.14Z"/><path class="cls-1" d="M20.62,17.3l.09-.41-.03-.36c.02.18-.11.79-.05.77Z"/><path class="cls-1" d="M19.46,24.08s.12-.18.17-.21v-.41c-.05.21-.11.6-.17.62Z"/><path class="cls-1" d="M19.62,23.87l.02.61c.05-.54.03-.64-.02-.61Z"/><polygon class="cls-1" points="20.1 21.32 20.04 20.32 20.09 21.51 20.1 21.32"/><polygon class="cls-1" points="19.27 26.4 19.21 26.05 19.29 26.67 19.27 26.4"/><path class="cls-1" d="M19.15,27.5c-.03-.08-.14-.03-.14-.09,0,.02-.01.05-.03.08.02,0-.07.05-.16.08-.08.03-.16.07-.23.1l.25-.08c.05-.01.11-.03.17-.04.04,0,.09-.02.15-.05Z"/><path class="cls-1" d="M18.09,27.87c.16-.06.33-.13.51-.21-.17.06-.34.12-.51.21Z"/><path class="cls-1" d="M19.54,25.51s-.09.13-.15.47l.13-.23c0-.07.01-.15.02-.24Z"/><path class="cls-1" d="M19.52,25.74h0c-.02.27-.04.45-.05.52,0-.07.02-.22.05-.52Z"/><path class="cls-1" d="M19.54,25.45s0,.04,0,.06c.01-.02.02-.04,0-.06Z"/><path class="cls-1" d="M19.88,22.9c.03.36.04,1.11.18.4-.05-.26-.14.15-.18-.4Z"/><path class="cls-1" d="M19.7,25.17l.08-.64s-.08.12-.09-.06l.02.7Z"/><polygon class="cls-1" points="19.71 25.48 19.7 25.17 19.67 25.4 19.71 25.48"/><path class="cls-1" d="M19.09,27.73s-.17.08-.32.13c-.15.04-.31.08-.47.13.33-.07.84-.14.9-.21,0-.05.02-.12-.11-.04Z"/><path class="cls-1" d="M19.39,27.19v.06s.02-.07,0-.06Z"/><polygon class="cls-1" points="15 28.77 15.05 28.78 15.06 28.76 15 28.77"/><path class="cls-1" d="M19.24,27.77c.13-.07.15-.17.15-.24-.03.09-.09.18-.18.25,0,.02,0,.03.04,0Z"/><path class="cls-1" d="M17.18,28.14c.15-.02.31-.04.48-.05-.15,0-.44.02-.48.05Z"/><path class="cls-1" d="M19.36,27.34v-.04c-.03.09-.02.08,0,.04Z"/><path class="cls-1" d="M19.36,27.34c0,.09.03.12.03.19.02-.09.01-.1.01-.28-.01.03-.02.07-.04.09Z"/><path class="cls-1" d="M14.16,29.68c.02-.11.71-.37,1.35-.41.59-.22.12-.44-.45-.49,0,.05,0,.09-.61.29.23,0,1.41-.21.9,0-.81.25-.68.13-1.09.17.37.04-1,.43-.78.56l.71-.23s-.23.13-.02.11Z"/><path class="cls-1" d="M16.24,28.51l.25-.07c-.29.05-.51.06-.91.08-.41.15-.49.21-.51.24l1.26-.29-.08.04Z"/><path class="cls-1" d="M17.64,28.16c-.17.15-.78.34-.37.37.75-.19.5-.21.94-.37-1.2.32.33-.14-.55,0,.23-.07.45-.13.65-.18-.22.03-.43.07-.64.1h.03s0,0,0,0h0c.06,0,.07,0,.01.01,0,0-.02,0-.02,0,0,.02-.02.03-.05.05-.36.06-.06-.01.05-.05,0,0,.01-.01.01-.02h0s-1.2.35-1.2.35c.26-.05.58-.13,1.15-.28Z"/><path class="cls-1" d="M20.24,23.98s-.02.04-.03.04c0,.08.01.11.03-.04Z"/><path class="cls-1" d="M20.13,24.48c0-.09-.04-.17-.01-.46.05-.25.05,0,.09,0-.01-.18-.03-.62-.12-.07v.09c-.07.5-.26,1.13-.26,1.04.11-.14.19-.26.31-.59Z"/><path class="cls-1" d="M19.69,27.36c0,.27-.11.51-.33.67.13-.05.26-.13.36-.24h-.06c.21-.44.05-.36.03-.43Z"/><polygon class="cls-1" points="14.87 28.75 14.98 28.61 14.43 28.9 14.87 28.75"/><polygon class="cls-1" points="13.56 29.08 13.59 28.97 13.26 29.11 13.56 29.08"/><path class="cls-1" d="M5.07,12.58l.06.3c-.02-.14-.04-.23-.06-.3Z"/><path class="cls-1" d="M5.16,11.28v-.05s-.03.06,0,.05Z"/><path class="cls-1" d="M1.42,7.04c.1-.02.2.01.25.04,0,.02.09.02.14.02.05,0,.07-.01.05-.04l-.14-.11c-.16.02-.22.05-.31.08Z"/><path class="cls-1" d="M21.52,8.8l.04-.13c-.03-.11-.05-.21-.08-.31.01.13.02.28.04.43Z"/><path class="cls-1" d="M21.94,9.15l-.12.58c.03-.13.07-.31.12-.58Z"/><path class="cls-1" d="M11.36,17.91l.36-.11c-.56,0-.31.06-.36.11Z"/><path class="cls-1" d="M2.84,25.59c0-.39,0-.69-.02-.96-.02.47-.08.84.02.96Z"/><path class="cls-1" d="M3.83,11.83c.04.18.07.26.09.25-.04-.19-.07-.29-.09-.25Z"/><path class="cls-1" d="M2.72,23.53c0,.07,0,.13,0,.2.04.28.08.56.11.9.02-.34,0-.73-.1-1.1Z"/><path class="cls-1" d="M12.88,16.74h-.1s.03,0,.1,0Z"/><path class="cls-1" d="M12.44,13.79c-.13,0-.33,0-.52.01.09,0,.25,0,.52-.01Z"/><path class="cls-1" d="M8.62,28.95c.28.07.05,0,0,0h0Z"/><path class="cls-1" d="M9.85,29.72c-.06,0-.11,0-.12.02.03-.02.07-.02.12-.02Z"/><path class="cls-1" d="M1.8,20.75v-.02c-.02.09-.01.07,0,.02Z"/><path class="cls-1" d="M9.03,29.1c-.11-.04-.22-.08-.34-.13.06.02.16.06.34.13Z"/><path class="cls-1" d="M8.98,29.04c.09.03.17.05.24.07.04,0,.01-.03-.24-.07Z"/><path class="cls-1" d="M8.24,28.85c.16.04.3.08.44.13-.05-.02-.07-.03-.06-.03-.08-.02-.2-.05-.39-.1Z"/><path class="cls-1" d="M5.91,23.8s0,.03.01.04c.16.11.09.06-.01-.04Z"/><path class="cls-1" d="M8.41,5.81h-.03s.03,0,.04,0h0Z"/><path class="cls-1" d="M9.44,5.73c-.44.13-.69.12-1.02.09l.34.31.68-.4Z"/><path class="cls-1" d="M5.64,17.74s.02-.16.02-.28v-.36c.07.21.12.41.16.58.02.03.04.04.05.04.03.01.04-.03.11-.06-.08.01-.12.11-.18-.23-.05-.26-.09-.61-.13-.96-.08-.7-.16-1.39-.34-1.42l.02-.48c.01.14.03.16.04.29.06-.94-.32-.66-.39-1.85-.02-.42,0-.71.07-.43l-.18-.9s0-.06,0-.07c0-.02.02-.01.03,0,.01.03.02.02.03.11l-.02-.11c-.06-.16.04-.37.22-.39h0s.09-.05.19-.08c.17-.03.34-.06.45-.08.36.05-.18.04-.09.08l.78-.08c.32.09-.33.17-.87.16.73.34.65-.09,2.22.11l-.74.04c.48.19,1.05.12,1.88.24-.2-.06-1.67-.3-.82-.39.24.03.55.04,1.01-.03,0,.12.45.09,1.01.08l-.04.16c.6-.05.56-.13.91-.2.67.02.81.14.97.24,1.08.03-.74-.2.53-.23.9.06,1.53,0,2.6-.1.63.06-.11.1.12.14l.56-.13c.14,0,.09.04.07.06.47-.05.04-.16.78-.2.2-.18,1.51.26,2.42.06.22.05-.11.1-.04.16.63-.07.89-.09,1.13-.12.13-.02.26-.03.43-.06.2-.03.45-.11.69-.36.33-.2.49-.64.52-.98-.09.38-.15.31-.2.05-.05-.22-.08-.61-.11-.97-.08.22-.14.41-.18.54v-1.15c.04-.14.09-.02.14.18,0-.08-.02-.15-.02-.21.09-.4.17-.18.23.12l-.13.4c.07.29.16.56.26.51-.01-.08-.02-.22-.01-.38.02.08.04.13.06.09.02-.04,0-.16-.03-.35l.2-.25-.07-.07.12-.75c.04-.36-.05-.74-.26-1.06-.28-.3-.65-.46-1.01-.48-.2-.01-.35.03-.48.05-.14.02-.28.05-.42.08-.58.1-1.24.18-2.09.22.42-.13.09-.21.11-.37.47.16,1.32-.07,2.21-.04-.46-.02-.36-.09-.24-.12l-1.58.15c.04-.13-.33-.09-.75-.15.31.25-1.18.17-1.82.24-.04-.08.11-.17.9-.15-.86-.19-1.12.29-1.96.13.19,0,.29.01.37-.03-.45.07-1.54.02-1.28-.06h.19c-1.27-.03-3.86,0-4.05.21-.01-.03.17-.26.24-.3l-2.26.72c.2-.18-.57-.62.49-.72-.3-.03-.68-.06-1.31,0,.21.03.51.26.23.28-.77-.2-.54-.11-1.49-.28.31.04-.03.33-.52.32.08-.04-.04-.28.14-.31l-1.22.28c.3-.05.05-.24-.22-.32.13.06-1.05,0-1.37.02l.52.07c-.69-.02-1.02.08-1.36.18-.37.11-.82.27-1.12.92,0-.09-.02-.23-.09-.27-.06-.04-.27.03-.37.52.04.28.27.56.48,1.02.21.45.42,1,.53,1.6l-.06.24.18.91c-.27-.55-.86-2.12-1.12-2.98-.02.52-.08.15,0,.92-.05.28-.15-.41-.18-.63l.11,1.79c.16-.09.29,1.35.42,1.27l-.35-1.92c.16-.09.58,1.08.66,2.34-.04.33-.32-.21-.37-.18.07.16.22,1.19.19,1.31l-.14-.53c0,.71.32,1.13.24,1.99.02.29-.14.89-.03.93.15-.49.73-.64.9-.33,0,.1-.05,1.55-.11,1.89-.11.49-.42-.69-.51-.27.05.01.13.27.16.38-.01.31-.15-.11-.07.55.18.1.11,1.36.17.3.11.65.03.7.1,1.46.09-.25.43.65.54,1.3-.05-.03-.09.12-.11.19.1,1.34.09,2.06.2,3.3-.03.12-.03.72-.12.47.05.18.12.34.16.72-.08.76-.1-.85-.23-.27.1.04.22.98.34,1.52.14-.18-.08-1.27-.19-1.81.21-.02.52.91.73,2.2.03.23.04.36.05.45,0,.07,0,.09-.01.1-.03.02-.1-.05-.06.02.15.38.45.49.69.51.27.04.47.05.66.06.38.02.72.05,1.48.33.59.3-.04.27.07.4-.83-.17-1.23-.42-1.79-.56l.67.24c-.27-.03-.83-.14-1.11-.26.49.26,3.18.87,4.6,1.37.27.03.73.1.53,0l-.46-.1c-.39-.22.9.09.34-.12.64.09,1.36.16,2.21.45l.12.19s-.54-.24-.8-.26c.19.02.51.15.84.28.34.16.58.14.78-.03-.24.03-.35,0-.5-.06.12,0,.2-.02.34-.08.17-.07.34-.13.52-.2.36-.13.74-.25,1.13-.32-.39-.06-.17.06-.77.02.26.05-.23.17-.69.28-.1.03-.21.05-.3.07-.04,0-.08.02-.11.02-.05,0-.07.04.03.1-.1-.09-.36-.21-.62-.29-.26-.09-.54-.18-.89-.36,0,.05.23.16-.4-.03-.03,0-.11,0-.15,0-.02,0-.03,0-.04-.02l.03.02s-.03,0,.01,0c.15.06.27.12.31.16-.35.03-1.38-.25-1.74-.29-.38-.13.18-.01-.02-.12l-.54-.05c-.02-.12-.97-.45-.05-.27l-.81-.22c-.46-.19-1.11-.39-1.53-.45-.38-.13-1-.14-.64-.13l-.65-.14c-.15-.03-.2-.05-.29-.12l.02-.02c-.1-.14-.12-.14-.16-.56-.04-.33-.09-.67-.13-1.02-.08-.69-.15-1.4-.11-2.15-.07-.43-.14-.88-.18-1.62l.08-.15c-.08-.56-.05-1.69-.18-1.92.21-.63-.19-2.73-.23-3.72l-.13-.03c-.05-.68-.15-1.33-.27-2.16l-.11.06c-.16-.72-.09-1.87-.2-3.02.05.07.06.37.06.58.13-1.39-.44-2.88-.37-4.14-.04-.18-.05-.24-.04-.29.01-.06.04-.11.07-.15,0,.01,0,.03,0,.04,0-.01.01-.03.03-.05.05-.05.11-.08.17-.11-.06.01-.12.04-.15.08.05-.1.19-.23.37-.28.04.04.04.08.09.12.03,0,.05,0,.08,0,.35.04.28-.06.09-.15.18-.02.34-.04.47-.07.28.19.94-.07,1.32.14.24-.1,1.79-.08,1.98-.29.01.03.12.04-.08.04.4.02.8.05,1.15-.01l.17.15.87-.21c.53.09.75.15.22.27,1.27-.18,1.03-.07,2.1-.25l-.05.1c.38,0,1-.14,1.23-.05.86.19,4.26.03,6.47.2-.43-.29,1.03.13,1.11-.1.13.07.44.11.08.17.56-.03.99,0,1.37,0,.23,0,.27,0,.36.02.08.02.17.04.27.08-.01.09-.15-.01-.14.06.04,0,.15.08.13.15-.02.06-.08-.04-.14-.06.13.16.15.22.21.49.06.19.16.25.26.3-.14.57-.15.87-.05,1.3-.08.2-.18.53-.14-.19-.01.1-.03.3-.06.55-.02.15-.02.21-.04.29-.02.08-.06.15-.12.21-.11.12-.27.16-.38.16-.17.01-.33.04-.33.08-.13-.04-.56-.01-.67,0-.9,0-.98-.02-1.87,0l.25.03c-.35.19-.74.04-1.45.07l.02-.02c-1.64-.14-.71.07-2.33-.09l.09.12c-.15.26-1.43-.15-2.37-.05l.34.07c-.51.09-1.43-.35-1.95-.38-.11-.02.18-.04.33-.05-1.35-.15-.17.16-1.18.19-.19-.08.24-.22-.44-.23-.34-.07-1.96.28-2.88.11.2.07.41.13-.06.18-.15,0-.33,0-.51-.02-.16,0-.54-.06-.79,0-.59.12-.94.78-.81,1.28.02.08.03.17.05.26.02.05.03.11.06.15,0,.09-.02.13-.04.13.11.54.27,1.76.42,2.07-.36.55.56,3.36.18,3.39.04.21.02.75.27,1.06.23.34.64.5,1.05.47l-.07.04c.16,0,.31,0,.44,0,.11,0,.22,0,.31,0,.19,0,.35-.02.49-.03.28-.03.47-.08.66-.12.25.03.07.06.05.08,1.57.08,1.73.06,3.04-.13l.14.12c.18-.04.75.01,1.46.05.33.01.69.03,1.05.04.2-.02.39.14.41.33-.01,0-.04-.02-.06-.06.02.06.02.12.03.19,0,.14,0,.28,0,.42,0,.29-.01.58-.03.87l-.02.43c-.01.12-.01.14-.03.21-.04.11-.15.17-.25.18l-.16.05c-.07.02-.14.05-.21.07-.14.05-.26.09-.38.14-.22.1-.39.21-.49.33l-1.04.44c1.38-.39-.17.26.43.15-.24.08-.56.19-.74.07-.27-.11-.36-.19.02-.11l.09.04s0-.08-.07-.12c-.37-.17-1.67-.41-1.6-.52l-.37-.09c-.12-.03-.16-.03-.24-.06-.14-.06-.22-.2-.23-.35l-.13-.84c-.03-.42-.21-.84-.59-1.04-.37-.21-.87-.12-1.1-.15h-.48c-.22-.02-.43,0-.62.07-.39.15-.68.53-.71.95-.02.19.01.48.02.6l.02.43c.04.57.07,1.14.11,1.7l.16-.33.03.5c0,.22.05.43.17.61.08.15.15.25.09.24-.03-.01-.29-.13-.38-.64-.01.19.08.44.27.62.18.19.44.27.63.29.22.03.26.01.29,0,1.26.43-.56.06-.17.18l.54.14-.11-.05c.45.05.51-.02,1.29.22.49.18.22.18.42.24,0,.01.06.04.3.09l1.15.34-.42-.27c.53.08,1.08.31.59,0,.11.07.3.16.53.25.12.04.26.09.4.14.19.07.41.08.63.02,1.36-.35,3.06-.89,3.41-.93.34-.15.69-.28,1.07-.39.15-.06.49-.11.69-.28.22-.16.37-.43.39-.74-.06.23-.17.31-.16-.07,0-.11,0-.24.02-.41.31.31.25-1.42.54-2.04-.2.55.13-2.23-.16-1.36.08-.65.13-.03.24-.52,0-.39.02-.8.05-1.22.02-.45.12-.76.1-1.51-.05-.32-.24-.62-.53-.79-.27-.19-.68-.17-.97-.18-.47-.01-.95-.02-1.43,0-.03.04.29.11-.12.18l-1.02-.22c-.38.02-.35.25-1.05.1.1.04.24.09-.01.11-1.31-.07-2.63-.08-3.97-.06-.21.02-.42,0-.52-.19-.05-.09-.05-.17-.08-.29l-.09-.49c-.05-.39-.13-.51-.08-.73.06-.2.28-.3.48-.27h.82c.3.02.59.03.89.04.59.03,1.19.06,1.78.12-.52-.08-.17-.09.22-.1-.26-.02,0-.11-.05-.17l1.61.15c.29-.17,1.72-.02,1.89-.18l-.51.03c.67-.19-.95-.41-.85-.65-.76.22-2-.3-3.24.01-.27-.05.23-.08.09-.13-.31.1-.69.13-1.4.09l.08-.03c-.57,0-1.04,0-1.48,0-.4-.02-.77.14-.99.44-.24.3-.25.69-.17,1.11.03.29.07.59.11.93.01.5.3,1.07.92,1.23-.07-.05-.13-.12-.18-.18.31.14.53.11.69.14.11.02.2.03.31.05.25-.09-.01-.09-.45-.1-.51.03-.88-.33-.54-.22.07.07.21.15.39.17.09.01.19.02.31.03.08,0,.16,0,.25.01.35.02.77.02,1.18.02.82,0,1.61.01,1.82.15.73,0-.22-.14.52-.14l.19.07.19-.1c.48.02.72.11.74.17-.12,0-.33.02-.46.02.62.09,1.76-.03,1.98,0l-.71-.05c.5,0,1.03-.02,1.57-.03.2,0,.4,0,.6,0,.12.01.23.11.25.23.01.06,0,.12,0,.18l-.02.36c-.02.27-.03.54-.05.81-.03.53-.04,1.05-.04,1.54l.07-.14c0,1.48-.15,1.18-.23,2.8v-.06c.02.31.01.8-.02,1.17h0c-.01-.09-.04-.06-.06-.01-.04.11-.17.25-.15.08-.03.19-.17.25-.24.28-.09.04-.21.09-.25.12-.12.07-.16.13-.65.37l-.26-.02c-.32.18-.34.23-1.12.47.62-.26-.54,0,.15-.3-1.22.19-1.94.57-2.51.73-.07.02-.14.02-.19-.01-.06-.04-.14-.09-.23-.15-.25.01-.22.07-.06.14.19.08.34.15.5.09.26-.07.5-.14.33-.07.21-.01,0,.11-.3.23-.19.12-.47,0-.71-.07-.52-.15-.8-.57-2.12-.93.13.04.14.02.28.06-.47-.2-.99-.19-1.56-.46-.36.06-.8-.23-.88-.07h-.01s0,.01,0,.01l1.18.28c-.38-.08-.8-.11-1.22-.17-.14,0-.31-.07-.41-.22-.11-.17-.07-.32-.08-.6.06.12.09.38.2.49-.03-.12-.04-.21-.06-.32-.02-.17-.04-.33-.03-.51.08.02.12.29.15.54-.01.16.12.38.32.38.13.03.42.09.59.1-.11-.07-.45-.14-.57-.16-.17,0-.27-.12-.11-.13-.09.02-.16-.03-.19-.11-.01-.04-.01-.08-.02-.13,0-.09,0-.18-.01-.28-.01-.38-.02-.82-.16-1.27l.12.05c-.03-.14-.11-.44-.13-.71l.19.48c-.05-.18-.07-.37-.08-.55,0-.11,0-.15.03-.21.07-.11.19-.11.28-.14-.22,0-.23.09-.28.03-.04-.03-.06-.15-.17-.03.06-.27.31-.28.42-.25.07.02.14.03.21.04.07.02.15.04.23.06.38.12.47.09.56.35.03-.07-.13-.29.02-.25.06.06.06.16.05.24,0,.12.02.38,0,.48.05.25.08.41.1.51.1.36.08.19.07-.02,0-.15,0-.23,0-.26.01-.03.03-.03.08.12,0,.04,0,.08,0,.12.02.67.6.93,1.27.97l-.02.12c1.51.44.46-.15,1.82.27l-.62.03.74.13c-.08.03-.13.06-.19.1.08,0,.15.02.2.02.27.05.51,0,.71-.06.13-.05.25-.08.37-.13.23-.07.47-.13.82-.22-.2-.03.03-.24.7-.45.45-.07-.16.16.57-.07.07-.02.18-.06.29-.12-.07.07-.16.13-.26.18-.14.07-.23.11-.33.15-.11.03-.23.06-.39.07-.03.05-.19.14-.22.19.14-.02.29-.05.45-.1.18-.06.36-.11.54-.17.46-.14.73-.49.84-.74-.09.21-.29.4-.41.47.29-.26.45-.64.42-1.01,0-.21-.03-.34-.04-.45l-.04-.36c.05-.23.08-.05.12.13-.01-.29-.07-.49-.08-.92.1.11.2.08.25.69l-.12-1.53c.02-.08,0-.37-.11-.59-.1-.22-.23-.36-.11-.27-.21-.25-.55-.45-.95-.47-.49,0-.65.03-.91.05-.49.05-1.02.09-1.52.05-.05.02-.16.04-.37.05-.94-.02-1.77-.14-2.89,0l-.63-.18c-.87.04.86.22-.6.29-1.03.06-.38-.15-.75-.2-.18.02-.13.05-.22.08-.06.02-.15.02-.21-.04-.07-.06-.08-.13-.09-.26-.02-.22-.03-.46-.02-.7.03.15.05.29.06.43.01.12.03.32.04.33ZM8.14,11.22c-.21.03-.62.1-.78.03.24-.14.42-.07.78-.03ZM21.84,7.18c.04.09.05.23.03.35-.01.11-.04.24-.07.37,0-.2.05-.39.05-.72ZM5.57,28.23h-.02c-.44-.17-.28-.11.02,0ZM6.49,28.53c.1,0,.1,0,.06-.04-.07.01-.28-.04-.52-.11.06.05.17.1.46.15ZM8.32,25.45l-.17-.08c.42.08.3.08.17.08Z"/><path class="cls-1" d="M21.89,9.11c-.03.06-.05.07-.07.08.01.08.04.09.07-.08Z"/><path class="cls-1" d="M11.29,17.93h.03s.03-.01.03-.02l-.07.02Z"/><path class="cls-1" d="M.98,16.96c0-.2.01-.31.03-.39-.03,0-.05.08-.03.39Z"/><path class="cls-1" d="M11.18,29.54s-.06.02-.1.02h-.05s-.14-.03-.14-.03c.18.04.17.05.2.06.03.01.05.02.08.03-.01-.03-.05-.06.01-.07Z"/><path class="cls-1" d="M16.54,29.02c.08-.04.19-.05.27-.08l-.04-.05c-.37.09-.63.2-.23.13Z"/><path class="cls-1" d="M11.79,29.81c.07.09.44-.04.86-.16l-.07.02c.09-.17-.35-.01-.78.14Z"/><path class="cls-1" d="M12.75,29.62c.13-.04.26-.07.39-.1.04-.07-.16.03-.39.1Z"/><path class="cls-1" d="M7.69,28.78c.19.08.16-.09.26-.02.26-.07-1.37-.2-.26.02Z"/><polygon class="cls-1" points="12.21 30.05 12.03 29.97 11.82 30.12 12.21 30.05"/><path class="cls-1" d="M8.91,29.63l.66.21s.08-.01.19,0c-.41-.11-.86-.26-.85-.22Z"/><path class="cls-1" d="M9.76,29.85c.21.06.42.11.54.12-.12-.03-.37-.09-.54-.12Z"/><path class="cls-1" d="M11.3,30.31c-.07,0-.14,0-.21-.01-.17,0-.32-.07-.48-.11.22.07.45.16.69.12Z"/><path class="cls-1" d="M2.49,27.01l-.1-.75c-.05-.07-.06.13-.02.41.05.18.09.46.12.34Z"/><path class="cls-1" d="M3.84,28.61c-.19-.08-.2-.11-.3-.18l-.06.14.36.03Z"/><path class="cls-1" d="M2.12,27.12c-.05-.07-.22-1.08-.13-.13.03.04.19.91.13.13Z"/><polygon class="cls-1" points="1.3 15.76 1.32 15.95 1.57 15.9 1.3 15.76"/><path class="cls-1" d="M1.64,5.64c-.74.05-.78.25-.82.29-.02.09-.1.07-.51.54-.06.15.08-.06.26-.23.19-.16.41-.26.29-.16.32-.24.64-.28.8-.3.12-.02.14-.06-.02-.14Z"/><path class="cls-1" d="M.86,6.08c-.1.07-.19.17-.28.28.14-.17.23-.23.28-.28Z"/><polygon class="cls-1" points="14.55 13.91 15.13 13.96 14.75 13.87 14.55 13.91"/><path class="cls-1" d="M15.66,13.71l.14.16.33-.14-.45-.44h0s0,0,0,0l.44.44c-.13,0-.37.02-.47-.01Z"/><path class="cls-1" d="M9.74,11.55l.04-.04c-.09-.04-.22-.05-.49-.05l.45.09Z"/><polygon class="cls-1" points="5.3 13.28 5.29 13.15 5.17 13.41 5.3 13.28"/><path class="cls-1" d="M6.6,17.68c-.13,0-.28,0-.43.01h-.2s0,.01,0,.01c0,0,0,0,0,0,.06,0,.11,0,.16.01.11.01.21.03.28.04.15.02.22.02.18-.07Z"/></g></svg>