<?xml version="1.0" encoding="UTF-8"?><svg id="Calque_2" xmlns="http://www.w3.org/2000/svg" viewBox="0 0 148.7 148.12"><defs><style>.cls-1{fill:#260801;stroke-width:0px;}</style></defs><g id="Calque_9"><path class="cls-1" d="M9.2,135.95c4.55-11.32,1.93-23.64.04-35.22-1-6.13-1.77-12.39-1.09-18.6.53-4.89,2.11-9.73,4.42-14.06,2.63-4.95,6.37-9.4,10.82-12.8l-3.51-3.46c-2.79,4.89-5.68,9.91-6.91,15.47s-.36,11.4.95,17.02c1.29,5.52,2.56,10.91,2.75,16.6.18,5.31-.33,10.62-1.54,15.8-1.37,5.86-3.59,11.53-6.63,16.72-.61,1.05-.04,2.21.84,2.93.65.53,2.43,1.27,3.04.23,5.43-9.26,8.46-19.74,8.77-30.48.16-5.53-.49-11.03-1.72-16.42-1.29-5.67-3.06-11.37-2.56-17.25.53-6.31,3.83-12.07,6.9-17.46.55-.96.16-1.96-.6-2.7-.62-.6-2.05-1.43-2.91-.77-8.17,6.26-14.01,15.39-15.99,25.53-2.42,12.41,1.51,24.55,2.7,36.84.65,6.68.45,13.45-2.08,19.75-.82,2.05,3.37,4.7,4.32,2.33h0Z"/><path class="cls-1" d="M11.51,137.23c3.88-3.49,8.09-7.41,13.2-8.94s10.13.47,14.91,2.45c2.47,1.02,4.95,2.04,7.57,2.62,3.07.67,6.16.72,9.28.41,6.09-.6,11.88-2.75,17.89-3.77,5.53-.93,11.47-.9,16.18,2.52l1.98-3.98c-5.72.18-11.07,2.06-16.35,4.11-5.03,1.95-10.19,4.1-15.67,4.19-12.47.19-23.49-7.56-35.93-7.86-6.08-.15-12.5,1.45-17.06,5.66-.85.78-1.48,2.03-.57,3.04.79.89,2.53.89,3.4.09,8.44-7.79,20.78-3.74,30.29-.59,5.85,1.94,11.85,3.86,18.07,3.96,5.58.1,10.87-1.52,16.04-3.48,5.46-2.07,10.99-4.63,16.93-4.82,1.98-.06,4.11-2.44,1.98-3.98-10.3-7.47-23.27-1.72-34.3.24-3.06.54-6.24.83-9.33.3-2.76-.47-5.38-1.55-7.95-2.61-5.41-2.23-10.93-4.3-16.86-2.92-6.48,1.51-11.7,5.89-16.52,10.24-.86.77-1.47,2.04-.57,3.04.8.9,2.52.88,3.4.09h0Z"/><path class="cls-1" d="M33.64,126.57c10.61-1.06,20.52-5.27,30.48-8.8,9.23-3.27,19.05-6.07,28.91-4.5,4.93.78,9.53,2.72,13.41,5.86.96.77,2.56.54,3.2-.51.72-1.19.09-2.54-.88-3.33-7.54-6.09-17.53-7.94-27-6.98-11,1.12-21.24,5.69-31.59,9.27-5.77,2-11.64,3.66-17.73,4.27-3.08.31-1.62,5,1.19,4.72h0Z"/><path class="cls-1" d="M77.97,113.56c10.33-1.58,16.76-10.24,23.99-16.85,3.87-3.54,8.16-6.01,13.09-7.78s9.79-2.91,14.43-5.05,8.96-5.3,11.55-9.9l-4.21-2.17c-.93,7.37-5.93,14.07-12.65,17.18-4.15,1.93-8.81,2.22-13.07,3.81s-7.59,4.47-11.06,7.16c-3.73,2.89-8.28,6-13.24,5.59-3.02-.25-1.07,3.92,1.04,4.09,4.85.4,9.23-1.52,13.13-4.25s7.22-5.99,11.47-8,9.51-2.28,14.02-4.19c3.68-1.56,6.99-4.15,9.46-7.28,2.85-3.6,4.61-7.85,5.18-12.39.23-1.8-3.1-4.16-4.21-2.17-4.69,8.34-15.25,10.42-23.55,13.24-4.81,1.63-9.22,3.8-13.14,7.06s-7.07,6.92-10.71,10.26c-3.84,3.52-8.31,6.7-13.58,7.51-2.66.41.03,4.45,2.06,4.14h0Z"/><path class="cls-1" d="M27.82,126.8c6.84-4.45,13.94-9.19,18.45-16.18,2.17-3.37,3.39-6.95,3.99-10.9.31-2,.59-4.09,1.51-5.92.72-1.44,1.8-2.72,2.91-3.88,2.42-2.51,5.24-4.63,7.38-7.4,2.36-3.05,3.5-6.75,3.77-10.57.59-8.38-3.22-16.1-5.12-24.07-2.2-9.22,0-18.55,4.88-26.54l-4.62-1.38c-.08,7.16-3.74,13.79-2.28,21.04,1.33,6.63,5.67,11.92,8.67,17.81,2.78,5.46,4.53,12.28.18,17.41-1.88,2.21-4.49,3.78-6.92,5.31-2.62,1.65-5.2,3.3-7.46,5.43-5.03,4.76-8.59,10.99-9.73,17.85-.21,1.26.63,2.28,1.82,2.64.95.28,2.76.05,2.97-1.21.99-5.98,3.85-11.6,8.21-15.84s10.41-6.53,14.68-10.98c4.72-4.92,4.73-11.72,2.48-17.82-2.37-6.41-7.05-11.67-9.33-18.12-1.32-3.73-1.23-7.39-.43-11.22s2-7.87,2.04-11.95c.02-2.02-3.55-3.14-4.62-1.38-4.27,7.01-6.95,15.19-6.31,23.48s4.9,15.97,5.82,24.3c.4,3.65.21,7.49-1.41,10.85-1.51,3.12-4.24,5.38-6.72,7.7s-5,4.95-6.18,8.33c-.67,1.94-.87,3.99-1.21,6s-.84,3.76-1.62,5.54c-3.68,8.38-12.02,13.7-19.39,18.49-1.05.68-.73,2.16.07,2.89.96.86,2.41.99,3.48.29h0Z"/><path class="cls-1" d="M48.48,106.68c.89-4.35-.73-8.37-3.17-11.92s-5.6-6.44-7.43-10.3c-3.9-8.26.14-17.54,1.4-25.92.73-4.84.79-9.82-1.26-14.37l-4.6,1.95c9.95,16.35,6.45,36.32,9.2,54.4.39,2.53,5.13,1.16,4.8-1.03-2.8-18.37.72-38.69-9.4-55.32-1.19-1.96-5.59-.24-4.6,1.95,3.62,8.06.02,16.86-1.32,25.01-.7,4.22-.97,8.5.2,12.66s3.9,7.32,6.51,10.53c2.77,3.41,5.96,7.75,5,12.43-.56,2.75,4.22,2.09,4.66-.06h0Z"/><path class="cls-1" d="M36.06,37.75c10.02,9.84,16.15,23.2,17.1,37.22.27,3.99.06,8-.55,11.95-.26,1.67,3.93,4.26,4.21,2.45,2.29-14.86-1.54-30.18-9.85-42.63-2.42-3.63-5.25-7.01-8.36-10.07-.63-.62-2-1.7-2.96-1.21s-.06,1.82.42,2.29h0Z"/><path class="cls-1" d="M38.23,123.43c12.46-4.62,22.94-13.14,31.46-23.2,9.35-11.04,16.23-23.82,23-36.52,4.09-7.66,8.18-15.33,12.81-22.69.25-.4-4.02-2.98-4.36-2.44-15.27,24.28-25.2,52.84-48.16,71.39-5.76,4.65-12.17,8.45-19.12,11.02-.14.05,1.83,1.45,2,1.55.54.3,1.7,1.14,2.36.9h0Z"/><path class="cls-1" d="M82.42,82.31c4.92-7.51,11.44-13.83,19.05-18.59,3.75-2.34,7.74-4.27,11.91-5.75,4.79-1.69,9.75-2.46,14.66-3.65,5.24-1.27,10.4-3.5,13.7-7.95l-3.92-2.76c-1.21,8.96-6.82,17.14-14.91,21.29-9.65,4.95-21.08,3.49-31.29,6.48-5.22,1.53-10.06,4.14-13.52,8.41-1.52,1.88,2,5.35,3.71,3.24,6.51-8.03,18.01-8.56,27.45-9.71,5.45-.66,10.95-1.56,15.9-4.05,4.2-2.12,7.83-5.15,10.7-8.88,3.23-4.19,5.39-9.25,6.1-14.49.16-1.17-.25-2.28-1.26-2.96-.85-.58-1.98-.73-2.67.2-2.87,3.87-7.56,5.63-12.08,6.73-4.85,1.18-9.75,1.93-14.48,3.59-8.51,2.98-16.42,7.78-22.98,13.97-3.7,3.49-7,7.4-9.79,11.65-1.33,2.03,2.23,5.5,3.71,3.24h0Z"/><path class="cls-1" d="M90.29,66.58c-6.11-5.73-4.63-15.55-3.86-22.97.46-4.41.72-8.83,0-13.23-.64-3.92-1.94-7.77-3.78-11.29-2.14-4.09-4.98-7.79-8.4-10.89-.69-.63-2.11-1.56-3.08-.97s-.14,1.9.43,2.42c11.61,10.66,17.8,26.26,16.79,41.99-.31,4.82-1.27,9.58-2.82,14.15-.57,1.68,3.67,4.24,4.37,2.17,5.59-16.52,2.95-34.86-6.71-49.32-2.55-3.82-5.59-7.33-8.98-10.44l-2.65,1.45c5.79,5.25,9.51,12.44,10.6,20.17,1.25,8.83-1.92,17.63-.5,26.45.72,4.44,2.62,8.64,5.93,11.74.68.64,2.12,1.56,3.08.97s.14-1.89-.43-2.42h0Z"/><path class="cls-1" d="M104.88,22.51c-3.62.83-6.72,3.52-7.75,7.15s.49,7.33,3.37,9.53c5.75,4.41,17.98,2.89,17.95-6.04l-4.9-.35c2.28,2.57,4.62,5.19,7.52,7.08s6.28,2.79,9.79,2.95c2.86.13,6.03-.23,8.37-2.05,2.53-1.97,3.34-5.17,2.74-8.23-.79-4.11-3.76-7.3-6.54-10.24l-.28.33c3.17-.47,4.82-3.34,5.72-6.15,1.02-3.17,1.81-6.98.87-10.25s-3.72-5.09-6.96-5.77c-3.49-.73-7.38-.75-10.66.78-3.77,1.77-6.52,5.07-9.12,8.21l4.9.35c-2.28-3.25-5.16-6.14-9-7.44-3.63-1.23-8.25-1.54-11.74.29s-4.74,5.28-3.44,8.86c1.52,4.15,5.34,6.87,7,10.94.25.61,1.9.65,2.44.7.17.02,2.65.07,2.53-.22-2.13-5.25-11.3-11.72-6.04-17.82.87-1.01,2.05-1.76,3.29-2.22.55-.2,1.44-.18,1.92-.44.27-.14-.93-.35-.28-.01.32.16.72.24,1.05.38,3.12,1.34,5.52,4.03,7.43,6.76.38.54,2.16.56,2.7.59s1.79.25,2.2-.24c2.5-3.02,5.14-6.15,8.74-7.89.76-.37,1.53-.65,2.35-.82.4-.09.92-.05,1.29-.18.43-.15-.33-.05-.33-.05.38-.19,1.57.61,1.91.83.69.46,1.3,1.05,1.78,1.72,2.21,3.1,1.47,7.4.63,10.84-.7,2.88-2.05,6.88-5.45,7.39-.17.02-.47.13-.28.33,2.67,2.83,5.51,5.85,6.35,9.78.71,3.35-.25,6.9-3.29,8.74-1.19.72-2.45,1.02-3.81,1.2-.74.1-.15.02-.15.02-.27-.05-.53-.12-.79-.21-.88-.29-1.73-.73-2.52-1.2-3.14-1.89-5.62-4.69-8.03-7.41-.42-.47-4.9-1-4.9-.35,0,3-1.76,5.69-4.4,7.08-.65.34-1.31.51-2,.72-.77.23.43-.29.51.13,0,0-.87-.34-.9-.35-1.31-.62-2.44-1.66-3.28-2.83-3.77-5.23-.34-12.65,5.73-14.04,1.01-.23-.6-.67-.83-.72-1.05-.22-2.35-.41-3.42-.16h0Z"/><path class="cls-1" d="M29.67,19.9c3.67,3.29,8,7.57,6.46,13-.67,2.35-2.58,4.09-5.07,4.23-1.04.06-1.51-.29-2.56-1.08-1.11-.83-2.11-1.79-3.1-2.75-.67-.66-2.03-.96-2.92-1.13-.19-.04-1.92-.31-1.58.23,1.78,2.76-4.43,3.71-5.89,4.11s-2.99.88-4.51,1.24c-.74.17-1.48.21-2.22.33-.61-.06-.55,0,.17.16.66.28.76.26.3-.05-.14-.25-.46-.47-.64-.71-3.11-4.25-.87-10.74,2.95-13.7.37-.28-.24-.59-.45-.72-5.28-3.31-7.62-10.47-4.14-15.89,1.49-2.32,4.17-4.35,7.05-4.25.15,0,.77.12.47.03-.29-.09-.06-.01-.01.02.52.32,1.01.62,1.46,1.05,1.03.97,1.77,2.26,2.07,3.64.2.92,4.21,2.31,4.78,1.46,1.41-2.1,3.52-3.68,5.99-4.32.61-.16,1.25-.25,1.89-.26.26,0,.54,0,.79.05.33.07-.22-.08-.05,0,.94.39,1.8,1.24,2.42,2.02,3.08,3.85,1.96,9.86-2.45,12.19-.64.34,1.31,1.13,1.46,1.19.71.27,2.29.92,3.06.51,2.72-1.44,4.47-4.34,4.5-7.42s-1.7-5.77-4.16-7.48c-5.7-3.94-14.1-4.11-18.24,2.08l4.78,1.46c-.84-3.86-4.21-6.07-7.79-7.2C10.76.7,6.76.68,3.67,3.41.81,5.93-.54,9.78.2,13.52c.79,3.98,3.42,7.15,6.8,9.27l-.45-.72c-2.62,2.03-4.33,5.03-4.58,8.36s1.04,6.6,4.17,8.11c1.87.9,4.03,1.43,6.11,1.35s3.97-.76,5.88-1.29,3.93-.93,5.78-1.65c1.39-.55,2.66-1.94,1.7-3.44l-4.5-.91c2.79,2.74,5.82,4.91,9.67,5.87,3.08.77,6.78.88,8.97-1.81,1.77-2.18,1.81-5.38.86-7.91-1.24-3.33-4.05-5.82-6.63-8.13-.8-.72-2.18-1.03-3.21-1.19-.38-.06-1.86-.2-1.09.49h0Z"/><path class="cls-1" d="M117.84,127.47c-2.21-2.05-4.18-4.36-5.87-6.84-1.41-2.08-3.74-5.35-2.23-7.93,1.12-1.91,3.79-1.9,5.71-1.6,2.76.43,5.23,1.76,7.29,3.61.9.8,3.99.63,4.54-.61,1.14-2.56,3.42-4.84,6.25-5.38,2.56-.49,5.18,1.13,6.8,2.99,4.12,4.75,2.83,12.49-2.9,15.34-.84.42-.85,1.33.12,1.62,2.52.76,4.25,2.83,5.26,5.19s1.66,6.06-.35,8.1c-1.42,1.44-3.38,1.09-5.09.4-3.01-1.22-5.61-3.25-8.64-4.44-.82-.32-4.88-.29-4.08,1.42,1.27,2.75-3.54,4.88-5.38,5.75-.82.39-1.75.8-2.67.65-1.15-.19-2.11-1.02-2.6-2.06-1.18-2.51.01-5.88.99-8.27,1.11-2.71,2.72-5.16,4.76-7.26.77-.79-.28-1.36-1.01-1.5-.98-.19-2.62-.12-3.38.66-2.69,2.77-4.77,6.09-5.93,9.79-1.07,3.42-1.62,7.76,2.03,9.82s8.1,1.2,11.63-.57c2.82-1.41,8.14-4.04,6.31-7.99l-4.08,1.42c3.69,1.45,6.79,4.15,10.7,5.1,3.37.81,7.56.53,10.37-1.69s2.66-6.34,1.5-9.49-3.58-5.92-6.94-6.93l.12,1.62c5.51-2.75,8.36-9.49,5.65-15.18-2.92-6.16-10.49-8.17-16.63-6.11-3.32,1.12-6.24,3.48-7.67,6.72l4.54-.61c-2.76-2.47-6.28-3.95-9.94-4.41s-7.86-.23-10.78,2.06c-3.17,2.48-1.74,6.42.03,9.28,2.02,3.27,4.53,6.18,7.34,8.79,1.07.99,5.82,0,4.22-1.48h0Z"/><path class="cls-1" d="M16.72,15.08c-1.6,1.53-3.17,3.46-3.21,5.79-.02,1.16.26,2.32.97,3.26.77,1.01,1.96,1.73,3.18,2.04,1.43.37,3.08.38,4.4-.37,1.06-.6,1.7-1.47,2.03-2.64.25-.89.19-1.9-.04-2.79-.37-1.44-1.37-2.6-2.82-3.03-1.81-.53-3.91-.17-5.08,1.4-.85,1.14-.69,2.61-.57,3.93.04.44.7.89,1.03,1.06.54.28,1.29.44,1.89.39.53-.04,1.17-.14,1.57-.52.36-.34.44-.65.4-1.15v-.14c0,.14.01.28.02.42-.07-.78-.11-1.55.13-2.3l-.14.4c.08-.21.18-.38.28-.57.14-.26-.17.14-.03.02.07-.06.15-.13.22-.19.25-.22-.28.14-.08.05s-.55.1-.16.05c-.64.09-1.38.03-1.9-.4.21.18-.06-.04-.08-.11,0,.01.24.3.22.31,0,0-.14-.32-.03-.05.04.1.08.2.12.3.13.37.21.76.25,1.15l-.04-.42c.05.63,0,1.25-.21,1.85l.14-.4c-.1.27-.24.5-.39.74-.16.27.3-.24-.02.02-.08.06-.24.15-.29.23.28-.16.32-.19.14-.1-.07.03-.14.06-.21.09.36-.11.43-.14.21-.08-.24.05-.14.03.28-.03h-.11c-.26.01-.15.02.33.03-.62-.14.51.18.1.04-.58-.19.4.22.04.03-.22-.12-.27-.25.08.08-.11-.1-.25-.19-.36-.28-.15-.14-.11-.1.11.12-.05-.06-.1-.12-.14-.18-.05-.06-.21-.23-.21-.31.1.21.11.22.03.05-.04-.08-.07-.16-.1-.24-.12-.33-.19-.67-.22-1.02l.04.42c-.05-.71.04-1.41.27-2.08l-.14.4c.24-.66.57-1.27.99-1.83.11-.15.23-.29.35-.44.23-.29-.2.2.07-.09.26-.27.52-.54.79-.8.33-.31.53-.69.4-1.15s-.62-.86-1.03-1.06c-.58-.28-1.25-.44-1.89-.39-.53.04-1.17.14-1.57.52h0Z"/><path class="cls-1" d="M120.29,15.01c-1.22.59-2.41,1.29-3.31,2.33-.96,1.1-1.52,2.34-1.62,3.79-.07,1.11.33,2.36,1.06,3.2,1.02,1.18,2.53,1.62,4.05,1.49,1.33-.11,2.79-.8,3.61-1.88.45-.59.84-1.23.96-1.98s.09-1.38-.11-2.14c-.33-1.29-1.4-2.28-2.61-2.74-1.52-.58-3.18-.25-4.57.49-.72.39-1.29.98-1.74,1.65s-.62,1.44-.68,2.22c-.11,1.46.64,2.8,1.76,3.68.44.35,1.21.42,1.73.34.6-.09,1.32-.42,1.72-.88.36-.42.69-.97.63-1.55s-.33-1.01-.8-1.38c-.05-.03-.09-.07-.13-.11l.41.37c-.19-.18-.35-.37-.48-.59l.28.48c-.14-.25-.24-.51-.3-.79l.11.54c-.05-.28-.07-.56-.04-.85l-.06.55c.03-.23.08-.44.16-.66l-.22.53c.08-.19.17-.35.29-.52l-.36.48c.11-.13.22-.26.35-.37l-.48.41c.16-.13.32-.23.5-.32l-.59.31c.16-.07.31-.13.48-.18l-.65.17c.22-.06.44-.09.67-.1l-.63.02c.2,0,.39.02.59.06l-.59-.12c.17.04.32.09.48.16l-.51-.25c.21.1.39.22.57.37l-.41-.37c.17.16.31.33.43.52l-.28-.48c.16.27.27.56.33.87l-.11-.54c.04.25.06.51.03.76l.06-.55c-.03.23-.08.44-.16.66l.22-.53c-.07.16-.15.3-.24.45l.36-.48c-.12.16-.25.29-.4.42l.48-.41c-.13.1-.27.19-.41.27l.59-.31c-.18.09-.35.16-.54.21l.65-.17c-.19.05-.38.08-.58.09l.63-.02c-.2,0-.39,0-.58-.04l.59.12c-.19-.04-.37-.1-.55-.18l.51.25c-.18-.09-.34-.2-.5-.32l.41.37c-.19-.17-.35-.37-.49-.59l.28.48c-.18-.3-.29-.62-.36-.96l.11.54c-.06-.35-.07-.7-.04-1.05l-.06.55c.04-.29.11-.58.21-.85l-.22.53c.14-.34.32-.65.53-.94l-.36.48c.24-.32.52-.6.83-.86l-.48.41c.42-.34.87-.63,1.35-.89l-.59.31c.09-.05.18-.09.27-.13.58-.28,1.11-.61,1.44-1.19.25-.45.39-1.12.16-1.61-.5-1.1-1.99-1.53-3.07-1.02h0Z"/><path class="cls-1" d="M125.78,121.29c-.21.91-.35,1.81-.26,2.75.16,1.56,1.25,2.99,2.37,4,.84.75,1.86,1.37,3.02,1.37.68,0,1.43-.27,1.94-.73,1.62-1.44.51-3.87-.58-5.24-.9-1.14-2.16-2.39-3.64-2.73-.92-.21-1.81-.06-2.62.43-.7.43-1.2,1.11-1.48,1.88-.34.94-.16,2.01.22,2.9.71,1.64,2.16,3.2,3.83,3.88.77.31,1.71.3,2.41-.18s.89-1.41.69-2.19c-.4-1.58-1.61-2.99-2.9-3.95-.84-.63-1.91-1.13-2.99-.9-.8.17-1.57.63-2,1.34-.6.97-.56,2.01-.17,3.06.25.67.65,1.31,1.1,1.86.71.88,1.53,1.69,2.53,2.24s2.02.66,3.04.24c.86-.35,1.47-1.06,1.73-1.95.1-.34-.24-.94-.39-1.2-.31-.53-.77-1.08-1.23-1.48-.32-.28-1.71-1.45-1.97-.57-.04.15-.1.3-.17.44l.11-.22c-.32.6-.83,1.03-1.45,1.29l.23-.09c-.21.08-.42.14-.64.16-.11.01-.22.02-.33.02-.09,0-.4-.07-.1,0-.09-.02-.18-.05-.28-.07-.28-.06.37.18-.04-.02-.31-.15.42.29.13.08.34.29.43.35.25.2.18.16.34.33.49.52.17.21.2.25.09.11.24.37.3.46.18.26-.18-.32.19.48.07.13-.15-.43.03.24-.02-.04-.01-.09-.03-.19-.05-.28-.05-.26-.03.2,0-.05.01-.13.02-.25.04-.38.04-.22.12-.43.22-.64l-.11.22c.33-.61.85-1.06,1.5-1.31l-.23.09c.35-.12.68-.16,1.04-.16.27,0-.18-.07.04.01.06.02.19.08.25.08-.09,0-.37-.16-.12-.03.14.08.05.03-.25-.16.13.1.1.07-.09-.08-.08-.07-.7-.69-.45-.41-.31-.39-.41-.5-.29-.34.11.15.04.05-.22-.32.17.28-.21-.48-.09-.15-.04-.09-.09-.38-.04-.12,0,.01.05.2.04.21-.01,0,.02-.29-.01,0-.02.17-.07.33-.13.48l.11-.22c-.18.35-.46.59-.81.74l.23-.09c-.17.06-.33.11-.51.13-.09.01-.18.01-.27.01-.06,0-.12,0-.18-.01l.15.02s-.2-.05-.26-.07c-.31-.08.33.17.07.03.36.2.65.48.93.78-.17-.19-.09-.1.23.28.23.35.3.45.2.29-.11-.18.25.5.07.1-.04-.12-.03-.06.05.17-.01-.05-.03-.1-.04-.15-.02-.1-.03-.2-.05-.3,0-.09-.01-.07,0,.07,0-.05,0-.1,0-.15,0-.42.11-.83.29-1.21l-.11.22c.38-.75,1-1.33,1.78-1.64l-.23.09c.22-.08.44-.14.66-.17.13-.02.26-.02.39-.02.14,0,.27.04.06,0,.12.03.23.06.35.09.31.09-.33-.16-.06-.02.3.16-.49-.3-.06-.04-.35-.29-.43-.36-.26-.2-.35-.36-.45-.46-.31-.31.14.15.05.04-.28-.34.14.19.08.09-.18-.28.22.41-.09-.26-.04-.11.02.04.04.08.05.12.06.16.05.11-.04-.15,0,.1.05.21.07.31,0,.04.01.09.02.13.01.14.01.12,0-.06.04.04-.01.26-.02.31-.03.22-.1.43-.19.63l.11-.22c-.27.52-.71.88-1.25,1.09l.23-.09c-.2.08-.41.13-.63.16-.11.01-.22.02-.32.02-.05,0-.11,0-.16,0-.14-.01-.11,0,.09.02-.01-.03-.27-.06-.31-.07-.4-.13.28.15.03.01.33.22.41.27.24.15.25.19.49.4.7.64-.16-.17-.08-.08.24.29.12.15.22.3.3.48.09.18.1.19.03.05-.06-.16-.05-.12.03.13.02-.09-.07-.29-.09-.39,0-.06-.03-.49-.03-.19,0-.14,0-.28,0-.42.03-.57.15-1.14.28-1.69.09-.36-.23-.92-.39-1.2-.31-.53-.77-1.08-1.23-1.48-.29-.25-1.76-1.46-1.97-.57h0Z"/></g></svg>