<?xml version="1.0" encoding="UTF-8"?><svg id="Calque_2" xmlns="http://www.w3.org/2000/svg" viewBox="0 0 69.79 22.84"><defs><style>.cls-1{fill:#f2e2c4;stroke-width:0px;}</style></defs><g id="Calque_9"><path class="cls-1" d="M11.83,1.56c.24.51.18,1.59-.15,2.1.15.48,0,.96.12,1.5.03.21.15.42.18.6,0,.24-.15.48-.18.72-.03.33.15.72-.06,1.02.03.12.12.24.12.39.06.24,0,.66,0,1.05-.03.18,0,.54-.18.69.15.3.03.6.03.93,0,.18.06.39.09.63,0,.09-.06.21-.06.33,0,.06.09.09.09.24s-.09.27-.09.42c-.03.15.03.36.03.6v.18c0,.24,0,.45-.12.63.15.45-.12.78.06,1.23-.18.24-.18.75-.39.99.06.33-.18.57-.18.87,0,.27.15.42.03.72-.03.09-.06.12-.09.21-.06.24-.06.57-.12.81-.09.3-.33.6-.3.96-.33.18-.3.72-.66.87,0,.27-.12.39-.12.66-.21.15-.42.36-.69.57-.21.18-.54.33-.87.45-.21.09-.45.24-.63.3-.33.06-.78,0-1.23,0-.69.03-1.41.15-1.89.03-.12-.06-.24-.15-.36-.21-.12-.06-.27-.09-.33-.21-.39.09-.72-.06-1.08-.18-.09,0-.15,0-.24-.03-.03-.03-.12-.09-.15-.12-.27-.09-.54-.21-.81-.3-.12-.18-.27-.33-.42-.48-.09-.09-.18-.18-.24-.27-.15-.18-.33-.36-.6-.48-.15-.36-.51-.75-.24-1.23.18.06.09-.18.27-.12.03-.15.09-.3.18-.45.09-.09.21-.21.27-.33.03-.06,0-.18.03-.27.03-.06.09-.15.12-.21.03-.06.03-.09.06-.15.15-.27.18-.57.24-.9.18-.12.39-.21.54-.18.3.03.39.3.63.54.06.09.15.15.24.21.09.12.15.12.24.18.06.18.18.33.33.45.09.12.24.27.36.36.06.03.27.12.39.15.51.09,1.11.09,1.5.42.33-.09.78.06,1.14-.03.36-.09.45-.42.75-.51-.03-.15.06-.21.21-.21.03-.24.33-.45.39-.66.03-.06-.03-.21,0-.33.03-.09.09-.15.12-.18,0-.09-.06-.18-.06-.39.03-.27.09-.57.12-.84.03-.06,0-.15,0-.24.03-.06.09-.06.12-.15,0-.03-.03-.06,0-.12.09-.3,0-.84.03-1.41.03-.42.09-.84.12-1.26,0-.3,0-.6.03-1.02,0-.09.06-.21.06-.3-.03-.15-.12-.33-.15-.48,0-.09.06-.18.06-.27,0-.18-.06-.3-.03-.54,0-.09.03-.18.03-.24,0-.27-.06-.48-.06-.84,0-.06-.06-.21-.06-.24.03-.18.15-.39.18-.57.03-.3-.03-.63-.03-.96,0-.3.06-.6.06-.87,0-.18-.03-.33-.03-.48,0-.18.06-.33.06-.51,0-.24-.15-.48,0-.72-.15-.42-.03-.81.03-1.29.03-.12.06-.27.06-.39s-.06-.24-.03-.33c0-.18.03-.3.09-.45-.06-.21-.21-.3-.21-.54-.03-.21.15-.51.09-.78.15,0,.24-.09.27-.21.12.09.3-.09.42-.09.15-.03.3.09.48.09.15.03.36-.03.54-.03.09,0,.21.06.3.06s.15-.06.24-.06c.12.03.27.06.39.06.15,0,.39-.06.51-.03.27.06.42.33.54.51-.09.39-.3.63-.45.96Z"/><path class="cls-1" d="M32.53,5.94c0,.06.06.09.06.15-.03.09-.06.12-.06.21,0,.06.03.09.03.15,0,.03-.06.09-.03.18,0,.06.03.09.03.15,0,.09-.09.18-.09.27-.03.12.03.24.03.36,0,.09-.09.18-.09.27,0,.03,0,.21-.03.3,0,.21-.03.45,0,.69,0,.09.09.21.09.33.03.42-.06.9-.03,1.35,0,.21.06.36.03.54,0,.24-.12.45-.15.78,0,0,.03.09.03.12,0,.12-.09.45.03.63-.03.12-.09.27-.15.36.06.54-.09,1.05-.09,1.59.03.18.09.36.09.54,0,.09-.06.21-.06.33,0,.09.06.21.06.3,0,.06-.09.18-.12.27-.03.39,0,.6-.15.93-.12.21.09.69-.12.96.09.24.03.42.03.72,0,.09.06.21.03.3,0,.21-.09.39-.09.57-.03.45.09.87.12,1.26.03.09.03.18.18.15-.33.24.03.48.03.78,0,.06-.03.12-.06.18,0,.03-.03.18-.03.21-.03,0-.15.03-.15.03-.06.06-.21.18-.36.21-.12,0-.24-.06-.39-.06-.15-.03-.36.06-.57.06-.21.03-.48,0-.69.06-.24.03-.42.18-.63.18-.18-.06-.09.18-.24.18-.03.09-.24,0-.33.03-.24-.21-.45-.72-.24-.96-.18-.51.06-1.17-.06-1.8-.3.12-.54.33-.78.57-.12.09-.18.24-.33.33-.06.03-.06,0-.12.03-.03.06-.24.12-.33.24-.21.06-.42.03-.63.09-.27.06-.51.15-.87.21-.24.06-.66.24-1.08.18-.09,0-.15-.06-.18-.06-.12,0-.18.09-.3.09-.15.03-.3.03-.48-.06-.09.15-.48.03-.63-.06-.3.12-.57-.03-.87-.06-.18,0-.15-.18-.3-.21-.48.03-.9-.03-1.38-.12-.06-.15-.27-.18-.3-.39-.21.03-.21-.15-.36-.15-.09-.18-.24-.27-.33-.39-.21,0-.24-.12-.45-.12-.06-.06-.09-.18-.18-.24-.15-.09-.18-.18-.24-.21-.03,0-.12.03-.15,0-.18-.21-.3-.3-.42-.45-.06-.03-.18-.06-.24-.15,0-.18-.18-.18-.15-.42-.09-.03-.15-.09-.24-.15-.09-.09-.12-.15-.21-.27-.06-.03-.06-.09-.12-.12-.03-.06-.03-.3-.18-.39,0-.12-.12-.12-.24-.12-.03-.3-.15-.54-.42-.63.06-.18-.06-.18-.03-.33-.6-.54-.57-1.65-.87-2.46.03-.54,0-1.2.18-1.68q.03-.09.06-.15c.06-.09.03-.27.06-.48.03-.18.06-.39.09-.57.03-.09.06-.21.06-.3.06-.3.15-.57.33-.81-.15-.54.36-.75.39-1.26.18-.15.27-.36.42-.57.09-.15.21-.36.33-.57.09-.12.24-.21.21-.39.12-.06.18-.18.36-.24v-.27c.33-.21.48-.57.75-.87.12-.15.27-.24.42-.36.09-.18.39-.21.42-.39.39-.09.81-.15,1.11-.36.24-.03.54-.03.69-.18.39.06.6-.12.81-.27.6,0,1.14-.03,1.8,0,.3,0,.63-.06.87-.03.18,0,.33-.03.45.09.15-.06.36-.06.51.03.09.03.21,0,.39.06.09,0,.18.09.24.09.12.03.21,0,.3,0,.03.03.09.09.15.12q.18.03.36.15s.12,0,.15.03.03.09.06.12c.27.15.54.24.81.45.06.03.06.12.15.18.06.06.12.06.18.12.09.06.15.18.24.3.06.12.27.24.42.39.09.06.12.21.24.3.09.06.33.24.33.42.15-.54.03-1.23-.12-1.65-.12-.24-.3-.3-.18-.66.03-.12.21-.39.3-.45,0,.03.33.06.54.06.18.03.33.06.48.06.42,0,1.17.03,1.59.18.27-.09.45.06.69.12.03.15,0,.24.03.39-.03.12.06.18.03.3,0,.12-.15.36-.15.51ZM28.33,11.91c-.03-.12-.18-.15-.24-.24,0-.3-.15-.51-.18-.69.06-.27-.09-.39-.12-.54-.06-.21-.06-.42-.09-.66-.18-.09-.18-.21-.27-.3-.15-.09-.12-.12-.15-.15-.15-.18-.27-.3-.42-.45-.21-.21-.33-.3-.57-.39-.33-.15-.57-.3-.81-.42-.24-.12-.48-.09-.78-.15-.15-.06-.27-.15-.39-.18-.09,0-.27.03-.42,0-.12,0-.27-.09-.36-.09-.06,0-.15.18-.24.09-.12-.03-.3-.21-.39-.12-.39.03-.45.18-.72.33-.06.03-.18.06-.24.09-.09.06-.15.12-.21.15-.03,0-.09-.03-.15,0l-.09.09c-.15.09-.27.21-.39.27-.06.03-.21.06-.24.09-.15.21-.24.27-.3.39-.12-.03-.12.09-.24.03,0,.18-.15.3-.24.39-.12.12-.27.21-.42.27-.03.42-.36.54-.36.96-.15.18-.21.33-.3.54-.09.24-.09.51-.15.81-.06.21-.18.36-.21.54,0-.03.03.15.06.18,0,.36-.15.57-.18.84,0,.15.09.33.09.51,0,.03-.06.06-.06.12.06.21,0,.3,0,.39.03.24.27.48.18.78.27.18.48.42.81.57.24.45.69.75,1.05,1.05.18.18.36.3.57.39.03.03.09.09.12.12.24.09.42.12.63.15.12.03.3.12.39.15.06.03.09.12.18.12.51-.06,1.05.15,1.47.15.12.03.3,0,.42-.03.15,0,.33,0,.45-.03.06-.03.15-.12.24-.15.06,0,.12.03.18,0,.12-.03.3-.18.45-.03.21-.51.9-.51.99-1.14.12.03.09-.09.21-.09,0-.21.15-.33.24-.48.06-.12.15-.3.21-.39.03-.03.12.03.09-.09.09-.24.18-.45.36-.63-.06-.21.09-.36.15-.51.18-.54.27-1.02.27-1.65.09-.12.15-.27.21-.42-.09-.12-.09-.33-.09-.54Z"/><path class="cls-1" d="M50.98,5.97c-.06.54-.27.99-.51,1.44-.15.3-.3.63-.45.99-.03.09-.03.12-.06.21-.06.12-.15.3-.09.51-.15.15-.18.33-.27.48-.15.27-.39.45-.45.87-.06.09-.15.18-.24.24-.03.21-.12.42-.21.63-.06.15-.15.3-.27.48-.03.06-.06.24-.18.21-.03.12.09.12.03.27-.27.39-.33,1.02-.69,1.32-.03.18-.06.36-.18.54-.03.09-.09.15-.15.39-.06.21-.09.48-.15.75-.09.12-.18.18-.24.3,0,.12-.03.24-.03.39-.09.06-.12.18-.24.24.06.15-.06.42-.21.57-.03.03-.09.3-.15.42-.03.15-.03.21-.09.33-.09.12-.15.3-.3.39,0,.54-.33.75-.33,1.26-.09.03-.12.12-.21.18-.03.03-.03.15-.09.24,0,.03-.09.09-.09.09-.06.12-.03.27-.06.39-.03.06-.06.12-.09.21-.06.09-.03.18-.06.24-.03.06-.21.15-.27.27-.03.06,0,.15-.03.24-.06.12-.21.33-.3.48-.03.09-.09.21-.12.33-.09.27-.18.75-.39.87-.42.24-.78-.03-1.02-.3,0-.18-.12-.21-.09-.39,0-.09-.09-.12-.18-.12-.03-.09-.03-.15-.09-.18-.06-.15.03-.18.09-.24-.06-.18-.33-.15-.42-.3.06-.36-.24-.3-.18-.63,0-.12-.15-.06-.21-.12-.03-.03-.03-.12-.09-.18-.18-.21-.27-.69-.45-.99-.12-.18-.27-.36-.42-.54-.12-.15-.21-.42-.39-.63-.06-.33-.15-.63-.27-.87-.12-.3-.39-.51-.45-.84-.18-.12-.18-.36-.39-.45,0-.36-.27-.57-.42-.84-.09-.15-.09-.36-.27-.48-.09-.24-.18-.45-.33-.69-.03-.09-.18-.21-.24-.33-.06-.15-.03-.27-.09-.39-.09-.27-.3-.48-.3-.78-.21-.18-.27-.42-.39-.66-.12-.09-.15-.21-.18-.27-.12-.21-.21-.42-.27-.75-.03-.18,0-.45-.09-.57-.03-.03-.09-.09-.09-.12-.03-.09,0-.24-.06-.33-.03-.09-.09-.15-.12-.24-.03-.09-.06-.18-.09-.24-.18-.36-.48-.66-.51-1.02-.33-.27-.36-.78-.72-.99-.06-.36-.3-.54-.45-.78-.03-.06-.03-.12-.06-.15-.03-.03-.09-.03-.09-.12-.15-.06-.45-.03-.63-.09-.12-.18-.24-.39-.27-.63.09-.24.39-.27.72-.24.15-.03.27-.15.45-.18.3-.06.75-.03,1.11-.09.12,0,.24-.06.36-.09.09,0,.18.06.33.06.06,0,.15-.03.24-.03.18,0,.42.03.66,0,.21,0,.42-.09.6-.06.03,0,.06.06.15.03.15,0,.36-.12.48-.09.12.03.15.12.24.21.06.06.03.06.09.15.03.03.09.09.09.09.03.09-.03.18,0,.3,0,.03.09.09.09.09.06.21.03.66.09.84.03.21.18.42.27.63.03.12.09.21.12.33.15.36.27.99.36,1.47.03.18.18.24.3.33.06.36.24.69.36,1.05,0,.03.09.12.09.15s-.03.12,0,.18c.06.18.18.36.27.6.09.18.15.39.24.63.03.09.09.18.12.27.06.12.06.27.09.36.15.15.18.27.24.39.09.15.27.54.21.87.15.15.15.45.33.54-.03.39.27.45.27.84.21,0,.24-.21.3-.33.21-.39.33-.9.51-1.35.06-.09.03-.09.06-.15.09-.18.09-.27.12-.33.03-.06.12-.09.15-.15.03-.06,0-.18.03-.24.03-.03.09-.06.12-.09.03-.09.03-.27.09-.33.15-.15.15-.3.3-.3-.03-.21.09-.3.06-.51.15-.18.24-.39.27-.69.03-.03.06-.03.15-.03,0-.18.03-.33.09-.48.06-.15.18-.24.21-.36.09-.24.03-.51.12-.75,0-.09.06-.15.09-.24.03-.09.03-.18.06-.24,0-.06.06-.12.09-.24.09-.3.24-.51.36-.78.03-.03.03-.12.06-.18.06-.12.12-.24.21-.33.03-.12.15-.21.18-.3.03-.09.03-.18.06-.3.03-.06.09-.12.09-.18.15-.42.24-.72.48-1.05.09.03.15-.09.33-.09.15,0,.3.06.54,0,.06,0,.12-.06.18-.09.15,0,.3.03.48.03.12,0,.33-.06.51-.06.12.03.21.15.36.15.03.03.27-.03.39-.03s.3.03.39,0c.18,0,.42-.15.72-.06.27.06.42.36.48.54,0,.18-.12.27-.21.39Z"/><path class="cls-1" d="M69.64,5.94c0,.06.06.09.06.15-.03.09-.06.12-.06.21,0,.06.03.09.03.15,0,.03-.06.09-.03.18,0,.06.03.09.03.15,0,.09-.09.18-.09.27-.03.12.03.24.03.36,0,.09-.09.18-.09.27,0,.03,0,.21-.03.3,0,.21-.03.45,0,.69,0,.09.09.21.09.33.03.42-.06.9-.03,1.35,0,.21.06.36.03.54,0,.24-.12.45-.15.78,0,0,.03.09.03.12,0,.12-.09.45.03.63-.03.12-.09.27-.15.36.06.54-.09,1.05-.09,1.59.03.18.09.36.09.54,0,.09-.06.21-.06.33,0,.09.06.21.06.3,0,.06-.09.18-.12.27-.03.39,0,.6-.15.93-.12.21.09.69-.12.96.09.24.03.42.03.72,0,.09.06.21.03.3,0,.21-.09.39-.09.57-.03.45.09.87.12,1.26.03.09.03.18.18.15-.33.24.03.48.03.78,0,.06-.03.12-.06.18,0,.03-.03.18-.03.21-.03,0-.15.03-.15.03-.06.06-.21.18-.36.21-.12,0-.24-.06-.39-.06-.15-.03-.36.06-.57.06-.21.03-.48,0-.69.06-.24.03-.42.18-.63.18-.18-.06-.09.18-.24.18-.03.09-.24,0-.33.03-.24-.21-.45-.72-.24-.96-.18-.51.06-1.17-.06-1.8-.3.12-.54.33-.78.57-.12.09-.18.24-.33.33-.06.03-.06,0-.12.03-.03.06-.24.12-.33.24-.21.06-.42.03-.63.09-.27.06-.51.15-.87.21-.24.06-.66.24-1.08.18-.09,0-.15-.06-.18-.06-.12,0-.18.09-.3.09-.15.03-.3.03-.48-.06-.09.15-.48.03-.63-.06-.3.12-.57-.03-.87-.06-.18,0-.15-.18-.3-.21-.48.03-.9-.03-1.38-.12-.06-.15-.27-.18-.3-.39-.21.03-.21-.15-.36-.15-.09-.18-.24-.27-.33-.39-.21,0-.24-.12-.45-.12-.06-.06-.09-.18-.18-.24-.15-.09-.18-.18-.24-.21-.03,0-.12.03-.15,0-.18-.21-.3-.3-.42-.45-.06-.03-.18-.06-.24-.15,0-.18-.18-.18-.15-.42-.09-.03-.15-.09-.24-.15-.09-.09-.12-.15-.21-.27-.06-.03-.06-.09-.12-.12-.03-.06-.03-.3-.18-.39,0-.12-.12-.12-.24-.12-.03-.3-.15-.54-.42-.63.06-.18-.06-.18-.03-.33-.6-.54-.57-1.65-.87-2.46.03-.54,0-1.2.18-1.68q.03-.09.06-.15c.06-.09.03-.27.06-.48.03-.18.06-.39.09-.57.03-.09.06-.21.06-.3.06-.3.15-.57.33-.81-.15-.54.36-.75.39-1.26.18-.15.27-.36.42-.57.09-.15.21-.36.33-.57.09-.12.24-.21.21-.39.12-.06.18-.18.36-.24v-.27c.33-.21.48-.57.75-.87.12-.15.27-.24.42-.36.09-.18.39-.21.42-.39.39-.09.81-.15,1.11-.36.24-.03.54-.03.69-.18.39.06.6-.12.81-.27.6,0,1.14-.03,1.8,0,.3,0,.63-.06.87-.03.18,0,.33-.03.45.09.15-.06.36-.06.51.03.09.03.21,0,.39.06.09,0,.18.09.24.09.12.03.21,0,.3,0,.03.03.09.09.15.12q.18.03.36.15s.12,0,.15.03c.03.03.03.09.06.12.27.15.54.24.81.45.06.03.06.12.15.18.06.06.12.06.18.12.09.06.15.18.24.3.06.12.27.24.42.39.09.06.12.21.24.3.09.06.33.24.33.42.15-.54.03-1.23-.12-1.65-.12-.24-.3-.3-.18-.66.03-.12.21-.39.3-.45,0,.03.33.06.54.06.18.03.33.06.48.06.42,0,1.17.03,1.59.18.27-.09.45.06.69.12.03.15,0,.24.03.39-.03.12.06.18.03.3,0,.12-.15.36-.15.51ZM65.44,11.91c-.03-.12-.18-.15-.24-.24,0-.3-.15-.51-.18-.69.06-.27-.09-.39-.12-.54-.06-.21-.06-.42-.09-.66-.18-.09-.18-.21-.27-.3-.15-.09-.12-.12-.15-.15-.15-.18-.27-.3-.42-.45-.21-.21-.33-.3-.57-.39-.33-.15-.57-.3-.81-.42-.24-.12-.48-.09-.78-.15-.15-.06-.27-.15-.39-.18-.09,0-.27.03-.42,0-.12,0-.27-.09-.36-.09-.06,0-.15.18-.24.09-.12-.03-.3-.21-.39-.12-.39.03-.45.18-.72.33-.06.03-.18.06-.24.09-.09.06-.15.12-.21.15-.03,0-.09-.03-.15,0l-.09.09c-.15.09-.27.21-.39.27-.06.03-.21.06-.24.09-.15.21-.24.27-.3.39-.12-.03-.12.09-.24.03,0,.18-.15.3-.24.39-.12.12-.27.21-.42.27-.03.42-.36.54-.36.96-.15.18-.21.33-.3.54-.09.24-.09.51-.15.81-.06.21-.18.36-.21.54,0-.03.03.15.06.18,0,.36-.15.57-.18.84,0,.15.09.33.09.51,0,.03-.06.06-.06.12.06.21,0,.3,0,.39.03.24.27.48.18.78.27.18.48.42.81.57.24.45.69.75,1.05,1.05.18.18.36.3.57.39.03.03.09.09.12.12.24.09.42.12.63.15.12.03.3.12.39.15.06.03.09.12.18.12.51-.06,1.05.15,1.47.15.12.03.3,0,.42-.03.15,0,.33,0,.45-.03.06-.03.15-.12.24-.15.06,0,.12.03.18,0,.12-.03.3-.18.45-.03.21-.51.9-.51.99-1.14.12.03.09-.09.21-.09,0-.21.15-.33.24-.48.06-.12.15-.3.21-.39.03-.03.12.03.09-.09.09-.24.18-.45.36-.63-.06-.21.09-.36.15-.51.18-.54.27-1.02.27-1.65.09-.12.15-.27.21-.42-.09-.12-.09-.33-.09-.54Z"/></g></svg>