<?xml version="1.0" encoding="UTF-8"?><svg id="Calque_2" xmlns="http://www.w3.org/2000/svg" viewBox="0 0 51.19 51.22"><defs><style>.cls-1{fill:#f1e2c3;}.cls-1,.cls-2{stroke-width:0px;}.cls-2{fill:none;}</style></defs><g id="b2"><path class="cls-1" d="M44.65.39H6.9c-3.49,0-6.32,2.83-6.32,6.32v37.74c0,3.49,2.83,6.32,6.32,6.32h37.75c3.49,0,6.32-2.82,6.32-6.31V6.71c0-3.49-2.83-6.32-6.32-6.32ZM27.97,32.09h-.02c0,2.75.04,5.5-.01,8.25-.03,1.63-.5,3.15-1.62,4.4-.84.94-1.91,1.51-3.13,1.78-1.92.43-3.82.38-5.66-.39-1.66-.7-2.83-1.92-3.64-3.52-.07-.14-.03-.19.08-.25,1.18-.71,2.36-1.42,3.54-2.14.13-.08.18-.06.25.07.26.47.55.92.89,1.33.96,1.18,2.59,1.09,3.46.67.68-.33.93-.95,1.05-1.65.07-.41.09-.83.09-1.24,0-5.2,0-10.4,0-15.6,0-.25.07-.3.3-.29,1.39.01,2.78.01,4.17,0,0,0,0,0,0,0,.21,0,.26.05.26.26,0,0,0,0,0,0,0,2.78,0,5.56,0,8.34ZM46.35,43.11c-.74,1.48-1.94,2.43-3.45,3.02-.61.24-1.23.4-1.86.5s-1.27.15-1.92.15c-1,0-1.97-.12-2.91-.36-.94-.24-1.84-.61-2.69-1.16-1.24-.79-2.19-1.84-2.89-3.13-.02-.04-.03-.07-.04-.09,0,0,0-.02,0-.02,0-.02,0-.04,0-.05,0,0,.01-.02.02-.03,0-.01.02-.03.03-.04.01,0,.03-.02.04-.03.01,0,.02-.02.03-.02,1.17-.67,2.34-1.34,3.5-2.03,0,0,.02,0,.02-.01.02,0,.03-.01.05-.02.02,0,.05-.01.07-.01.01,0,.02,0,.03,0,.02,0,.04.01.05.03,0,0,.02,0,.02.02.02.02.04.05.07.09.53.84,1.16,1.59,2.05,2.07,1.34.71,2.74.82,4.16.31.71-.25,1.26-.72,1.45-1.48.24-.94-.03-1.73-.8-2.35-.52-.42-1.12-.69-1.73-.97-1.16-.54-2.36-.97-3.49-1.57-1.08-.57-2.08-1.25-2.86-2.22-1-1.25-1.37-2.7-1.35-4.27.03-2.99,1.92-5.31,4.9-5.98,1.91-.42,3.79-.34,5.6.47,1.37.62,2.33,1.68,3.08,2.95.03.04.03.08.03.11,0,0-.01.02-.02.03-.01.02-.03.04-.05.06,0,0,0,0-.01.01-1.14.73-2.28,1.46-3.42,2.2,0,0,0,0,0,0-.05.04-.09.04-.12.03,0,0-.02,0-.03,0-.03-.02-.05-.04-.08-.09-.23-.4-.49-.77-.83-1.08-.91-.82-1.97-1.01-3.1-.61-1.61.57-1.55,2.52-.74,3.34.34.34.75.6,1.17.82.98.5,2.01.89,3.01,1.35,1.24.57,2.45,1.2,3.49,2.1,1.4,1.21,2.06,2.77,2.13,4.59.05,1.17-.1,2.31-.63,3.37Z"/><path class="cls-2" d="M44.65.39H6.9c-3.49,0-6.32,2.83-6.32,6.32v37.74c0,3.49,2.83,6.32,6.32,6.32h37.75c3.49,0,6.32-2.82,6.32-6.31V6.71c0-3.49-2.83-6.32-6.32-6.32ZM27.97,32.09h-.02c0,2.75.04,5.5-.01,8.25-.03,1.63-.5,3.15-1.62,4.4-.84.94-1.91,1.51-3.13,1.78-1.92.43-3.82.38-5.66-.39-1.66-.7-2.83-1.92-3.64-3.52-.07-.14-.03-.19.08-.25,1.18-.71,2.36-1.42,3.54-2.14.13-.08.18-.06.25.07.26.47.55.92.89,1.33.96,1.18,2.59,1.09,3.46.67.68-.33.93-.95,1.05-1.65.07-.41.09-.83.09-1.24,0-5.2,0-10.4,0-15.6,0-.25.07-.3.3-.29,1.39.01,2.78.01,4.17,0,0,0,0,0,0,0,.21,0,.26.05.26.26,0,0,0,0,0,0,0,2.78,0,5.56,0,8.34ZM46.35,43.11c-.74,1.48-1.94,2.43-3.45,3.02-.61.24-1.23.4-1.86.5s-1.27.15-1.92.15c-1,0-1.97-.12-2.91-.36-.94-.24-1.84-.61-2.69-1.16-1.24-.79-2.19-1.84-2.89-3.13-.02-.04-.03-.07-.04-.09,0,0,0-.02,0-.02,0-.02,0-.04,0-.05,0,0,.01-.02.02-.03,0-.01.02-.03.03-.04.01,0,.03-.02.04-.03.01,0,.02-.02.03-.02,1.17-.67,2.34-1.34,3.5-2.03,0,0,.02,0,.02-.01.02,0,.03-.01.05-.02.02,0,.05-.01.07-.01.01,0,.02,0,.03,0,.02,0,.04.01.05.03,0,0,.02,0,.02.02.02.02.04.05.07.09.53.84,1.16,1.59,2.05,2.07,1.34.71,2.74.82,4.16.31.71-.25,1.26-.72,1.45-1.48.24-.94-.03-1.73-.8-2.35-.52-.42-1.12-.69-1.73-.97-1.16-.54-2.36-.97-3.49-1.57-1.08-.57-2.08-1.25-2.86-2.22-1-1.25-1.37-2.7-1.35-4.27.03-2.99,1.92-5.31,4.9-5.98,1.91-.42,3.79-.34,5.6.47,1.37.62,2.33,1.68,3.08,2.95.03.04.03.08.03.11,0,0-.01.02-.02.03-.01.02-.03.04-.05.06,0,0,0,0-.01.01-1.14.73-2.28,1.46-3.42,2.2,0,0,0,0,0,0-.05.04-.09.04-.12.03,0,0-.02,0-.03,0-.03-.02-.05-.04-.08-.09-.23-.4-.49-.77-.83-1.08-.91-.82-1.97-1.01-3.1-.61-1.61.57-1.55,2.52-.74,3.34.34.34.75.6,1.17.82.98.5,2.01.89,3.01,1.35,1.24.57,2.45,1.2,3.49,2.1,1.4,1.21,2.06,2.77,2.13,4.59.05,1.17-.1,2.31-.63,3.37Z"/><path class="cls-1" d="M46.73,43.17c-.07.14,0,.12,0,.14.1-.24-.03-.14,0-.14Z"/><polygon class="cls-1" points="47.2 40.7 47.22 40.74 47.18 40.38 47.2 40.7"/><path class="cls-1" d="M47.04,38.39c-.05.23.17.83.14,1.24l-.02.07.09.18c-.02-.5-.16-1.14-.22-1.49Z"/><path class="cls-1" d="M46.87,37.12c0,.09-.14-.24.1.28,0-.03,0-.04,0-.05-.02-.05-.05-.11-.09-.23Z"/><path class="cls-1" d="M46.96,37.35c.09.24-.03-.17,0,0h0Z"/><path class="cls-1" d="M46.41,36.31c.07.09.14.18.2.27,0-.08-.16-.34-.09-.25-.2-.28-.18-.21-.11-.02Z"/><path class="cls-1" d="M46.17,36.09l.11.13s-.03-.07-.11-.13Z"/><path class="cls-1" d="M46.5,36.52c-.07-.1-.15-.2-.22-.29.01.05-.02.07.1.14-.04,0,.02.03.12.16Z"/><path class="cls-1" d="M46.59,36.7c.07.18.15.4-.02.12.28.56.32.45.02-.12Z"/><path class="cls-1" d="M46.9,38.3l.02.24.07.2c-.03-.1-.06-.46-.09-.43Z"/><path class="cls-1" d="M45.09,34.71s.05.12.04.16l.2.15c-.08-.1-.25-.27-.24-.3Z"/><path class="cls-1" d="M45.13,34.86l-.3-.2c.24.21.3.23.3.2Z"/><path class="cls-1" d="M46.04,36.11c.14.14.27.3.39.46-.14-.19-.3-.37-.46-.55l.07.09Z"/><polygon class="cls-1" points="43.98 33.88 44.18 33.95 43.83 33.82 43.98 33.88"/><path class="cls-1" d="M43.19,33.42c.15.03-.14-.16,0-.11-.22-.11-.42-.18-.6-.23.19.07.37.18.6.34Z"/><path class="cls-1" d="M42.29,32.99c.08.03.19.06.3.1-.1-.04-.2-.07-.3-.1Z"/><path class="cls-1" d="M44.35,34.28s-.04-.09-.19-.21l.08.13s.07.05.11.08Z"/><path class="cls-1" d="M44.24,34.21h0c-.13-.09-.21-.15-.25-.18.03.02.11.08.25.18Z"/><path class="cls-1" d="M44.38,34.3l-.03-.02s.01.02.03.02Z"/><path class="cls-1" d="M45.48,35.35c-.17-.13-.52-.39-.25-.07.14.08-.01-.12.25.07Z"/><path class="cls-1" d="M44.47,34.47l.29.24s-.03-.08.06-.03l-.35-.21Z"/><polygon class="cls-1" points="44.31 34.38 44.47 34.47 44.36 34.38 44.31 34.38"/><path class="cls-1" d="M42.84,33.33c-.16-.05-.31-.13-.49-.21.2.11.38.21.56.31.04,0,.13,0-.07-.1Z"/><path class="cls-1" d="M43.53,33.74l-.03-.02s.03.03.03.02Z"/><polygon class="cls-1" points="40.59 32.31 40.61 32.33 40.62 32.32 40.59 32.31"/><path class="cls-1" d="M42.93,33.46c.14.09.23.12.32.15-.11-.06-.22-.12-.34-.18-.02,0-.02,0,.03.03Z"/><path class="cls-1" d="M41.79,32.78l.24.15c-.06-.05-.2-.15-.24-.15Z"/><path class="cls-1" d="M43.46,33.68h.02s-.04-.02-.02,0Z"/><path class="cls-1" d="M43.46,33.68c-.08-.04-.14-.05-.21-.07.08.04.16.08.24.12-.01-.01-.03-.03-.04-.04Z"/><path class="cls-1" d="M39.88,32.44c.05-.04.45.08.75.28.34.1.21-.17-.02-.39-.02.02-.03.04-.38-.08.1.08.7.4.4.32-.45-.17-.35-.18-.55-.3.15.15-.6-.15-.56-.01l.4.14s-.15-.02-.05.04Z"/><path class="cls-1" d="M41.24,32.62l.14.05c-.15-.08-.25-.15-.43-.28-.24-.07-.29-.08-.32-.06l.66.31h-.05Z"/><path class="cls-1" d="M41.99,32.95c-.13,0-.47-.12-.3.04.4.18.3.08.55.17-.65-.3.2.06-.25-.2.13.05.25.1.36.15l-.32-.19h.01s0,.01,0,.01h0s.03.03,0,.01c0,0-.01,0-.01,0,0,0-.02,0-.04,0-.18-.1-.02-.03.04,0h.01s0,0,0,0l-.66-.27c.13.07.31.15.61.28Z"/><path class="cls-1" d="M44.86,35.12s0-.03,0-.03c-.04-.02-.06-.03,0,.03Z"/><path class="cls-1" d="M44.66,34.9s.1.03.22.15c.1.11-.02.02-.03.04.09.05.29.21.08-.03l-.04-.03c-.2-.21-.45-.49-.41-.47.03.1.07.18.18.34Z"/><path class="cls-1" d="M43.36,33.85l-.53-.27.24.2v-.04c.29.18.25.11.3.11Z"/><polygon class="cls-1" points="40.54 32.25 40.64 32.22 40.29 32.17 40.54 32.25"/><polygon class="cls-1" points="39.84 31.95 39.89 31.91 39.69 31.86 39.84 31.95"/><path class="cls-1" d="M36.64,35.76l.16.06c-.07-.03-.12-.04-.16-.06Z"/><path class="cls-1" d="M35.58,35.17h-.04c.06.03.08.03.04,0Z"/><path class="cls-1" d="M44.18,24.6c-.16-.22-.36-.47-.37-.4l.03.1c.15.11.26.2.34.29Z"/><path class="cls-1" d="M32.67,26.59l.05-.06c0-.06.01-.13.03-.18-.03.07-.05.15-.08.24Z"/><path class="cls-1" d="M32.84,26.86c-.06.09-.12.18-.17.27.05-.08.1-.16.17-.27Z"/><path class="cls-1" d="M42.59,39.45c.05.07.09.15.12.23-.09-.38-.09-.2-.12-.23Z"/><path class="cls-1" d="M38.82,27.7c.19,0,.34.03.47.05-.22-.06-.41-.1-.47-.05Z"/><path class="cls-1" d="M35.89,36.15c.1.04.15.05.15.04-.1-.04-.16-.06-.15-.04Z"/><path class="cls-1" d="M39.81,27.87s-.06-.03-.09-.04c-.13-.03-.27-.05-.43-.08.16.05.34.1.52.12Z"/><path class="cls-1" d="M38.36,46.38s.03,0,.05.01c0,0-.02-.01-.05-.01Z"/><path class="cls-1" d="M45.3,45c-.05.05-.14.14-.23.21.05-.03.12-.1.23-.21Z"/><path class="cls-1" d="M37.37,30.48c.08.09.02,0,0,0h0Z"/><path class="cls-1" d="M37.72,31.14s-.06-.02-.07-.01c.02,0,.04,0,.07.01Z"/><path class="cls-1" d="M41.27,28.4s0,0,0,.01c-.02-.04-.02-.04,0-.01Z"/><path class="cls-1" d="M37.48,30.64s-.06-.09-.1-.13c.02.02.03.06.1.13Z"/><path class="cls-1" d="M37.48,30.6s.06.06.09.09c.02,0,.01-.01-.09-.09Z"/><path class="cls-1" d="M37.27,30.34c.04.06.07.12.11.17-.01-.02-.02-.03-.01-.03-.03-.03-.05-.07-.1-.14Z"/><path class="cls-1" d="M33.89,40.23s-.02,0-.03.01c-.13.11-.07.07.03-.01Z"/><polygon class="cls-1" points="40.05 23.57 40.07 23.57 40.05 23.56 40.05 23.57"/><path class="cls-1" d="M39.49,23.57c.24-.07.38-.04.56,0l-.17-.21c-.13.07-.26.14-.39.21Z"/><path class="cls-1" d="M39.38,36.95l-.36-.22c.5.11.82.29.49.06-.14.15-1.48-.61-1.61-.45l-.23-.15c.07.03.09.03.15.06-.44-.3-.42-.02-1.01-.33-.2-.12-.33-.22-.18-.17l-.48-.19c-.13-.08-.08-.09.05-.01-.23-.12-.46-.24-.69-.38h0c-.11-.03-.35-.13-.46-.18-.15-.14.09.04.07-.01l-.38-.21c-.11-.15.2.03.45.2-.2-.4-.34-.15-.91-.8.1.08.21.16.32.24-.12-.25-.38-.42-.62-.79.03.1.5.75.14.48-.08-.1-.2-.22-.39-.38.05-.05-.12-.22-.3-.46l.09-.04c-.21-.24-.23-.2-.37-.34-.18-.32-.14-.42-.12-.52-.22-.52.05.41-.24-.2-.15-.46-.28-.76-.44-1.33-.02-.34.07.05.08-.08l-.12-.29c0-.07.02-.05.03-.04-.06-.25-.1,0-.16-.41-.12-.11.12-.84.08-1.33.04-.12.05.07.09.03.03-.68.03-.58.08-1.15.06-.15.15-.29.22-.43-.19.3-.13-.16,0-.55-.09.11-.17.2-.21.25.09-.2.16-.41.26-.61.06-.06.05.01.03.13.02-.04.03-.08.04-.11.15-.18.14-.05.1.12-.06.06-.12.11-.17.17-.02.17-.03.33.04.32,0-.04.04-.12.07-.2,0,.04,0,.07.01.06.02-.01.03-.08.05-.19.05-.03.11-.05.17-.07l-.02-.05c.15-.23.34-.43.52-.63.29-.5.55-1.01,1.36-1.55-.17.19.02.13.06.22-.27.05-.59.42-.94.74.19-.16.18-.09.14-.04.19-.21.4-.41.63-.59.03.08.18-.06.39-.13-.23-.06.52-.4.84-.54.04.05-.03.1-.42.27.47-.09.5-.4.99-.44-.1.03-.16.04-.19.07.22-.11.83-.22.7-.14l-.1.02c.69-.17,2.12-.26,2.23-.35,0,.02-.1.15-.14.18.42-.14.85-.25,1.3-.33-.13.09.25.41-.33.39.16.04.36.08.71.12-.1-.04-.25-.21-.09-.19.39.21.28.12.76.37-.16-.07.07-.18.33-.09-.05.01-.03.17-.13.15.23.02.46.05.69.09-.17-.04-.08.12.03.22-.04-.06.51.25.66.34l-.22-.18c.61.41.77.2,1.34.72-.09-.04-.31,0-.05.28.18.05.85.29,1.3.84l.03.14c.12.15.28.36.35.57-.29-.48-1.04-.94-1.44-1.26.15.24.01.09.27.42.05.14-.19-.14-.28-.23.2.25.38.52.55.79.02-.02.05,0,.1.05.03.02.06.04.09.07.03.03.07.07.09.1.02.03,0,.05.04.06.04-.09-.1-.18-.14-.24l-.32-.38s.18.03.36.21c.1.09.16.15.25.27.04.05.1.14.04.19-.04.06-.12.09-.18.13-.14.04-.07-.17-.13-.17-.01.03-.03.06-.15.15-.14.1-.27.19-.31.2l.23-.21c-.36.19-.48.47-.94.65-.14.08-.49.16-.48.23.29-.05.53.22.42.39-.05.02-.79.38-.99.43-.28.07.23-.4,0-.34,0,.03-.1.14-.15.18-.16.07.01-.11-.3.1,0,.12-.66.41-.1.17-.16.12-.24.17-.35.22h0s0,0,0,0h0s-.03-.03-.01.04c0,.02,0,.03,0,.02,0,.01,0-.04,0,.02v.02s-.02.02-.02.02l.06-.11s0-.02-.01-.02c-.02-.04-.04-.07-.07-.12.01.15-.39-.23-.65-.49.03,0,0-.09,0-.13-.52-.55-.86-.84-1.56-1.04-.06-.05-.41-.13-.25-.15-.11,0-.21.02-.44.02-.45-.1.51,0,.18-.11-.03.05-.61.07-.91.2.11.05.73-.11,1.07-.09-.02.13-.58.17-1.23.44-.51.22-.25.01-.34.06-.48.22-.57.47-.64.63-.09.25-.12.34-.25.71-.12.32-.17,0-.23.06.05-.48.25-.68.43-.92-.08.09-.17.19-.24.31.03-.15.21-.43.35-.53-.13.07-.48.44-.57.98-.12.54.01,1.16.2,1.55.1.13.28.31.23.2-.06-.07-.11-.14-.16-.22-.07-.23.34.36.19.07.22.24.57.44.96.72l.03.13s-.25-.21-.38-.27c.18.09.58.52.86.5-.1-.07-.2-.14-.29-.21.34.12.8.21,1.2.42-.15-.16-.1-.03-.34-.26.19.23-1.04-.48-.7-.17-.22-.26-.46-.31-.7-.63,0,.03.07.14-.18-.1-.02,0-.05-.02-.07-.03,0,0,0-.01-.01-.02v.02s0,0,.01,0c.05.07.09.12.1.15-.21-.05-.51-.45-.59-.63-.06-.19.06.07.05-.05-.05-.08-.1-.15-.13-.24.04-.05.03-.53.13-.09-.02-.13-.04-.26-.04-.4.03-.24.11-.53.17-.71.07-.16.18-.42.12-.26.11-.16.24-.32.41-.43h.01c.51-.27,1.32-.54,1.99-.2.21.05.43.12.73.34l.02.09c.26.14.57.61.68.69.01.08.06.19.13.32.04.07.07.14.11.21.1.12.13.21.35.32.29.1.51-.03.58-.08h0s0,0,0,0h0c.36-.24.74-.52,1-.67l-.02-.08c.33-.21.63-.42,1.02-.71l-.06-.04c.16-.14.39-.27.65-.41.13-.07.27-.15.41-.23.22-.13.44-.26.54-.46.01.07-.16.24-.32.33.14-.08.26-.16.34-.28.05-.06.05-.13.04-.2.03-.07-.04-.14-.06-.21-.06-.14-.13-.28-.23-.42-.07-.1-.13-.17-.2-.26-.27-.33-.55-.62-.76-.93-.15-.12-.23-.22-.32-.32.01,0,.02.02.04.03-.01-.01-.03-.03-.05-.05-.05-.07-.11-.13-.17-.2.06.07.11.13.14.17-.11-.1-.28-.24-.45-.35l-.03-.11s-.03-.02-.04-.03c-.16-.15-.16-.07-.1.04-.09-.06-.18-.1-.25-.13-.08-.2-.49-.26-.64-.47-.15-.03-.99-.38-1.15-.27,0-.02-.06-.04.05-.01-.21-.09-.44-.16-.65-.18l-.08-.11c-.17,0-.35.01-.52.02-.29-.1-.42-.15-.1-.18-.75.02-.61-.03-1.24.06l.03-.06c-.23,0-.58.09-.71.05-.25-.04-.87.01-1.57.16-.71.15-1.49.44-2.08.73.31.01-.56.25-.53.41-.08.01-.24.11-.1-.05-.51.44-.82.63-1.04,1.05-.08.03.05-.15-.01-.11-.03.04-.11.19-.17.23-.06.04.03-.1.09-.2-.43.56-.34.7-.27.81-.24.26-.29.43-.34.68-.08.09-.21.26-.04-.13-.14.2-.57,1.35-.44,1.4-.04.07-.08.32-.07.39-.08.52-.08.57-.09,1.09l.02-.14c.11.2.02.43.06.84h-.01c.02.95.06.39.16,1.34l.06-.07c.16.04.13.83.46,1.3l-.05-.2c.16.24.21.84.39,1.11.03.06-.08-.08-.14-.15.41.71.13.04.52.49.03.12-.2-.02.07.29.1.2.95.71,1.34,1.08-.07-.1-.15-.2.09-.07.34.23.87.73,1.27.8.04.03.05.05.05.06.29.12.94.41,1.14.42.16.35,1.83.65,1.73.86l.87.38h-.03c.54.28.74.33.95.39.11.08.01.05,0,.06.36.24.53.39.68.52.15.14.31.25.52.52l-.04.1c.06.07.15.35.13.71-.02.36-.13.79-.3,1.12,0-.01,0-.03.02-.09-.35.87-1.84.85-2.09,1.15-.2.05-.41.09-.62.11.82-.02-.12.13.22.16-.33.04-.84-.1-.44-.09l.06.02c.07-.07-.18-.08-.44-.12-.26-.04-.54-.11-.51-.15-.76-.19-1.48-.56-2.02-1.09-.27-.26-.51-.56-.73-.87-.15-.15-.54-1.16-1.12-.7.09,0,.16,0,.23.02-.08.02-.16.06-.24.1l-.35.2c-.13.05-.22.03.14-.17-.23.06-.54.37-.54.4-.68.34.19-.26-.01-.14l-.27.16.07-.02c-.2.17-.19.22-.6.45-.26.13-.16.02-.27.07,0,0-.04,0-.15.09l-.59.33.28-.06c-.24.19-.56.32-.24.24-.12.03-.32.11-.55.24-.15.09-.36.18-.48.31-.16.14-.06.37.03.54.04.09.09.19.15.27l.12.19c.08.12.16.24.23.34.14.2.26.35.29.42.4.4.64.63.99.99-.08-.1-.08-.22.25.09-.26.05.58.6.83.91-.24-.24,1.14.64.76.26.33.19-.02.08.22.25.85.33,1.86.79,2.99.93.02-.02-.16-.09.08-.1l.57.2c.22,0,.21-.13.61-.02-.06-.03-.14-.06,0-.06.54.08,1.1,0,1.65-.03.56-.04,1.12-.09,1.66-.25,1.09-.29,2.14-.74,3.11-1.37-.28.15-.11.02.07-.13-.13.09-.04-.05-.09-.06.26-.18.51-.37.75-.59.05-.18.62-.82.57-.96-.05.09-.09.18-.14.26.13-.38-.51.31-.6.16-.17.42-.86.68-1.31,1.2-.14.06.08-.11,0-.09-.11.15-.28.28-.63.44l.03-.03c-.97.49-1.45.6-2.65.78l.1.06c-.26.03-.32,0-.45,0-.29.14.74-.06.48.08-.37-.1-1.88.16-2.11,0-.41-.01.12.09-.29.07l-.11-.05-.11.05c-.27-.02-.4-.09-.4-.13.06.01.18,0,.25,0-.34-.07-.97-.08-1.08-.12l.38.08c-1.11-.08-2.4-.51-3.37-.95l.06.07c-.75-.35-.56-.34-1.3-.84h.03c-.16-.07-.36-.21-.54-.38.19.12-.26-.35-.01-.18-.67-.58-.34-.27-.83-.63l-.04-.14c-.16-.13-.2-.12-.47-.49.25.28-.09-.28.19.02-.11-.21-.21-.39-.3-.53-.05-.08-.11-.14-.14-.22,0-.09.08-.11.14-.15.03-.02.06-.03.09-.03.05-.02.11-.03.17-.04.16-.18-.06-.08-.23,0-.13.06-.26.17-.22.11-.18.06.08-.19.4-.35.27-.15.55-.09,1.23-.49-.06.04-.08.05-.13.09.27-.11.47-.33.81-.46.13-.18.4-.23.39-.36l-.6.38c.31-.21.6-.53,1.11-.77.01,0,.03-.01.05-.02,0,.01-.02.02-.04.04-.03.04-.11.11-.21.19.12-.04.17-.09.22-.12.05-.03.1-.07.15-.07-.02.05-.07.09-.13.14-.03.03-.21.13-.37.23-.16.1-.32.2-.43.3.21-.06.67-.49.54-.27.07-.12.23-.22.27-.24.05-.02.11-.07.17-.03.05.05.08.09.16.15-.03,0-.05.02-.07.03.04.03.18.19.27.31l-.24-.18c.31.32.46.74.81,1.02-.63-.67-.08-.21-.29-.53.39.39.49.52.58.68.1.15.2.36.78.67-.17-.07-.53-.39-.29-.26.19.15.47.32.58.42.77.33-.09-.12.26-.01.23.19.39.13.74.2l-.02.07c.92.25.27-.06,1.1.09-.12.03-.24.05-.37.07.15,0,.3.02.45.01l-.1.08c.6-.04.66-.04,1.12-.07-.12-.04.05-.13.44-.22.28-.03-.13.11.43-.06-.11.08-.24.18-.51.18-.02.03-.12.07-.14.1.32,0,.76-.18.97-.27-.08.03-.18.06-.23.06.26-.12.54-.28.77-.47.13-.06.05.03-.03.1.15-.11.24-.21.44-.41-.01.09.06.14-.26.41.24-.19.45-.44.6-.71.07-.03.29-.4.25-.28.25-.5.23-1.23.06-1.9-.02-.03-.05-.1-.12-.23-.24-.58-.64-1.06-1.25-1.35l-.28-.29c-.47-.23.38.36-.4-.02-.55-.24-.16-.18-.34-.3-.29-.08-.8-.19-1.26-.48.17.05.3.12.45.18ZM34.13,34.11c.09.07.29.18.33.27-.15-.02-.2-.12-.33-.27ZM33.26,25.91c-.03.08-.12.18-.22.3.05-.1.12-.2.22-.3ZM36.99,29.1h0c.07-.22.04-.15,0,0ZM36.94,29.57s.03.04.03.02c-.02-.03-.03-.14-.02-.26-.03.03-.03.09-.01.24ZM32.14,40.68l.1-.04c-.2.14-.15.09-.1.04Z"/><path class="cls-1" d="M32.82,26.83s-.04.03-.06.03c0,.05,0,.05.06-.03Z"/><path class="cls-1" d="M42.56,39.41v.02s.02.02.02.02l-.02-.04Z"/><path class="cls-1" d="M42.67,28.55c.1-.05.16-.08.2-.09,0-.02-.06,0-.2.09Z"/><path class="cls-1" d="M38.6,31.33c-.11-.04-.2-.09-.3-.14.14.07.18.12.25.16,0-.02-.05-.07.05-.02Z"/><path class="cls-1" d="M41.18,32.97c.07.02.08.03.15.06v-.04c-.2-.09-.35-.13-.15-.02Z"/><path class="cls-1" d="M38.78,31.67c0,.07.21.14.44.23l-.04-.02c.1-.05-.15-.13-.4-.21Z"/><path class="cls-1" d="M39.28,31.92l.21.09s-.08-.04-.21-.09Z"/><path class="cls-1" d="M37.12,30.14c.02.1.1.02.1.08.1.08-.31-.57-.1-.08Z"/><polygon class="cls-1" points="38.88 31.93 38.83 31.83 38.68 31.83 38.88 31.93"/><path class="cls-1" d="M37.26,30.89c.09.09.18.18.28.27,0-.01.05.01.1.04-.19-.14-.37-.33-.38-.31Z"/><path class="cls-1" d="M37.64,31.2c.1.07.2.14.27.17-.06-.03-.17-.11-.27-.17Z"/><path class="cls-1" d="M38.37,31.73l-.1-.07-.24-.14c.11.07.22.14.34.21Z"/><path class="cls-1" d="M38.05,27.56c.13-.05.27-.09.4-.13.04-.03-.08-.03-.23.02-.1.04-.24.1-.17.11Z"/><path class="cls-1" d="M36.86,28.15c.08-.09.11-.08.17-.12l-.06-.07c-.04.07-.08.12-.11.19Z"/><path class="cls-1" d="M37.93,27.36s.61-.25.06-.09c-.04.03-.46.22-.06.09Z"/><polygon class="cls-1" points="43.37 28.41 43.28 28.47 43.37 28.59 43.37 28.41"/><path class="cls-1" d="M43.38,24.95c.35.33.15,0,.45.32.11.05-.24-.27-.13-.21-.25-.16-.36-.26-.31-.11Z"/><path class="cls-1" d="M43.69,25.06s.08.05.13.08c-.07-.05-.11-.07-.13-.08Z"/><polygon class="cls-1" points="46.19 44.1 46.41 43.83 46.25 43.99 46.19 44.1"/><path class="cls-1" d="M46.45,43.48l.12-.02.02-.22c-.03.07-.1.21-.14.25Z"/><path class="cls-1" d="M33.7,33.35h-.03s.05.11.14.22l-.11-.22Z"/><polygon class="cls-1" points="37.05 35.85 36.98 35.82 37.07 35.96 37.05 35.85"/><path class="cls-1" d="M40.51,37.27c-.14-.07-.32-.13-.45-.2.31.13.44.32.45.2Z"/><path class="cls-1" d="M28.34,32.01c0,.1.06.07.07.08-.01-.17-.08-.08-.07-.08Z"/><polygon class="cls-1" points="28.19 30.3 28.22 30.33 28.16 30.08 28.19 30.3"/><path class="cls-1" d="M28.2,28.7c-.11.15.02.58-.02.86l-.02.05.09.13c-.01-.35-.07-.8-.04-1.04Z"/><path class="cls-1" d="M28.43,27.85c-.04.05-.04-.18-.01.2,0-.02,0-.02.01-.04,0-.03,0-.08,0-.16Z"/><path class="cls-1" d="M28.43,28.01c0,.17.04-.11,0,0h0Z"/><path class="cls-1" d="M28.4,27.24l.04.22s.03-.24.05-.17c-.02-.23-.04-.18-.09-.05Z"/><path class="cls-1" d="M28.33,27.03l.02.11s.01-.05-.02-.11Z"/><path class="cls-1" d="M28.37,27.39l-.03-.24s-.05.04.01.11c-.03-.02,0,.03.02.13Z"/><path class="cls-1" d="M28.36,27.52c-.02.12-.04.29-.08.06.01.42.09.36.08-.06Z"/><path class="cls-1" d="M28.09,28.62l-.03.17.04.14c-.02-.07.03-.32,0-.31Z"/><path class="cls-1" d="M28.46,25.86s-.06.07-.09.09l.03.16c.02-.08.03-.24.06-.25Z"/><path class="cls-1" d="M28.37,25.95l-.04-.25c0,.22.01.26.04.25Z"/><polygon class="cls-1" points="28.21 26.99 28.29 27.39 28.21 26.91 28.21 26.99"/><polygon class="cls-1" points="28.46 24.92 28.52 25.06 28.44 24.81 28.46 24.92"/><path class="cls-1" d="M28.45,24.3c.04.1.07-.14.1-.03,0-.1-.02-.12-.03-.28-.02-.14-.03-.27-.06-.38.02.12.02.26.02.4,0,.13-.01.18-.03.28Z"/><path class="cls-1" d="M28.31,23.32c.06.08.12.17.15.3-.03-.13-.08-.22-.15-.3Z"/><path class="cls-1" d="M28.34,25.28s.05-.06.07-.19l-.06.1s0,.06,0,.1Z"/><path class="cls-1" d="M28.34,25.19h0c0-.11,0-.18,0-.21,0,.03,0,.09,0,.21Z"/><path class="cls-1" d="M28.34,25.31v-.02s0,.01,0,.02Z"/><path class="cls-1" d="M28.26,26.34c-.04-.14-.07-.44-.13-.15.04.1.08-.06.13.15Z"/><path class="cls-1" d="M28.26,25.43v.26s.03-.05.04.02l-.04-.28Z"/><polygon class="cls-1" points="28.24 25.3 28.26 25.43 28.27 25.33 28.24 25.3"/><path class="cls-1" d="M28.37,24.04c-.03-.18-.01-.4-.09-.57.06.18.03.5.03.66.02.01.06.1.05-.09Z"/><path class="cls-1" d="M28.35,24.61v-.03s-.01.03,0,.03Z"/><polygon class="cls-1" points="26.68 23.14 26.7 23.15 26.71 23.14 26.68 23.14"/><path class="cls-1" d="M28.3,24.15c-.01.11,0,.18.02.24,0-.09,0-.18-.01-.27,0,0-.02-.01-.01.02Z"/><path class="cls-1" d="M27.79,23.08c.09.02.18.05.27.1-.05-.05-.22-.12-.27-.1Z"/><path class="cls-1" d="M28.36,24.54v.02s0-.03,0-.02Z"/><path class="cls-1" d="M28.36,24.54c0-.06-.02-.1-.04-.15,0,.07.01.13.02.19,0-.01.01-.03.02-.04Z"/><path class="cls-1" d="M26.31,23.55c0-.06.3-.11.56-.05.25-.04.08-.24-.16-.35,0,.03,0,.05-.27.09.1.03.59.07.37.13-.34.03-.29-.02-.46-.05.15.07-.43.11-.33.21l.29-.04s-.1.04-.01.06Z"/><path class="cls-1" d="M27.22,23.15h.11c-.13-.02-.22-.04-.39-.09-.18.03-.22.05-.23.07h.54s-.04.02-.04.02Z"/><path class="cls-1" d="M28.01,23.2c-.14,0-.51.03-.32.11.2,0,.26.02.32.03.05.01.1.01.17.11-.5-.42.22.05-.17-.25.13.03.23.15.27.26-.03-.12-.12-.24-.22-.29h.01s0,.01,0,.01h0s.03.03,0,0c0,0-.01,0-.01,0,0,0-.03,0-.04,0-.19-.07-.02-.03.04,0h.01s0,0,0,0c-.12-.05-.26-.06-.42-.06l-.33.02s.17,0,.32,0c.1,0,.24,0,.37.05Z"/><path class="cls-1" d="M28,25.92s.02-.02.02-.02c0-.03-.01-.04-.02.02Z"/><path class="cls-1" d="M28.04,25.72s.03.07.03.19c-.02.1-.03,0-.05,0,.02.07.05.25.08.03v-.04c.01-.2.09-.46.1-.43-.06.06-.1.11-.16.25Z"/><path class="cls-1" d="M28.16,24.55l-.03-.42-.06.21h.03c-.01.23.03.18.05.21Z"/><polygon class="cls-1" points="26.63 23.11 26.68 23.04 26.44 23.14 26.63 23.11"/><polygon class="cls-1" points="26.06 23.12 26.07 23.06 25.93 23.09 26.06 23.12"/><path class="cls-1" d="M15.09,42.1l-.09.08s.07-.06.09-.08Z"/><path class="cls-1" d="M15.8,41.67v-.04s-.03.06,0,.04Z"/><path class="cls-1" d="M22.88,33.99c-.05.17-.14.36-.07.35l.06-.05c-.01-.13,0-.22,0-.3Z"/><path class="cls-1" d="M21.62,42.47h.06s.07-.06.1-.09c-.04.03-.1.06-.15.09Z"/><path class="cls-1" d="M21.56,42.76c-.09,0-.17,0-.26,0,.06,0,.14,0,.26,0Z"/><path class="cls-1" d="M16.26,44.91l.15.03c-.16-.13-.11-.04-.15-.03Z"/><path class="cls-1" d="M22.9,26.13c-.02.15-.03.27-.04.37.04-.17.09-.3.04-.37Z"/><path class="cls-1" d="M15.13,41.28c-.06.05-.09.08-.08.09.07-.05.1-.09.08-.09Z"/><path class="cls-1" d="M22.86,26.95s0-.05.01-.08c-.01-.12-.02-.24-.01-.37-.03.13-.04.28,0,.45Z"/><path class="cls-1" d="M27.57,38.7s0-.02,0-.04c0,0,0,.01,0,.04Z"/><path class="cls-1" d="M28.24,33.57c0,.06,0,.13,0,.21,0-.04,0-.1,0-.21Z"/><path class="cls-1" d="M23.76,23.1c.12,0,.02,0,0,0h0Z"/><path class="cls-1" d="M24.44,23.35s-.04.02-.04.03c0-.02.02-.02.04-.03Z"/><path class="cls-1" d="M23.25,28.25h0s.01-.01,0,0Z"/><path class="cls-1" d="M23.96,23.13c-.06,0-.11-.01-.16-.02.03,0,.08,0,.16.02Z"/><path class="cls-1" d="M23.92,23.1s.08,0,.11,0c.01-.01,0-.02-.11,0Z"/><path class="cls-1" d="M23.6,23.1c.07,0,.13,0,.2,0-.03,0-.04,0-.03,0-.04,0-.09,0-.17,0Z"/><path class="cls-1" d="M23.75,46.16s.01,0,.02,0c.1-.06.05-.04-.02,0Z"/><polygon class="cls-1" points="23.55 37.07 23.55 37.06 23.54 37.08 23.55 37.07"/><path class="cls-1" d="M23.6,37.49c-.08-.18-.07-.28-.05-.41l-.19.12.24.29Z"/><path class="cls-1" d="M14.54,43.02l-.09-.27c.25.24.35.45.28.2-.05.02-.11-.03-.17-.11-.04-.05-.07-.1-.11-.15-.06-.06,0-.09-.07-.16.03,0,.06,0,.09,0-.02,0-.01.02-.03.02.05.03.15-.07.17-.14.04-.08.1-.17.3-.28.14-.07.25-.1.17-.02l.28-.23c.09-.05.08,0,0,.05l.45-.29h0c.06-.06.19-.2.26-.27.12-.04-.05.06-.02.07l.25-.21c.11,0-.09.18-.27.27.28.07.2-.18.73-.36l-.23.17c.17.04.34-.12.61-.2-.06,0-.54.11-.27-.11.08-.03.18-.08.33-.22,0,.09.16-.03.31-.13v.12c.05-.04.04-.11.13-.06.13.21.12.32.11.43.2.32-.08-.33.18.03.17.3.27.43.59.74.17.23-.08,0-.03.1.07.05.15.09.23.12.04.04.01.05,0,.05.18.12.07-.05.35.12.11-.04.51.48.96.44.09.05-.06.05-.04.09.56.02.49.02.93-.08.12.01.25.03.38.03-.28-.04.06-.15.32-.3-.1-.01-.19-.02-.23-.03.15-.05.29-.1.42-.17.06,0,.03.04-.03.11.03-.02.05-.03.07-.05.17-.02.11.06.01.15-.06,0-.12,0-.18,0-.09.09-.19.17-.16.22.03-.02.09-.04.15-.06-.03.02-.04.04-.03.05.02,0,.06-.03.13-.07l.14.07v-.05c.23-.05.45-.13.66-.26.35-.41.44-.86.55-1.53.04.19.12.07.21.1-.14.16-.1.57-.35.91.12-.17.13-.11.12-.06.1-.23.16-.46.19-.69.07.04.1-.13.16-.29-.15.1-.04-.51-.08-.78.05-.01.1.06.06.38.14-.35-.14-.48-.02-.82,0,.08-.02.12,0,.15-.02-.19.02-.63.06-.52v.08c.02-.51,0-1.55-.13-1.63.02,0,.15.08.18.11l-.43-.94c.11.09.37-.2.43.23.02-.12.03-.27,0-.53-.02.08-.16.19-.17.08.12-.3.07-.21.17-.58-.02.12-.2-.03-.19-.23.03.03.17,0,.19.08l-.17-.51c.03.13.14.04.19-.06-.03.05,0-.42-.01-.55l-.04.2c.03-.54-.24-.58-.23-1.13.03.07.21.2.24-.07-.09-.14-.41-.64-.48-1.14l.05-.08-.06-.39c.13.26.4.97.51,1.34.04-.2.06-.05.05-.35.05-.1.07.18.07.27l.03-.71c-.1.01-.1-.57-.19-.56l.1.8c-.1.01-.29-.51-.27-1.02.04-.12.18.14.21.14-.03-.07-.07-.5-.04-.54l.05.23c.04-.27-.13-.49-.04-.81,0-.12.13-.31.07-.35-.12.16-.47.1-.55-.05,0-.04.11-.59.16-.71.09-.17.21.36.29.21-.03-.02-.06-.13-.07-.18.02-.12.09.08.07-.19-.1-.08,0-.54-.09-.15-.03-.27.02-.27.02-.58-.07.08-.23-.35-.25-.63.03.02.06-.02.07-.05,0-.54.06-.81.06-1.31.02-.04.05-.27.1-.15-.02-.08-.05-.16-.06-.32.09-.26.01.35.12.17-.06-.04-.08-.43-.12-.67-.09.03-.02.5.02.74-.13-.05-.25-.49-.31-1.04-.03-.43.08-.15.06-.23.02-.78-.21-.77-.12-1.39.08-.22.15.06.21.03.03.36-.05.5-.05.73l.04-.27c.03.12.05.36.02.47.03-.09.04-.42.04-.8,0-.19-.01-.4.02-.57.08-.19.33-.09.47-.1.09-.03.27-.06.17-.09h-.19c-.21-.05.33-.08.07-.11.24-.04.51-.11.9-.08l.1.09s-.26-.05-.35-.03c.14-.04.6.12.74,0l-.28-.06c.25-.05.56-.14.9-.11-.17-.09-.07.01-.34-.09.24.13-.86,0-.49.13-.28-.12-.44-.05-.79-.15.02.03.13.06-.15.04,0,0-.04.02-.05.03h-.02s.02,0,.02,0c-.01,0-.01,0,0,0,.07.01.13.03.16.04-.11.07-.56.07-.69.1-.2,0,.07-.04-.05-.06-.09.03-.17.07-.24.14-.1-.07-.37.44-.16-.06-.11.12-.16.33-.14.42-.04.18-.05.46-.02.64-.01.16.07.44.02.28l.04.56h-.02c0,.53.11,1.13-.01,1.69.02.19.04.38.02.67l-.06.04c.02.24-.06.67,0,.79-.15.2-.03,1.11-.06,1.5l.07.04c0,.28.02.55.05.9h.07c.05.31-.05.75-.04,1.22-.03-.04-.02-.16,0-.24-.15.53.11,1.21,0,1.69.02.13.02.22,0,.31,0,0,0-.02,0-.03,0,.01,0,.03,0,.05-.01.05-.02.12-.04.17.02-.05.03-.1.04-.14,0,.1,0,.25.03.4l-.07.05s0,.02,0,.03c-.03.14.03.12.09.05.01.07.03.14.04.2-.12.1.04.39-.08.53.06.11.04.74.17.83-.02,0-.02.05-.03-.03-.01.16-.03.32,0,.47l-.09.06.12.36c-.06.21-.09.3-.16.08.11.52.04.42.15.86l-.06-.02c0,.16.08.41.03.5-.06.17-.06.61-.06,1.11-.04.48-.05,1.03-.18,1.44.21-.11-.16.35-.06.41-.06.03-.12.12-.1,0-.12.39-.31.45-.43.69-.06,0,.02-.09-.02-.09-.02.02-.07.1-.11.1-.04,0,.03-.06.05-.1-.27.2-.3.31-.28.44-.23.02-.32.06-.47.17-.09-.02-.21-.04.04-.11-.15.06-.91.04-.93.1-.05-.02-.21-.03-.25-.03-.33-.08-.36-.09-.66-.21l.08.05c-.17.05-.27-.09-.49-.24h.01c-.22-.23-.26-.27-.31-.32-.05-.04-.1-.07-.26-.4l-.03.08c-.14.06-.28-.57-.54-.86l.06.16c-.07-.07-.13-.24-.19-.42-.02-.19-.2-.4-.35-.36-.06,0,.09-.05.19-.02-.2-.07-.28,0-.31.01-.04.03-.04.04-.04.06,0,.04.01.09-.17.21-.07-.01.09-.19-.16-.05-.13.03-.7.59-1.05.7.08,0,.16-.01,0,.12-.25.16-.74.28-.94.53-.04,0-.05,0-.06,0-.19.15-.62.43-.71.56-.08-.02-.16,0-.36.11-.17.11-.38.23-.36.45.05.2.19.38.24.51.07.13.08.18.03.21.12.2.25.4.38.59h-.03c.24.38.4.46.54.55.05.09-.01.05-.03.05.4.52.47.57.95.84v.09c.13.06.69.68,1.32.88,0,0-.03.01-.08,0,.67.26,1.57.82,1.9.61.16,0,.32.02.48.03-.59-.13.11-.1-.13-.19.23.03.59.18.3.15l-.04-.02c-.13.13.74.15.72.23,1.21.08,2.38,0,3.49-.28l-.16-.07c.13-.03.25-.07.38-.11.11-.01.16.04-.11.12.16.02.44-.2.43-.23.54-.17-.16.2,0,.14l.22-.09h-.05c.16-.11.16-.15.46-.3.2-.08.13,0,.21-.03,0,0,.03,0,.12-.06.15-.08.29-.17.43-.27l-.22.04c.16-.16.39-.27.14-.21.18-.04.57-.32.87-.65.31-.33.55-.69.63-.77.12-.29.28-.55.45-.89-.06.08-.16.09-.02-.2.14.19.31-.51.51-.73-.14.21.2-.92-.02-.58.07-.26.08,0,.16-.2.05-.65.18-1.43.14-2.2-.03-.01-.07.12-.11-.05l.13-.41c-.01-.15-.15-.14-.06-.42-.02.04-.06.1-.06,0,.13-1.52-.1-3.11.14-4.66-.05.21-.06.07-.06-.09-.01.1-.07,0-.1.02l.1-.65c-.1-.12,0-.69-.1-.76l.02.21c-.11-.27-.25.38-.39.34.13.31-.19.8,0,1.31-.03.11-.05-.09-.08-.04.06.13.07.28.05.56l-.02-.03c.01.8-.05,1.14-.09,2.04l.07-.07c0,.19-.03.23-.05.32.11.22,0-.54.13-.34-.15.25,0,1.36-.17,1.53,0,.3.08-.09.08.21l-.04.08.06.08c0,.19-.07.29-.1.3,0-.05-.01-.13-.01-.18-.05.25.02.71,0,.8l.03-.28c.04.82,0,1.78-.08,2.52l.04-.05c-.07.58-.13.45-.31,1.05v-.02c-.01.13-.06.29-.14.45.03-.16-.2.23-.15.03-.23.58-.09.29-.2.71l-.1.05c-.04.14-.02.17-.21.44.12-.24-.19.11-.06-.16-.49.44-.57.81-.92.87-.13.32.49-.31.38-.17.14-.06-.1.26-.28.38-.18.13-.4.07-.85.33.05-.02.04-.04.09-.06-.19.06-.31.23-.56.27-.09.14-.29.11-.29.24.15-.07.3-.14.44-.21-.24.14-.43.38-.9.44.03-.03.15-.1.24-.15-.14,0-.24.1-.38.1,0-.12.57-.19.8-.39-.15,0-.49.27-.39.1-.15.22-.49.13-.82.33v-.07s-.15.08-.26.1l.17-.13c-.27.14-.57.03-.84.11.58-.08.14.07.4.08-.71.19-.44-.11-1.24-.03.11-.01.41.02.24.06-.15,0-.36-.03-.45-.06-.53.02.08.07-.14.12-.18-.08-.26.03-.5.05v-.07c-.6-.1-.17.14-.72.02l.24-.07h-.29s.07-.08.07-.08c-.31.01-.41-.02-.7-.11.06.07-.07.12-.33.05-.17-.09.12-.04-.25-.14.1-.02.2-.04.34.06.02-.02.09-.02.12-.04-.18-.09-.47-.14-.6-.19.05.02.11.04.14.06-.18-.03-.37-.05-.55-.09-.07-.06,0-.05.07-.05-.11-.03-.19-.03-.35-.09.06-.04.07-.09.3-.03-.17-.04-.33-.09-.5-.15-.02-.04-.2-.18-.13-.17-.23-.16-.66-.25-.94-.52-.02,0-.06-.02-.13-.06-.27-.24-.45-.5-.79-.77-.03-.08-.05-.17-.07-.25-.23-.24.1.34-.28-.07-.26-.3-.02-.17-.07-.3-.15-.12-.45-.38-.53-.7.05.05.1.17.16.26ZM16.86,40.99c-.07.06-.2.19-.25.17.07-.14.13-.13.25-.17ZM22.29,42.36c-.05.06-.15.09-.27.11.07-.04.16-.07.27-.11ZM22.91,23.99h0c-.03.19-.02.13,0,0ZM22.94,23.6c0-.06,0-.06-.02-.04,0,.06,0,.14,0,.24.02-.02.02-.05.02-.2ZM25.08,46.1l-.08.02c.15-.11.11-.07.08-.02Z"/><path class="cls-1" d="M21.57,42.73s-.04-.02-.05-.03c-.03.02-.03.03.05.03Z"/><path class="cls-1" d="M16.24,44.91s0,0,0,0c0,0,.02,0,.02,0h-.03Z"/><path class="cls-1" d="M23.54,29.89c-.01.08-.02.12-.04.14.02,0,.03-.02.04-.14Z"/><path class="cls-1" d="M25.01,23.06l-.26.02c.13,0,.18.01.24.02-.01-.02-.07-.04.01-.04Z"/><path class="cls-1" d="M27.3,23.5s.08,0,.11,0v-.03c-.17,0-.27.03-.11.04Z"/><path class="cls-1" d="M25.31,23.3c.04.06.19.04.37.03h-.03c.04-.08-.15-.06-.33-.03Z"/><path class="cls-1" d="M25.72,23.32c.05,0,.11,0,.16,0,.01-.03-.07,0-.16,0Z"/><path class="cls-1" d="M23.39,23.15c.09.01.02-.08.08-.05.02-.03-.07-.04-.22.04-.11.08-.16.1.14.01Z"/><polygon class="cls-1" points="25.5 23.49 25.42 23.42 25.34 23.48 25.5 23.49"/><path class="cls-1" d="M24.1,23.44l.29.02s.02-.02.07-.02c-.17,0-.37-.02-.36,0Z"/><path class="cls-1" d="M24.45,23.43c.09,0,.18,0,.22-.01-.05,0-.15,0-.22.01Z"/><polygon class="cls-1" points="25.12 23.51 25.04 23.5 24.84 23.49 25.12 23.51"/><path class="cls-1" d="M23.17,25.68l.02.31s.04-.04.03-.15c-.02-.08-.03-.2-.05-.16Z"/><path class="cls-1" d="M23.38,24.85c-.02.08-.03.07-.06.11l.09.05-.04-.16Z"/><path class="cls-1" d="M23.4,25.75s.07.47.07.09c-.03-.04-.05-.36-.07-.09Z"/><polygon class="cls-1" points="23.28 30.29 23.28 30.21 23.13 30.18 23.28 30.29"/><path class="cls-1" d="M23.65,34.39c.04-.35-.09-.1-.05-.42-.04-.09-.04.26-.07.17.04.22.02.33.12.25Z"/><path class="cls-1" d="M23.53,34.14s-.01-.07-.02-.11c0,.06.02.1.02.11Z"/><polygon class="cls-1" points="28.32 32.72 28.35 32.49 28.3 32.64 28.32 32.72"/><path class="cls-1" d="M28.21,32.27l.1-.05-.08-.12-.27.27h.02s-.02-.01-.02-.01l.26-.26c0,.05,0,.14-.01.18Z"/><path class="cls-1" d="M17.38,40.91v-.04s-.06.01-.14.06l.14-.02Z"/><polygon class="cls-1" points="14.89 42.33 14.94 42.3 14.82 42.27 14.89 42.33"/><path class="cls-1" d="M15.12,43.54c-.06-.08-.14-.17-.19-.25.13.17.12.34.19.25Z"/><path class="cls-1" d="M44.85.77c-.27-.02-.17.05-.21.06.44,0,.2-.07.21-.06Z"/><path class="cls-1" d="M48.89,2.34l-.08-.03c.18.12.33.29.5.43-.14-.13-.27-.28-.43-.4Z"/><path class="cls-1" d="M50.7,6.03c.08-.42-.3-1.5-.64-2.16-.01-.04-.02-.08-.04-.12l-.25-.24c.51.74.92,1.88.93,2.53Z"/><path class="cls-1" d="M50.51,8.32c.04-.14.04.5.01-.54,0,.05,0,.07-.01.1,0,.09,0,.22,0,.44Z"/><path class="cls-1" d="M50.51,7.88c0-.46-.04.3,0,0h0Z"/><path class="cls-1" d="M50.54,9.99l-.04-.6c-.02.13-.03.66-.05.46.02.62.04.49.09.14Z"/><path class="cls-1" d="M50.61,10.56l-.02-.31c-.01.05-.01.14.02.31Z"/><path class="cls-1" d="M50.57,9.59l.03.66c.02-.09.05-.1-.01-.3.03.05,0-.08-.02-.36Z"/><path class="cls-1" d="M50.58,9.21c.02-.34.04-.77.08-.17-.01-1.15-.09-.98-.08.17Z"/><path class="cls-1" d="M50.83,6.23c0-.15,0-.3-.02-.45-.03-.12-.06-.25-.1-.37.06.19.1.85.12.82Z"/><path class="cls-1" d="M50.48,13.75s.06-.2.09-.25l-.03-.45c-.02.23-.03.66-.06.69Z"/><path class="cls-1" d="M50.57,13.5l.04.67c0-.6-.01-.7-.04-.67Z"/><polygon class="cls-1" points="50.73 10.67 50.65 9.58 50.73 10.88 50.73 10.67"/><polygon class="cls-1" points="50.48 16.29 50.42 15.91 50.5 16.59 50.48 16.29"/><path class="cls-1" d="M50.49,17.98c-.04-.28-.07.38-.1.09,0,.46.05.85.08,1.2-.02-.37-.01-.77.02-1.29Z"/><path class="cls-1" d="M50.51,19.86c-.01-.17-.03-.37-.05-.59.01.2.02.39.05.59Z"/><path class="cls-1" d="M50.6,15.3c-.01.05-.05.15-.07.52l.06-.26c0-.08,0-.17,0-.26Z"/><path class="cls-1" d="M50.6,15.55h0c0,.29,0,.49,0,.58,0-.07,0-.25,0-.58Z"/><path class="cls-1" d="M50.6,15.23s0,.04,0,.07c0-.03,0-.04,0-.07Z"/><path class="cls-1" d="M50.67,12.42c.04.39.07,1.21.13.42-.04-.28-.08.17-.13-.42Z"/><path class="cls-1" d="M50.68,14.91v-.71s-.03.14-.04-.05l.04.76Z"/><polygon class="cls-1" points="50.7 15.25 50.68 14.91 50.67 15.17 50.7 15.25"/><path class="cls-1" d="M50.57,18.65c.03.31.03.64.03,1.02,0-.41.01-.83.02-1.22-.02-.06-.06-.23-.05.2Z"/><path class="cls-1" d="M50.59,17.14s0,.05,0,.07c0-.04,0-.08,0-.07Z"/><polygon class="cls-1" points="50.61 23.38 50.62 23.32 50.61 23.31 50.61 23.38"/><path class="cls-1" d="M50.64,18.38c.01-.3,0-.49-.02-.66,0,.23,0,.47.01.73,0,.03.02.03.01-.07Z"/><path class="cls-1" d="M50.54,20.9c.01-.17.02-.34.04-.53-.02.15-.05.47-.04.53Z"/><path class="cls-1" d="M50.58,17.31v-.05c-.02.1,0,.09,0,.05Z"/><path class="cls-1" d="M50.58,17.31c.01.14.03.27.04.4,0-.18-.01-.35-.02-.51,0,.03-.01.07-.02.1Z"/><path class="cls-1" d="M51.02,24.51c-.06-.05-.11-.85-.05-1.54-.04-.68-.24-.24-.35.36.03.02.05.02.08.72.03-.24.08-1.55.13-.96.03.93-.02.76-.05,1.21.07-.38.11,1.18.22.98l-.04-.81s.04.28.06.05Z"/><path class="cls-1" d="M50.63,21.99v-.29c-.02.33-.04.56-.09,1,.03.48.05.58.07.61v-1.42s.02.1.02.1Z"/><path class="cls-1" d="M50.62,20.41c.06.22.09.92.16.49,0-.84-.05-.59-.08-1.1.02,1.36-.04-.39-.07.59,0-.27-.01-.51-.02-.74-.01.24-.02.48-.03.7v-.03s0,0,0,0h0c0-.06.01-.08,0-.01,0,0,0,.02,0,.03,0,0,.02.03.02.06-.01.39-.02.06-.02-.06,0,0,0-.02,0-.02h0s.04,1.37.04,1.37c0-.29,0-.65,0-1.29Z"/><path class="cls-1" d="M50.94,13.56s-.01.04-.02.04c0,.09.01.12.02-.04Z"/><path class="cls-1" d="M50.9,14.12c0-.1-.03-.18-.03-.5.02-.28.03,0,.05-.01-.02-.19-.05-.68-.08-.07v.1c-.01.55-.09,1.26-.1,1.16.06-.16.1-.3.16-.67Z"/><path class="cls-1" d="M50.78,17.31l.03,1.14.06-.58-.03.03c.01-.65-.03-.51-.05-.59Z"/><polygon class="cls-1" points="50.58 23.51 50.51 23.36 50.6 24.02 50.58 23.51"/><polygon class="cls-1" points="50.58 24.99 50.52 24.94 50.56 25.33 50.58 24.99"/><path class="cls-1" d="M.22,38.15l-.02-.33c0,.15.01.25.02.33Z"/><path class="cls-1" d="M.22,40.57l.03.06c-.02-.11-.03-.16-.03-.06Z"/><path class="cls-1" d="M37.75,50.4c-.49-.06-1.03-.14-.97-.07l.15.07c.34-.01.6,0,.82,0Z"/><path class="cls-1" d="M12.91,50.79l.14.02c.12-.02.23-.04.33-.06-.14.01-.3.03-.47.04Z"/><path class="cls-1" d="M12.57,51.06l-.64-.04c.14.01.35.03.64.04Z"/><path class="cls-1" d="M.15,24.95l-.07-.39c0,.61.03.34.07.39Z"/><path class="cls-1" d="M50.61,40.12c-.03.42-.04.75-.04,1.05.04-.51.09-.91.04-1.05Z"/><path class="cls-1" d="M.91,39.1c-.01-.2-.03-.29-.04-.29.01.21.02.33.04.29Z"/><path class="cls-1" d="M50.57,42.38c0-.08.01-.15.02-.22-.01-.31-.02-.62-.02-.99-.03.37-.05.8,0,1.21Z"/><path class="cls-1" d="M26.63.02h.11s-.04,0-.11,0Z"/><path class="cls-1" d="M40.59.68c-.14,0-.36,0-.57,0,.1,0,.28,0,.57,0Z"/><path class="cls-1" d="M50.56,30.93c0-.31,0-.05,0,0h0Z"/><path class="cls-1" d="M50.81,29.41c0,.07.02.12.03.13-.02-.03-.03-.07-.03-.13Z"/><path class="cls-1" d="M50.88,45.5v.03c.02-.09.02-.07,0-.03Z"/><path class="cls-1" d="M50.58,30.46c0,.12-.01.26-.02.4,0-.07,0-.19.02-.4Z"/><path class="cls-1" d="M50.55,30.53c0-.11,0-.19,0-.27-.01-.04-.02,0,0,.27Z"/><path class="cls-1" d="M50.56,31.37c0-.18,0-.34,0-.51,0,.06,0,.09-.01.07,0,.09,0,.22,0,.44Z"/><path class="cls-1" d="M1.65,2.86s.03-.03.05-.05c.17-.28.09-.16-.05.05Z"/><path class="cls-1" d="M29.6,51.08h.04s-.03,0-.05,0h.01Z"/><path class="cls-1" d="M28.48,51.12c.48-.08.75-.07,1.11-.05l-.37-.19-.74.24Z"/><path class="cls-1" d="M.2,32.36l-.06.79c-.1-.95-.06-1.64-.15-.9.2.11.02,3.07.22,3.18l-.04.52c0-.15,0-.18,0-.32-.1,1.01.15.75.12,2.06-.02.45-.05.77-.07.46l.05,1.01c0,.29-.04.22-.04-.07l.02,1.55h0c.03.21.08.71.1.95-.03.39-.02-.2-.05-.1l.05.86c-.05.35-.1-.36-.1-.95-.2.8.05.71-.07,2.44l-.03-.81c-.06.26-.08.55-.09.89-.02.33-.02.73-.02,1.24,0-.28.14-1.89.2-.96-.01.25-.02.63.08,1.15-.07.01,0,.53.2,1.15h-.11c.26.65.29.57.51.92.35.69.41.85.46,1.04.76,1.01-.44-.75.5.4.67.78,1.3,1.23,2.44,1.69.66.28-.14.01.09.13.21.04.42.11.63.14.15.04.1.05.07.06.53.09.06-.05.89.06.24-.03,1.69.22,2.68.1.25.03-.12.06-.04.1,1.37-.08,1.18-.06,2.3-.16l.96.06c-.7-.07.2-.16.98-.23-.26-.03-.48-.06-.61-.08l1.26-.05c.15.02.03.05-.18.09.08,0,.16-.02.23-.02.45.04.22.09-.11.14l-.45-.06c-.31.06-.6.12-.54.18.08-.01.24-.02.41-.03-.08.02-.13.03-.1.04.04.01.17-.01.38-.04l.29.11.07-.04,1.65.07c1.18-.11,2.2-.27,4.07-.31-.46.08-.1.13-.12.22-.51-.1-1.45.04-2.42.02.51.01.39.05.27.07l1.73-.09c-.04.08.37.06.82.09-.34-.15,1.29-.1,1.99-.15.04.05-.12.1-.98.09.95.11,1.22-.18,2.15-.08-.21,0-.32,0-.41.02.49-.04,1.69,0,1.4.03h-.21c1.39.02,4.24,0,4.44-.12.01.02-.18.15-.27.18l2.48-.43c-.22.11.62.37-.53.43.33.02.74.03,1.44,0-.23-.02-.56-.16-.25-.17.85.12.59.07,1.63.17-.34-.02.04-.2.57-.19-.08.03.04.17-.15.19l1.33-.17c-.33.03-.06.14.24.19-.14-.03,1.15,0,1.51-.01l-.56-.04c1.5.03,1.49-.24,2.98-.23-.18.03-.45.21.31.24.35-.09,1.54-.42,2.86-.48l.25.05,1.01-.06c-.63.13-2.4.4-3.37.51.56.04.16.06,1,.05.3.05-.46.07-.71.07l1.96.03c-.09-.1,1.5-.1,1.43-.18l-2.13.1c-.09-.1,1.23-.29,2.62-.27.35.04-.26.18-.24.21.18-.04,1.31-.06,1.46-.05-.21.03-.4.04-.6.06.78.04,1.31-.14,2.25-.3.32-.08.99-.22,1.02-.32-.55.14-.77-.2-.48-.39.04-.03.44-.15.83-.36.4-.19.8-.47.95-.57.22-.14.12.03,0,.21-.13.18-.28.35-.07.24,0-.03.21-.25.29-.35.26-.23-.03.18.49-.38.04-.14.95-1.21.17-.32.41-.61.5-.61.88-1.39-.17.22.14-.79.22-1.49.02.05.08-.11.1-.18.13-.73.1-1.3.12-1.85,0-.56.02-1.09.03-1.78.02-.13.05-.79.1-.51-.02-.2-.05-.38-.06-.8.09-.82.01.94.12.32-.06-.05-.08-1.09-.12-1.69-.09.19-.02,1.39.02,1.99-.13,0-.26-1.05-.32-2.48-.03-1.14.08-.49.06-.69.02-2.14-.22-1.82-.13-3.6.08-.7.16-.03.22-.19.03.93-.05,1.42-.05,2.05l.04-.77c.03.29.05.91.02,1.25.07-.59.01-3.61.08-5.26-.03-.29-.05-.8-.09-.56v.52c-.05.48-.08-.98-.11-.32-.05-.7-.12-1.48-.08-2.47l.09-.19s-.05.64-.03.92c-.04-.41.12-1.51,0-1.96l-.06.69c-.05-.7-.14-1.57-.11-2.45-.09.4.01.2-.1.82.13-.54,0,2.23.13,1.37-.12.64-.05,1.1-.16,1.93.03-.03.06-.29.04.44,0,.03.02.11.03.16,0,.02,0,.03,0,.05v-.04s0,.03,0-.02c.01-.17.03-.32.05-.37.07.36.07,1.53.1,1.92-.01.44-.03-.18-.07.06l.05.59c-.07.06-.11,1.16-.15.13v.92c-.04.54-.06,1.29-.03,1.75-.01.44.07,1.1.02.72l.04,1.45h-.02c0,1.44.11,2.95-.01,4.58.02.48.04.98.02,1.78l-.06.16c.06.63-.18,1.73-.23,1.98-.16.28-.38.93-.79,1.55-.39.63-.95,1.2-1.36,1.49l.02.08c-.56.41-1.15.76-1.99,1.02l.07.05c-.36.12-.85.22-1.4.21-.57,0-1.2-.02-1.82-.03.09-.03.41-.02.63,0-1.51-.15-3.19.11-4.56,0-.34.02-.59.02-.83,0,.03,0,.06,0,.08,0-.04,0-.09,0-.14,0-.15-.01-.31-.02-.47-.04.15.01.29.03.4.04-.26,0-.65.02-1.05.03l-.17-.07s-.06,0-.09,0c-.38-.03-.31.03-.1.09-.2.01-.38.03-.52.04-.31-.12-1.03.04-1.45-.09-.26.06-1.97.05-2.18.17-.01-.02-.13-.02.08-.03-.44-.01-.87-.03-1.26,0l-.19-.09-.95.12c-.58-.06-.82-.09-.24-.16-1.39.11-1.13.04-2.31.15l.06-.06c-.42,0-1.1.08-1.35.03-.94-.11-4.67-.02-7.09-.12.47.17-1.13-.08-1.22.06-.14-.04-.48-.06-.09-.1-1.24.04-1.86-.07-2.71.05-.14-.04.26-.06.14-.09-.1,0-.39.04-.52.01-.13-.02.18-.03.38-.05-1.26,0-1.39.13-1.48.25-.64-.06-.96-.05-1.42.03-.22-.04-.59-.08.19-.09-.44,0-2.7-.06-2.74.04-.14-.02-.62,0-.73,0-.99,0-1.08,0-2.05,0l.27.02c-.39.1-.81.06-1.56-.07h.02c-.85-.22-1.01-.33-1.19-.37-.09-.02-.17-.06-.33-.14-.16-.07-.39-.2-.74-.45l.04.11c-.11.03-.43-.21-.77-.56-.36-.34-.69-.83-1.01-1.22l.18.31c-.4-.41-.63-1.41-.75-1.91-.03-.11.08.17.15.31-.21-.66-.18-.71-.24-.7-.03,0-.1.07-.2-.45.02-.2.16.22.08-.47,0-.3-.18-2.12-.09-3.12-.04.22-.08.44-.11-.07-.01-.78.15-2.12.02-2.83.01-.1.02-.14.03-.14-.03-.6-.05-1.95-.12-2.31.25-.55-.12-3.73.11-3.71v-1.84s.01.05.01.05c.02-1.18-.04-1.6-.09-2.01.02-.27.04-.07.05-.05.05-1.72.04-1.89-.08-3.34l.07-.15c-.04-.39.12-2.49.03-4.18,0,.02.02.05.03.19-.09-1.9.21-4.55-.06-5.25l-.07-1.25c-.02,1.62-.12-.24-.16.43-.02-.64.08-1.65.1-.87v.12c.13.29.04-2.02.13-1.97.01-1.59.02-3.17.03-4.72.02-.78-.02-1.55.12-2.25.13-.71.39-1.39.75-2.01-.09.07-.18.15-.26.24.16-.29.33-.59.54-.85.18-.19.27-.23-.14.34.24-.28.7-.96.7-.99,1.06-.92-.31.46.02.18.12-.15.27-.27.41-.4l-.1.08c.15-.18.24-.27.37-.39.13-.13.31-.26.68-.48.49-.23.28-.06.47-.15,0,.01.06-.03.3-.12.39-.15.79-.26,1.2-.32-.17,0-.34,0-.51.02.53-.18,1.18-.19.58-.21.43-.02,1.64.02,2.83.01,1.18,0,2.32-.01,2.6.01.82-.06,1.62-.06,2.62-.05-.25-.02-.4-.12.46-.1-.31.2,1.58.09,2.27.23-.62-.1,2.45-.02,1.47-.16.72.02.04.08.59.12,1.71-.08,3.77.05,5.88.02.03-.03-.32-.07.13-.11l1.12.13c.42-.01.38-.15,1.15-.06-.11-.02-.27-.06.01-.06,4.14.13,8.46-.1,12.66.14-.57-.05-.19-.06.24-.06-.28-.01,0-.07-.05-.1l1.76.1c.32-.1,1.89,0,2.07-.1l-.56.02c.74-.11-1.04-.25-.93-.39-.83.13-2.19-.19-3.55,0-.3-.03.26-.05.1-.08-.35.06-.76.07-1.53.05l.09-.02c-2.17.01-3.1-.05-5.54-.09l.18.07c-.52,0-.63-.03-.88-.05-.6.11,1.47,0,.92.12-.69-.14-3.69,0-4.16-.17-.81,0,.24.08-.57.08l-.21-.04-.2.06c-.53,0-.79-.07-.81-.1.13,0,.36-.01.5-.01-.69-.05-1.93.02-2.17,0l.77.03c-2.2.04-4.88-.02-7.01.07l.16.03c-1.62.06-1.3-.04-3.08,0h.06c-.36.03-.83.04-1.32.04.45-.04-.85-.08-.26-.12-1.76.07-.87.05-2.03.18l-.27-.06c-.4.05-.43.08-1.32.09.73-.05-.57-.08.25-.15-1.87-.12-2.77.12-3.63-.05-.86.17,1.63.07,1.14.11.4.06-.7.1-1.3.11-.3,0-.56-.01-.94,0-.38.03-.89.09-1.6.42.14-.06.14-.09.29-.14-.55.21-1.02.54-1.62.94-.26.32-.7.62-.68.8.31-.36.67-.68,1.04-.96-.63.51-1.11,1.1-1.84,2.18.04-.1.19-.46.36-.68-.26.29-.4.63-.61.97-.03-.08.16-.47.46-.91.3-.44.73-.9,1.03-1.22-.39.21-1.05,1.28-.87.85-.27.58-.92,1.29-1.09,2.36l-.05-.09c-.03.17-.1.51-.14.82,0-.19,0-.38.02-.57-.14.85-.28,1.68-.23,2.45,0-1.66.08-.36.15-1.08.07,2.06-.19,1.18-.16,3.46-.01-.31.04-1.16.08-.68-.01.43-.04,1.01-.08,1.27.01,1.51.07-.23.12.41-.09.51.04.74.06,1.4h-.07c-.05,1.73.15.46.09,2.01l-.1-.66.03.81-.08-.17c.06.88.05,1.15.02,2.01.05-.2.13.11.13.88-.04.52-.07-.29-.06.79-.05-.24-.1-.51-.04-.98-.02-.05-.05-.24-.07-.29-.05.56-.01,1.41-.01,1.8,0-.15,0-.33.02-.42l.1,1.57c-.03.25-.05.05-.07-.14,0,.32.04.54.05,1-.06-.12-.12-.09-.15-.75l.07,1.49c-.03.1-.07.77-.09.57-.03.83.11,2.03.07,3.13.01.06.02.17.03.4-.01,1.03-.09,1.95,0,3.17l-.11.69c.02.96.13-.94.17.66.03,1.13-.09.42-.12.82.05.56.16,1.54.08,2.57-.02-.34,0-.61-.01-.93ZM.25,44.17c-.02-.23-.06-.68-.02-.85.08.26.04.46.02.85ZM14.65,50.93c-.17.02-.43.01-.73-.02.22,0,.46,0,.73.02ZM50.61,34.37v.02c-.02.51-.01.33,0-.02ZM50.65,33.31c-.01-.11-.02-.1-.03-.05.02.07.02.31.01.58.02-.08.03-.21.02-.53ZM4.5,1.18l-.19.07c.39-.21.29-.13.19-.07Z"/><path class="cls-1" d="M12.61,51.02c-.06-.01-.08-.03-.1-.04-.09.01-.09.03.1.04Z"/><path class="cls-1" d="M.17,25.02v-.04s0-.03-.01-.04v.07Z"/><path class="cls-1" d="M49.08,49.35c-.17.15-.28.22-.36.26,0,.02.1-.02.36-.26Z"/><path class="cls-1" d="M50.52,27.69l.02.68c0-.33.01-.45.02-.61-.02.02-.04.14-.04-.07Z"/><path class="cls-1" d="M50.97,21.8c0-.11,0-.2,0-.31l-.03.03c0,.42.03.72.04.28Z"/><path class="cls-1" d="M50.76,27.06c.06-.05.04-.48.03-.96v.08c-.09-.14-.06.37-.03.87Z"/><path class="cls-1" d="M50.79,26c0-.15,0-.29,0-.44-.03-.06,0,.18,0,.44Z"/><path class="cls-1" d="M50.61,31.96c.02-.23-.08-.14-.05-.27-.08-.25.09,1.5.05.27Z"/><polygon class="cls-1" points="50.96 26.68 50.89 26.85 50.95 27.12 50.96 26.68"/><path class="cls-1" d="M50.91,30.43l.02-.76s-.02-.09-.03-.2c0,.47-.02.98,0,.96Z"/><path class="cls-1" d="M50.9,29.47c0-.24,0-.48-.01-.61,0,.13,0,.41.01.61Z"/><polygon class="cls-1" points="50.99 27.72 50.97 27.94 50.96 28.48 50.99 27.72"/><path class="cls-1" d="M50.89,38.6l.02.83c.03.08.04-.14.03-.45-.02-.2-.03-.51-.05-.38Z"/><path class="cls-1" d="M51.1,36.09c-.02.22-.03.24-.06.37l.09.03-.04-.39Z"/><path class="cls-1" d="M51.12,38.51c.03.08.07,1.2.07.15-.03-.08-.05-.91-.07-.15Z"/><polygon class="cls-1" points="47.87 49.93 48.06 49.82 47.95 49.7 47.87 49.93"/><path class="cls-1" d="M37,51.18c.98.04.23-.09,1.12-.05.23-.04-.73-.04-.49-.07-.59.04-.9.02-.63.12Z"/><path class="cls-1" d="M37.63,51.06c.09,0,.19-.01.3-.02-.16.01-.24.02-.3.02Z"/><polygon class="cls-1" points="42.9 .76 43.54 .79 43.13 .74 42.9 .76"/><path class="cls-1" d="M44.12.65l.15.1.38-.09c-.14,0-.42.01-.53,0Z"/><path class="cls-1" d="M.24,46.04l.04.04c0-.11-.05-.26-.08-.58,0,.18.01.36.05.53Z"/><polygon class="cls-1" points=".13 37.36 .12 37.5 .21 37.23 .13 37.36"/><path class="cls-1" d="M.02,30.16c0,.29,0,.64.01.93-.02-.64.1-1.01-.01-.93Z"/></g></svg>