<?xml version="1.0" encoding="UTF-8"?><svg id="Calque_2" xmlns="http://www.w3.org/2000/svg" viewBox="0 0 32.74 11.69"><defs><style>.cls-1{fill:#f1e2c3;stroke-width:0px;}</style></defs><g id="fb"><path class="cls-1" d="M27.59,5.32c-.54.69-1.06,1.36-1.59,2.03-.21.26-.42.52-.61.79-.39.55-.22.93.44,1.02.09.01.25-.07.25.14,0,.23-.18.13-.28.13-.45,0-.9.01-1.35,0-.19,0-.28.06-.33.24-.2.6-.42,1.2-.61,1.8-.05.17-.13.22-.31.22-2.18,0-4.36,0-6.54,0-.08,0-.23.08-.24-.1-.01-.2.14-.13.24-.14.15-.01.31,0,.46-.05.33-.1.55-.28.57-.65,0-.18.03-.35.04-.53,0-2,0-4.01,0-6.01,0-.22-.02-.44-.05-.65-.05-.42-.21-.57-.64-.64-.14-.02-.29-.03-.44-.04-.09,0-.19.02-.19-.13,0-.15.11-.12.2-.12.03,0,.06,0,.09,0,2.14,0,4.28,0,6.42,0,.25,0,.31.06.32.31,0,.5.05,1,.07,1.5,0,.08.06.2-.1.2-.11,0-.16-.03-.18-.15-.05-.23-.12-.46-.21-.68-.14-.36-.43-.56-.81-.61-1.01-.12-2.02-.03-3.03-.06-.15,0-.17.08-.17.2,0,1.06,0,2.13,0,3.19,0,.17.06.21.22.21.7-.01,1.4,0,2.1-.03.67-.03.92-.26,1.05-.92.02-.08.04-.16.04-.25,0-.11.06-.14.16-.13.11,0,.09.09.1.16,0,.02,0,.04,0,.06,0,.92,0,1.84,0,2.75,0,.08.05.19-.11.2-.14,0-.15-.08-.16-.17,0-.02-.01-.04-.01-.06-.09-.93-.51-1.11-1.4-1.13-.58-.01-1.17,0-1.75,0-.15,0-.23.03-.23.2.01,1.09,0,2.19.03,3.28,0,.38.14.5.52.51.81.02,1.63.03,2.44-.01.47-.03.86-.23,1.17-.59.24-.27.43-.58.63-.89.14-.22.06-.26-.16-.25-.25.01-.5,0-.75,0-.08,0-.15,0-.15-.11,0-.09.01-.15.13-.17.89-.15,1.51-.71,2.05-1.38.75-.93,1.49-1.88,2.24-2.82.07-.08.13-.14.04-.27-.78-1.1-1.49-2.26-2.33-3.33-.45-.58-1-1-1.76-1.06-.09,0-.18-.01-.18-.15,0-.15.1-.13.19-.13,1.32,0,2.65,0,3.97,0,.1,0,.19-.01.19.13,0,.12-.07.13-.16.14-.09,0-.19.02-.28.04-.46.09-.62.39-.43.82.12.28.3.52.47.77.39.58.78,1.16,1.17,1.73.01.02.03.02.06.05.63-.81,1.27-1.6,1.88-2.42.38-.51.19-.88-.43-.98-.13-.02-.4.11-.37-.17.03-.23.26-.1.38-.1.89-.01,1.77-.01,2.66,0,.09,0,.24-.09.27.1.03.2-.13.18-.24.19-.47.05-.86.28-1.17.61-.95,1-1.72,2.14-2.59,3.21-.07.09-.03.15.02.22.92,1.33,1.77,2.73,2.75,4.02.33.43.74.73,1.3.79.1,0,.16.03.16.14,0,.15-.1.13-.19.13-1.22,0-2.44,0-3.66,0-.09,0-.19.03-.19-.13,0-.15.09-.14.18-.14.04,0,.08,0,.12,0,.58-.06.79-.48.48-.97-.49-.76-.99-1.51-1.49-2.27-.13-.19-.25-.38-.4-.6Z"/><path class="cls-1" d="M14.67,4.56c0,1.2-.01,2.4,0,3.6.01.81.25,1.03,1.06,1.05.03,0,.06,0,.09,0,.08,0,.17-.02.17.12,0,.14-.07.15-.17.15-.7,0-1.4,0-2.1,0-.5,0-1,0-1.5,0-.1,0-.25.07-.25-.13,0-.2.16-.11.26-.12.14-.03.29-.02.43-.06.32-.08.53-.27.59-.61.04-.22.05-.44.05-.65,0-2.34,0-4.67,0-7.01,0-.22-.03-.32-.28-.3-.46.03-.92.02-1.37.03-.81.03-1.19.67-1.29,1.22,0,.05-.01.11-.03.15-.03.09.01.25-.18.22-.18-.02-.1-.16-.1-.24.02-.58.06-1.17.08-1.75,0-.2.09-.23.27-.23,1.21,0,2.42,0,3.63,0,1.18,0,2.36,0,3.54,0,.22,0,.33.02.33.29,0,.56.06,1.12.08,1.69,0,.08.08.22-.1.24-.15.02-.18-.06-.2-.2-.17-1-.67-1.42-1.68-1.43-.35,0-.71.01-1.06,0-.22-.01-.28.06-.28.28.01,1.23,0,2.46,0,3.69,0,0,0,0,0,0Z"/><path class="cls-1" d="M1.35,4.78c0-1.02,0-2.04,0-3.07,0-.2,0-.4-.04-.59-.09-.56-.33-.76-.9-.79C.28.32.02.46.02.2c0-.26.26-.12.39-.13,1.16-.01,2.32-.01,3.47,0,.12,0,.36-.13.37.13,0,.23-.22.1-.35.13-.17.04-.35.03-.52.07-.42.1-.64.36-.66.79-.09,1.89-.02,3.77-.04,5.66,0,.47-.03.94.04,1.41.05.37.18.54.55.56.93.04,1.86.09,2.78-.05.62-.1,1.04-.5,1.35-1.02.14-.24.26-.5.38-.75.04-.1.08-.17.2-.12.12.05.06.14.04.21-.23.73-.47,1.46-.69,2.2-.04.13-.11.18-.24.17-2.3,0-4.59,0-6.89,0-.09,0-.2.02-.2-.13,0-.14.1-.13.19-.13.15,0,.29-.02.44-.04.38-.06.59-.27.67-.64.08-.38.05-.77.05-1.15,0-.87,0-1.73,0-2.6Z"/><path class="cls-1" d="M10.31,7.54c-.42,0-.83,0-1.25,0-.07,0-.18.04-.18-.1,0-.11.09-.09.16-.1.61-.14.7-.3.48-.9-.15-.4-.32-.79-.48-1.18-.04-.1-.1-.16-.23-.16-.83,0-1.67,0-2.5,0-.12,0-.19.03-.23.15-.17.43-.37.86-.53,1.29-.18.48-.06.67.44.77.07.01.14.03.21.04.08,0,.1.05.1.12,0,.07-.05.08-.11.08-.69,0-1.38,0-2.07,0-.06,0-.13,0-.13-.09,0-.06.02-.11.08-.11.75-.11.9-.76,1.14-1.31.83-1.89,1.63-3.8,2.44-5.69.04-.1.04-.24.19-.25.18-.01.18.15.22.26.83,1.96,1.65,3.92,2.47,5.88.12.3.26.59.48.83.16.17.36.23.58.28.08.02.18,0,.16.14-.02.11-.11.08-.17.08-.43,0-.86,0-1.28,0ZM8.81,4.7c-.42-.99-.82-1.95-1.24-2.95-.41.95-.79,1.86-1.19,2.76-.07.16-.02.2.14.2.75,0,1.5,0,2.29,0Z"/></g></svg>