<?xml version="1.0" encoding="UTF-8"?><svg id="Calque_2" xmlns="http://www.w3.org/2000/svg" viewBox="0 0 269.22 227.79"><g id="Calque_57"><g><path d="M264.82,177.63c6.28-6.59,5.73-17.14-.96-23.32-2.1-1.94-4.26-3.64-6.41-5.07-37.99-25.32-17.94-49.42-16.08-52.84,6.2-11.06,9.75-23.85,9.75-37.44,0-.1,0-.2,0-.3-.07-18-12.14-33.75-29.15-39.65-10.1-3.5-20.65-5.39-30.99-5.06-32.64,1.07-40.83,23.62-73.08,44.33-7.04,4.52-14,8.2-20.84,11.26v110.94c0,12.8-8.45,24.55-20.94,27.34-1.46,.33-2.93,.51-4.38,.51-2.21,0-4.37-.17-6.46-.5-13.47-2.12-23.09-14.26-23.09-27.89v-29.9c0-10.14-6.79-19.47-16.74-21.46C11.9,125.86,0,136.16,0,149.24h0c0,7.14,2.5,14.1,7.21,19.46,34.26,38.98,81.3,53.42,107.38,58.63,12.52,2.5,24.61-5.63,27.27-18.12,1.07-5,1.63-10.16,1.63-15.43V57.91c0-14.8,11.89-26.85,26.68-27.05h.37c27.81-.22,37.81,17.52,40.48,25.53,4.22,12.66,4.22,25.32-11.61,41.87-13.72,17.22-17.94,21.44-17.94,29.88,0,29.54,46.43,21.1,46.43,59.09,0,26.12-27.77,26.99-40.35,36.71,.12-.03,.24-.06,.35-.09,0,0,47.59-15.45,76.91-46.21Z"/><path d="M100.81,50.33c.47-.27,.89-.62,1.41-.79,20.29-6.79,25.04-16.29,34.42-25.29-.07-1.03-.17-2.06-.36-3.11-1.74-9.66-9.13-17.71-18.62-20.22-18.83-5-36.07,10.94-32.61,30.17,1.56,8.66,7.68,15.98,15.75,19.23Z"/></g></g></svg>