<?xml version="1.0" encoding="UTF-8"?><svg id="Calque_2" xmlns="http://www.w3.org/2000/svg" viewBox="0 0 38.82 49.1"><defs><style>.cls-1{fill:#260801;stroke-width:0px;}</style></defs><g id="perso"><path class="cls-1" d="M28.48,21.56c-.48-3.85-4.25-6.35-7.98-6.15-4.23.22-7.81,3.58-8.95,7.54s.56,8.88,3.53,11.84c3.16,3.14,8.39,3.62,11.26-.21,1.28-1.7,1.71-3.81,1.75-5.9.05-2.31-.63-4.83.39-7.01l-4.4.75c.95,2.42,0,5.15.1,7.66.08,2.03.75,4.31,2.45,5.58,2.07,1.55,4.81,1.35,7.02.19,2.42-1.27,3.91-3.59,4.57-6.19s.64-5.33.56-7.93-.45-5.33-1.21-7.9c-1.38-4.67-4.16-8.85-8.31-11.49C20.9-2.97,9.9,1.38,4.65,9.04,1.63,13.45.28,18.67.05,23.96c-.22,5,.23,10.39,2.1,15.08,2.14,5.37,6.87,8.42,12.39,9.53,6.21,1.24,12.52-.13,18.76.47,1.23.12,2.59-.43,3.15-1.6.48-.98,0-2.24-1.19-2.36-5.03-.48-10.04.25-15.08,0-3.83-.2-7.92-1.15-10.77-3.89-3.01-2.9-3.87-7.28-4.34-11.26-.52-4.41-.47-8.9.69-13.22,1.84-6.86,8.01-13.82,15.79-12.59,8.6,1.36,12.16,10.85,12.46,18.47.1,2.47.12,5.15-.55,7.55-.34,1.21-1.44,3.33-3.01,2.43-1.4-.8-1.57-2.98-1.54-4.4.07-2.77.68-5.3-.37-7.99-.74-1.88-3.8-.54-4.4.75-.95,2.02-1.02,4.11-.9,6.29.09,1.63.29,3.32-.27,4.9-.37,1.05-.76,1.47-1.88,1.08-1.75-.61-3.04-2.3-3.89-3.86-1.51-2.8-2.06-7.08.83-9.25,2.2-1.65,5.38.2,5.7,2.77s5.05,1.08,4.75-1.29h0Z"/></g></svg>