<?xml version="1.0" encoding="UTF-8"?><svg id="Calque_2" xmlns="http://www.w3.org/2000/svg" viewBox="0 0 44.44 45.23"><defs><style>.cls-1{fill:#f1e2c3;stroke-width:0px;}</style></defs><g id="fb"><path class="cls-1" d="M17.12,6.67c.54-.91,1.13-1.77,1.8-2.59.64-.8,1.37-1.52,2.11-2.23.52-.49,1-.99,1.08-1.85.27.47.49.85.71,1.22.22.58.55,1.08,1.03,1.47l.03.04s.02.04.04.05c.07.08.15.15.22.23,0,0,.05.01.05.01.04.04.08.08.12.11v.02c.05.04.09.08.13.11,0,0,.01.02.01.02.04.04.08.08.12.11v.02c.06.07.13.14.19.21.66.84,1.32,1.67,1.98,2.51.04.22.19.38.32.56l.03.05c.79,1.31,1.38,2.72,1.94,4.13.17.53.34,1.07.51,1.6.43,1.87.61,3.76.53,5.68-.24,2.12-.8,4.16-1.69,6.11-.14.26-.27.52-.41.78-.22.36-.44.71-.66,1.07-.4.52-.8,1.05-1.21,1.57-.26.18-.47.42-.64.68-.49.45-.97.9-1.46,1.35-.53.44-.86.18-1.11-.32-.41-.83-.44-1.74-.57-2.68-.06.54-.08,1.04-.17,1.53-.13.69-.14,1.42-.56,2.03-.48-.39-.95-.78-1.43-1.17-.17-.25-.39-.46-.64-.64-.4-.45-.81-.9-1.21-1.35,0-.05-.01-.08-.05-.11-.07-.09-.14-.17-.22-.26l-.2-.27c-.94-1.32-1.73-2.72-2.34-4.22-.08-.27-.15-.55-.25-.81-.46-1.28-.59-2.63-.78-3.97-.06-1.06.13-2.11.14-3.16.29-1.87.78-3.68,1.44-5.44.18-.39.35-.79.53-1.18.04-.02.05-.04.03-.08l.11-.19c.2-.23.34-.49.42-.78Z"/><path class="cls-1" d="M23.97,44.63c-.54.3-1.09.56-1.72.6-.41-.04-.83-.05-1.21-.25-.69-.35-.92-.94-.64-1.68.2-.16.4-.33.62-.47.41-.26.24-.41-.08-.54q-.29-.48.53-1.15c-.8-.36-1.18-.98-1.02-1.84.17-.92.89-1.23,1.69-1.43.66-.13,1.24.24,1.87.28.19,0,.43.05.58-.04.53-.3.25.17.32.31v.03c-.06.01-.07.04-.07.08l-.21.2-.12.09h-.02c-.13.1-.49-.36-.43.23.12,1.16-.48,1.85-1.65,2.05-.13.02-.26.05-.39.08-.14.03-.26.11-.27.25,0,.18.13.27.3.29.46.06.92.11,1.38.15,1.08.1,1.43.49,1.37,1.57-.14.27-.27.54-.41.81-.14.12-.28.25-.41.37ZM21.98,42.7c-.14-.03-.25.04-.36.13-.76.57-.73,1.13.09,1.6.04.03.08.05.13.08.09.02.18.04.28.05.46.17.91.09,1.34-.12.39-.19.58-.52.54-.97-.04-.42-.32-.58-.68-.7-.35-.11-.69-.09-1.04-.08-.1,0-.19.01-.29.02ZM21.73,38.44c-.63.62-.57,1.51.15,2.1.65.28,1.05.14,1.24-.44.28-.84-.08-1.59-.85-1.77h-.29c-.11-.02-.18.02-.24.11Z"/><path class="cls-1" d="M18.82,38.46c.41.92.23,1.89.26,2.85.01.37.06.65.49.69.17.02.3.09.26.29-.04.19-.2.21-.36.21-.61.01-1.22.03-1.83.05-.06-.05-.13-.1-.19-.15,0-.21.04-.38.31-.4.23,0,.36-.16.35-.39-.03-.83.08-1.66-.13-2.48-.37-.72-.96-.6-1.56-.39-.26.13-.34.34-.34.63,0,.61-.02,1.22-.04,1.83-.02.43-.06.85.58.84.15,0,.23.18.22.35,0,0-.03.04-.03.04-.05.03-.11.06-.16.09,0,0-.04-.03-.04-.03,0,0-.04.03-.04.03-.56,0-1.12-.04-1.68-.01-.4.02-.51-.13-.42-.49.18-.02.37.02.5-.15.14-.03.14-.13.13-.24,0-.41,0-.81,0-1.22,0-.26-.01-.53.03-.78.09-.62-.12-.99-.76-1.06-.02-.05-.04-.1-.05-.15.05-.08.11-.17.16-.25.09,0,.18-.02.27-.03.23.07.41-.1.61-.13.43-.18.76-.16.84.39.65-.34,1.28-.81,2.08-.49h.02s.07.06.1.09c.02.04.05.06.09.05.11.12.21.23.32.35v.03s.02.02.02.02Z"/><path class="cls-1" d="M43.91,37.74c-.24.33-.55.59-.98.86.64.24,1.16.51,1.46,1.06.27,1.67-.6,2.69-2.5,2.83-.89.07-1.79,0-2.69,0-.22,0-.45-.02-.44-.33.15-.06.29-.12.44-.19.39.02.49-.24.49-.55,0-.99,0-1.98,0-2.97.05-.67.07-1.34-.01-2.01-.07-.38-.39-.35-.66-.4-.1-.02-.24.02-.24-.15,0-.15.08-.24.25-.24,1.25.02,2.5-.16,3.73.08.99.19,1.31.84,1.15,2ZM43.18,41.31c.34-.73.25-1.42-.25-1.86-.5-.44-1.66-.57-2.15-.23-.06.36-.06.72,0,1.08-.01.24-.04.48-.03.72,0,.75.24.98.97,1,.26,0,.52,0,.76-.14.35-.05.6-.21.7-.57ZM42.34,38.42c.82-.53.82-1.49,0-2.08-1.35-.58-1.59-.43-1.59,1,0,.15,0,.31,0,.46-.02.93.46,1.21,1.31.78.1-.05.19-.1.29-.15Z"/><path class="cls-1" d="M.06,42.39c0-.1,0-.2.01-.29.03,0,.05-.02.05-.05.11-.02.22-.04.33-.06.23-.09.35-.26.35-.5,0-.81,0-1.62,0-2.43,0-.2-.15-.28-.31-.37-.17-.1-.46-.06-.49-.36.04,0,.07-.03.07-.07.04,0,.07-.01.08-.05.1-.02.2-.03.29-.05.38.05.85-.34,1.13.08.18.27.26.16.42.08.24-.12.48-.24.72-.36.05.01.08,0,.11-.04h.05s.05-.01.05-.01c.51-.08.97.04,1.35.4.1.31.26.26.48.11.48-.35,1-.59,1.62-.55.35.11.64.31.86.6.45.87.23,1.81.26,2.72.02.42-.01.81.55.86.17.01.23.11.2.27-.03.14-.15.13-.25.14-.13,0-.26,0-.39.01h-.68c-.3,0-.61,0-.91,0-.06-.23,0-.39.25-.43.2-.03.34-.16.34-.34,0-.83.14-1.68-.09-2.49-.16-.55-.64-.71-1.16-.59-.46.1-.86.27-.78.91.08.63.03,1.27.04,1.91,0,.25,0,.49.3.59.18.05.46.04.37.33-.06.21-.3.1-.46.11-.13,0-.26.01-.39.02-.23,0-.46,0-.68,0-.26-.02-.52-.03-.77-.05,0,0,0,0,0,0,0-.08.02-.17.02-.25.03-.03.06-.07.09-.1.14-.03.28-.06.43-.1.1-.04.16-.12.17-.22.1-.85.18-1.71-.04-2.55-.15-.58-.61-.72-1.14-.61-.48.1-.88.28-.83.9.04.48.04.97,0,1.45-.05.62,0,1.14.75,1.24-.04.09-.09.18-.13.27-.7,0-1.4,0-2.1,0-.04-.03-.07-.05-.12-.05Z"/><path class="cls-1" d="M37.08,36.47c1.04,1.18,1.21,2.53.63,3.93-.6,1.47-1.91,2.02-3.39,2.09-1.06.05-2.14.12-3.2-.07.05-.12.1-.24.16-.36.16-.04.35.01.45-.17l.03.02.03-.02c.26-.11.25-.34.25-.55,0-.96,0-1.92,0-2.89.05-.54.08-1.08-.02-1.61.12-.54-.21-.7-.64-.78-.13-.03-.35.08-.34-.18.01-.18.15-.25.33-.24,1.67.12,3.38-.26,5.03.31,0,0,0,0,0,0,.09.05.17.11.26.16.05.04.1.07.15.11.04.03.08.07.12.1,0,0,.03.03.03.03.03.03.07.07.1.1l.03.03ZM33.11,40.3c-.1,1.24-.03,1.41.71,1.62.01.26.21.24.38.24,1.26.04,2.32-.98,2.6-2.29.19-1.04.15-2.03-.64-2.84-.17-.3-.42-.5-.75-.6-.54-.35-1.14-.38-1.76-.38-.42,0-.59.19-.57.6.02.59.02,1.18.03,1.77-.05.63-.06,1.25,0,1.88Z"/><path class="cls-1" d="M13.24,38.68c.1.23.21.46.31.69.4,2.17-1.09,3.6-3.18,3.06-.05-.02-.1-.03-.15-.05-.81-.46-1.16-1.18-1.22-2.08-.02-.58.15-1.11.45-1.59.35-.34.79-.56,1.22-.79.08-.01.15-.03.23-.04.92-.14,1.72.06,2.34.8ZM10.48,41.48c.61.75,1.3.79,1.88.13.44-.92.36-1.82-.16-2.68-.29-.48-.78-.65-1.31-.57-.52.09-.73.49-.83.98-.14.67-.07,1.3.26,1.9l.07.14s.06.07.09.1Z"/><path class="cls-1" d="M25.4,39.78c.01-.09.03-.18.04-.28.03-.08.06-.17.1-.25.02-.05.03-.09.05-.14.02-.04.05-.08.07-.11.06-.09.13-.19.19-.28.29-.22.59-.43.88-.65,0,0,.03-.02.03-.02.1-.04.2-.08.3-.12.08-.01.15-.03.23-.04.98-.11,1.87.04,2.41.97.49.85.42,1.73-.04,2.58-.43.81-1.66,1.3-2.63,1.07-.96-.23-1.55-.99-1.63-2.07-.01-.22,0-.44,0-.66ZM27.41,41.89c.05.11.14.11.25.1.19,0,.38,0,.57,0,.88-.21.78-.9.77-1.56,0-.14,0-.28-.01-.42,0-.27-.05-.53-.22-.75v-.04s-.03-.02-.03-.02c0-.09-.02-.17-.11-.21-.03-.15-.13-.24-.26-.3-.73-.55-1.44-.48-1.76.22-.22.48-.35.99-.13,1.53.02.09.03.18.05.27.02.2.08.38.23.52h0c0,.11.02.21.14.26.03.15.13.24.28.28.04.11.14.14.25.14h0Z"/></g></svg>