<?xml version="1.0" encoding="UTF-8"?><svg id="Calque_2" xmlns="http://www.w3.org/2000/svg" viewBox="0 0 57.07 49.63"><defs><style>.cls-1{fill:#f1e2c3;}.cls-1,.cls-2{stroke-width:0px;}.cls-2{fill:none;}</style></defs><g id="b2"><rect class="cls-2" width="57.07" height="49.63"/><path class="cls-1" d="M14.96,35.53c0-.27,0-.53,0-.8q0-.36.35-.36c1.68,0,3.35,0,5.03,0,.25,0,.49-.04.72-.13.33-.13.45-.31.45-.66q0-.55-.56-.55c-1.04,0-2.08,0-3.11,0-.66,0-1.3-.1-1.9-.39-.67-.32-1.07-.82-1.01-1.61.03-.39.02-.79.02-1.18,0-.73,0-1.45,0-2.18,0-.19.06-.25.24-.25.41,0,.82.01,1.22,0,.21,0,.27.08.27.27,0,1.13,0,2.25,0,3.38,0,.58.24.86.82.87,1.27.02,2.55,0,3.83.02.2,0,.2-.12.2-.27,0-.85,0-1.69,0-2.54,0-.49,0-.98,0-1.47,0-.21.06-.29.28-.29.4.01.8.01,1.2,0,.21,0,.28.07.28.28,0,1.12,0,2.24,0,3.36,0,.82-.02,1.63,0,2.45.02.82-.37,1.34-1.09,1.67-.39.18-.8.25-1.21.35h-6.01Z"/><path class="cls-1" d="M7.37,31.74c.04-.09.09-.18.13-.28.81-1.81,1.63-3.61,2.41-5.43.41-.97,1.14-1.36,2.21-1.17.2.03.39.09.58.15.5.17.73.49.74,1.01,0,.6,0,1.2,0,1.8,0,1.65,0,3.29,0,4.94,0,.32,0,.32-.32.32-.38,0-.76-.01-1.13,0-.23,0-.29-.07-.29-.29,0-2.08,0-4.15,0-6.23,0-.1,0-.19,0-.31-.11.06-.12.15-.16.22-.84,1.87-1.68,3.75-2.52,5.62-.09.2-.2.38-.31.56-.43.71-2.35.75-2.78-.14-.07-.14-.15-.27-.21-.42-.83-1.85-1.66-3.69-2.48-5.54-.04-.09-.06-.2-.16-.28-.06.1-.04.2-.04.29,0,2.02,0,4.05,0,6.07,0,.08,0,.16,0,.24,0,.13-.06.19-.19.18-.45,0-.9,0-1.36,0-.13,0-.19-.05-.19-.18,0-.07,0-.15,0-.22,0-2.09,0-4.18,0-6.27,0-1.04.23-1.32,1.25-1.53.28-.06.55-.09.84-.05.67.08,1.12.43,1.38,1.04.68,1.58,1.36,3.16,2.04,4.74.16.38.33.76.49,1.14.02,0,.04,0,.06,0Z"/><path class="cls-1" d="M29.56,24.98c.85,0,1.71,0,2.56,0,.34,0,.34,0,.34.35,0,.18,0,.36,0,.53.01.21-.07.28-.28.28-1.51,0-3.03,0-4.54,0-.27,0-.53.01-.79.08-.31.08-.45.25-.46.57,0,.3-.01.59,0,.89.02.38.22.62.58.72.22.06.44.06.66.06.82.01,1.65-.03,2.47.03.57.05,1.11.2,1.6.5.46.28.74.67.7,1.25-.02.32,0,.65,0,.98.01.53-.21.93-.63,1.23-.56.4-1.2.61-1.87.62-1.68.02-3.37,0-5.05.01-.19,0-.25-.08-.24-.25,0-.22.01-.45,0-.67-.01-.2.08-.25.26-.25,1.13,0,2.25,0,3.38,0,.53,0,1.07.04,1.6-.04.2-.03.39-.1.54-.24.16-.13.24-.29.24-.5,0-.27,0-.53,0-.8,0-.35-.16-.57-.49-.68-.28-.1-.58-.12-.88-.13-.68,0-1.36,0-2.05-.01-.61-.02-1.19-.16-1.73-.45-.57-.31-.91-.75-.85-1.43.02-.31,0-.62.01-.93.02-.57.28-.99.76-1.27.52-.31,1.08-.44,1.68-.45.82,0,1.65,0,2.47,0h0Z"/><path class="cls-1" d="M43.34,28.21c0-.98,0-1.96,0-2.94,0-.22.06-.3.29-.29.38.02.77,0,1.16,0,.3,0,.3,0,.3.3,0,1.83,0,3.66,0,5.49,0,.1,0,.21,0,.31.02.4.2.63.58.75.26.08.54.1.81.1,1.43,0,2.86,0,4.29,0,.32,0,.32,0,.32.32,0,.19-.01.37,0,.56.02.22-.06.3-.29.3-.98-.01-1.96,0-2.94,0-.81,0-1.63.05-2.44-.09-.41-.07-.81-.18-1.18-.38-.6-.33-.91-.84-.91-1.52,0-.96,0-1.93,0-2.89h0Z"/><path class="cls-1" d="M43.25,23.62c-.14-.02-.2-.06-.25-.12-.49-.51-1.08-.93-1.59-1.43-.48-.48-.85-1.02-1.13-1.64-.06-.13-.11-.28-.25-.42-.09.26-.11.51-.16.75-.03.2-.05.41-.1.61-.15.69-.82.91-1.36.45-.43-.37-.68-.85-.86-1.38-.39-1.16-.42-2.33-.11-3.51.11-.41.15-.83.34-1.22.05-.1,0-.19-.07-.26-.58-.6-.87-1.35-1.15-2.11-.15-.42-.31-.83-.42-1.27-.07-.29-.24-.54-.42-.78-.27-.37-.56-.73-.83-1.1-.28-.38-.5-.79-.42-1.3.08-.53.48-.89,1.01-.92.32-.02.62.04.92.14.64.22,1.25.52,1.76.97.15.13.3.19.5.21.4.03.79.05,1.19.13,1.15.23,2.06.9,2.97,1.56,1.47,1.06,2.63,2.41,3.56,3.96.15.24.26.5.36.76.49,1.3,1.13,2.53,1.73,3.78.14.29.33.48.65.59,1.45.52,2.65,1.44,3.79,2.45.21.19.37.44.55.67.1.13.02.18-.1.22-.46.16-.93.23-1.41.28-.4.04-.78.19-1.17.27-.13.02-.14.09-.08.19.12.19.28.32.46.44.51.35,1.06.63,1.52,1.04.47.41.84.92,1.28,1.36.09.09.13.23.17.36-.08.04-.11-.03-.15-.06-.65-.59-1.39-1.03-2.18-1.39-.72-.33-1.37-.77-1.87-1.39-.15-.19-.26-.41-.37-.63-.09-.18-.03-.28.13-.35.73-.29,1.48-.48,2.27-.48.17,0,.34,0,.51,0,.14,0,.16-.08.08-.17-.08-.09-.18-.18-.28-.25-.53-.37-1.07-.72-1.6-1.09-.51-.35-1.09-.55-1.67-.7-.66-.17-1.09-.54-1.36-1.15-.54-1.23-1.16-2.42-1.66-3.67-.41-1.02-1.05-1.9-1.77-2.73-.88-1.01-1.91-1.84-3.06-2.52-.87-.51-1.8-.76-2.79-.77-.23,0-.41-.08-.58-.23-.56-.49-1.22-.78-1.91-1.02-.23-.08-.49-.15-.68.07-.2.23-.08.48.03.71.09.19.2.36.34.52.74.85,1.25,1.81,1.53,2.9.12.47.29.92.53,1.34.15.27.31.52.54.73.26.24.33.52.23.87-.13.47-.36.91-.44,1.4-.21,1.17-.13,2.32.36,3.42.09.2.2.4.38.54.22.15.29.12.33-.14.05-.37.1-.73.14-1.1.07-.59.37-1.07.75-1.51.09-.1.15-.08.19.03.05.13.08.27.13.4.52,1.29,1.2,2.5,2.01,3.63.28.39.59.74,1,1.08Z"/><path class="cls-1" d="M38.85,11.32c.26.03.44.23.57.5.11.23.02.43-.1.62-.08.13-.17.13-.23-.03-.12-.3-.28-.58-.52-.82-.05-.05-.12-.12-.1-.19.03-.09.14-.07.21-.08.04,0,.07,0,.16,0Z"/><path class="cls-1" d="M42.67,34.08c-.44-.4-.88-.8-1.32-1.19-.09-.08-.15-.15,0-.22.65-.31.88-.86.88-1.54,0-.69,0-1.38,0-2.07,0-.7,0-1.41,0-2.11,0-.69-.31-1.21-.93-1.53-.54-.29-1.13-.41-1.74-.42-1.13-.01-2.25-.01-3.38,0-.58,0-1.13.12-1.66.37-.64.31-1,.81-1.01,1.53-.01,1.42-.01,2.85,0,4.27,0,.77.39,1.3,1.09,1.61.53.24,1.08.35,1.66.35.98,0,1.96.02,2.93-.08.19-.02.34.03.48.16.34.32.69.63,1.03.94.1.1.21.14.36.14.5,0,1.01,0,1.51,0,.07,0,.17.03.2-.05.02-.08-.07-.12-.13-.17ZM40.34,31.65c-.12.12-.23.13-.36,0-.32-.3-.65-.59-.97-.88-.07-.06-.13-.13-.23-.13-.61,0-1.23,0-1.84,0,0,.02-.02.04-.03.05.44.4.88.8,1.31,1.2-.03.06-.07.07-.11.07-.58,0-1.16.04-1.73-.03-.65-.08-.96-.43-.96-1.08,0-1.23,0-2.46,0-3.69,0-.51.21-.78.7-.92.22-.06.44-.08.66-.08.82,0,1.65,0,2.47,0,.27,0,.53.02.79.12.38.15.57.41.57.82,0,1.3,0,2.61,0,3.91,0,.25-.08.46-.26.64Z"/><path class="cls-1" d="M53.22,30.6c-.71,0-1.28.56-1.29,1.28,0,.73.55,1.3,1.29,1.3.72,0,1.28-.55,1.29-1.28,0-.72-.57-1.31-1.29-1.31ZM53.23,32.91c-.57,0-1.01-.44-1.01-1.02,0-.57.44-1.03,1-1.03.57,0,1.01.44,1.01,1.02,0,.58-.43,1.03-1,1.03Z"/><path class="cls-1" d="M53.54,32.15c-.07-.1-.08-.17.05-.22.21-.08.25-.26.22-.46-.04-.21-.19-.29-.38-.3-.17-.01-.34,0-.51,0-.16,0-.21.07-.21.21,0,.17,0,.34,0,.51h0c0,.19,0,.37,0,.56,0,.08,0,.18.12.18.11,0,.12-.09.12-.17,0-.1,0-.21,0-.31,0-.06.01-.12.08-.14.07-.02.13,0,.18.06.05.07.09.14.13.21.07.11.13.22.2.32.05.07.14.08.2.04.09-.05,0-.12-.02-.17-.06-.1-.13-.2-.19-.3ZM53.2,31.79c-.16.02-.25-.03-.25-.21,0-.17.06-.24.23-.23.16.01.36-.01.37.21,0,.23-.2.21-.35.23Z"/></g></svg>