<?xml version="1.0" encoding="UTF-8"?><svg id="Calque_2" xmlns="http://www.w3.org/2000/svg" viewBox="0 0 27.66 29.71"><defs><style>.cls-1{fill:#f1e2c3;stroke-width:0px;}</style></defs><g id="fb"><path class="cls-1" d="M11.76,28.73c-.25-.18-.51-.34-.8-.47,0,0,0,0,0,0-.09-.12-.25-.16-.36-.25-.17-.14-.17-.21.04-.29.39-.15.77-.3,1.12-.52.1,0,.18.04.26.09.46.27.91.54,1.37.8.47.33.49.33.84.08.54-.29,1.08-.59,1.6-.92l.05-.04h0c.56-.28,1.1-.61,1.64-.93.25-.14.5-.26.73-.43.03,0,.07,0,.08-.04.28-.15.56-.3.83-.48.2-.1.4-.2.58-.34.09-.03.17-.08.24-.14.07-.03.13-.07.2-.1.35-.16.63-.44.99-.59.09-.04.14-.11.14-.21,0-.2.02-.41,0-.61.03-.28.03-.55,0-.83.03-.27.03-.55,0-.82.03-.28.03-.55,0-.83.03-.27.03-.55,0-.82.03-.27.03-.55,0-.82.03-.27.03-.55,0-.82.03-.28.03-.55,0-.83.03-.27.03-.55,0-.82.03-.28.03-.55,0-.83.07-.31-.04-.51-.34-.61,0-.02-.02-.03-.04-.03-.04-.02-.08-.04-.12-.06-.08-.05-.15-.12-.25-.14-.18-.12-.37-.23-.57-.32-.26-.18-.54-.33-.82-.47-.27-.18-.55-.33-.83-.48-.53-.32-1.05-.63-1.59-.92-.07-.05-.15-.1-.22-.14-.49-.28-.97-.55-1.46-.83-.04-.05-.1-.08-.17-.1-.2-.15-.43-.27-.65-.39-.23-.21-.45-.2-.68,0-.05.04-.1.07-.15.11-.17.08-.35.16-.5.29-.12.04-.22.11-.32.17-.56.31-1.11.62-1.65.96-.56.3-1.1.62-1.65.95-.23.11-.45.24-.66.39-.06.02-.11.04-.16.08-.54.3-1.09.6-1.61.93h-.02s0,.02,0,.02c0,0,0,0,0,0-.39.19-.39.2-.34.61-.02.27-.02.54,0,.82-.03.28-.03.55,0,.83-.02.27-.02.54,0,.82-.03.28-.03.55,0,.83-.02.27-.02.54,0,.82-.03.28-.03.55,0,.83-.02.27-.02.54,0,.82-.03.28-.03.55,0,.83-.02.27-.02.54,0,.82-.04.21-.01.42-.02.63,0,.07.02.13.09.17.36.21.71.44,1.08.61.3.21.62.39.95.56.22.11.44.21.7.17.38.04.64-.14.82-.46.1-.07.12-.18.12-.29,0-.46,0-.93,0-1.39.02-.27.02-.55,0-.82.02-.27.02-.55,0-.82.02-.27.02-.55,0-.82,0-.27.01-.55.01-.82,0-1.1,0-2.2-.01-3.29,0-.14,0-.27,0-.41,0-.01,0-.03,0-.04.07-.15.19-.22.36-.2.11,0,.23,0,.34,0,.14,0,.29,0,.43,0,.17,0,.26.09.27.27,0,.13,0,.26,0,.39,0,.27,0,.55,0,.82,0,.82,0,1.64,0,2.47,0,.27,0,.55,0,.82,0,.08,0,.16,0,.25,0,1.27,0,2.54,0,3.81-.06.3-.12.59-.23.88-.28.53-.72.85-1.29,1-.27.05-.54.05-.82.06-.28-.01-.55-.08-.82-.15-.09-.04-.17-.09-.27-.1-.18-.09-.37-.19-.55-.28-.27-.17-.53-.34-.82-.47-.04-.02-.08-.05-.11-.07-.22-.16-.47-.29-.71-.41-.48-.28-.78-.68-.86-1.23,0-.27,0-.55,0-.82,0-.27,0-.55,0-.82,0-.27,0-.55,0-.82,0-.27,0-.55,0-.82,0-.27,0-.55,0-.82v-.82c0-.27,0-.55,0-.82,0-.27,0-.55,0-.82,0-.27,0-.55,0-.82,0-.27,0-.55,0-.82.02-.27-.01-.54.06-.81.15-.34.36-.62.66-.83.07-.04.14-.08.21-.11.26-.15.51-.3.77-.45.15-.08.3-.14.43-.26.14-.05.27-.13.39-.22.57-.31,1.14-.63,1.69-.98.27-.13.53-.29.78-.45.28-.15.56-.29.82-.48.21-.09.41-.2.59-.34.09-.02.16-.07.23-.13.56-.28,1.07-.64,1.64-.91.27-.06.55-.04.82-.04.25.07.47.18.68.31.31.19.64.36.96.54.14.1.29.19.45.25.11.1.23.16.36.22.27.17.54.33.83.48.04.05.1.07.16.09.2.16.43.27.66.38.55.32,1.1.64,1.65.96.55.32,1.09.63,1.64.95.11.06.21.12.32.18.19.15.36.31.5.5.05.11.1.21.15.32.07.27.09.54.1.82,0,.27,0,.55,0,.82-.02.27-.02.55,0,.82,0,.27,0,.55,0,.82-.02.27-.02.55,0,.82,0,.27,0,.55,0,.82-.02.27-.02.55,0,.82,0,.27,0,.55,0,.82-.02.27-.02.55,0,.82,0,.27,0,.55,0,.82-.01.27-.02.54-.03.82-.08.52-.34.92-.81,1.19-.36.2-.7.42-1.05.62-.56.3-1.11.61-1.64.95-.07.04-.15.07-.22.11-.48.28-.97.53-1.42.84-.25.11-.48.24-.7.4h0s-.03.03-.05.04c-.03,0-.06,0-.07.03-.33.19-.66.37-.99.56-.22.13-.46.22-.65.39-.28.12-.53.3-.82.37-.28.05-.55.03-.82-.04-.29-.12-.54-.3-.82-.44-.07-.07-.16-.1-.25-.14-.18-.13-.37-.25-.57-.34Z"/><path class="cls-1" d="M12.55,22.53c-.12-.26-.21-.54-.26-.82,0-.12,0-.23,0-.35,0-.27.02-.3.3-.32.31,0,.63,0,.94,0,.09.05.11.12.13.21.04.16.04.32.13.46.07.24.21.44.43.56.21.16.45.24.71.27.62.15,1.26.13,1.89.07.24-.02.47-.04.69-.16.39-.11.65-.33.72-.75.08-.39-.02-.61-.37-.79-.37-.18-.76-.26-1.16-.3-.27-.07-.55-.1-.83-.1-.27-.05-.54-.08-.82-.09-.03-.04-.07-.03-.11-.03-.24-.04-.47-.09-.71-.13-.38-.13-.77-.26-1.1-.52-.3-.25-.48-.57-.57-.94-.03-.12-.04-.25-.07-.38,0-.28.03-.55.09-.82,0,0,0-.02,0-.02.13-.29.28-.56.48-.81.11-.09.22-.19.34-.28.1-.05.2-.11.3-.16.42-.22.88-.31,1.34-.39.27-.01.55-.02.82-.03.27.01.55.02.82.03.57.09,1.12.21,1.63.49.14.11.29.23.43.34l.4.51c.02.11.07.21.13.31.06.27.15.54.17.82,0,.2-.1.29-.3.29-.27-.02-.55-.02-.82,0-.22.02-.27-.13-.33-.29-.07-.33-.2-.63-.5-.82-.25-.21-.55-.28-.86-.31-.26-.05-.52-.07-.78-.04-.28-.03-.55,0-.82.05-.28.04-.55.11-.77.31-.02.02-.03.04-.05.05-.35.3-.33.88.05,1.07.24.12.49.2.76.21.27.08.54.12.82.14.27.07.55.09.82.12.55.11,1.1.18,1.64.35.29.11.57.26.83.44.03.03.06.06.09.08.22.24.35.52.45.82.02.27.06.55.04.82-.04.28-.12.55-.22.82-.07.11-.14.22-.22.32-.26.35-.63.55-1,.75-.26.08-.52.16-.78.25-.27.03-.55.07-.82.1-.04,0-.08,0-.12,0-.05-.01-.1-.02-.14.02-.19,0-.37,0-.56.01-.27-.07-.55-.05-.82-.07-.04-.03-.08-.02-.12-.01-.02-.02-.05-.03-.08-.02-.19-.04-.38-.08-.56-.12-.3-.09-.58-.22-.86-.35-.02-.04-.05-.06-.09-.06-.29-.2-.54-.45-.74-.75-.01-.02-.03-.05-.04-.07Z"/><path class="cls-1" d="M19.15.24c.07.08.15.12.25.14.15.13.34.2.51.29.07.05.14.1.22.14.14.08.19.19.19.36,0,1.87,0,3.74,0,5.62,0,.44,0,.87.01,1.31.02.19-.07.34-.22.45-.07-.03-.09.04-.14.06-.29.12-.54.31-.81.46-.18.1-.36.18-.52.31-.12.03-.21.09-.3.17-.29.1-.52.33-.82.4-.09-.05-.19-.1-.28-.14-.18-.07-.31-.21-.5-.27-.1-.1-.24-.15-.36-.22-.44-.26-.88-.53-1.34-.75,0,0-.02-.01-.03-.01-.21-.13-.27-.32-.24-.56.01-.09,0-.18,0-.26.02-.27.02-.54,0-.81.02-.28.02-.56,0-.83.02-.27.02-.54,0-.81.04-.16.19-.21.3-.3.55-.31,1.09-.63,1.64-.94.23-.14.47-.27.7-.41.03,0,.07,0,.1-.01.06,0,.13.01.19.02.17.13.37.22.56.32.14.07.17,0,.17-.12,0-.34,0-.68,0-1.02,0-.85,0-1.71,0-2.56,0-.26.14-.33.37-.2.11.06.23.12.34.18ZM17.5,5.78c-.17.09-.34.17-.49.28-.12.05-.25.1-.33.21-.02.02-.06.05-.06.07,0,.29,0,.57,0,.86,0,.07.05.12.12.15.24.13.47.27.7.41.06.03.13.1.18-.01.24-.13.47-.27.71-.4.08-.04.11-.1.11-.2,0-.25,0-.5,0-.76,0-.07.02-.16-.09-.17-.1-.07-.18-.15-.31-.17-.17-.11-.32-.25-.53-.28Z"/><path class="cls-1" d="M.99,4.5c.06,0,.11-.04.16-.07.25-.14.5-.29.74-.43.2-.12.42-.21.61-.36.07-.03.14-.06.21-.09.12.02.23.03.34.1.43.26.87.49,1.3.74.05.03.09.05.14.08.22.15.44.29.69.4.1.12.3.12.35.3h0s.01.02.01.02c0,.03.01.06.02.1-.02.28-.02.55,0,.83,0,.27,0,.54,0,.81-.02.28-.02.56,0,.84,0,.27,0,.54,0,.8,0,.14,0,.27-.01.41,0,.31-.11.37-.38.22-.25-.14-.5-.29-.74-.43-.14-.07-.28-.15-.41-.22-.33-.13-.36-.39-.35-.7.02-.47,0-.94,0-1.41,0-.11-.01-.22-.12-.28-.02-.05-.06-.07-.11-.07-.16-.1-.32-.2-.48-.29-.08-.04-.16-.13-.25-.04-.21.07-.39.19-.57.33-.16.02-.24.13-.25.29-.02,0-.03.01-.02.03,0,.18,0,.35,0,.53-.02.28-.02.56,0,.84,0,.19-.01.37-.02.56-.1.07-.2.14-.29.21-.16.09-.32.18-.48.26-.28.16-.56.32-.84.48-.17,0-.24-.08-.23-.25,0-.15,0-.3,0-.45.02-.28.02-.56,0-.83,0-.27,0-.54,0-.81.02-.28.02-.56,0-.83,0-.27,0-.54,0-.81,0-.18.14-.27.26-.37.26-.11.5-.25.72-.42Z"/><path class="cls-1" d="M26.48,4.43s.05.03.08.04c.26.18.53.34.81.47.11.1.29.15.29.34-.02.27-.02.54,0,.81-.04.16-.2.2-.3.3-.08.04-.17.08-.25.13-.33.19-.65.39-.98.57-.14.08-.28.12-.36-.09,0-.03-.01-.06-.02-.09,0-.22,0-.44,0-.65v-.02s-.01,0-.01,0c-.05-.09-.14-.11-.22-.14-.19-.13-.39-.26-.61-.35-.03,0-.06,0-.09.01h-.01s0,0,0,0c-.17.09-.34.18-.5.29-.12.04-.24.08-.3.21-.02.22-.03.43,0,.65.01.13-.11.28.08.37.53.35,1.09.65,1.64.96.24.14.47.29.72.42.17.09.21.2.1.36-.21.07-.38.2-.56.31-.09.05-.17.09-.26.14-.27.14-.53.28-.8.42-.31-.06-.55-.28-.83-.41-.07-.03-.13-.07-.2-.1-.19-.14-.4-.25-.62-.36-.27-.16-.53-.34-.82-.46h0s-.01,0-.01,0c-.1-.12-.3-.15-.31-.35,0,0,.01,0,.01,0,0,0,0-.02,0-.02.02-.14.02-.28,0-.42.03-.28.03-.56,0-.84.02-.27.02-.53,0-.8.03-.28.03-.56,0-.84.03-.19.2-.25.33-.35.26-.12.51-.26.74-.43.03-.01.06-.03.08-.04.28-.16.57-.29.83-.49.18-.07.35-.18.51-.29.1-.02.19-.1.3-.09.07.02.14.04.21.05.19.14.4.25.61.36.24.16.49.3.74.43Z"/><path class="cls-1" d="M24.91,6.1s.02.01.03,0c.06.04.11.08.17.1.25.1.39.26.33.55-.01.05,0,.11,0,.16.01.12-.07.18-.16.23-.11.06-.23.13-.34.19-.22-.01-.38-.17-.56-.26-.07-.04-.03-.11-.06-.16-.09-.41.12-.65.46-.81.04,0,.07,0,.11-.01Z"/><path class="cls-1" d="M12.93,6.1c0,.27,0,.55,0,.82,0,.27,0,.55,0,.82,0,.05-.01.11,0,.16.04.31-.03.54-.35.66-.57.32-1.14.62-1.69.98-.07.01-.12.06-.18.09-.2.09-.36.27-.6.26-.3-.1-.54-.31-.82-.44-.05-.04-.1-.07-.16-.07-.2-.16-.42-.28-.66-.39-.18-.11-.36-.23-.55-.34-.6-.35-.54-.21-.57-.91,0-.27,0-.55,0-.82,0-.27,0-.55,0-.82v-.82c.06-.15.15-.26.29-.34.3-.12.56-.31.83-.47h0c.27-.15.56-.29.81-.47.23-.12.47-.22.67-.4.06,0,.11-.02.16-.05.12-.01.2.07.31.1.17.1.32.22.51.29.27.16.55.33.82.49.02.04.05.04.08.04.24.16.48.3.74.43.13.12.37.14.35.39,0,.27,0,.55,0,.82Z"/><path class="cls-1" d="M26.55,11.03h0s0,0,0,0c.31.11.59.27.8.53.06.12.13.23.19.35.08.25.07.5.07.76-.15.59-.51.97-1.08,1.14-.28.04-.55.03-.82-.06-.49-.2-.78-.59-.91-1.09,0-.28-.02-.56.1-.82.01-.03.02-.05.03-.08.18-.28.4-.52.71-.65.29-.13.58-.12.89-.09ZM27.33,12.67c.1-.3.01-.56-.13-.82-.13-.28-.37-.43-.65-.52-.4-.12-.77-.05-1.08.24-.33.3-.44.67-.35,1.11.08.34.26.61.6.75.26.16.54.2.83.08.42-.13.68-.41.78-.83Z"/><path class="cls-1" d="M26.55,11.64c.11.04.17.13.24.22.05.19.05.37-.11.52-.04.03-.04.06,0,.1.04.06.06.13.09.2,0,.08.02.16.03.24q.03.28-.24.31c-.15-.12-.09-.29-.11-.44-.02-.2-.14-.18-.27-.19-.17,0-.11.12-.12.2,0,.02,0,.04,0,.06q0,.33-.32.36s-.03-.06-.05-.09c0-.01,0-.03,0-.04,0-.14,0-.27,0-.41,0-.3.01-.6,0-.9,0-.12.02-.18.16-.17.24.01.47-.02.71.03ZM26.02,12.12c-.03.13,0,.19.16.18.15,0,.27-.05.27-.21,0-.16-.12-.18-.26-.19-.16,0-.21.05-.18.21Z"/></g></svg>