<?xml version="1.0" encoding="UTF-8"?><svg id="Calque_2" xmlns="http://www.w3.org/2000/svg" viewBox="0 0 160 160"><defs><style>.cls-1{fill:none;}.cls-1,.cls-2,.cls-3{stroke-width:0px;}.cls-2{fill:#f2e2c4;}.cls-3{fill:#808c54;}</style></defs><g id="team"><rect class="cls-1" width="160" height="160"/></g><g id="patience"><path class="cls-2" d="M89.51,91.38c.49,6.48,2.48,12.75,5.67,18.41,1.42,2.51,3.34,4.79,6.09,5.87s5.83.99,8.7.18c5.47-1.55,10.24-5.66,12.33-10.96,1.04-2.63,1.47-5.46,1.89-8.24s.78-5.44.52-8.21.1-5.07.43-7.7c.21-1.65.27-3.35-.6-4.84-1.2-2.06-3.43-2.45-5.56-1.76-.75.24-1.11,1.05-1.12,1.77-.03,1.68-.06,3.37-.04,5.05,0,.92,0,2.01.72,2.7s2.28,1.63,3.18.6c1.21-1.39,1.05-4,.86-5.72-.39-3.4-2.36-6.24-6.06-6.25-1,0-1.65.99-1.65,1.9v6.88l3.82-.89c-1.75-2.51-7.08-5.18-9.28-1.69-1.09,1.72-.47,3.78,1.03,5,.68.56,1.5.97,2.27,1.4.43.24.87.47,1.31.71.14.07.29.19.44.24-.38-.14,0,.07-.24-.18-.12-.14-.6-.62-.43-.89-.1.15,1.12-.4,1.11-.33,0,0-.17-.1-.21-.15-.38-.55-.98-1.16-1.46-1.65-1.24-1.28-4.25-2.4-5.44-.4-.88,1.48.14,3.2.89,4.49s1.42,2.48,1.78,3.87c.74,2.83.42,5.77-1.16,8.25-.3.47-.62.95-1.01,1.35-.24.25-.52.53-.82.71.15-.09-.54.31-.35.18-.42.31-.07-.26.1.08s-.31-.38-.25-.3c-.51-.73-.85-1.65-1.16-2.47-.75-1.98-1.42-4.02-1.8-6.1-.27-1.45-.34-2.73-.67-4.27-.49-2.32-1.37-4.61-2.48-6.7-1.8-3.39-4.36-6.42-7.7-8.37-2.78-1.63-6-1.95-9.15-2.14-4.26-.26-8.56-.54-12.83-.43-2.79.07-5.62.44-8.01,1.98-2.9,1.86-4.52,5.03-5.64,8.18-1.38,3.86-2.33,7.88-3.09,11.9-.55,2.89-.96,5.26-3.56,6.82-.73.44-1.65.85-2.52.87-.18,0-.81-.11-.65-.04.23.1-.04-.03-.09-.07-.56-.44.36.38-.16-.15-.27-.27.02.16-.23-.32-.11-.21-.33-.69-.36-.75-.15-.4-.36-1.29-.44-1.85-.2-1.33-.19-2.84.05-4.18.22-1.24.46-1.79,1.04-2.78.89-1.54,1.55-3.39,1.66-5.17.15-2.44-1.94-4.61-4.44-3.81-.77.25-1.58.76-2.16,1.32-.36.34-.68.73-.96,1.13-.08.11-.15.22-.23.34-.06.1-.13.2-.2.3-.1.13-.08.13.04,0,.05.05.75-.23.97-.05.3.23.19.51.15.81-.08.52-.16.42-.07.42s.52-.36.62-.41c.52-.28,1.08-.49,1.63-.71,1.8-.72,4.33-1.25,4.38-3.65s-2.28-4.63-4.72-4.6c-1.87.02-3.88,1.12-5.16,2.42l3.78,2.91c.57-2.11.69-4.36-.06-6.44-.42-1.17-.95-2.32-1.98-3.08-1.12-.83-2.63-.9-3.69.05-1.68,1.5-1.29,3.83-1.29,5.87,0,.91-.1,1.89.09,2.79.38,1.87,3.73,3.29,4.35.82.37-1.46.19-3.25-.39-4.62-1.13-2.65-3.79-3.27-6.35-2.44-.76.25-1.09,1.05-1.12,1.77-.21,6.47-.29,13.06.37,19.5.45,4.34,1.77,8.37,4.35,11.93,6.17,8.51,21.5,10.7,28.35,1.8,4.29-5.57,4.59-13.43,3.57-20.08-.42-2.77-4.82-2.87-4.34.34.77,5.07.47,10.83-2.21,15.33-1.05,1.75-2.47,3.29-4.35,4.15s-3.86,1.17-5.87,1.25c-4.4.17-8.95-1.4-11.78-5.11-.62-.81-1.1-1.71-1.54-2.63-.21-.44-.41-.89-.6-1.35-.06-.14-.12-.28-.17-.42-.19-.45.14.48-.04-.12-.44-1.46-.74-2.9-.88-4.23-.66-6.45-.57-13.03-.37-19.5l-1.12,1.77c.12-.04.54-.08.62-.16.29,0,.26-.06-.1-.2-.14-.05-.26-.13-.35-.25-.24-.09.07-.24-.08-.04,0,0,.04.25.05.31.03.31,0,.62,0,.92,0,.45.1-.32,0,.09l4.35.82c.26,1.24.07-.25.07-.65,0-1.45,0-2.89,0-4.34l-.28,1.07c.03-.07.14-.36.18-.37l.12-.2c-.23.07-.47.12-.72.12l-1.11-.51c-.31-.2-.03.04,0,.14.11.32.21.65.26.98.14.89-.05,1.99-.3,2.93-.48,1.77,2.14,4.58,3.78,2.91.82-.83,1.65-1.07,2.63-1.59.03-.02.28,0,.29-.02-.59-.2-.77-.57-.54-1.11-.11-.28-.08-.49.08-.62-.06-.05-1.44.56-1.55.6-1.96.76-5.12,1.69-5.19,4.26s2.46,5.14,4.99,4.89c1.99-.2,2.48-3.12,4.07-3.1l-1.14-.22.23.09-1.02-.79c-.84-.86-.18-1.21-.42-.54-.09.25-.12.55-.19.81-.18.66-.4,1.28-.72,1.88-.4.76-.84,1.44-1.14,2.26-.75,2.05-.91,4.41-.73,6.56.21,2.46.81,5.05,2.44,6.98,1.97,2.33,5.01,2.75,7.77,1.65,2.36-.94,4.4-2.7,5.43-5.04.96-2.2,1.23-4.6,1.71-6.93.64-3.14,1.49-6.3,2.54-9.33.73-2.1,1.7-4.24,3.39-5.74,1.31-1.16,2.72-1.68,4.5-1.91,2.5-.32,5.04-.21,7.55-.12,3.2.12,6.44.17,9.63.53,2.03.23,3.69.52,5.3,1.63,2.07,1.42,3.61,3.34,4.76,5.47.44.83.83,1.68,1.19,2.55.27.66-.15-.44.06.17.06.16.12.33.17.49.08.25.16.49.24.74.68,2.23.73,4.06,1.16,6.27.59,2.99,1.6,6.16,3.02,8.87,1.53,2.92,4.53,5.16,7.7,3.09,1.78-1.16,3.07-3.25,3.87-5.2,1.22-2.97,1.26-6.35.45-9.43-.32-1.23-.82-2.42-1.4-3.55-.35-.68-.75-1.34-1.13-2.01-.1-.19-.21-.51-.36-.67-.12-.28-.12-.26,0,.05.09.47,0,.93-.29,1.36l-1.01.4s.28.09.08-.05c-.27-.19-.5-.54-.22-.1.37.59.85,1.1,1.36,1.57.94.87,2.08,1.64,3.38,1.76,3.26.3,3.71-4.07,2.08-6.05-.59-.72-1.37-1.15-2.18-1.59-.56-.31-1.14-.6-1.69-.92-.4-.24-.21-.13-.44-.27-.38-.22-.18-.27-.06.02.16.4.44.8.43,1.27.01-.39.11.19-.17.13.24.05.57-.07.88,0,.78.2,1.04.54,1.5,1.2,1.09,1.56,3.82,1.22,3.82-.89v-6.88l-1.65,1.9c.44,0,0,.03.06-.12l.14.18c-.13-.2-.16-.22-.07-.05.17.36-.08-.3.05.09.24.71.26,1.07.28,1.84.01.62-.01,1.24-.08,1.86.05-.43-.04.14-.06.3-.01.1-.04.22-.08.32l.57-.93h0c1.06.21,2.12.41,3.18.61h0c.2.38.4.76.6,1.14.23.69.04.57.05.17,0-.33,0-.66,0-.99,0-1.53.02-3.06.05-4.59l-1.12,1.77.34-.11c.62,0,.35-.26-.8-.8-.13.09.2-.85.02.15-.06.32-.01.84-.05,1.23-.13,1.16-.38,2.31-.51,3.48-.22,1.89-.13,3.67.02,5.55.18,2.24-.09,4.41-.43,6.63-.36,2.37-.72,4.77-1.46,7.06-1.38,4.27-4.85,7.47-8.95,9.14-1.99.81-4.24,1.3-6.36.8-1.84-.43-2.92-1.54-3.82-3.08-2.91-4.97-4.8-10.6-5.24-16.35-.1-1.26-.97-2.47-2.27-2.71-1.14-.21-2.32.63-2.22,1.86h0Z"/><path class="cls-3" d="M93.1,63.01c16.81,6.96-.12,23.9-7.09,7.09,6.96,16.81-16.98,16.81-10.02,0-6.96,16.81-23.9-.12-7.09-7.09-16.81,6.96-16.81-16.98,0-10.02-16.81-6.96.12-23.9,7.09-7.09-6.96-16.81,16.98-16.81,10.02,0,6.96-16.81,23.9.12,7.09,7.09,16.81-6.96,16.81,16.98,0,10.02Z"/><path class="cls-2" d="M91.94,63.7c3.58,1.52,7.92,4.68,6.71,9.16-.36,1.34-1.26,2.61-2.51,3.26-.43.23-.84.35-1.37.37-.75.03-1.5-.18-2.17-.5-2.53-1.19-4.09-3.82-5.14-6.29-.42-.98-3.26-.12-2.9.78.95,2.33,1.65,4.95,1.07,7.46-.2.86-.54,1.66-1.08,2.36-.22.28-.46.53-.73.75-.14.11-.68.46-.67.45-.62.31-.94.37-1.51.38-.66,0-1.26-.09-1.94-.38-1.52-.63-2.62-1.93-3.14-3.48-.89-2.68-.15-5.6.88-8.13.37-.91-2.5-.55-2.9.37-1.31,3.09-4.1,7.53-7.96,5.8-2.85-1.28-4.16-4.68-2.94-7.54,1.04-2.45,3.49-3.95,5.84-4.94.4-.17,1.17-.64.78-1.15s-1.48-.2-1.92-.02c-3.4,1.38-8.17,1.81-10.01-2.16-1.23-2.65-.32-6.22,2.27-7.37.73-.32,1.68-.43,2.7-.36,1.54.1,3.03.57,4.45,1.15.64.26,1.48.08,2.05-.28.36-.23.91-.84.26-1.11-3.58-1.52-7.92-4.68-6.71-9.16.36-1.34,1.26-2.61,2.51-3.26.43-.23.84-.35,1.37-.37.75-.03,1.5.18,2.17.5,2.53,1.19,4.09,3.82,5.14,6.29.42.98,3.26.12,2.9-.78-.95-2.33-1.65-4.95-1.07-7.46.2-.86.54-1.66,1.08-2.36.22-.28.46-.53.73-.75.14-.11.68-.46.67-.45.62-.31.94-.37,1.51-.38.66,0,1.26.09,1.94.38,1.52.63,2.62,1.93,3.14,3.48.89,2.68.15,5.6-.88,8.13-.37.91,2.5.55,2.9-.37,1.31-3.09,4.1-7.53,7.96-5.8,2.85,1.28,4.16,4.68,2.94,7.54-1.04,2.45-3.49,3.95-5.84,4.94-.4.17-1.17.64-.78,1.15s1.48.2,1.92.02c3.4-1.38,8.17-1.81,10.01,2.16,1.23,2.65.32,6.22-2.27,7.37-.73.32-1.68.43-2.7.36-1.54-.1-3.03-.57-4.45-1.15-.64-.26-1.48-.08-2.05.28-.35.22-.91.85-.26,1.11,4.63,1.88,11.71,2.42,14.44-2.84,1.86-3.59.17-8.01-3.64-9.4-3.33-1.21-7.05-.35-10.21.94l1.14,1.17c4.27-1.81,9.8-5.94,7.66-11.3-1.64-4.12-6.53-5.3-10.36-3.59-3.15,1.41-5.1,4.32-6.4,7.41l2.9-.37c1.73-4.25,2.25-10.47-2.84-12.62-3.89-1.64-9,.1-10.71,4.04-1.27,2.93-.51,6.33.64,9.16l2.9-.78c-1.13-2.66-2.74-5.3-5.36-6.71-1.92-1.04-4.22-1.16-6.29-.51-3.87,1.21-6.7,5.24-5.1,9.28,1.21,3.02,4.18,4.89,7.05,6.11l2.31-1.39c-4.63-1.88-11.71-2.42-14.44,2.84-1.86,3.59-.17,8.01,3.64,9.4,3.33,1.21,7.05.35,10.21-.94l-1.14-1.17c-4.27,1.81-9.8,5.94-7.66,11.3,1.64,4.12,6.53,5.3,10.36,3.59,3.15-1.41,5.1-4.32,6.4-7.41l-2.9.37c-1.73,4.25-2.25,10.47,2.84,12.62,3.89,1.64,9-.1,10.71-4.04,1.27-2.93.51-6.33-.64-9.16l-2.9.78c1.13,2.66,2.74,5.3,5.36,6.71,1.92,1.04,4.22,1.16,6.29.51,3.87-1.21,6.7-5.24,5.1-9.28-1.21-3.02-4.18-4.89-7.05-6.11-.63-.27-1.49-.08-2.05.28-.36.23-.91.84-.26,1.11Z"/><path class="cls-2" d="M100.62,115.17c-7.19-.12-14.38-.24-21.57-.36-.91-.02-1.82-.03-2.73-.05-.65-.01-1.56-.22-2.14.11s-1.13,1.22-1.6,1.67c-.58.56-1.19,1.1-1.82,1.61-1.97,1.61-4.2,2.68-6.35,3.99-1.59.97-2.99,2.31-4.13,3.77-1.53,1.96-2.01,3.87-.2,5.89,2.9,3.25,8.36,1.71,11.6-.19,4.37-2.55,10.14-1.43,14.88-.75,5.44.79,10.88,1.58,16.37,2.02,2.76.22,5.6.42,8.37.14,1.17-.12,2.29-.37,3.32-.96,2.61-1.48,4.82-4.19,5.85-6.98,1.89-5.1-.53-10.69-4.23-14.3-.5-.48-1.75-1.74-2.52-1.09-.72.61.42,2.21.84,2.62.98.96,1.27,1.27,1.91,2.52.89,1.73,1.14,3.75.74,5.65-.64,2.98-2.63,5.5-5.05,7.28-.3.22-.61.42-.93.62-.36.22.11-.02-.16.08-.18.07-.35.14-.53.2-1.17.37-2.43.45-3.64.48-6.99.21-14.13-1.04-21.01-2.05-4.37-.64-8.98-1.47-13.39-.75-1.59.26-2.92.86-4.31,1.65s-2.99,1.26-4.58,1.51c-.76.12-1.57.23-2.33.12-1.72-.25,1.75,1.49,1.32,1.93.19-.19.31-.84.46-1.09.71-1.19,1.76-2.26,2.79-3.18,1.76-1.58,3.96-2.45,5.92-3.72,2.16-1.39,4.07-3.1,5.79-5.01l-.65.13c8.59.14,17.19.29,25.78.43,2.15.04-.58-3.95-2.05-3.97h0Z"/><path class="cls-2" d="M41.92,109.75c-3.72,4.25-5.62,10.22-2.8,15.48,1.17,2.18,3.14,3.9,5.28,5.1,2.52,1.42,5.19,2.48,8.09,2.82,2.44.29,4.94.15,7.34-.4,1.2-.27,1.77-1.35,1.39-2.53-.34-1.05-1.64-2.29-2.86-2.01-2.2.5-4.45.68-6.68.36-1.51-.22-2.94-.66-4.31-1.32-.27-.13-.55-.27-.82-.41-.11-.06-.23-.12-.34-.18.26.14.26.14.01,0-.45-.27-.91-.54-1.34-.85-.07-.05-.81-.63-.45-.32-.19-.16-.38-.34-.55-.53-.06-.07-.67-.76-.45-.47-.22-.29-.42-.61-.59-.94-.46-.88-.64-1.82-.63-2.96.01-2.58,1.4-5.24,3.11-7.2.84-.96.59-2.3-.24-3.2-.7-.75-2.33-1.42-3.17-.46h0Z"/><path class="cls-2" d="M59.44,118.1c5.46-.9,10.99-1.03,16.49-.4.49.06,2.18.1,1.92-.79s-2.26-1.09-2.92-1.16c-6.23-.72-12.56-.56-18.74.46-.93.15-1.01.79-.23,1.26.97.58,2.37.81,3.48.62h0Z"/><path class="cls-2" d="M16.11,67.75c9.02-.14,18.05-.29,27.07-.43.97-.02,3.91-.44,3.92-1.8.02-2.51-1.86-4.18-4.31-4.23l.87.37c-.04-4.32-3.54-7.29-7.77-6.86s-8.53,3.14-9.03,7.62l4.62-1.38c-2.26-2.68-5.69-3.24-8.95-2.26-3.94,1.18-6.86,4.21-7.27,8.38-.13,1.3,4.63.27,4.75-.95.13-1.34.48-2.66,1.17-3.82.34-.57.77-1.11,1.27-1.54.14-.13.31-.23.45-.35.31-.24.47-.12.11-.1-.61.04.72.2.86.24.54.17,1.04.44,1.5.76.6.41,1.15.91,1.62,1.46.66.79,4.5-.37,4.62-1.38.15-1.38.61-2.71,1.56-3.75.56-.62.76-.89,1.34-.78,2.84.54,4.34,3.48,4.36,6.15,0,.3.75.36.87.37,1.76.04,2.57,1.97,2.56,3.5l3.92-1.8c-9.02.14-18.05.29-27.07.43-1.14.02-2.46.3-3.39,1.02-.68.52-.67,1.17.34,1.15Z"/><path class="cls-2" d="M119.41,54.39c9.74-.14,19.48-.29,29.22-.43.35,0,.56-.21.58-.54.2-3.71-2.13-6.79-5.49-8.22-2.69-1.14-5.33-.55-7.11,1.8l4.43,2.13c.2-3.88-3.4-7.22-7.15-7.56-3.27-.29-5.52,2.66-5.49,5.71,0,1.18,4.18,3.27,4.43,2.13.57-2.57.63-5.47-1.16-7.59s-5.07-3.28-7.73-1.93c-4.52,2.29-7.4,7.03-8.39,11.86-.32,1.57,4.18,3.43,4.39,2.4.75-3.69,2.45-7.12,5.34-9.6.65-.56,1.32-1.1,2.05-1.55.38-.23.78-.46,1.2-.61.17-.06.43-.08.58-.17l.3-.03-1.41-.73c-.02.05.25.48.3.6.19.45.28.94.35,1.42.15,1.19.05,2.39-.21,3.56l4.43,2.13c-.02-1.82.92-3.7,2.67-4.42.22-.09.82-.1.96-.22.08-.07-.35-.17-.51-.21-.24-.06-.22-.28-.21-.08.02.37.53.93.64,1.35.15.57.16,1.15.13,1.73-.06,1.21,3.6,3.22,4.43,2.13.29-.38.62-.73,1-1.02.32-.25.67-.47,1.04-.63.19-.08.4-.16.6-.19.31-.05.48.1.36-.06-.1-.14-.65-.59-.39-.12.19.35.46.65.64,1.03.46,1,.54,2.09.48,3.18l.58-.54c-9.74.14-19.48.29-29.22.43-1.14.02-.23,1.26.15,1.6.83.75,2.03,1.35,3.17,1.33Z"/><path class="cls-2" d="M76.59,62.14c1.27,1.14,2.89,1.8,4.6,1.79,1.29,0,2.6-.4,3.66-1.12.65-.44,1-1.34.54-2.05-.42-.65-1.36-1.01-2.05-.54-.17.12-.35.23-.54.32-.06.03-.13.06-.19.09-.04.02-.24.11-.03.02.23-.1-.04.01-.09.03-.06.02-.13.04-.19.06-.27.09-.54.14-.82.19.6-.11.25-.03.1-.02-.1,0-.2.01-.31.01-.12,0-.24,0-.36,0-.06,0-.12,0-.18-.01-.06,0-.34-.04-.08,0s0,0-.05-.01c-.09-.02-.17-.03-.26-.05-.17-.04-.33-.09-.49-.14-.04-.01-.07-.03-.11-.04-.08-.03-.07-.03,0,0,.1.05.09.04-.05-.02l-.11-.05c-.15-.07-.3-.16-.44-.25-.1-.06-.26-.23-.37-.25.04,0,.25.21.1.07-.06-.05-.11-.1-.17-.15-.58-.52-1.55-.62-2.12,0-.52.57-.62,1.56,0,2.12h0Z"/><path class="cls-2" d="M71.91,55.47c.32,1.68,1.67,3.12,3.32,3.56.86.23,1.82.21,2.66-.1.98-.37,1.73-.97,2.35-1.81.22-.29.24-.82.15-1.16s-.36-.73-.69-.9c-.35-.18-.77-.28-1.16-.15s-.65.36-.9.69c.27-.37-.01,0-.1.09-.06.06-.12.12-.19.17-.15.14.06-.05.1-.08-.13.07-.26.17-.39.24-.06.03-.13.06-.19.09.09-.05.32-.12.09-.05-.13.04-.26.08-.4.11-.3.06.1,0,.11-.01,0,.02-.18.01-.21.01-.07,0-.14,0-.21,0-.13,0-.35-.08.06.02-.13-.03-.25-.05-.38-.09-.06-.02-.12-.04-.18-.06-.16-.04.35.18.11.05-.11-.06-.23-.12-.34-.18-.05-.03-.11-.07-.16-.11-.15-.1.28.24.09.07-.09-.09-.19-.17-.27-.27s-.19-.29.04.07c-.03-.04-.06-.08-.09-.13-.08-.12-.15-.24-.22-.37s-.03-.22.04.11c-.01-.06-.05-.13-.07-.19-.05-.14-.08-.28-.11-.43-.15-.77-1.12-1.28-1.85-1.05-.82.27-1.21,1.02-1.05,1.85h0Z"/><path class="cls-2" d="M81.51,57.54c.91,1.19,2.2,2.12,3.7,2.36,1.86.3,3.76-.28,5.1-1.63.55-.56.6-1.57,0-2.12s-1.53-.6-2.12,0c-.05.06-.38.29-.37.33,0-.04.37-.27.11-.09-.05.04-.11.08-.17.11-.12.08-.25.16-.39.22-.05.02-.38.16-.12.06s-.05.02-.11.03c-.19.07-.39.11-.59.16-.33.08.35-.02,0,0-.11,0-.21.01-.32.01-.1,0-.2,0-.3,0-.06,0-.13-.01-.19-.02.23.03.28.04.17.02-.19-.04-.38-.08-.57-.14-.08-.03-.16-.08-.24-.09.14.02.3.13.06.02-.14-.07-.27-.14-.4-.22-.06-.04-.12-.08-.18-.12-.05-.03-.31-.23-.07-.04s-.11-.1-.17-.16c-.07-.07-.14-.14-.21-.21-.13-.14-.47-.58-.03,0-.25-.32-.49-.58-.9-.69-.36-.1-.84-.05-1.16.15-.61.4-1.05,1.39-.54,2.05h0Z"/><path class="cls-2" d="M83.49,45.45c-5.16-.88-10.78,1.37-13.79,5.68-3.21,4.59-2.8,10.75.8,15s9.18,5.83,14.34,4.16,9.45-6.36,9.53-12.01c.09-6.36-4.8-11.61-10.88-12.83-1.41-.28-2.93,1.69-1.01,2.08,4.4.88,7.96,4.67,8.78,9.04s-1.5,9.12-5.56,11.17c-8.57,4.33-18.16-5.51-14.48-14.11,1.87-4.38,6.58-6.89,11.25-6.1,1.41.24,2.95-1.75,1.01-2.08Z"/></g></svg>