<?xml version="1.0" encoding="UTF-8"?><svg id="Calque_2" xmlns="http://www.w3.org/2000/svg" viewBox="0 0 366.53 377.46"><defs><style>.cls-1{fill:#260801;stroke-width:0px;}</style></defs><g id="perso"><path class="cls-1" d="M37.24,213.2c25.4-1.68,50.57-6.49,74.81-14.27,6.92-2.22,13.75-4.69,20.5-7.39l-3.4-2.14c-.81,29.03-3.7,58.08-10.03,86.45-3.03,13.59-6.69,27.17-11.72,40.16-4.71,12.17-10.92,24.01-20.06,33.46-9.25,9.55-21.42,16.5-34.85,17.43-2.2.15-3.15,3.39-.72,4.05,13.34,3.61,26.98,7.24,40.93,6.39,11.69-.71,23.49-4.82,31.74-13.38,8.59-8.92,12.76-21.22,17.15-32.53,5.1-13.16,9.87-26.44,14.3-39.84,4.96-15,9.48-30.14,13.58-45.39l-4.94.11c1.47,31.32,2.94,62.63,4.41,93.95.54,11.46,1.64,24.9,12.22,31.8,5.19,3.38,11.53,4.46,17.6,4.82,7.14.42,14.34.22,21.49.25,3.81.02,7.63.04,11.44.06s7.4.31,11.03-.03c2.94-.28,5.9-1.74,6.85-4.71.78-2.45-.06-5.05-1.49-7.09-3.92-5.6-10.78-4.57-16.75-5.05-5.49-.44-9.91-3.79-12.74-8.41-7.51-12.28-2.74-27.03-1.24-40.25,1.61-14.11.93-28.37-.46-42.46-2.74-27.85-8.57-56.09-4.22-84.09.53-3.43,1.23-6.83,2.07-10.2l-4.01,1.48c13.51,8.25,30.03,7.67,45.11,5.21s30.47-6.35,44.8-12.19,27.48-13.64,38.63-24.15c10.35-9.74,18.38-22.06,23.02-35.5,5.18-15.02,5.91-31.37.44-46.42-.91-2.51-5.61-.96-4.63,1.76,9.37,25.76-1.01,54.99-19.21,74.19-20.06,21.16-49.02,31.53-77.03,36.96-15.69,3.05-33.65,5.48-48.02-3.29-1.45-.89-3.59-.22-4.01,1.48-6.7,26.75-2.66,54.46.56,81.39,1.65,13.75,3.13,27.57,2.93,41.43-.1,6.9-.74,13.75-1.8,20.56-1.11,7.15-2.41,14.36-1.9,21.62.77,10.9,7.18,22.6,18.71,24.76,4.97.93,12.9-1.31,15.86,4.05.9,1.63,1.25,4.02-1.01,4.59-1.39.35-2.95.18-4.37.18-2.01-.01-4.03-.02-6.04-.03-7.52-.04-15.04-.08-22.57-.11-6.08-.03-12.38.21-18.35-1.17-5.52-1.28-10.43-4.13-13.32-9.14s-3.78-10.76-4.25-16.39c-.6-7.02-.75-14.08-1.08-21.12-.35-7.53-.71-15.07-1.06-22.6-.71-15.17-1.42-30.35-2.14-45.52-.18-3.77-.35-7.53-.53-11.3-.12-2.66-4.38-1.99-4.94.11-7.01,26.11-15.29,51.88-24.84,77.18-2.3,6.1-4.64,12.2-7.14,18.22-2.19,5.28-4.6,10.56-7.87,15.27-6.55,9.45-16.65,14.7-27.9,16.29-14.55,2.05-29.08-1.93-43.02-5.7l-.72,4.05c12.49-.86,24.1-6.58,33.48-14.69,10.03-8.67,17.26-20.03,22.61-32.06,5.72-12.86,9.7-26.55,13.06-40.19,3.58-14.49,6.22-29.21,8.11-44.02,2.13-16.67,3.28-33.45,3.75-50.25.05-1.8-1.74-2.81-3.4-2.14-23.33,9.33-47.74,15.8-72.63,19.18-7.1.97-14.23,1.68-21.38,2.15-1.18.08-2.34,1.2-2.19,2.42.17,1.35,1.61,1.82,2.76,1.74h0Z"/><path class="cls-1" d="M361.52,63.25c-6.67-19.61-16.18-40.66-34.61-51.85-8.38-5.09-18.42-7.99-28.25-7.45-4.76.26-9.45,1.24-13.82,3.2s-9.14,4.92-11.41,9.25c-2.79,5.32.31,11.08,5.4,13.53,6.2,2.99,12.92.62,18.88-1.79,2.47-1,1.1-3.98-1.04-4.21-4.83-.52-10.04-.86-14.33,1.86-3.48,2.2-5.97,6.39-4.64,10.55,1.25,3.92,5.17,6.36,9.07,6.96,4.88.75,9.6-1.4,13.87-3.5,2.29-1.13,1.26-4.01-1.04-4.21-3.74-.32-7.97-.49-11.15,1.86-2.34,1.73-3.85,4.95-3.13,7.86.93,3.75,4.86,4.88,8.28,4.71,3.11-.15,5.91-.25,8.88.84,11.71,4.27,16.6,18.97,15.27,30.34-1.55,13.25-9.79,24.74-20.05,32.84-11.84,9.34-26.16,13.9-41,15.57-33.86,3.83-67.82-6.12-101.63-.5-8.08,1.34-16.06,3.62-23.5,7.06s-14.41,8.04-21.08,12.85c-13.28,9.59-26.03,20.6-41.71,26.11-12.85,4.52-29.04,4.48-39.8-4.95-2.64-2.31-5.07-5.01-8.45-6.25s-7.1-.19-8.73,2.98c-1.37,2.66-.34,5.83,1.22,8.17,2.02,3.03,4.85,4.58,7.66,6.72,2.1,1.6,4.99,4.06,3.71,6.96l4.22-.77c-3.91-3.89-8.54-8.07-14.36-8.31-4.58-.19-9.13,3.02-10.32,7.51-1.48,5.59,3.33,8.77,8.29,9.32,6.23.69,12.69-.59,18.35-3.2l-2.84-3.65c-3.62,2.61-8.8,1.35-12.94,1.4s-8.48,1.66-11.27,5.05-2.37,7.92,1.24,10.46c3.81,2.67,9.5,2.3,13.89,1.91,5.86-.52,11.6-2.33,16.75-5.17,1.18-.65,1.99-2.41.69-3.47-8.49-6.86-19.97-13.7-30.4-6.47-4,2.77-6.52,7.54-5.42,12.43s5.57,8.48,10.21,9.96c7.06,2.25,14.48-.4,21.1-2.86,1.34-.5,1.85-2.51.69-3.47-7.15-5.89-16.71-8.26-25.76-6.08-2.88.69-2.17,3.97.44,4.41,10,1.66,19.99,3.33,29.99,4.99,1.23.2,2.53-.89,2.61-2.1.09-1.42-1.18-2.16-2.38-2.36-10-1.66-19.99-3.33-29.99-4.99l.44,4.41c7.29-1.75,15.14-.11,20.96,4.69l.69-3.47c-5.59,2.08-12.28,4.71-18.18,2.28-4.13-1.7-7.51-6.04-5.48-10.58,1.84-4.11,6.8-6.28,11.11-5.91,5.97.51,11.18,4.46,15.68,8.1l.69-3.47c-4.89,2.7-10.26,4.4-15.84,4.81-2.41.18-11.63.9-10.54-3.76.42-1.79,2.3-3.18,3.86-3.93,2.01-.97,4.03-.97,6.22-.9,5,.16,10.04.52,14.32-2.56,2.38-1.71-.61-4.68-2.84-3.65-4.1,1.89-8.55,2.94-13.08,2.88-2.54-.03-7.43-.19-6.38-3.96.75-2.69,3.45-4.5,6.19-4.02,4,.69,7.19,4,9.94,6.74,1.27,1.26,3.51.86,4.22-.77,1.39-3.16.16-6.23-1.95-8.72-2.22-2.63-5.34-3.97-7.82-6.24-1.38-1.26-4.46-4.67-2.88-6.7,1.83-2.37,5.96,1.98,7.24,3.18,10.38,9.76,24.97,12.53,38.73,9.82,15.89-3.13,29.46-12.85,42.18-22.35,13.11-9.79,26.23-19.47,42.3-23.74,32.68-8.68,66.51.57,99.63-.66,15.58-.58,31.41-3.33,45.1-11.14,11.55-6.59,21.67-16.21,27.23-28.43s5.75-25.45-1.04-36.65c-3.15-5.19-7.7-9.57-13.41-11.79-2.86-1.11-5.93-1.52-8.98-1.34-1.32.08-3.25.53-4.49-.11s-.94-2.12-.42-3.12c1.57-3.06,6-2.43,8.81-2.19l-1.04-4.21c-3.06,1.5-6.39,3.27-9.9,3.17-2.31-.06-4.97-1.31-5.84-3.59-1-2.62,1.08-5.19,3.3-6.34,3.19-1.65,7.16-1.05,10.57-.68l-1.04-4.21c-4.36,1.76-9.98,4.22-14.53,1.7-1.5-.83-2.83-2.12-3.35-3.8-.68-2.2.5-4.31,1.99-5.87,5.54-5.8,14.51-8.04,22.28-7.85,8.35.21,16.54,2.95,23.54,7.46,7.53,4.85,13.54,11.9,18.27,19.43,5.65,9,9.66,18.91,13.07,28.94.91,2.68,5.84,1.9,4.88-.93h0Z"/><path class="cls-1" d="M32.11,262.41c-3.5-14.96-4.61-30.39-3.39-45.7,1.21-15.32,4.74-30.43,10.46-44.7,3.24-8.07,7.18-15.85,11.77-23.24.92-1.48-2.52-5.04-3.65-3.23-8.23,13.23-14.33,27.73-18.13,42.83-3.82,15.17-5.4,30.89-4.52,46.51.49,8.78,1.71,17.5,3.72,26.05.26,1.12,1.15,2.31,2.27,2.71.94.34,1.73-.18,1.48-1.24h0Z"/><path class="cls-1" d="M59.59,122.47c-1.63-.32-3.16-.04-4.43,1.08-1.07.93-1.86,2.05-2.5,3.3-1.28,2.49-2.33,5.5-1.63,8.32.84,3.4,3.83,5.7,7.35,5.3,3-.34,5.22-2.84,5.87-5.69.88-3.9-.47-7.6-2.09-11.11-.48-1.04-1.61-2.11-2.86-1.77-1.18.32-1.44,1.8-.98,2.79.56,1.21,1.11,2.42,1.52,3.69.02.05.15.53.09.27s.05.23.07.28c.08.31.14.63.19.94.03.16.05.32.07.48,0,.05.06.51.03.22s0,.14,0,.21c0,.17,0,.33,0,.5-.01.27-.03.53-.07.8-.02.13-.03.27-.06.4.02-.1.09-.35-.02.04-.07.26-.14.51-.23.76-.05.12-.1.24-.15.37-.13.33.04-.04-.07.15-.13.23-.27.45-.43.66-.08.11-.16.21-.25.31-.03.04-.32.33-.15.17s-.11.09-.15.12c-.07.06-.14.11-.21.16-.1.07-.2.14-.3.2-.04.02-.55.28-.16.11-.43.19-.91.32-1.38.38.41-.05-.25-.01-.36-.02-.12,0-.23-.02-.35-.03.29.02.16.04-.05-.02-.11-.03-.22-.09-.33-.11-.23-.04.1.04.14.07-.09-.06-.2-.12-.3-.17-.43-.25.1.03.08.06.03-.05-.27-.19-.26-.25,0-.03.31.46.1.11.01.02-.19-.28-.19-.28.17.32.21.39.13.22-.04-.08-.07-.15-.1-.23-.13-.26-.12-.02.02.12-.04-.04-.07-.3-.07-.33-.03-.17-.05-.8-.06-.27,0-.49.03-.96.1-1.44.06-.4.02-.09,0,0,.03-.12.05-.25.09-.37.06-.25.13-.49.21-.73.17-.54.38-1.08.61-1.6.1-.23.21-.45.31-.67-.16.33-.02.04.01-.02.09-.17.18-.34.28-.5.3-.5.63-.99,1.01-1.43.08-.1.17-.19.26-.28-.27.28.14-.12.17-.14.19-.15.39-.28.59-.41.31-.2.08-.05-.01-.01.16-.06.32-.1.49-.15.14-.04.31.02-.02,0,.11,0,.62.06.16-.03.55.11,1.05.16,1.55-.17.43-.29.7-.87.72-1.38.03-1.13-.78-2.68-2-2.91h0Z"/><path class="cls-1" d="M149.97,94.15c-5.12-2.99-11.94-2.11-16.48,1.61s-5.64,10.24-3.89,15.86c3.62,11.61,16.05,17.2,27.45,17.15,5.9-.03,11.88-1.46,17-4.42s9.58-7.29,12.89-12.32,5.55-10.77,6.74-16.67c1.31-6.48,1.62-13.85-1.75-19.79-3.61-6.36-11.18-9.61-18.26-7.56-7.86,2.27-11.59,9.7-13.84,16.95l4.82-.07c-3.93-4.84-11.14-6.15-16.82-3.92-5.31,2.08-8.68,8-7.46,13.61.37,1.7,5.3,1.33,5-.07-.91-4.18.78-8.95,4.51-11.24,3.4-2.09,7.57-.64,9.96,2.31.55.68,1.6.82,2.42.81.61,0,2.17-.14,2.4-.88,1.69-5.45,4.04-11.47,9.21-14.5,1.96-1.15,4.07-1.66,6.26-.92,2.4.81,4.48,2.6,5.97,4.62,3.64,4.94,3.9,11.46,3.14,17.33-.69,5.3-2.26,10.47-4.68,15.23-4.46,8.78-12.16,16.51-22.05,18.63-8.91,1.91-18.99-.96-24.67-8.32-3.63-4.71-5.66-11.63-2.83-17.22,1.84-3.64,6.74-7.24,10.64-4.96,1.02.59,2.3.7,3.43.36.55-.16,1.9-.99.87-1.59h0Z"/><path class="cls-1" d="M154.15,114.88c2.7.39,5.42.77,8.15.61,2.87-.17,5.48-1.07,7.96-2.5,3.86-2.23,8.28-6.01,6.9-11.02-.07-.24-2.13.93-2.3,1.03-.28.17-2.11,1.11-1.98,1.55.45,1.63.28,3.3-.45,4.82-.37.76-.84,1.48-1.4,2.12-.26.3-.55.56-.84.83-.26.23-.36.24-.04.05-.02,0,1.02-.45.62-.39-.47.08-.95.34-1.42.45s-.98.21-1.48.28c-1.06.15-2.13.2-3.2.18-2.17-.04-4.32-.33-6.46-.64-.26-.04-.9.35-1.08.44-.57.29-1.13.62-1.67.97-.41.26-.88.53-1.21.89-.09.1-.36.29-.1.33h0Z"/><path class="cls-1" d="M71.43,181.09c2.72,7.74,4.65,15.74,5.82,23.86.41,2.81,5.35,2.09,4.95-.73-1.23-8.51-3.32-16.86-6.17-24.98-.43-1.22-2.22-1.47-3.26-1.05-1.23.49-1.77,1.67-1.34,2.89h0Z"/><path class="cls-1" d="M82.7,191.46c32.79-1.33,65.55-3.39,98.25-6.19,9.25-.79,18.49-1.65,27.73-2.56,3-.3,1.28-4.87-1.35-4.61-32.66,3.22-65.39,5.71-98.16,7.45-9.27.49-18.54.92-27.81,1.3-1.27.05-1.81,1.53-1.51,2.59.37,1.28,1.57,2.07,2.86,2.02h0Z"/><path class="cls-1" d="M142.36,138.77c.96,19.47,1.92,38.93,2.88,58.4.27,5.49.54,10.98.81,16.47.14,2.75,4.96,1.55,4.84-.96-.96-19.47-1.92-38.93-2.88-58.4-.27-5.49-.54-10.98-.81-16.47-.14-2.75-4.96-1.55-4.84.96h0Z"/><path class="cls-1" d="M165.98,136.66c2.55,18.64,3.54,37.49,2.87,56.3-.19,5.41-.52,10.81-.98,16.2-.25,2.9,4.71,3.58,4.95.67,1.62-19.14,1.6-38.43-.08-57.57-.47-5.39-1.08-10.76-1.82-16.12-.39-2.83-5.35-2.46-4.94.53h0Z"/><path class="cls-1" d="M189.39,133.31c.06,20.66.11,41.33.17,61.99.02,5.83.03,11.67.05,17.5,0,.22,4.7-.53,4.7-1.72-.06-20.66-.11-41.33-.17-61.99-.02-5.83-.03-11.67-.05-17.5,0-.22-4.7.53-4.7,1.72h0Z"/><path class="cls-1" d="M222.77,138.77c1,13.34,2,26.69,3,40.03.22,2.98,5.16,2.39,4.94-.43-1-13.34-2-26.69-3-40.03-.22-2.98-5.16-2.39-4.94.43h0Z"/><path class="cls-1" d="M257.05,136.68c1.99,12.36,4.53,24.63,7.61,36.76.16.62,1.8.91,2.31,1.05.17.04,2.59.49,2.52.24-3.08-12.14-5.62-24.4-7.61-36.76-.1-.59-1.85-.93-2.31-1.05-.17-.04-2.57-.53-2.52-.24h0Z"/><path class="cls-1" d="M291,124.26c4.33,13.27,9.05,26.4,14.15,39.4.48,1.22,1.61,1.97,2.96,1.74,1.05-.18,2.41-1.35,1.93-2.58-5.1-12.99-9.82-26.13-14.15-39.4-.41-1.25-1.67-1.96-2.96-1.74-1.12.19-2.33,1.33-1.93,2.58h0Z"/><path class="cls-1" d="M107.31,164.23c24.4-.62,48.78-2,73.1-4.15s48.68-5.07,72.87-8.75c13.61-2.07,27.17-4.37,40.7-6.92,1.22-.23,2.19-1.55,1.89-2.78-.33-1.34-1.75-1.8-2.97-1.57-23.85,4.49-47.84,8.25-71.92,11.23s-48.22,5.2-72.42,6.67c-13.65.83-27.32,1.41-41,1.76-1.25.03-2.54.93-2.61,2.26s1.12,2.28,2.36,2.25h0Z"/><path class="cls-1" d="M60.97,119.58c-1.15-6.52,1.23-13.69,6.3-18.01,1-.85,2.53-2.12,3.97-1.75,1.32.34,2.17,1.8,2.49,3.02.93,3.52-1.19,7.71-3.01,10.63-2.14,3.45-4.94,6.33-8.29,8.62-.86.59-1.08,1.88-.37,2.64.76.81,2.2.92,3.14.36,3.54-2.09,7.26-3.88,11.16-5.19.97-.33,1.95-.65,2.95-.91.57-.15,1.41-.45,1.96-.07.79.55.58,2.07.38,2.86-.74,2.87-3.54,5.12-6.07,6.4-2.85,1.44-6.04,1.88-9.17,1.26-1.79-.35-4.58,1.82-2.63,3.47,2.41,2.04,4.51,4.36,6.3,6.97.86,1.26,1.64,2.57,2.33,3.92.53,1.03,1.57,2.79,1.07,3.99-.13.31.08.19-.27.27-.06.01-.51-.01-.75-.09-1.21-.38-1.98-1.71-2.55-2.74-1.47-2.64-2.34-5.63-5.01-7.37-.89-.58-2-.65-2.96-.16-.78.4-1.6,1.36-1.3,2.3,1.16,3.57,1.61,7.27,1.25,11.01-.16,1.65-.36,3.48-1.09,4.99-.47.98-.92,1.22-1.95.81-2.74-1.08-4.09-4.41-4.59-7.08-.71-3.78.15-7.72.88-11.43.19-.97-.86-1.71-1.67-1.86-1.04-.19-2.2.24-2.85,1.06-1.89,2.38-4.62,4.07-7.64,4.55-2.38.38-5.86.05-6.3-2.9-.32-2.15,1.03-4.55,2.9-5.55,3.08-1.65,7.05-.9,10.32-.41l.95-3.97c-3.52.16-7.04-.78-10.02-2.67-2.8-1.77-5.92-4.67-6.71-8.02-.13-.56-.26-1.27-.06-1.83.09-.25.06-.33.29-.45-.4.2,0,.1.16.17.88.43,1.69.76,2.51,1.33s1.67,1.21,2.46,1.86c3.23,2.64,5.94,5.76,8.17,9.28l4.4-2.23c-2.57-3.46-4.25-7.42-4.93-11.68-.34-2.14-.41-4.34-.16-6.5.2-1.69.69-3.79,2.26-4.74,3-1.81,5.19,5.09,5.74,6.84,1.36,4.35,1.67,8.89.99,13.39-.41,2.7,4.56,2.28,4.93-.2.65-4.3.43-8.76-.66-12.97-.92-3.56-2.42-8.1-5.68-10.2-3.93-2.53-8.96-.51-11.1,3.37-1.97,3.55-1.78,8.18-1.19,12.07.71,4.63,2.61,9.1,5.4,12.86,1.47,1.99,5.9.14,4.4-2.23-2.22-3.51-4.96-6.69-8.11-9.4s-7.22-6.11-11.45-4.46c-3.99,1.55-4,6.01-2.33,9.31s4.53,5.98,7.62,7.85c3.83,2.32,8.25,3.48,12.73,3.27,1.08-.05,2.33-.72,2.56-1.85.22-1.06-.55-1.97-1.61-2.12-3.86-.57-7.95-1.1-11.76.06-3.31,1.01-6.13,3.21-7.39,6.5-1.1,2.85-.75,6.09,1.6,8.2,2.73,2.46,6.95,2.47,10.34,1.78,4.12-.84,7.86-3.22,10.47-6.5l-4.53-.8c-.91,4.59-1.78,9.42-.43,14.02,1.15,3.92,4.04,7.8,8.33,8.44,2.27.34,4.57-.43,6.11-2.14s1.96-3.87,2.33-5.98c.81-4.69.4-9.59-1.06-14.12l-4.26,2.14c3.19,2.08,3.54,6.54,6.21,9.16s7.52,2.92,9.97-.12c2.67-3.32-.16-7.88-2.01-10.88-2.13-3.45-4.84-6.53-7.93-9.14l-2.63,3.47c7.06,1.4,14.68-1.31,19.29-6.84,1.95-2.34,3.49-5.88,2.13-8.87-1.86-4.1-6.9-2.87-10.25-1.78-4.55,1.48-8.93,3.43-13.05,5.87l2.77,3c3.74-2.56,6.97-5.93,9.32-9.81s4.88-9.1,3.42-13.7c-.64-2-1.97-3.76-3.86-4.73-2.31-1.19-5.05-.87-7.35.21-4.09,1.92-7.26,5.92-9.19,9.91-2.13,4.4-2.79,9.41-1.94,14.21.45,2.55,5.29,1.32,4.84-1.26h0Z"/><path class="cls-1" d="M221.92,62.13c-1.8-2.01-4.66-1.81-6.93-.72-2.77,1.33-4.4,3.87-5.43,6.67-2.16,5.91-3.11,12.38-2.88,18.66.1,2.63.45,5.67,2.25,7.74,1.68,1.94,4.25,2.85,6.78,2.25,6.27-1.51,6.96-8.79,7.47-14.09.7-7.2-.02-14.48-2.06-21.42-.31-1.04-1.53-.84-2.34-.5-.67.28-2.44,1.39-2.15,2.39,1.41,4.8,2.2,9.75,2.31,14.75.1,4.63-.1,9.79-1.64,14.21-.12.34-.25.67-.44.98-.09.16-.56.62-.26.46.27-.15-.27-.02-.49-.04-.47-.04-.94-.21-1.36-.42-1.9-.95-2.87-2.93-3.25-4.93-.9-4.69-.34-9.92.62-14.56.53-2.55,1.16-5.23,2.26-7.61.22-.49.68-1.54,1.12-1.81.65-.4,1.71.1,2.15.58,1.29,1.44,5.41-1.32,4.28-2.59h0Z"/><path class="cls-1" d="M223.85,77.7c4.78,1.23,9.58,2.38,14.39,3.44,2.39.53,4.79,1.04,7.18,1.52,1.99.4,4.1,1.01,6.15.87,1.65-.11,3.2-1.03,3.15-2.86-.05-1.97-1.39-3.78-2.36-5.41-2.38-4.01-4.87-7.95-7.48-11.82s-5.33-7.65-8.16-11.36c-1.27-1.66-2.99-3.72-2.6-5.97.31-1.8,1.83-2.86,3.37-3.6,3.37-1.63,6.8-2.94,10.02-4.89s6.3-4.26,9.11-6.82c6.34-5.76,11.4-12.85,14.71-20.76.31-.74-4.35-2.54-4.73-1.63-5.71,13.66-16.7,24.91-30.29,30.82-2.74,1.19-7.28,2.45-6.96,6.27.17,2.05,1.49,3.73,2.7,5.31,1.37,1.79,2.71,3.6,4.02,5.43,2.63,3.66,5.16,7.39,7.58,11.19,1.21,1.9,2.39,3.82,3.55,5.75,1,1.67,2.51,3.58,2.74,5.57.25,2.24-1.66,2.99-3.55,2.67-2.62-.44-5.23-1.05-7.84-1.61-5.23-1.13-10.43-2.36-15.62-3.69-.37-.09-1.97-.59-1.9.14.06.67,2.33,1.3,2.77,1.41h0Z"/><path class="cls-1" d="M222.63,89.86c14.47,4.42,28.91,13.75,44.63,10.23,7.62-1.7,13.05-7.01,18.52-12.22,3.14-2.99,6.27-5.98,9.41-8.97,2.76-2.64,5.68-5.18,8.21-8.05s4.14-6.32,3.98-10.26-2.02-8.01-4.81-10.92c-.51-.53-1.45-1.1-1.68-.07s.74,2.48,1.39,3.15c1.82,1.9,2.3,4.56,1.94,7.1-.45,3.24-2.54,5.95-4.77,8.23-5.44,5.56-11.26,10.78-16.89,16.15-4.95,4.72-9.97,9.49-16.76,11.28s-14.06.77-20.63-1.21c-8.09-2.43-15.69-6.24-23.77-8.71-1.89-.58-.07,3.86,1.25,4.27h0Z"/><path class="cls-1" d="M273,14.59c-6.97,7.19-7.22,18.27-3.57,27.1,2.02,4.87,5.17,9.21,8.64,13.14,1.7,1.92,3.47,3.82,5.36,5.56s4.32,3.25,7.09,3.16c3.11-.1,5.75-2.08,6.32-5.2s-1.18-5.85-2.96-8.22c-.77-1.03-2.07-1.36-3.27-.85-.9.38-2.06,1.72-1.29,2.75,1.16,1.55,2.69,3.37,2.67,5.42-.01,1.47-.73,2.42-2.22,1.87-1.84-.68-3.29-2.5-4.63-3.86-1.52-1.55-3-3.15-4.39-4.83-5.21-6.25-9.34-14.02-8.65-22.39.35-4.29,1.86-8.34,4.89-11.47.85-.87.51-2.25-.5-2.81-1.14-.64-2.61-.29-3.48.61h0Z"/><path class="cls-1" d="M270.17,10.69c.87-1.58,1.69-2.77,2.97-4.11.97-1.01,2.49-1.85,3.8-2.09,1.44-.26,2.65-.05,3.83.89.27.22.9,1,1.05,1.33.08.18.15.36.23.54l.07.22c-.03-.15-.02-.15,0,0,.08.43.09.86.06,1.29-.08,1.27,1.58,1.98,2.62,1.78,1.35-.27,2.19-1.21,2.28-2.55.15-2.36-1.11-4.54-2.86-6.02-1.96-1.66-4.58-2.18-7.09-1.89-5.26.61-8.98,4.76-11.39,9.15-.6,1.09,0,2.42,1.15,2.8,1.24.42,2.66-.22,3.27-1.34h0Z"/><path class="cls-1" d="M206.8,72.89c1.7-.46,3.43-.81,5.19-1.03.2-.02.4-.05.61-.07.56-.06-.31.02.2-.02.47-.03.95-.07,1.42-.09.88-.04,1.76-.04,2.64-.02.78.02,2.37-.47,2-1.55s-1.86-1.47-2.88-1.49c-3.79-.1-7.62.34-11.28,1.34-.45.12-1,.28-1.27.71-.23.36-.18.84.08,1.17.68.88,2.23,1.33,3.3,1.04h0Z"/><path class="cls-1" d="M208.14,82.62c1.51-.69,3.07-1.26,4.68-1.7.35-.09.69-.18.92-.23.41-.09.83-.17,1.24-.25s.83-.14,1.25-.19c.18-.02.36-.05.54-.07-.42.05.32-.03.39-.03.31-.03,1.91-.27.96-.76s-2.35-.57-3.39-.48c-3.75.31-7.42,1.19-10.85,2.76-.23.1-.45.18-.29.45.15.25.9.41,1.12.45.63.13,1.27.21,1.92.21.47,0,1.07.04,1.51-.16h0Z"/><path class="cls-1" d="M209.33,94.96c.4-.53.83-1.03,1.29-1.51l-.41.42c1.07-1.09,2.28-2.01,3.62-2.76l-.51.28c.75-.41,1.54-.77,2.34-1.05,1.18-.42,1.61-1.91,1.02-2.97-.63-1.13-1.98-1.8-3.24-1.35-3.24,1.16-6.1,3.28-8.18,6.03-.77,1.02-.24,2.59.76,3.24s2.5.74,3.31-.34h0Z"/><path class="cls-1" d="M199.25,97.89c.23-.55.51-1.07.84-1.56l-.25.37c.25-.36.51-.71.81-1.03.07-.08.14-.15.21-.23,0,0-.4.4-.21.22.05-.04.09-.09.14-.13.16-.15.32-.29.49-.43.04-.03.08-.06.12-.1.23-.18-.32.24-.3.23.08-.06.16-.12.25-.18.18-.13.36-.24.55-.36.21-.13-.67.38-.34.2.05-.02.09-.05.13-.07.09-.05.18-.1.27-.14.12-.06.55-.25.04-.03s-.07.03.05-.01c.59-.23,1.19-.55,1.66-.98.24-.22.74-.71.73-1.1-.03-1.01-1.63-.59-2.16-.38-3.14,1.24-6.05,3.54-7.38,6.72-.13.31-.17.64.15.85s.97.13,1.32.05c.62-.15,1.24-.41,1.76-.78.41-.29.9-.65,1.1-1.12h0Z"/><path class="cls-1" d="M194.41,112.69c1.24-1.8,2.48-3.61,3.73-5.41.55-.8,1.08-1.61,1.73-2.33.28-.31.58-.62.93-.86.17-.12.35-.24.54-.34-.1.05-.1.06,0,.01.1-.04.1-.04-.02,0-.23.1-.47.17-.72.2-.3.1-.6.16-.91.2,1.07-.11,2.39-.31,3.3-.92.85-.57-.76-.52-1.03-.5-1.87.19-3.93.67-5.49,1.77-.97.69-1.72,1.57-2.4,2.53-1.5,2.12-2.95,4.28-4.43,6.42-.38.55,1.7.27,1.84.24.63-.11,1.27-.25,1.87-.47.32-.12.85-.25,1.05-.55h0Z"/><path class="cls-1" d="M194.4,85.15c2-2.63,4.42-4.93,7.15-6.81.23-.16-.01-.75-.07-.88-.22-.53-.59-1.07-.95-1.51s-.78-.92-1.27-1.25c-.21-.14-.59-.43-.85-.26-2.73,1.87-5.14,4.17-7.15,6.81-.19.25-.03.64.07.88.22.53.59,1.07.95,1.51s.78.92,1.27,1.25c.15.1.67.48.85.26h0Z"/><path class="cls-1" d="M187.15,76.34c3.34-1.44,6.81-2.53,10.37-3.25.18-.04-.43-.8-.36-.71-.37-.45-.82-.87-1.26-1.24s-.92-.76-1.43-1.05c-.23-.13-.48-.3-.75-.24-3.56.73-7.04,1.82-10.37,3.25-.3.13,1.48,1.83,1.62,1.95.45.38.92.76,1.43,1.05.2.12.52.35.75.24h0Z"/><path class="cls-1" d="M182.59,95.62c.58-.89,1.59-2.15,2.33-2.57-.11.06-.57.34-.05.05.24-.13.49-.26.73-.38.63-.31,1.28-.59,1.93-.86,3.12-1.3,6.22-2.5,9.13-4.24.55-.33,1.09-.69,1.6-1.07.08-.06.85-.57.88-.76.03-.21-.11-.11-.32-.04-.46.15-.91.46-1.32.71-2.97,1.78-6.51,2.66-9.61,4.26-3.46,1.79-7.24,4.07-9.42,7.4-.16.25.31.04.32.04.44-.14.93-.47,1.32-.71.77-.47,1.96-1.04,2.48-1.83h0Z"/><path class="cls-1" d="M129.05,214.54l58.52.07,16.69.02c1.07,0,2.31-.65,3.22-1.15.31-.17,1.58-.92.59-.92l-58.52-.07-16.69-.02c-1.07,0-2.31.65-3.22,1.15-.31.17-1.58.92-.59.92h0Z"/><path class="cls-1" d="M102.55,338.67c11.13-1.93,22.54-1.85,33.65.16.94.17.31-1.74.18-2.07-.32-.79-1.03-2.25-2-2.42-11.3-2.04-22.86-2.05-34.17-.09-.9.16.79,4.69,2.33,4.42h0Z"/><path class="cls-1" d="M170.38,339.11c12.07-.59,24.14-1.18,36.21-1.77,1.14-.06,2.28-.28,3.37-.58.23-.06,1.76-.6.8-.55-12.07.59-24.14,1.18-36.21,1.77-1.14.06-2.28.28-3.37.58-.23.06-1.76.6-.8.55h0Z"/><path class="cls-1" d="M173.08,340.75c12.38-.48,24.77-.95,37.15-1.43,1.1-.04,2.47-.76,3.13-1.65.59-.79.29-1.39-.71-1.35-12.38.48-24.77.95-37.15,1.43-1.1.04-2.47.76-3.13,1.65-.59.79-.29,1.39.71,1.35h0Z"/><path class="cls-1" d="M132.19,211.04h75.88c4.21,18.86,7.82,42.68,8.09,70.27.21,21.08-1.58,39.82-4.05,55.59-12.82,1.05-25.63,2.1-38.45,3.15-1.77-30-3.55-60-5.32-90-10.37,28.6-20.73,57.2-31.1,85.8h-34.4c6.82-17.05,13.7-37.43,19.22-60.83,5.6-23.73,8.59-45.39,10.12-63.98Z"/></g></svg>