<?xml version="1.0" encoding="UTF-8"?><svg id="Calque_2" xmlns="http://www.w3.org/2000/svg" viewBox="0 0 26.64 13.04"><defs><style>.cls-1{fill:#f1e2c3;stroke:#f1e2c3;stroke-miterlimit:10;}.cls-2{fill:#220d09;stroke-width:0px;}</style></defs><g id="php"><ellipse class="cls-1" cx="13.32" cy="6.52" rx="12.82" ry="6.02"/><path class="cls-2" d="M10.37,4.13c-.5-.36-1.05-.33-1.23-.32h-3.3l-1.43,6.05c.58.02,1.17.04,1.75.06.15-.53.31-1.05.46-1.58.24.08,1.76.51,3.1-.37.2-.13,1.42-.94,1.4-2.24,0-.16,0-1.08-.75-1.61ZM8.63,6.91c-.77.47-1.63.27-1.89.2.17-.75.34-1.49.52-2.24.1-.02,1.28-.26,1.86.43.07.08.26.31.26.63,0,.52-.55.86-.75.97Z"/><path class="cls-2" d="M10.66,3.95c-.59-.39-1.23-.35-1.91-.35h-2.77c-.15,0-.46.07-.5.25l-1.43,6.05c-.03.12.14.16.22.16.58.02,1.17.04,1.75.06.16,0,.45-.07.5-.25.15-.53.31-1.05.46-1.58l-.58.24c1.38.42,2.93.12,4.02-.83.58-.5,1.04-1.19,1.06-1.98.02-.67-.22-1.33-.77-1.75-.2-.15-.87.13-.67.28,1.1.84.81,2.39-.1,3.24-.85.79-2,.97-3.09.64-.17-.05-.53.05-.58.24-.15.53-.31,1.05-.46,1.58l.5-.25c-.58-.02-1.17-.04-1.75-.06l.22.16,1.43-6.05-.5.25h2.51c.66,0,1.3-.1,1.88.29.2.13.86-.16.58-.35Z"/><path class="cls-2" d="M8.4,6.8c-.29.17-.52.21-.82.21-.21,0-.39-.03-.62-.09l.14.15c.17-.75.34-1.49.52-2.24l-.31.23c.06-.01-.12.02-.05,0,.03,0,.06-.01.1-.02.04,0,.08-.01.11-.01.03,0,.05,0,.08,0,.04,0,.09,0,.02,0,.12,0,.24,0,.36,0,.06,0-.02,0,.04,0,.03,0,.06,0,.09.01.07.01.14.03.21.05.45.15.94.69.67,1.2-.07.14-.16.23-.28.32-.03.02-.05.04-.08.06-.03.02,0,0,.01,0-.01,0-.03.02-.04.03-.05.03-.09.06-.14.09-.1.06-.21.21-.06.28s.38.01.51-.07c.56-.35,1.15-.94.75-1.63-.34-.59-1.02-.78-1.66-.77-.25,0-.5.03-.74.08-.11.02-.29.1-.31.23-.17.75-.34,1.49-.52,2.24-.02.09.07.13.14.15.78.21,1.64.13,2.34-.29.1-.06.21-.21.06-.28s-.38-.01-.51.07Z"/><path class="cls-2" d="M12.01,2.03c-.38,2.09-.76,4.18-1.15,6.28h1.52c.24-1.18.48-2.35.72-3.53.49,0,.97.02,1.46.03.13.08.32.23.37.46.05.2-.03.37-.06.43-.12.28-.28.95-.46,2.58.58.02,1.17.04,1.75.06.17-1.2.34-2.41.52-3.61,0-.08-.07-.49-.43-.77-.41-.32-.88-.24-.95-.23-.6-.06-1.2-.11-1.81-.17.08-.51.15-1.01.23-1.52h-1.72Z"/><path class="cls-2" d="M11.65,2.08c-.38,2.09-.76,4.18-1.15,6.28-.02.12.13.16.22.16h1.52c.15,0,.47-.07.5-.25.24-1.18.48-2.35.72-3.53l-.5.25c.32,0,.65.01.97.02.27,0,.48-.02.61.27.11.25-.05.5-.12.74-.21.75-.28,1.54-.37,2.31-.01.12.12.16.22.16.58.02,1.17.04,1.75.06.14,0,.48-.07.5-.25.11-.79.23-1.58.34-2.37.08-.55.31-1.19.05-1.71-.25-.48-.76-.72-1.29-.71-.66,0-1.32-.09-1.98-.15l.22.16c.08-.51.15-1.01.23-1.52.02-.12-.13-.16-.22-.16h-1.72c-.15,0-.41.05-.48.2s.06.21.2.21h1.72l-.22-.16c-.08.51-.15,1.01-.23,1.52-.02.13.13.15.22.16.62.06,1.28.19,1.91.17.47-.02.86.23,1.01.69.07.22,0,.43-.02.66-.05.33-.09.66-.14,1-.1.71-.2,1.41-.3,2.12l.5-.25c-.58-.02-1.17-.04-1.75-.06l.22.16c.09-.81.15-1.68.41-2.46.12-.35.19-.67-.11-.96-.23-.23-.44-.21-.75-.22-.37,0-.73-.01-1.1-.02-.15,0-.47.07-.5.25-.24,1.18-.48,2.35-.72,3.53l.5-.25h-1.52l.22.16c.38-2.09.76-4.18,1.15-6.28.05-.28-.68-.16-.72.09Z"/><path class="cls-2" d="M21.78,3.93c-.41-.29-.89-.28-1.09-.26-1.15-.03-2.29-.06-3.44-.09l-1.35,6.33c.54,0,1.09-.02,1.63-.03.1-.53.19-1.05.29-1.58h2.29c.2-.03,1.07-.16,1.72-.95.58-.71.6-1.48.6-1.69,0-.37.01-1.28-.66-1.75ZM20.63,6.22c-.14.47-.61.82-1.18.85-.4.03-.8.06-1.19.09l.4-2.31h1.12c.09.01.44.08.69.4.24.31.25.7.17.97Z"/><path class="cls-2" d="M22.07,3.74c-.6-.39-1.32-.3-2-.31-.89-.02-1.78-.04-2.68-.07-.16,0-.46.07-.5.26l-1.35,6.33c-.03.12.13.18.23.18.54,0,1.09-.02,1.63-.03.16,0,.46-.06.5-.26.1-.53.19-1.05.29-1.58l-.5.26h1.66c.35,0,.69.02,1.04-.06.72-.16,1.38-.56,1.83-1.14.75-.97.92-2.79-.15-3.6-.21-.16-.87.15-.57.37.85.65.69,2.21.17,3-.32.49-.84.86-1.41.96-.2.03-.63.01-.89.01h-1.4c-.16,0-.46.06-.5.26-.1.53-.19,1.05-.29,1.58l.5-.26c-.54,0-1.09.02-1.63.03l.23.18,1.35-6.33-.5.26c.81.02,1.61.04,2.42.06.63.02,1.41-.11,1.96.25.22.14.88-.17.57-.37Z"/><path class="cls-2" d="M20.27,6.26c-.05.15-.13.28-.24.37-.02.01-.03.03-.05.04-.02.01-.02.01,0,0l-.03.02s-.07.05-.11.07c.05-.03-.05.02-.07.03-.03.01-.04.01,0,0-.03,0-.05.02-.08.02,0,0-.08.02-.04,0s-.03,0-.04,0c-.05,0-.1.01-.15.01-.13,0-.26.02-.39.03-.26.02-.52.04-.78.06l.32.18.4-2.31-.5.26h.93s.06,0,.09,0c.11,0,.02-.01.03,0,.02,0,.05,0,.07.02.03,0,.07.02.1.03.04.01-.06-.03.02,0,.02.01.04.02.06.03.41.21.57.69.45,1.12-.05.16.22.19.32.18.15-.02.36-.09.41-.26.15-.54-.08-1.12-.58-1.4-.18-.1-.38-.16-.58-.16h-1.05c-.16,0-.47.06-.5.26l-.4,2.31c-.03.17.21.19.32.18.31-.02.61-.05.92-.07.29-.02.56-.04.83-.14.47-.16.88-.5,1.03-.99.05-.16-.22-.19-.32-.18-.16.02-.36.09-.41.26Z"/></g></svg>