<?xml version="1.0" encoding="UTF-8"?><svg id="Calque_2" xmlns="http://www.w3.org/2000/svg" viewBox="0 0 27.03 26.61"><defs><style>.cls-1{fill:#f1e2c3;stroke-width:0px;}</style></defs><g id="pinterest"><path class="cls-1" d="M9.63,25.8c.42.15,6.93,2.29,12.38-2.06,5.26-4.19,4.83-10.67,4.77-11.39-.05-.6-.7-7-6.53-10.39-.52-.3-5.58-3.13-11.39-.92C4.45,2.72.92,6.81.36,11.81c-.63,5.69,2.7,11.32,8.27,13.76-.14-1.04-.13-1.94-.07-2.68.14-1.73.57-2.62,1.07-4.97.22-1.05.36-1.96.46-2.68-.49-2.35.04-4.32,1.22-4.89.5-.24,1.33-.34,1.91.08.71.52.7,1.57.69,2.06-.02.96-.35,1.21-.69,2.42-.32,1.17-.71,2.55-.07,3.31.59.7,1.91.68,2.79.37,2.64-.94,2.93-5.07,2.94-5.26.05-.86.17-2.92-1.22-4.43-2.14-2.32-6.61-2.03-8.64.23-1.09,1.21-1.25,2.75-1.3,3.21-.22,2.02.61,3.54.92,4.05.25.93.16,1.69-.23,1.91-.4.23-1.02-.17-1.22-.31-1.66-1.08-2.78-4.47-1.76-7.41,1.04-3.01,3.86-4.26,4.59-4.59.84-.37,4.64-1.91,8.1.23,3.32,2.06,4.61,6.44,3.36,9.86-.1.26-1.73,4.55-5.49,4.84-1.91.15-3.4-.82-3.99-1.25,0,.77-.08,2.07-.69,3.52-.51,1.21-1.19,2.07-1.68,2.6Z"/><path class="cls-1" d="M9.96,25.79c-.2.22-.1.17-.12.21.33-.38.11-.2.12-.21Z"/><path class="cls-1" d="M12,21.42v.09c.03-.24.06-.48.07-.71-.02.21-.04.42-.07.63Z"/><path class="cls-1" d="M14.44,20.98c-.2-.08-.61-.18-1.03-.35-.41-.15-.95-.44-1.11-.57l-.08-.07-.08-.02.02.13v-.09c.11.07.2.13.37.23.22.13.46.24.69.34.46.2.91.33,1.23.4Z"/><path class="cls-1" d="M16.91,21.08c-.16,0,.53-.12-.58.1.05,0,.07,0,.11,0,.1-.02.24-.02.47-.09Z"/><path class="cls-1" d="M16.44,21.18c-.49.07.33-.02,0,0h0Z"/><path class="cls-1" d="M18.55,20.34l-.55.35c.13-.05.63-.34.45-.22.56-.38.42-.33.1-.12Z"/><path class="cls-1" d="M19.02,19.94l-.26.21c.05-.03.12-.08.26-.21Z"/><path class="cls-1" d="M18.17,20.55c.2-.13.41-.24.59-.4-.08.04-.1.04-.26.19.04-.05-.07.04-.33.21Z"/><path class="cls-1" d="M17.8,20.72c-.34.13-.78.3-.19.03-.57.24-.83.28-.78.29.04-.02.41-.05.97-.32Z"/><path class="cls-1" d="M14.69,20.95c-.15-.03-.31-.07-.45-.12-.13-.03-.27-.06-.4-.09.19.07.87.25.85.21Z"/><path class="cls-1" d="M21.22,17.4s-.14.17-.18.2c-.07.14-.15.28-.23.41.15-.19.38-.59.42-.61Z"/><path class="cls-1" d="M21.03,17.6c.11-.2.21-.42.31-.63-.29.55-.35.65-.31.63Z"/><path class="cls-1" d="M19.06,19.81c-.29.25-.59.49-.93.69.4-.24.77-.52,1.09-.84l-.17.15Z"/><path class="cls-1" d="M22.14,14.85l-.05.4c.04-.24.07-.48.08-.72l-.02.31Z"/><path class="cls-1" d="M22.25,13.06c.04.3.03-.41.06-.1-.03-.49-.1-.91-.2-1.27.09.39.15.82.14,1.37Z"/><path class="cls-1" d="M21.94,11.09c.07.19.11.39.17.61-.05-.21-.09-.41-.17-.61Z"/><path class="cls-1" d="M21.8,15.86c.02-.05.1-.14.19-.52-.03.09-.06.18-.11.26-.03.08-.05.17-.08.27Z"/><path class="cls-1" d="M21.88,15.6h0c.08-.3.11-.51.14-.59-.02.07-.05.26-.14.59Z"/><path class="cls-1" d="M21.78,15.93s.01-.04.02-.07c-.01.02-.02.04-.02.07Z"/><path class="cls-1" d="M20.34,18.51c.24-.34.66-1.07.19-.4-.15.26.15-.12-.19.4Z"/><path class="cls-1" d="M21.62,16.24c-.1.23-.2.45-.31.67.02,0,.09-.12.01.07.11-.24.21-.49.3-.74Z"/><path class="cls-1" d="M21.73,15.88c-.03.12-.06.23-.1.35.04-.09.06-.18.09-.26v-.09Z"/><path class="cls-1" d="M22.14,12.36c-.05-.32-.12-.67-.2-1.06.08.42.16.85.19,1.27.02.06.07.24.01-.22Z"/><path class="cls-1" d="M22.17,13.94s0-.05,0-.07c0,.04,0,.08,0,.07Z"/><polygon class="cls-1" points="20.22 7.8 20.26 7.86 20.27 7.86 20.22 7.8"/><path class="cls-1" d="M22.13,12.64c.01.32.02.51.05.69-.02-.24-.02-.49-.05-.77,0-.03-.01-.03,0,.07Z"/><path class="cls-1" d="M21.58,10.05c.05.17.11.35.17.53-.04-.16-.14-.48-.17-.53Z"/><path class="cls-1" d="M22.18,13.76v.05c.01-.11,0-.09,0-.05Z"/><path class="cls-1" d="M22.18,13.76c0-.17,0-.3-.01-.43,0,.19,0,.37,0,.53,0-.03.01-.07.02-.11Z"/><path class="cls-1" d="M19.23,7.13c.06,0,.69.55,1.07,1.16.41.56.29.1-.04-.44-.03,0-.02-.01-.54-.53.2.17.98,1.29.59.82-.62-.74-.49-.61-.81-.97.27.29-.96-.77-.86-.55.22.16.44.34.66.51,0,.01-.24-.17-.07,0Z"/><path class="cls-1" d="M21.03,9.03c.05.09.11.17.15.26-.17-.3-.25-.54-.49-.93-.3-.41-.39-.48-.42-.5.31.39.58.81.82,1.25l-.06-.09Z"/><path class="cls-1" d="M21.71,10.55c-.12-.21-.39-.88-.28-.45.31.82.23.57.41,1.07-.4-1.37.14.39-.13-.61.09.27.16.51.22.74-.06-.25-.12-.49-.18-.72v.03s0,0,0,0h0c.01.06.01.08,0,.01,0,0,0-.02,0-.03,0,0-.02-.03-.04-.06-.14-.39-.01-.07.04.06,0,0,.01.01.01.01h0c-.16-.46-.35-.9-.57-1.33.12.28.3.62.52,1.26Z"/><path class="cls-1" d="M20.85,17.42s.03-.03.03-.03c.04-.08.06-.11-.03.03Z"/><path class="cls-1" d="M21.15,16.92c-.04.09-.06.18-.23.47-.16.24-.02-.01-.04,0-.09.18-.33.62,0,.09l.05-.09c.3-.48.64-1.14.6-1.05-.1.14-.18.26-.38.59Z"/><path class="cls-1" d="M22.05,13.77c.02-.39-.01-.79-.05-1.18.01.2,0,.4,0,.6l.02-.03c0,.67,0,.53.03.61Z"/><path class="cls-1" d="M20.15,7.68l.14.09c-.17-.16-.32-.34-.51-.48.13.12.25.25.37.39Z"/><path class="cls-1" d="M19.04,6.59h.07c-.11-.07-.22-.16-.34-.23.1.07.18.15.27.23Z"/><path class="cls-1" d="M7.89,25.47l-.32-.14c.15.07.24.11.32.14Z"/><path class="cls-1" d="M8.76,23.8l-.02-.06c0,.11.02.16.02.06Z"/><path class="cls-1" d="M10.75,8.18c.45-.18.98-.27.91-.3-.05,0-.1,0-.15,0-.31.12-.56.2-.75.3Z"/><path class="cls-1" d="M13.36,14.42l-.06.13c-.02.12-.04.23-.06.34.03-.14.07-.3.12-.47Z"/><path class="cls-1" d="M13.32,14.03l.26-.6c-.07.15-.15.34-.26.6Z"/><path class="cls-1" d="M.1,14.73l-.09-.4c.06.64.06.36.09.4Z"/><path class="cls-1" d="M5.39,10.03c-.19.4-.3.75-.39,1.05.16-.52.37-.9.39-1.05Z"/><path class="cls-1" d="M8.36,25.08c.01.07.03.12.04.14,0,0,0,0,0,.01,0,0,.01,0,0,0-.02-.11-.03-.16-.04-.15Z"/><path class="cls-1" d="M4.8,12.34c0-.08.02-.15.03-.23.03-.33.08-.65.17-1.04-.11.38-.2.83-.21,1.27Z"/><path class="cls-1" d="M25.61,19.63l-.06.1s.02-.03.06-.1Z"/><path class="cls-1" d="M13.73,26.26c.14,0,.37,0,.58,0-.1,0-.28.02-.58,0Z"/><path class="cls-1" d="M13.13,4.9c.33-.03.05,0,0,0h0Z"/><path class="cls-1" d="M14.73,5.05c-.07,0-.12,0-.13.01.03,0,.07-.01.13-.01Z"/><path class="cls-1" d="M5.47,15.52v.03c-.02-.09-.01-.08,0-.03Z"/><path class="cls-1" d="M13.63,4.88c-.13,0-.27.01-.42.02.07,0,.2,0,.42-.02Z"/><path class="cls-1" d="M13.56,4.86c.11,0,.2,0,.29,0,.04,0,0-.02-.29,0Z"/><path class="cls-1" d="M12.67,4.96c.19-.02.36-.05.53-.06-.07,0-.09,0-.08,0-.1,0-.23.03-.46.06Z"/><path class="cls-1" d="M14.3.1s.04,0,.07,0c.33,0,.18,0-.07,0Z"/><path class="cls-1" d="M18.33,9.48l-.02-.03s.02.03.02.04h0Z"/><path class="cls-1" d="M18.85,10.57c-.21-.47-.33-.74-.52-1.08.03.14.06.27.08.41.16.21.31.43.44.67Z"/><path class="cls-1" d="M3.17,21.76l.52.64c-.74-.69-1.12-1.32-.7-.65.08,0,.61.63,1.19,1.18.57.57,1.22,1.05,1.3,1.04.13.13.28.23.42.34-.13-.09-.15-.1-.28-.19.84.66.69.39,1.85,1.09.21.11.38.21.49.27.14.08.14.08-.08-.01l1.01.46-.07-.52c-.05-.46-.01-.35.04.14l-.07-.64-.03-.41c-.02-.26-.02-.52-.02-.78h0c-.02-.21-.03-.72-.02-.97.06-.39,0,.2.02.1.01-.29.04-.58.07-.86.1-.34,0,.37-.05.96.23-.79-.02-.72.48-2.41l-.18.8c.19-.5.34-1.12.62-2.03-.08.22-.59,1.79-.38.86.08-.26.18-.6.27-1.11.05,0,.16-.49.29-1.11l.05.06c.1-.68.06-.63.1-1.03.14-.75.21-.9.28-1.07.22-1.21-.22.83.01-.62,0-.24-.04-.28-.05-.42-.02-.11-.03-.22-.05-.33-.03-.22-.05-.43-.07-.65-.03-.44-.04-.91.06-1.48.17-.65,0,.12.08-.11.03-.2.07-.39.13-.58.05-.14.05-.08.05-.06.21-.44-.08-.09.35-.74.04-.09.34-.4.81-.52.48-.13,1.08-.08,1.47.15.17.14-.11-.03-.07.03.49.33.54.67.62.89.07.24.12.47.14,1.04-.02.32-.08.62-.21.91.26-.65.05.21-.22,1,.11-.24.21-.44.27-.56-.15.4-.28.81-.38,1.23-.05.15-.04.02,0-.19-.02.08-.03.17-.05.23-.14.44-.12.2-.06-.13l.17-.44c.06-.32.14-.61.08-.56-.03.1-.08.25-.13.41.02-.08.03-.14,0-.1-.02.04-.05.17-.1.38l-.15.27v.08c-.15.54-.32,1.09-.4,1.68-.02.61.06,1.33.65,1.77.58.4,1.4.45,2.33.24-.46.15-.09.11-.1.17-.27.02-.65.08-1.1.05-.44-.03-1.01-.15-1.38-.6.42.41.33.32.19.25.57.41,1.24.43,1.84.37-.04.05.4.02.88-.12-.19.01.14-.11.57-.33.42-.25.87-.69,1.09-.99.03,0,.02.03-.07.15-.09.13-.26.34-.63.63.43-.29.62-.57.79-.84.19-.34.3-.54.54-.99-.09.2-.16.3-.18.38.26-.45.66-1.63.59-1.35l-.07.21c.24-.69.49-1.77.5-2.73.03-.95-.14-1.75-.21-1.84,0-.02.14.17.17.25-.23-.85-.65-1.65-1.26-2.23.19.15-.2-.69.56.28-.18-.3-.43-.68-1.03-1.15.19.16.37.48.13.26-.65-.61-.43-.46-1.4-1,.32.17-.08.07-.61-.08.09,0-.01-.12.19-.07-.46-.1-.93-.17-1.39-.16.35.01.07-.09-.24-.15.07.01-.23,0-.6,0-.37.01-.8.05-.99.1.2-.03.39-.05.59-.05-.79.06-1.16.23-1.52.36-.35.17-.71.31-1.36.71.15-.11.33-.38-.36.05-.28.25-1.14,1.22-1.51,2.5l-.11.23c-.09.33-.15.66-.19,1,0-.32.05-.93.26-1.57.19-.64.57-1.28.93-1.65-.23.2-.26.23-.32.29-.05.06-.15.14-.39.52-.2.25.22-.45.42-.64-.48.53-.83,1.17-1.06,1.83.05-.03-.07.35-.14.75-.07.4-.09.79-.06.76.05-.74.22-1.49.53-2.19.09-.06-.44,1.26-.46,2.71-.04.37-.11-.28-.13-.25-.03.19.06,1.39.1,1.53-.05-.2-.08-.41-.11-.62.05.83.27,1.31.58,2.24.06.13.16.38.25.59.05.1.1.2.09.2.01.05.03.11.04.12.01-.21-.06-.38,0-.47.04-.08.14-.06.25.08.08.06.15.52.16.99.03.48-.2,1.01-.42,1.08-.27.09-.06,0,.04-.17.09-.17.1-.37.01-.2.02.03-.1.25-.19.27-.13.03-.11,0-.12,0-.02-.02-.05.02-.37-.07-.16.08-1.24-.77-.33-.09-.6-.37-.64-.42-1.15-1.08.12.26-.59-.54-.84-1.25.03.03,0-.13-.03-.21-.24-.71-.33-1.29-.37-1.86-.04-.56-.04-1.12.07-1.81.02-.13.2-.78.16-.49.02-.2.06-.38.19-.79.18-.38.09-.15,0,.09-.07.25-.15.53-.02.24-.05-.07.3-1.06.62-1.59-.19.11-.68,1.25-.77,1.86-.06,0,.03-1.13.89-2.39.71-.95.36-.37.48-.54.75-.81,1.14-1.1,1.46-1.38.33-.27.64-.51,1.49-.89.69-.25.07.08.24.05-.86.42-1.32.65-1.84,1.03.22-.15.45-.29.68-.42-.26.17-.77.55-1.04.76.25-.18.98-.75,1.95-1.2.95-.47,2.12-.8,2.96-.91.29-.07.81-.14.56-.13-.18.02-.35.05-.53.08-.5.02,1-.19.32-.13.71-.12,1.55-.2,2.56,0l.18.1s-.66-.15-.95-.15c.44-.01,1.54.31,1.99.42-.23-.08-.45-.19-.68-.25.72.15,1.61.43,2.37.96-.31-.29-.18-.11-.72-.5.23.17-.29-.11-.8-.31-.52-.18-1.01-.31-.58-.14-.63-.24-1.13-.31-2.01-.41.03.03.31.03-.46.03-.05,0-.12.01-.17.02-.02,0-.03,0-.05,0h.04s-.04,0,.02,0c.18,0,.33.01.39.02-.39.02-1.6.15-1.99.28-.45.08.18-.06-.07-.03-.2.06-.39.12-.59.18-.07-.03-1.18.29-.16-.06-.31.09-.62.19-.92.31-.55.18-1.26.52-1.66.79-.41.22-.93.69-.63.43-.41.3-.79.64-1.15,1.01h-.02c-1.07,1.08-1.8,2.59-2.06,4.3-.03.51-.06,1.04.03,1.88v.17c.06.65.44,1.93.63,2.16.1.34.47,1.09,1.16,1.69.37.29.72.54,1.21.66.23.06.56.04.79-.14.23-.18.31-.39.36-.55l-.03-.06c.11-.45.06-.86-.02-1.27-.03-.12-.04-.17-.09-.35-.06-.1-.11-.19-.17-.29-.1-.18-.2-.37-.29-.58l-.02.07c-.36-.72-.6-1.99-.44-3.24,0,.09-.03.4-.04.63.07-.75.19-1.54.46-2.25.26-.72.71-1.35,1.25-1.76.25-.22.45-.36.67-.47-.03.02-.05.03-.07.05.03-.02.07-.04.12-.07.13-.08.27-.13.42-.2-.13.05-.26.09-.36.16.23-.13.58-.31.94-.44h.17s.05-.03.08-.04c.37-.08.29-.1.08-.08.18-.06.34-.11.49-.16.32.02,1.02-.19,1.45-.08.13-.02.62-.02,1.1.06.48.06.94.21,1.05.21,0,.02.11.06-.08-.02.41.17.79.36,1.13.57l.11.16c.28.15.51.37.75.58.34.48.43.69.07.25.42.53.53.81.63,1.04.09.24.19.45.33,1.03l-.05-.05c.09.41.16,1.1.12,1.36-.04.48-.1,1.67-.56,2.96-.23.64-.56,1.3-1.02,1.82-.45.53-1.05.87-1.62,1,.24,0-.03.07-.38.1-.35.04-.75,0-.8.03-.14-.04-.44-.12-.07-.08-.59-.06-.95-.32-1.11-.63-.17-.31-.2-.66-.2-1.08.04-.13.02.26.05.14,0-.09,0-.38.04-.5.04-.12,0,.18,0,.37.15-1.22.2-1.38.12-1.48.21-.63.3-.92.43-1.38.11-.2.28-.55-.01.2.06-.2.43-.84.44-1.54.05-.66-.08-1.28-.13-1.29,0-.15-.23-.64-.34-.72-.36-.43-.69-.51-.97-.58-.29-.04-.59-.07-1.1.08.09-.03.19-.05.29-.06-.36.16-.89.25-1.37.96v-.02c-.27.4-.36.68-.42.86-.06.19-.08.29-.1.39-.03.2-.1.39-.16,1.32l.05-.1c.05.09.03.49.07,1.01.01.24.07.58.09.8-.05.27-.11.56-.14.82l.09-.37c-.06.58-.41,1.56-.52,2.13-.03.12.02-.2.04-.37-.35,1.47.04.21-.19,1.31-.08.19-.02-.28-.21.45-.1.36-.51,2.15-.67,3.21.05-.23.11-.45.06.08-.04.41-.1.96-.11,1.5,0,.27,0,.54.02.79.02.2.03.24.07.39,0,.02,0,.04,0,.04,0,0-.02-.02-.02-.02-.07-.03-.16-.07-.26-.11-.12-.06-.4-.17-.59-.28-.38-.21-.73-.39-.95-.52-.19-.22-.98-.74-1.65-1.31-.66-.57-1.21-1.16-1.15-1.21-.22-.22-.41-.47-.59-.72-.2-.24-.38-.49-.55-.76l.04.03c-.33-.5-.53-.85-.68-1.12-.16-.26-.27-.44-.37-.63-.1-.26,0-.08,0-.06-.65-1.62-.69-1.79-1.06-3.21l.02-.16c-.06-.19-.12-.82-.13-1.62-.03-.8.08-1.75.19-2.6,0,.02,0,.05,0,.19.13-.95.49-2.06.92-2.96.41-.91.89-1.61,1-1.95.21-.37.47-.7.72-1.05-1.02,1.31.08-.25-.35.28.38-.53,1.14-1.25.61-.65l-.09.09c-.05.15.27-.26.66-.63.37-.4.83-.76.82-.72C7.42,1.42,10.6.35,13.62.42l-.35-.07c.35,0,.71,0,1.06.03.28.04.37.08-.38.03.2.03.51.05.78.05.27,0,.49.02.5.01,1.46.24-.58,0-.13.07l.61.08-.14-.03c.49.06.55.01,1.43.24.55.16.27.12.49.19,0,0,.07.03.33.1.42.14.84.3,1.24.48l-.47-.26c.56.19,1.15.51.62.19.4.21,1.5.81,2.43,1.56.49.35.89.78,1.24,1.1.32.35.55.62.64.73.55.62,1.04,1.29,1.5,2.19-.11-.23-.12-.4.28.39-.13-.12.03.26.24.74.2.49.41,1.11.47,1.46-.07-.31.13.28.28.84.15.56.24,1.08.2.58.13.72-.03.05.03.6.31,1.7.03,3.84-.59,5.87,0,.04.15-.29.02.15-.15.35-.3.7-.48,1.03-.16.39-.05.41-.46,1.06.06-.09.16-.22.03.03-1.02,1.83-2.52,3.45-4.36,4.58-.91.58-1.92.99-2.94,1.3-1.04.28-2.11.43-3.17.43.58.02.19.03-.25.05.29,0,0,.04.05.07-.6,0-1.19-.05-1.78-.13-.34.07-1.9-.27-2.09-.27l.56.11c-.76-.07,1.01.36.9.41.85.03,2.26.34,3.67.05.31,0-.26.06-.09.06.5-.09.82-.15,1.57-.29l-.09.03c.55-.13,1.02-.25,1.44-.41.43-.13.81-.3,1.19-.47.77-.34,1.54-.78,2.56-1.54-.06.03-.12.05-.18.08.4-.32.51-.41.72-.57.43-.46-1.17.99-.79.56.31-.19,1.06-.79,1.68-1.5.63-.69,1.13-1.44,1.3-1.63.45-.71-.17.18.26-.53l.13-.18.07-.21c.27-.48.4-.73.43-.74-.06.12-.14.36-.21.48.36-.63.76-1.87.82-2.11-.08.26-.18.51-.27.76.76-2.16,1.17-5.01.61-7.2v.17c-.17-.82-.27-1.14-.36-1.49-.1-.34-.19-.71-.55-1.57l.03.06c-.17-.33-.37-.78-.62-1.22.25.4-.38-.8-.06-.27-.99-1.54-.49-.77-1.26-1.7l-.14-.24c-.31-.28-.31-.32-.97-.96.57.5-.39-.45.26.11-1.33-1.45-2.28-1.76-2.98-2.32-.42-.16-.04.03.35.29.39.26.83.53.61.41.32.27-.64-.36-1.18-.64-.55-.27-.88-.61-2.37-1.08.14.04.16.05.31.09-.55-.2-1.11-.29-1.8-.46-.4-.03-.92-.14-1.04-.08.47.05.94.12,1.41.22-.8-.15-1.56-.18-2.88-.25.1-.02.5-.04.77-.02-.39-.06-.75,0-1.15-.04.11-.09,1.74,0,2.61.11-.41-.11-1.64-.13-1.2-.17-.63.04-1.55-.08-2.6.1l.06-.06c-.17.03-.51.11-.81.15l.54-.14c-.84.17-1.65.24-2.43.54,1.66-.5.39-.06,1.1-.22-1.02.27-1.3.4-1.64.46-.32.11-.7.17-1.75.74.28-.16,1.1-.52.65-.28-.42.18-.94.47-1.2.59-1.32.88.22-.1-.32.3-.48.25-.63.46-1.15.9l-.03-.03c-1.36,1.17-.31.37-1.46,1.49.13-.19.28-.36.42-.54-.2.2-.39.41-.56.63l.07-.17c-.57.72-.76.94-1.27,1.68.15-.15-.02.13-.4.83-.28.46.09-.3-.41.71.07-.25.17-.51.46-.92.01-.05.09-.24.11-.29-.16.24-.34.57-.51.87-.14.31-.28.61-.37.8.07-.14.15-.29.2-.4-.22.5-.39,1.02-.54,1.55-.09.24-.05.04,0-.16-.09.32-.15.54-.26,1.02,0-.13-.07-.12.12-.79-.15.5-.25,1.02-.34,1.53-.03.1-.17.79-.15.59-.14.86-.11,2.14.03,3.28.02.06.02.18.08.42.16,1.07.38,2.02.91,3.18l.23.69c.48.88-.39-.9.43.55.6,1.01.17.41.37.78.34.48.99,1.27,1.69,2.09-.25-.26-.43-.47-.65-.72ZM9.3,20.21c-.05.23-.14.69-.2.85,0-.27.09-.46.2-.85ZM12.81,16.13c.02-.18.09-.44.18-.73-.05.22-.11.44-.18.73ZM9.67,5.9h-.02c-.49.23-.32.15.02,0ZM10.71,5.5c.1-.04.09-.05.05-.04-.07.04-.31.12-.57.22.08-.02.21-.06.52-.19ZM17.61,1.04l-.2-.07c.46.13.33.1.2.07Z"/><path class="cls-1" d="M13.32,14.08c.03-.06.05-.07.06-.09.03-.09.02-.1-.06.09Z"/><path class="cls-1" d="M.12,14.8v-.04s-.01-.03-.02-.04l.02.07Z"/><path class="cls-1" d="M8.28,18.15c.12-.05.18-.15.21-.2-.01-.03-.03.1-.21.2Z"/><path class="cls-1" d="M16.54,5.2c-.23-.08-.47-.13-.7-.17.34.07.46.11.63.18-.01-.02-.14-.07.08,0Z"/><path class="cls-1" d="M20.93,9.31c.06.09.09.19.14.28v-.04c-.17-.4-.37-.64-.14-.25Z"/><path class="cls-1" d="M17.11,5.58c.04.06.45.21.88.46l-.08-.04c.15.03-.31-.25-.81-.42Z"/><path class="cls-1" d="M18.09,6.09c.14.07.26.17.38.25.06.02-.15-.12-.38-.25Z"/><path class="cls-1" d="M12.06,5.1c.23-.03.14-.08.27-.09.24-.12-1.53.4-.27.09Z"/><polygon class="cls-1" points="17.42 5.86 17.28 5.74 17.01 5.67 17.42 5.86"/><path class="cls-1" d="M13.67,5.09c.26,0,.52-.01.78.02-.01,0,.09,0,.21,0-.48-.04-1.01-.02-.99-.01Z"/><path class="cls-1" d="M14.66,5.1c.25,0,.49.05.63.06-.14-.02-.43-.06-.63-.06Z"/><path class="cls-1" d="M16.42,5.49l-.22-.08c-.18-.05-.36-.08-.54-.13.25.06.51.11.75.21Z"/><path class="cls-1" d="M6.35,8.75c-.17.23-.32.48-.46.73-.03.08.1-.11.26-.39.11-.17.29-.44.2-.34Z"/><path class="cls-1" d="M8.29,7.07c-.19.12-.21.13-.32.19l.02.06.31-.26Z"/><path class="cls-1" d="M6.53,8.76c-.05.07-.64,1.03-.05.15.02-.09.55-.74.05-.15Z"/><path class="cls-1" d="M8.74,17.16c0,.07,0,.14,0,.21l.1-.03-.11-.18Z"/><path class="cls-1" d="M11.28,7.4c-.99.35-.22.13-1.08.51-.21.13.7-.32.49-.19.57-.27.89-.35.6-.32Z"/><path class="cls-1" d="M10.68,7.72c-.09.05-.18.1-.28.15.15-.08.23-.12.28-.15Z"/><path class="cls-1" d="M11.41,25.98c-.21-.04-.42-.09-.62-.14.13.04.26.08.4.12l.23.03Z"/><path class="cls-1" d="M10.19,25.79l-.13-.1-.38-.06c.13.04.34.11.51.16Z"/><path class="cls-1" d="M9.86,18.48v-.05c-.04.1-.08.24-.15.54l.15-.49Z"/><polygon class="cls-1" points="7.12 25.14 7.26 25.22 7.04 25.02 7.12 25.14"/><path class="cls-1" d="M1.76,19.93c.14.28.37.56.53.83-.39-.55-.51-.94-.53-.83Z"/></g></svg>