<?xml version="1.0" encoding="UTF-8"?><svg id="Calque_2" xmlns="http://www.w3.org/2000/svg" viewBox="0 0 63.1 70.86"><defs><style>.cls-1{fill:#260801;stroke-width:0px;}</style></defs><g id="patience"><path class="cls-1" d="M20.22,2.58c.79,17.65,1.57,35.3,2.36,52.95.23,5.06.45,10.11.68,15.17.02.55,4.61-.53,5-.63,1.14-.29,2.29-.6,3.39-1.03.27-.1,1.33-.41,1.32-.77-.79-17.65-1.57-35.3-2.36-52.95-.23-5.06-.45-10.11-.68-15.17-.02-.55-4.61.53-5,.63-1.14.29-2.29.6-3.39,1.03-.27.1-1.33.41-1.32.77h0Z"/><path class="cls-1" d="M7.35,40.67c17.76-2.86,35.69-4.67,53.66-5.42.68-.03,1.7-.3,2-1.02s-.25-1.63-.72-2.12c-1.6-1.7-4.22-2.76-6.55-2.66-17.98.75-35.9,2.56-53.66,5.42-.7.11-1.68.24-2,1.02-.29.73.25,1.63.72,2.12,1.45,1.53,4.36,3.01,6.55,2.66h0Z"/></g></svg>