<?xml version="1.0" encoding="UTF-8"?><svg id="Calque_2" xmlns="http://www.w3.org/2000/svg" viewBox="0 0 55.65 15.5"><defs><style>.cls-1{fill:#f1e2c3;stroke-width:0px;}</style></defs><g id="b2"><path class="cls-1" d="M10.04,15.05s-.12.04-.16.08c-.06.02-.08.08-.14.08-.12.02-.24.02-.32-.04-.34.08-.64.02-.94.08-.1.02-.18.12-.28.16-.16.04-.26.02-.42.02-.1-.08-.16-.22-.22-.32-.08-.08-.16-.16-.22-.24-.06-.06-.08-.16-.14-.22-.02-.04-.04-.1-.08-.14-.1-.1-.2-.32-.26-.48-.08-.1-.16-.22-.24-.34-.08-.1-.2-.22-.26-.32-.04-.1-.04-.2-.08-.3-.08-.16-.24-.28-.26-.46-.1-.1-.16-.26-.34-.3-.06-.18-.2-.28-.28-.46-.04-.06-.08-.16-.12-.26-.04-.08-.04-.18-.1-.26-.08-.14-.26-.18-.3-.36-.2,0-.22-.18-.4-.2-.14-.26-.34-.46-.5-.72-.38-.18-.6-.54-1-.72-.06-.14-.18-.2-.36-.22-.12.18-.06.44-.08.68-.02.3-.1.58-.18.78-.04.14.08.12.06.26-.02.08-.08.2-.06.28,0,.12.1.24.1.42.02.18-.08.52-.1.72,0,.04.02.1.02.16s-.02.08-.02.12c0,.18,0,.34-.02.52,0,.06.04.14.02.2,0,.1-.08.2-.1.32,0,.06.04.08.04.12,0,.06-.04.06-.04.1,0,.08.04.16.02.22-.02.28-.12.38-.08.66.02.06.02.1.04.16,0,.02.04.06.02.12-.02.18-.26.28-.26.44-.3-.02-.54.14-.78,0-.18.06-.46.12-.7.1-.04,0-.1.02-.14,0-.02-.02-.02-.06-.06-.06-.08-.02-.16.06-.2,0s-.04-.14-.12-.18c.08-.34-.08-.66.12-.9,0-.08-.04-.16-.02-.26,0-.06.02-.12.02-.18,0-.12-.06-.22-.06-.32.02-.08.08-.16.08-.24.02-.12-.06-.28-.06-.44,0-.14.04-.3.04-.42,0-.14-.1-.3-.02-.46.06-.1.02-.34.02-.54,0-.12.02-.24.04-.36,0-.14-.02-.28-.02-.42,0-.06.04-.16.02-.22,0-.08-.06-.04-.06-.16,0-.08.04-.18.04-.26.02-.14,0-.28.02-.46,0-.1-.04-.22-.02-.32,0-.04.02-.12.02-.16,0-.08-.04-.12-.06-.2,0-.08.04-.16.04-.26,0-.18-.08-.5-.08-.7,0-.06,0-.14.08-.2-.06-.04-.04-.18-.1-.22.02-.12.06-.24.08-.36,0-.18-.04-.34,0-.62.02-.06.08-.14.08-.22,0-.1-.04-.22-.02-.32,0-.24.04-.52.08-.78-.04-.02.02-.12.02-.16.02-.06-.02-.14-.02-.22,0-.18.08-.32.04-.52,0-.06-.02-.16-.02-.28,0-.06.04-.12.04-.16-.02-.1-.06-.2-.06-.3,0-.06.04-.08.04-.12,0-.06-.04-.06-.04-.1.04-.1,0-.12,0-.22.02-.2.04-.32.02-.56,0-.04-.04-.12-.04-.12,0-.06.06-.06.04-.1,0-.08-.06-.2-.12-.3.04-.16,0-.38.02-.58,0-.06.04-.16.04-.22-.02-.06-.04-.1-.06-.16-.02-.04-.02-.12-.04-.16-.02-.1-.08-.22-.08-.3C.04.51.12.37.2.25c.06-.04.12-.08.22-.06.06-.06.12-.14.2-.18.22-.04.3.08.42.14.22-.06.44-.02.72-.06.06,0,.1-.04.16-.06.08,0,.16.04.22.04s.14-.04.2-.06c.14-.02.32,0,.48.02h.16s.06.04.1.04c.14-.04.24.02.32.04.22.02.44.02.64.04s.42.04.64.1c.08.02.16.1.24.12.1.02.26,0,.38.04.28.06.56.2.84.26.14.04.32.08.44.18.34,0,.66.08.86.18.12.04.32.08.42.18.12.1.24.18.34.28.02.02,0,.06,0,.08.04.02.1,0,.14.02.02.04.02.1.06.14s.08.06.12.1.06.1.1.12c.02.04.08.02.1.04.02.04.08.12.16.14.06.2.22.28.34.42.02.02,0,.08.02.1s.06.02.08.04c.04.08.02.2.12.26.06.06-.04.08,0,.18.12.26.1.62.3.8-.02.22.06.38.14.54-.06.12,0,.26,0,.38,0,.14-.12.28-.02.36-.1.32-.18.68-.36.94-.04.04-.06.14-.18.14.02.16-.1.18-.1.32-.18.12-.28.24-.42.42-.08.1-.14.14-.26.22-.04.02-.08.08-.1.1-.08.04-.18.06-.26.12-.06.08-.12.04-.14.06-.04.02-.06.08-.1.1-.08.04-.18.08-.26.12-.02.02-.06.08-.1.1s-.1.04-.12.06c-.24.1-.54.18-.78.36-.14-.04-.26.08-.42.12-.2.06-.36-.02-.4.16-.04.18.16.24.32.36.06.14.14.28.3.32.04.04.06.1.04.16.18.02.14.22.32.24.04.1.1.18.16.26.02.06.1.08.14.14.04.02.02.06.04.1.02.02.08,0,.1.02.02.04,0,.1.02.14.02.02.06.02.06.06.1.16.22.36.28.56.08.08.16.14.26.22,0,.1.06.14.06.24.16.18.38.34.44.62.08.04.12.14.22.16.08.26.28.44.44.66.04.08.1.14.16.2.1.14.18.28.28.42.02.04.06.06.08.1.06.1.08.26.22.3.02.12.12.16.1.32.1.06.2.12.32.18.04.18.1.32.06.48-.04.08-.12.16-.24.24ZM7.48,4.29c-.04-.08-.02-.18-.04-.22-.02-.08-.1-.12-.16-.2-.06-.12-.12-.22-.18-.26-.08-.06-.12-.16-.2-.18,0-.06-.06-.08-.06-.18-.14.02-.14-.1-.28-.08-.04-.16-.28-.14-.34-.3-.2-.02-.32-.12-.46-.2-.08.02-.14.08-.26.06-.12-.02-.22-.08-.34-.1-.06-.02-.12.02-.18.02-.08,0-.2-.06-.28-.06-.1-.04-.22-.08-.32-.08-.2-.02-.44.04-.68.06-.44,0-.86-.08-1.26-.04-.04.1.06.16.06.26,0,.08-.04.12-.04.2.02.08.06.18.06.28s-.04.2-.04.2c.04.18.04.3.04.38-.04.34-.02.66-.04,1,0,.38-.02.66-.04.98,0,.06.02.1.02.16,0,.1-.06.16-.06.26-.02.16,0,.3.04.44.26.08.58.06.72.06.06,0,.06.02.12.02s.06-.02.14-.02c.26.02.48.08.74.04.1,0,.24-.02.36-.04.04-.02.06-.06.12-.08.08,0,.16.02.22.02.06-.02.08-.06.14-.06.12-.04.2-.04.26-.06s.12-.04.16-.06c.14-.06.3-.12.42-.16.04,0,.08.02.1,0,.02,0,.06-.06.06-.06.18-.06.36-.12.52-.14.08-.22.4-.18.44-.46.08-.04.2-.02.22-.12.08-.24.14-.52.28-.7-.02-.2.06-.22.1-.42-.02-.06-.06-.1-.08-.16Z"/><path class="cls-1" d="M22.68,9.63c.02.18.08.26,0,.42-.06.1-.26.14-.3.22-.16-.06-.36-.02-.48.02-.18-.14-.6-.04-.78-.18-.08.04-.16.06-.22.06-.36.04-.78-.06-1.2-.12-.28-.02-.62-.02-.86-.02-.1.02-.2.04-.3.04-.2-.02-.38-.14-.58-.14-.14-.02-.32.04-.48.04-.1,0-.22-.02-.32-.04-.04,0-.1.04-.14.04-.06-.02-.1-.04-.16-.04-.18,0-.36.08-.5-.08-.1.08-.16.1-.34.1-.12-.02-.2-.04-.24-.04s-.1.06-.1.06c-.08,0-.2-.08-.3.02-.04-.06-.2,0-.26-.06-.08-.04-.06.06-.12.06-.22-.1-.4-.02-.62-.02-.2,0-.4-.08-.68-.04-.1.24-.06.64.08.86.02.14-.04.2-.04.3.02.04.08.04.1.06s0,.08.02.1c.1.12.24.22.32.36.12.2.34.36.48.6.06.12.16.2.24.32.2.04.34.16.52.28.02.02.08.04.12.06.16.1.24.22.42.3.12.04.2.02.26.04.12.04.3.24.48.26.02,0,.1-.02.18-.02.12,0,.2.02.3.04.2.02.36-.04.48-.12.12,0,.18,0,.3-.02,0-.02.02-.06.02-.08.02,0,.06.02.08,0,.02,0,.04-.06.06-.06.08-.02.18.04.26-.02.08-.08.16-.08.2-.1.14-.06.24-.14.38-.24.1-.06.16-.1.26-.16.26-.16.42-.5.66-.72.02-.3.12-.5.24-.68,0-.26.08-.42.18-.58.1-.02.2-.08.36-.02.08.04.14.08.26.14.08.04.16.04.32.1.04.02.08.06.12.06.06.02.12,0,.2.02.04,0,.08.06.12.06.1.02.28-.04.38,0,.02.02.04.06.08.08.06.02.14.08.18.16,0,.18-.06.32-.14.44-.02.06-.04.18-.12.16-.02.1.04.12.02.24-.02.08-.08.12-.1.22-.06.16-.06.3-.14.44-.04.06-.1.12-.14.16-.08.1-.18.22-.3.26.06.12-.12.18-.16.24-.06.16-.22.26-.4.38-.2.18-.46.3-.64.44-.06.04-.12.08-.18.12-.1.1-.16.16-.32.22-.06.04-.08.02-.14.04,0,0-.04.06-.06.06-.14.06-.3.04-.46.08,0,.02-.08.06-.08.06-.2.04-.4.08-.6.12-.12.04-.2.08-.42.06-.06,0-.14-.04-.18-.04-.06,0-.18.14-.3.04-.1-.04-.04.12-.16.08-.14-.04-.3.04-.46.02-.08,0-.16-.04-.24-.06-.08-.02-.1.04-.14.02-.02,0-.06-.06-.06-.06-.28-.04-.56-.04-.8-.12-.08-.02-.18,0-.22-.1-.24.04-.48-.1-.62-.24-.08,0-.14-.04-.22-.06-.16-.08-.38-.14-.48-.34-.2,0-.28-.14-.38-.24-.22,0-.4-.14-.5-.3-.12-.14-.2-.22-.3-.3-.04-.04,0-.14-.06-.18-.22-.1-.32-.32-.56-.4-.04-.14-.18-.24-.26-.36-.04-.06-.06-.14-.08-.2-.04-.06-.1-.1-.14-.16-.06-.18-.08-.4-.14-.6-.02-.04-.06-.1-.06-.16-.02-.12,0-.24-.02-.34-.02-.08-.08-.16-.1-.24-.02-.12,0-.26-.02-.42-.02-.12-.06-.24-.06-.36,0-.18.04-.38.04-.58,0-.06-.02-.16-.02-.22.02-.14.12-.28.14-.42,0-.06-.02-.12-.04-.16,0-.06.06-.14.02-.2.06-.04.08-.16.1-.22.02-.08.02-.2.06-.32.02-.02.06-.04.08-.06.02-.04.02-.06.02-.1.02-.02.06-.04.08-.06,0-.04-.02-.1,0-.12.02-.06.06-.1.1-.16.02-.06.04-.14.06-.2.04-.06.08-.08.1-.12.02-.06-.02-.12,0-.16.02-.04.06-.02.08-.06.04-.16.06-.26.1-.4.04-.12.12-.3.26-.38-.06-.06,0-.12,0-.18.14-.14.24-.34.32-.56.24-.16.38-.44.62-.62.04-.04.12-.06.2-.1.02-.02.02-.04.06-.06.02-.02.08-.02.1-.02.14-.1.22-.22.4-.3.16-.06.56-.02.7-.2.16,0,.32-.08.46-.16.1-.04.22-.14.46-.12.18.02.34.02.54-.04.1-.02.24-.06.4-.06.04,0,.1.04.16.04.22,0,.4,0,.68.02.14,0,.26-.06.42-.06.02,0,.04.04.08.04.06-.02.18-.02.3,0,.06,0,.12.04.2.06.14,0,.22.08.34.14.06.04.16.04.22.08.08.02.16.06.24.1.16.06.34.08.4.26.06.02.1,0,.16.04.12.04.24.18.36.26.1.08.2.26.34.34.02.08.08.12.1.22.22.12.34.36.6.46.08.18.22.28.24.5.06.08.12.18.2.3.02.06.12.14.14.22.04.14.1.26.2.4.06.08.18.2.22.32.02.1.02.22.04.32.04.1.08.2.1.26.04.2,0,.4.02.62.02.14.04.32.06.48,0,.08,0,.16.02.26,0,.08.06.14.06.2s-.04.12-.04.18ZM19.82,7.63c-.06-.04,0-.1-.02-.16-.02-.02-.18-.02-.1-.12-.08-.08-.24-.1-.22-.26-.12.02-.16-.12-.2-.14-.02-.02-.06-.02-.08-.04-.1-.08-.12-.22-.22-.3-.08-.04-.2.06-.2-.1-.4.02-.6-.18-.8-.4-.22.06-.54,0-.8.02-.18-.12-.34-.06-.58-.12-.1-.02-.06-.16-.2-.16-.18.08-.34-.06-.54-.08-.22.14-.46.14-.68.22-.12.04-.32.3-.4.38-.18.22-.36.44-.52.62.02.16-.06.22-.04.36-.18.14-.22.44-.28.7.18.02.44-.02.68-.04.08-.02.18-.02.26-.02.06-.02.1-.06.16-.06.24-.02.5.02.74,0,.26,0,.5-.08.72.02.28-.12.72-.06.96-.04.04,0,.04-.04.1-.04.04.02.04.04.1.04.06-.02.08.06.16.04.6-.1,1.36.06,2.1-.06.04-.04,0-.22-.1-.26Z"/><path class="cls-1" d="M35.72,4.35s.04.06.04.1c-.02.06-.04.08-.04.14,0,.04.02.06.02.1,0,.02-.04.06-.02.12,0,.04.02.06.02.1,0,.06-.06.12-.06.18-.02.08.02.16.02.24,0,.06-.06.12-.06.18,0,.02,0,.14-.02.2,0,.14-.02.3,0,.46,0,.06.06.14.06.22.02.28-.04.6-.02.9,0,.14.04.24.02.36,0,.16-.08.3-.1.52,0,0,.02.06.02.08,0,.08-.06.3.02.42-.02.08-.06.18-.1.24.04.36-.06.7-.06,1.06.02.12.06.24.06.36,0,.06-.04.14-.04.22,0,.06.04.14.04.2,0,.04-.06.12-.08.18-.02.26,0,.4-.1.62-.08.14.06.46-.08.64.06.16.02.28.02.48,0,.06.04.14.02.2,0,.14-.06.26-.06.38-.02.3.06.58.08.84.02.06.02.12.12.1-.22.16.02.32.02.52,0,.04-.02.08-.04.12,0,.02-.02.12-.02.14-.02,0-.1.02-.1.02-.04.04-.14.12-.24.14-.08,0-.16-.04-.26-.04-.1-.02-.24.04-.38.04-.14.02-.32,0-.46.04-.16.02-.28.12-.42.12-.12-.04-.06.12-.16.12-.02.06-.16,0-.22.02-.16-.14-.3-.48-.16-.64-.12-.34.04-.78-.04-1.2-.2.08-.36.22-.52.38-.08.06-.12.16-.22.22-.04.02-.04,0-.08.02-.02.04-.16.08-.22.16-.14.04-.28.02-.42.06-.18.04-.34.1-.58.14-.16.04-.44.16-.72.12-.06,0-.1-.04-.12-.04-.08,0-.12.06-.2.06-.1.02-.2.02-.32-.04-.06.1-.32.02-.42-.04-.2.08-.38-.02-.58-.04-.12,0-.1-.12-.2-.14-.32.02-.6-.02-.92-.08-.04-.1-.18-.12-.2-.26-.14.02-.14-.1-.24-.1-.06-.12-.16-.18-.22-.26-.14,0-.16-.08-.3-.08-.04-.04-.06-.12-.12-.16-.1-.06-.12-.12-.16-.14-.02,0-.08.02-.1,0-.12-.14-.2-.2-.28-.3-.04-.02-.12-.04-.16-.1,0-.12-.12-.12-.1-.28-.06-.02-.1-.06-.16-.1-.06-.06-.08-.1-.14-.18-.04-.02-.04-.06-.08-.08-.02-.04-.02-.2-.12-.26,0-.08-.08-.08-.16-.08-.02-.2-.1-.36-.28-.42.04-.12-.04-.12-.02-.22-.4-.36-.38-1.1-.58-1.64.02-.36,0-.8.12-1.12q.02-.06.04-.1c.04-.06.02-.18.04-.32.02-.12.04-.26.06-.38.02-.06.04-.14.04-.2.04-.2.1-.38.22-.54-.1-.36.24-.5.26-.84.12-.1.18-.24.28-.38.06-.1.14-.24.22-.38.06-.08.16-.14.14-.26.08-.04.12-.12.24-.16v-.18c.22-.14.32-.38.5-.58.08-.1.18-.16.28-.24.06-.12.26-.14.28-.26.26-.06.54-.1.74-.24.16-.02.36-.02.46-.12.26.04.4-.08.54-.18.4,0,.76-.02,1.2,0,.2,0,.42-.04.58-.02.12,0,.22-.02.3.06.1-.04.24-.04.34.02.06.02.14,0,.26.04.06,0,.12.06.16.06.08.02.14,0,.2,0,.02.02.06.06.1.08q.12.02.24.1s.08,0,.1.02c.02.02.02.06.04.08.18.1.36.16.54.3.04.02.04.08.1.12.04.04.08.04.12.08.06.04.1.12.16.2.04.08.18.16.28.26.06.04.08.14.16.2.06.04.22.16.22.28.1-.36.02-.82-.08-1.1-.08-.16-.2-.2-.12-.44.02-.08.14-.26.2-.3,0,.02.22.04.36.04.12.02.22.04.32.04.28,0,.78.02,1.06.12.18-.06.3.04.46.08.02.1,0,.16.02.26-.02.08.04.12.02.2,0,.08-.1.24-.1.34ZM32.92,8.33c-.02-.08-.12-.1-.16-.16,0-.2-.1-.34-.12-.46.04-.18-.06-.26-.08-.36-.04-.14-.04-.28-.06-.44-.12-.06-.12-.14-.18-.2-.1-.06-.08-.08-.1-.1-.1-.12-.18-.2-.28-.3-.14-.14-.22-.2-.38-.26-.22-.1-.38-.2-.54-.28s-.32-.06-.52-.1c-.1-.04-.18-.1-.26-.12-.06,0-.18.02-.28,0-.08,0-.18-.06-.24-.06-.04,0-.1.12-.16.06-.08-.02-.2-.14-.26-.08-.26.02-.3.12-.48.22-.04.02-.12.04-.16.06-.06.04-.1.08-.14.1-.02,0-.06-.02-.1,0l-.06.06c-.1.06-.18.14-.26.18-.04.02-.14.04-.16.06-.1.14-.16.18-.2.26-.08-.02-.08.06-.16.02,0,.12-.1.2-.16.26-.08.08-.18.14-.28.18-.02.28-.24.36-.24.64-.1.12-.14.22-.2.36-.06.16-.06.34-.1.54-.04.14-.12.24-.14.36,0-.02.02.1.04.12,0,.24-.1.38-.12.56,0,.1.06.22.06.34,0,.02-.04.04-.04.08.04.14,0,.2,0,.26.02.16.18.32.12.52.18.12.32.28.54.38.16.3.46.5.7.7.12.12.24.2.38.26l.08.08c.16.06.28.08.42.1.08.02.2.08.26.1.04.02.06.08.12.08.34-.04.7.1.98.1.08.02.2,0,.28-.02.1,0,.22,0,.3-.02.04-.02.1-.08.16-.1.04,0,.08.02.12,0,.08-.02.2-.12.3-.02.14-.34.6-.34.66-.76.08.02.06-.06.14-.06,0-.14.1-.22.16-.32.04-.08.1-.2.14-.26.02-.02.08.02.06-.06.06-.16.12-.3.24-.42-.04-.14.06-.24.1-.34.12-.36.18-.68.18-1.1.06-.08.1-.18.14-.28-.06-.08-.06-.22-.06-.36Z"/><path class="cls-1" d="M47.6,13.79c-.14.14-.28.32-.5.44-.14.08-.26.2-.46.3-.1.06-.24.12-.38.2-.06.02-.06.06-.1.08-.06.02-.1,0-.16.04-.08.02-.18.08-.26.12-.14.04-.28.1-.42.16-.32.1-.78.12-1.24.12-.18,0-.34.04-.52.02-.16,0-.34-.08-.5-.1h-.14c-.08-.02-.3-.02-.42-.04-.04-.02-.1-.06-.16-.08-.14-.02-.28,0-.42-.04-.04,0-.06-.04-.12-.06s-.12,0-.16,0c-.04-.02-.06-.06-.1-.08s-.08,0-.12-.02c-.16-.08-.3-.18-.46-.24-.08-.04-.18-.08-.24-.1-.08-.04-.14-.04-.2-.08-.16-.06-.32-.16-.48-.16-.22-.26-.52-.44-.66-.76-.12-.12-.3-.22-.42-.36-.02-.04,0-.08-.02-.1-.04-.04-.1-.06-.14-.1-.02-.04,0-.08-.02-.1-.04-.04-.14-.08-.2-.14-.02-.02,0-.08-.02-.1-.08,0-.06-.04-.06-.06-.08-.08-.16-.12-.22-.24-.02-.02-.02-.06-.04-.08-.04-.06-.1-.12-.16-.2,0-.02-.06-.06-.06-.08s.02-.06,0-.08c-.04-.1-.1-.2-.14-.3-.06-.12-.1-.22-.12-.36-.02-.06-.02-.12-.04-.2-.04-.14-.16-.5-.02-.7-.06-.16-.08-.34-.08-.5,0-.04.06-.1.06-.16.02-.02-.02-.1-.02-.16,0-.12.04-.12,0-.26-.02-.08-.04-.52-.02-.74.02-.06.06-.12.08-.22.02-.06-.02-.14,0-.2l.06-.08c.06-.24.1-.52.18-.78.04-.12.06-.28.2-.32-.12-.14.06-.44.18-.54,0-.14.06-.3.1-.42.04-.06.06-.14.08-.18,0-.04.06-.02.06-.08.04-.16.14-.2.24-.34.12-.16.22-.4.36-.58.08,0,.1-.04.2-.02.06-.06.04-.2.1-.26h.2c.2-.26.46-.48.82-.58.12-.16.34-.24.48-.38.28-.02.34-.24.6-.26.08-.04.18-.1.26-.18.1-.02.22-.02.32-.06.16-.04.3-.14.46-.18.08-.02.2-.02.32-.02.34-.04.72-.02,1.1-.02.22.18.56.08.8.28.24,0,.44.04.68.12.12.04.28.1.34.14.1.04.2.12.22.22.3.04.46.3.64.5.1.1.2.16.28.3.02.04.04.06.06.1.06.06.14.12.2.2.14.16.3.38.54.52,0,.12.06.16.04.3.08.04.16.08.16.2v.34c-.04.1-.1.14-.16.2,0,.24-.18.3-.22.5-.22.14-.34.36-.58.48-.16-.02-.26-.08-.4-.04,0-.08-.04-.12-.08-.2-.08-.16-.12-.38-.22-.56-.12-.08-.22-.18-.34-.26-.06-.04-.16-.06-.22-.1-.08-.04-.1-.16-.2-.1-.06-.06-.1-.16-.16-.22-.4-.06-.86-.06-1.08-.26-.16.02-.56,0-.68-.12-.24.02-.44.08-.72.06-.14-.02-.2-.02-.38.02-.24.06-.52.14-.72.24-.08.06-.16.14-.26.2-.1.04-.18.06-.26.12-.1.06-.16.1-.24.22-.06.1-.1.16-.2.28-.04.06-.1.08-.16.16-.1.12-.2.34-.36.44,0,.14-.06.22-.14.26.04.3-.18.36-.14.68-.1.08-.12.22-.16.34-.02.04-.02.08-.04.14-.06.16-.12.36-.14.54-.02.06.02.12.02.12,0,.16-.1.5-.08.78.02.18.08.4.12.62.04.18.06.36.12.52.02.04.06.06.08.12.04.04.04.12.08.16,0,.04.04.04.06.08s.04.06.08.12c.06.08.16.22.22.34.06.08.12.2.16.26.06.06.18.04.16.16.18,0,.3.12.44.2.1.06.22.12.32.18.08.04.46.16.56.16.04,0,.08-.04.16-.02.1,0,.2.06.28.06.18.02.36.04.52.06.18,0,.36-.06.52.04.12-.04.24-.1.34-.12.12-.04.26-.06.36-.1.06-.02.06-.06.1-.1.06-.02.1,0,.14-.02.02-.02.06-.08.1-.1.14-.1.38-.14.52-.2.12-.06.22-.18.36-.2.06-.14.24-.14.38-.28.04-.02.18-.12.26-.12.1-.1.14-.26.28-.32.08.04.16.1.32.08.14.22.28.42.44.64.02.06.02.1.06.14,0,.02.08.02.08.04.04.04.02.14.06.22.16.04.22.16.4.18.04.14.24.22.28.42.04.3-.16.58-.44.64Z"/><path class="cls-1" d="M55.62,5.17c0,.12.04.2.02.26-.06.18-.22.22-.32.32-.26-.12-.44.02-.66.06-.06,0-.2.02-.26.02-.22,0-.38.12-.54.14-.12.02-.24-.04-.36.04-.1.22-.02.5-.06.8,0,.06-.02.12-.02.2-.02.2.04.42.04.64s-.04.44.06.62c-.08.16-.08.38-.08.6-.06.38.04.88.04,1.26-.02.16-.04.3-.06.46,0,.04.06.06.04.12,0,.02-.06.06-.06.06-.02.02.02.06.02.1-.02.24,0,.6-.02.98,0,.04,0,.14,0,.12,0,.1-.04.18-.04.26.02.22.12.46-.04.68,0,.08.04.14.06.22,0,.06-.04.12-.04.16,0,.06.06.14.06.2s-.04.08-.04.16c0,.12.04.3.06.48-.04.04-.04.1-.1.12.1.26.02.54-.14.68-.34-.04-.68-.14-1-.08-.16.02-.32.1-.52.02-.1.02-.14.08-.24.08-.1.02-.18-.1-.28-.12-.04-.32.02-.82,0-1.32,0-.12-.04-.22-.06-.34-.02-.18,0-.4-.02-.58,0-.08.04-.18.04-.26,0-.1-.06-.06-.06-.22,0-.32.08-.62.14-.9-.04-.06-.04-.12-.06-.2,0-.1.02-.22.02-.32-.02-.1-.1-.26-.1-.38,0-.1.04-.12-.02-.24-.02-.04-.02-.08-.06-.12.04-.32.1-.66.08-1,0-.08-.04-.12-.06-.2-.02-.1,0-.22-.02-.36-.02-.18-.04-.4-.02-.64,0-.08.04-.16.04-.26,0-.12-.06-.24-.06-.36,0-.22.06-.44.06-.66-.02-.08-.06-.18-.06-.26-.02-.24.1-.48.04-.72-.04-.04-.08.02-.12.04-.16.02-.32.06-.5.12-.1.02-.2.04-.32.08-.2.06-.3.14-.46.02-.04-.08-.08-.06-.08-.06-.06-.06-.12-.14-.14-.2-.02-.22.08-.32.22-.44-.06-.1.04-.14.06-.26.02-.12,0-.28.04-.42.04-.16.16-.28.18-.42.02-.18-.06-.38-.02-.54.04-.24.18-.32.48-.26.16.04.32.04.36.18.22-.02.3.1.5.1.18-.24.1-.68.12-1.1.02-.02.04-.12.04-.16,0-.08-.04-.16-.06-.26-.02-.16-.02-.34.02-.54.02-.08.06-.18.06-.26s-.02-.18-.06-.26c-.02-.06-.1-.12-.02-.18.02-.14-.18-.08-.12-.28.04-.02.06-.06.06-.12.12-.06.16,0,.3,0,.2-.06.3-.08.54-.04.02-.04.06-.06.1-.06.14.02.24.08.38.1.1-.02.18-.08.26-.1.06,0,.06.04.08.04,0,0,.16-.08.22,0,.12-.02.06.1.1.14.02.04.08.04.08.1.06.2-.02.66-.04.94,0,.02.04.04.02.08v.3c0,.08-.04.22-.04.28s.04.1.06.18c.02.06-.02.16,0,.22.02.18.12.3-.04.48.06.16,0,.3-.02.48,0,.08.02.18.02.26,0,.12-.1.24-.04.36.2.02.34-.14.5-.18.16-.06.34.02.48-.12.14.1.32-.12.42.04.12-.16.5-.24.72-.18.1-.02.06.1.08.16.02.04.08.08.1.14.02.04-.02.16,0,.26,0,.06.06.1.06.16s-.04.08-.04.12c.02.18.1.34.12.48,0,.06.02.14.02.14.02.06-.02.08-.02.12Z"/></g></svg>