<?xml version="1.0" encoding="UTF-8"?><svg id="Calque_2" xmlns="http://www.w3.org/2000/svg" viewBox="0 0 184.82 175.8"><defs><style>.cls-1{fill:#260801;stroke-width:0px;}</style></defs><g id="Calque_10"><path class="cls-1" d="M61.95,46.71c.02,4.28-1.78,8.23-2.63,12.36-.79,3.83-.77,7.83,1.33,11.25.68,1.11,2.37.89,2.74-.36,2.26-7.55,2.73-15.44,3.14-23.27l-2.95.4c1.07,6.62,1.29,13.34.72,20.02-.16,1.92,2.84,1.91,3,0,.59-6.96.28-13.92-.83-20.81-.28-1.74-2.86-1.2-2.95.4-.4,7.57-.84,15.17-3.03,22.47l2.74-.36c-1.96-3.2-1.57-6.96-.68-10.44.99-3.86,2.41-7.62,2.39-11.65,0-1.93-3.01-1.93-3,0h0Z"/><path class="cls-1" d="M103.66,45.48c-.91,4.41-1.33,8.9-1.26,13.4.05,3.61.11,7.74,2.87,10.44.93.91,2.56.25,2.56-1.06.03-7.65.06-15.3.09-22.95l-2.8.76c2.82,6.29,5.18,13.39,2.46,20.13l2.95.4c.2-5.55.08-11.09-.38-16.62-.16-1.91-3.16-1.93-3,0,.45,5.53.58,11.08.38,16.62-.07,1.82,2.36,1.86,2.95.4,3.03-7.49.37-15.47-2.76-22.44-.63-1.41-2.79-.63-2.8.76-.03,7.65-.06,15.3-.09,22.95l2.56-1.06c-2.28-2.24-1.99-6.27-1.99-9.21,0-3.94.37-7.86,1.16-11.71.39-1.88-2.5-2.69-2.89-.8h0Z"/><path class="cls-1" d="M22.65,115.33c4.63,5.61,9.27,11.22,13.9,16.83,1.11,1.35,3.15-.37,2.36-1.82-3.18-5.76-6.35-11.53-9.53-17.29-.95-1.73-3.35-.21-2.59,1.51,1.8,4.08,4.71,7.49,8.34,10.05.87.61,2.4-.19,2.26-1.3-1.19-9.35,2.7-18.67,9.35-25.19,6.87-6.75,16.21-10.44,25.62-11.88,19.11-2.92,39.15,3.78,52.61,17.63,7.17,7.37,12.41,16.51,15.1,26.44.23.86,1.41,1.48,2.2.9,4.3-3.13,8.61-6.26,12.91-9.39,1.27-.92.58-3.35-1.16-2.74-7,2.44-12.99,6.98-17.25,13.05-.72,1.02.49,2.68,1.69,2.2,2.04-.81,4.2-1.76,5.65-3.47,1.66-1.95,1.85-4.39.83-6.7s-2.62-4.42-3.99-6.52-2.75-4.15-4.2-6.17c-5.7-7.97-12.46-15.66-21.39-20.04-10.52-5.16-22.57-4.65-33.96-5.73-11.09-1.05-23.64-2.23-33.22,4.73-10.47,7.61-12.96,20.93-14.82,32.9-.29,1.89,2.6,2.7,2.89.8,1.56-10,3.26-20.98,10.59-28.59,7.45-7.73,18.66-8.16,28.69-7.38,5.62.44,11.23.98,16.86,1.35s10.8.83,16,2.38c8.94,2.66,16.04,8.84,21.85,15.93,3.28,4,6.17,8.3,8.97,12.64.71,1.1,1.43,2.2,2.11,3.31s1.55,2.47,1.23,3.84c-.49,2.06-3.14,3.13-4.89,3.82l1.69,2.2c3.78-5.39,9.24-9.5,15.45-11.67l-1.16-2.74c-4.3,3.13-8.61,6.26-12.91,9.39l2.2.9c-5.17-19.09-19.32-34.97-37.67-42.31s-42.55-6.47-58.4,6.74c-8.47,7.06-13.92,18.23-12.5,29.37l2.26-1.3c-3.23-2.27-5.68-5.38-7.27-8.98l-2.59,1.51c3.18,5.76,6.35,11.53,9.53,17.29l2.36-1.82c-4.63-5.61-9.27-11.22-13.9-16.83-1.23-1.49-3.34.64-2.12,2.12h0Z"/><path class="cls-1" d="M55.88,8.43C35.44,24.14,16.9,43.49,6.97,67.64c-8.98,21.84-9.51,47.85,1.56,69.07,5.73,10.99,14.62,19.84,25.42,25.87,12.25,6.84,26.11,10.03,39.99,11.26,7.73.69,15.5.78,23.26.65,6.68-.11,13.36-.32,20.01-.93,12.49-1.14,25.21-3.66,36.15-10.06s19.03-17,23.94-28.9c5.29-12.8,7.76-27.15,7.49-40.98-.27-13.93-3.82-27.52-10.88-39.57-6.47-11.04-15.37-20.56-25.38-28.47C127.55,9.02,100.49-2.18,73.37.57c-12.29,1.25-24.36,5.25-34.73,12-10.65,6.94-19.02,16.66-24.24,28.27-5.52,12.26-7.76,25.63-9.17,38.9-.77,7.19-1.4,14.42-1.81,21.64-.43,7.77-.4,15.59.87,23.29,2.06,12.49,7.91,24.75,18.53,32.11,10.84,7.52,24.56,9.08,37.36,10.09,15.54,1.23,31.17,1.59,46.72.44,7.73-.57,15.44-1.51,23.07-2.89,6.48-1.17,12.93-2.69,18.96-5.38s11.03-6.5,14.9-11.67,6.21-11.07,7.81-17.15c1.74-6.59,2.62-13.43,3.1-20.22.51-7.36.4-14.76-.45-22.09-1.52-13.22-5.39-26.08-11.92-37.71-5.78-10.28-13.45-19.53-22.43-27.16C121.2,7.12,96.2-2.27,71.46.48c-13.11,1.46-25.48,6.44-35.44,15.18s-17.14,20.31-22.96,32.11C6.62,60.86,1.71,74.86.36,89.47s.84,28.49,7.51,41c12.89,24.2,38.89,37.47,64.89,42.6s57,4.11,78.74-14.28c9.93-8.4,16.4-19.69,18.86-32.45,2.65-13.68,1.74-28.11.14-41.87s-4.63-27.16-10.72-39.51c-5.61-11.37-13.94-21.29-24.66-28.15-9.89-6.33-21.72-9.81-33.49-8.38-1.89.23-1.92,3.23,0,3,11.82-1.44,23.49,2.21,33.26,8.82,10.31,6.97,18.03,16.92,23.22,28.15,5.54,11.99,8.25,25.15,9.63,38.23,1.4,13.36,2.29,27.42-.63,40.63-1.38,6.26-3.7,12.24-7.2,17.62-3.23,4.97-7.37,9.32-12,13-9.87,7.83-21.97,12.3-34.37,14.07-14.12,2.01-28.73.7-42.61-2.31-13.29-2.88-26.27-7.73-37.51-15.49-9.97-6.87-18.49-16.04-23.86-26.94-6.13-12.44-7.6-26.76-5.91-40.41,1.76-14.13,6.93-27.69,13.41-40.29,5.72-11.13,12.76-21.86,22.48-29.91C59.34.2,87.72,0,110.79,8.97c21.17,8.23,39.15,24.39,49.88,44.38,6.15,11.46,9.69,24.17,10.89,37.1.66,7.12.64,14.29.05,21.41-.54,6.44-1.48,12.91-3.27,19.13-1.69,5.85-4.22,11.6-8.19,16.26s-9.5,8.11-15.37,10.3-12.54,3.54-18.95,4.58c-7.47,1.22-15.01,2-22.56,2.44-14.97.88-30,.42-44.94-.83-12.29-1.04-25.63-2.85-35.62-10.73-9.89-7.8-14.64-20.39-15.99-32.58-.85-7.62-.58-15.31-.03-22.94.48-6.76,1.06-13.52,1.83-20.25,1.48-12.81,3.92-25.85,9.72-37.48,5.39-10.8,13.7-19.67,24.03-25.9s21.93-9.71,33.8-10.5c13.15-.88,26.35,1.57,38.63,6.23,12.16,4.6,23.57,11.41,33.61,19.66,9.56,7.86,18.01,17.22,24.02,28.08,6.64,11.98,9.64,25.44,9.5,39.09-.13,13.18-2.68,26.83-8.04,38.92-5.08,11.45-13.09,21.07-24.29,26.91-10.89,5.68-23.35,7.72-35.47,8.6-6.56.48-13.14.65-19.72.7-7.43.06-14.88-.12-22.27-.87-13.36-1.36-26.73-4.77-38.33-11.7-10.25-6.12-18.36-14.94-23.53-25.7-4.86-10.12-7.01-21.45-6.93-32.64.18-24.55,11.76-47.06,27.71-65.18,7.95-9.02,16.93-17.1,26.45-24.42.65-.5.97-1.28.54-2.05-.36-.64-1.41-1.03-2.05-.54h0Z"/></g></svg>