<?xml version="1.0" encoding="UTF-8"?><svg id="Calque_2" xmlns="http://www.w3.org/2000/svg" viewBox="0 0 160 160"><defs><style>.cls-1{fill:none;}.cls-1,.cls-2{stroke-width:0px;}.cls-2{fill:#f2e2c4;}</style></defs><g id="team"><path class="cls-2" d="M36.01,44.69l-.7,25.73-.35,12.86-.18,6.68c-.04,1.45-.61,3.95.56,5.09.66.64,1.62.66,2.48.65,1.21-.01,2.41-.04,3.62-.06,2.41-.04,4.82-.08,7.23-.11l-1.08-1.14c-.83,3.86-1.53,8.96,2.48,11.35,3.43,2.05,7.81.16,8.88-3.66.48-1.7.23-3.56-.1-5.27-.08-.44-.1-.91-.2-1.34l.06-.38-.42.33s.26-.07.28-.07c1.04.17,1.95.45,2.97.76,4.22,1.27,8.16-1.63,9.26-5.7,1.4-5.16-3.21-10.36-1.18-15.37.29-.72.06-1.37-.75-1.5-.91-.14-1.79.44-2.36,1.09-1.88,2.14-5.12.37-5.69-1.99-.2-.81-.25-2.13.61-2.58s2.06,0,2.65.66c1.17,1.31,4.49-.9,3.39-2.12-3.61-4.05-10.89-.3-10.37,4.9.25,2.47,2.12,4.53,4.57,4.96,2.94.52,5.81-.85,7.73-3.04l-3.11-.41c-1.57,3.9-.07,7.57.78,11.43.4,1.83.69,3.91-.23,5.63-.84,1.56-1.87,1.49-3.45.97-1.67-.55-3.22-.99-4.96-.45-1.65.51-3.13,1.81-3.37,3.59-.21,1.59.5,3.24.52,4.85,0,.65-.03,1.4-.31,2-.26.56-.32.6-.78.57-1.65-.11-3.06-1.51-3.56-3.01-.75-2.25-.19-4.7.29-6.94.15-.69-.45-1.15-1.08-1.14-2.57.04-5.14.08-7.71.12-.64.01-1.29.02-1.93.03-.4,0-1.48.22-1.82.02-.67-.4-.31-2.04-.29-2.73l.42-15.34.84-30.67c.06-2.15-3.57-.84-3.61.75h0Z"/><path class="cls-2" d="M68.74,69.1c2.1-8.42,3.48-17,4.09-25.66.05-.71-.84-.96-1.38-.93-9.69.68-19.4.51-29.06-.52-.93-.1-2.07.29-2.61,1.09-.46.68-.23,1.51.67,1.6,9.95,1.06,19.97,1.26,29.95.56l-1.38-.93c-.6,8.42-1.91,16.77-3.95,24.97-.51,2.04,3.29,1.3,3.67-.19h0Z"/><path class="cls-2" d="M34.87,94.12c-.11,4.63-.22,9.26-.33,13.88l3.24.53c-1.15-2.75-4.14-4.51-7.08-4.38s-5.13,2.51-5.34,5.44c-.5,6.77,8.31,10.83,13.02,5.89l-3.19-2.04c-.07,4.6-.38,9.26-.2,13.86.08,1.92.8,3.69,2.48,4.75s3.69.89,5.6.81c9.45-.38,18.9-.75,28.34-1.13.5-.02.93-.48.91-.98-.12-2.44-.24-4.88-.36-7.32-.06-1.14-.11-2.28-.17-3.42-.04-.85-.26-1.99.41-2.66.95-.96,3.13-.49,4.35-.57,1.48-.1,2.9-.58,3.81-1.82,1.87-2.53,1.06-6.26-1.18-8.27-2.71-2.42-6.86-2.62-9.81-.52l2.9,2.25c.12-4.83.25-9.66.37-14.49.04-1.65-3.39-3.52-3.44-1.36-.12,4.83-.25,9.66-.37,14.49-.03,1.04,1.74,3.07,2.9,2.25,1.44-1.02,5.36-2.4,6.12.13.28.95.09,2.12-.49,2.92-.78,1.06-2.04,1.1-3.25,1.12-1.28.02-2.68-.1-3.87.47-1.33.64-1.87,1.96-1.92,3.38-.06,1.89.17,3.82.26,5.7.1,2.11.21,4.23.31,6.34l.91-.98c-8.13.32-16.27.65-24.4.97-1.95.08-3.94.29-5.89.22-.29,0-.76.02-1.01-.12-.05-.03.04.33.01-.14-.05-.79-.07-1.57-.06-2.37.06-4.05.12-8.1.19-12.16.02-1.23-2.04-3.24-3.19-2.04s-3.01,1.92-4.71,1.49c-1.53-.39-2.06-1.82-1.93-3.3.14-1.6,1.17-3.05,2.79-3.4,1.25-.27,2.64.05,3.16,1.28.42,1.01,3.19,2.53,3.24.53.11-4.63.22-9.26.33-13.88.04-1.65-3.39-3.52-3.44-1.36h0Z"/><path class="cls-2" d="M71.84,94.36c3.3.96,6.88,1.7,10.05-.06,1.26-.7,2.37-1.72,2.95-3.06.65-1.49.48-3.12.3-4.69-.12-1.05-.42-2.69.62-3.39.79-.53,1.83-.25,2.52.3,2.71,2.15,1.7,6.32.74,9.06-.4,1.14.44,2.14,1.63,2.14,4.79,0,9.57,0,14.36,0l-1.75-1.72-.28,4.8c-.09,1.54-.46,3.35-.14,4.87.29,1.37,1.53,2.19,2.87,2.26,1.53.08,2.63-.86,3.91-1.48,1.61-.79,3.7.29,4.37,1.87.77,1.82-.57,4.43-2.61,4.64-1.28.14-2.42-.35-3.7.16-1.39.56-2.15,1.9-2.25,3.35-.11,1.53.06,3.11.09,4.64.05,1.8.09,3.61.14,5.41.04,1.64.08,3.28.13,4.92.02.72.11,1.47.03,2.18-.02.22-.03.38-.11.58.35-.21.32-.25-.09-.12-.17.02-.33.02-.5.02-3.47.08-6.94.03-10.41.05-7.76.03-15.53.07-23.29.1-.95,0-2.06.55-2.2,1.59s.84,1.72,1.75,1.72c7.35-.03,14.7-.07,22.05-.1,3.72-.02,7.43-.02,11.15-.05,1.36,0,2.79-.03,3.97-.81,1.46-.97,1.66-2.43,1.62-4.05-.09-3.61-.19-7.21-.28-10.82-.04-1.59-.16-3.19-.12-4.77,0-.29.12-.68.08-.95l-.48.12c.25,0,.5.02.74.05.78.08,1.51.14,2.29.02,5.38-.89,8.53-7.94,3.8-11.65-2.26-1.77-5.54-2.24-8.11-.84-.25.14-.5.29-.75.44-.18.12-.36.22-.55.32-.57.16-.45.32.35.47.13-.11.06-2.27.08-2.55l.37-6.24c.06-.99-.78-1.72-1.75-1.72-4.79,0-9.57,0-14.36,0l1.63,2.14c1.23-3.49,2.11-7.57-.12-10.88-1.85-2.73-5.41-3.86-8.44-2.39-1.48.72-2.55,1.96-2.94,3.57-.41,1.69.12,3.36.14,5.05.04,4.46-5.41,3.13-8.07,2.36-2.14-.62-3.95,2.44-1.45,3.17h0Z"/><path class="cls-2" d="M109.59,33.41c.33-2.42.58-5.27-.6-7.52-1.32-2.51-4.28-3.7-7.03-3.45-2.51.23-4.85,1.7-5.89,4.04-1.31,2.95-.38,6.39,1.06,9.11l.67-.77c-2.64.52-5.27,1.03-7.91,1.55-1.96.38-3.88.96-3.6,3.36s1.15,4.83,1.74,7.17c.67,2.66,1.34,5.32,2.01,7.99h3.72c-2.25-2.18-6.21-2.8-8.97-1.2s-3.6,4.94-2.98,7.83c.71,3.29,3.49,5.7,6.83,6.02,2.65.26,6.05-.99,6.28-4.04l-3.9-.51c.37,2.77.74,5.54,1.1,8.31.14,1.04.13,2.29.78,3.17.69.94,1.95,1.37,3.08,1.49,2.37.24,4.85-.91,7.1-1.56,2.72-.79,5.43-1.59,8.15-2.38.2-.06.69-.22.7-.52.05-2.56-1.9-4.3-3.54-6.01-1.49-1.55-3.44-4.28-.92-5.98,2.72-1.83,4.23,2.52,4.62,4.54.31,1.61.19,3.34.85,4.87s2.07,2.52,3.68,2.98c2.02.58,4.14.3,6.06-.47,1.77-.71,3.68-2.44,5.67-2.39.33,0,1.98-.05,1.58-.83-1.77-3.46-2.74-7.23-2.78-11.12l-3.1.19c2.67,1.41,6.18,1.7,8.93.34,2.57-1.28,3.87-4.01,3.36-6.82-1.01-5.52-10.31-7.54-13.11-2.4l3.79.74c-.73-3.17-1.46-6.34-2.19-9.5-.34-1.48-.66-2.96-1.02-4.44-.26-1.04-.59-2.09-1.31-2.91-1.9-2.18-5.03-1.73-7.53-1.2-3.16.67-6.33,1.34-9.49,2-.8.17-.83.79-.24,1.26.71.56,1.91.72,2.78.54,2.53-.53,5.06-1.07,7.6-1.6,1.14-.24,2.41-.7,3.58-.73-.42-.22-.47-.19-.15.09.14.17.25.36.34.56.17.35.29.72.39,1.09,1.38,4.77,2.26,9.74,3.37,14.58.22.96,3.28,1.66,3.79.74.6-1.1,1.95-2.38,3.34-2.17s2.13,2.24,2.25,3.46c.31,3.17-2.86,6.99-6.18,5.23-.42-.22-3.12-.88-3.1.19.05,4.06.98,8,2.83,11.61l1.58-.83c-2.08-.06-3.86.53-5.68,1.49-1.02.54-3.26,2.11-4.4,1.6-1.41-.63-1.29-3.8-1.45-5.02-.22-1.71-.75-3.37-1.73-4.81-1.92-2.82-5.81-4.04-9.02-2.94-2.77.95-3.8,3.66-2.25,6.16,1.42,2.28,4.95,4.15,4.89,7.12l.7-.52c-4.19,1.22-8.36,2.53-12.57,3.67-.17.05-.35.1-.53.14-.56.1-.24.21.96.34.04-.11-.3-.98-.33-1.17-.16-1.03-.28-2.07-.41-3.1-.3-2.28-.61-4.56-.91-6.85-.14-1.05-3.81-1.68-3.9-.51-.1,1.3-1.26,2.99-2.76,2.91.2,0-.45-.25-.62-.39-.37-.29-.68-.67-.95-1.06-.49-.72-.81-1.57-.98-2.42-.37-1.76-.05-3.85,1.03-5.31.49-.66,1.11-1.23,1.89-1.53.74-.27,1.07-.31,1.58.2.61.6,1.54.85,2.38.84.49,0,1.52-.1,1.34-.83-1.14-4.54-2.3-9.08-3.43-13.62-.19-.77-.63-1.98-.04-2.69.53-.63,1.94-.66,2.69-.8,2.4-.47,4.79-.94,7.19-1.41.29-.06.89-.35.67-.77-1.86-3.52-2.87-9.47,1.85-11.29.31-.12.67-.25,1.01-.22.23.02-.22-.08,0,0,.14.05.26.15.38.24.7.53,1.09,1.4,1.33,2.22.55,1.89.34,3.93.08,5.84-.18,1.29,3.76,1.99,3.93.76h0Z"/><rect class="cls-1" width="160" height="160"/></g></svg>