<?xml version="1.0" encoding="UTF-8"?><svg id="Calque_2" xmlns="http://www.w3.org/2000/svg" viewBox="0 0 29.46 46.89"><defs><style>.cls-1{fill:none;stroke:#260801;stroke-miterlimit:10;}.cls-2{fill:#260801;stroke-width:0px;}</style></defs><g id="perso"><path class="cls-2" d="M8.82,0c-2.55.58-4.49,2.91-4.6,5.52-.06,1.34.39,2.62,1.13,3.74,1.24,1.87,3.01,3.63,4.94,4.79,2.31,1.4,5.28,1.16,7.29-.67s2.29-4.64,1.2-6.95c-.48-1.02-1.17-1.9-1.94-2.72-.95-1.02-2-2-3.18-2.74-.78-.49-1.64-.82-2.58-.79s-1.81.31-2.68.62c-.26.09,1.4,1.89,1.53,2.01.42.41.86.81,1.34,1.15.17.12.49.4.71.32,1.25-.45,2.63-.89,3.92-.35.09.04.17.08.26.12l.16.09s-.05-.03-.08-.06c-.39-.04-.85-.75-1.17-1.12.11.12-.18-.22-.17-.22.22.01.56,1.16.61,1.33.62,2.04.1,4.28-1.48,5.75s-3.77,2.02-5.75,1.33c-.2-.07-.38-.15-.57-.25.01,0-.45-.25-.21-.12-.08-.05-.28-.24.02.02s.56.49.82.76c.04.05.4.6.21.21.03.05.12.21-.04-.08-.06-.11-.13-.22-.19-.33-.47-.96-.65-2.1-.47-3.15.4-2.31,2.24-4.24,4.52-4.76.16-.04-.4-.79-.34-.7-.35-.47-.77-.91-1.19-1.31s-.86-.81-1.34-1.15c-.19-.13-.46-.38-.71-.32h0Z"/><path class="cls-2" d="M3.77,5.5C.15,12.47-.89,20.73.76,28.39c.84,3.92,2.3,7.7,4.44,11.09,2.01,3.19,4.93,6.21,8.71,7.13,4.18,1.02,8.34-.9,11.02-4.11,2.45-2.93,5.09-7.46,4.2-11.42s-5.44-7.26-9.34-4.67c-3.43,2.28-3.95,7.44-2.68,11.07,1.36,3.91,7.01,7.43,10.51,3.77,1.45-1.52,1.79-3.78,1.84-5.78.07-2.69-.3-5.26-1.03-7.84s-5.05-2.46-4.17.67c.72,2.54,1.35,6.24.22,8.76-.36.81-1.08,1.41-2,1.15-.77-.21-1.12-1-1.3-1.74-.48-1.93-.12-6.28,2.56-6.5,2.3-.19.33,4.53-.09,5.39-1.24,2.52-2.92,5.02-5.49,6.31-2.31,1.16-4.74.96-6.7-.74-3.92-3.4-5.88-9.26-6.6-14.23-.93-6.37.15-12.87,3.12-18.58,1.15-2.21-2.91-5.06-4.18-2.61h0Z"/><path class="cls-2" d="M8.96,12.6c-2.02,1.07-3.21,3.25-3.51,5.47-.38,2.81.64,5.59,1.89,8.06s2.55,5.3,4.95,6.79c2.26,1.4,6.48,2.42,8.64.29.66-.66-1.08-1.32-1.47-1.44-.71-.24-2.47-.73-3.14-.07-.15.15-.31.3-.49.41-.13.08-.41.11-.52.21-.19.18.83-.12.8.22,0-.06-.93-.77-1.04-.9-.35-.39-.64-.81-.91-1.25-1.21-1.94-2.36-4.04-3.15-6.19-1.27-3.46-1.13-8.13,2.54-10.08.84-.45-1.26-1.37-1.47-1.44-.96-.32-2.2-.57-3.14-.07h0Z"/><ellipse class="cls-1" cx="11.5" cy="7.25" rx="6.06" ry="5.51"/><ellipse class="cls-1" cx="23.33" cy="34.23" rx="4.68" ry="6.06"/></g></svg>