<?xml version="1.0" encoding="UTF-8"?><svg id="Calque_2" xmlns="http://www.w3.org/2000/svg" viewBox="0 0 36.42 40.6"><defs><style>.cls-1{fill:#f1e2c3;stroke-width:0px;}</style></defs><g id="fb"><path class="cls-1" d="M15.76.33c.12.01.2-.05.27-.14.18.09.5-.54.57.11,0,.49,0,.99,0,1.48-.05.46-.05.91,0,1.37,0,.49,0,.99,0,1.48-.04.46-.05.91,0,1.37,0,.15-.05.31-.02.45.09.53-.15.82-.61,1.05-.46.22-.88.52-1.31.79-.34.12-.65.3-.93.54-.23.05-.41.17-.58.33-1,.56-2.01,1.1-3,1.68-.34.2-.32.51,0,.73.19.13.38.31.65.29.27.3.63.45.99.61.42.32.88.58,1.36.78.1.1.2.19.36.19.34.29.73.5,1.15.67.91.58,1.84,1.13,2.81,1.62.48.43.95.47,1.43,0,1.02-.52,2.02-1.07,2.98-1.71.38-.13.72-.32,1.02-.59.18-.02.32-.13.45-.25.55-.23,1.06-.53,1.54-.88.28-.09.54-.21.73-.45.23.05.38-.14.55-.23.42-.24.43-.57.02-.8-.32-.19-.61-.44-.98-.52-.12-.15-.28-.22-.46-.27-.42-.32-.88-.58-1.36-.78-.21-.21-.47-.34-.75-.42-.2-.23-.47-.34-.75-.45-.37-.28-.77-.52-1.21-.69-.09-.15-.22-.21-.39-.22-.41-.2-.52-.53-.46-.96.02-.16-.02-.33-.03-.5.06-.46.06-.92,0-1.37.05-.49.05-.99,0-1.48.06-.46.06-.92,0-1.37.05-.49.05-.99,0-1.48.07-.12-.02-.45.31-.22.12.09.27.13.4.2.11.05.22.1.33.16.28.3.66.44,1.01.61.88.56,1.78,1.09,2.72,1.56.97.62,1.96,1.22,3.01,1.71.88.57,1.79,1.11,2.73,1.59.06.12.16.16.28.12.39.35.86.59,1.34.79.42.33.88.59,1.38.79l.04.02c.47.37,1,.65,1.55.9.19.12.36.28.57.35.79.25,1.1.76.96,1.57v1.37c0,.49,0,.99,0,1.48,0,.46,0,.92,0,1.37,0,.49,0,.99,0,1.48,0,.46,0,.92,0,1.37,0,.49,0,.99,0,1.48,0,.46,0,.92,0,1.37,0,.49,0,.99,0,1.48,0,.5,0,.99,0,1.49,0,.49,0,.99,0,1.48,0,.46,0,.92,0,1.37,0,.49,0,.99,0,1.48-.09.23.13.53-.15.72-.99-.57-1.98-1.14-2.96-1.71-.95-.54-1.91-1.08-2.86-1.63-.13-.12-.26-.22-.45-.24-.01-.53-.02-1.06-.04-1.6v-1.25c0-.53,0-1.07,0-1.6,0-.45,0-.91,0-1.36,0-.53.02-1.06.02-1.59,0-.41-.19-.57-.58-.36-.26.14-.51.31-.77.47-.35.2-.7.39-1.05.59-1.41.81-2.82,1.62-4.23,2.42-.49.29-.99.58-1.48.87-.29.08-.45.26-.46.56-.01.95-.04,1.89-.03,2.84,0,2.05.02,4.09.04,6.14.1.39.35.27.57.15.46-.26.91-.54,1.36-.81.95-.54,1.91-1.09,2.86-1.63.59-.33,1.19-.65,1.77-1.01.28-.17.5-.16.78,0,.55.33,1.12.62,1.68.93.89.58,1.81,1.11,2.77,1.58.16.17.36.26.57.34.27.25.66.32.93.63-.41.26-.8.5-1.19.74-.07.04-.15.08-.22.12-.95.54-1.91,1.08-2.86,1.63-.5.28-1.02.52-1.47.88-.15.02-.28.09-.38.21-.36.15-.7.33-1,.58-.98.49-1.92,1.05-2.85,1.62-.38.22-.76.45-1.14.67-.15.03-.28.09-.37.21-.9.51-1.81,1.03-2.71,1.54-.57.33-1.14.66-1.7.99-.05.03-.09.06-.14.08-.31.21-.58.18-.91-.03-.55-.35-1.14-.65-1.71-.96-.94-.56-1.87-1.14-2.85-1.62-.08-.12-.2-.19-.35-.21-.31-.24-.65-.44-1.02-.58-.92-.61-1.89-1.14-2.86-1.67-.95-.54-1.9-1.08-2.85-1.62-.2-.18-.43-.31-.68-.4-.24-.18-.48-.35-.77-.44-.44-.3-.88-.61-1.41-.77-.14-.05-.17-.26-.35-.24-.39-.25-.78-.49-1.18-.75.24-.3.63-.35.87-.61.25-.08.46-.21.66-.38,1.02-.46,1.89-1.15,2.86-1.68.51-.18.98-.42,1.37-.8.44-.24.81-.07,1.19.17.54.33,1.1.63,1.66.94.22.14.42.32.68.38.16.16.36.26.57.33.51.34,1.04.66,1.6.91.12.13.27.21.45.25.27.17.52.37.81.5.35.16.59.06.58-.38,0-.58-.02-1.16-.03-1.74,0-.46,0-.91,0-1.37,0-.5,0-.99,0-1.49,0-.46,0-.91,0-1.37v-1.6c.21-1.11-.15-1.91-1.24-2.34-.12-.05-.23-.12-.35-.17-.79-.44-1.58-.87-2.37-1.31-.7-.39-1.32-.93-2.07-1.23-.62-.37-1.22-.75-1.85-1.1-.48-.27-.65-.14-.66.44,0,.5,0,.99,0,1.49,0,.46,0,.91,0,1.37,0,.5,0,.99,0,1.49-.05.49-.05.99,0,1.48-.03.49-.05.97-.08,1.46-.09.05-.19.11-.28.16-.98.51-1.94,1.05-2.87,1.65-1.02.53-2.01,1.09-2.98,1.71-.48-.07-.07-.46-.23-.65,0-.49,0-.99,0-1.48,0-.46,0-.92,0-1.37v-1.59c0-.42,0-.84,0-1.26,0-.53,0-1.06,0-1.59,0-.46,0-.92,0-1.37,0-.49,0-.99,0-1.48,0-.46,0-.92,0-1.37,0-.49,0-.99,0-1.48v-1.37c0-.49,0-.99,0-1.48,0-.46,0-.92,0-1.37.12-.4-.18-.89.27-1.22.1,0,.18-.03.22-.13.42-.16.8-.38,1.16-.65.5-.22.98-.47,1.41-.82h.04s.02-.02.02-.02c.55-.23,1.06-.54,1.55-.88.35-.15.69-.33.98-.57.23-.06.44-.16.6-.35.94-.46,1.84-.99,2.72-1.56.98-.49,1.93-1.03,2.84-1.63.42-.17.8-.39,1.16-.67.09,0,.18-.02.21-.12.52-.23,1.01-.52,1.47-.84.4-.17.77-.37,1.1-.65Z"/></g></svg>