<?xml version="1.0" encoding="UTF-8"?><svg id="Calque_2" xmlns="http://www.w3.org/2000/svg" viewBox="0 0 20.2 20.2"><defs><style>.cls-1{fill:#f1e2c3;stroke-width:0px;}</style></defs><g id="b2"><path class="cls-1" d="M0,13.74c0-.18,0-.36,0-.54.19-.21.35-.45.57-.64.84-.72,1.68-1.45,2.47-2.23.21-.21.17-.31-.02-.48-.77-.7-1.53-1.4-2.3-2.11.04-.04.07-.1.12-.13.13-.08.16-.34.37-.26.19.08.04.27.06.4.04.34.35.53.59.31.3-.26.62-.25.96-.25.58,0,1.16,0,1.75,0,.48,0,.55-.15.32-.55-.03-.05-.01-.12-.01-.17.36-.03.55.26.81.43.15.1.26.21.45,0,.57-.6,1.22-1.11,1.82-1.67,1.68-1.58,3.4-3.13,5.12-4.67.38-.34.71-.76,1.2-.99.7.11.88.32.89,1.03,0,1.29,0,2.59,0,3.88,0,.16,0,.33-.08.48-.04.01-.09.02-.12.04-1.33,1.03-2.65,2.08-4,3.08-.52.39-.97.9-1.56,1.16-.46.2-.24.3-.04.45.73.56,1.47,1.1,2.19,1.66,1.14.9,2.35,1.7,3.43,2.67.12.16.19.33.19.54,0,1.3,0,2.6,0,3.9,0,.6-.23.84-.84.96-.24-.04-.39-.21-.55-.36-1.08-.98-2.16-1.96-3.23-2.95-1.41-1.29-2.83-2.56-4.22-3.88-.35-.33-.56-.23-.88.02-.97.77-1.96,1.51-2.95,2.25-.25.18-.51.26-.83.09-.68-.35-1.18-.91-1.66-1.47Z"/><path class="cls-1" d="M15.08,5.57c.09-.15.08-.31.08-.48,0-1.29,0-2.59,0-3.88,0-.71-.18-.92-.89-1.03.09-.13.29-.04.36-.19.09,0,.18,0,.27,0,.25.11.51.22.76.34.98.47,1.97.94,2.94,1.43.59.31,1.32.45,1.6,1.19v14.19c-.14.36-.33.7-.7.88-1.53.73-3.06,1.45-4.6,2.18h-.27c-.1-.06-.2-.11-.31-.17.61-.12.84-.35.84-.96.01-1.3,0-2.6,0-3.9,0-.21-.07-.38-.19-.54.22-.09.18-.28.18-.45,0-2.73,0-5.46,0-8.19,0-.14.04-.3-.08-.42Z"/><path class="cls-1" d="M0,6.46c.43-.56.95-1.02,1.5-1.45.28-.22.63-.2.92.01.77.56,1.52,1.14,2.28,1.71.12.09.18.19.17.34,0,.06-.01.13.01.18.23.41.16.54-.32.55-.58.01-1.16,0-1.75,0-.34,0-.66-.01-.96.25-.25.22-.55.03-.59-.31-.02-.14.13-.33-.06-.4-.21-.08-.24.18-.37.26-.05.03-.08.08-.12.13-.29-.2-.54-.43-.72-.74v-.54Z"/></g></svg>