<?xml version="1.0" encoding="UTF-8"?><svg id="Calque_2" xmlns="http://www.w3.org/2000/svg" viewBox="0 0 28.93 28.16"><defs><style>.cls-1{fill:#f1e2c3;stroke-width:0px;}</style></defs><g id="wordpress"><path class="cls-1" d="M3.4,9.21l5.66,15.67c-.73-.35-4.43-2.22-6.04-6.69-1.6-4.46.04-8.24.38-8.98Z"/><path class="cls-1" d="M3.26,9.25l5.66,15.67.26-.12C3.47,22.05.91,15,3.54,9.22c.06-.14-.23-.12-.27-.02-2.66,5.84-.1,12.97,5.68,15.76.06.03.3,0,.26-.12L3.55,9.17c-.04-.12-.33-.04-.29.08Z"/><path class="cls-1" d="M20.6,24.27c2-5.89,3.46-10.17,4.01-11.66.09-.25.34-.9.46-1.8.19-1.45-.09-2.43-.04-2.45.11-.02,2.12,3.79,1.3,8.03-.9,4.65-4.71,7.23-5.73,7.87Z"/><path class="cls-1" d="M20.75,24.25c1.08-3.18,2.16-6.37,3.26-9.55.27-.78.56-1.55.83-2.33.29-.82.44-1.69.44-2.56,0-.29-.01-.59-.04-.88-.01-.13-.11-.44-.06-.57l-.26.09c.21.09.41.77.48.96.29.7.51,1.42.67,2.15.46,2.07.43,4.25-.26,6.26-.92,2.68-2.93,4.9-5.3,6.41-.17.1.08.16.18.09,2.42-1.54,4.47-3.8,5.41-6.54.72-2.1.72-4.38.21-6.52-.18-.75-.42-1.49-.73-2.19-.07-.17-.23-.68-.43-.77-.08-.04-.22,0-.26.09-.11.27.09.82.1,1.11.04.96-.11,1.92-.41,2.83-.27.81-.58,1.6-.86,2.41-1.11,3.18-2.18,6.36-3.26,9.55-.04.1.26.07.29-.03Z"/><path class="cls-1" d="M14.6,15.21c-1.16,3.43-2.32,6.85-3.48,10.28.73.3,1.94.7,3.48.73,1.76.03,3.13-.44,3.9-.76-1.3-3.41-2.6-6.83-3.9-10.24Z"/><path class="cls-1" d="M14.46,15.23c-1.16,3.43-2.32,6.85-3.48,10.28,0,.02.01.05.03.05,2.42.99,5.14.97,7.55-.05.03-.01.1-.06.09-.1-1.3-3.41-2.6-6.83-3.9-10.24-.04-.11-.33-.02-.29.08,1.3,3.41,2.6,6.83,3.9,10.24l.09-.1c-1.26.53-2.62.79-3.99.74-.71-.03-1.42-.14-2.11-.33-.26-.07-.68-.13-.89-.29-.14-.11-.12-.14-.08-.34.04-.21.14-.41.21-.62,1.05-3.12,2.11-6.24,3.16-9.36.03-.1-.26-.07-.29.03Z"/><path class="cls-1" d="M4.36,7.34c.59-.84,3.16-4.29,7.8-5.16,2.79-.53,5.17.1,6.38.54,1.88.67,3.22,1.65,4.01,2.33-.32.1-1.82.58-2.1,1.72-.14.57.11,1.15.61,2.29.42.95.76,1.46.96,1.83.44.83.82,2.16.42,4.32-.62,1.97-1.25,3.95-1.87,5.92-1.43-4.22-2.85-8.43-4.28-12.65.46,0,.91,0,1.37,0,.03-.02.32-.26.29-.65-.02-.28-.2-.46-.25-.5-1.16-.04-2.32-.08-3.48-.11-1.2.01-2.39.03-3.59.04-.21.1-.33.32-.33.55,0,.24.16.45.38.54l1.48.02c.61,1.66,1.22,3.31,1.83,4.97-.83,2.66-1.66,5.32-2.48,7.99-1.45-4.29-2.9-8.59-4.36-12.88.41,0,.81,0,1.22,0,.24-.07.42-.27.44-.51.03-.28-.17-.57-.48-.64-1.32.01-2.65.03-3.97.04Z"/><path class="cls-1" d="M4.5,7.35C7.51,3.1,12.77,1.1,17.82,2.6c1.35.4,2.63,1.04,3.78,1.86.13.09.74.45.76.53.02.07,0,0-.18.1-.39.21-.79.34-1.14.63-1.79,1.47.16,3.81.9,5.36.6,1.25.66,2.82.35,4.15-.47,2-1.25,3.97-1.87,5.92l.29-.05c-1.43-4.22-2.85-8.43-4.28-12.65l-.2.13c.58,0,1.47.28,1.77-.37.4-.86-.34-.97-.95-.99-1.41-.05-2.81-.09-4.22-.08-.61,0-1.59-.17-2.16.02-.15.05-.23.06-.36.21-.51.59.12,1.05.67,1.07.44.01.82-.09,1.15.32.2.25.28.77.39,1.06.26.71.52,1.42.79,2.13.33.9.48,1.55.18,2.48-.23.73-.45,1.45-.68,2.18-.49,1.57-.98,3.15-1.47,4.72l.29-.05c-1.45-4.29-2.9-8.59-4.36-12.88l-.2.13c.44,0,2.5.11,1.75-1.03-.27-.41-.76-.3-1.18-.29-1.08.01-2.17.02-3.25.03-.12,0-.3.19-.11.19.9,0,1.81-.02,2.71-.03.34,0,1.55-.15,1.63.37.12.77-1.1.58-1.44.58-.06,0-.23.04-.2.13,1.45,4.29,2.9,8.59,4.36,12.88.04.12.26.04.29-.05.7-2.24,1.39-4.48,2.09-6.72.12-.38.39-.9.39-1.29,0-.45-.44-1.19-.59-1.6-.41-1.12-.83-2.25-1.24-3.37-.01-.04-.05-.05-.09-.05h-.74c-.53.1-.71-.2-.54-.93.12-.08.93,0,1.08-.01.83,0,1.67-.03,2.5-.01s1.63.02,2.43.08h.35c.54,0,.64.32.3.99-.21.13-1,0-1.26,0-.06,0-.23.04-.2.13,1.43,4.22,2.85,8.43,4.28,12.65.04.12.26.04.29-.05.59-1.85,1.24-3.7,1.76-5.58.36-1.29.42-2.78-.04-4.06-.41-1.17-1.17-2.19-1.61-3.36-.29-.75-.42-1.45.18-2.11.41-.45,1-.71,1.57-.89.03-.01.18-.09.11-.14-3.09-2.61-7.34-3.75-11.29-2.73-2.9.75-5.45,2.64-7.17,5.07-.08.12.21.11.27.02Z"/><path class="cls-1" d="M27.48,14.28c-.07,5.46-3.4,10.67-8.63,12.54s-11.27-.24-14.62-4.61C.93,17.94.53,11.91,3.18,7.22,6.04,2.17,11.94-.43,17.57,1.15s9.83,7.1,9.91,13.14c0,.32,1.45.08,1.45-.39-.08-6.11-4.12-11.59-10.02-13.32-5.54-1.62-11.88.24-15.62,4.65C-.65,9.88-1.12,16.77,2.25,21.87c3.29,4.98,9.39,7.21,15.17,5.94,6.6-1.45,11.43-7.14,11.51-13.92,0-.31-1.44-.09-1.45.39Z"/></g></svg>